<svg width="35" height="24" viewBox="0 0 35 24" fill="none" xmlns="http://www.w3.org/2000/svg">
<rect x="1" y="0.5" width="33" height="23" rx="3.5" fill="white"/>
<rect x="1" y="0.5" width="33" height="23" rx="3.5" stroke="#F8F8F8"/>
<mask id="mask0_1256_36404" style="mask-type:luminance" maskUnits="userSpaceOnUse" x="4" y="6" width="27" height="12">
<path d="M30.3242 6.39062H4.67578V17.6118H30.3242V6.39062Z" fill="white"/>
</mask>
<g mask="url(#mask0_1256_36404)">
<path d="M10.3321 11.3308C10.3997 10.9148 10.2291 10.4938 9.95245 10.2276C9.67169 9.9532 9.25811 9.76471 8.68583 9.76471H7.56188C7.33265 9.76471 7.01616 9.80747 6.78533 9.89592C6.56754 9.96942 6.34747 10.0903 6.17572 10.2169C5.98061 10.3529 5.80679 10.5547 5.69298 10.7327C5.57848 10.9066 5.49145 11.1379 5.46191 11.3308C5.43901 11.4468 5.5029 11.6654 5.81962 11.6654H6.28885C6.61403 11.6654 6.7054 11.2514 6.7054 11.2514C6.75189 11.1317 6.81533 10.9839 6.97746 10.8778C7.08738 10.803 7.21929 10.7327 7.43913 10.7327H8.5766C8.80606 10.7327 8.90384 10.7973 8.97712 10.8628C9.08659 10.9675 9.13537 11.0812 9.10697 11.2514L8.83079 12.8968H6.55884C6.01083 12.8968 5.60596 13.0773 5.33207 13.3441C5.00276 13.6769 4.95421 13.9983 4.89925 14.4256L4.69017 16.0454C4.6249 16.5133 4.78704 16.8745 5.06803 17.1485C5.34901 17.4227 5.75046 17.6114 6.31953 17.6114H7.50303C7.67684 17.6114 7.92485 17.5838 8.1866 17.4981C8.40461 17.4244 8.66041 17.3003 8.85323 17.1561C9.02705 17.0276 9.18781 16.8595 9.30231 16.6856C9.41681 16.5116 9.50338 16.3137 9.54414 16.1266L10.3321 11.3308ZM8.68583 13.8462L8.31484 16.1245C8.31484 16.1245 8.29057 16.3175 8.065 16.4817C7.94111 16.5695 7.79134 16.6464 7.56188 16.6464H6.42648C6.03099 16.6464 5.86839 16.3581 5.91122 16.1243L6.13862 14.4254C6.1661 14.2184 6.18328 14.073 6.28908 13.9701C6.37747 13.8936 6.47205 13.846 6.65663 13.846L8.68583 13.8462ZM28.6117 17.278C28.5648 17.5619 28.3353 17.611 28.1963 17.611H27.7319C27.4115 17.611 27.3453 17.3932 27.3684 17.2772L29.0791 6.72401C29.1036 6.58838 29.1915 6.39147 29.4941 6.39062L29.9585 6.39147C30.1195 6.39147 30.3462 6.46307 30.3226 6.72401L28.6117 17.278ZM21.6793 11.3308C21.7427 10.8769 21.5822 10.506 21.3014 10.2318C20.9705 9.89908 20.5198 9.76471 20.0431 9.76471H18.9077C18.6438 9.76471 18.3665 9.80957 18.1556 9.88665C17.9383 9.957 17.6861 10.089 17.5139 10.22C17.3346 10.3517 17.1615 10.5408 17.0481 10.7173C16.9368 10.8815 16.8393 11.1178 16.8063 11.331L16.0334 16.0458C15.9691 16.4914 16.1438 16.8922 16.4234 17.1565C16.7195 17.4421 17.137 17.6118 17.6864 17.6118H18.822C19.0913 17.6118 19.3409 17.564 19.5589 17.4899C19.7767 17.416 20.0087 17.297 20.1809 17.17C20.3527 17.0436 20.5194 16.8787 20.6341 16.7048C20.7525 16.5312 20.8695 16.2998 20.9053 16.0456C20.9284 15.9295 20.8691 15.7139 20.5425 15.7139H20.0953C19.7454 15.7139 19.6618 16.1247 19.6618 16.1247C19.6292 16.268 19.5425 16.3865 19.4133 16.4819C19.3018 16.5651 19.1433 16.6466 18.9253 16.6466H17.7901C17.6772 16.6466 17.5073 16.6321 17.3754 16.5005C17.2433 16.368 17.243 16.2387 17.2593 16.1247L18.0507 11.252C18.0718 11.1501 18.1393 11.0128 18.3171 10.8809C18.4538 10.7929 18.5919 10.7329 18.8048 10.7329H19.9405C20.1397 10.7329 20.2498 10.7944 20.3314 10.8698C20.4202 10.9527 20.486 11.0844 20.4523 11.252C20.4523 11.252 20.3795 11.6656 20.8061 11.6656H21.2533C21.3914 11.6654 21.6353 11.617 21.6793 11.3308ZM15.58 11.6654H15.133C14.7063 11.6654 14.7789 11.2518 14.7789 11.2518C14.8126 11.0839 14.7467 10.9525 14.658 10.8695C14.5765 10.7941 14.4664 10.7327 14.2669 10.7327H13.1315C12.9187 10.7327 12.7804 10.7927 12.6442 10.8807C12.466 11.0125 12.3989 11.1499 12.3776 11.2518L11.5857 16.1245C11.5694 16.2385 11.5699 16.3678 11.702 16.5003C11.8335 16.6319 12.0036 16.6464 12.1165 16.6464H13.2519C13.47 16.6464 13.6284 16.5647 13.7397 16.4817C13.8687 16.3863 13.9557 16.2675 13.9882 16.1245C13.9882 16.1245 14.0715 15.7136 14.4215 15.7136H14.8689C15.1957 15.7136 15.2546 15.9293 15.2317 16.0454C15.1962 16.2996 15.0789 16.531 14.9603 16.7045C14.8458 16.8785 14.6793 17.0434 14.5073 17.1698C14.3354 17.2968 14.1032 17.4158 13.8856 17.4897C13.6674 17.564 13.418 17.6116 13.1487 17.6116H12.0133C11.4641 17.6116 11.0464 17.4419 10.7505 17.1563C10.4707 16.8918 10.296 16.4912 10.3601 16.0456L11.133 11.3308C11.1664 11.1176 11.2637 10.8815 11.375 10.7171C11.4884 10.5406 11.6611 10.3515 11.8408 10.2198C12.013 10.0888 12.2652 9.95678 12.482 9.88644C12.6934 9.80936 12.971 9.7645 13.2345 9.7645H14.3699C14.8465 9.7645 15.2976 9.89929 15.6285 10.2316C15.9093 10.5063 16.0698 10.8767 16.0059 11.3306C15.9622 11.617 15.7183 11.6654 15.58 11.6654Z" fill="#455560"/>
</g>
<mask id="mask1_1256_36404" style="mask-type:luminance" maskUnits="userSpaceOnUse" x="4" y="6" width="27" height="12">
<path d="M30.3242 6.39062H4.67578V17.6118H30.3242V6.39062Z" fill="white"/>
</mask>
<g mask="url(#mask1_1256_36404)">
<path d="M26.97 10.2285C26.6888 9.95454 26.2876 9.76562 25.7187 9.76562H24.535C24.3614 9.76562 24.1132 9.79342 23.8514 9.87914C23.6334 9.95285 23.3781 10.0773 23.1848 10.2212C23.011 10.3496 22.8502 10.5177 22.736 10.6919C22.6208 10.8658 22.5351 11.0638 22.4939 11.2508L22.1715 13.2145H21.8142C21.6548 13.2145 21.4222 13.2585 21.1916 13.3318C21.0329 13.3853 20.7695 13.5015 20.5524 13.6607C20.3802 13.7875 20.1984 13.9752 20.0779 14.1632C19.9293 14.3953 19.87 14.5845 19.8356 14.7786C19.8194 14.8538 19.845 15.112 20.1984 15.112H20.6374C20.9706 15.112 21.0255 15.0324 21.0455 14.8538C21.0455 14.8538 21.0519 14.5194 21.3544 14.3252C21.4295 14.2732 21.5898 14.1637 21.8142 14.1637H22.0153L21.7059 16.0463C21.6383 16.462 21.8092 16.8834 22.0854 17.1494C22.3663 17.4236 22.7799 17.6123 23.3524 17.6123H24.4759C24.7054 17.6123 25.0216 17.5696 25.2527 17.4813C25.4703 17.4074 25.6906 17.2865 25.8623 17.1597C26.0577 17.0241 26.2312 16.8219 26.3451 16.6444C26.4596 16.4702 26.5466 16.2394 26.5757 16.0463C26.5988 15.9302 26.5351 15.7118 26.2182 15.7118H25.7487C25.4233 15.7118 25.3322 16.1254 25.3322 16.1254C25.2857 16.2451 25.2223 16.3927 25.0601 16.4993C24.9504 16.574 24.8178 16.6442 24.5987 16.6442H23.4608C23.2313 16.6442 23.1333 16.5795 23.0602 16.514C22.9505 16.4093 22.9022 16.2956 22.9304 16.1252L23.2574 14.1635H25.5298C26.078 14.1635 26.4827 13.9855 26.7564 13.7191C27.0859 13.3861 27.1342 13.0647 27.1894 12.6368L27.3476 11.3315C27.4134 10.8637 27.2512 10.5027 26.97 10.2285ZM26.1268 11.2527L25.9503 12.6372C25.9225 12.8442 25.9058 12.9902 25.7998 13.0932C25.7114 13.1696 25.6171 13.2145 25.4325 13.2145H23.4033L23.7232 11.2527C23.7232 11.2527 23.7477 11.06 23.9733 10.8955C24.0969 10.8079 24.2467 10.7304 24.4762 10.7304H25.6116C26.0073 10.7304 26.1696 11.0189 26.1268 11.2527Z" fill="#F26B21"/>
</g>
</svg>
