<svg width="35" height="24" viewBox="0 0 35 24" fill="none" xmlns="http://www.w3.org/2000/svg">
<rect x="1" y="0.5" width="33" height="23" rx="3.5" fill="white"/>
<rect x="1" y="0.5" width="33" height="23" rx="3.5" stroke="#F8F8F8"/>
<path fill-rule="evenodd" clip-rule="evenodd" d="M16.3378 19.3008H18.9338C22.9863 19.3008 26.2155 16.0858 26.3422 12.1143V12.0512C26.2789 8.01669 22.9863 4.73864 18.9338 4.80168H16.0212C12.1587 4.92775 9.11937 8.20581 9.24601 12.1143C9.24601 16.0227 12.412 19.2377 16.3378 19.3008ZM10.5124 12.0512C10.5124 8.77314 13.2351 6.06244 16.5277 6.06244C19.8203 6.06244 22.543 8.77314 22.543 12.0512C22.543 15.3293 19.8203 18.04 16.5277 18.04C13.2351 18.04 10.5124 15.3293 10.5124 12.0512ZM17.4775 16.0857V8.07971C19.6937 8.64707 21.0867 10.8535 20.5168 13.0598C20.1369 14.5728 18.9972 15.7075 17.4775 16.0857ZM12.6019 11.0426C12.0321 13.249 13.3618 15.5184 15.5779 16.0857V8.07971C14.1216 8.45795 12.9818 9.59266 12.6019 11.0426Z" fill="#0079BE"/>
</svg>
