<svg width="35" height="24" viewBox="0 0 35 24" fill="none" xmlns="http://www.w3.org/2000/svg">
<rect x="1" y="0.5" width="33" height="23" rx="3.5" fill="white"/>
<rect x="1" y="0.5" width="33" height="23" rx="3.5" stroke="#F8F8F8"/>
<path d="M14.5 23L33.5 17.25V20C33.5 21.6569 32.1569 23 30.5 23H14.5Z" fill="#FD6020"/>
<path fill-rule="evenodd" clip-rule="evenodd" d="M29.8937 9.11084C30.939 9.11084 31.5139 9.59438 31.5139 10.5077C31.5662 11.2062 31.0958 11.7972 30.4686 11.9046L31.8797 13.8925H30.7822L29.5801 11.9584H29.4756V13.8925H28.5871V9.11084H29.8937ZM29.4756 11.3137H29.7369C30.3118 11.3137 30.5731 11.045 30.5731 10.5615C30.5731 10.1317 30.3118 9.86304 29.7369 9.86304H29.4756V11.3137ZM25.5034 13.8925H28.0122V13.0866H26.3919V11.7972H27.9599V10.9913H26.3919V9.91674H28.0122V9.11084H25.5034V13.8925ZM22.8902 12.3345L21.6881 9.11084H20.7474L22.6812 14H23.1515L25.0853 9.11084H24.1446L22.8902 12.3345ZM12.2805 11.5286C12.2805 12.8717 13.3258 14 14.6324 14C15.0505 14 15.4164 13.8925 15.7822 13.7314V12.6568C15.5209 12.9792 15.155 13.1941 14.7369 13.1941C13.9007 13.1941 13.2212 12.5494 13.2212 11.6897V11.5823C13.169 10.7227 13.8484 9.97048 14.6847 9.91675C15.1028 9.91675 15.5209 10.1317 15.7822 10.454V9.37948C15.4686 9.16458 15.0505 9.11085 14.6847 9.11085C13.3258 9.0034 12.2805 10.1317 12.2805 11.5286ZM10.6603 10.9376C10.1376 10.7227 9.98082 10.6152 9.98082 10.3466C10.0331 10.0242 10.2944 9.75557 10.608 9.8093C10.8693 9.8093 11.1306 9.97048 11.3397 10.1854L11.8101 9.54066C11.4442 9.2183 10.9739 9.00339 10.5035 9.00339C9.77176 8.94967 9.14459 9.54066 9.09232 10.2928V10.3466C9.09232 10.9913 9.35365 11.3674 10.1899 11.636C10.3989 11.6897 10.608 11.7972 10.8171 11.9046C10.9739 12.0121 11.0784 12.1733 11.0784 12.3882C11.0784 12.7643 10.7648 13.0866 10.4512 13.0866H10.3989C9.98082 13.0866 9.61497 12.818 9.45818 12.4419L8.88326 13.0329C9.19685 13.6239 9.82403 13.9463 10.4512 13.9463C11.2874 14 11.9669 13.3553 12.0191 12.4956V12.3345C11.9669 11.6897 11.7056 11.3674 10.6603 10.9376ZM7.62892 13.8925H8.51742V9.11084H7.62892V13.8925ZM3.5 9.11086H4.80662H5.06794C6.3223 9.16458 7.31532 10.2391 7.26306 11.5286C7.26306 12.227 6.94947 12.8717 6.42682 13.3553C5.95644 13.7314 5.38153 13.9463 4.80662 13.8926H3.5V9.11086ZM4.64983 13.0866C5.06794 13.1404 5.53833 12.9792 5.85191 12.7105C6.1655 12.3882 6.3223 11.9584 6.3223 11.4748C6.3223 11.045 6.1655 10.6152 5.85191 10.2928C5.53833 10.0242 5.06794 9.86302 4.64983 9.91674H4.3885V13.0866H4.64983Z" fill="black"/>
<path fill-rule="evenodd" clip-rule="evenodd" d="M18.4471 9C17.1405 9 16.043 10.0745 16.043 11.4714C16.043 12.8146 17.0883 13.9429 18.4471 13.9966C19.806 14.0503 20.8513 12.9221 20.9036 11.5252C20.8513 10.1283 19.806 9 18.4471 9V9Z" fill="#FD6020"/>
</svg>
