<svg width="35" height="24" viewBox="0 0 35 24" fill="none" xmlns="http://www.w3.org/2000/svg">
<rect x="1" y="0.5" width="33" height="23" rx="3.5" fill="white"/>
<rect x="1" y="0.5" width="33" height="23" rx="3.5" stroke="#F8F8F8"/>
<path d="M22.4837 11.9523C23.015 11.9638 23.5493 11.9288 24.0784 11.9705C24.6143 12.0704 24.7434 12.8817 24.2674 13.1474C23.9425 13.3224 23.5567 13.2125 23.2045 13.2434H22.4837V11.9523ZM24.3856 10.4909C24.5036 10.9075 24.102 11.2816 23.7008 11.2242H22.4837C22.4923 10.8313 22.4671 10.4049 22.4961 10.0327C22.9836 10.0464 23.4757 10.0047 23.9604 10.0545C24.1687 10.1068 24.343 10.278 24.3856 10.4909ZM27.3145 4.31253C27.3372 5.10817 27.3178 5.94586 27.3243 6.75764C27.3228 10.058 27.3275 13.3583 27.3217 16.6589C27.3003 17.8958 26.2042 18.9706 24.9758 18.9953C23.7463 19.0003 22.5166 18.9961 21.2869 18.9974V14.0079C22.6267 14.001 23.9672 14.022 25.3065 13.9975C25.9277 13.9585 26.6083 13.5485 26.6372 12.8648C26.7103 12.1781 26.0629 11.7032 25.4483 11.6282C25.212 11.622 25.2189 11.5593 25.4483 11.5319C26.0345 11.4052 26.4949 10.7985 26.3224 10.1908C26.1754 9.55172 25.469 9.30436 24.8815 9.30559C23.6834 9.29745 22.4852 9.30445 21.2871 9.30209C21.2949 8.37061 21.271 7.43812 21.3 6.50732C21.3949 5.29275 22.5187 4.29112 23.7298 4.31285C24.9248 4.31267 26.1197 4.31267 27.3145 4.31262V4.31253Z" fill="url(#paint0_linear_1256_36374)"/>
<path d="M7.74671 6.63335C7.77731 5.3984 8.87818 4.33244 10.1049 4.31439C11.3299 4.31062 12.5551 4.31385 13.7801 4.31276C13.7767 8.44462 13.7867 12.5769 13.775 16.7086C13.7279 17.9285 12.639 18.9742 11.4256 18.9957C10.1983 19.0002 8.97083 18.9964 7.74348 18.9976V13.8399C8.93565 14.1215 10.1858 14.2414 11.402 14.0546C12.129 13.9376 12.9244 13.5806 13.1706 12.8264C13.3517 12.1812 13.2497 11.5022 13.2767 10.8401V9.30231H11.1719C11.1624 10.3194 11.1913 11.3382 11.1567 12.354C11.0999 12.9784 10.4816 13.3751 9.89272 13.3539C9.16241 13.3616 7.7152 12.8246 7.7152 12.8246C7.71157 10.9191 7.73639 8.53273 7.74671 6.63353V6.63335Z" fill="url(#paint1_linear_1256_36374)"/>
<path d="M14.5654 9.92281C14.4546 9.94631 14.5431 9.54542 14.5148 9.39335C14.5223 8.43182 14.499 7.46924 14.5276 6.50839C14.6223 5.28867 15.7547 4.28454 16.9707 4.31309H20.5517C20.5483 8.44496 20.5582 12.5773 20.5466 16.7089C20.4994 17.9289 19.4104 18.9744 18.197 18.9961C16.9696 19.0007 15.7422 18.9968 14.5147 18.998V13.347C15.353 14.0348 16.4923 14.1419 17.5367 14.1437C18.324 14.1435 19.1067 14.0221 19.8713 13.8405V12.8052C19.0097 13.2347 17.9968 13.5074 17.0416 13.2607C16.3753 13.0949 15.8916 12.4509 15.9024 11.7633C15.8252 11.0482 16.2444 10.2933 16.9471 10.0807C17.8196 9.80756 18.7704 10.0165 19.5883 10.3716C19.7635 10.4633 19.9413 10.5771 19.8713 10.2842V9.4705C18.5035 9.14508 17.0479 9.02533 15.6737 9.37935C15.276 9.49155 14.8885 9.66172 14.5654 9.9229V9.92281Z" fill="url(#paint2_linear_1256_36374)"/>
<defs>
<linearGradient id="paint0_linear_1256_36374" x1="21.2456" y1="11.341" x2="27.2862" y2="11.341" gradientUnits="userSpaceOnUse">
<stop stop-color="#58B03A"/>
<stop offset="1" stop-color="#55B330"/>
</linearGradient>
<linearGradient id="paint1_linear_1256_36374" x1="7.61505" y1="11.7958" x2="13.6811" y2="11.7958" gradientUnits="userSpaceOnUse">
<stop stop-color="#0F6EB6"/>
<stop offset="1" stop-color="#006DBA"/>
</linearGradient>
<linearGradient id="paint2_linear_1256_36374" x1="14.5059" y1="11.4838" x2="20.5505" y2="11.4838" gradientUnits="userSpaceOnUse">
<stop stop-color="#DE0D3D"/>
<stop offset="1" stop-color="#E30138"/>
</linearGradient>
</defs>
</svg>
