<svg width="35" height="24" viewBox="0 0 35 24" fill="none" xmlns="http://www.w3.org/2000/svg">
<rect x="1" y="0.5" width="33" height="23" rx="3.5" fill="white"/>
<rect x="1" y="0.5" width="33" height="23" rx="3.5" stroke="#F8F8F8"/>
<path d="M31.2047 8.44442L30.8004 10.0066H27.4657L27.1824 11.1393H30.0161L29.6335 12.6185H26.7996L26.4578 13.8625H29.8215L29.4389 15.3418H24.24L26.0188 8.39453L23.2819 8.40017L23.2639 8.52992C24.2294 8.80618 24.6859 9.54873 24.7837 11.0058H22.9405C22.8252 10.3643 22.5753 9.94098 21.7837 9.94098C21.3853 9.94098 20.4084 10.1286 19.9485 11.8672C19.7241 12.7153 19.7553 13.3339 20.0414 13.7059C20.2372 13.9605 20.5468 14.0897 20.9615 14.0897C21.6915 14.0897 22.3029 13.5027 22.4517 13.0549H24.2911C24.2268 13.3354 24.066 13.9517 23.5863 14.5001C22.9441 15.2344 21.9607 15.6065 20.663 15.6065C19.6721 15.6065 18.8831 15.2762 18.3821 14.6514C17.8402 13.9751 17.6773 12.993 17.9237 11.8859C18.2023 10.6361 18.8981 9.03942 20.6321 8.5301L20.6138 8.40053L19.3715 8.39488L19.3669 8.40053L15.7114 12.9209L15.7024 12.9318L15.6987 12.9457L15.0725 15.3416H13.2086L13.8538 12.868L13.8593 12.847L13.8513 12.8267L12.084 8.39471H11.9322L10.1539 15.3418H8.14153L6.75234 11.0292L5.64521 15.3418H3.78125L5.56658 8.39471H7.48849L8.89737 12.7349L10.0348 8.39471H11.9322H12.084H14.3132L15.0725 11.0933L16.8983 8.40053H19.3669L19.3715 8.39488L20.6138 8.40053L20.6321 8.5301C21.1028 8.47288 22.288 8.39274 23.2639 8.52992L23.2819 8.40017L26.0188 8.39453L31.2174 8.39471L31.2047 8.44442Z" fill="#EE0029"/>
</svg>
