<svg width="35" height="24" viewBox="0 0 35 24" fill="none" xmlns="http://www.w3.org/2000/svg">
<rect x="1" y="0.5" width="33" height="23" rx="3.5" fill="white"/>
<rect x="1" y="0.5" width="33" height="23" rx="3.5" stroke="#F8F8F8"/>
<g clip-path="url(#clip0_1256_36382)">
<mask id="mask0_1256_36382" style="mask-type:luminance" maskUnits="userSpaceOnUse" x="4" y="6" width="27" height="14">
<path d="M4.44531 6.93616H30.5536V19.9453H4.44531V6.93616Z" fill="white"/>
</mask>
<g mask="url(#mask0_1256_36382)">
<path fill-rule="evenodd" clip-rule="evenodd" d="M18.0866 14.9727L19.0612 8.06893C19.1274 7.65342 19.0922 7.04329 18.432 6.99941L17.4451 6.99935L16.3164 14.9727L18.0866 14.9727Z" fill="#231F20"/>
<path fill-rule="evenodd" clip-rule="evenodd" d="M15.713 14.9727L16.4469 9.75809H14.6921L14.2084 13.2029H13.0334C12.7958 13.2025 12.5939 13.0404 12.6413 12.7304L12.9097 10.8376C12.9651 10.4523 12.9968 9.76151 12.394 9.75809H11.2811L10.793 13.2072C10.6452 14.3606 11.2167 14.9727 11.9388 14.9727L15.713 14.9727Z" fill="#231F20"/>
<path fill-rule="evenodd" clip-rule="evenodd" d="M30.0404 14.5382V14.4189H30.1405C30.188 14.4189 30.1967 14.4532 30.1967 14.4773C30.1967 14.5215 30.1761 14.5382 30.1348 14.5382H30.0404ZM29.9617 14.7889H30.0404V14.6136H30.1233C30.1826 14.6136 30.186 14.6375 30.186 14.6981C30.186 14.7445 30.1892 14.7674 30.1943 14.7889H30.2832V14.7768C30.2666 14.7693 30.2666 14.7529 30.2666 14.6878C30.2666 14.6043 30.2487 14.5904 30.2173 14.5741C30.2559 14.5598 30.2765 14.5166 30.2765 14.468C30.2765 14.4294 30.2582 14.3411 30.1557 14.3411H29.9617V14.7889ZM30.1235 14.9255C29.9465 14.9265 29.8034 14.7653 29.8026 14.5662C29.8019 14.3677 29.9442 14.2052 30.1218 14.2045C30.2984 14.2038 30.4419 14.3652 30.4431 14.564C30.4431 14.7628 30.3008 14.925 30.1235 14.9255ZM30.1235 14.9922C30.332 14.9912 30.5001 14.7991 30.4994 14.5632C30.4987 14.328 30.3295 14.1368 30.1215 14.1382C29.9133 14.1389 29.7449 14.3303 29.7461 14.5667C29.7469 14.8023 29.9155 14.9929 30.1235 14.9922Z" fill="#231F20"/>
<path fill-rule="evenodd" clip-rule="evenodd" d="M6.73586 13.1995H8.12962V13.1989C8.4709 13.1989 8.78976 12.9008 8.83501 12.5399L8.89704 12.1015C8.97424 11.6617 8.70231 11.3938 8.36103 11.3938H6.99155L6.73586 13.1995ZM6.48485 14.9733L6.19889 17C6.18025 16.9933 4.5 17 4.5 17L5.52173 9.75875H8.81152C9.93178 9.75875 10.7195 10.7148 10.5711 11.8998L10.4432 12.8073C10.2946 13.9923 9.24821 14.9733 8.12794 14.9733H6.48485Z" fill="#231F20"/>
<path d="M28.373 11.6145L28.3999 11.4086C28.4224 11.2372 28.3093 11.0981 28.1471 11.0981H26.7867C26.6246 11.0981 26.4752 11.2372 26.4527 11.4086L26.4258 11.6145H28.373ZM25.5208 14.9727C24.8494 14.9727 24.3333 14.3961 24.4246 13.6859L24.7918 11.0802C24.8832 10.3699 25.5205 9.75803 26.1918 9.75803H28.9795C29.6596 9.75803 30.1356 10.3699 30.0442 11.0802L29.7954 12.8416H26.2544L26.1815 13.3587L29.061 13.359C29.5067 13.3546 29.6551 13.7857 29.5978 14.2438L29.4948 14.9727H25.5208Z" fill="#231F20"/>
<path d="M6.83594 17L7.01575 15.6687H29.3957L29.2908 16.4453C29.2345 16.8227 29.0511 17 28.7636 17H6.83594Z" fill="#EE7623"/>
<path d="M20.5067 9.75809C19.8765 9.75809 19.3617 10.346 19.2614 11.0542L19.1696 11.7035C19.0842 12.3887 19.4338 12.9647 20.0338 12.9995C20.053 13.0006 20.0721 13.0011 20.0916 13.0011H22.2535L22.1988 13.361H19.7622C19.3249 13.3625 18.8983 13.4077 18.8431 13.8744L18.6836 14.9727H22.6042C23.2503 14.9727 23.8524 14.5188 23.9407 13.8118L24.0672 12.9207C24.1554 12.2135 23.695 11.6229 23.0489 11.6229H20.8L20.8415 11.287H23.4101C24.0571 11.287 24.2586 11.2029 24.3468 10.694L24.479 9.75809H20.5067Z" fill="#231F20"/>
</g>
</g>
<defs>
<clipPath id="clip0_1256_36382">
<rect width="26" height="10" fill="white" transform="translate(4.5 7)"/>
</clipPath>
</defs>
</svg>
