<svg width="35" height="24" viewBox="0 0 35 24" fill="none" xmlns="http://www.w3.org/2000/svg">
<rect x="1" y="0.5" width="33" height="23" rx="3.5" fill="white"/>
<rect x="1" y="0.5" width="33" height="23" rx="3.5" stroke="#F8F8F8"/>
<path fill-rule="evenodd" clip-rule="evenodd" d="M6.06826 16.6755C5.94398 17.375 5.67969 18.1211 5.67969 18.1211C5.67969 18.1211 6.31708 18.6183 7.85577 18.6183C9.75222 18.6183 11.0736 17.5302 11.0736 16.0846C11.0736 14.639 9.84557 14.0637 9.13043 13.7529C9.04579 13.7161 8.95635 13.6789 8.86445 13.6406C8.17998 13.3555 7.35839 13.0133 7.35839 12.3693C7.35839 11.6388 7.94911 11.39 8.77306 11.39C9.59701 11.39 10.312 11.8718 10.312 11.8718C11.6956 11.732 12.5194 11.8563 12.5194 11.8563V18.4476H14.4006V11.8877C15.784 11.6388 16.7635 11.9654 16.7635 11.9654C16.7479 11.2657 16.8877 10.7528 16.8877 10.7528H10.1723C9.33272 10.5351 8.64878 10.5662 8.64878 10.5662C6.90768 10.5662 5.7729 11.6234 5.7729 12.929C5.7729 14.2348 6.61245 14.9033 7.66949 15.2919C8.72652 15.6803 9.39499 16.1625 9.39499 16.6132C9.39499 17.0639 9.20844 17.7945 7.88711 17.7945C6.56591 17.7945 6.4259 16.6287 6.4259 16.6287L6.06826 16.6755ZM28.4998 12.4317C28.4998 12.4317 28.6862 14.2503 26.7276 14.5923C26.7276 14.5923 28.0994 16.893 29.3177 18.4476H26.8928L24.8157 14.9498V18.4476H20.566L19.7073 16.1314H17.206L16.1823 18.4476H14.8455L18.452 10.7528H19.8353L22.7579 18.1714V10.7529H26.479C26.479 10.7529 28.4998 10.675 28.4998 12.4317ZM5.67969 9.74225H10.9339C10.9635 9.69232 10.9927 9.64229 11.0219 9.59214C11.4837 8.79918 11.9616 7.97872 14.4471 7.13066C17.0898 6.22897 21.9398 6.13576 21.9398 6.13576V5.91814C21.9398 5.91814 18.0536 5.70052 12.8305 6.69542C7.13928 7.77949 5.67969 9.74225 5.67969 9.74225ZM26.6689 5.87671L25.857 3.37891L25.0453 5.87685L22.4189 5.87698L24.5439 7.42078L23.7325 10.0193L25.857 8.37479L27.982 10.0192L27.1706 7.42064L29.2953 5.87671H26.6689ZM18.5683 13.0538L17.5859 15.2769H19.3924L18.5683 13.0538ZM24.7244 11.515V14.1265C25.8903 14.1265 26.5121 13.9399 26.5121 12.6497C26.5121 11.2506 24.7244 11.515 24.7244 11.515Z" fill="#CA003A"/>
</svg>
