<svg width="35" height="24" viewBox="0 0 35 24" fill="none" xmlns="http://www.w3.org/2000/svg">
<rect x="1" y="0.5" width="33" height="23" rx="3.5" fill="white"/>
<rect x="1" y="0.5" width="33" height="23" rx="3.5" stroke="#F8F8F8"/>
<path d="M11.0166 5H16.3748C17.1227 5 17.5879 5.62758 17.4134 6.40009L14.9188 17.4255C14.7428 18.1953 13.9939 18.8234 13.2454 18.8234H7.88777C7.14087 18.8234 6.67462 18.1953 6.8491 17.4255L9.34476 6.40009C9.51925 5.62758 10.2677 5 11.0166 5Z" fill="#E21836"/>
<path d="M15.9303 5H22.0921C22.8399 5 22.5027 5.62758 22.3268 6.40009L19.8326 17.4255C19.6576 18.1953 19.7121 18.8234 18.9628 18.8234H12.801C12.0516 18.8234 11.5878 18.1953 11.7639 17.4255L14.258 6.40009C14.4351 5.62758 15.182 5 15.9303 5Z" fill="#00447C"/>
<path d="M21.848 5H27.2062C27.9552 5 28.4204 5.62758 28.2445 6.40009L25.7503 17.4255C25.5742 18.1953 24.8248 18.8234 24.076 18.8234H18.7203C17.9709 18.8234 17.5061 18.1953 17.6816 17.4255L20.1762 6.40009C20.3507 5.62758 21.0986 5 21.848 5Z" fill="#007B84"/>
<path d="M12.4142 8.53509C11.8632 8.54087 11.7004 8.53509 11.6484 8.52245C11.6285 8.62019 11.2566 10.3858 11.2556 10.3873C11.1755 10.7445 11.1173 10.9992 10.9194 11.1636C10.8071 11.2592 10.676 11.3053 10.524 11.3053C10.2796 11.3053 10.1373 11.1804 10.1134 10.9435L10.1088 10.8622C10.1088 10.8622 10.1832 10.3837 10.1832 10.381C10.1832 10.381 10.5735 8.77198 10.6433 8.55929C10.647 8.54719 10.648 8.54087 10.649 8.53509C9.88938 8.54195 9.75473 8.53509 9.74545 8.52245C9.74036 8.5398 9.72155 8.63955 9.72155 8.63955L9.32309 10.4531L9.28887 10.6069L9.22266 11.1099C9.22266 11.2592 9.25113 11.381 9.30781 11.484C9.48934 11.8105 10.0072 11.8595 10.3001 11.8595C10.6776 11.8595 11.0316 11.7769 11.2709 11.6262C11.6862 11.3736 11.7949 10.9787 11.8918 10.6278L11.9367 10.4478C11.9367 10.4478 12.3387 8.77669 12.407 8.55929C12.4096 8.54719 12.4106 8.54087 12.4142 8.53509ZM13.7819 9.8832C13.685 9.8832 13.5079 9.9074 13.3488 9.98766C13.2911 10.0182 13.2365 10.0534 13.1789 10.0885L13.2309 9.8953L13.2024 9.86277C12.8651 9.93308 12.7896 9.94249 12.478 9.98766L12.4519 10.0055C12.4157 10.3144 12.3836 10.5465 12.2494 11.1535C12.1984 11.3773 12.1453 11.6031 12.0922 11.8263L12.1066 11.8547C12.4259 11.8373 12.5228 11.8373 12.8003 11.842L12.8228 11.8169C12.858 11.631 12.8626 11.5874 12.9407 11.2108C12.9774 11.0323 13.0539 10.64 13.0917 10.5003C13.161 10.4672 13.2295 10.4347 13.2948 10.4347C13.4503 10.4347 13.4314 10.5744 13.4254 10.63C13.4187 10.7235 13.362 11.0287 13.3039 11.2907L13.2651 11.4598C13.2381 11.5847 13.2084 11.7061 13.1814 11.8299L13.1932 11.8547C13.5079 11.8373 13.6039 11.8373 13.8727 11.842L13.9043 11.8169C13.9529 11.5265 13.9671 11.4488 14.0533 11.026L14.0967 10.8317C14.1809 10.4515 14.2232 10.2587 14.1595 10.1017C14.0921 9.92569 13.9304 9.8832 13.7819 9.8832ZM15.3098 10.2813C15.1425 10.3143 15.0358 10.3364 14.9298 10.3506C14.8247 10.368 14.7221 10.3837 14.5605 10.4068L14.5477 10.4188L14.5359 10.4284C14.5191 10.5523 14.5073 10.6595 14.485 10.7854C14.466 10.9157 14.4369 11.0637 14.3895 11.2764C14.3528 11.4392 14.3339 11.496 14.313 11.5532C14.2926 11.6105 14.2701 11.6662 14.2289 11.8263L14.2385 11.8411L14.2466 11.8547C14.3977 11.8473 14.4966 11.842 14.5982 11.8411C14.6997 11.8373 14.8048 11.8411 14.9675 11.842L14.9818 11.8301L14.9971 11.8169C15.0206 11.6725 15.0241 11.6336 15.0385 11.5632C15.0527 11.4876 15.0772 11.383 15.1374 11.1037C15.1659 10.9724 15.1977 10.8416 15.2272 10.7077C15.2579 10.5744 15.29 10.443 15.3206 10.3118L15.316 10.2959L15.3098 10.2813ZM15.3134 9.74455C15.1614 9.65219 14.8946 9.6815 14.715 9.80908C14.5359 9.93411 14.5156 10.1116 14.6671 10.2052C14.8165 10.295 15.0843 10.2682 15.2623 10.1395C15.441 10.0118 15.4633 9.83597 15.3134 9.74455ZM16.2328 11.8836C16.5403 11.8836 16.8556 11.7963 17.0929 11.5374C17.2755 11.3274 17.3592 11.015 17.3882 10.8863C17.4826 10.4599 17.4091 10.2607 17.3168 10.1395C17.1765 9.95462 16.9286 9.89533 16.6715 9.89533C16.5168 9.89533 16.1485 9.91106 15.8608 10.1841C15.6542 10.3811 15.5587 10.6483 15.5011 10.9046C15.443 11.1657 15.3762 11.6357 15.796 11.8106C15.9256 11.8679 16.1124 11.8836 16.2328 11.8836ZM16.2087 10.9241C16.2797 10.6012 16.3634 10.3301 16.577 10.3301C16.7445 10.3301 16.7566 10.5318 16.6822 10.8558C16.6689 10.9277 16.6077 11.1951 16.5251 11.309C16.4673 11.393 16.399 11.444 16.3235 11.444C16.3011 11.444 16.1675 11.444 16.1654 11.2398C16.1643 11.1389 16.1843 11.0359 16.2087 10.9241ZM18.1571 11.8421L18.1811 11.8169C18.2152 11.631 18.2208 11.5873 18.2963 11.2109C18.334 11.0323 18.4121 10.64 18.4488 10.5003C18.5183 10.4671 18.5856 10.4346 18.653 10.4346C18.8075 10.4346 18.7886 10.5743 18.7825 10.6299C18.7769 10.7235 18.7202 11.0286 18.661 11.2906L18.6243 11.4597C18.5963 11.5847 18.5657 11.706 18.5387 11.83L18.5504 11.8547C18.8662 11.8374 18.9586 11.8374 19.2289 11.8421L19.2616 11.8169C19.309 11.5264 19.3218 11.4487 19.4106 11.026L19.4529 10.8316C19.5375 10.4514 19.5804 10.2587 19.5177 10.1017C19.4483 9.92573 19.2856 9.88324 19.1392 9.88324C19.0421 9.88324 18.8641 9.90731 18.706 9.9877C18.6494 10.0182 18.5927 10.0533 18.5371 10.0885L18.5856 9.89534L18.5596 9.86267C18.2224 9.93312 18.1453 9.94253 17.8341 9.9877L17.8102 10.0056C17.7724 10.3144 17.7417 10.5464 17.6076 11.1536C17.5566 11.3773 17.5035 11.6032 17.4505 11.8263L17.4647 11.8547C17.7846 11.8374 17.8801 11.8374 18.1571 11.8421ZM20.4773 11.8546C20.4971 11.7549 20.615 11.1636 20.6161 11.1636C20.6161 11.1636 20.7165 10.7298 20.7227 10.714C20.7227 10.714 20.7543 10.6689 20.7859 10.651H20.8324C21.2711 10.651 21.7664 10.651 22.1547 10.357C22.4189 10.1553 22.5995 9.8575 22.6801 9.49558C22.701 9.40684 22.7164 9.30131 22.7164 9.19577C22.7164 9.05716 22.6894 8.92003 22.6113 8.81288C22.4133 8.52772 22.019 8.52248 21.5639 8.52033C21.5624 8.52033 21.3395 8.52248 21.3395 8.52248C20.7569 8.52988 20.5232 8.52772 20.4272 8.51562C20.4191 8.55932 20.4039 8.63703 20.4039 8.63703C20.4039 8.63703 20.1952 9.63271 20.1952 9.63432C20.1952 9.63432 19.6957 11.7513 19.6722 11.851C20.1809 11.8447 20.3895 11.8447 20.4773 11.8546ZM20.864 10.0859C20.864 10.0859 21.0859 9.09225 21.0848 9.09601L21.092 9.04506L21.0951 9.00621L21.1838 9.01562C21.1838 9.01562 21.6414 9.05608 21.6521 9.05716C21.8328 9.12909 21.9072 9.31448 21.8552 9.55648C21.8078 9.77764 21.6685 9.96357 21.4894 10.0534C21.342 10.1295 21.1613 10.1358 20.9752 10.1358H20.8548L20.864 10.0859ZM22.2455 10.9425C22.1869 11.1998 22.1195 11.6698 22.5373 11.8373C22.6705 11.8957 22.7899 11.913 22.9112 11.9067C23.0393 11.8996 23.158 11.8334 23.268 11.7383C23.2581 11.7774 23.2481 11.8165 23.2382 11.8558L23.2572 11.8809C23.5577 11.8679 23.6509 11.8679 23.9765 11.8704L24.006 11.8473C24.0536 11.5596 24.0984 11.2802 24.2219 10.7298C24.2821 10.4662 24.3422 10.2051 24.404 9.9425L24.3943 9.9136C24.0581 9.97773 23.9683 9.99144 23.6449 10.0386L23.6204 10.0592C23.6171 10.086 23.6137 10.1116 23.6106 10.1373C23.5603 10.0537 23.4874 9.9823 23.375 9.9378C23.2312 9.87959 22.8934 9.9546 22.6031 10.2267C22.3991 10.421 22.3012 10.6872 22.2455 10.9425ZM22.9516 10.9582C23.0235 10.6411 23.1062 10.3727 23.3204 10.3727C23.4558 10.3727 23.5271 10.5014 23.5126 10.7208C23.5011 10.7755 23.4887 10.8332 23.474 10.8984C23.4525 10.9926 23.4293 11.0861 23.4067 11.1796C23.3837 11.2436 23.3569 11.304 23.3276 11.3442C23.2724 11.4246 23.1413 11.4745 23.0658 11.4745C23.0444 11.4745 22.9122 11.4745 22.9077 11.2739C22.9066 11.174 22.9266 11.0712 22.9516 10.9582ZM26.6385 9.91103L26.6125 9.88051C26.2799 9.94989 26.2197 9.96091 25.914 10.0034L25.8916 10.0265C25.8905 10.0303 25.8896 10.0361 25.8881 10.0413L25.887 10.0361C25.6595 10.5764 25.6662 10.4598 25.481 10.8852C25.4799 10.8658 25.4799 10.8537 25.4789 10.8332L25.4325 9.91103L25.4034 9.88051C25.055 9.94989 25.0467 9.96091 24.7249 10.0034L24.6998 10.0265C24.6963 10.0375 24.6963 10.0496 24.6942 10.0628L24.6963 10.0675C24.7365 10.2791 24.7269 10.2319 24.7672 10.5659C24.786 10.7298 24.8111 10.8946 24.8299 11.0565C24.8617 11.3274 24.8794 11.4608 24.9182 11.8742C24.7009 12.2433 24.6494 12.383 24.4402 12.707L24.4416 12.7103L24.2943 12.9501C24.2775 12.9754 24.2622 12.9927 24.2408 13.0001C24.2173 13.0121 24.1867 13.0142 24.1443 13.0142H24.0626L23.9413 13.4297L24.3575 13.4371C24.6019 13.436 24.7555 13.3183 24.8382 13.1602L25.0999 12.6986H25.0957L25.1233 12.666C25.2993 12.2759 26.6385 9.91103 26.6385 9.91103ZM22.2455 15.367H22.0689L22.7225 13.1419H22.9393L23.0081 12.9127L23.0147 13.1676C23.0067 13.3251 23.1271 13.4648 23.4434 13.4417H23.8092L23.9351 13.0132H23.7974C23.7183 13.0132 23.6816 12.9927 23.6862 12.9486L23.6795 12.6892H23.0021V12.6906C22.7831 12.6953 22.129 12.7122 21.9966 12.7485C21.8363 12.791 21.6675 12.916 21.6675 12.916L21.7338 12.6865H21.1001L20.9681 13.1419L20.3058 15.4011H20.1773L20.0513 15.8264H21.3134L21.2711 15.9683H21.893L21.9343 15.8264H22.1088L22.2455 15.367ZM21.7277 13.594C21.6262 13.6229 21.4373 13.7106 21.4373 13.7106L21.6053 13.1419H22.1088L21.9873 13.5562C21.9873 13.5562 21.8318 13.5657 21.7277 13.594ZM21.7373 14.4065C21.7373 14.4065 21.5792 14.4269 21.4751 14.4511C21.3726 14.4831 21.1803 14.5839 21.1803 14.5839L21.3538 13.9921H21.8598L21.7373 14.4065ZM21.4552 15.3723H20.9502L21.0966 14.8728H21.6001L21.4552 15.3723ZM22.6715 13.9921H23.3994L23.2948 14.3408H22.5572L22.4465 14.7221H23.0919L22.6032 15.4305C22.569 15.4825 22.5383 15.501 22.5042 15.5156C22.47 15.5335 22.425 15.5545 22.3731 15.5545H22.194L22.071 15.972H22.5393C22.7827 15.972 22.9265 15.858 23.0327 15.7084L23.3678 15.2362L23.4398 15.7157C23.4551 15.8055 23.5178 15.858 23.5602 15.8785C23.6071 15.9027 23.6556 15.9442 23.724 15.9504C23.7974 15.9536 23.8504 15.9562 23.8857 15.9562H24.1158L24.254 15.4889H24.1632C24.1111 15.4889 24.0214 15.4798 24.0061 15.463C23.9908 15.4426 23.9908 15.4111 23.9826 15.3633L23.9096 14.8828H23.6106L23.7418 14.7221H24.478L24.5912 14.3408H23.9096L24.0158 13.9921H24.6953L24.8213 13.562H22.7954L22.6715 13.9921ZM16.523 15.4694L16.6929 14.8875H17.3912L17.5188 14.4548H16.8199L16.9266 14.0966H17.6096L17.7362 13.6775H16.0271L15.9032 14.0966H16.2914L16.1879 14.4548H15.7986L15.6695 14.8949H16.0577L15.8312 15.6647C15.8006 15.7667 15.8456 15.8055 15.874 15.8528C15.9032 15.8989 15.9327 15.9295 15.999 15.9468C16.0675 15.9625 16.1143 15.9719 16.1781 15.9719H16.9653L17.1056 15.4925L16.7566 15.5419C16.6893 15.5419 16.5026 15.5335 16.523 15.4694ZM16.6031 12.6839L16.4261 13.0132C16.3883 13.0851 16.3542 13.1297 16.3235 13.1503C16.2964 13.1676 16.2429 13.1749 16.1653 13.1749H16.073L15.9496 13.5961H16.2562C16.4037 13.5961 16.5169 13.5404 16.571 13.5126C16.6291 13.4806 16.6444 13.4989 16.6893 13.4543L16.7929 13.3619H17.7504L17.8775 12.9234H17.1766L17.2989 12.6839H16.6031ZM18.0168 15.4779C18.0005 15.4537 18.0122 15.411 18.0372 15.3223L18.2989 14.4305H19.2299C19.3656 14.4285 19.4636 14.4269 19.5273 14.4222C19.5957 14.4148 19.6702 14.3897 19.7513 14.3445C19.835 14.2972 19.8778 14.2473 19.914 14.19C19.9544 14.1329 20.0192 14.0079 20.0748 13.8151L20.4038 12.6866L19.4376 12.6923C19.4376 12.6923 19.1401 12.7375 19.0091 12.7874C18.8769 12.843 18.6881 12.9985 18.6881 12.9985L18.7753 12.6891H18.1785L17.3429 15.5418C17.3132 15.6526 17.2934 15.733 17.2888 15.7813C17.2872 15.8333 17.3525 15.8848 17.3949 15.9237C17.4449 15.9625 17.5188 15.9562 17.5897 15.9625C17.6643 15.9683 17.7703 15.9719 17.9167 15.9719H18.3754L18.5162 15.4826L18.1056 15.5225C18.0617 15.5225 18.03 15.4983 18.0168 15.4779ZM18.4677 13.8282H19.4457L19.3835 14.0288C19.3748 14.0335 19.3539 14.0189 19.2544 14.031H18.4075L18.4677 13.8282ZM18.6636 13.1555H19.6498L19.5789 13.3971C19.5789 13.3971 19.1141 13.3924 19.0396 13.4065C18.7121 13.4648 18.5208 13.645 18.5208 13.645L18.6636 13.1555ZM19.4054 14.7005C19.3973 14.7305 19.3845 14.7488 19.3666 14.7625C19.3468 14.7757 19.3146 14.7804 19.2667 14.7804H19.1274L19.1356 14.5361H18.556L18.5325 15.7304C18.5316 15.8166 18.5397 15.8664 18.6009 15.9064C18.6622 15.9562 18.8509 15.9626 19.1049 15.9626H19.4681L19.5992 15.5155L19.283 15.5334L19.1779 15.5397C19.1635 15.5334 19.1498 15.5276 19.1345 15.5119C19.1212 15.4983 19.0988 15.5067 19.1024 15.4205L19.1049 15.1144L19.4365 15.1002C19.6155 15.1002 19.6921 15.0403 19.7574 14.9831C19.8197 14.9284 19.8401 14.8655 19.8636 14.7804L19.9192 14.5094H19.4635L19.4054 14.7005Z" fill="#FEFEFE"/>
</svg>
