<svg width="32" height="32" viewBox="0 0 32 32" fill="none" xmlns="http://www.w3.org/2000/svg">
<g clip-path="url(#clip0_1256_48025)">
<path fill-rule="evenodd" clip-rule="evenodd" d="M12.9889 0H19.0111C26.155 0 32 5.84502 32 12.9889V19.0111C32 26.155 26.155 32 19.0111 32H12.9889C5.84502 32 0 26.155 0 19.0111V12.9889C0 5.84502 5.84502 0 12.9889 0Z" fill="#2357C6"/>
<path d="M11.3689 7.14453H20.6383C21.7601 7.14453 22.7933 7.61686 23.5313 8.35486C24.2988 9.12239 24.7416 10.1261 24.7416 11.2774V20.7239C24.7416 21.8456 24.2988 22.8788 23.5313 23.6169C22.7933 24.3844 21.7601 24.8272 20.6383 24.8272H11.3689C10.2177 24.8272 9.21396 24.3844 8.44644 23.6169C7.70843 22.8788 7.26562 21.8456 7.26562 20.7239V11.2774C7.26562 10.1261 7.70843 9.12239 8.44644 8.35486C9.21396 7.61686 10.2177 7.14453 11.3689 7.14453ZM20.845 10.1261C21.4649 10.1261 21.9667 10.6279 21.9667 11.2479C21.9667 11.8383 21.4649 12.3401 20.845 12.3401C20.225 12.3401 19.7527 11.8383 19.7527 11.2479C19.7527 10.6279 20.225 10.1261 20.845 10.1261ZM16.0036 11.8383C17.1549 11.8383 18.1881 12.3106 18.9557 13.0486C19.6937 13.8161 20.166 14.8493 20.166 16.0006C20.166 17.1519 19.6937 18.1851 18.9557 18.9526C18.1881 19.6907 17.1549 20.163 16.0036 20.163C14.8523 20.163 13.8191 19.6907 13.0516 18.9526C12.3136 18.1851 11.8413 17.1519 11.8413 16.0006C11.8413 14.8493 12.3136 13.8161 13.0516 13.0486C13.8191 12.3106 14.8523 11.8383 16.0036 11.8383ZM17.8929 14.1113C17.3911 13.639 16.7416 13.3438 16.0036 13.3438C15.2656 13.3438 14.5867 13.639 14.1143 14.1113C13.642 14.5836 13.3468 15.2626 13.3468 16.0006C13.3468 16.7386 13.642 17.3881 14.1143 17.8899C14.5867 18.3622 15.2656 18.6574 16.0036 18.6574C16.7416 18.6574 17.3911 18.3622 17.8929 17.8899C18.3653 17.3881 18.6605 16.7386 18.6605 16.0006C18.6605 15.2626 18.3653 14.5836 17.8929 14.1113ZM20.6383 8.65007H11.3689C10.6309 8.65007 9.98149 8.94527 9.50917 9.41759C9.03684 9.88992 8.74164 10.5394 8.74164 11.2774V20.7239C8.74164 21.4324 9.03684 22.0818 9.50917 22.5541C9.98149 23.0265 10.6309 23.3217 11.3689 23.3217H20.6383C21.3468 23.3217 21.9963 23.0265 22.4686 22.5541C22.9409 22.0818 23.2361 21.4324 23.2361 20.7239V11.2774C23.2361 10.5394 22.9409 9.88992 22.4981 9.41759H22.4686C21.9963 8.94527 21.3468 8.65007 20.6383 8.65007Z" fill="white"/>
</g>
<defs>
<clipPath id="clip0_1256_48025">
<rect width="32" height="32" rx="16" fill="white"/>
</clipPath>
</defs>
</svg>
