<svg width="32" height="32" viewBox="0 0 32 32" fill="none" xmlns="http://www.w3.org/2000/svg">
<g clip-path="url(#clip0_1256_48028)">
<path d="M31.625 16.0547C31.625 24.6838 24.6291 31.6797 16 31.6797C7.37081 31.6797 0.375 24.6838 0.375 16.0547C0.375 7.4255 7.37081 0.429688 16 0.429688C24.6291 0.429688 31.625 7.4255 31.625 16.0547Z" fill="#2357C6"/>
<path d="M25.3342 17.3109V23.7532H21.5997V17.7433C21.5997 16.2338 21.0611 15.2029 19.7079 15.2029C18.6771 15.2029 18.0636 15.8978 17.793 16.5697C17.6938 16.8091 17.6693 17.1423 17.6693 17.4796V23.7532H13.9334C13.9334 23.7532 13.9837 13.5737 13.9334 12.5198H17.6693V14.1122C17.6625 14.1245 17.6516 14.1365 17.6448 14.1488H17.6693V14.1122C18.1657 13.348 19.051 12.2558 21.0352 12.2558C23.4928 12.2558 25.3342 13.862 25.3342 17.3109ZM10.0275 7.10547C8.74906 7.10547 7.91406 7.94459 7.91406 9.04622C7.91406 10.1247 8.72463 10.9868 9.97856 10.9868H10.0017C11.3046 10.9868 12.1151 10.1247 12.1151 9.04622C12.0906 7.94466 11.3046 7.10547 10.0275 7.10547ZM8.13575 23.7532H11.8689V12.5198H8.13575V23.7532Z" fill="white"/>
</g>
<defs>
<clipPath id="clip0_1256_48028">
<rect width="32" height="32" fill="white"/>
</clipPath>
</defs>
</svg>
