<svg width="32" height="32" viewBox="0 0 32 32" fill="none" xmlns="http://www.w3.org/2000/svg">
<g clip-path="url(#clip0_1256_48029)">
<path d="M16 32C24.8366 32 32 24.8366 32 16C32 7.16344 24.8366 0 16 0C7.16344 0 0 7.16344 0 16C0 24.8366 7.16344 32 16 32Z" fill="#2357C6"/>
<path d="M16.6234 8.56641C12.1498 8.56641 9.89062 11.7267 9.89062 14.3625C9.89062 15.9618 10.505 17.3757 11.817 17.9067C12.0346 17.9962 12.2266 17.9131 12.2906 17.6764C12.3354 17.5164 12.5338 17.1006 12.5786 16.9343C12.6426 16.704 12.617 16.6208 12.4442 16.4161C12.0666 15.9746 11.8298 15.514 11.8298 14.7079C11.8298 12.021 13.5066 10.1082 16.361 10.1082C18.889 10.1082 20.2778 11.6756 20.2778 13.7099C20.2778 16.3841 19.0746 18.5592 17.289 18.5592C16.3034 18.5592 15.5674 17.8427 15.8042 16.8575C16.0858 15.6804 16.6362 14.4137 16.6362 13.5628C16.6362 12.8015 16.2266 12.2577 15.369 12.2577C14.3642 12.2577 13.5514 13.1982 13.5514 14.5736C13.5514 15.4501 13.8394 15.8851 13.8394 15.8851C13.8394 15.8851 12.8218 20.3441 12.6362 21.099C12.2778 22.6024 12.585 24.4385 12.6106 24.624C12.6234 24.7327 12.7706 24.7583 12.8346 24.6752C12.9242 24.56 14.1274 23.095 14.537 21.6364C14.6522 21.2269 15.2026 19.0902 15.2026 19.0902C15.529 19.7043 16.489 20.101 17.5002 20.101C20.5274 20.101 22.5818 17.5228 22.5818 13.8891C22.5882 11.1318 20.2202 8.56641 16.6234 8.56641Z" fill="white"/>
</g>
<defs>
<clipPath id="clip0_1256_48029">
<rect width="32" height="32" fill="white"/>
</clipPath>
</defs>
</svg>
