<svg width="32" height="32" viewBox="0 0 32 32" fill="none" xmlns="http://www.w3.org/2000/svg">
<g clip-path="url(#clip0_1256_48030)">
<path d="M14.3358 17.3867C14.3358 16.6267 13.7092 16 12.9492 16C12.1892 16 11.5625 16.6267 11.5625 17.3867C11.5625 17.7544 11.7086 18.1071 11.9686 18.3672C12.2287 18.6272 12.5814 18.7733 12.9492 18.7733C13.3169 18.7733 13.6696 18.6272 13.9297 18.3672C14.1897 18.1071 14.3358 17.7544 14.3358 17.3867ZM18.7892 20.5467C18.1892 21.1467 16.9092 21.36 16.0025 21.36C15.0958 21.36 13.8158 21.1467 13.2158 20.5467C13.1834 20.5119 13.1442 20.4843 13.1006 20.4653C13.057 20.4464 13.01 20.4366 12.9625 20.4366C12.915 20.4366 12.868 20.4464 12.8244 20.4653C12.7808 20.4843 12.7416 20.5119 12.7092 20.5467C12.6744 20.5791 12.6468 20.6183 12.6278 20.6619C12.6089 20.7055 12.5991 20.7525 12.5991 20.8C12.5991 20.8475 12.6089 20.8945 12.6278 20.9381C12.6468 20.9817 12.6744 21.0209 12.7092 21.0533C13.6558 22 15.4692 22.08 16.0025 22.08C16.5358 22.08 18.3492 22 19.2958 21.0533C19.3306 21.0209 19.3582 20.9817 19.3772 20.9381C19.3961 20.8945 19.4059 20.8475 19.4059 20.8C19.4059 20.7525 19.3961 20.7055 19.3772 20.6619C19.3582 20.6183 19.3306 20.5791 19.2958 20.5467C19.1625 20.4133 18.9358 20.4133 18.7892 20.5467ZM19.0558 16C18.2958 16 17.6692 16.6267 17.6692 17.3867C17.6692 18.1467 18.2958 18.7733 19.0558 18.7733C19.8158 18.7733 20.4425 18.1467 20.4425 17.3867C20.4425 16.6267 19.8292 16 19.0558 16Z" fill="#2357C6"/>
<path d="M16 0C7.168 0 0 7.168 0 16C0 24.832 7.168 32 16 32C24.832 32 32 24.832 32 16C32 7.168 24.832 0 16 0ZM25.28 18.128C25.312 18.352 25.328 18.592 25.328 18.832C25.328 22.416 21.152 25.328 16 25.328C10.848 25.328 6.672 22.416 6.672 18.832C6.672 18.592 6.688 18.352 6.72 18.128C5.904 17.76 5.344 16.944 5.344 16C5.34163 15.5412 5.47488 15.0919 5.72703 14.7086C5.97917 14.3253 6.33896 14.025 6.76121 13.8455C7.18346 13.666 7.64933 13.6153 8.10031 13.6997C8.55129 13.7841 8.96727 13.9999 9.296 14.32C10.912 13.152 13.152 12.416 15.632 12.336L16.816 6.752C16.832 6.64 16.896 6.544 16.992 6.496C17.088 6.432 17.2 6.416 17.312 6.432L21.184 7.264C21.3153 6.99773 21.5155 6.77144 21.7637 6.6086C22.012 6.44577 22.2993 6.35232 22.5959 6.33796C22.8924 6.32359 23.1874 6.38882 23.4502 6.5269C23.7131 6.66497 23.9342 6.87085 24.0906 7.12318C24.2471 7.37551 24.3331 7.6651 24.3399 7.96192C24.3467 8.25874 24.274 8.55197 24.1293 8.81119C23.9845 9.07042 23.7731 9.2862 23.5168 9.43616C23.2606 9.58611 22.9689 9.66478 22.672 9.664C21.776 9.664 21.056 8.96 21.008 8.08L17.536 7.344L16.48 12.336C18.928 12.416 21.12 13.168 22.72 14.32C22.9653 14.0858 23.2588 13.908 23.5799 13.799C23.9011 13.6901 24.2422 13.6526 24.5794 13.6893C24.9165 13.726 25.2416 13.8358 25.5319 14.0113C25.8221 14.1867 26.0705 14.4234 26.2598 14.7048C26.449 14.9863 26.5744 15.3057 26.6273 15.6407C26.6802 15.9757 26.6592 16.3182 26.5659 16.6442C26.4726 16.9703 26.3091 17.272 26.087 17.5283C25.8649 17.7846 25.5895 17.9893 25.28 18.128Z" fill="#2357C6"/>
</g>
<defs>
<clipPath id="clip0_1256_48030">
<rect width="32" height="32" fill="white"/>
</clipPath>
</defs>
</svg>
