<svg width="32" height="32" viewBox="0 0 32 32" fill="none" xmlns="http://www.w3.org/2000/svg">
<g clip-path="url(#clip0_1256_48032)">
<path d="M32 16C32 7.16344 24.8366 0 16 0C7.16344 0 0 7.16344 0 16C0 24.8366 7.16344 32 16 32C24.8366 32 32 24.8366 32 16Z" fill="#2357C6"/>
<path fill-rule="evenodd" clip-rule="evenodd" d="M23.8253 9.42833C24.6819 9.65893 25.3574 10.3344 25.5881 11.1911C26.0164 12.7561 25.9999 16.0181 25.9999 16.0181C25.9999 16.0181 25.9999 19.2635 25.5881 20.8286C25.3574 21.6853 24.6819 22.3607 23.8253 22.5913C22.2602 23.0032 15.9999 23.0032 15.9999 23.0032C15.9999 23.0032 9.75613 23.0032 8.1746 22.5749C7.31793 22.3442 6.6425 21.6688 6.41186 20.8121C6 19.2635 6 16.0016 6 16.0016C6 16.0016 6 12.7561 6.41186 11.1911C6.6425 10.3344 7.3344 9.64247 8.1746 9.4118C9.73967 9 15.9999 9 15.9999 9C15.9999 9 22.2602 9 23.8253 9.42833ZM19.2125 16.0016L14.0065 18.9999V13.0033L19.2125 16.0016Z" fill="white"/>
</g>
<defs>
<clipPath id="clip0_1256_48032">
<rect width="32" height="32" fill="white"/>
</clipPath>
</defs>
</svg>
