<svg width="310" height="248" viewBox="0 0 310 248" fill="none" xmlns="http://www.w3.org/2000/svg">
<path d="M31.9532 156.396C-0.0363159 109.879 -11.511 36.2693 -23.9965 -86C-36.6599 37.9136 -48.2697 111.886 -81.2487 158.268C-108.298 145.384 -139.042 123.702 -178.257 93.1935C-181.203 90.9014 -184.976 94.7666 -182.613 97.6566C-151.513 135.639 -129.226 165.557 -115.601 192.051C-162.126 224.033 -235.729 235.508 -358 248C-234.085 260.656 -160.148 272.266 -113.729 305.245C-126.621 332.294 -148.303 363.037 -178.805 402.251C-181.104 405.205 -177.231 408.978 -174.341 406.608C-136.365 375.515 -106.447 353.221 -79.9532 339.597C-47.9637 386.121 -36.489 459.724 -23.9965 582C-11.3473 458.079 0.269745 384.114 33.2487 337.725C60.2981 350.616 91.042 372.298 130.257 402.806C133.203 405.099 136.976 401.233 134.613 398.343C103.513 360.361 81.2259 330.443 67.6015 303.949C114.126 271.967 187.729 260.485 310 248C186.085 235.344 112.112 223.727 65.7294 190.748C78.6205 163.699 100.303 132.963 130.805 93.7416C133.104 90.7946 129.231 87.022 126.341 89.3852C88.3655 120.485 58.4474 142.772 31.9532 156.396Z" fill="#2C57A4"/>
</svg>
