<svg width="32" height="32" viewBox="0 0 32 32" fill="none" xmlns="http://www.w3.org/2000/svg">
<g id="money-bill-coin 3">
<g id="Group">
<g id="Vector">
<path d="M30.1302 16.4146V14.7527C30.1302 13.1488 28.8256 11.8442 27.2218 11.8442H19.7429C18.1391 11.8442 16.8344 13.1488 16.8344 14.7527V16.4146C16.8344 16.644 16.8676 16.8634 16.9175 17.0761C15.8921 17.5265 15.1724 18.5486 15.1724 19.7386V21.4006C15.1724 22.5905 15.8921 23.6126 16.9175 24.063C16.8676 24.2758 16.8344 24.4968 16.8344 24.7245V26.3865C16.8344 27.9903 18.1391 29.2949 19.7429 29.2949H27.2218C28.8256 29.2949 30.1302 27.9903 30.1302 26.3865V24.7245C30.1302 23.5345 29.4106 22.5124 28.3851 22.062C28.435 21.8493 28.4682 21.6282 28.4682 21.4006V19.7386C28.4682 19.5092 28.435 19.2898 28.3851 19.0771C29.4106 18.6267 30.1302 17.6046 30.1302 16.4146ZM19.3274 14.7527C19.3274 14.5233 19.5135 14.3372 19.7429 14.3372H27.2218C27.4511 14.3372 27.6372 14.5233 27.6372 14.7527V16.4146C27.6372 16.644 27.4511 16.8301 27.2218 16.8301H19.7429C19.5135 16.8301 19.3274 16.644 19.3274 16.4146V14.7527ZM27.6372 26.3865C27.6372 26.6158 27.4511 26.802 27.2218 26.802H19.7429C19.5135 26.802 19.3274 26.6158 19.3274 26.3865V24.7245C19.3274 24.4952 19.5135 24.309 19.7429 24.309H27.2218C27.4511 24.309 27.6372 24.4952 27.6372 24.7245V26.3865Z" fill="url(#paint0_linear_1256_47945)"/>
<path d="M23.8962 2.70312H6.44543C3.92089 2.70312 1.875 4.74902 1.875 7.27356V18.0764C1.875 20.6009 3.92089 22.6468 6.44543 22.6468H12.2623C12.9504 22.6468 13.5088 22.0884 13.5088 21.4003C13.5088 20.7123 12.9504 20.1539 12.2623 20.1539H9.22758C8.73065 17.7157 6.80608 15.7912 4.36796 15.2943V10.0574C6.80608 9.56044 8.73065 7.63587 9.22758 5.19775H21.1124C21.6941 8.0497 24.2286 10.1986 27.2517 10.1837C27.9248 10.1804 28.4666 9.61029 28.4666 8.93719V7.27522C28.4666 4.75068 26.4207 2.70479 23.8962 2.70479V2.70312Z" fill="url(#paint1_linear_1256_47945)"/>
<path d="M14.3398 15.8444V14.7524C14.3398 12.2163 16.1032 10.0973 18.4632 9.52055C17.6305 8.65134 16.4655 8.10455 15.1708 8.10455C12.6496 8.10455 10.6004 10.1538 10.6004 12.675C10.6004 14.6045 11.8053 16.2499 13.4989 16.918C13.7382 16.5291 14.0091 16.1618 14.3398 15.8444Z" fill="url(#paint2_linear_1256_47945)"/>
</g>
</g>
</g>
<defs>
<linearGradient id="paint0_linear_1256_47945" x1="1.52181" y1="2.4363" x2="16.8329" y2="35.5458" gradientUnits="userSpaceOnUse">
<stop stop-color="#2357C6"/>
<stop offset="1" stop-color="#5EA8FF"/>
</linearGradient>
<linearGradient id="paint1_linear_1256_47945" x1="1.52181" y1="2.4363" x2="16.8329" y2="35.5458" gradientUnits="userSpaceOnUse">
<stop stop-color="#2357C6"/>
<stop offset="1" stop-color="#5EA8FF"/>
</linearGradient>
<linearGradient id="paint2_linear_1256_47945" x1="1.52181" y1="2.4363" x2="16.8329" y2="35.5458" gradientUnits="userSpaceOnUse">
<stop stop-color="#2357C6"/>
<stop offset="1" stop-color="#5EA8FF"/>
</linearGradient>
</defs>
</svg>
