<svg width="310" height="248" viewBox="0 0 310 248" fill="none" xmlns="http://www.w3.org/2000/svg">
<path d="M389.953 -91.6041C357.964 -138.121 346.489 -211.731 334.004 -334C321.34 -210.086 309.73 -136.114 276.751 -89.732C249.702 -102.616 218.958 -124.298 179.743 -154.807C176.797 -157.099 173.024 -153.233 175.387 -150.343C206.487 -112.361 228.774 -82.443 242.399 -55.949C195.874 -23.967 122.271 -12.4924 0 0C123.915 12.6561 197.852 24.2659 244.271 57.2445C231.379 84.2937 209.697 115.037 179.195 154.251C176.896 157.205 180.769 160.978 183.659 158.608C221.635 127.515 251.553 105.221 278.047 91.597C310.036 138.121 321.511 211.724 334.004 334C346.653 210.079 358.27 136.114 391.249 89.7249C418.298 102.616 449.042 124.298 488.257 154.806C491.203 157.099 494.976 153.233 492.613 150.343C461.513 112.361 439.226 82.4429 425.601 55.949C472.126 23.9669 545.729 12.4853 668 0C544.085 -12.6562 470.112 -24.273 423.729 -57.2516C436.621 -84.3008 458.303 -115.037 488.805 -154.258C491.104 -157.205 487.231 -160.978 484.341 -158.615C446.365 -127.515 416.447 -105.228 389.953 -91.6041Z" fill="#2C57A4"/>
</svg>
