<svg width="1280" height="410" viewBox="0 0 1280 410" fill="none" xmlns="http://www.w3.org/2000/svg">
<g clip-path="url(#clip0_1256_48020)">
<rect width="1280" height="410" rx="20" fill="#F2F7FC"/>
<path d="M313.658 613.629C241.492 610.789 36.6529 511.89 8.15822 361.537C-1.33993 311.419 -2.24174 225.617 92.1582 199.155C123.491 190.134 188.5 188.249 243.656 242.257C275.24 273.184 335.946 361.537 379.16 455.257C434.16 574.537 544.16 694.318 653.16 664.248C762.16 634.177 749.66 510.889 716.66 436.212C683.66 361.537 456.16 -41.9111 607.66 -133.626C642.327 -154.341 741.76 -174.923 862.16 -91.5271C1012.66 12.7173 1113.5 163.691 1148.5 248.891C1179.59 324.569 1178.66 423.182 1101.16 441.725C1023.66 460.269 957.66 429.196 932.66 357.026C907.66 284.857 912.16 160.565 1025.16 114.957C1138.16 69.3503 1312.66 129.492 1387.16 198.654C1461.66 267.817 1503.16 316.932 1507.16 423.683C1510.36 509.083 1450.83 557.497 1420.66 571.029" stroke="#D5E8FA" stroke-width="30" stroke-linecap="round"/>
</g>
<defs>
<clipPath id="clip0_1256_48020">
<rect width="1280" height="410" rx="20" fill="white"/>
</clipPath>
</defs>
</svg>
