<svg width="17" height="16" viewBox="0 0 17 16" fill="none" xmlns="http://www.w3.org/2000/svg">
<mask id="mask0_3318_4334" style="mask-type:alpha" maskUnits="userSpaceOnUse" x="0" y="0" width="17" height="16">
<rect x="0.200012" width="16" height="16" fill="#D9D9D9"/>
</mask>
<g mask="url(#mask0_3318_4334)">
<path d="M5.80002 11.1026L8.20002 8.70255L10.6 11.1026L11.3026 10.4L8.90257 8L11.3026 5.6L10.6 4.89745L8.20002 7.29745L5.80002 4.89745L5.09747 5.6L7.49747 8L5.09747 10.4L5.80002 11.1026ZM8.20113 14.3333C7.32518 14.3333 6.50182 14.1671 5.73107 13.8347C4.9603 13.5022 4.28984 13.051 3.7197 12.4812C3.14954 11.9113 2.69817 11.2411 2.36558 10.4707C2.03299 9.70026 1.8667 8.87708 1.8667 8.00112C1.8667 7.12516 2.03292 6.30181 2.36537 5.53105C2.69781 4.76029 3.14898 4.08983 3.71887 3.51969C4.28877 2.94953 4.95893 2.49816 5.72935 2.16557C6.49976 1.83298 7.32294 1.66669 8.1989 1.66669C9.07485 1.66669 9.89821 1.83291 10.669 2.16535C11.4397 2.4978 12.1102 2.94896 12.6803 3.51885C13.2505 4.08875 13.7019 4.75892 14.0344 5.52934C14.367 6.29975 14.5333 7.12293 14.5333 7.99889C14.5333 8.87484 14.3671 9.6982 14.0347 10.469C13.7022 11.2397 13.2511 11.9102 12.6812 12.4803C12.1113 13.0505 11.4411 13.5018 10.6707 13.8344C9.90027 14.167 9.07709 14.3333 8.20113 14.3333ZM8.20002 13.3333C9.6889 13.3333 10.95 12.8167 11.9833 11.7833C13.0167 10.75 13.5333 9.48889 13.5333 8C13.5333 6.51112 13.0167 5.25 11.9833 4.21667C10.95 3.18334 9.6889 2.66667 8.20002 2.66667C6.71113 2.66667 5.45002 3.18334 4.41668 4.21667C3.38335 5.25 2.86668 6.51112 2.86668 8C2.86668 9.48889 3.38335 10.75 4.41668 11.7833C5.45002 12.8167 6.71113 13.3333 8.20002 13.3333Z" fill="white"/>
</g>
</svg>
