<svg width="13" height="12" viewBox="0 0 13 12" fill="none" xmlns="http://www.w3.org/2000/svg">
<mask id="mask0_3318_4318" style="mask-type:alpha" maskUnits="userSpaceOnUse" x="0" y="0" width="13" height="12">
<rect x="0.600006" width="12" height="12" fill="#D9D9D9"/>
</mask>
<g mask="url(#mask0_3318_4318)">
<path d="M2.75387 10.25C2.50451 10.25 2.29153 10.1617 2.11493 9.98507C1.93833 9.80847 1.85002 9.59549 1.85002 9.34613V4.15386C1.85002 3.9045 1.93833 3.69152 2.11493 3.51492C2.29153 3.33831 2.50451 3.25001 2.75387 3.25001H4.85002V2.40387C4.85002 2.15451 4.93833 1.94153 5.11493 1.76493C5.29153 1.58833 5.50451 1.50003 5.75387 1.50003H7.44615C7.6955 1.50003 7.90848 1.58833 8.08508 1.76493C8.26169 1.94153 8.35 2.15451 8.35 2.40387V3.25001H10.4461C10.6955 3.25001 10.9085 3.33831 11.0851 3.51492C11.2617 3.69152 11.35 3.9045 11.35 4.15386V9.34613C11.35 9.59549 11.2617 9.80847 11.0851 9.98507C10.9085 10.1617 10.6955 10.25 10.4461 10.25H2.75387ZM5.60001 3.25001H7.60001V2.40387C7.60001 2.3654 7.58398 2.33014 7.55193 2.29809C7.51988 2.26604 7.48461 2.25001 7.44615 2.25001H5.75387C5.7154 2.25001 5.68014 2.26604 5.64808 2.29809C5.61603 2.33014 5.60001 2.3654 5.60001 2.40387V3.25001ZM3.85002 3.99999H2.75387C2.7154 3.99999 2.68014 4.01602 2.64808 4.04807C2.61603 4.08013 2.60001 4.11539 2.60001 4.15386V9.34613C2.60001 9.3846 2.61603 9.41986 2.64808 9.45192C2.68014 9.48397 2.7154 9.49999 2.75387 9.49999H3.85002V3.99999ZM8.60001 9.49999V3.99999H4.60001V9.49999H8.60001ZM9.35 3.99999V9.49999H10.4461C10.4846 9.49999 10.5199 9.48397 10.5519 9.45192C10.584 9.41986 10.6 9.3846 10.6 9.34613V4.15386C10.6 4.11539 10.584 4.08013 10.5519 4.04807C10.5199 4.01602 10.4846 3.99999 10.4461 3.99999H9.35Z" fill="#696968"/>
</g>
</svg>
