<svg width="32" height="32" viewBox="0 0 32 32" fill="none" xmlns="http://www.w3.org/2000/svg">
<path d="M28 2H4C3.20435 2 2.44129 2.31607 1.87868 2.87868C1.31607 3.44129 1 4.20435 1 5V21C1 21.7956 1.31607 22.5587 1.87868 23.1213C2.44129 23.6839 3.20435 24 4 24H11L16 30L21 24H28C28.7956 24 29.5587 23.6839 30.1213 23.1213C30.6839 22.5587 31 21.7956 31 21V5C31 4.20435 30.6839 3.44129 30.1213 2.87868C29.5587 2.31607 28.7956 2 28 2Z" stroke="#2357C6" stroke-width="2" stroke-miterlimit="10" stroke-linecap="square"/>
</svg>
