<svg width="17" height="16" viewBox="0 0 17 16" fill="none" xmlns="http://www.w3.org/2000/svg">
<mask id="mask0_3318_4330" style="mask-type:alpha" maskUnits="userSpaceOnUse" x="0" y="0" width="17" height="16">
<rect x="0.200012" width="16" height="16" fill="#D9D9D9"/>
</mask>
<g mask="url(#mask0_3318_4330)">
<path d="M4.3667 9.16665H9.36667V8.16669H4.3667V9.16665ZM4.3667 7.16665H12.0333V6.16669H4.3667V7.16665ZM4.3667 5.16665H12.0333V4.16669H4.3667V5.16665ZM1.8667 14.0256V2.87182C1.8667 2.53507 1.98337 2.25002 2.2167 2.01669C2.45003 1.78335 2.73508 1.66669 3.07183 1.66669H13.3282C13.665 1.66669 13.95 1.78335 14.1833 2.01669C14.4167 2.25002 14.5333 2.53507 14.5333 2.87182V10.4615C14.5333 10.7983 14.4167 11.0833 14.1833 11.3167C13.95 11.55 13.665 11.6667 13.3282 11.6667H4.22567L1.8667 14.0256ZM3.80003 10.6667H13.3282C13.3795 10.6667 13.4265 10.6453 13.4693 10.6026C13.512 10.5598 13.5333 10.5128 13.5333 10.4615V2.87182C13.5333 2.82053 13.512 2.77352 13.4693 2.73077C13.4265 2.68804 13.3795 2.66667 13.3282 2.66667H3.07183C3.02054 2.66667 2.97353 2.68804 2.93078 2.73077C2.88805 2.77352 2.86668 2.82053 2.86668 2.87182V11.5898L3.80003 10.6667Z" fill="white"/>
</g>
</svg>
