<svg width="16" height="16" viewBox="0 0 16 16" fill="none" xmlns="http://www.w3.org/2000/svg">
<mask id="mask0_1586_8588" style="mask-type:alpha" maskUnits="userSpaceOnUse" x="0" y="0" width="16" height="16">
<rect width="16" height="16" fill="#D9D9D9"/>
</mask>
<g mask="url(#mask0_1586_8588)">
<path d="M5.60129 11.1024L8.00129 8.70237L10.4013 11.1024L11.1038 10.3998L8.70384 7.99982L11.1038 5.59982L10.4013 4.89727L8.00129 7.29727L5.60129 4.89727L4.89874 5.59982L7.29874 7.99982L4.89874 10.3998L5.60129 11.1024ZM8.0024 14.3331C7.12645 14.3331 6.30309 14.1669 5.53234 13.8345C4.76157 13.502 4.09111 13.0509 3.52097 12.481C2.95081 11.9111 2.49944 11.2409 2.16685 10.4705C1.83426 9.70008 1.66797 8.87689 1.66797 8.00094C1.66797 7.12498 1.83419 6.30163 2.16664 5.53087C2.49908 4.7601 2.95025 4.08965 3.52014 3.5195C4.09004 2.94935 4.7602 2.49798 5.53062 2.16539C6.30103 1.8328 7.12421 1.6665 8.00017 1.6665C8.87612 1.6665 9.69948 1.83273 10.4702 2.16517C11.241 2.49762 11.9115 2.94878 12.4816 3.51867C13.0518 4.08857 13.5031 4.75873 13.8357 5.52915C14.1683 6.29957 14.3346 7.12275 14.3346 7.9987C14.3346 8.87466 14.1684 9.69802 13.8359 10.4688C13.5035 11.2395 13.0523 11.91 12.4824 12.4801C11.9125 13.0503 11.2424 13.5017 10.472 13.8343C9.70154 14.1668 8.87836 14.3331 8.0024 14.3331ZM8.00129 13.3332C9.49017 13.3332 10.7513 12.8165 11.7846 11.7832C12.818 10.7498 13.3346 9.48871 13.3346 7.99982C13.3346 6.51093 12.818 5.24982 11.7846 4.21649C10.7513 3.18315 9.49017 2.66649 8.00129 2.66649C6.5124 2.66649 5.25129 3.18315 4.21795 4.21649C3.18462 5.24982 2.66795 6.51093 2.66795 7.99982C2.66795 9.48871 3.18462 10.7498 4.21795 11.7832C5.25129 12.8165 6.5124 13.3332 8.00129 13.3332Z" fill="#C8303F"/>
</g>
</svg>
