<svg width="32" height="32" viewBox="0 0 32 32" fill="none" xmlns="http://www.w3.org/2000/svg">
<path d="M11.3359 5.33301H30.0026" stroke="#2357C6" stroke-width="2" stroke-miterlimit="10" stroke-linecap="square"/>
<path d="M11.3359 13.333H30.0026" stroke="#2357C6" stroke-width="2" stroke-miterlimit="10" stroke-linecap="square"/>
<path d="M11.3359 21.333H30.0026" stroke="#2357C6" stroke-width="2" stroke-miterlimit="10" stroke-linecap="square"/>
<path d="M11.3359 29.333H30.0026" stroke="#2357C6" stroke-width="2" stroke-miterlimit="10" stroke-linecap="square"/>
<path d="M4.66667 23.9998C6.13943 23.9998 7.33333 22.8059 7.33333 21.3332C7.33333 19.8604 6.13943 18.6665 4.66667 18.6665C3.19391 18.6665 2 19.8604 2 21.3332C2 22.8059 3.19391 23.9998 4.66667 23.9998Z" stroke="#2357C6" stroke-width="2" stroke-miterlimit="10" stroke-linecap="square"/>
<path d="M4.66667 7.99984C6.13943 7.99984 7.33333 6.80593 7.33333 5.33317C7.33333 3.86041 6.13943 2.6665 4.66667 2.6665C3.19391 2.6665 2 3.86041 2 5.33317C2 6.80593 3.19391 7.99984 4.66667 7.99984Z" stroke="#2357C6" stroke-width="2" stroke-miterlimit="10" stroke-linecap="square"/>
</svg>
