<svg width="28" height="28" viewBox="0 0 28 28" fill="none" xmlns="http://www.w3.org/2000/svg">
<mask id="mask0_475_72250" style="mask-type:alpha" maskUnits="userSpaceOnUse" x="0" y="0" width="28" height="28">
<rect width="28" height="28" fill="#D9D9D9"/>
</mask>
<g mask="url(#mask0_475_72250)">
<path d="M13.2834 22.7499C12.9902 22.7499 12.7449 22.6512 12.5475 22.4538C12.35 22.2563 12.2513 22.011 12.2513 21.7179V14.9647L5.72024 6.66794C5.49589 6.36879 5.46336 6.05768 5.62264 5.73461C5.78193 5.41154 6.05078 5.25 6.42919 5.25H21.5733C21.9517 5.25 22.2206 5.41154 22.3799 5.73461C22.5392 6.05768 22.5066 6.36879 22.2823 6.66794L15.7512 14.9647V21.7179C15.7512 22.011 15.6525 22.2563 15.4551 22.4538C15.2576 22.6512 15.0123 22.7499 14.7192 22.7499H13.2834ZM14.0013 14.35L19.7763 6.99997H8.22626L14.0013 14.35Z" fill="#080808"/>
</g>
</svg>
