<svg width="32" height="32" viewBox="0 0 32 32" fill="none" xmlns="http://www.w3.org/2000/svg">
<path d="M19.5 21.5L21.75 23.75C22.2139 24.2143 22.4744 24.8437 22.4744 25.5C22.4744 26.1563 22.2139 26.7857 21.75 27.25" stroke="#2357C6" stroke-width="2" stroke-miterlimit="10" stroke-linecap="square"/>
<path d="M1 14V2H11.1C11.4009 2.00019 11.7015 2.01956 12 2.058" stroke="#2357C6" stroke-width="2" stroke-miterlimit="10" stroke-linecap="square"/>
<path d="M3.75001 16.25L3.25009 16.7499C2.28354 17.7165 2.28354 19.2835 3.25009 20.2501C4.21664 21.2166 5.78372 21.2166 6.75027 20.2501L7.25019 19.7502C8.21674 18.7836 8.21674 17.2165 7.25019 16.25C6.28365 15.2834 4.71656 15.2834 3.75001 16.25Z" stroke="#2357C6" stroke-width="2" stroke-miterlimit="10" stroke-linecap="square"/>
<path d="M7.38445 19.6126L6.60946 20.3876C5.64292 21.3542 5.64292 22.9212 6.60946 23.8878C7.57601 24.8543 9.1431 24.8543 10.1096 23.8878L10.8846 23.1128C11.8512 22.1462 11.8512 20.5792 10.8846 19.6126C9.91808 18.6461 8.351 18.6461 7.38445 19.6126Z" stroke="#2357C6" stroke-width="2" stroke-miterlimit="10" stroke-linecap="square"/>
<path d="M10.6172 23.3852L10.1173 23.8852C9.15073 24.8517 9.15073 26.4188 10.1173 27.3853C11.0838 28.3519 12.6509 28.3519 13.6175 27.3853L14.1174 26.8854C15.0839 25.9189 15.0839 24.3518 14.1174 23.3852C13.1508 22.4187 11.5837 22.4187 10.6172 23.3852Z" stroke="#2357C6" stroke-width="2" stroke-miterlimit="10" stroke-linecap="square"/>
<path d="M14.1523 26.8472L13.6326 27.3669C12.8043 28.1952 12.8043 29.5382 13.6326 30.3665L13.6333 30.3672C14.4616 31.1955 15.8045 31.1955 16.6328 30.3672L17.1526 29.8475C17.9809 29.0192 17.9809 27.6762 17.1526 26.8479L17.1519 26.8472C16.3236 26.0189 14.9806 26.0189 14.1523 26.8472Z" stroke="#2357C6" stroke-width="2" stroke-miterlimit="10" stroke-linecap="square"/>
<path d="M22.9984 18L26.0234 21.025C26.2534 21.2548 26.4357 21.5276 26.5602 21.8278C26.6846 22.1281 26.7487 22.45 26.7487 22.775C26.7487 23.1 26.6846 23.4219 26.5602 23.7222C26.4357 24.0224 26.2534 24.2952 26.0234 24.525C25.7937 24.7549 25.5209 24.9373 25.2206 25.0617C24.9203 25.1862 24.5985 25.2502 24.2734 25.2502C23.9484 25.2502 23.6265 25.1862 23.3263 25.0617C23.026 24.9373 22.7532 24.7549 22.5234 24.525" stroke="#2357C6" stroke-width="2" stroke-miterlimit="10" stroke-linecap="square"/>
<path d="M25.75 20.75C26.2143 21.2139 26.8437 21.4744 27.5 21.4744C28.1563 21.4744 28.7857 21.2139 29.25 20.75C29.7139 20.2857 29.9744 19.6563 29.9744 19C29.9744 18.3437 29.7139 17.7143 29.25 17.25L20 8" stroke="#2357C6" stroke-width="2" stroke-miterlimit="10"/>
<path d="M20 8L13.1 13.173C12.7685 13.4215 12.3745 13.5728 11.9619 13.6101C11.5494 13.6473 11.1346 13.5691 10.764 13.384C10.4479 13.2259 10.1739 12.995 9.96452 12.7103C9.75519 12.4255 9.61653 12.0951 9.55998 11.7462C9.50343 11.3974 9.53061 11.0401 9.63928 10.7038C9.74794 10.3675 9.93498 10.0618 10.185 9.812L15.95 4.05C16.6 3.40001 17.3718 2.88442 18.2211 2.53268C19.0704 2.18094 19.9807 1.99993 20.9 2H31V14" stroke="#2357C6" stroke-width="2" stroke-miterlimit="10" stroke-linecap="square"/>
</svg>
