<svg width="18" height="18" viewBox="0 0 18 18" fill="none" xmlns="http://www.w3.org/2000/svg">
<path d="M4.05273 14.6579L9.78929 8.9204C10.5269 8.18278 11.7226 8.18278 12.4602 8.9204L14.9025 11.3627" stroke="#204FB4" stroke-width="0.75" stroke-linecap="round" stroke-linejoin="round"/>
<path d="M13.0143 3.09766H4.98655C3.94334 3.09766 3.09766 3.94334 3.09766 4.98655V13.0143C3.09766 14.0575 3.94334 14.9032 4.98655 14.9032H13.0143C14.0575 14.9032 14.9032 14.0575 14.9032 13.0143V4.98655C14.9032 3.94334 14.0575 3.09766 13.0143 3.09766Z" stroke="#204FB4" stroke-width="0.75" stroke-linecap="round" stroke-linejoin="round"/>
<path d="M6.40321 8.52908C7.05521 8.52908 7.58377 8.00053 7.58377 7.34852C7.58377 6.69652 7.05521 6.16797 6.40321 6.16797C5.75121 6.16797 5.22266 6.69652 5.22266 7.34852C5.22266 8.00053 5.75121 8.52908 6.40321 8.52908Z" fill="#204FB4"/>
</svg>
