<svg width="260" height="80" viewBox="0 0 260 80" fill="none" xmlns="http://www.w3.org/2000/svg">
<path d="M104.808 77.4911H96.1914V37.4214H104.808V77.4911Z" fill="white"/>
<path d="M170.506 60.5657C170.506 63.9118 169.698 66.3842 168.081 67.9829C166.482 69.6002 164.335 70.4088 161.639 70.4088C158.962 70.4088 156.825 69.6002 155.226 67.9829C153.609 66.3842 152.8 63.9118 152.8 60.5657V38.2861H144.379V60.5657C144.379 63.4842 144.797 66.0589 145.634 68.2896C146.452 70.5018 147.613 72.3514 149.119 73.8386C150.625 75.3257 152.447 76.4318 154.585 77.1568C156.704 77.8818 159.055 78.2443 161.639 78.2443C164.242 78.2443 166.603 77.8725 168.722 77.1289C170.841 76.3667 172.663 75.2421 174.187 73.7549C175.693 72.2678 176.855 70.4274 177.673 68.2338C178.509 66.0403 178.927 63.4842 178.927 60.5657V38.2861H170.506V60.5657Z" fill="white"/>
<path d="M210.756 60.5657C210.756 63.9118 209.948 66.3842 208.331 67.9829C206.732 69.6002 204.585 70.4088 201.889 70.4088C199.212 70.4088 197.075 69.6002 195.476 67.9829C193.859 66.3842 193.05 63.9118 193.05 60.5657V38.2861H184.629V60.5657C184.629 63.4842 185.047 66.0589 185.884 68.2896C186.702 70.5018 187.863 72.3514 189.369 73.8386C190.894 75.3257 192.715 76.4318 194.835 77.1568C196.954 77.8818 199.305 78.2443 201.889 78.2443C204.492 78.2443 206.853 77.8725 208.972 77.1289C211.091 76.3667 212.913 75.2421 214.437 73.7549C215.943 72.2678 217.105 70.4274 217.923 68.2338C218.759 66.0403 219.177 63.4842 219.177 60.5657V38.2861H210.756V60.5657Z" fill="white"/>
<path d="M233.306 55.9926C233.306 52.6465 234.114 50.1648 235.732 48.5475C237.33 46.9488 239.478 46.1495 242.173 46.1495C244.85 46.1495 246.997 46.9488 248.614 48.5475C250.213 50.1648 251.012 52.6465 251.012 55.9926V78.2443H259.433V55.9926C259.433 53.0555 259.015 50.4809 258.179 48.2687C257.361 46.0565 256.199 44.2069 254.693 42.7197C253.187 41.2326 251.365 40.1265 249.228 39.4015C247.109 38.6579 244.757 38.2861 242.173 38.2861C239.57 38.2861 237.21 38.6672 235.09 39.4294C232.971 40.1916 231.149 41.3162 229.625 42.8034C228.119 44.272 226.957 46.103 226.14 48.2966C225.303 50.4901 224.885 53.0555 224.885 55.9926V78.2443H233.306V55.9926Z" fill="white"/>
<path d="M88.7819 37.4501C78.7714 38.3981 70.9917 46.1221 70.434 56.1883C70.1273 62.1277 70.3225 68.0949 70.3782 74.0621V77.4919H70.685C73.1109 77.4919 75.4811 77.4919 77.9907 77.4919C78.4368 77.4919 78.8922 77.4919 79.357 77.4919C79.357 76.4323 79.357 75.5121 79.357 74.5919C79.357 68.8757 79.3291 63.1873 79.3849 57.471C79.4406 51.7826 83.205 47.4884 88.8376 46.5125C89.3117 46.4288 89.7857 46.2894 90.2597 46.1779C90.2597 43.1942 90.2597 40.3779 90.2597 37.4501C89.6184 37.4501 89.2001 37.3943 88.7819 37.4501Z" fill="white"/>
<path d="M138.263 62.1829C136.896 57.3032 132.965 53.9292 128.001 53.26L125.966 53.1206C124.99 53.1206 123.791 53.1205 122.592 53.0927C120.891 53.0648 119.413 51.7263 119.218 50.0254C119.023 48.1293 120.054 46.512 121.755 46.0658C122.257 45.9264 122.843 45.8985 123.428 45.8985C125.352 45.8706 127.332 45.8706 129.228 45.8706L134.945 45.8985V45.8706H135.251V37.2544H127.946C126.161 37.2544 124.349 37.2544 122.536 37.2823C118.772 37.338 115.286 39.0948 113 42.162C110.685 45.2014 109.96 49.0773 110.964 52.7302C112.33 57.6378 116.262 60.9839 121.225 61.6531L122.174 61.7089L123.261 61.7926C124.237 61.7926 125.436 61.7926 126.635 61.8204C128.336 61.8483 129.814 63.1868 130.009 64.8877C130.204 66.7838 129.172 68.4011 127.472 68.8752C126.97 68.9867 126.384 69.0146 125.798 69.0146C125.315 69.0332 124.832 69.0425 124.349 69.0425H114.282V77.4635V77.6587H118.409C118.892 77.6587 119.376 77.6587 119.859 77.6587C120.9 77.6587 121.96 77.6587 123.038 77.6587C123.707 77.6587 124.386 77.6587 125.074 77.6587H125.854C126.133 77.6401 126.412 77.6308 126.691 77.6308C130.455 77.6029 133.941 75.8184 136.227 72.779C138.542 69.7117 139.267 65.8358 138.263 62.1829Z" fill="white"/>
<path fill-rule="evenodd" clip-rule="evenodd" d="M146.33 23.4786C146.441 23.618 146.274 23.7853 146.135 23.6738C144.238 22.1959 142.733 21.1642 141.422 20.5228C139.833 22.7815 139.275 26.3506 138.662 32.3737C138.048 26.4343 137.49 22.8651 135.929 20.6065C134.646 21.2757 133.196 22.3632 131.356 23.8689C131.217 23.9805 131.021 23.8132 131.133 23.6459C132.611 21.7497 133.67 20.2719 134.312 18.9613C133.308 18.2363 132.025 17.7344 130.38 17.344H113.594C113.008 24.0641 107.348 29.3622 100.488 29.3622C93.2103 29.3622 87.2988 23.4507 87.2988 16.1729C87.2988 8.92297 93.2103 3.01151 100.488 3.01151C107.348 3.01151 113.008 8.30951 113.594 15.0296H130.38C131.969 14.6392 133.224 14.1373 134.2 13.4681C133.559 12.1854 132.471 10.7354 130.966 8.89508C130.854 8.75566 131.021 8.56048 131.161 8.67201C133.085 10.1499 134.563 11.2095 135.873 11.8229C137.463 9.59219 138.048 5.99512 138.662 0C139.247 5.91147 139.805 9.48066 141.366 11.7393C142.649 11.0701 144.099 10.0105 145.939 8.50471C146.079 8.36528 146.274 8.56048 146.162 8.6999C144.685 10.596 143.625 12.1018 143.012 13.4123C145.242 15.0017 148.839 15.5594 154.835 16.1729C148.923 16.7863 145.354 17.344 143.095 18.8777C143.737 20.1882 144.824 21.6382 146.33 23.4786ZM105.953 16.1729C105.953 13.1614 103.5 10.6797 100.488 10.6797C97.4487 10.6797 94.9949 13.1614 94.9949 16.1729C94.9949 19.2123 97.4487 21.6661 100.488 21.6661C103.5 21.6661 105.953 19.2123 105.953 16.1729Z" fill="white"/>
<path fill-rule="evenodd" clip-rule="evenodd" d="M64.6527 47.9615C64.6527 65.6401 50.2924 80.0005 32.5859 80.0005C14.9073 80.0005 0.546875 65.6401 0.546875 47.9615C0.546875 30.255 14.9073 15.8945 32.5859 15.8945C50.2924 15.8945 64.6527 30.255 64.6527 47.9615ZM48.5078 47.9615C48.5078 39.1779 41.3694 32.0395 32.5859 32.0395C23.8023 32.0395 16.6919 39.1779 16.6919 47.9615C16.6919 56.745 23.8023 63.8555 32.5859 63.8555C41.3694 63.8555 48.5078 56.745 48.5078 47.9615Z" fill="white"/>
</svg>
