<svg width="14" height="14" viewBox="0 0 14 14" fill="none" xmlns="http://www.w3.org/2000/svg">
<path d="M13.1935 5.27602C13.1251 5.06525 12.9423 4.91125 12.723 4.87936L9.12966 4.35747L7.52277 1.10091C7.32677 0.702691 6.67266 0.702691 6.47666 1.10091L4.86977 4.35669L1.27644 4.87858C1.0571 4.91047 0.874324 5.06447 0.80588 5.27525C0.737436 5.48602 0.794213 5.71858 0.953658 5.87336L3.55377 8.40736L2.93932 11.9859C2.90199 12.2052 2.99144 12.4261 3.1711 12.5568C3.35077 12.6867 3.58955 12.7038 3.78555 12.6011L6.99932 10.911L10.2131 12.6011C10.2987 12.6462 10.3912 12.668 10.4845 12.668C10.6051 12.668 10.7257 12.6307 10.8275 12.5568C11.0072 12.4261 11.0974 12.2052 11.0593 11.9859L10.4449 8.40736L13.045 5.87336C13.2044 5.71858 13.2612 5.48602 13.1928 5.27525L13.1935 5.27602Z" fill="#2357C6"/>
</svg>
