<svg width="32" height="32" viewBox="0 0 32 32" fill="none" xmlns="http://www.w3.org/2000/svg">
<path d="M11 29.9998H26C26.8458 30.0009 27.6639 29.6989 28.3061 29.1485C28.9482 28.5981 29.3718 27.8358 29.5 26.9998L31 14.9998C31.0073 14.6038 30.9347 14.2104 30.7866 13.8431C30.6384 13.4758 30.4177 13.1422 30.1376 12.8621C29.8576 12.5821 29.524 12.3614 29.1567 12.2132C28.7894 12.065 28.396 11.9925 28 11.9998H19V7.54078C18.9021 5.27357 17.9576 3.12549 16.353 1.52078C16.0659 1.25999 15.7092 1.08808 15.3263 1.02592C14.9434 0.96375 14.5507 1.01399 14.1958 1.17054C13.8409 1.32709 13.539 1.58323 13.3268 1.90791C13.1145 2.2326 13.001 2.61188 13 2.99978V8.99978L7 15.9998" stroke="#2357C6" stroke-width="2" stroke-miterlimit="10"/>
<path d="M7 13H1V30H7V13Z" stroke="#2357C6" stroke-width="2" stroke-miterlimit="10" stroke-linecap="square"/>
</svg>
