<svg width="14" height="14" viewBox="0 0 14 14" fill="none" xmlns="http://www.w3.org/2000/svg">
<path d="M8.63068 10.332V10.8876H5.35795V10.332H0.994318V13.1098C0.994318 13.4165 1.23868 13.6654 1.53977 13.6654H12.4489C12.75 13.6654 12.9943 13.4165 12.9943 13.1098V10.332H8.63068Z" fill="#B2B3B3"/>
<path d="M13.1059 2.4987H9.77257V0.873698C9.77257 0.574698 9.52368 0.332031 9.21701 0.332031H4.77257C4.4659 0.332031 4.21701 0.574698 4.21701 0.873698V2.4987H0.883681C0.577014 2.4987 0.328125 2.74136 0.328125 3.04036V8.45703C0.328125 8.75603 0.577014 8.9987 0.883681 8.9987H5.32812V7.91536H8.66146V8.9987H13.1059C13.4126 8.9987 13.6615 8.75603 13.6615 8.45703V3.04036C13.6615 2.74136 13.4126 2.4987 13.1059 2.4987ZM8.66146 2.4987H5.32812V1.41536H8.66146V2.4987Z" fill="#B2B3B3"/>
</svg>
