<svg width="14" height="12" viewBox="0 0 14 12" fill="none" xmlns="http://www.w3.org/2000/svg">
<path d="M4.43866 10.4069C4.51177 10.4204 4.58721 10.4256 4.7381 10.4361C5.05153 10.4744 5.35019 10.2606 5.39297 9.95229C5.43575 9.644 5.21097 9.36122 4.89132 9.32071C4.83921 9.31396 4.78554 9.31021 4.73265 9.30721C4.70543 9.30571 4.67899 9.30571 4.6541 9.30121C4.18356 9.21495 3.73012 9.05218 3.30936 8.8174C3.11959 8.71163 2.88392 8.71838 2.70037 8.83315C2.48805 8.96667 2.10695 9.12118 1.69318 9.23145C1.95217 8.56611 2.02295 7.81526 1.7414 7.3052C1.36574 6.67812 1.16741 5.96627 1.16741 5.24843C1.16664 2.97414 3.08536 1.1244 5.44275 1.1244C6.94615 1.1244 8.31189 1.86924 9.09665 3.11665C9.26387 3.38144 9.62164 3.4662 9.89774 3.30568C10.1731 3.14441 10.2617 2.79861 10.0945 2.53308C9.09587 0.946623 7.35681 1.7917e-07 5.44275 1.7917e-07C2.44216 -0.000749918 0 2.35381 0 5.24843C0 6.1643 0.252771 7.06967 0.720981 7.85127C0.850867 8.0868 0.670427 9.05518 0.171107 9.53749C0.00855533 9.69426 -0.0435544 9.92904 0.0388879 10.1361C0.120552 10.3431 0.321992 10.4849 0.55143 10.4969C0.608206 10.4999 0.664983 10.5014 0.724092 10.5014C1.49563 10.5014 2.4056 10.2486 3.0247 9.94779C3.47346 10.1638 3.9479 10.3183 4.43866 10.4076V10.4069Z" fill="#B2B3B3"/>
<path d="M13.4512 10.0257C13.8097 9.42792 13.9995 8.74758 13.9995 8.05974C13.9995 5.88821 12.1679 4.12173 9.91628 4.12173C7.66467 4.12173 5.83227 5.88821 5.83227 8.05974C5.83227 10.2313 7.66389 11.9977 9.91628 11.9977C10.169 11.9977 10.4226 11.9752 10.6707 11.9295C11.0114 11.8672 11.3427 11.763 11.6585 11.6189C12.1228 11.8297 12.7668 12 13.319 12C13.3633 12 13.4061 11.9993 13.4481 11.997C13.6783 11.985 13.8797 11.8432 13.9614 11.6362C14.0438 11.4292 13.9917 11.1944 13.8292 11.0376C13.5367 10.7556 13.403 10.1615 13.4512 10.0257Z" fill="#B2B3B3"/>
</svg>
