<svg width="14" height="13" viewBox="0 0 14 13" fill="none" xmlns="http://www.w3.org/2000/svg">
<path d="M6.21862 10.6224C6.23611 10.4514 6.21561 10.2787 6.15858 10.1164C6.10155 9.95405 6.00935 9.80606 5.88846 9.68277C5.76757 9.55948 5.62092 9.46388 5.45878 9.40267C5.29664 9.34146 5.12294 9.31613 4.94987 9.32844C4.98132 9.14661 4.96934 8.96001 4.91488 8.78358C4.86042 8.60716 4.765 8.44583 4.63627 8.31251C4.50753 8.17918 4.34906 8.07758 4.17355 8.01583C3.99803 7.95408 3.81036 7.93391 3.62556 7.95693C3.62979 7.79578 3.60095 7.63545 3.54079 7.48566C3.48063 7.33587 3.3904 7.19973 3.27556 7.08549C3.16335 6.97429 3.03011 6.88608 2.88346 6.82589C2.73682 6.76571 2.57964 6.73473 2.42091 6.73473C2.26217 6.73473 2.10499 6.76571 1.95835 6.82589C1.8117 6.88608 1.67847 6.97429 1.56625 7.08549L1.32212 7.32729C1.15127 7.49591 1.03535 7.71138 0.989331 7.94589C0.943314 8.18041 0.969309 8.42319 1.06396 8.64293C1.15861 8.86266 1.31758 9.04926 1.52035 9.17864C1.72311 9.30801 1.96037 9.37423 2.2015 9.36874C2.17845 9.55174 2.19895 9.73755 2.26135 9.9113C2.32376 10.0851 2.42634 10.2419 2.5609 10.3694C2.69546 10.4969 2.85826 10.5914 3.03629 10.6454C3.21432 10.6994 3.40264 10.7114 3.58619 10.6805C3.57449 10.8452 3.5978 11.0106 3.65462 11.1659C3.71143 11.3212 3.80049 11.463 3.91605 11.5821C4.0316 11.7012 4.17108 11.795 4.32549 11.8574C4.4799 11.9198 4.6458 11.9495 4.8125 11.9445C4.81336 12.2239 4.926 12.4916 5.12575 12.689C5.32684 12.8881 5.59957 13 5.88394 13C6.1683 13 6.44103 12.8881 6.64212 12.689L6.90462 12.429C7.05083 12.2852 7.15196 12.1027 7.19581 11.9033C7.23966 11.704 7.22436 11.4963 7.15176 11.3054C7.07917 11.1144 6.95237 10.9484 6.78664 10.8272C6.62092 10.706 6.42335 10.6349 6.21775 10.6224H6.21862Z" fill="#B2B3B3"/>
<path d="M13.5625 4.38796e-06H9.14375C8.36685 -0.00122457 7.612 0.25573 7 0.729743C6.388 0.25573 5.63314 -0.00122457 4.85625 4.38796e-06H0.4375C0.321468 4.38796e-06 0.210188 0.0456593 0.128141 0.126926C0.0460936 0.208192 0 0.318413 0 0.433341V6.06672C0 6.18165 0.0460936 6.29187 0.128141 6.37313C0.210188 6.4544 0.321468 6.50005 0.4375 6.50005C0.553532 6.50005 0.664812 6.4544 0.746859 6.37313C0.828906 6.29187 0.875 6.18165 0.875 6.06672V0.866678H4.85625C5.39048 0.86588 5.91205 1.02775 6.35031 1.33035L3.94187 3.7163C3.74876 3.9062 3.63405 4.16058 3.62014 4.42976C3.60624 4.69894 3.69414 4.96359 3.86668 5.17201C4.03922 5.38044 4.28401 5.51767 4.55323 5.55691C4.82246 5.59615 5.09678 5.53457 5.32262 5.38421L8.4315 3.3315L12.4871 7.34809C12.547 7.40745 12.5946 7.47791 12.627 7.55546C12.6594 7.63301 12.6761 7.71612 12.6761 7.80006C12.6761 7.884 12.6594 7.96712 12.627 8.04467C12.5946 8.12222 12.547 8.19268 12.4871 8.25203C12.3642 8.36819 12.2009 8.433 12.031 8.433C11.8612 8.433 11.6978 8.36819 11.5749 8.25203L10.3718 7.06036C10.2893 6.98142 10.1788 6.93774 10.0641 6.93873C9.94936 6.93972 9.83963 6.98529 9.75851 7.06564C9.6774 7.14598 9.63139 7.25467 9.63039 7.36829C9.62939 7.48191 9.67349 7.59137 9.75318 7.6731L11.0766 8.98394C11.1976 9.10381 11.2656 9.26639 11.2656 9.43591C11.2656 9.60543 11.1976 9.76801 11.0766 9.88788C10.9556 10.0077 10.7915 10.0751 10.6203 10.0751C10.4492 10.0751 10.285 10.0077 10.164 9.88788L8.84056 8.57703C8.75805 8.4981 8.64753 8.45442 8.53282 8.45541C8.41811 8.4564 8.30838 8.50197 8.22726 8.58231C8.14615 8.66266 8.10014 8.77135 8.09914 8.88496C8.09814 8.99858 8.14224 9.10805 8.22193 9.18977L9.20587 10.1648C9.2961 10.2541 9.35755 10.368 9.38247 10.4919C9.40738 10.6159 9.39464 10.7444 9.34585 10.8612C9.29706 10.9779 9.21441 11.0778 9.10836 11.148C9.0023 11.2183 8.87759 11.2558 8.75 11.2559C8.63396 11.2559 8.52268 11.3016 8.44064 11.3828C8.35859 11.4641 8.3125 11.5743 8.3125 11.6893C8.3125 11.8042 8.35859 11.9144 8.44064 11.9957C8.52268 12.0769 8.63396 12.1226 8.75 12.1226C9.10564 12.1233 9.45017 11.9999 9.72319 11.7742C9.99621 11.5484 10.1803 11.2347 10.2432 10.888C10.3662 10.9211 10.4929 10.9389 10.6203 10.9409C10.8199 10.9411 11.0176 10.9023 11.2021 10.8267C11.3866 10.7511 11.5542 10.6403 11.6954 10.5005C11.8366 10.3608 11.9486 10.1948 12.025 10.0121C12.1014 9.82943 12.1407 9.63363 12.1406 9.43591C12.1406 9.38867 12.1314 9.34317 12.1271 9.29681C12.4962 9.27625 12.8448 9.12203 13.1066 8.86347C13.3913 8.58085 13.5511 8.19796 13.5511 7.79876C13.5511 7.39957 13.3913 7.01667 13.1066 6.73406L13.1009 6.72842L13.8771 5.93672C13.9564 5.85538 14.0006 5.74651 14 5.63338V0.433341C14 0.318413 13.9539 0.208192 13.8719 0.126926C13.7898 0.0456593 13.6785 4.38796e-06 13.5625 4.38796e-06Z" fill="#B2B3B3"/>
</svg>
