<svg width="14" height="14" viewBox="0 0 14 14" fill="none" xmlns="http://www.w3.org/2000/svg">
<path d="M13.0026 7.74979C12.6346 7.74979 12.3359 7.45112 12.3359 7.08312V4.55512C12.3359 3.94268 11.8373 3.44401 11.2248 3.44401H6.43727C6.2346 3.44401 6.04349 3.35157 5.91727 3.19423L5.38127 2.52579C5.16972 2.26179 4.85327 2.11068 4.5146 2.11068H2.78038C2.16794 2.11068 1.66927 2.60934 1.66927 3.22179V6.77734C1.66927 7.14534 1.3706 7.44401 1.0026 7.44401C0.634604 7.44401 0.335938 7.14534 0.335938 6.77734V3.22179C0.335938 1.87423 1.43194 0.777344 2.78038 0.777344H4.5146C5.25949 0.777344 5.9546 1.11068 6.42127 1.69201L6.75727 2.11068H11.2248C12.5733 2.11068 13.6693 3.20757 13.6693 4.55512V7.08312C13.6693 7.45112 13.3706 7.74979 13.0026 7.74979Z" fill="#B2B3B3"/>
<path d="M11.2248 4.33203H2.78038C1.43035 4.33203 0.335938 5.42645 0.335938 6.77648V10.7765C0.335938 12.1265 1.43035 13.2209 2.78038 13.2209H11.2248C12.5749 13.2209 13.6693 12.1265 13.6693 10.7765V6.77648C13.6693 5.42645 12.5749 4.33203 11.2248 4.33203Z" fill="#B2B3B3"/>
</svg>
