<svg width="14" height="12" viewBox="0 0 14 12" fill="none" xmlns="http://www.w3.org/2000/svg">
<path d="M10.2716 10.6211H7.5767V3.30642C7.5767 2.98766 7.318 2.72895 6.99923 2.72895C6.68046 2.72895 6.42176 2.98766 6.42176 3.30642V10.6211H3.72688C3.40811 10.6211 3.1494 10.8798 3.1494 11.1986C3.1494 11.5173 3.40811 11.776 3.72688 11.776H10.2716C10.5903 11.776 10.8491 11.5173 10.8491 11.1986C10.8491 10.8798 10.5903 10.6211 10.2716 10.6211Z" fill="#B2B3B3"/>
<path d="M5.65179 1.38151H2.78367C2.565 1.38151 2.36481 1.50547 2.26702 1.70105L0.149619 5.93585C0.00717534 6.22151 0.12267 6.568 0.407557 6.71044C0.693214 6.85365 1.04047 6.73739 1.18214 6.4525L2.77905 3.25946L4.34362 6.44788C4.44372 6.65269 4.6493 6.7705 4.86258 6.7705C4.94804 6.7705 5.03505 6.75202 5.11666 6.71121C5.40309 6.57031 5.5209 6.22459 5.38076 5.93817L3.71071 2.53569H5.65179C5.97056 2.53569 6.22926 2.27698 6.22926 1.95821C6.22926 1.63945 5.97056 1.38151 5.65179 1.38151Z" fill="#B2B3B3"/>
<path d="M13.8488 5.93585L11.7314 1.70105C11.649 1.53704 11.4935 1.42848 11.3172 1.39614C11.291 1.38767 11.2579 1.38151 11.2148 1.38151H8.34667C8.0279 1.38151 7.76919 1.64022 7.76919 1.95898C7.76919 2.27775 8.0279 2.53646 8.34667 2.53646H10.2878L8.6177 5.93893C8.47679 6.22536 8.59537 6.57108 8.88179 6.71198C8.96341 6.75202 9.05042 6.77127 9.13588 6.77127C9.34916 6.77127 9.55397 6.65269 9.65484 6.44865L11.2194 3.26023L12.8155 6.4525C12.9588 6.73816 13.3052 6.85365 13.5901 6.71044C13.8758 6.56723 13.9921 6.22074 13.8488 5.93585Z" fill="#B2B3B3"/>
<path d="M5.39693 6.0013H0.144229C0.11728 6.06059 0.0949514 6.12142 0.0864818 6.18378C0.0772422 6.25 0.0703125 6.31699 0.0703125 6.38628C0.0703125 7.87232 1.27916 9.08116 2.76519 9.08116C4.25122 9.08116 5.46007 7.87232 5.46007 6.38628C5.46007 6.31776 5.45237 6.25077 5.43774 6.1399C5.43312 6.09062 5.4131 6.04596 5.39693 6.0013Z" fill="#B2B3B3"/>
<path d="M13.8666 6.0013H8.61385C8.5869 6.06059 8.56457 6.12142 8.5561 6.18378C8.54686 6.25 8.53993 6.31699 8.53993 6.38628C8.53993 7.87232 9.74878 9.08116 11.2348 9.08116C12.7208 9.08116 13.9297 7.87232 13.9297 6.38628C13.9297 6.31776 13.922 6.25077 13.9074 6.1399C13.9027 6.09062 13.8827 6.04596 13.8666 6.0013Z" fill="#B2B3B3"/>
<path d="M6.99923 3.69141C7.95602 3.69141 8.73165 2.91577 8.73165 1.95898C8.73165 1.00219 7.95602 0.226562 6.99923 0.226562C6.04244 0.226562 5.26681 1.00219 5.26681 1.95898C5.26681 2.91577 6.04244 3.69141 6.99923 3.69141Z" fill="#B2B3B3"/>
</svg>
