<svg width="33" height="32" viewBox="0 0 33 32" fill="none" xmlns="http://www.w3.org/2000/svg">
<path d="M5.59375 29.82V5.2543C5.59375 4.4399 5.92213 3.65885 6.50666 3.08298C7.09119 2.50711 7.88398 2.18359 8.71063 2.18359H24.295C25.1217 2.18359 25.9145 2.50711 26.499 3.08298C27.0835 3.65885 27.4119 4.4399 27.4119 5.2543V29.82L22.7366 26.7493L19.6197 29.82L16.5028 26.7493L13.386 29.82L10.2691 26.7493L5.59375 29.82Z" fill="url(#paint0_linear_1256_39097)"/>
<path d="M12.1328 18.9077L20.8601 9.45312L12.1328 18.9077Z" fill="white"/>
<path d="M12.1328 18.9077L20.8601 9.45312" stroke="white" stroke-width="2.75" stroke-linecap="round" stroke-linejoin="round"/>
<path d="M12.8601 11.6381C13.2617 11.6381 13.5874 11.3125 13.5874 10.9109C13.5874 10.5092 13.2617 10.1836 12.8601 10.1836C12.4584 10.1836 12.1328 10.5092 12.1328 10.9109C12.1328 11.3125 12.4584 11.6381 12.8601 11.6381Z" fill="white" stroke="white" stroke-width="2.75" stroke-linecap="round" stroke-linejoin="round"/>
<path d="M20.1335 18.9077C20.5352 18.9077 20.8608 18.5821 20.8608 18.1804C20.8608 17.7787 20.5352 17.4531 20.1335 17.4531C19.7319 17.4531 19.4062 17.7787 19.4062 18.1804C19.4062 18.5821 19.7319 18.9077 20.1335 18.9077Z" fill="white" stroke="white" stroke-width="2.75" stroke-linecap="round" stroke-linejoin="round"/>
<defs>
<linearGradient id="paint0_linear_1256_39097" x1="5.32102" y1="1.90629" x2="24.059" y2="32.0125" gradientUnits="userSpaceOnUse">
<stop stop-color="#2357C6"/>
<stop offset="1" stop-color="#5EA8FF"/>
</linearGradient>
</defs>
</svg>
