<svg width="14" height="13" viewBox="0 0 14 13" fill="none" xmlns="http://www.w3.org/2000/svg">
<path d="M12.9275 2.6935H11.6375C11.7673 2.4369 11.8399 2.15518 11.8503 1.86779C11.8316 1.35973 11.6141 0.879332 11.2447 0.530053C10.8752 0.180774 10.3834 -0.00944439 9.87511 0.000361117C9.26965 0.0264387 8.68264 0.216436 8.17673 0.550071C7.67083 0.883707 7.26501 1.34846 7.0026 1.89472C6.74299 1.34999 6.34027 0.886015 5.83747 0.552365C5.33467 0.218714 4.75068 0.0279189 4.14787 0.000361117C4.1274 0.000361117 4.10694 0.000361117 4.08647 0.000361117C3.58544 0.00116349 3.10423 0.196195 2.74402 0.544453C2.38381 0.892711 2.17265 1.36706 2.15495 1.86779V1.90334C2.16546 2.17833 2.23508 2.44783 2.35909 2.6935H1.07769C0.934838 2.6935 0.797836 2.75025 0.696823 2.85126C0.595811 2.95228 0.539063 3.08928 0.539062 3.23213V4.84802C0.539063 4.99087 0.595811 5.12787 0.696823 5.22889C0.797836 5.3299 0.934838 5.38665 1.07769 5.38665H12.9275C13.0704 5.38665 13.2074 5.3299 13.3084 5.22889C13.4094 5.12787 13.4661 4.99087 13.4661 4.84802V3.23213C13.4661 3.08928 13.4094 2.95228 13.3084 2.85126C13.2074 2.75025 13.0704 2.6935 12.9275 2.6935ZM9.89181 1.07762C10.1118 1.07191 10.3257 1.15058 10.4895 1.29751C10.6533 1.44443 10.7548 1.64847 10.773 1.86779C10.7654 2.08826 10.6728 2.29725 10.5148 2.45112C10.3567 2.60499 10.1453 2.69183 9.92466 2.6935H7.7987C8.13372 2.01537 8.80001 1.07762 9.89181 1.07762ZM3.2322 1.88556C3.24599 1.66515 3.34387 1.45844 3.50564 1.3081C3.66741 1.15776 3.88072 1.07525 4.10155 1.07762C5.21597 1.08193 5.86879 2.00998 6.20759 2.6935H4.10694C3.88577 2.69517 3.67227 2.61258 3.5098 2.46251C3.34733 2.31245 3.24807 2.10616 3.2322 1.88556Z" fill="#B2B3B3"/>
<path d="M8.08073 6.46387V12.9274H10.7739C11.2024 12.9274 11.6134 12.7572 11.9165 12.4541C12.2195 12.1511 12.3898 11.7401 12.3898 11.3115V6.46387H8.08073Z" fill="#B2B3B3"/>
<path d="M5.92621 6.46387H1.61719V11.3115C1.61719 11.7401 1.78743 12.1511 2.09047 12.4541C2.39351 12.7572 2.80451 12.9274 3.23307 12.9274H5.92621V6.46387Z" fill="#B2B3B3"/>
</svg>
