<svg width="12" height="14" viewBox="0 0 12 14" fill="none" xmlns="http://www.w3.org/2000/svg">
<path d="M4.18604 0.789062H7.82699C8.11668 0.789062 8.39451 0.887963 8.59935 1.06401C8.80419 1.24005 8.91927 1.47882 8.91927 1.72778C8.91927 2.3087 8.65075 2.86582 8.17278 3.27659C7.69482 3.68736 7.04655 3.91813 6.37061 3.91813H5.64242C4.96647 3.91813 4.3182 3.68736 3.84024 3.27659C3.36227 2.86582 3.09375 2.3087 3.09375 1.72778C3.09375 1.47882 3.20883 1.24005 3.41367 1.06401C3.61852 0.887963 3.89634 0.789063 4.18604 0.789062Z" fill="#B2B3B3"/>
<path d="M0.40625 11.0607V10.3517C0.40625 8.84752 0.996139 7.40491 2.04615 6.34126C3.09616 5.27762 4.52027 4.68007 6.00521 4.68007C7.49014 4.68007 8.91426 5.27762 9.96427 6.34126C11.0143 7.40491 11.6042 8.84752 11.6042 10.3517V11.0607C11.6042 11.8128 11.3092 12.5341 10.7842 13.0659C10.2592 13.5978 9.54716 13.8965 8.80469 13.8965H3.20573C2.46326 13.8965 1.7512 13.5978 1.2262 13.0659C0.701194 12.5341 0.40625 11.8128 0.40625 11.0607Z" fill="#B2B3B3"/>
</svg>
