<svg width="16" height="14" viewBox="0 0 16 14" fill="none" xmlns="http://www.w3.org/2000/svg">
<path d="M15.0651 7.20731V6.37633C15.0651 5.57442 14.4128 4.9221 13.6109 4.9221H9.87143C9.06953 4.9221 8.4172 5.57442 8.4172 6.37633V7.20731C8.4172 7.32199 8.43382 7.43168 8.45875 7.53805C7.94603 7.76324 7.58621 8.2743 7.58621 8.86929V9.70028C7.58621 10.2953 7.94603 10.8063 8.45875 11.0315C8.43382 11.1379 8.4172 11.2484 8.4172 11.3623V12.1932C8.4172 12.9951 9.06953 13.6475 9.87143 13.6475H13.6109C14.4128 13.6475 15.0651 12.9951 15.0651 12.1932V11.3623C15.0651 10.7673 14.7053 10.2562 14.1926 10.031C14.2175 9.92464 14.2341 9.81412 14.2341 9.70028V8.86929C14.2341 8.75461 14.2175 8.64492 14.1926 8.53856C14.7053 8.31336 15.0651 7.8023 15.0651 7.20731ZM9.66368 6.37633C9.66368 6.26165 9.75675 6.16858 9.87143 6.16858H13.6109C13.7256 6.16858 13.8186 6.26165 13.8186 6.37633V7.20731C13.8186 7.32199 13.7256 7.41506 13.6109 7.41506H9.87143C9.75675 7.41506 9.66368 7.32199 9.66368 7.20731V6.37633ZM13.8186 12.1932C13.8186 12.3079 13.7256 12.401 13.6109 12.401H9.87143C9.75675 12.401 9.66368 12.3079 9.66368 12.1932V11.3623C9.66368 11.2476 9.75675 11.1545 9.87143 11.1545H13.6109C13.7256 11.1545 13.8186 11.2476 13.8186 11.3623V12.1932Z" fill="#B2B3B3"/>
<path d="M11.9481 0.351562H3.22272C1.96045 0.351562 0.9375 1.37451 0.9375 2.63678V8.0382C0.9375 9.30047 1.96045 10.3234 3.22272 10.3234H6.13117C6.4752 10.3234 6.75442 10.0442 6.75442 9.70017C6.75442 9.35615 6.4752 9.07693 6.13117 9.07693H4.61379C4.36532 7.85787 3.40304 6.89559 2.18398 6.64713V4.02868C3.40304 3.78022 4.36532 2.81793 4.61379 1.59887H10.5562C10.847 3.02485 12.1143 4.09932 13.6259 4.09184C13.9624 4.09018 14.2333 3.80515 14.2333 3.4686V2.63761C14.2333 1.37534 13.2104 0.352394 11.9481 0.352394V0.351562Z" fill="#B2B3B3"/>
<path d="M7.16991 6.92218V6.37622C7.16991 5.10814 8.05159 4.04863 9.23159 3.76027C8.81526 3.32567 8.23274 3.05227 7.5854 3.05227C6.32479 3.05227 5.30019 4.07688 5.30019 5.33749C5.30019 6.30227 5.90265 7.12494 6.74943 7.459C6.86909 7.26455 7.00454 7.0809 7.16991 6.92218Z" fill="#B2B3B3"/>
</svg>
