<svg width="14" height="14" viewBox="0 0 14 14" fill="none" xmlns="http://www.w3.org/2000/svg">
<path d="M3.28719 12.8846H1.88665C1.55608 12.8846 1.28779 12.6163 1.28779 12.2857V10.8852C1.28779 10.1019 1.74931 9.38651 2.46396 9.06313C2.76339 8.92659 3.11951 9.05994 3.25605 9.36175C3.39259 9.66277 3.25845 10.0181 2.95742 10.1538C2.67076 10.284 2.48552 10.5706 2.48552 10.8852V11.6869H3.28719C3.6018 11.6869 3.88845 11.5016 4.01861 11.215C4.15435 10.914 4.51047 10.7806 4.8107 10.9164C5.11173 11.0529 5.24588 11.4074 5.10934 11.7084C4.78595 12.423 4.07051 12.8846 3.28719 12.8846Z" fill="white"/>
<path d="M11.0483 8.00314C13.7832 4.99941 13.4824 1.61289 13.4365 1.23009C13.4056 0.970634 13.2018 0.766826 12.9423 0.735992C12.5579 0.688612 9.17311 0.389292 6.16814 3.12378L5.40618 2.98766C4.25083 2.78234 3.06915 3.26592 2.39144 4.22178L0.978838 6.21624C0.835171 6.4193 0.841189 6.69155 0.993129 6.88783C1.10295 7.02922 1.26843 7.10668 1.43917 7.10668C1.50687 7.10668 1.57532 7.09465 1.64076 7.06983C1.65054 7.06607 2.44409 6.77578 3.62351 6.8224C3.49564 7.1518 3.40463 7.44285 3.33994 7.679C3.28653 7.87453 3.34144 8.08361 3.48511 8.22725L5.94625 10.688C6.05381 10.7955 6.19748 10.8534 6.34491 10.8534C6.39455 10.8534 6.44495 10.8467 6.49384 10.8331C6.72927 10.7685 7.02037 10.6775 7.34907 10.5496C7.3927 11.7191 7.10536 12.5238 7.10235 12.532C7.0136 12.7644 7.08731 13.0269 7.28363 13.1788C7.38517 13.257 7.50703 13.2969 7.62888 13.2969C7.74321 13.2969 7.85754 13.2623 7.95533 13.1931L9.95162 11.7792C10.9069 11.1031 11.3905 9.92088 11.1844 8.76873L11.0475 8.00464L11.0483 8.00314ZM9.14904 3.70738C9.87565 3.70738 10.4654 4.29624 10.4654 5.02348C10.4654 5.75072 9.87565 6.33958 9.14904 6.33958C8.42243 6.33958 7.83272 5.75072 7.83272 5.02348C7.83272 4.29624 8.42243 3.70738 9.14904 3.70738ZM2.71788 5.71387L3.31286 4.87457C3.73859 4.27368 4.47949 3.96759 5.20911 4.09845L5.23468 4.10296C4.77209 4.65948 4.40277 5.21751 4.12371 5.73718C3.60621 5.68679 3.12181 5.67852 2.71788 5.71387ZM9.30023 10.8579L8.45854 11.4536C8.49464 11.0505 8.48562 10.5662 8.43447 10.0487C8.95423 9.76972 9.51234 9.40046 10.069 8.93794L10.0742 8.96652C10.2036 9.69075 9.90047 10.433 9.30023 10.8579Z" fill="white"/>
</svg>
