<svg width="12" height="14" viewBox="0 0 12 14" fill="none" xmlns="http://www.w3.org/2000/svg">
<path fill-rule="evenodd" clip-rule="evenodd" d="M0.546875 1.6291V13.9119L2.88454 12.3766L4.44298 13.9119L6.00142 12.3766L7.55986 13.9119L9.1183 12.3766L11.456 13.9119V1.6291C11.456 1.2219 11.2918 0.831379 10.9995 0.543445C10.7072 0.25551 10.3108 0.09375 9.89752 0.09375H2.10532C1.69199 0.09375 1.2956 0.25551 1.00333 0.543445C0.711067 0.831379 0.546875 1.2219 0.546875 1.6291ZM8.51918 3.36112C8.72209 3.54842 8.73475 3.86475 8.54744 4.06766L4.18381 8.79493C3.99651 8.99784 3.68018 9.01049 3.47727 8.82319C3.27436 8.63589 3.2617 8.31956 3.449 8.11665L7.81264 3.38938C7.99994 3.18647 8.31627 3.17381 8.51918 3.36112ZM3.3125 4.45739C3.3125 3.98042 3.69916 3.59375 4.17614 3.59375C4.65311 3.59375 5.03977 3.98042 5.03977 4.45739C5.03977 4.93436 4.65311 5.32102 4.17614 5.32102C3.69916 5.32102 3.3125 4.93436 3.3125 4.45739ZM7.81676 7.22852C7.33979 7.22852 6.95312 7.61519 6.95312 8.09216C6.95312 8.56913 7.33979 8.9558 7.81676 8.9558C8.29373 8.9558 8.6804 8.56913 8.6804 8.09216C8.6804 7.61519 8.29373 7.22852 7.81676 7.22852Z" fill="#B2B3B3"/>
</svg>
