<svg width="14" height="16" viewBox="0 0 14 16" fill="none" xmlns="http://www.w3.org/2000/svg">
<path d="M12.7697 4.82574L9.29058 1.34663C8.99636 1.0524 8.60614 0.890625 8.19103 0.890625H3.22569C1.87725 0.890625 0.78125 1.98663 0.78125 3.33507V12.6684C0.78125 14.0168 1.87725 15.1128 3.22569 15.1128H10.7812C12.1297 15.1128 13.2257 14.0168 13.2257 12.6684V5.92529C13.2257 5.51018 13.0639 5.11907 12.7697 4.82574ZM4.11458 5.33507H5.89236C6.26036 5.33507 6.55903 5.63374 6.55903 6.00174C6.55903 6.36974 6.26036 6.6684 5.89236 6.6684H4.11458C3.74658 6.6684 3.44792 6.36974 3.44792 6.00174C3.44792 5.63374 3.74658 5.33507 4.11458 5.33507ZM9.89236 12.0017H4.11458C3.74658 12.0017 3.44792 11.7031 3.44792 11.3351C3.44792 10.9671 3.74658 10.6684 4.11458 10.6684H9.89236C10.2604 10.6684 10.559 10.9671 10.559 11.3351C10.559 11.7031 10.2604 12.0017 9.89236 12.0017ZM9.89236 9.33507H4.11458C3.74658 9.33507 3.44792 9.0364 3.44792 8.6684C3.44792 8.3004 3.74658 8.00174 4.11458 8.00174H9.89236C10.2604 8.00174 10.559 8.3004 10.559 8.6684C10.559 9.0364 10.2604 9.33507 9.89236 9.33507ZM11.8319 5.77951H9.22569C8.73681 5.77951 8.33681 5.37951 8.33681 4.89062V2.29418L8.34836 2.28974L11.8346 5.77507L11.8319 5.77951Z" fill="#B2B3B3"/>
</svg>
