<svg width="15" height="14" viewBox="0 0 15 14" fill="none" xmlns="http://www.w3.org/2000/svg">
<path d="M6.22356 7.81432C8.24551 7.81432 9.88463 6.1752 9.88463 4.15325C9.88463 2.1313 8.24551 0.492188 6.22356 0.492188C4.20161 0.492188 2.5625 2.1313 2.5625 4.15325C2.5625 6.1752 4.20161 7.81432 6.22356 7.81432Z" fill="#B2B3B3"/>
<path d="M6.82847 9.23908C6.82847 8.90227 6.55511 8.62891 6.2183 8.62891C4.03061 8.62891 2.00075 9.71909 0.789343 11.5456C0.603036 11.8262 0.679512 12.2054 0.960193 12.3917C1.06433 12.46 1.18067 12.4934 1.29701 12.4934C1.49471 12.4934 1.68834 12.3974 1.80631 12.2208C2.79073 10.7361 4.43983 9.85008 6.2183 9.85008C6.55511 9.85008 6.82847 9.57672 6.82847 9.2399V9.23908Z" fill="#B2B3B3"/>
<path d="M13.9667 9.09264C13.7787 8.8022 13.4598 8.62891 13.1132 8.62891H8.71587C8.31397 8.62891 7.94949 8.86647 7.78596 9.23257L6.4273 12.29H4.38361C4.0468 12.29 3.77344 12.5633 3.77344 12.9001C3.77344 13.237 4.0468 13.5103 4.38361 13.5103H11.8481C12.25 13.5103 12.6145 13.2728 12.778 12.9067L14.0431 10.06C14.1847 9.74431 14.1562 9.38227 13.9675 9.09264H13.9667Z" fill="#B2B3B3"/>
</svg>
