<svg width="33" height="32" viewBox="0 0 33 32" fill="none" xmlns="http://www.w3.org/2000/svg">
<path d="M8.07439 27.7691H5.27331C4.61216 27.7691 4.07558 27.2325 4.07558 26.5714V23.7704C4.07558 22.2038 4.99863 20.773 6.42791 20.1263C7.02678 19.8532 7.73903 20.1199 8.01211 20.7235C8.28519 21.3255 8.0169 22.0362 7.41484 22.3077C6.84153 22.5679 6.47103 23.1412 6.47103 23.7704V25.3737H8.07439C8.70359 25.3737 9.27691 25.0032 9.53721 24.43C9.8087 23.8279 10.5209 23.5612 11.1214 23.8327C11.7235 24.1058 11.9918 24.8148 11.7187 25.4168C11.0719 26.8461 9.64102 27.7691 8.07439 27.7691Z" fill="url(#paint0_linear_1256_39114)"/>
<path d="M23.5966 18.0063C29.0665 11.9988 28.4647 5.22578 28.373 4.46019C28.3113 3.94127 27.9036 3.53365 27.3846 3.47198C26.6159 3.37722 19.8462 2.77858 13.8363 8.24756L12.3124 7.97531C10.0017 7.56469 7.6383 8.53183 6.28287 10.4436L3.45768 14.4325C3.17034 14.8386 3.18238 15.3831 3.48626 15.7757C3.7059 16.0584 4.03686 16.2134 4.37835 16.2134C4.51374 16.2134 4.65064 16.1893 4.78152 16.1397C4.80107 16.1321 6.38818 15.5516 8.74702 15.6448C8.49128 16.3036 8.30925 16.8857 8.17988 17.358C8.07307 17.7491 8.18288 18.1672 8.47022 18.4545L13.3925 23.376C13.6076 23.5911 13.895 23.7069 14.1898 23.7069C14.2891 23.7069 14.3899 23.6933 14.4877 23.6663C14.9585 23.5369 15.5407 23.3549 16.1981 23.0992C16.2854 25.4381 15.7107 27.0475 15.7047 27.0641C15.5272 27.5288 15.6746 28.0538 16.0673 28.3576C16.2703 28.514 16.5141 28.5938 16.7578 28.5938C16.9864 28.5938 17.2151 28.5246 17.4107 28.3862L21.4032 25.5584C23.3138 24.2062 24.2811 21.8418 23.8689 19.5375L23.5951 18.0093L23.5966 18.0063ZM19.7981 9.41475C21.2513 9.41475 22.4307 10.5925 22.4307 12.047C22.4307 13.5014 21.2513 14.6792 19.7981 14.6792C18.3449 14.6792 17.1654 13.5014 17.1654 12.047C17.1654 10.5925 18.3449 9.41475 19.7981 9.41475ZM6.93577 13.4277L8.12572 11.7491C8.97719 10.5474 10.459 9.93518 11.9182 10.1969L11.9694 10.2059C11.0442 11.319 10.3055 12.435 9.74742 13.4744C8.71242 13.3736 7.74361 13.357 6.93577 13.4277ZM20.1005 23.7159L18.4171 24.9072C18.4893 24.101 18.4712 23.1323 18.3689 22.0975C19.4085 21.5394 20.5247 20.8009 21.6379 19.8759L21.6485 19.933C21.9072 21.3815 21.3009 22.8661 20.1005 23.7159Z" fill="url(#paint1_linear_1256_39114)"/>
<defs>
<linearGradient id="paint0_linear_1256_39114" x1="2.93516" y1="3.15351" x2="18.0024" y2="33.8175" gradientUnits="userSpaceOnUse">
<stop stop-color="#2357C6"/>
<stop offset="1" stop-color="#5EA8FF"/>
</linearGradient>
<linearGradient id="paint1_linear_1256_39114" x1="2.93516" y1="3.15351" x2="18.0024" y2="33.8175" gradientUnits="userSpaceOnUse">
<stop stop-color="#2357C6"/>
<stop offset="1" stop-color="#5EA8FF"/>
</linearGradient>
</defs>
</svg>
