<svg width="16" height="14" viewBox="0 0 16 14" fill="none" xmlns="http://www.w3.org/2000/svg">
<path d="M5.18815 6.99558C6.50148 6.99558 7.56614 5.93092 7.56614 4.61759C7.56614 3.30426 6.50148 2.2396 5.18815 2.2396C3.87482 2.2396 2.81016 3.30426 2.81016 4.61759C2.81016 5.93092 3.87482 6.99558 5.18815 6.99558Z" fill="#B2B3B3"/>
<path d="M10.5918 4.83411C11.9052 4.83411 12.9698 3.76945 12.9698 2.45612C12.9698 1.14279 11.9052 0.078125 10.5918 0.078125C9.2785 0.078125 8.21384 1.14279 8.21384 2.45612C8.21384 3.76945 9.2785 4.83411 10.5918 4.83411Z" fill="#B2B3B3"/>
<path d="M15.085 8.81045C14.3837 6.94956 12.5781 5.69917 10.5918 5.69917C9.36653 5.69917 8.21212 6.17736 7.34135 6.97896C8.94455 7.59205 10.2684 8.85455 10.8945 10.5148C10.9913 10.7708 11.0346 11.0363 11.0519 11.3017C12.0991 11.2585 13.135 11.0769 14.1346 10.7431C14.5289 10.6117 14.8558 10.322 15.0348 9.94843C15.2077 9.58524 15.2259 9.18055 15.0858 8.81045H15.085Z" fill="#B2B3B3"/>
<path d="M9.68109 10.9719C8.9798 9.11104 7.17425 7.86065 5.18798 7.86065C3.20171 7.86065 1.39616 9.11104 0.694872 10.9719C0.554787 11.3429 0.572946 11.7467 0.745891 12.1099C0.924024 12.4835 1.25175 12.7731 1.64607 12.9046C2.79183 13.2868 3.98428 13.4814 5.18798 13.4814C6.39168 13.4814 7.58413 13.2868 8.72989 12.9046C9.12421 12.7731 9.45107 12.4835 9.63007 12.1099C9.80302 11.7467 9.82117 11.342 9.68109 10.9719Z" fill="#B2B3B3"/>
</svg>
