<?xml version="1.0" encoding="utf-8"?>
<!-- Generator: Adobe Illustrator 24.0.3, SVG Export Plug-In . SVG Version: 6.00 Build 0)  -->
<svg version="1.2" baseProfile="tiny-ps"
	 id="svg22" xmlns:cc="http://creativecommons.org/ns#" xmlns:dc="http://purl.org/dc/elements/1.1/" xmlns:inkscape="http://www.inkscape.org/namespaces/inkscape" xmlns:rdf="http://www.w3.org/1999/02/22-rdf-syntax-ns#" xmlns:sodipodi="http://sodipodi.sourceforge.net/DTD/sodipodi-0.dtd" xmlns:svg="http://www.w3.org/2000/svg"
	 xmlns="http://www.w3.org/2000/svg" xmlns:xlink="http://www.w3.org/1999/xlink" viewBox="0 0 216 216"
	 xml:space="preserve">
<title>orisuun.com</title>
<path fill="#0A193A" d="M216,216H0V0h216V216z"/>
<path fill="#FFFFFF" d="M85.2,106.3H91v27h-5.8V106.3z M135.3,121.9c0,2.3-0.5,3.9-1.6,5c-1.1,1.1-2.5,1.6-4.3,1.6
	c-1.8,0-3.3-0.5-4.3-1.6c-1.1-1.1-1.6-2.7-1.6-5v-15h-5.7v15c0,2,0.3,3.7,0.8,5.2c0.6,1.5,1.3,2.7,2.4,3.7s2.2,1.7,3.7,2.2
	c1.4,0.5,3,0.7,4.8,0.7c1.7,0,3.3-0.3,4.8-0.8c1.4-0.5,2.7-1.3,3.7-2.3c1-1,1.8-2.2,2.4-3.7c0.6-1.5,0.8-3.2,0.8-5.2v-15h-5.7V121.9
	z M162.4,121.9c0,2.3-0.5,3.9-1.6,5c-1.1,1.1-2.5,1.6-4.3,1.6c-1.8,0-3.3-0.5-4.3-1.6c-1.1-1.1-1.6-2.7-1.6-5v-15h-5.7v15
	c0,2,0.3,3.7,0.8,5.2c0.6,1.5,1.3,2.7,2.4,3.7c1,1,2.2,1.7,3.7,2.2s3,0.7,4.8,0.7c1.7,0,3.3-0.3,4.8-0.8c1.4-0.5,2.7-1.3,3.7-2.3
	c1-1,1.8-2.2,2.4-3.7c0.6-1.5,0.8-3.2,0.8-5.2v-15h-5.7V121.9z M177.6,118.8c0-2.3,0.5-3.9,1.6-5c1.1-1.1,2.5-1.6,4.3-1.6
	c1.8,0,3.3,0.5,4.3,1.6c1.1,1.1,1.6,2.7,1.6,5v15h5.7v-15c0-2-0.3-3.7-0.8-5.2c-0.6-1.5-1.3-2.7-2.4-3.7c-1-1-2.2-1.7-3.7-2.2
	c-1.4-0.5-3-0.7-4.8-0.7c-1.7,0-3.3,0.3-4.8,0.8c-1.4,0.5-2.7,1.3-3.7,2.3s-1.8,2.2-2.4,3.7c-0.6,1.5-0.8,3.2-0.8,5.2v15h5.7
	L177.6,118.8L177.6,118.8z M80.2,106.3c-6.7,0.6-12,5.8-12.4,12.6c-0.2,4-0.1,8,0,12v2.3H68c1.6,0,3.2,0,4.9,0c0.3,0,0.6,0,0.9,0
	c0-0.7,0-1.3,0-2c0-3.8,0-7.7,0-11.5c0-3.8,2.6-6.7,6.4-7.4c0.3-0.1,0.6-0.1,1-0.2c0-2,0-3.9,0-5.9
	C80.8,106.3,80.5,106.3,80.2,106.3z M113.6,122.9c-0.9-3.3-3.6-5.6-6.9-6l-1.4-0.1c-0.7,0-1.5,0-2.3,0c-1.1,0-2.2-0.9-2.3-2.1
	c-0.1-1.3,0.6-2.4,1.7-2.7c0.3-0.1,0.7-0.1,1.1-0.1c1.3,0,2.6,0,3.9,0h3.9v0h0.2v-5.8h-4.9v0c-1.2,0-2.4,0-3.6,0
	c-2.5,0-4.9,1.2-6.4,3.3c-1.6,2.1-2,4.7-1.4,7.1c0.9,3.3,3.6,5.6,6.9,6l0.6,0l0.7,0.1c0.7,0,1.5,0,2.3,0c1.1,0,2.2,0.9,2.3,2.1
	c0.1,1.3-0.6,2.4-1.7,2.7c-0.3,0.1-0.7,0.1-1.1,0.1c-0.3,0-0.6,0-1,0h-6.8v5.7v0.1h2.8c0.3,0,0.7,0,1,0c0.7,0,1.4,0,2.1,0
	c0.5,0,0.9,0,1.4,0h0.5v0c0.2,0,0.4,0,0.6,0c2.5,0,4.9-1.2,6.4-3.3C113.8,128,114.3,125.4,113.6,122.9z"/>
<path fill="#69B3E7" d="M116.9,93.8c1.5-1,3.9-1.4,7.9-1.8c-4-0.4-6.5-0.8-8-1.9c0.4-0.9,1.1-1.9,2.1-3.2c0.1-0.1-0.1-0.2-0.1-0.1
	c-1.2,1-2.2,1.7-3.1,2.2c-1-1.5-1.4-3.9-1.8-7.9c-0.4,4-0.8,6.5-1.9,8c-0.9-0.4-1.9-1.1-3.2-2.1c-0.1-0.1-0.2,0.1-0.1,0.1
	c1,1.2,1.7,2.2,2.2,3.1c-0.7,0.5-1.5,0.8-2.6,1.1H97c-0.4-4.5-4.2-8.1-8.8-8.1c-4.9,0-8.9,4-8.9,8.9s4,8.9,8.9,8.9
	c4.6,0,8.4-3.6,8.8-8.1h11.3c1.1,0.3,2,0.6,2.6,1.1c-0.4,0.9-1.1,1.9-2.1,3.2c-0.1,0.1,0.1,0.2,0.1,0.1c1.2-1,2.2-1.7,3.1-2.2
	c1,1.5,1.4,3.9,1.8,7.9c0.4-4,0.8-6.5,1.9-8c0.9,0.4,1.9,1.1,3.2,2.1c0.1,0.1,0.2-0.1,0.1-0.1C118,95.6,117.3,94.6,116.9,93.8z
	 M88.1,95.7c-2,0-3.7-1.7-3.7-3.7s1.7-3.7,3.7-3.7s3.7,1.7,3.7,3.7S90.2,95.7,88.1,95.7z M42.4,91.8c-11.9,0-21.6,9.7-21.6,21.6
	S30.5,135,42.4,135S64,125.3,64,113.4C64,101.4,54.3,91.8,42.4,91.8z M42.4,124.1c-5.9,0-10.7-4.8-10.7-10.7
	c0-5.9,4.8-10.7,10.7-10.7s10.7,4.8,10.7,10.7C53.1,119.3,48.3,124.1,42.4,124.1z"/>
</svg>
