<svg width="1281" height="372" viewBox="0 0 1281 372" fill="none" xmlns="http://www.w3.org/2000/svg">
<path d="M485.887 360.328H445.773V174.004H485.887V360.328Z" fill="#0A193A"/>
<path d="M791.733 281.623C791.733 297.183 787.968 308.679 780.439 316.113C772.996 323.634 763 327.394 750.451 327.394C737.988 327.394 728.036 323.634 720.593 316.113C713.063 308.679 709.299 297.183 709.299 281.623V178.023H670.094V281.623C670.094 295.195 672.041 307.167 675.936 317.54C679.744 327.826 685.153 336.427 692.163 343.342C699.173 350.258 707.654 355.401 717.607 358.772C727.473 362.143 738.421 363.829 750.451 363.829C762.567 363.829 773.558 362.1 783.424 358.642C793.29 355.098 801.772 349.869 808.869 342.953C815.879 336.038 821.288 327.48 825.096 317.28C828.99 307.08 830.938 295.195 830.938 281.623V178.023H791.733V281.623Z" fill="#0A193A"/>
<path d="M979.061 281.623C979.061 297.183 975.296 308.679 967.767 316.113C960.324 323.634 950.328 327.394 937.779 327.394C925.316 327.394 915.364 323.634 907.921 316.113C900.391 308.679 896.627 297.183 896.627 281.623V178.023H857.422V281.623C857.422 295.195 859.369 307.167 863.264 317.54C867.072 327.826 872.481 336.427 879.491 343.342C886.588 350.258 895.069 355.401 904.935 358.772C914.801 362.143 925.749 363.829 937.779 363.829C949.895 363.829 960.886 362.1 970.753 358.642C980.619 355.098 989.1 349.869 996.197 342.953C1003.21 336.038 1008.62 327.48 1012.42 317.28C1016.32 307.08 1018.27 295.195 1018.27 281.623V178.023H979.061V281.623Z" fill="#0A193A"/>
<path d="M1083.95 260.359C1083.95 244.799 1087.72 233.259 1095.25 225.739C1102.69 218.305 1112.69 214.588 1125.24 214.588C1137.7 214.588 1147.7 218.305 1155.22 225.739C1162.67 233.259 1166.39 244.799 1166.39 260.359V363.829H1205.59V260.359C1205.59 246.701 1203.65 234.729 1199.75 224.442C1195.94 214.156 1190.53 205.555 1183.52 198.64C1176.51 191.724 1168.03 186.581 1158.08 183.21C1148.21 179.752 1137.27 178.023 1125.24 178.023C1113.12 178.023 1102.13 179.795 1092.26 183.34C1082.4 186.884 1073.92 192.113 1066.82 199.029C1059.81 205.858 1054.4 214.372 1050.59 224.572C1046.7 234.772 1044.75 246.701 1044.75 260.359V363.829H1083.95V260.359Z" fill="#0A193A"/>
<path d="M411.243 174.135C364.638 178.543 328.419 214.46 325.823 261.268C324.395 288.886 325.304 316.633 325.563 344.381V360.329H326.991C338.285 360.329 349.32 360.329 361.004 360.329C363.081 360.329 365.201 360.329 367.365 360.329C367.365 355.402 367.365 351.123 367.365 346.844C367.365 320.264 367.235 293.813 367.494 267.232C367.754 240.781 385.279 220.813 411.503 216.275C413.709 215.886 415.916 215.238 418.123 214.719C418.123 200.845 418.123 187.749 418.123 174.135C415.137 174.135 413.19 173.875 411.243 174.135Z" fill="#0A193A"/>
<path d="M641.533 289.144C635.172 266.454 616.868 250.764 593.76 247.653L584.284 247.004C579.74 247.004 574.158 247.004 568.576 246.875C560.657 246.745 553.777 240.521 552.868 232.612C551.959 223.795 556.762 216.274 564.681 214.2C567.018 213.551 569.744 213.422 572.47 213.422C581.428 213.292 590.645 213.292 599.472 213.292L626.085 213.422V213.292H627.513V173.227H593.501C585.192 173.227 576.754 173.227 568.316 173.356C550.791 173.616 534.564 181.784 523.919 196.047C513.144 210.18 509.769 228.203 514.442 245.189C520.803 268.009 539.107 283.569 562.215 286.681L566.629 286.94L571.691 287.329C576.235 287.329 581.817 287.329 587.399 287.459C595.318 287.588 602.199 293.812 603.107 301.721C604.016 310.538 599.213 318.059 591.294 320.263C588.957 320.782 586.231 320.912 583.505 320.912C581.255 320.998 579.005 321.041 576.754 321.041H529.89V360.199V361.107H549.103C551.353 361.107 553.604 361.107 555.854 361.107C560.7 361.107 565.633 361.107 570.653 361.107C573.769 361.107 576.927 361.107 580.13 361.107H583.764C585.063 361.02 586.361 360.977 587.659 360.977C605.184 360.847 621.412 352.549 632.057 338.416C642.831 324.153 646.207 306.13 641.533 289.144Z" fill="#0A193A"/>
<path fill-rule="evenodd" clip-rule="evenodd" d="M679.316 109.175C679.835 109.824 679.056 110.602 678.407 110.083C669.579 103.211 662.569 98.4134 656.468 95.4312C649.068 105.934 646.472 122.531 643.616 150.537C640.76 122.919 638.164 106.323 630.894 95.8201C624.922 98.932 618.172 103.989 609.604 110.991C608.955 111.509 608.046 110.731 608.565 109.953C615.446 101.136 620.379 94.2642 623.364 88.1701C618.691 84.7989 612.719 82.465 605.06 80.6497H526.91C524.184 111.898 497.831 136.534 465.896 136.534C432.013 136.534 404.492 109.046 404.492 75.2039C404.492 41.4918 432.013 14.0035 465.896 14.0035C497.831 14.0035 524.184 38.6392 526.91 69.8878H605.06C612.46 68.0725 618.302 65.7386 622.845 62.6267C619.859 56.6623 614.796 49.9198 607.786 41.3621C607.267 40.7138 608.046 39.8062 608.695 40.3249C617.652 47.1969 624.533 52.1241 630.634 54.9766C638.034 44.6037 640.76 27.8773 643.616 0C646.342 27.4883 648.938 44.0851 656.208 54.5877C662.18 51.4758 668.93 46.5486 677.498 39.5469C678.147 38.8986 679.056 39.8062 678.537 40.4545C671.656 49.2715 666.723 56.2733 663.867 62.3674C674.253 69.7581 690.999 72.3513 718.91 75.2039C691.389 78.0565 674.772 80.6497 664.257 87.7811C667.243 93.8752 672.306 100.618 679.316 109.175ZM491.34 75.2039C491.34 61.2004 479.916 49.6605 465.896 49.6605C451.746 49.6605 440.322 61.2004 440.322 75.2039C440.322 89.3371 451.746 100.747 465.896 100.747C479.916 100.747 491.34 89.3371 491.34 75.2039Z" fill="#0A193A"/>
<path fill-rule="evenodd" clip-rule="evenodd" d="M298.95 223.017C298.95 305.223 232.094 371.999 149.66 371.999C67.356 371.999 0.5 305.223 0.5 223.017C0.5 140.682 67.356 73.9062 149.66 73.9062C232.094 73.9062 298.95 140.682 298.95 223.017ZM223.786 223.017C223.786 182.174 190.553 148.98 149.66 148.98C108.768 148.98 75.6643 182.174 75.6643 223.017C75.6643 263.861 108.768 296.925 149.66 296.925C190.553 296.925 223.786 263.861 223.786 223.017Z" fill="#0A193A"/>
<path d="M1250.91 183.34H1244.15V204.993H1238.44V183.34H1231.56V178.672H1250.91V183.34ZM1275.05 186.97L1268.95 205.123H1265.96L1259.86 186.97V205.123H1254.54V178.802H1261.16L1267.52 197.343L1274.01 178.802H1280.5V205.123H1275.05V186.97Z" fill="#0A193A"/>
</svg>
