<svg width="592" height="623" viewBox="0 0 592 623" fill="none" xmlns="http://www.w3.org/2000/svg">
<path d="M68.7892 456.125C8.59338 368.592 -12.999 230.079 -36.4933 0C-60.3226 233.173 -82.1693 372.369 -144.227 459.648C-195.127 435.404 -252.979 394.604 -326.77 337.195C-332.316 332.882 -339.415 340.155 -334.968 345.593C-276.446 417.067 -234.507 473.364 -208.87 523.219C-296.418 583.4 -434.919 604.992 -665 628.5C-431.825 652.315 -292.694 674.162 -205.347 736.219C-229.605 787.118 -270.405 844.97 -327.802 918.76C-332.128 924.319 -324.841 931.418 -319.403 926.958C-247.942 868.45 -191.644 826.499 -141.789 800.861C-81.5933 888.408 -60.0011 1026.91 -36.4933 1257C-12.691 1023.81 9.16925 884.631 71.227 797.339C122.127 821.596 179.979 862.396 253.77 919.805C259.316 924.118 266.415 916.845 261.968 911.407C203.446 839.933 161.507 783.636 135.87 733.781C223.418 673.599 361.919 651.994 592 628.5C358.825 604.684 219.627 582.825 132.347 520.767C156.605 469.868 197.405 412.03 254.802 338.226C259.128 332.681 251.841 325.582 246.403 330.029C174.942 388.55 118.644 430.488 68.7892 456.125Z" fill="#2C57A4"/>
</svg>
