<svg width="300" height="194" viewBox="0 0 300 194" fill="none" xmlns="http://www.w3.org/2000/svg">
<path d="M227.946 51.6754C221.142 51.6754 214.565 52.6139 208.322 54.377C192.28 33.7692 167.22 20.5078 139.043 20.5078C97.2472 20.5078 62.2941 49.6753 53.4941 88.7106C52.3537 88.4737 51.1562 88.341 49.9398 88.341C40.3985 88.341 32.6723 96.057 32.6723 105.574C32.6723 106.75 32.7864 107.906 33.0144 109.025C16.9064 113.148 4.37152 126.153 0.940826 142.486C0.323111 145.406 0 148.43 0 151.529C0 159.757 2.27129 167.445 6.21515 174.023H279.235C287.798 165.369 294.165 154.563 297.472 142.486C299.116 136.448 300 130.106 300 123.547C300 83.8573 267.736 51.6754 227.946 51.6754Z" fill="#D5E8FA"/>
<path d="M50.2738 89.1949C48.8007 92.4747 45.2275 94.0672 45.2275 94.0672C45.2275 94.0672 44.0491 90.3513 45.5221 87.0715C46.9951 83.8012 50.5684 82.1992 50.5684 82.1992C50.5684 82.1992 51.7468 85.9245 50.2738 89.1949Z" fill="#183B87"/>
<path d="M57.4483 103.736C55.4431 106.722 51.6608 107.699 51.6608 107.699C51.6608 107.699 51.1191 103.841 53.1148 100.855C55.1105 97.8592 58.8928 96.8828 58.8928 96.8828C58.8928 96.8828 59.444 100.741 57.4483 103.736Z" fill="#183B87"/>
<path d="M36.1417 79.0333C38.584 81.6686 38.6411 85.574 38.6411 85.574C38.6411 85.574 34.7447 85.1853 32.3119 82.5501C29.8695 79.9054 29.8125 76 29.8125 76C29.8125 76 33.6994 76.3886 36.1417 79.0333Z" fill="#183B87"/>
<path d="M38.9407 91.4413C42.533 91.555 45.3745 94.2471 45.3745 94.2471C45.3745 94.2471 42.3714 96.7496 38.7697 96.6359C35.1774 96.5221 32.3359 93.83 32.3359 93.83C32.3359 93.83 35.339 91.3275 38.9407 91.4413Z" fill="#183B87"/>
<path d="M45.1969 104.816C48.7986 104.93 51.6306 107.622 51.6306 107.622C51.6306 107.622 48.6275 110.125 45.0353 110.011C41.4335 109.897 38.6016 107.205 38.6016 107.205C38.6016 107.205 41.5951 104.703 45.1969 104.816Z" fill="#183B87"/>
<path d="M57.8091 136.155L57.0774 136.174C57.0774 136.089 56.8683 127.576 54.2264 116.903C52.6774 110.647 50.6151 104.883 48.0873 99.7834C44.9322 93.4039 41.0453 88.0482 36.5312 83.8394L37.0349 83.3086C41.6155 87.5742 45.5499 93.0058 48.7525 99.4612C51.2994 104.618 53.3901 110.438 54.9486 116.751C57.6001 127.491 57.8091 136.07 57.8091 136.155Z" fill="#183B87"/>
<path d="M33.384 108.22C33.0514 110.997 30.7706 113.016 30.7706 113.016C30.7706 113.016 29.022 110.523 29.3546 107.736C29.6777 104.959 31.9585 102.949 31.9585 102.949C31.9585 102.949 33.7071 105.433 33.384 108.22Z" fill="#183B87"/>
<path d="M42.1176 117.357C41.3288 120.04 38.7439 121.651 38.7439 121.651C38.7439 121.651 37.4324 118.912 38.2212 116.22C39.01 113.537 41.5949 111.926 41.5949 111.926C41.5949 111.926 42.9063 114.675 42.1176 117.357Z" fill="#183B87"/>
<path d="M20.5028 103.936C22.9262 105.339 23.886 108.221 23.886 108.221C23.886 108.221 20.902 108.847 18.4691 107.444C16.0458 106.05 15.0859 103.159 15.0859 103.159C15.0859 103.159 18.07 102.543 20.5028 103.936Z" fill="#183B87"/>
<path d="M25.4775 112.525C28.1764 111.766 30.9134 113.112 30.9134 113.112C30.9134 113.112 29.2693 115.672 26.5704 116.421C23.8619 117.169 21.125 115.833 21.125 115.833C21.125 115.833 22.7786 113.274 25.4775 112.525Z" fill="#183B87"/>
<path d="M33.2571 121.017C35.9655 120.259 38.7025 121.605 38.7025 121.605C38.7025 121.605 37.0584 124.154 34.3499 124.913C31.651 125.662 28.9141 124.325 28.9141 124.325C28.9141 124.325 30.5581 121.766 33.2571 121.017Z" fill="#183B87"/>
<path d="M49.9678 141.386L49.4261 141.566C49.4071 141.509 47.2594 135.225 42.8023 127.897C40.1889 123.603 37.3094 119.802 34.2398 116.588C30.4005 112.588 26.2571 109.498 21.9141 107.422L22.1611 106.91C26.5707 109.015 30.7711 112.143 34.658 116.2C37.7561 119.442 40.6641 123.281 43.2965 127.613C47.782 134.988 49.9488 141.32 49.9678 141.386Z" fill="#183B87"/>
<path d="M166.039 37.9969H105.836V36.1484H166.039V37.9969Z" fill="#60A3D2"/>
<path d="M166.039 44.4227H105.836V42.5742H166.039V44.4227Z" fill="#60A3D2"/>
<path d="M166.039 50.8602H105.836V49.0117H166.039V50.8602Z" fill="#60A3D2"/>
<path d="M166.039 57.2859H105.836V55.4375H166.039V57.2859Z" fill="#60A3D2"/>
<path d="M113.545 57.2883L109.078 67.4785L116.624 56.3594L113.545 57.2883Z" fill="#60A3D2"/>
<path d="M128.852 50.8602H189.055V49.0117H128.852V50.8602Z" fill="#383E56"/>
<path d="M128.852 57.2859H189.055V55.4375H128.852V57.2859Z" fill="#383E56"/>
<path d="M128.852 63.7156H189.055V61.8672H128.852V63.7156Z" fill="#383E56"/>
<path d="M128.852 70.1414H189.055V68.293H128.852V70.1414Z" fill="#383E56"/>
<path d="M181.352 70.1421L185.819 80.3323L178.273 69.2227L181.352 70.1421Z" fill="#383E56"/>
<path d="M229.641 155.425H70.347C67.401 155.425 65.0156 153.045 65.0156 150.107C65.0156 147.168 67.401 144.789 70.347 144.789H229.641C232.587 144.789 234.973 147.168 234.973 150.107C234.973 153.045 232.587 155.425 229.641 155.425Z" fill="#16357A"/>
<path d="M176.602 92.9922C178.483 92.9922 180.061 94.2529 180.555 95.9687H172.648C173.133 94.2529 174.72 92.9922 176.602 92.9922Z" fill="#D5D6DB"/>
<path d="M157.333 91.5898C160.099 91.5898 162.427 93.4383 163.159 95.9692H151.508C152.23 93.4383 154.558 91.5898 157.333 91.5898Z" fill="#D5D6DB"/>
<path d="M175.418 95.9701C174.525 92.8894 170.99 90.5859 166.751 90.5859C162.522 90.5859 158.987 92.8894 158.094 95.9701H175.418Z" fill="#D5D6DB"/>
<path d="M236.677 123.633C249.126 123.633 259.618 131.956 262.868 143.331H210.477C213.736 131.956 224.228 123.633 236.677 123.633Z" fill="#183B87"/>
<path d="M267.341 129.738C275.932 129.738 283.173 135.483 285.416 143.331H249.266C251.508 135.483 258.75 129.738 267.341 129.738Z" fill="#183B87"/>
<path d="M228.379 143.332C224.854 131.189 210.912 122.117 194.244 122.117C177.575 122.117 163.633 131.189 160.117 143.332H228.379Z" fill="#183B87"/>
<path d="M87.2397 34.6719C91.5542 34.6719 95.1845 37.563 96.3154 41.4969H78.1641C79.295 37.563 82.9252 34.6719 87.2397 34.6719Z" fill="white"/>
<path d="M43.0039 31.4492C49.3616 31.4492 54.712 35.6959 56.3751 41.4972H29.6328C31.2959 35.6959 36.6557 31.4492 43.0039 31.4492Z" fill="white"/>
<path d="M84.4978 41.4976C82.4451 34.4261 74.3293 29.1367 64.617 29.1367C54.9046 29.1367 46.7793 34.4261 44.7266 41.4976H84.4978Z" fill="white"/>
<path d="M70.8576 38.6602C74.7539 38.6602 78.0421 41.2669 79.0589 44.8311H62.6562C63.6731 41.2669 66.9612 38.6602 70.8576 38.6602Z" fill="#87C2EC"/>
<path d="M80.4608 40.5781C83.1503 40.5781 85.4216 42.3697 86.1248 44.8343H74.7969C75.5001 42.3697 77.7714 40.5781 80.4608 40.5781Z" fill="#87C2EC"/>
<path d="M68.2557 44.8324C67.1533 41.0313 62.7913 38.1875 57.5645 38.1875C52.3472 38.1875 47.9852 41.0313 46.8828 44.8324H68.2557Z" fill="#87C2EC"/>
<path d="M230.797 71.7539C227.832 71.7539 225.332 73.7351 224.562 76.4461H237.031C236.252 73.7351 233.762 71.7539 230.797 71.7539Z" fill="white"/>
<path d="M261.172 69.5352C256.81 69.5352 253.133 72.4547 251.992 76.4455H270.353C269.212 72.4547 265.534 69.5352 261.172 69.5352Z" fill="white"/>
<path d="M232.672 76.4465C234.088 71.5837 239.666 67.9531 246.328 67.9531C252.999 67.9531 258.578 71.5837 259.984 76.4465H232.672Z" fill="white"/>
<path d="M242.065 74.4922C239.385 74.4922 237.133 76.2838 236.43 78.7294H247.701C246.997 76.2838 244.745 74.4922 242.065 74.4922Z" fill="#69B3E7"/>
<path d="M235.465 75.8008C233.621 75.8008 232.063 77.0426 231.578 78.7299H239.352C238.877 77.0426 237.318 75.8008 235.465 75.8008Z" fill="#69B3E7"/>
<path d="M243.844 78.7314C244.604 76.1151 247.598 74.1719 251.19 74.1719C254.773 74.1719 257.766 76.1151 258.526 78.7314H243.844Z" fill="#69B3E7"/>
<path d="M208.912 29.1328C210.698 29.1328 212.209 30.3272 212.675 31.9671H205.148C205.614 30.3272 207.125 29.1328 208.912 29.1328Z" fill="white"/>
<path d="M190.572 27.7969C193.204 27.7969 195.428 29.56 196.112 31.9677H185.031C185.715 29.56 187.939 27.7969 190.572 27.7969Z" fill="white"/>
<path d="M207.769 31.9681C206.924 29.0295 203.55 26.8398 199.53 26.8398C195.501 26.8398 192.137 29.0295 191.281 31.9681H207.769Z" fill="white"/>
<path d="M77.4916 130.895C87.1565 130.895 95.3008 137.359 97.8192 146.184H57.1641C59.6919 137.359 67.8363 130.895 77.4916 130.895Z" fill="#183B87"/>
<path d="M101.286 135.633C107.948 135.633 113.574 140.098 115.313 146.183H87.25C88.9986 140.098 94.615 135.633 101.286 135.633Z" fill="#183B87"/>
<path d="M71.0512 146.184C68.3142 136.762 57.4995 129.719 44.556 129.719C31.622 129.719 20.8073 136.762 18.0703 146.184H71.0512Z" fill="#183B87"/>
<path d="M44.0043 142.109C47.7296 142.109 50.8752 144.602 51.8445 148.005H36.1641C37.1334 144.602 40.279 142.109 44.0043 142.109Z" fill="#3B4761"/>
<path d="M53.1903 143.938C55.7562 143.938 57.9325 145.653 58.5977 148.004H47.7734C48.4482 145.653 50.6149 143.938 53.1903 143.938Z" fill="#3B4761"/>
<path d="M240.523 126.581C243.241 127.87 245.237 129.681 246.13 130.572C246.162 130.489 246.193 130.407 246.225 130.325C247.099 128.24 248.145 125.908 249.371 123.415C248.259 123.017 245.655 121.955 243.25 119.936C240.086 117.291 238.47 114.03 238.47 114.03C238.47 114.03 241.977 115.045 245.142 117.689C247.47 119.633 248.952 121.917 249.58 122.988C250.606 120.931 251.746 118.77 253.02 116.571C252.022 115.879 249.817 114.192 248.031 111.67C245.655 108.305 244.923 104.741 244.923 104.741C244.923 104.741 248.059 106.618 250.435 109.983C252.098 112.324 252.953 114.779 253.314 116.04C254.597 113.85 256.004 111.604 257.534 109.376C256.66 108.542 254.74 106.542 253.352 103.774C251.518 100.086 251.347 96.4465 251.347 96.4465C251.347 96.4465 254.151 98.7784 255.985 102.466C257.258 105.006 257.733 107.518 257.905 108.845C258.95 107.338 260.052 105.85 261.212 104.371C260.718 103.271 259.701 100.693 259.473 97.6219C259.168 93.5174 260.385 90.0859 260.385 90.0859C260.385 90.0859 262.105 93.2994 262.409 97.4039C262.59 99.8969 262.21 102.143 261.886 103.527C262.716 102.504 263.575 101.493 264.462 100.494C265.022 99.186 266.058 97.1574 267.702 95.2616C270.401 92.1429 273.699 90.5789 273.699 90.5789C273.699 90.5789 272.625 94.0577 269.936 97.1764C268.311 99.0533 266.467 100.371 265.251 101.12C264.338 102.153 263.454 103.196 262.599 104.257C263.901 103.945 266.419 103.49 269.232 103.755C273.338 104.144 276.531 105.926 276.531 105.926C276.531 105.926 273.062 107.063 268.957 106.675C265.83 106.381 263.245 105.291 262.181 104.779C261.003 106.257 259.891 107.755 258.845 109.262C260.081 109.319 262.808 109.566 265.621 110.713C269.442 112.267 271.979 114.884 271.979 114.884C271.979 114.884 268.33 114.978 264.509 113.424C261.601 112.248 259.444 110.447 258.57 109.651C256.983 111.945 255.538 114.239 254.227 116.495C255.481 116.438 258.19 116.457 261.069 117.339C265.013 118.552 267.769 120.941 267.769 120.941C267.769 120.941 264.139 121.358 260.195 120.144C257.23 119.225 254.93 117.651 253.97 116.931C252.687 119.149 251.537 121.329 250.501 123.405C251.775 123.311 254.455 123.235 257.334 124.012C261.316 125.074 264.167 127.358 264.167 127.358C264.167 127.358 260.556 127.908 256.565 126.837C253.609 126.041 251.271 124.581 250.273 123.879C249.066 126.334 248.031 128.638 247.166 130.695C247.128 130.796 247.087 130.9 247.042 131.008C247.869 131.008 251.024 131.131 254.303 132.467C258.123 134.022 260.66 136.638 260.66 136.638C260.66 136.638 257.011 136.733 253.191 135.178C249.912 133.842 247.574 131.728 246.976 131.15C243.469 139.624 241.987 145.814 241.967 145.881L240.979 145.644C240.998 145.587 242.471 139.454 245.93 131.055C244.685 130.932 241.996 130.524 239.259 129.226C235.534 127.453 233.148 124.694 233.148 124.694C233.148 124.694 236.798 124.808 240.523 126.581Z" fill="#183B87"/>
<path d="M264.313 133.596C265.567 134.847 266.328 136.241 266.641 136.904C266.679 136.866 266.714 136.828 266.746 136.79C267.639 135.805 268.675 134.705 269.844 133.568C269.302 133.132 268.067 132.032 267.126 130.439C265.881 128.363 265.624 126.231 265.624 126.231C265.624 126.231 267.373 127.482 268.618 129.558C269.53 131.093 269.91 132.648 270.043 133.368C271.013 132.421 272.077 131.444 273.208 130.468C272.79 129.899 271.897 128.525 271.393 126.78C270.728 124.449 271.022 122.325 271.022 122.325C271.022 122.325 272.4 123.975 273.065 126.306C273.531 127.937 273.522 129.463 273.484 130.24C274.614 129.264 275.84 128.297 277.123 127.349C276.8 126.724 276.126 125.235 275.897 123.425C275.593 121.017 276.211 118.97 276.211 118.97C276.211 118.97 277.313 120.809 277.618 123.216C277.827 124.866 277.599 126.363 277.437 127.131C278.311 126.496 279.214 125.88 280.145 125.283C280.088 124.581 280.022 122.951 280.497 121.197C281.134 118.865 282.483 117.188 282.483 117.188C282.483 117.188 282.806 119.311 282.17 121.652C281.789 123.074 281.134 124.25 280.687 124.951C281.346 124.54 282.021 124.145 282.711 123.766C283.272 123.15 284.251 122.221 285.534 121.491C287.643 120.278 289.782 120.05 289.782 120.05C289.782 120.05 288.499 121.775 286.399 122.989C285.125 123.709 283.842 124.088 283.025 124.268C282.315 124.66 281.618 125.068 280.934 125.491C281.723 125.577 283.205 125.814 284.716 126.506C286.931 127.52 288.356 129.131 288.356 129.131C288.356 129.131 286.199 129.093 283.994 128.079C282.322 127.302 281.096 126.193 280.602 125.7C279.661 126.297 278.748 126.913 277.874 127.548C278.549 127.814 280.012 128.477 281.352 129.662C283.177 131.274 284.07 133.217 284.07 133.217C284.07 133.217 282.027 132.563 280.202 130.961C278.824 129.738 277.969 128.316 277.646 127.709C276.316 128.676 275.061 129.672 273.892 130.667C274.605 130.875 276.107 131.416 277.532 132.458C279.48 133.899 280.554 135.767 280.554 135.767C280.554 135.767 278.454 135.293 276.496 133.852C275.033 132.771 274.063 131.444 273.674 130.856C272.524 131.842 271.45 132.828 270.481 133.776C271.203 133.975 272.704 134.449 274.149 135.444C276.154 136.809 277.294 138.629 277.294 138.629C277.294 138.629 275.175 138.231 273.17 136.866C271.687 135.852 270.671 134.582 270.252 133.994C269.103 135.122 268.086 136.203 267.202 137.179C267.158 137.23 267.113 137.28 267.069 137.331C267.525 137.492 269.255 138.174 270.813 139.549C272.638 141.16 273.531 143.104 273.531 143.104C273.531 143.104 271.488 142.45 269.673 140.838C268.105 139.464 267.221 137.833 267.002 137.397C263.401 141.426 261.367 144.573 261.338 144.601L260.844 144.289C260.863 144.251 262.878 141.132 266.442 137.141C265.776 136.828 264.36 136.08 263.087 134.828C261.367 133.113 260.578 131.122 260.578 131.122C260.578 131.122 262.593 131.89 264.313 133.596Z" fill="#183B87"/>
<path d="M129.36 154.59C131.517 154.59 133.332 156.031 133.893 157.993H124.836C125.397 156.031 127.212 154.59 129.36 154.59Z" fill="#A29394"/>
<path d="M107.288 152.98C110.463 152.98 113.133 155.104 113.96 157.995H100.617C101.444 155.104 104.124 152.98 107.288 152.98Z" fill="#A29394"/>
<path d="M127.984 157.994C126.967 154.467 122.909 151.832 118.062 151.832C113.225 151.832 109.167 154.467 108.141 157.994H127.984Z" fill="#A29394"/>
<path d="M78.9745 134.317C79.3071 134.26 79.6302 134.478 79.6873 134.829C79.7158 134.98 79.6873 135.132 79.6112 135.255C80.0579 135.833 80.457 136.45 80.8181 137.066C80.8086 136.469 80.8467 135.587 81.0462 134.743C80.9037 134.649 80.7991 134.497 80.7611 134.317C80.7041 133.975 80.9322 133.653 81.2648 133.587C81.6069 133.53 81.93 133.757 81.9871 134.099C82.0441 134.44 81.816 134.762 81.4834 134.829C81.4454 134.835 81.4074 134.838 81.3693 134.838C81.0747 136.108 81.1603 137.492 81.1793 137.71C81.93 139.104 82.4812 140.478 82.8519 141.559C83.5171 143.512 83.7832 144.962 83.7832 144.981L83.4601 145.038C83.4506 145.028 83.194 143.597 82.5287 141.673C82.3387 141.094 82.0821 140.431 81.778 139.729C81.5594 139.644 80.7136 139.331 79.5067 139.322C79.4687 139.568 79.2691 139.777 79.0125 139.824C78.6704 139.89 78.3473 139.663 78.2903 139.322C78.2333 138.98 78.4518 138.649 78.7939 138.592C79.0885 138.535 79.3736 138.706 79.4782 138.981C80.4285 138.981 81.1698 139.17 81.5879 139.303C81.0272 138.052 80.2955 136.715 79.3737 135.492C79.3166 135.524 79.2533 135.546 79.1836 135.559C78.851 135.615 78.5279 135.388 78.4708 135.047C78.4043 134.705 78.6324 134.383 78.9745 134.317Z" fill="#A29394"/>
<path d="M85.6981 139.93C85.5176 139.76 84.8333 139.172 83.7119 138.726C83.5789 138.944 83.3318 139.077 83.0657 139.03C82.7331 138.963 82.5145 138.632 82.5715 138.29C82.6381 137.949 82.9612 137.722 83.2938 137.788C83.5884 137.845 83.7975 138.101 83.7975 138.395C84.6908 138.745 85.318 139.181 85.6696 139.456C85.5651 138.091 85.3465 136.565 84.9093 135.086C84.846 135.099 84.7826 135.099 84.7193 135.086C84.3772 135.02 84.1586 134.698 84.2251 134.357C84.2821 134.015 84.6052 133.788 84.9474 133.845C85.28 133.911 85.4985 134.233 85.4415 134.584C85.413 134.736 85.3275 134.859 85.223 134.954C85.432 135.665 85.5936 136.376 85.7171 137.087C85.9167 136.527 86.2588 135.712 86.734 134.992C86.639 134.849 86.5914 134.669 86.6199 134.489C86.6865 134.148 87.0096 133.92 87.3422 133.987C87.6843 134.044 87.9029 134.375 87.8364 134.717C87.7793 135.058 87.4562 135.285 87.1141 135.219C87.0761 135.213 87.0381 135.203 87.0001 135.191C86.2873 136.271 85.8882 137.608 85.8312 137.816C86.0497 139.39 86.0878 140.878 86.0592 142.025C86.0022 144.092 85.7456 145.551 85.7456 145.561L85.413 145.504C85.4225 145.495 85.6696 144.054 85.7171 142.016C85.7361 141.409 85.7361 140.698 85.6981 139.93Z" fill="#A29394"/>
<path d="M191.469 31.2578C192.609 31.2578 193.578 32.0161 193.873 33.0683H189.055C189.359 32.0161 190.319 31.2578 191.469 31.2578Z" fill="#69B3E7"/>
<path d="M179.718 30.3945C181.4 30.3945 182.826 31.5226 183.263 33.0677H176.164C176.611 31.5226 178.027 30.3945 179.718 30.3945Z" fill="#69B3E7"/>
<path d="M190.73 33.0689C190.188 31.192 188.031 29.7891 185.446 29.7891C182.871 29.7891 180.714 31.192 180.172 33.0689H190.73Z" fill="#69B3E7"/>
<path d="M127.352 88.7393C128.235 88.7393 128.939 88.0283 128.939 87.1562C128.939 88.0283 129.651 88.7393 130.526 88.7393C129.651 88.7393 128.939 89.4502 128.939 90.3223C128.939 89.4502 128.235 88.7393 127.352 88.7393Z" fill="white"/>
<path d="M228.406 88.1338C229.281 88.1338 229.993 87.4323 229.993 86.5508C229.993 87.4323 230.706 88.1338 231.58 88.1338C230.706 88.1338 229.993 88.8447 229.993 89.7168C229.993 88.8447 229.281 88.1338 228.406 88.1338Z" fill="white"/>
<path d="M174.594 42.7002C175.478 42.7002 176.181 41.9893 176.181 41.1172C176.181 41.9893 176.894 42.7002 177.768 42.7002C176.894 42.7002 176.181 43.4112 176.181 44.2832C176.181 43.4112 175.478 42.7002 174.594 42.7002Z" fill="white"/>
<path d="M135.938 80.3304C137.506 80.3304 138.779 79.0602 138.779 77.4961C138.779 79.0602 140.052 80.3304 141.62 80.3304C140.052 80.3304 138.779 81.6006 138.779 83.1647C138.779 81.6006 137.506 80.3304 135.938 80.3304Z" fill="white"/>
<path d="M157.281 112.932C158.849 112.932 160.123 111.662 160.123 110.098C160.123 111.662 161.396 112.932 162.964 112.932C161.396 112.932 160.123 114.202 160.123 115.766C160.123 114.202 158.849 112.932 157.281 112.932Z" fill="white"/>
<path d="M222.9 147.282H152.195V142.922H222.9V147.282Z" fill="#383E56"/>
<path d="M222.902 143.348H163.734L173.114 103.801H232.272L222.902 143.348Z" fill="#383E56"/>
<path d="M164.867 142.449L173.819 104.703H231.134L222.182 142.449H164.867Z" fill="#D9E5EA"/>
<path d="M220.853 145.536H216.69C216.586 145.536 216.5 145.46 216.5 145.356V144.579C216.5 144.484 216.586 144.398 216.69 144.398H220.853C220.957 144.398 221.043 144.484 221.043 144.579V145.356C221.043 145.46 220.957 145.536 220.853 145.536Z" fill="#FDCCCF"/>
<path d="M223.148 108.766H179.119L178.492 111.41H222.521L223.148 108.766Z" fill="#88AEBC"/>
<path d="M178.498 111.41L172.359 137.307H216.388L222.527 111.41H178.498Z" fill="#F4F8F9"/>
<path d="M179.961 110.096C179.961 109.773 180.218 109.508 180.541 109.508C180.864 109.508 181.12 109.773 181.12 110.096C181.12 110.408 180.864 110.674 180.541 110.674C180.218 110.674 179.961 110.408 179.961 110.096Z" fill="#0A193A"/>
<path d="M182.023 110.096C182.023 109.773 182.29 109.508 182.613 109.508C182.926 109.508 183.192 109.773 183.192 110.096C183.192 110.408 182.926 110.674 182.613 110.674C182.29 110.674 182.023 110.408 182.023 110.096Z" fill="#767A89"/>
<path d="M184.094 110.096C184.094 109.773 184.35 109.508 184.673 109.508C184.997 109.508 185.253 109.773 185.253 110.096C185.253 110.408 184.997 110.674 184.673 110.674C184.35 110.674 184.094 110.408 184.094 110.096Z" fill="#BCD2D9"/>
<path d="M203.603 119.544L188.227 119.781L188.417 118.89L203.859 118.625L203.603 119.544Z" fill="#BEC0C7"/>
<path d="M198.918 115.839L189.016 116.048L189.206 115.128L199.156 114.91L198.918 115.839Z" fill="#BEC0C7"/>
<path d="M213.602 126.739L186.727 126.872L186.907 126.038L213.896 125.867L213.602 126.739Z" fill="#BEC0C7"/>
<path d="M195.265 130.136H186.047L186.218 129.33L195.474 129.32L195.265 130.136Z" fill="#BEC0C7"/>
<path d="M214.797 123.213L187.438 123.488L187.618 122.625L215.102 122.312L214.797 123.213Z" fill="#BEC0C7"/>
<path d="M75.5078 147.282H146.212V142.922H75.5078V147.282Z" fill="#383E56"/>
<path d="M75.5109 143.348H134.678L125.308 103.801H66.1406L75.5109 143.348Z" fill="#383E56"/>
<path d="M133.53 142.449L124.578 104.703H67.2734L76.216 142.449H133.53Z" fill="#D9E5EA"/>
<path d="M77.5573 145.536H81.7197C81.8242 145.536 81.9098 145.46 81.9098 145.356V144.579C81.9098 144.484 81.8242 144.398 81.7197 144.398H77.5573C77.4527 144.398 77.3672 144.484 77.3672 144.579V145.356C77.3672 145.46 77.4527 145.536 77.5573 145.536Z" fill="#FDCCCF"/>
<path d="M75.25 108.766H119.279L119.896 111.41H75.8772L75.25 108.766Z" fill="#88AEBC"/>
<path d="M119.894 111.41L126.033 137.307H82.0046L75.875 111.41H119.894Z" fill="#F4F8F9"/>
<path d="M76.9844 110.096C76.9844 110.408 77.2505 110.674 77.5641 110.674C77.8872 110.674 78.1533 110.408 78.1533 110.096C78.1533 109.773 77.8872 109.508 77.5641 109.508C77.2505 109.508 76.9844 109.773 76.9844 110.096Z" fill="#0A193A"/>
<path d="M79.0469 110.096C79.0469 110.408 79.3035 110.674 79.6266 110.674C79.9497 110.674 80.2063 110.408 80.2063 110.096C80.2063 109.773 79.9497 109.508 79.6266 109.508C79.3035 109.508 79.0469 109.773 79.0469 110.096Z" fill="#767A89"/>
<path d="M81.125 110.096C81.125 110.408 81.3816 110.674 81.7047 110.674C82.0278 110.674 82.2844 110.408 82.2844 110.096C82.2844 109.773 82.0278 109.508 81.7047 109.508C81.3816 109.508 81.125 109.773 81.125 110.096Z" fill="#BCD2D9"/>
<path d="M98.6715 125.499L83.3047 125.262L83.4948 126.153L98.9376 126.409L98.6715 125.499Z" fill="#BEC0C7"/>
<path d="M94.0057 129.197L84.0938 128.988L84.2933 129.917L94.2433 130.135L94.0057 129.197Z" fill="#BEC0C7"/>
<path d="M108.686 118.305L81.8203 118.172L81.9914 119.006L108.981 119.167L108.686 118.305Z" fill="#BEC0C7"/>
<path d="M90.351 114.91H81.1328L81.2944 115.716L90.5601 115.725L90.351 114.91Z" fill="#BEC0C7"/>
<path d="M109.882 121.83L82.5312 121.555L82.7118 122.417L110.186 122.721L109.882 121.83Z" fill="#BEC0C7"/>
<mask id="mask0_1256_43327" style="mask-type:luminance" maskUnits="userSpaceOnUse" x="133" y="43" width="99" height="101">
<path d="M228.099 104.702V82.1364L226.395 51.3043L203.17 43.5039L185.546 57.408L189.007 84.5308L178.497 99.0805L153.938 107.311L134.67 115.462L133.07 132.191L142.624 143.613L165.453 140.001L164.873 142.449H222.187L231.135 104.702H228.099Z" fill="white"/>
</mask>
<g mask="url(#mask0_1256_43327)">
<path d="M207.611 90.92C208.096 86.1709 203.42 85.7728 203.287 85.7159C201.757 85.0145 199.182 86.3795 198.612 88.0004L188.187 125.045C187.949 125.623 189.66 127.917 190.334 128.221C190.562 128.325 190.79 128.372 191.019 128.363C192.71 128.619 194.107 125.993 194.82 124.685C198.317 118.286 206.984 97.091 207.611 90.92Z" fill="#3B4761"/>
<path d="M229.059 132.855C228.575 131.538 228.09 130.258 227.615 128.997C227.301 128.163 226.987 127.348 226.721 126.552C226.123 124.732 225.514 122.949 225.058 121.12C224.84 120.257 224.602 119.376 224.412 118.561C223.946 116.541 223.452 114.503 223.101 112.522C222.949 111.66 222.74 110.75 222.616 110.001C221.78 105.062 221.076 99.896 220.791 95.0237C220.62 92.1705 220.535 89.6774 219.965 87.0991C218.263 79.3925 208.722 76.653 202.783 81.5064C202.459 81.7718 201.823 82.0751 201.5 82.4543C198.145 86.3502 197.385 88.976 197.242 95.0711C197.081 102.455 197.166 111.726 197.831 119.186C197.869 119.641 197.983 120.873 198.04 121.528C198.116 122.457 198.354 123.689 198.525 124.826C198.763 126.419 199.038 128.182 199.409 129.888C199.637 130.921 199.922 132.068 200.226 133.196C200.768 135.197 201.376 137.329 201.937 139.367C202.089 139.936 202.269 140.571 202.421 141.159C202.545 141.623 202.669 142.088 202.783 142.562C203.068 143.68 203.305 144.799 203.533 145.936C203.742 146.941 203.99 147.946 204.113 148.979C204.275 150.354 204.427 151.757 204.579 153.15C207.61 152.847 210.509 151.719 213.132 150.24C217.551 147.756 221.647 144.477 226.636 143.206C228.308 142.78 229.877 142.685 231.559 142.467C231.264 140.088 230.713 137.633 229.943 135.377C229.648 134.486 229.354 133.67 229.059 132.855Z" fill="#0A193A"/>
<path d="M214.59 95.1068C212.195 89.078 216.928 86.3764 217.023 86.2911C218.192 85.2674 220.482 86.1395 221.252 88.8315L232.846 121.81C233.311 122.369 232.675 125.137 232.161 125.592C231.99 125.744 230.004 126.682 228.674 125.563C221.784 119.762 216.937 101.022 214.59 95.1068Z" fill="#3B4761"/>
<path d="M208.317 78.9824C208.317 78.9824 203.024 80.3095 203.984 88.6891C204.943 97.0782 205.656 100.055 205.656 100.055C205.656 100.055 215.036 84.869 214.608 81.4375C214.171 77.9965 208.317 78.9824 208.317 78.9824Z" fill="white"/>
<path d="M195.432 62.3582C195.479 61.6378 196.002 60.9837 196.145 60.3012C196.297 59.5998 196.097 58.794 196.354 58.14C196.61 57.4764 197.304 57.0214 197.665 56.4053C198.026 55.7986 198.083 54.9644 198.53 54.4146C198.986 53.8649 199.784 53.6468 200.317 53.1729C200.849 52.7084 201.162 51.9311 201.761 51.5425C202.35 51.1633 203.187 51.2012 203.842 50.9168C204.489 50.6324 205.021 49.9879 205.715 49.8078C206.399 49.6277 207.178 49.9215 207.891 49.8552C208.594 49.7888 209.297 49.3433 210.02 49.3812C210.742 49.4191 211.388 49.9405 212.072 50.0921C212.775 50.2438 213.583 50.0353 214.249 50.2912C214.914 50.5566 215.37 51.2486 215.978 51.6088C216.596 51.969 217.432 52.0259 217.974 52.4714C218.525 52.9169 218.744 53.7227 219.219 54.2535C219.694 54.7843 220.473 55.0877 220.853 55.6849C221.243 56.282 221.195 57.1162 221.49 57.7703C221.775 58.4149 222.412 58.9457 222.602 59.6377C222.773 60.3202 222.478 61.0975 222.554 61.8084C222.621 62.5004 223.068 63.2113 223.03 63.9318C222.982 64.6522 222.459 65.2968 222.317 65.9793C222.165 66.6807 222.364 67.4865 222.108 68.1405C221.851 68.8136 221.148 69.2686 220.796 69.8752C220.435 70.4914 220.378 71.3161 219.931 71.8659C219.475 72.4156 218.668 72.6337 218.145 73.1076C217.613 73.5816 217.299 74.3494 216.7 74.738C216.102 75.1172 215.275 75.0793 214.619 75.3732C213.973 75.6575 213.441 76.2926 212.747 76.4727C212.063 76.6529 211.283 76.359 210.571 76.4348C209.867 76.5012 209.164 76.9467 208.442 76.8993C207.72 76.8614 207.074 76.34 206.38 76.1884C205.677 76.0367 204.869 76.2452 204.213 75.9893C203.548 75.7334 203.092 75.0319 202.483 74.6812C201.866 74.321 201.029 74.2641 200.478 73.8091C199.927 73.3636 199.708 72.5578 199.243 72.027C198.768 71.4962 197.988 71.1928 197.608 70.5956C197.219 69.9985 197.257 69.1738 196.972 68.5197C196.686 67.8656 196.04 67.3443 195.86 66.6523C195.679 65.9698 195.983 65.1925 195.907 64.4721C195.841 63.7801 195.394 63.0786 195.432 62.3582Z" fill="#2D334A"/>
<path d="M197.967 76.7836C197.967 76.7836 196.864 73.8071 198.233 71.1814C199.601 68.5557 200.523 71.5795 200.523 71.5795L197.967 76.7836Z" fill="#2D334A"/>
<path d="M216.5 70.4062C216.348 70.6906 214.219 76.0558 213.297 76.1317C212.043 76.2454 212.48 72.0841 212.48 72.0841L216.5 70.4062Z" fill="#2D334A"/>
<path d="M199.868 63.3252C199.868 63.3252 198.604 60.6047 199.669 58.6899C200.685 56.8699 202.462 54.9456 209.523 56.4149C210.531 56.6234 211.244 57.5239 211.225 58.5477L211.168 61.4578L199.868 63.3252Z" fill="#2D334A"/>
<path d="M213.188 68.7759C212.495 72.9657 211.611 76.3877 208.912 78.1319C207.971 78.7386 206.793 79.2599 205.405 79.4211C204.54 79.5348 203.599 79.4969 202.583 79.2694C199.941 78.6817 198.648 77.2598 198.145 75.2597C197.555 72.9563 198.002 69.885 198.582 66.3682C199.675 59.7802 203.495 56.9743 207.524 57.6379C211.563 58.3014 214.281 62.1879 213.188 68.7759Z" fill="#876D6D"/>
<path d="M213.648 69.1727L206.634 68.7461C206.568 69.7035 206.168 78.813 206.644 82.2255C206.938 83.2777 208.696 83.6948 210.568 83.1734C212.26 82.6995 213.457 81.6188 213.467 80.652H213.476C213.191 78.6045 213.438 72.5188 213.648 69.1727Z" fill="#876D6D"/>
<path d="M216.301 70.859C216.301 70.859 214.524 71.333 213.098 69.7594C211.236 67.693 209.554 63.2662 209.145 61.2566C208.423 57.7303 209.468 56.8203 209.468 56.8203C209.468 56.8203 216.196 57.5123 217.584 59.7873C219.656 63.1903 216.301 70.859 216.301 70.859Z" fill="#2D334A"/>
<path d="M211.349 65.2031L209.772 74.8056C209.601 75.8198 208.85 76.635 207.843 76.8815L206.693 77.1564C205.989 77.3365 205.296 76.8151 205.267 76.0947L205.182 74.1041C205.163 73.6681 204.858 73.2889 204.421 73.1846L200.116 72.1324C199.66 72.0187 199.185 72.2462 198.976 72.6727L198.13 74.4359C197.284 76.1895 198.197 78.2749 200.05 78.8532L202.625 79.6589C203.176 79.8295 203.756 79.8674 204.317 79.7632C204.361 79.7569 204.405 79.7474 204.45 79.7347L204.526 79.7253C204.526 79.7189 204.526 79.7158 204.526 79.7158L205.419 79.5072L208.318 78.7963C210.085 78.3603 211.425 76.9194 211.72 75.1278L213.307 65.5159L211.349 65.2031Z" fill="#2D334A"/>
<path d="M216.112 69.4284C215.884 70.8597 214.174 72.4522 213.138 72.2911C212.102 72.1205 212.026 70.9261 212.254 69.4947C212.482 68.0729 213.537 66.869 214.573 67.0301C215.609 67.2008 216.35 67.997 216.112 69.4284Z" fill="#876D6D"/>
<path d="M209.801 59.8374L205.544 59.1738C204.118 58.9558 202.655 59.2496 201.429 60.0175L199.766 61.0602L202.379 57.3917L206.009 56.6523L210.305 57.6477L209.801 59.8374Z" fill="#2D334A"/>
<path d="M212.648 155.793C214.483 146.427 222.142 126.834 225.421 121.753C228.148 117.535 230.676 119.241 230.8 119.279C232.282 119.715 233.47 122.36 232.805 124.066L217.989 158.258L212.648 155.793Z" fill="#3B4761"/>
<path d="M164.226 125.488L165.006 129.754L155.35 130.541L154.742 125.981L164.226 125.488Z" fill="#876D6D"/>
<path d="M150.435 127.063C152.744 126.656 155.12 126.02 155.225 126.087L157.135 130.049C156.935 130.656 156.802 131.073 152.868 133.035L151.414 133.746L149.931 132.533C149.703 132.343 149.494 132.131 149.304 131.898L149.066 131.594C148.572 130.969 148.278 130.21 148.24 129.414L148.211 128.921C148.183 128.637 150.635 127.167 150.435 127.063Z" fill="#876D6D"/>
<path d="M145.634 129.897L149.815 127.963C150.148 127.802 150.538 127.954 150.69 128.276C150.842 128.608 150.699 129.006 150.367 129.158L146.185 131.092C145.862 131.243 145.463 131.101 145.311 130.769C145.159 130.437 145.301 130.049 145.634 129.897Z" fill="#876D6D"/>
<path d="M143.109 130.873L145.817 129.868C146.131 129.755 146.492 129.916 146.606 130.238C146.729 130.551 146.568 130.911 146.245 131.025L143.546 132.03C143.223 132.153 142.871 131.982 142.748 131.669C142.633 131.347 142.795 130.996 143.109 130.873Z" fill="#876D6D"/>
<path d="M141.652 131.251L142.973 130.929C143.391 130.853 143.79 131.08 143.837 131.422C143.875 131.753 143.581 132.057 143.182 132.114L141.49 132.341C141.224 132.37 140.996 132.218 140.986 132.009C140.958 131.668 141.243 131.346 141.652 131.251Z" fill="#876D6D"/>
<path d="M141.833 133.517L143.125 133.1C143.543 132.986 143.952 133.213 144.028 133.583C144.104 133.934 143.838 134.285 143.429 134.37L141.766 134.702C141.5 134.759 141.262 134.607 141.224 134.379C141.177 134.01 141.433 133.65 141.833 133.517Z" fill="#876D6D"/>
<path d="M145.381 132.134L148.945 130.181C149.268 130.001 149.667 130.124 149.848 130.446C150.028 130.769 149.905 131.167 149.582 131.347L146.028 133.299C145.704 133.48 145.296 133.356 145.125 133.034C144.944 132.721 145.058 132.314 145.381 132.134Z" fill="#876D6D"/>
<path d="M143.267 133.034L145.548 132.105C145.88 131.972 146.26 132.134 146.393 132.465C146.526 132.797 146.374 133.176 146.042 133.309L143.761 134.238C143.428 134.38 143.048 134.219 142.915 133.887C142.782 133.555 142.934 133.176 143.267 133.034Z" fill="#876D6D"/>
<path d="M144.084 134.968L145.206 134.399C145.567 134.238 145.956 134.38 146.061 134.702C146.165 135.005 145.966 135.366 145.614 135.498L144.151 136.039C143.923 136.124 143.695 136.029 143.638 135.821C143.552 135.498 143.742 135.138 144.084 134.968Z" fill="#876D6D"/>
<path d="M146.892 133.471L149.705 131.661C150.037 131.443 150.446 131.5 150.626 131.775C150.798 132.049 150.674 132.448 150.341 132.666L147.538 134.467C147.205 134.685 146.797 134.628 146.616 134.353C146.445 134.078 146.569 133.68 146.892 133.471Z" fill="#876D6D"/>
<path d="M145.223 134.4L146.687 133.613C147.038 133.424 147.437 133.509 147.58 133.793C147.722 134.078 147.561 134.466 147.219 134.646L145.746 135.433C145.404 135.623 145.004 135.537 144.862 135.253C144.71 134.969 144.871 134.58 145.223 134.4Z" fill="#876D6D"/>
<path d="M146.935 135.479L147.999 134.938C148.332 134.777 148.721 134.9 148.835 135.204C148.949 135.488 148.769 135.82 148.436 135.953L147.039 136.483C146.821 136.569 146.593 136.483 146.526 136.294C146.431 135.99 146.602 135.649 146.935 135.479Z" fill="#876D6D"/>
<path d="M149.363 133.954L151.957 131.878C152.204 131.679 152.575 131.716 152.775 131.963C152.974 132.219 152.936 132.579 152.679 132.778L150.085 134.854C149.838 135.053 149.467 135.015 149.268 134.769C149.068 134.522 149.106 134.153 149.363 133.954Z" fill="#876D6D"/>
<path d="M147.876 134.978L149.339 133.992C149.596 133.812 149.957 133.878 150.138 134.143C150.318 134.409 150.252 134.769 149.986 134.94L148.532 135.935C148.266 136.106 147.904 136.039 147.724 135.783C147.543 135.518 147.619 135.158 147.876 134.978Z" fill="#876D6D"/>
<path d="M141.294 124.884C141.256 125.907 141.408 126.76 142.644 127.718C143.622 128.476 144.497 128.78 145.295 128.694C146.122 128.609 146.93 128.144 147.091 127.329C147.129 127.13 147.205 126.95 147.329 126.884C147.329 126.884 147.332 126.884 147.338 126.884C148.013 126.552 148.108 127.064 149.762 126.429C151.406 125.794 151.111 124.732 150.978 124.495C150.854 124.248 150.151 124.741 149.79 124.912C149.429 125.092 148.298 124.912 147.728 124.988C147.395 125.035 146.616 124.903 146.027 124.77C145.469 124.656 144.905 124.587 144.335 124.561C143.508 124.514 142.796 124.286 142.083 124.448C141.864 124.504 141.494 124.798 141.294 124.884Z" fill="#EBC2AB"/>
<path d="M132.351 123.887L131.258 128.086L140.828 129.603L141.778 125.091L132.351 123.887Z" fill="#EBC2AB"/>
<path d="M146.003 126.03C143.703 125.623 141.327 124.997 141.223 125.063L139.312 129.016C139.512 129.623 139.645 130.04 143.579 132.002L145.033 132.713L146.516 131.5C146.75 131.31 146.959 131.099 147.143 130.865L147.381 130.561C147.875 129.936 148.17 129.177 148.208 128.381L148.236 127.888C148.265 127.604 145.813 126.135 146.003 126.03Z" fill="#EBC2AB"/>
<path d="M150.824 128.852L146.643 126.928C146.31 126.776 145.92 126.918 145.768 127.25C145.607 127.572 145.759 127.971 146.082 128.122L150.273 130.056C150.596 130.208 150.995 130.065 151.147 129.734C151.299 129.402 151.157 129.013 150.824 128.852Z" fill="#EBC2AB"/>
<path d="M154.777 130.742L153.523 130.202C153.123 130.06 152.696 130.211 152.591 130.543C152.496 130.856 152.734 131.207 153.123 131.33L154.748 131.842C154.996 131.918 155.252 131.813 155.3 131.605C155.385 131.273 155.157 130.903 154.777 130.742Z" fill="#EBC2AB"/>
<path d="M154.676 132.533L153.374 132.116C152.956 132.012 152.547 132.23 152.471 132.609C152.405 132.96 152.671 133.31 153.07 133.396L154.742 133.727C154.999 133.775 155.246 133.633 155.275 133.396C155.322 133.026 155.075 132.666 154.676 132.533Z" fill="#EBC2AB"/>
<path d="M151.112 131.157L147.549 129.204C147.226 129.024 146.826 129.147 146.646 129.47C146.465 129.792 146.589 130.19 146.912 130.37L150.466 132.323C150.789 132.494 151.198 132.38 151.379 132.058C151.55 131.735 151.436 131.337 151.112 131.157Z" fill="#EBC2AB"/>
<path d="M153.236 132.059L150.964 131.13C150.622 130.997 150.242 131.149 150.109 131.49C149.976 131.822 150.138 132.201 150.47 132.334L152.742 133.263C153.074 133.395 153.454 133.234 153.587 132.902C153.73 132.571 153.568 132.191 153.236 132.059Z" fill="#EBC2AB"/>
<path d="M152.372 134.314L151.279 133.689C150.937 133.518 150.537 133.632 150.414 133.945C150.29 134.248 150.471 134.618 150.813 134.769L152.248 135.385C152.467 135.49 152.704 135.404 152.771 135.205C152.875 134.883 152.704 134.513 152.372 134.314Z" fill="#EBC2AB"/>
<path d="M149.632 132.665L146.923 130.712C146.61 130.484 146.191 130.513 146.001 130.778C145.811 131.044 145.916 131.442 146.229 131.679L148.938 133.632C149.251 133.869 149.67 133.84 149.86 133.565C150.05 133.3 149.945 132.902 149.632 132.665Z" fill="#EBC2AB"/>
<path d="M151.254 133.688L149.829 132.826C149.496 132.617 149.097 132.683 148.936 132.958C148.774 133.233 148.907 133.622 149.249 133.83L150.665 134.693C151.007 134.902 151.406 134.835 151.568 134.56C151.729 134.285 151.587 133.897 151.254 133.688Z" fill="#EBC2AB"/>
<path d="M149.159 134.701L148.161 134.046C147.838 133.866 147.439 133.942 147.296 134.227C147.153 134.501 147.305 134.852 147.619 135.013L148.959 135.686C149.168 135.8 149.406 135.734 149.482 135.554C149.605 135.26 149.472 134.9 149.159 134.701Z" fill="#EBC2AB"/>
<path d="M146.897 132.941L144.521 130.619C144.293 130.391 143.922 130.391 143.694 130.628C143.475 130.856 143.475 131.216 143.704 131.443L146.079 133.766C146.307 133.993 146.678 133.993 146.906 133.766C147.125 133.529 147.125 133.169 146.897 132.941Z" fill="#EBC2AB"/>
<path d="M148.264 134.107L146.905 132.979C146.668 132.78 146.297 132.808 146.097 133.055C145.888 133.301 145.926 133.662 146.164 133.861L147.523 134.989C147.761 135.197 148.131 135.159 148.331 134.922C148.54 134.676 148.502 134.316 148.264 134.107Z" fill="#EBC2AB"/>
<path d="M155.151 125.915C155.198 126.929 155.046 127.792 153.811 128.749C152.822 129.508 151.958 129.811 151.159 129.726C150.333 129.64 149.525 129.176 149.363 128.361C149.325 128.162 149.249 127.981 149.126 127.915C149.119 127.915 149.116 127.915 149.116 127.915C148.441 127.583 148.346 128.095 146.693 127.46C145.049 126.825 145.343 125.763 145.476 125.526C145.6 125.28 146.303 125.773 146.664 125.943C147.025 126.124 148.156 125.943 148.726 126.019C149.059 126.067 149.838 125.924 150.428 125.801C150.985 125.687 151.549 125.615 152.119 125.583C152.946 125.545 153.659 125.318 154.362 125.479C154.59 125.526 154.951 125.82 155.151 125.915Z" fill="#876D6D"/>
<path d="M153.374 130.133L149.24 128.143C148.898 127.982 148.489 128.114 148.346 128.437C148.194 128.759 148.356 129.148 148.698 129.309L152.784 131.195C153.136 131.356 153.535 131.224 153.687 130.901C153.83 130.579 153.716 130.295 153.374 130.133Z" fill="#EBC2AB"/>
<path d="M157.542 130.569C167.064 131.422 184.664 130.247 190.471 128.522C195.289 127.09 194.348 124.199 194.348 124.066C194.348 122.521 192.134 120.654 190.3 120.806L157.219 125.763L157.542 130.569Z" fill="#3B4761"/>
</g>
<mask id="mask1_1256_43327" style="mask-type:luminance" maskUnits="userSpaceOnUse" x="45" y="47" width="104" height="96">
<path d="M147.98 79.821C146.503 78.1223 130.277 59.4578 129.393 59.4644C128.509 59.4711 77.5544 47.1367 77.5544 47.1367L47.6846 61.8873L45.4219 92.3677L69.9309 115.958L76.2107 142.45H133.524L132.738 139.131L148.848 120.515C148.848 120.515 149.459 81.5187 147.98 79.821Z" fill="white"/>
</mask>
<g mask="url(#mask1_1256_43327)">
<path d="M115.24 88.6233C116.105 88.5759 117.198 88.4906 117.911 87.3816C118.481 86.5 118.671 85.7417 118.538 85.0781C118.405 84.3956 117.806 83.6373 116.875 83.5804C116.704 83.5615 116.542 83.5046 116.476 83.4098C116.476 83.4035 116.476 83.4003 116.476 83.4003C116.153 82.86 116.571 82.7368 115.915 81.4002C115.259 80.0636 114.385 80.3954 114.185 80.5186C113.995 80.6419 114.461 81.1916 114.642 81.4855C114.813 81.7794 114.746 82.7462 114.851 83.2107C114.917 83.4856 114.86 84.1586 114.794 84.661C114.737 85.135 114.718 85.6121 114.737 86.0924C114.765 86.7939 114.623 87.41 114.813 87.9882C114.879 88.1778 115.155 88.4622 115.24 88.6233Z" fill="#F5CCB5"/>
<path d="M113.297 94.8422L116.699 96.2261L119.056 88.4058L115.378 87.0977L113.297 94.8422Z" fill="#F5CCB5"/>
<path d="M116.967 83.5527C116.501 85.4769 115.846 87.4391 115.893 87.5339L118.63 89.335C119.143 89.1928 118.915 89.4203 120.673 86.3775C120.737 86.27 120.803 86.1626 120.873 86.0552L121.795 84.7376C121.795 84.7376 121.871 82.7849 120.132 82.3962L119.723 82.3488C119.476 82.3014 117.052 83.7233 116.967 83.5527Z" fill="#F5CCB5"/>
<path d="M118.623 79.0396L119.183 83.1252C119.25 83.419 119.858 83.3148 120.153 83.2484C120.457 83.1821 120.647 82.8787 120.58 82.5754L119.716 78.7932C119.649 78.4898 119.345 78.3003 119.041 78.3761C118.746 78.4425 118.556 78.7363 118.623 79.0396Z" fill="#F5CCB5"/>
<path d="M123.358 76.662L122.93 77.7331C122.826 78.0744 122.987 78.4346 123.301 78.5104C123.595 78.5957 123.909 78.3872 123.995 78.0554L124.365 76.662C124.422 76.4535 124.308 76.2354 124.118 76.1975C123.804 76.1406 123.481 76.3302 123.358 76.662Z" fill="#F5CCB5"/>
<path d="M122.014 79.5807L119.875 82.4529C119.714 82.7088 120.084 83.0785 120.35 83.2491C120.607 83.4103 120.959 83.3344 121.12 83.069L122.964 80.1779C123.125 79.9124 123.049 79.5712 122.783 79.4006C122.527 79.2394 122.175 79.3152 122.014 79.5807Z" fill="#F5CCB5"/>
<path d="M122.88 77.8465L121.977 79.7139C121.844 79.9888 121.958 80.3206 122.234 80.4438C122.51 80.5765 122.842 80.4627 122.975 80.1878L123.878 78.3299C124.002 78.055 123.888 77.7233 123.621 77.5905C123.346 77.4578 123.013 77.5716 122.88 77.8465Z" fill="#F5CCB5"/>
<path d="M124.931 78.3867L124.257 79.3062C124.067 79.6 124.133 79.9697 124.409 80.1119C124.665 80.2446 125.017 80.1119 125.188 79.8181L125.882 78.5952C125.996 78.4056 125.939 78.1876 125.768 78.1118C125.483 77.9886 125.131 78.1023 124.931 78.3867Z" fill="#F5CCB5"/>
<path d="M123.175 80.6798L120.904 82.7842C120.666 83.0496 120.904 83.552 121.122 83.7511C121.341 83.9501 121.721 83.8932 121.958 83.6373L123.983 81.3907C124.22 81.1253 124.23 80.7556 124.011 80.5566C123.783 80.3575 123.412 80.4144 123.175 80.6798Z" fill="#F5CCB5"/>
<path d="M124.258 79.3257L123.336 80.52C123.127 80.7949 123.137 81.1646 123.374 81.3353C123.612 81.5059 123.973 81.4206 124.192 81.1362L125.114 79.9418C125.323 79.6669 125.313 79.2972 125.076 79.1266C124.838 78.956 124.477 79.0413 124.258 79.3257Z" fill="#F5CCB5"/>
<path d="M125.505 81.3622L124.631 81.8741C124.365 82.0447 124.28 82.3765 124.441 82.5945C124.593 82.8031 124.916 82.822 125.163 82.6419L126.171 81.8836C126.332 81.7698 126.37 81.5708 126.266 81.4381C126.095 81.239 125.772 81.2011 125.505 81.3622Z" fill="#F5CCB5"/>
<path d="M123.365 82.8314L120.904 84.2343C120.676 84.386 120.714 84.8221 120.866 85.0496C121.018 85.2771 121.322 85.3434 121.55 85.1917L123.897 83.6561C124.125 83.5045 124.192 83.2011 124.04 82.9736C123.888 82.7461 123.584 82.6892 123.365 82.8314Z" fill="#F5CCB5"/>
<path d="M124.567 81.924L123.389 82.834C123.18 82.9952 123.142 83.2985 123.303 83.5165C123.474 83.7251 123.778 83.763 123.987 83.6018L125.166 82.6918C125.375 82.5307 125.422 82.2179 125.251 82.0093C125.09 81.8008 124.786 81.7629 124.567 81.924Z" fill="#F5CCB5"/>
<path d="M116.523 79.3904L119.127 79.3998C119.412 79.3998 119.649 79.1723 119.649 78.8785C119.649 78.5941 119.421 78.3571 119.127 78.3571L116.532 78.3477C116.238 78.3477 116 78.5752 116 78.869C116 79.1534 116.238 79.3904 116.523 79.3904Z" fill="#F5CCB5"/>
<path d="M115.74 80.1118L116.634 79.3914C116.909 79.1449 116.957 78.7658 116.748 78.5572C116.548 78.3677 116.196 78.3961 115.949 78.6425L114.933 79.6568C114.771 79.8085 114.752 80.0455 114.885 80.1687C115.104 80.3583 115.465 80.3298 115.74 80.1118Z" fill="#F5CCB5"/>
<path d="M119.093 81.7539L118.086 83.6213L119.511 83.8962L120.034 82.152L119.093 81.7539Z" fill="#F5CCB5"/>
<path d="M89.7377 90.5875C88.9774 86.3408 92.9308 85.9048 93.0448 85.8574C94.2897 85.2033 96.5895 86.3788 97.1977 87.8196L108.782 120.817C109.02 121.319 108.098 121.784 107.547 122.068C107.366 122.163 107.167 122.21 106.977 122.21C105.561 122.466 103.926 121.679 103.109 120.599C98.8038 115.006 90.726 96.0949 89.7377 90.5875Z" fill="#0A193A"/>
<path d="M88.5958 64.0186C82.4282 62.1512 73.0579 67.3742 73.6281 74.4267C73.6851 75.0903 73.8087 75.7633 73.6661 76.4079C73.4381 77.4222 72.5923 78.1521 71.737 78.7208C69.8173 79.991 67.5935 80.8536 65.9685 82.503C63.3836 85.1287 62.9749 89.7356 65.1797 92.8069C67.2324 95.6412 70.4445 99.357 77.2204 97.3853C80.5085 96.428 83.3785 94.2762 85.1746 91.3566C85.6213 90.6267 86.0204 89.8589 86.6381 89.2712C87.788 88.1811 89.4701 87.9156 90.8481 87.1383C92.131 86.4084 91.903 83.4699 92.4066 82.067C93.0529 80.2564 91.2948 78.6829 91.7319 76.806C92.2546 74.6068 93.6421 72.6257 93.6706 70.3602C93.7086 67.469 91.3518 64.8527 88.5958 64.0186Z" fill="#2D334A"/>
<path d="M69.2005 156.707C68.4688 156.622 72.7262 140.242 75.3111 131.17C79.0459 112.885 78.5233 104.913 80.3289 94.5139C81.8589 85.6413 86.525 78.1812 96.0473 82.7312C98.5182 83.9161 102.006 92.3716 103.441 97.8506C104.933 103.548 102.396 103.803 100.134 116.705C99.5446 120.041 96.1329 137.312 99.6491 149.086C100.143 150.754 98.5562 158.062 100.276 159.219C99.0409 160.404 97.3113 161.304 95.9333 161.371C86.468 161.845 78.8749 157.844 69.2005 156.707Z" fill="#0A193A"/>
<path d="M90.8414 79.3088C90.8414 79.3088 83.5334 77.4414 82.3074 70.4173C80.6444 60.976 89.8435 55.3927 95.365 58.028C100.459 60.4546 100.022 64.6444 99.5559 65.7156C99.0902 66.7773 90.8414 79.3088 90.8414 79.3088Z" fill="#2D334A"/>
<path d="M88.3874 71.6122C90.2405 77.4799 95.838 80.9587 99.4397 79.8212C103.041 78.6932 103.27 73.3943 101.416 67.5172C99.5633 61.6401 95.7049 59.5737 92.1032 60.7017C88.5109 61.8297 86.5343 65.7351 88.3874 71.6122Z" fill="#F5CCB5"/>
<path d="M99.7592 63.8668C99.7592 63.8668 92.7648 62.189 91.5103 59.9708C90.2464 57.7432 93.7341 57.6484 93.7341 57.6484C93.7341 57.6484 98.3717 58.7859 99.7592 63.8668Z" fill="#2D334A"/>
<path d="M87.8691 60.8802C87.8691 60.8802 90.9482 58.5293 88.8955 55.6666C86.8523 52.7944 83.2696 53.8656 82.4333 56.0742C81.5114 58.5293 82.7469 60.065 83.7732 60.7854C84.7996 61.4963 86.6432 61.6006 87.8691 60.8802Z" fill="#2D334A"/>
<path d="M113.821 90.5039C110.171 97.6417 105.695 114.439 105.22 119.491C104.83 123.681 107.387 123.861 107.491 123.899C108.698 124.373 110.856 123.236 111.302 121.766L118.572 91.8499L113.821 90.5039Z" fill="#3B4761"/>
<path d="M82.9907 92.9473C81.6602 88.3878 85.9367 87.4494 86.0508 87.3735C87.3432 86.5204 90.0041 87.5347 90.8309 89.0514L107.405 123.812C107.728 124.342 106.777 124.949 106.207 125.328C106.017 125.461 105.808 125.527 105.599 125.556C104.079 125.992 102.197 125.328 101.171 124.248C95.8011 118.626 84.7298 98.8623 82.9907 92.9473Z" fill="#3B4761"/>
<path d="M138.754 124.362C130.42 121.395 111.404 118.902 105.797 119.101C101.159 119.272 101.321 122.077 101.292 122.201C100.941 123.575 102.49 125.765 104.162 126.049L137.956 129.727L138.754 124.362Z" fill="#3B4761"/>
<path d="M88.5288 82.2276C88.5288 82.2276 86.7992 82.5973 87.664 84.4078C88.5288 86.2089 97.3954 92.0101 98.4027 93.5552C98.4027 93.5552 97.1388 84.4173 94.7155 82.9291C92.2921 81.4503 88.5288 82.2276 88.5288 82.2276Z" fill="white"/>
<path d="M87.5703 70.0481L95.2585 69.5078C95.325 70.56 95.8667 80.5416 95.3725 84.2859C95.0589 85.4329 93.1392 85.9163 91.077 85.357C89.2239 84.8546 87.9029 83.6887 87.8744 82.627L87.8649 82.6175C88.1595 80.371 87.8269 73.7166 87.5703 70.0481Z" fill="#F5CCB5"/>
<path d="M96.489 59.5626C96.489 59.5626 95.8807 67.7811 88.7058 71.3547C85.009 73.1937 83.0703 67.2692 83.0703 67.2692L86.2349 61.0888C86.2349 61.0888 89.0669 58.2924 91.4617 58.2734C91.6708 58.2734 96.489 59.5626 96.489 59.5626Z" fill="#2D334A"/>
<path d="M85.6707 74.1498C86.431 75.4769 88.7308 76.4248 89.6906 75.875C90.66 75.3252 90.2798 74.1119 89.5196 72.7848C88.7593 71.4577 87.2673 70.6615 86.3075 71.2113C85.3381 71.7611 84.9105 72.8227 85.6707 74.1498Z" fill="#F5CCB5"/>
</g>
<path d="M248.998 139.957C254.31 139.957 258.796 143.512 260.183 148.375H237.812C239.2 143.512 243.686 139.957 248.998 139.957Z" fill="#9A898B"/>
<path d="M262.093 142.562C265.762 142.562 268.85 145.018 269.81 148.373H254.367C255.327 145.018 258.425 142.562 262.093 142.562Z" fill="#9A898B"/>
<path d="M245.453 148.375C243.951 143.18 237.993 139.312 230.875 139.312C223.757 139.312 217.798 143.18 216.297 148.375H245.453Z" fill="#9A898B"/>
<path d="M257.11 146.582C259.552 146.582 261.605 148.222 262.242 150.45H251.969C252.605 148.222 254.668 146.582 257.11 146.582Z" fill="#3B4761"/>
<path d="M263.117 147.785C264.799 147.785 266.215 148.913 266.661 150.449H259.562C260.009 148.913 261.425 147.785 263.117 147.785Z" fill="#3B4761"/>
<path d="M255.468 150.45C254.784 148.071 252.047 146.289 248.778 146.289C245.509 146.289 242.772 148.071 242.078 150.45H255.468Z" fill="#3B4761"/>
</svg>
