<svg width="300" height="194" viewBox="0 0 300 194" fill="none" xmlns="http://www.w3.org/2000/svg">
<path d="M227.946 50.7414C221.142 50.7414 214.565 51.687 208.322 53.4636C192.29 32.6986 167.22 19.3359 139.043 19.3359C97.2472 19.3359 62.2941 48.7261 53.5035 88.0594C52.3536 87.8206 51.1657 87.6869 49.9398 87.6869C40.3985 87.6869 32.6723 95.4618 32.6723 105.052C32.6723 106.236 32.7864 107.401 33.0144 108.528C14.0364 113.428 0 130.745 0 151.358C0 159.648 2.27129 167.395 6.21516 174.023H279.235C292.074 160.947 300 142.981 300 123.161C300 83.169 267.736 50.7414 227.946 50.7414Z" fill="#D1E7F8"/>
<mask id="mask0_1256_43568" style="mask-type:luminance" maskUnits="userSpaceOnUse" x="0" y="19" width="300" height="156">
<path d="M227.942 50.7425C221.14 50.7425 214.56 51.691 208.322 53.459C192.282 32.7015 167.213 19.3398 139.037 19.3398C97.2444 19.3398 62.2874 48.7281 53.4959 88.0623C52.347 87.8207 51.1572 87.6917 49.937 87.6917C40.3985 87.6917 32.6666 95.4629 32.6666 105.05C32.6666 106.241 32.7864 107.403 33.0135 108.527C14.0288 113.43 0 130.749 0 151.36C0 159.645 2.26653 167.396 6.20945 174.023H279.232C292.069 160.945 299.995 142.985 299.995 123.161C299.995 83.1652 267.736 50.7425 227.942 50.7425Z" fill="white"/>
</mask>
<g mask="url(#mask0_1256_43568)">
<path d="M133.204 62.156H106.852V17.7891H133.204V62.156Z" fill="#BBCBED"/>
<path d="M163.578 62.156H137.234V17.7891H163.578V62.156Z" fill="#BBCBED"/>
<path d="M193.962 62.156H167.609V17.7891H193.962V62.156Z" fill="#BBCBED"/>
<path d="M133.204 110.437H106.852V66.0703H133.204V110.437Z" fill="#BBCBED"/>
<path d="M163.578 110.437H137.234V66.0703H163.578V110.437Z" fill="#BBCBED"/>
<path d="M193.962 110.437H167.609V66.0703H193.962V110.437Z" fill="#BBCBED"/>
</g>
<path d="M5.27433 130.355C1.91966 136.602 0 143.756 0 151.359C0 159.65 2.27129 167.396 6.21516 174.025H279.235C290.506 162.554 297.985 147.309 299.648 130.355H5.27433Z" fill="#D1E7F8"/>
<path d="M201.266 122.332C206.711 122.332 211.301 126 212.727 131.014H189.805C191.23 126 195.82 122.332 201.266 122.332Z" fill="#F1EDE4"/>
<path d="M145.417 118.223C153.438 118.223 160.204 123.619 162.295 131.012H128.539C130.639 123.619 137.396 118.223 145.417 118.223Z" fill="#F1EDE4"/>
<path d="M197.8 131.013C195.215 122.006 184.961 115.281 172.701 115.281C160.442 115.281 150.179 122.006 147.594 131.013H197.8Z" fill="#F1EDE4"/>
<path d="M229.696 157.354H70.4017C67.4556 157.354 65.0703 154.956 65.0703 151.995C65.0703 149.034 67.4556 146.637 70.4017 146.637H229.696C232.642 146.637 235.027 149.034 235.027 151.995C235.027 154.956 232.642 157.354 229.696 157.354Z" fill="#16357A"/>
<path d="M251.856 62.3828C254.982 62.3828 257.615 64.4842 258.432 67.3592H245.289C246.097 64.4842 248.739 62.3828 251.856 62.3828Z" fill="#2357C6"/>
<path d="M219.817 60.0234C224.416 60.0234 228.294 63.1277 229.501 67.359H210.133C211.34 63.1277 215.217 60.0234 219.817 60.0234Z" fill="#2357C6"/>
<path d="M249.867 67.3604C248.384 62.2026 242.502 58.3438 235.47 58.3438C228.437 58.3438 222.555 62.2026 221.062 67.3604H249.867Z" fill="#2357C6"/>
<path d="M82.7522 25.2109C84.0921 25.2109 85.223 26.1183 85.5746 27.3505H79.9297C80.2813 26.1183 81.4122 25.2109 82.7522 25.2109Z" fill="white"/>
<path d="M68.9828 24.1953C70.9594 24.1953 72.6225 25.5325 73.1357 27.3473H64.8203C65.343 25.5325 67.0061 24.1953 68.9828 24.1953Z" fill="white"/>
<path d="M81.8889 27.3488C81.2522 25.1329 78.7243 23.4805 75.7023 23.4805C72.6802 23.4805 70.1523 25.1329 69.5156 27.3488H81.8889Z" fill="white"/>
<path d="M229.76 42.2305C230.501 42.2305 231.119 42.7271 231.309 43.4053H228.211C228.401 42.7271 229.019 42.2305 229.76 42.2305Z" fill="white"/>
<path d="M222.195 41.6758C223.278 41.6758 224.2 42.4017 224.485 43.4046H219.914C220.199 42.4017 221.111 41.6758 222.195 41.6758Z" fill="white"/>
<path d="M229.297 43.4034C228.945 42.1808 227.557 41.2734 225.894 41.2734C224.231 41.2734 222.844 42.1808 222.492 43.4034H229.297Z" fill="white"/>
<path d="M272.915 84.668C274.607 84.668 276.032 85.8046 276.479 87.3711H269.352C269.789 85.8046 271.224 84.668 272.915 84.668Z" fill="#FFF8ED"/>
<path d="M255.543 83.3867C258.042 83.3867 260.142 85.0678 260.798 87.3697H250.297C250.953 85.0678 253.053 83.3867 255.543 83.3867Z" fill="#FFF8ED"/>
<path d="M271.823 87.3709C271.025 84.5723 267.832 82.4805 264.021 82.4805C260.21 82.4805 257.017 84.5723 256.219 87.3709H271.823Z" fill="#FFF8ED"/>
<path d="M120.885 35.3984C122.396 35.3984 123.67 36.4109 124.069 37.8054H117.711C118.11 36.4109 119.384 35.3984 120.885 35.3984Z" fill="#183B87"/>
<path d="M105.404 34.2539C107.628 34.2539 109.5 35.7535 110.079 37.8071H100.719C101.308 35.7535 103.18 34.2539 105.404 34.2539Z" fill="#183B87"/>
<path d="M119.922 37.8065C119.21 35.304 116.368 33.4414 112.966 33.4414C109.564 33.4414 106.722 35.304 106 37.8065H119.922Z" fill="#183B87"/>
<path d="M87.6568 48.9805C92.7886 48.9805 97.1221 52.4477 98.4621 57.1757H76.8516C78.1915 52.4477 82.525 48.9805 87.6568 48.9805Z" fill="white"/>
<path d="M34.9744 45.1133C42.539 45.1133 48.9157 50.2043 50.8924 57.1769H19.0469C21.0236 50.2043 27.4098 45.1133 34.9744 45.1133Z" fill="white"/>
<path d="M84.3957 57.1773C81.9533 48.686 72.279 42.3438 60.7135 42.3438C49.148 42.3438 39.4641 48.686 37.0312 57.1773H84.3957Z" fill="white"/>
<path d="M74.6626 56.0352C77.143 56.0352 79.2337 57.7067 79.8894 59.9895H69.4453C70.0915 57.7067 72.1823 56.0352 74.6626 56.0352Z" fill="#2357C6"/>
<path d="M49.2116 54.1602C52.8704 54.1602 55.9494 56.6245 56.9093 59.9866H41.5234C42.4738 56.6245 45.5623 54.1602 49.2116 54.1602Z" fill="#2357C6"/>
<path d="M73.0871 59.9879C71.9086 55.8807 67.233 52.8242 61.6451 52.8242C56.0572 52.8242 51.3815 55.8807 50.2031 59.9879H73.0871Z" fill="#2357C6"/>
<path d="M215.733 128.914C217.272 128.914 218.565 129.955 218.973 131.369H212.492C212.891 129.955 214.193 128.914 215.733 128.914Z" fill="#9CBCC7"/>
<path d="M199.943 127.758C202.214 127.758 204.124 129.286 204.713 131.368H195.172C195.761 129.286 197.681 127.758 199.943 127.758Z" fill="#9CBCC7"/>
<path d="M214.753 131.367C214.021 128.827 211.113 126.926 207.654 126.926C204.185 126.926 201.286 128.827 200.555 131.367H214.753Z" fill="#9CBCC7"/>
<path d="M246.95 143.599C247.416 145.213 248.965 146.187 248.965 146.187C248.965 146.187 249.744 144.535 249.269 142.911C248.804 141.297 247.255 140.332 247.255 140.332C247.255 140.332 246.475 141.984 246.95 143.599Z" fill="#8E95A4"/>
<path d="M242.721 149.905C243.453 151.414 245.135 152.112 245.135 152.112C245.135 152.112 245.629 150.354 244.897 148.835C244.166 147.326 242.483 146.629 242.483 146.629C242.483 146.629 241.989 148.386 242.721 149.905Z" fill="#8E95A4"/>
<path d="M254.107 139.769C252.815 140.849 252.539 142.654 252.539 142.654C252.539 142.654 254.364 142.721 255.656 141.651C256.939 140.572 257.215 138.766 257.215 138.766C257.215 138.766 255.4 138.7 254.107 139.769Z" fill="#8E95A4"/>
<path d="M252.044 145.364C250.371 145.183 248.898 146.253 248.898 146.253C248.898 146.253 250.124 147.609 251.787 147.781C253.451 147.963 254.933 146.893 254.933 146.893C254.933 146.893 253.707 145.536 252.044 145.364Z" fill="#8E95A4"/>
<path d="M248.302 151.185C246.639 151.003 245.156 152.073 245.156 152.073C245.156 152.073 246.382 153.429 248.045 153.601C249.718 153.783 251.191 152.713 251.191 152.713C251.191 152.713 249.965 151.357 248.302 151.185Z" fill="#8E95A4"/>
<path d="M240.5 164.948L240.842 164.995C240.842 164.957 241.479 161.012 243.37 156.227C244.482 153.419 245.803 150.869 247.285 148.653C249.148 145.892 251.277 143.648 253.624 141.986L253.424 141.699C251.049 143.399 248.882 145.673 247 148.471C245.499 150.706 244.168 153.276 243.047 156.103C241.146 160.927 240.51 164.91 240.5 164.948Z" fill="#8E95A4"/>
<path d="M257.145 150.726C257.022 152.035 257.867 153.181 257.867 153.181C257.867 153.181 258.903 152.216 259.027 150.908C259.15 149.599 258.314 148.453 258.314 148.453C258.314 148.453 257.269 149.418 257.145 150.726Z" fill="#8E95A4"/>
<path d="M252.273 154.061C252.368 155.369 253.385 156.363 253.385 156.363C253.385 156.363 254.25 155.235 254.155 153.927C254.06 152.618 253.043 151.625 253.043 151.625C253.043 151.625 252.178 152.752 252.273 154.061Z" fill="#8E95A4"/>
<path d="M263.436 150.028C262.191 150.438 261.469 151.661 261.469 151.661C261.469 151.661 262.771 152.244 264.006 151.842C265.251 151.432 265.973 150.209 265.973 150.209C265.973 150.209 264.671 149.627 263.436 150.028Z" fill="#8E95A4"/>
<path d="M260.317 153.477C259.167 152.866 257.789 153.21 257.789 153.21C257.789 153.21 258.283 154.547 259.443 155.158C260.602 155.769 261.98 155.426 261.98 155.426C261.98 155.426 261.476 154.088 260.317 153.477Z" fill="#8E95A4"/>
<path d="M255.942 156.61C254.792 155.999 253.414 156.342 253.414 156.342C253.414 156.342 253.908 157.68 255.068 158.291C256.227 158.902 257.596 158.558 257.596 158.558C257.596 158.558 257.101 157.221 255.942 156.61Z" fill="#8E95A4"/>
<path d="M246.344 164.31L246.572 164.444C246.591 164.425 248.187 161.751 250.924 158.828C252.54 157.118 254.222 155.657 255.933 154.491C258.071 153.03 260.266 152.018 262.442 151.492L262.376 151.234C260.171 151.769 257.947 152.791 255.781 154.272C254.051 155.447 252.35 156.927 250.734 158.656C247.969 161.588 246.363 164.282 246.344 164.31Z" fill="#8E95A4"/>
<path d="M252.238 162.828C254.092 162.828 255.65 164.07 256.135 165.77H248.352C248.836 164.07 250.395 162.828 252.238 162.828Z" fill="#8E95A4"/>
<path d="M233.285 161.434C236.003 161.434 238.303 163.267 239.016 165.77H227.555C228.267 163.267 230.558 161.434 233.285 161.434Z" fill="#8E95A4"/>
<path d="M251.065 165.769C250.19 162.713 246.703 160.43 242.54 160.43C238.378 160.43 234.899 162.713 234.016 165.769H251.065Z" fill="#8E95A4"/>
<path d="M91.7344 66.6918C93.3024 66.6918 94.5759 65.4119 94.5759 63.8359C94.5759 65.4119 95.8493 66.6918 97.4173 66.6918C95.8493 66.6918 94.5759 67.9718 94.5759 69.5573C94.5759 67.9718 93.3024 66.6918 91.7344 66.6918Z" fill="white"/>
<path d="M214.914 89.4709C216.482 89.4709 217.756 88.191 217.756 86.6055C217.756 88.191 219.029 89.4709 220.607 89.4709C219.029 89.4709 217.756 90.7508 217.756 92.3268C217.756 90.7508 216.482 89.4709 214.914 89.4709Z" fill="white"/>
<path d="M101.148 51.609C102.023 51.609 102.726 50.9022 102.726 50.0234C102.726 50.9022 103.439 51.609 104.304 51.609C103.439 51.609 102.726 52.3158 102.726 53.1946C102.726 52.3158 102.023 51.609 101.148 51.609Z" fill="white"/>
<path d="M226.617 79.5973C227.482 79.5973 228.195 78.8809 228.195 78.0117C228.195 78.8809 228.898 79.5973 229.772 79.5973C228.898 79.5973 228.195 80.3041 228.195 81.1828C228.195 80.3041 227.482 79.5973 226.617 79.5973Z" fill="white"/>
<path d="M77.41 134.097H64.1719V125.539H77.41V134.097Z" fill="#B88272"/>
<path d="M77.4919 134.097H72.8828V125.539H77.4919V134.097Z" fill="#AD6F5C"/>
<path d="M77.41 127.993H64.1719V125.758H77.41V127.993Z" fill="#A86652"/>
<path d="M77.9655 127.421H63.625V125.539H77.9655V127.421Z" fill="#B88272"/>
<path d="M70.0064 129.759H66.5092C66.2621 129.759 66.0625 129.549 66.0625 129.3C66.0625 129.052 66.2621 128.852 66.5092 128.852H70.0064C70.2535 128.852 70.4625 129.052 70.4625 129.3C70.4625 129.549 70.2535 129.759 70.0064 129.759Z" fill="#D1E7F8"/>
<path d="M93.1053 134.097H79.8672V125.539H93.1053V134.097Z" fill="#ACC6D0"/>
<path d="M93.1855 134.097H88.5859V125.539H93.1855V134.097Z" fill="#9FBDC9"/>
<path d="M93.1053 127.993H79.8672V125.758H93.1053V127.993Z" fill="#99B9C5"/>
<path d="M93.6608 127.421H79.3203V125.539H93.6608V127.421Z" fill="#ACC6D0"/>
<path d="M85.7112 129.759H82.2045C81.9574 129.759 81.7578 129.549 81.7578 129.3C81.7578 129.052 81.9574 128.852 82.2045 128.852H85.7112C85.9583 128.852 86.1578 129.052 86.1578 129.3C86.1578 129.549 85.9583 129.759 85.7112 129.759Z" fill="#D1E7F8"/>
<path d="M235.367 118.885H252.102V116.086H235.367V118.885Z" fill="#16357A"/>
<path d="M234.359 134.033H234.958L236.859 116.086H235.576L234.359 134.033Z" fill="#16357A"/>
<path d="M240.531 134.033H241.13L243.031 116.086H241.748L240.531 134.033Z" fill="#16357A"/>
<path d="M251.562 134.033H250.963L249.062 116.086H250.336L251.562 134.033Z" fill="#16357A"/>
<path d="M235.37 116.953H246.043L241.985 100.496H231.312L235.37 116.953Z" fill="#16357A"/>
<path d="M260.89 109.072H242.055V107.906H260.89V109.072Z" fill="#2D334A"/>
<path d="M260.891 108.022H245.125L247.624 97.4102H263.381L260.891 108.022Z" fill="url(#paint0_linear_1256_43568)"/>
<path d="M254.439 103.091L254.411 103.808C254.031 103.798 253.727 103.473 253.727 103.091C253.727 102.7 254.04 102.375 254.439 102.375C254.829 102.375 255.152 102.7 255.152 103.091H254.439Z" fill="#B3CBD4"/>
<path d="M279.515 108.815H268.367V105.07H279.515V108.815Z" fill="white"/>
<path d="M279.515 108.815H275.039V105.07H279.515V108.815Z" fill="#FFF8ED"/>
<path d="M278.477 105.098H267.32V101.344H278.477V105.098Z" fill="white"/>
<path d="M278.476 105.098H274V101.344H278.476V105.098Z" fill="#FFF8ED"/>
<path d="M279.218 101.372H268.07V99.5H279.218V101.372Z" fill="white"/>
<path d="M279.21 101.372H274.734V99.5H279.21V101.372Z" fill="#FFF8ED"/>
<path d="M276.418 134.097H263.18V125.539H276.418V134.097Z" fill="#B88272"/>
<path d="M276.498 134.097H271.898V125.539H276.498V134.097Z" fill="#AD6F5C"/>
<path d="M276.418 127.993H263.18V125.758H276.418V127.993Z" fill="#A86652"/>
<path d="M276.973 127.421H262.633V125.539H276.973V127.421Z" fill="#B88272"/>
<path d="M269.016 129.759H265.509C265.262 129.759 265.062 129.549 265.062 129.3C265.062 129.052 265.262 128.852 265.509 128.852H269.016C269.263 128.852 269.463 129.052 269.463 129.3C269.463 129.549 269.263 129.759 269.016 129.759Z" fill="#D1E7F8"/>
<path d="M276.418 125.556H263.18V116.988H276.418V125.556Z" fill="#ACC6D0"/>
<path d="M276.498 125.556H271.898V116.988H276.498V125.556Z" fill="#9FBDC9"/>
<path d="M276.418 119.444H263.18V117.219H276.418V119.444Z" fill="#99B9C5"/>
<path d="M276.973 118.87H262.633V116.988H276.973V118.87Z" fill="#ACC6D0"/>
<path d="M269.016 121.21H265.509C265.262 121.21 265.062 121.01 265.062 120.761C265.062 120.513 265.262 120.312 265.509 120.312H269.016C269.263 120.312 269.463 120.513 269.463 120.761C269.463 121.01 269.263 121.21 269.016 121.21Z" fill="#D1E7F8"/>
<path d="M282.373 110.392H216.344V108.988H282.373V110.392Z" fill="#5B6072"/>
<path d="M271.359 136.21H271.616L275.484 109.828H273.84L271.359 136.21Z" fill="#5B6072"/>
<path d="M282.679 136.21H282.432L278.555 109.828H280.199L282.679 136.21Z" fill="#5B6072"/>
<path d="M216.344 136.21H216.6L220.478 109.828H218.824L216.344 136.21Z" fill="#5B6072"/>
<path d="M227.673 136.21H227.416L223.539 109.828H225.183L227.673 136.21Z" fill="#5B6072"/>
<path d="M236.74 136.677L224.301 136.753C223.911 136.753 223.607 136.428 223.626 136.037L224.082 127.23C224.101 126.877 224.386 126.6 224.747 126.59L236.17 126.523C236.522 126.523 236.826 126.8 236.845 127.154L237.406 135.951C237.434 136.342 237.13 136.667 236.74 136.677Z" fill="#563A3D"/>
<path d="M230.905 132.19H230.078C229.841 132.19 229.651 132.008 229.641 131.77L229.594 130.404C229.594 130.155 229.784 129.955 230.031 129.955L230.924 129.945C231.171 129.945 231.371 130.146 231.361 130.394L231.333 131.76C231.333 131.989 231.143 132.18 230.905 132.19Z" fill="#EBCCB9"/>
<path d="M228.398 126.813C228.303 126.813 228.227 126.736 228.227 126.65V125.781C228.227 125.686 228.293 125.609 228.388 125.609C228.483 125.609 228.559 125.686 228.559 125.781V126.65C228.559 126.736 228.493 126.813 228.398 126.813Z" fill="#EBCCB9"/>
<path d="M232.538 126.793C232.443 126.793 232.367 126.717 232.367 126.621V125.752C232.367 125.666 232.443 125.59 232.529 125.59C232.624 125.59 232.7 125.657 232.7 125.752L232.709 126.621C232.709 126.717 232.633 126.784 232.538 126.793Z" fill="#EBCCB9"/>
<path d="M228.326 125.771C228.231 125.742 228.155 125.676 228.126 125.58C228.088 125.427 228.174 125.274 228.316 125.236C228.896 125.074 229.656 124.978 230.464 124.969C231.272 124.969 232.032 125.045 232.612 125.208C232.754 125.246 232.84 125.399 232.802 125.551C232.764 125.695 232.612 125.781 232.469 125.742C231.937 125.599 231.224 125.513 230.464 125.523C229.704 125.523 229.001 125.618 228.468 125.771C228.418 125.784 228.37 125.784 228.326 125.771Z" fill="#3B3E54"/>
<path d="M237.377 130.344L236.845 126.762C236.817 126.619 236.703 126.523 236.56 126.523L234.127 126.533L224.358 126.6C224.215 126.6 224.101 126.705 224.082 126.848L223.588 130.43C223.569 130.583 223.683 130.726 223.835 130.717L226.049 130.707L237.13 130.64C237.282 130.64 237.396 130.497 237.377 130.344Z" fill="#6C5456"/>
<path d="M231.698 130.67L229.275 130.689L229.266 129.744C229.266 129.638 229.351 129.553 229.456 129.553L231.499 129.543C231.603 129.543 231.689 129.629 231.698 129.734V130.67Z" fill="#3B3E54"/>
<path d="M68.1871 109.072H49.3516V107.906H68.1871V109.072Z" fill="#2C4B61"/>
<path d="M68.1956 108.022H52.4297L54.9291 97.4102H70.6855L68.1956 108.022Z" fill="#2C4B61"/>
<path d="M61.744 103.095L61.7155 103.812C61.3354 103.802 61.0312 103.477 61.0312 103.095C61.0312 102.704 61.3544 102.379 61.744 102.379C62.1336 102.379 62.4567 102.704 62.4567 103.095H61.744Z" fill="#F0F7FD"/>
<path d="M86.8114 108.815H75.6641V105.07H86.8114V108.815Z" fill="white"/>
<path d="M86.8042 108.815H82.3281V105.07H86.8042V108.815Z" fill="#FFF8ED"/>
<path d="M85.7741 105.098H74.6172V101.344H85.7741V105.098Z" fill="white"/>
<path d="M85.7729 105.098H81.2969V101.344H85.7729V105.098Z" fill="#FFF8ED"/>
<path d="M86.5146 101.372H75.3672V99.5H86.5146V101.372Z" fill="white"/>
<path d="M86.5073 101.372H82.0312V99.5H86.5073V101.372Z" fill="#FFF8ED"/>
<path d="M85.1178 97.6405H73.9609V93.8867H85.1178V97.6405Z" fill="white"/>
<path d="M85.1089 97.6405H80.6328V93.8867H85.1089V97.6405Z" fill="#FFF8ED"/>
<path d="M87.3505 99.5127H76.2031V97.6406H87.3505V99.5127Z" fill="white"/>
<path d="M87.3432 99.5127H82.8672V97.6406H87.3432V99.5127Z" fill="#FFF8ED"/>
<path d="M89.6695 110.392H23.6406V108.988H89.6695V110.392Z" fill="#5B6072"/>
<path d="M78.6562 136.21H78.9128L82.7807 109.828H81.1366L78.6562 136.21Z" fill="#5B6072"/>
<path d="M89.9855 136.21H89.7289L85.8516 109.828H87.4956L89.9855 136.21Z" fill="#5B6072"/>
<path d="M23.6406 136.21H23.8972L27.7746 109.828H26.121L23.6406 136.21Z" fill="#5B6072"/>
<path d="M34.9699 136.21H34.7133L30.8359 109.828H32.48L34.9699 136.21Z" fill="#5B6072"/>
<path d="M48.9531 132.617C55.7765 131.49 62.8565 127.698 62.8565 127.698C56.7934 128.147 50.1886 131.824 48.9817 132.531C49.2034 131.844 49.4283 131.169 49.6564 130.506C54.4936 129.943 61.2219 123.667 61.2219 123.667C56.0046 125.415 50.7493 129.532 49.7134 130.363C49.9225 129.758 50.1411 129.166 50.3691 128.587C54.8737 126.533 59.3973 118.481 59.3973 118.481C56.7839 120.315 51.7281 126.705 50.4832 128.3C50.5529 128.128 50.6226 127.956 50.6922 127.784C50.7493 127.638 50.8095 127.491 50.8728 127.345C51.8897 125.845 57.6582 117.277 58.4945 114.059C58.4945 114.059 52.4789 120.191 50.8918 126.734C50.7588 127.052 50.6226 127.377 50.4832 127.708C50.4262 127.861 50.366 128.013 50.3026 128.166C50.5497 126.065 51.405 118.491 50.9393 115.635C50.9393 115.635 48.6585 124.365 50.1601 128.529C49.932 129.109 49.7102 129.704 49.4948 130.315C49.3523 129.093 48.459 122.712 46.0356 118.032C46.0356 118.032 46.5203 126.896 49.4568 130.44C49.2414 131.044 49.0323 131.662 48.8296 132.293C48.3925 130.736 46.5203 124.575 43.0991 120.745C43.0991 120.745 45.1993 127.545 48.7821 132.455C48.6237 132.952 48.4685 133.451 48.3164 133.954C47.8983 133.143 45.608 128.825 42.5859 126.036C42.5859 126.036 45.1708 132.13 48.2974 134.04C47.987 135.085 47.6955 136.151 47.4231 137.24C45.9596 143.076 45.5034 147.604 45.4939 147.642L45.7125 147.671C45.722 147.623 46.1782 143.114 47.6322 137.298C47.9046 136.202 48.196 135.133 48.5065 134.088C52.0322 135.024 58.1999 132.694 58.1999 132.694C54.0849 132.426 49.3808 133.754 48.5255 134.012C48.6649 133.541 48.8074 133.076 48.9531 132.617Z" fill="#8E95A4"/>
<path d="M39.254 125.397C29.1425 124.805 18.2422 120.373 18.2422 120.373C27.1373 120.087 37.3343 124.442 39.2065 125.273C38.782 124.305 38.348 123.356 37.9045 122.427C30.7675 122.36 20.0003 114.241 20.0003 114.241C27.8785 115.989 36.1749 121.175 37.8095 122.236C37.404 121.389 36.9922 120.558 36.574 119.743C29.7032 117.441 21.8724 106.399 21.8724 106.399C25.9684 108.682 34.3218 117.212 36.3745 119.342C36.2478 119.106 36.121 118.867 35.9943 118.625C35.8866 118.421 35.7758 118.218 35.6617 118.014C33.9416 115.979 24.2293 104.374 22.5282 99.8086C22.5282 99.8086 32.231 107.832 35.5287 117.126C35.7821 117.571 36.0292 118.023 36.2699 118.482C36.384 118.692 36.498 118.909 36.6121 119.131C35.9278 116.104 33.533 105.186 33.7801 100.955C33.7801 100.955 38.4272 113.324 36.8782 119.628C37.2963 120.443 37.7081 121.277 38.1136 122.131C38.1516 120.325 38.4652 110.879 41.2877 103.696C41.2877 103.696 41.9339 116.686 38.1896 122.303C38.5951 123.156 38.9942 124.025 39.387 124.91C39.7862 122.57 41.5823 113.295 45.9823 107.192C45.9823 107.192 43.9581 117.431 39.4916 125.139C39.7957 125.833 40.0966 126.54 40.3944 127.26C40.879 126.009 43.5495 119.361 47.5408 114.824C47.5408 114.824 44.6994 124.117 40.4419 127.374C41.0438 128.845 41.6266 130.358 42.1905 131.911C45.2125 140.202 46.5715 146.716 46.5905 146.783L46.2769 146.85C46.2674 146.783 44.9084 140.288 41.8959 132.016C41.332 130.463 40.746 128.947 40.1378 127.47C35.1295 129.39 25.7973 126.935 25.7973 126.935C31.7559 125.913 38.8168 127.136 40.0903 127.374C39.8178 126.706 39.5391 126.047 39.254 125.397Z" fill="#8E95A4"/>
<path d="M52.5553 158.006H42.2822C41.0943 158.006 40.125 157.041 40.125 155.838V140.746H54.7126V155.838C54.7126 157.041 53.7432 158.006 52.5553 158.006Z" fill="#8E95A4"/>
<path d="M52.7262 160.204H42.1016V156.66H52.7262V160.204Z" fill="#8E95A4"/>
<path d="M176.01 99.9986C176.01 99.9986 173.662 99.7312 173.672 99.2727L176.01 89.0143L177.388 80.5898L178.595 87.6389L176.01 99.9986Z" fill="#828282"/>
<path d="M176.696 149.438C176.696 149.438 177.248 151.329 176.915 151.443C176.582 151.549 168.828 151.883 168.277 151.549C167.725 151.214 169.379 150.66 169.379 150.66C169.379 150.66 173.038 149.657 175.147 149.438C175.147 149.438 176.696 149.323 176.696 149.438Z" fill="#DB957F"/>
<path d="M177.775 123.716C177.328 122.828 176.824 122.379 175.998 122.379C175.095 122.379 174.363 123.133 174.391 124.05L175.256 149.496C175.275 149.897 175.598 150.212 175.998 150.212C176.397 150.212 176.729 149.897 176.739 149.496L176.777 148.397C178.193 130.975 179.105 126.945 177.775 123.716Z" fill="#DB957F"/>
<path d="M180.38 101.204C179.753 98.2237 178.166 97.7175 177.063 97.7557C176.994 97.743 176.921 97.7334 176.845 97.727C175.932 97.6602 175.163 98.367 175.125 99.2744L174.25 124.72C174.241 125.121 174.545 125.465 174.944 125.493C175.077 125.503 175.201 125.474 175.315 125.417C176.217 125.169 176.93 124.443 177.149 123.507C178.261 118.616 181.197 105.082 180.38 101.204Z" fill="#DB957F"/>
<path d="M172.09 149.801C172.888 150.154 174.228 150.383 175.739 150.383C176.224 150.383 176.69 150.364 177.117 150.317C177.222 151.004 177.269 151.807 176.937 151.845C176.348 151.912 167.918 152.17 167.871 151.778C167.766 151.004 170.028 150.259 172.09 149.801Z" fill="#3B3E54"/>
<path d="M189.923 149.438C189.923 149.438 190.474 151.329 190.141 151.443C189.808 151.549 182.054 151.883 181.503 151.549C180.951 151.214 182.614 150.66 182.614 150.66C182.614 150.66 186.264 149.657 188.373 149.438C188.373 149.438 189.923 149.323 189.923 149.438Z" fill="#DB957F"/>
<path d="M188.7 123.649C188.177 122.799 187.636 122.398 186.809 122.474C185.906 122.55 185.25 123.372 185.364 124.279L188.463 149.543C188.51 149.944 188.862 150.231 189.261 150.193C189.66 150.164 189.955 149.811 189.936 149.409L189.879 148.311C189.755 130.841 190.306 126.744 188.7 123.649Z" fill="#DB957F"/>
<path d="M186.343 100.743C185.079 97.9726 183.425 97.8293 182.361 98.1063C182.285 98.1063 182.209 98.1127 182.133 98.1254C181.239 98.2591 180.631 99.1188 180.802 100.017L185.506 125.032C185.582 125.433 185.953 125.691 186.343 125.634C186.476 125.615 186.599 125.557 186.694 125.481C187.521 125.042 188.063 124.172 188.063 123.208C188.082 118.203 187.996 104.343 186.343 100.743Z" fill="#DB957F"/>
<path d="M185.308 149.801C186.116 150.154 187.447 150.383 188.958 150.383C189.442 150.383 189.908 150.364 190.336 150.317C190.44 151.004 190.488 151.807 190.155 151.845C189.566 151.912 181.136 152.17 181.089 151.778C180.994 151.004 183.256 150.259 185.308 149.801Z" fill="#3B3E54"/>
<path d="M186.723 99.6268C186.723 99.6268 189.346 111.519 188.69 122.598C188.69 122.598 189.431 123.563 189.926 125.693C189.926 125.693 182.409 128.511 173.723 128.434C173.723 128.434 173.609 125.235 173.723 121.93C173.827 118.634 175.12 99.2734 175.12 99.2734L186.723 99.6268Z" fill="#3B3E54"/>
<path d="M165.762 88.4119C165.164 88.4215 164.612 88.708 164.261 89.1951C163.348 90.4464 161.723 92.8534 161.932 93.7799C162.237 95.0502 165.715 91.5162 166.104 88.4023L165.762 88.4119Z" fill="#DB957F"/>
<path d="M165.039 88.3559C167.938 86.2737 171.112 84.01 173.297 83.4655C175.113 83.0166 175.36 84.1342 175.388 84.1724C175.673 84.669 175.322 85.7006 174.704 85.9872L165.809 89.8842L165.039 88.3559Z" fill="#685F6A"/>
<path d="M177.192 70.1508C178.038 68.5079 179.559 69.3771 179.616 69.3866C180.233 69.4917 180.737 70.4851 180.575 71.1346L176.014 85.3473C175.966 85.5861 175.52 85.5001 175.244 85.4619C175.159 85.4428 175.073 85.4046 175.007 85.3568C174.436 85.0799 174.066 84.3921 174.056 83.8095C173.99 80.8008 176.09 72.2808 177.192 70.1508Z" fill="#828282"/>
<path d="M186.961 101.345C187.274 101.45 187.122 94.9646 186.371 90.3225C186.542 86.2918 185.468 76.6925 184.556 73.7792C183.397 70.1306 181.582 68.1247 178.56 69.5861C177.609 70.0446 176.706 72.7381 176.298 75.6036C175.899 78.4595 175.338 77.8864 176.906 82.0891C177.457 83.5791 176.06 93.6751 175.366 96.3496C175.167 97.1233 174.872 99.7308 174.492 100.543C175.053 100.934 175.576 101.23 176.184 101.45C180.356 102.969 182.779 99.9887 186.961 101.345Z" fill="#88AEBC"/>
<path d="M179.97 68.1635C179.97 68.1635 184.037 67.5809 184.864 64.8109C185.957 61.0954 181.975 57.59 179.143 59.3952C177.233 60.6178 176.976 61.8404 177.119 62.2893C177.252 62.7478 179.97 68.1635 179.97 68.1635Z" fill="#2D334A"/>
<path d="M181.813 64.6767L178.724 64.457C178.696 64.8869 178.477 68.9272 178.677 70.4459C178.8 70.9139 179.58 71.1049 180.407 70.8852C181.148 70.6751 181.68 70.2071 181.689 69.7772C181.575 68.8603 181.708 66.1668 181.813 64.6767Z" fill="#DB957F"/>
<path d="M181.301 65.1854C180.293 67.4587 177.899 68.6048 176.511 67.984C175.124 67.3536 175.276 65.214 176.293 62.9312C177.3 60.658 178.944 59.9989 180.322 60.6198C181.709 61.2406 182.318 62.9121 181.301 65.1854Z" fill="#DB957F"/>
<path d="M178.61 59.9586C178.61 59.9586 178.477 63.2921 181.176 65.0687C182.564 65.9761 183.619 63.6838 183.619 63.6838L182.64 61.0475C182.64 61.0475 181.642 59.7963 180.682 59.6721C180.597 59.6625 178.61 59.9586 178.61 59.9586Z" fill="#2D334A"/>
<path d="M177.117 61.5458C177.117 61.5458 179.997 61.1924 180.595 60.3519C181.204 59.5209 179.816 59.3203 179.816 59.3203C179.816 59.3203 177.906 59.5591 177.117 61.5458Z" fill="#2D334A"/>
<path d="M183.508 60.8283C183.508 60.8283 181.265 58.0679 183.688 55.9284C186.112 53.7888 189.077 55.4985 189.352 57.6572C189.666 60.0451 188.25 61.1626 187.186 61.5924C186.121 62.0223 184.458 61.7262 183.508 60.8283Z" fill="#2D334A"/>
<path d="M182.268 66.3319C181.907 66.8382 180.947 67.1056 180.586 66.8477C180.225 66.5803 180.434 66.1123 180.795 65.606C181.157 65.1094 181.793 64.861 182.154 65.1189C182.515 65.3863 182.63 65.8353 182.268 66.3319Z" fill="#DB957F"/>
<path d="M182.901 70.0469C182.901 70.0469 181.77 71.833 179.328 72.3201C179.328 72.3201 181.98 96.008 181.219 98.8544C181.219 98.8544 186.256 98.9212 187.33 99.2746C187.33 99.2746 186.655 83.591 186.218 80.6682C185.781 77.7359 184.754 72.1673 182.901 70.0469Z" fill="#828282"/>
<path d="M184.41 72.4996C182.852 71.2006 181.873 72.6906 181.825 72.7193C181.303 73.0727 181.312 74.2666 181.768 74.8397L192.688 87.1803C192.84 87.4 193.22 87.1421 193.448 86.9893C193.524 86.932 193.581 86.8652 193.619 86.7887C194.009 86.2825 194.028 85.442 193.762 84.8593C192.393 81.8315 186.425 74.1807 184.41 72.4996Z" fill="#828282"/>
<path d="M183.063 95.0114C183.405 95.5081 183.5 96.1289 183.319 96.702C182.854 98.1729 181.884 100.924 181.02 101.296C179.822 101.803 180.601 96.893 182.863 94.7344L183.063 95.0114Z" fill="#DB957F"/>
<path d="M183.498 96.1706C186.482 94.2412 192.355 89.0834 193.667 87.2495C194.759 85.7212 193.819 85.0813 193.79 85.0431C193.439 84.5846 192.355 84.5368 191.851 85.0049L182.367 94.8907L183.498 96.1706Z" fill="#828282"/>
<path d="M175.397 84.1724C175.369 84.1342 175.122 83.0166 173.307 83.4655C171.558 83.9049 169.163 85.4427 166.797 87.1142L168.156 88.8526L174.713 85.9872C175.331 85.7006 175.682 84.669 175.397 84.1724Z" fill="#828282"/>
<path d="M191.972 122.017C191.506 121.014 190.965 120.508 190.052 120.489C189.045 120.46 188.218 121.272 188.218 122.285L188.133 150.471C188.133 150.911 188.789 151.312 189.226 151.331C189.672 151.341 190.043 150.997 190.071 150.548L190.138 149.335C192.229 130.079 193.35 125.637 191.972 122.017Z" fill="#F5D1BC"/>
<path d="M196.338 97.4874C195.796 94.1539 194.067 93.5044 192.86 93.4853C192.777 93.4662 192.692 93.4503 192.603 93.4376C191.605 93.3229 190.712 94.0584 190.627 95.0709L188.308 123.191C188.27 123.64 188.593 124.031 189.03 124.079C189.182 124.098 189.325 124.079 189.448 124.022C190.465 123.802 191.292 123.028 191.577 122.006C193.078 116.657 197.041 101.814 196.338 97.4874Z" fill="#F5D1BC"/>
<path d="M187.575 149.383C187.869 149.583 188.487 149.736 189.209 149.746C189.599 149.755 189.969 149.727 190.264 149.669C190.492 149.622 190.711 149.765 190.739 149.985C190.863 150.749 190.977 151.914 190.568 151.952C189.96 152.009 181.198 152.076 181.15 151.666C181.046 150.586 185.303 149.669 187.575 149.383Z" fill="#2D334A"/>
<path d="M205.802 121.808C205.175 120.901 204.548 120.499 203.645 120.624C202.647 120.776 201.973 121.722 202.144 122.715L206.81 150.501C206.886 150.94 207.599 151.227 208.036 151.16C208.473 151.103 208.786 150.701 208.739 150.253L208.606 149.039C207.418 129.707 207.77 125.141 205.802 121.808Z" fill="#F5D1BC"/>
<path d="M201.149 96.6944C199.505 93.7429 197.661 93.7334 196.521 94.1345C196.432 94.1409 196.347 94.1536 196.264 94.1727C195.286 94.4115 194.696 95.4144 194.962 96.3887L202.356 123.611C202.48 124.04 202.907 124.298 203.344 124.193C203.487 124.165 203.61 124.088 203.715 123.993C204.589 123.439 205.102 122.436 205.026 121.366C204.608 115.826 203.287 100.525 201.149 96.6944Z" fill="#F5D1BC"/>
<path d="M187.728 145.722H190.959C190.959 145.722 194.38 128.815 192.622 121.25C192.622 121.25 196.566 106.598 197.136 100.313L193.164 93.0352L189.59 95.6045C189.59 95.6045 187.633 120.458 187.633 122.129C187.633 123.801 187.728 145.722 187.728 145.722Z" fill="#735B5E"/>
<path d="M206.168 149.383C206.463 149.583 207.081 149.736 207.803 149.746C208.193 149.755 208.563 149.727 208.858 149.669C209.086 149.622 209.295 149.765 209.333 149.985C209.456 150.749 209.57 151.914 209.162 151.952C208.544 152.009 199.792 152.076 199.744 151.666C199.64 150.586 203.897 149.669 206.168 149.383Z" fill="#2D334A"/>
<path d="M193.961 97.1455L194.084 97.5944L201.44 122.581C201.611 123.813 205.441 145.725 205.441 145.725H209.138C209.138 145.725 209.128 125.647 205.802 120.604C205.802 120.604 204.956 101.587 202.58 95.3594L193.961 97.1455Z" fill="#735B5E"/>
<path d="M170.33 89.7412C169.855 89.3592 169.237 89.2255 168.648 89.3783C167.147 89.7603 164.334 90.5722 163.906 91.4319C163.326 92.6163 168.297 92.1196 170.596 89.9514L170.33 89.7412Z" fill="#F5D1BC"/>
<path d="M191.868 68.2021C193.664 67.0941 194.405 68.7465 194.443 68.7847C194.909 69.2145 194.7 70.4371 194.139 70.9625L180.949 82.0614C180.759 82.262 180.417 81.9372 180.217 81.7557C180.151 81.6889 180.103 81.6125 180.075 81.5265C179.761 80.9534 179.894 80.0938 180.255 79.5398C182.175 76.6361 189.53 69.6444 191.868 68.2021Z" fill="#3B4761"/>
<path d="M168.945 89.3869C171.188 86.5787 176.985 81.2203 178.962 80.0932C180.606 79.1571 181.148 80.1792 181.186 80.2078C181.594 80.6185 181.528 81.7074 181.005 82.1659L170.095 90.6668L168.945 89.3869Z" fill="#3B4761"/>
<path d="M198.39 66.0729C196.48 65.1941 195.938 66.923 195.9 66.9707C195.492 67.4483 195.853 68.6423 196.471 69.0912L210.897 78.509C211.115 78.6809 211.41 78.3275 211.59 78.1174C211.647 78.041 211.685 77.9646 211.704 77.8786C211.942 77.2673 211.714 76.4268 211.277 75.9205C209.034 73.2748 200.88 67.2191 198.39 66.0729Z" fill="#3B4761"/>
<path d="M187.625 100.392C187.701 100.404 187.787 100.42 187.882 100.439C190.457 100.812 192.871 99.1022 193.07 96.8098L193.232 94.8899L193.365 97.1345C193.479 98.8825 195.076 100.258 197.071 100.325C199.647 100.411 202.963 100.525 204.579 100.506C202.878 91.7666 201.927 80.2378 202.108 72.6253C202.156 71.0206 202.184 70.0654 201.766 68.8906C201.215 67.3146 200.188 66.2639 198.905 65.7577C198.69 65.6685 198.468 65.5953 198.24 65.538C196.805 65.1846 195.133 65.4329 193.47 66.3021C193.279 66.3976 193.08 66.5027 192.88 66.6364C192.804 66.6874 192.725 66.7447 192.643 66.8084C191.531 67.6584 190.543 69.2536 190.552 72.1381C190.562 79.3304 188.718 92.8363 187.625 100.392Z" fill="#3B4761"/>
<path d="M192.883 66.6364L193.31 71.2307L193.862 77.2864L196.019 71.4886L198.243 65.538C196.808 65.1846 195.135 65.4329 193.472 66.3021C193.282 66.3976 193.082 66.5027 192.883 66.6364Z" fill="white"/>
<path d="M193.312 71.232L193.864 77.2876L196.021 71.4898L195.698 67.8125L194.595 67.8794L193.312 71.232Z" fill="#A15944"/>
<path d="M193.578 77.9665L198.301 65.4062L199.622 68.4532L197.712 69.8095L199.052 71.4906L193.578 77.9665Z" fill="#88AEBC"/>
<path d="M194.454 79.6152L192.839 66.2812L190.843 68.927L192.373 70.7036L190.672 72.0122L194.454 79.6152Z" fill="#88AEBC"/>
<path d="M201.129 92.1403L196.7 92.4173L196.672 92.0543L201.11 91.7773L201.129 92.1403Z" fill="#B3CBD4"/>
<path d="M193.501 81.9494C193.482 81.6915 193.672 81.4718 193.929 81.4623C194.176 81.4432 194.395 81.6342 194.414 81.8921C194.423 82.15 194.233 82.3601 193.986 82.3792C193.729 82.3983 193.511 82.2073 193.501 81.9494Z" fill="#B3CBD4"/>
<path d="M193.321 86.7228C193.311 86.4744 193.501 86.2547 193.748 86.2356C194.005 86.2165 194.223 86.4171 194.242 86.6655C194.252 86.9233 194.062 87.143 193.805 87.1526C193.558 87.1717 193.34 86.9807 193.321 86.7228Z" fill="#B3CBD4"/>
<path d="M193.158 91.5001C193.138 91.2518 193.338 91.0321 193.585 91.013C193.842 90.9939 194.06 91.1945 194.07 91.4428C194.089 91.7007 193.899 91.9204 193.642 91.9299C193.395 91.949 193.177 91.758 193.158 91.5001Z" fill="#B3CBD4"/>
<path d="M190.978 63.5418C190.978 63.5418 190.351 62.2906 190.807 61.068C191.273 59.8454 191.824 61.1253 191.824 61.1253L190.978 63.5418Z" fill="#2D334A"/>
<path d="M198.915 61.5742C198.849 61.6888 197.756 63.8093 197.357 63.8093C196.825 63.8188 197.157 62.1282 197.157 62.1282L198.915 61.5742Z" fill="#2D334A"/>
<path d="M192.119 58.0972C192.119 58.0972 191.682 56.9414 192.195 56.1964C192.689 55.4896 193.516 54.7637 196.452 55.6042C196.88 55.7188 197.146 56.12 197.099 56.5403L196.975 57.7247L192.119 58.0972Z" fill="#2D334A"/>
<path d="M197.577 60.7897C197.13 62.4899 196.636 63.8558 195.438 64.4766C195.011 64.6963 194.497 64.8682 193.899 64.8873C193.528 64.9064 193.129 64.8587 192.711 64.7249C191.608 64.3906 191.114 63.7698 190.972 62.9293C190.801 61.9646 191.095 60.7228 191.466 59.2997C192.16 56.6443 193.88 55.6223 195.571 56.033C197.253 56.4438 198.27 58.1344 197.577 60.7897Z" fill="#F5D1BC"/>
<path d="M197.759 60.9711L194.803 60.5508C194.746 60.9424 194.252 64.6675 194.328 66.0811C194.423 66.5205 195.155 66.7497 195.963 66.5969C196.695 66.4632 197.246 66.062 197.284 65.6704C197.236 64.8203 197.55 62.3369 197.759 60.9711Z" fill="#F5D1BC"/>
<path d="M198.82 61.7544C198.82 61.7544 198.05 61.8882 197.509 61.1909C196.787 60.2835 196.226 58.4114 196.131 57.5709C195.941 56.0999 196.416 55.7656 196.416 55.7656C196.416 55.7656 199.248 56.2814 199.752 57.2652C200.512 58.7266 198.82 61.7544 198.82 61.7544Z" fill="#2D334A"/>
<path d="M198.784 61.1638C198.642 61.7369 197.853 62.3387 197.425 62.2336C196.988 62.1285 196.998 61.6319 197.15 61.0588C197.292 60.4857 197.786 60.0272 198.214 60.1323C198.651 60.2278 198.936 60.5812 198.784 61.1638Z" fill="#F5D1BC"/>
<path d="M196.452 57.0165L194.675 56.5962C194.076 56.453 193.449 56.5294 192.898 56.7968L192.156 57.1693L193.392 55.7557L194.96 55.5742L196.746 56.1378L196.452 57.0165Z" fill="#2D334A"/>
<path d="M197.277 59.6445L195.662 63.4747C195.5 63.8759 195.101 64.1433 194.664 64.1433H194.17C193.856 64.1433 193.628 63.8568 193.685 63.5607L193.846 62.7297C193.884 62.5387 193.799 62.3476 193.628 62.2617L191.965 61.402C191.784 61.3065 191.566 61.3543 191.442 61.5071L190.91 62.1566C190.397 62.7965 190.558 63.7517 191.261 64.1815L192.24 64.7737C192.449 64.8979 192.687 64.9743 192.934 64.9839C192.947 64.9839 192.963 64.9839 192.982 64.9839H193.02H193.409H194.673C195.443 64.9743 196.137 64.5158 196.441 63.7995L198.047 59.9788L197.277 59.6445Z" fill="#2D334A"/>
<path d="M203.895 88.6064C204.361 88.998 204.618 89.5807 204.589 90.1824C204.522 91.7393 204.294 94.6812 203.544 95.2734C202.517 96.0853 201.985 91.0898 203.629 88.3867L203.895 88.6064Z" fill="#F5D1BC"/>
<path d="M204.506 89.8942C206.787 87.1051 210.835 80.3235 211.529 78.1458C212.099 76.3405 210.997 76.0158 210.959 75.9871C210.484 75.6624 209.429 75.9489 209.087 76.5507L203.023 89.0154L204.506 89.8942Z" fill="#3B4761"/>
<path d="M149.308 59.337C149.232 59.0314 148.966 58.8021 148.842 58.5156C148.728 58.229 148.747 57.8756 148.595 57.6177C148.433 57.3503 148.101 57.207 147.901 56.9778C147.702 56.7485 147.616 56.3951 147.378 56.1945C147.15 55.994 146.789 55.9653 146.533 55.8125C146.267 55.6501 146.077 55.3445 145.801 55.2298C145.516 55.1057 145.164 55.1916 144.87 55.1152C144.575 55.0484 144.299 54.8191 143.986 54.7905C143.691 54.7714 143.378 54.9528 143.073 54.9815C142.769 55.0102 142.437 54.8764 142.142 54.9433C141.838 55.0197 141.6 55.2967 141.325 55.4113C141.04 55.5259 140.679 55.5068 140.422 55.6597C140.165 55.822 140.023 56.1563 139.795 56.3569C139.557 56.5575 139.215 56.6435 139.016 56.8823C138.816 57.1115 138.787 57.4745 138.626 57.7323C138.464 57.9998 138.17 58.1908 138.046 58.4774C137.932 58.7544 138.018 59.1078 137.942 59.4039C137.875 59.7 137.638 59.977 137.619 60.2922C137.6 60.5883 137.78 60.9035 137.809 61.2091C137.828 61.5148 137.695 61.8491 137.771 62.1452C137.847 62.4508 138.113 62.6896 138.227 62.9666C138.35 63.2531 138.322 63.6161 138.483 63.874C138.645 64.1319 138.978 64.2752 139.177 64.5044C139.377 64.7432 139.462 65.087 139.69 65.2876C139.928 65.4882 140.28 65.5169 140.546 65.6792C140.802 65.8416 140.992 66.1473 141.277 66.2619C141.562 66.3765 141.914 66.2905 142.209 66.367C142.503 66.4338 142.779 66.6726 143.083 66.6917C143.387 66.7204 143.691 66.5293 144.005 66.5007C144.299 66.4816 144.632 66.6153 144.936 66.5389C145.24 66.4625 145.468 66.195 145.753 66.0804C146.039 65.9562 146.39 65.9849 146.656 65.8225C146.913 65.6601 147.055 65.3258 147.283 65.1253C147.512 64.9247 147.863 64.8387 148.063 64.6095C148.262 64.3707 148.291 64.0173 148.443 63.7498C148.604 63.4919 148.908 63.3009 149.023 63.0144C149.146 62.7278 149.061 62.384 149.137 62.0783C149.203 61.7822 149.431 61.5052 149.46 61.1996C149.479 60.8939 149.298 60.5883 149.27 60.2731C149.241 59.977 149.384 59.6427 149.308 59.337Z" fill="#2D334A"/>
<path d="M151.725 122.733C152.467 121.969 153.122 121.682 153.968 121.949C154.89 122.246 155.384 123.258 155.061 124.185L145.919 149.859C145.767 150.26 145.33 150.48 144.93 150.346C144.522 150.213 144.284 149.783 144.408 149.372L144.721 148.235C148.931 130.001 149.321 125.589 151.725 122.733Z" fill="#A18282"/>
<path d="M145.332 99.0438C145.541 95.7867 147.147 95.0035 148.316 94.8793C148.392 94.8475 148.468 94.822 148.544 94.8029C149.494 94.6023 150.425 95.2327 150.606 96.1879L155.405 123.028C155.472 123.458 155.206 123.859 154.787 123.954C154.645 123.983 154.512 123.973 154.379 123.935C153.381 123.811 152.516 123.142 152.146 122.187C150.216 117.182 145.047 103.275 145.332 99.0438Z" fill="white"/>
<path d="M142.59 122.733C143.331 121.969 143.987 121.682 144.833 121.949C145.755 122.246 146.249 123.258 145.926 124.185L136.784 149.859C136.631 150.26 136.194 150.48 135.786 150.346C135.387 150.213 135.149 149.783 135.263 149.372L135.586 148.235C139.796 130.001 140.186 125.589 142.59 122.733Z" fill="#A18282"/>
<path d="M139.943 98.3635C140.675 95.1828 142.386 94.6766 143.555 94.7339C143.637 94.7212 143.719 94.7116 143.802 94.7052C144.771 94.6575 145.588 95.4216 145.607 96.4054L146.025 123.666C146.035 124.095 145.702 124.458 145.275 124.477C145.132 124.487 144.999 124.449 144.876 124.391C143.916 124.114 143.165 123.312 142.956 122.309C141.853 117.056 138.983 102.49 139.943 98.3635Z" fill="white"/>
<path d="M135.646 149.743C136.226 149.743 136.739 149.657 137.043 149.523C139.077 149.81 143.221 150.765 143.097 151.787C143.05 152.16 134.962 151.921 134.402 151.854C134.012 151.806 134.173 150.631 134.297 149.934C134.335 149.743 134.525 149.619 134.715 149.657C134.991 149.705 135.304 149.743 135.646 149.743Z" fill="#3B3E54"/>
<path d="M145.105 149.743C145.694 149.743 146.207 149.657 146.511 149.523C148.545 149.81 152.689 150.765 152.556 151.787C152.508 152.16 144.43 151.921 143.87 151.854C143.47 151.806 143.632 150.631 143.765 149.934C143.803 149.743 143.984 149.619 144.183 149.657C144.449 149.705 144.763 149.743 145.105 149.743Z" fill="#3B3E54"/>
<path d="M150.362 93.7695C150.362 93.7695 155.645 119.874 155.721 121.851C155.797 123.828 155.322 125.022 154.724 126.484C154.134 127.945 147.739 145.969 147.739 145.969L145.306 145.654C145.306 145.654 147.91 126.465 151.492 122.138C151.492 122.138 142.445 95.9664 142.445 93.7695H150.362Z" fill="#3E4358"/>
<path d="M136.383 144.803L138.635 145.367C138.635 145.367 146.418 124.984 146.371 123.972C146.314 122.95 146.371 93.7695 146.371 93.7695L139.538 94.1229C139.538 94.1229 138.302 106.511 142.455 122.205C142.455 122.205 139.557 123.36 136.383 144.803Z" fill="#3E4358"/>
<path d="M138.213 91.3716C138.086 90.7539 137.969 90.149 137.861 89.5568C137.792 89.162 137.728 88.7704 137.671 88.382C137.538 87.5128 137.424 86.6627 137.339 85.8317C137.301 85.4305 137.266 85.0357 137.234 84.6473C137.158 83.6794 137.111 82.7338 137.092 81.8105C137.082 81.4189 137.073 81.0273 137.082 80.6357C137.092 78.0758 137.31 75.6593 137.681 73.3383C137.899 71.9819 138.175 70.7976 138.498 69.7564C139.439 66.6713 143.297 65.6684 145.626 67.8939L146.129 68.381C147.422 69.6036 147.916 71.4375 147.46 73.1663C146.965 75.0671 146.851 77.837 147.583 82.1257C147.628 82.3868 147.675 82.6542 147.726 82.928C147.802 83.3196 147.887 83.7208 147.963 84.1411C148.096 84.7237 148.229 85.3255 148.381 85.9654C148.47 86.3411 148.565 86.7295 148.667 87.1307C148.844 87.8375 149.044 88.573 149.265 89.3371C149.322 89.5473 149.382 89.7638 149.446 89.9866C149.497 90.1522 149.547 90.3241 149.598 90.5024C149.712 90.9036 149.845 91.3334 149.969 91.7632C150.083 92.1389 150.203 92.521 150.33 92.9094C150.494 93.4316 150.669 93.9664 150.852 94.5141C149.74 94.9725 148.448 95.0872 147.241 95.0298C145.207 94.9152 143.155 94.4376 141.178 94.8961C140.513 95.0489 139.876 95.2973 139.239 95.5456C138.954 94.5141 138.698 93.508 138.47 92.5273C138.375 92.1453 138.298 91.7537 138.213 91.3716Z" fill="#0A193A"/>
<path d="M146.937 69.1955C145.55 67.3998 144.172 68.7752 144.124 68.8038C143.487 69.0522 143.24 70.3703 143.611 71.1153L152.687 87.3148C152.81 87.5918 153.998 87.8305 154.274 87.7159C154.369 87.6873 154.445 87.6204 154.502 87.5535C155.034 87.0855 154.568 85.7292 154.34 85.0415C153.219 81.6889 148.743 71.5451 146.937 69.1955Z" fill="#0A193A"/>
<path d="M142.894 70.4056C144.253 68.5812 142.561 67.6165 142.523 67.5688C142.114 67.0243 140.793 67.1294 140.176 67.6929L127.052 80.7977C126.824 80.9887 126.909 82.2113 127.09 82.4501C127.147 82.5265 127.223 82.5838 127.318 82.622C127.898 83.0136 129.076 82.1922 129.675 81.791C132.592 79.8139 141.126 72.7744 142.894 70.4056Z" fill="#AC6D5A"/>
<path d="M147.694 65.9672C147.694 65.9672 148.131 64.7541 147.57 63.6843C147.01 62.6241 146.648 63.8563 146.648 63.8563L147.694 65.9672Z" fill="#2D334A"/>
<path d="M140.203 63.418C140.26 63.5326 141.134 65.7008 141.505 65.739C142.018 65.7772 141.828 64.0866 141.828 64.0866L140.203 63.418Z" fill="#2D334A"/>
<path d="M146.888 60.4945C146.888 60.4945 147.392 59.3865 146.964 58.6033C146.546 57.8678 145.824 57.0941 142.973 57.7054C142.564 57.7914 142.279 58.1544 142.298 58.5746L142.326 59.759L146.888 60.4945Z" fill="#2D334A"/>
<path d="M141.535 62.7395C141.82 64.4492 142.19 65.8342 143.283 66.541C143.663 66.7893 144.138 66.9899 144.699 67.0568C145.051 67.095 145.431 67.0854 145.84 66.9899C146.913 66.7416 147.427 66.1589 147.626 65.3471C147.854 64.411 147.674 63.1597 147.427 61.727C146.97 59.0526 145.421 57.9159 143.796 58.1929C142.162 58.4699 141.078 60.065 141.535 62.7395Z" fill="#786164"/>
<path d="M141.336 62.902L144.168 62.7109C144.196 63.1026 144.386 66.8086 144.196 68.2031C144.082 68.6234 143.37 68.8048 142.609 68.5947C141.935 68.4037 141.45 67.9738 141.44 67.5727H141.431C141.545 66.7417 141.431 64.2678 141.336 62.902Z" fill="#786164"/>
<path d="M140.276 63.5981C140.276 63.5981 140.998 63.7891 141.568 63.1396C142.319 62.2991 142.984 60.4939 143.146 59.6724C143.422 58.2301 143.003 57.8672 143.003 57.8672C143.003 57.8672 140.285 58.1633 139.734 59.0898C138.907 60.4843 140.276 63.5981 140.276 63.5981Z" fill="#2D334A"/>
<path d="M142.265 61.2773L142.931 65.1839C142.997 65.6042 143.311 65.929 143.71 66.0245L144.176 66.1391C144.461 66.2059 144.736 65.9958 144.746 65.6997L144.784 64.8878C144.784 64.7064 144.907 64.5535 145.088 64.5153L146.817 64.076C147.007 64.0282 147.198 64.1142 147.283 64.2956L147.635 65.012C147.977 65.7188 147.616 66.5689 146.865 66.8077L145.829 67.142C145.601 67.2184 145.373 67.228 145.145 67.1898C145.126 67.1898 145.107 67.1866 145.088 67.1802L145.059 67.1707L144.698 67.0847L143.529 66.8077C142.807 66.6358 142.265 66.0531 142.142 65.3177L141.477 61.4111L142.265 61.2773Z" fill="#2D334A"/>
<path d="M142.865 59.1015L144.585 58.815C145.156 58.729 145.754 58.8436 146.248 59.1493L146.923 59.5696L145.859 58.0891L144.395 57.793L142.656 58.2132L142.865 59.1015Z" fill="#2D334A"/>
<path d="M140.401 63.1702C140.496 63.7337 141.18 64.3737 141.589 64.3068C141.998 64.24 142.026 63.7528 141.931 63.1893C141.836 62.6162 141.418 62.1386 141.009 62.2055C140.591 62.2723 140.306 62.5971 140.401 63.1702Z" fill="#786164"/>
<path d="M163.068 90.1519C163.449 89.617 164.047 89.2923 164.703 89.2732C166.366 89.2159 169.512 89.2063 170.215 89.9704C171.175 91.0115 165.881 91.9954 162.859 90.4576L163.068 90.1519Z" fill="#A18282"/>
<path d="M164.534 89.3399C161.303 87.2194 156.979 85.3569 154.575 84.8698C152.589 84.4686 152.37 85.6912 152.351 85.7389C152.057 86.2929 152.494 87.3914 153.178 87.6779L163.774 91.0305L164.534 89.3399Z" fill="#0A193A"/>
<path d="M125.183 96.33C125.373 96.9604 125.259 97.6385 124.879 98.1639C123.9 99.5202 121.962 102.023 120.935 102.109C119.529 102.223 122.009 97.4284 125.079 95.9766L125.183 96.33Z" fill="#A18282"/>
<path d="M125.674 97.1495C127.366 93.3862 129.808 84.6847 129.913 82.0772C130.008 79.9185 128.696 79.8994 128.639 79.8803C128.012 79.6702 126.929 80.3101 126.738 81.0742L123.773 96.6337L125.674 97.1495Z" fill="#AC6D5A"/>
<path d="M133.885 75.2701C132.042 74.5824 131.548 76.3208 131.509 76.3686C131.129 76.8748 131.481 78.0019 132.08 78.3839L145.983 86.2353C146.192 86.3786 146.468 86.0061 146.639 85.7864C146.696 85.71 146.734 85.624 146.743 85.5381C146.971 84.9268 146.743 84.1244 146.325 83.6755C144.139 81.2972 136.28 76.1584 133.885 75.2701Z" fill="#828282"/>
<path d="M159.043 90.1408C159.223 90.2554 159.413 90.3413 159.622 90.3891C161.067 90.7521 163.813 91.3252 164.564 90.7903C165.533 90.093 161.57 88.4024 158.672 88.9277L159.043 90.1408Z" fill="#F5CCB5"/>
<path d="M159.126 90.3016C155.714 89.8144 148.473 87.6367 146.581 86.5478C145.013 85.6404 145.584 84.6948 145.593 84.647C145.717 84.1121 146.648 83.625 147.285 83.8351L159.601 88.716L159.126 90.3016Z" fill="#828282"/>
<path d="M126.907 149.512C126.907 149.512 126.366 151.345 126.689 151.45C127.012 151.565 134.529 151.88 135.061 151.565C135.603 151.24 133.987 150.696 133.987 150.696C133.987 150.696 130.452 149.731 128.409 149.512C128.409 149.512 126.907 149.406 126.907 149.512Z" fill="#F5CCB5"/>
<path d="M125.852 124.592C126.289 123.732 126.774 123.293 127.572 123.293C128.456 123.293 129.159 124.028 129.131 124.917L128.294 149.569C128.275 149.961 127.962 150.267 127.572 150.267C127.183 150.267 126.869 149.961 126.859 149.569L126.821 148.509C125.443 131.631 124.569 127.715 125.852 124.592Z" fill="#F5CCB5"/>
<path d="M123.207 102.777C123.824 99.8928 125.355 99.3962 126.419 99.4344C126.489 99.4216 126.561 99.4121 126.637 99.4057C127.512 99.3484 128.272 100.027 128.301 100.915L129.146 125.567C129.156 125.959 128.861 126.284 128.481 126.312C128.348 126.322 128.225 126.293 128.12 126.246C127.236 126.007 126.552 125.3 126.343 124.383C125.259 119.655 122.418 106.531 123.207 102.777Z" fill="#F5CCB5"/>
<path d="M131.38 149.867C130.6 150.211 129.308 150.44 127.844 150.44C127.369 150.44 126.923 150.412 126.504 150.373C126.4 151.032 126.362 151.816 126.685 151.854C127.246 151.921 135.418 152.169 135.466 151.787C135.561 151.032 133.366 150.316 131.38 149.867Z" fill="#44495E"/>
<path d="M114.876 149.512C114.876 149.512 114.343 151.345 114.667 151.45C114.99 151.565 122.497 151.88 123.039 151.565C123.571 151.24 121.965 150.696 121.965 150.696C121.965 150.696 118.42 149.731 116.377 149.512C116.377 149.512 114.876 149.406 114.876 149.512Z" fill="#F5CCB5"/>
<path d="M117.08 124.564C117.612 123.761 118.144 123.389 118.942 123.494C119.817 123.599 120.425 124.411 120.282 125.29L116.452 149.656C116.386 150.038 116.034 150.305 115.654 150.257C115.265 150.21 114.989 149.866 115.027 149.474L115.122 148.414C115.806 131.498 115.417 127.506 117.08 124.564Z" fill="#F5CCB5"/>
<path d="M117.102 102.587C118.053 99.7983 119.64 99.5022 120.685 99.6646C120.761 99.6582 120.837 99.6582 120.913 99.6646C121.787 99.7124 122.453 100.476 122.377 101.365L120.21 125.941C120.181 126.323 119.839 126.619 119.459 126.59C119.326 126.59 119.212 126.543 119.107 126.476C118.262 126.132 117.663 125.349 117.568 124.422C117.074 119.589 115.848 106.217 117.102 102.587Z" fill="#F5CCB5"/>
<path d="M119.352 149.867C118.573 150.211 117.28 150.44 115.817 150.44C115.351 150.44 114.895 150.412 114.477 150.373C114.382 151.032 114.334 151.816 114.657 151.854C115.228 151.921 123.391 152.169 123.439 151.787C123.534 151.032 121.348 150.316 119.352 149.867Z" fill="#44495E"/>
<path d="M117.78 98.707C117.78 98.707 115.299 109.901 115.432 122.653C115.432 122.653 114.302 125.318 113.836 128.021C113.836 128.021 121.011 130.867 129.935 128.728C129.935 128.728 129.82 100.703 127.188 100.77L117.78 98.707Z" fill="#4B7FA4"/>
<path d="M135.075 76.6716C132.69 70.6827 126.151 75.8501 125.268 77.7222C123.842 80.7692 118.463 94.6571 117.133 98.898C117.675 99.5571 118.511 99.9965 119.347 100.226C120.468 100.531 121.656 100.55 122.797 100.77C124.783 101.143 126.703 102.098 128.698 101.955C127.634 98.5064 128.204 90.8652 128.936 89.3083C130.713 85.5163 133.726 85.6214 134.638 83.2526C135.626 80.6832 135.693 78.2189 135.075 76.6716Z" fill="#828282"/>
<path d="M128.459 74.7919C130.227 73.875 130.835 75.4988 130.873 75.537C131.291 75.9763 131.025 77.1225 130.455 77.581L117.302 87.1421C117.103 87.314 116.808 86.9893 116.618 86.7982C116.561 86.7314 116.523 86.655 116.504 86.569C116.238 86.0055 116.409 85.1936 116.789 84.6969C118.775 82.0798 126.159 75.9859 128.459 74.7919Z" fill="#828282"/>
<path d="M133.477 73.7117C133.477 73.7117 130.607 71.4193 131.5 68.764C133.012 64.2938 138.438 65.0006 139.303 67.293C140.082 69.3562 139.274 70.2349 138.923 70.5214C138.571 70.808 133.477 73.7117 133.477 73.7117Z" fill="#2D334A"/>
<path d="M134.287 69.9023L136.919 71.3542C136.72 71.7171 134.79 75.127 133.831 76.2541C133.489 76.5693 132.757 76.321 132.196 75.7001C131.702 75.1366 131.512 74.4775 131.73 74.1146C132.301 73.4364 133.603 71.1631 134.287 69.9023Z" fill="#F5CCB5"/>
<path d="M133.997 70.587C133.589 72.9654 134.909 75.1813 136.363 75.4297C137.808 75.678 138.834 73.8632 139.243 71.4849C139.642 69.1065 138.682 67.6929 137.228 67.435C135.784 67.1867 134.396 68.1991 133.997 70.587Z" fill="#F5CCB5"/>
<path d="M138.965 67.8266C138.965 67.8266 137.283 70.587 134.156 70.5488C132.55 70.5393 132.94 68.1227 132.94 68.1227L135.135 66.5276C135.135 66.5276 136.618 66.0596 137.445 66.4798C137.521 66.5181 138.965 67.8266 138.965 67.8266Z" fill="#2D334A"/>
<path d="M139.324 69.9191C139.324 69.9191 137.195 68.0756 137.157 67.0727C137.119 66.0793 138.345 66.662 138.345 66.662C138.345 66.662 139.742 67.8941 139.324 69.9191Z" fill="#2D334A"/>
<path d="M130.314 73.4911C130.314 73.4911 134.059 72.3449 133.137 68.8872C132.215 65.4296 128.461 65.1621 126.884 66.9674C125.135 68.9732 125.753 70.874 126.465 71.9246C127.188 72.9753 128.889 73.7299 130.314 73.4911Z" fill="#2D334A"/>
<path d="M132.603 70.9877C132.632 71.5895 133.259 72.325 133.687 72.3059C134.124 72.2868 134.209 71.7996 134.181 71.1979C134.152 70.5961 133.782 70.0517 133.344 70.0708C132.917 70.0899 132.575 70.386 132.603 70.9877Z" fill="#F5CCB5"/>
<path d="M113.911 98.0857C113.835 98.2863 113.787 98.4964 113.778 98.7065C113.74 100.206 113.749 103.024 114.424 103.645C115.317 104.457 116.125 100.206 115.013 97.4648L113.911 98.0857Z" fill="#F5CCB5"/>
<path d="M113.695 97.9637C113.952 94.5156 115.624 87.1131 116.584 85.1455C117.373 83.5026 118.352 84.0089 118.399 84.0184C118.951 84.1139 119.483 85.0213 119.321 85.6613L115.301 98.3362L113.695 97.9637Z" fill="#8B8F9B"/>
<path d="M138.392 87.9417C138.724 88.5147 139.294 88.8968 139.95 88.9732C141.613 89.1834 144.759 89.4699 145.528 88.7726C146.583 87.8079 141.376 86.3465 138.211 87.6265L138.392 87.9417Z" fill="#DB957F"/>
<path d="M139.278 88.8878C135.553 87.7798 127.836 84.1598 125.907 82.622C124.301 81.3612 125.09 80.3965 125.109 80.3487C125.346 79.7661 126.458 79.384 127.123 79.7183L140.067 87.1972L139.278 88.8878Z" fill="#0A193A"/>
<path d="M107.251 67.7902C109.123 66.4816 110.017 68.2296 110.064 68.2582C110.596 68.6976 110.435 70.0252 109.855 70.6365L96.2654 83.3974C96.0658 83.6171 95.6857 83.2924 95.4576 83.1013C95.3816 83.044 95.3245 82.9581 95.2865 82.8721C94.9254 82.2703 95.0109 81.3343 95.3721 80.7134C97.2727 77.4659 104.809 69.4808 107.251 67.7902Z" fill="#0A193A"/>
<path d="M117.484 122.948C117.76 121.916 118.197 121.334 119.071 121.162C120.031 120.961 120.963 121.601 121.124 122.575L125.629 149.606C125.695 150.036 125.42 150.437 124.992 150.523C124.574 150.609 124.165 150.342 124.061 149.922L123.785 148.775C118.587 130.704 116.772 126.644 117.484 122.948Z" fill="#DB957F"/>
<path d="M112.759 98.4581C113.187 95.2105 114.841 94.5324 116.019 94.475C116.095 94.4559 116.174 94.44 116.257 94.4273C117.226 94.2745 118.119 94.9717 118.233 95.946L121.322 123.177C121.369 123.607 121.075 123.999 120.647 124.056C120.505 124.085 120.372 124.066 120.239 124.018C119.25 123.827 118.423 123.111 118.119 122.117C116.504 116.969 112.208 102.689 112.759 98.4581Z" fill="#D9AD93"/>
<path d="M106.891 122.92C107.88 122.538 108.602 122.547 109.267 123.149C109.99 123.808 110.028 124.935 109.343 125.642L90.3557 145.318C90.0611 145.624 89.567 145.643 89.2439 145.357C88.9303 145.06 88.8922 144.573 89.1773 144.239L89.9376 143.332C101.323 128.412 103.508 124.534 106.891 122.92Z" fill="#DB957F"/>
<path d="M108.375 97.676C109.668 94.6673 111.445 94.4667 112.595 94.7342C112.671 94.7342 112.75 94.7373 112.832 94.7437C113.802 94.8679 114.476 95.7848 114.324 96.7495L109.953 123.809C109.877 124.229 109.487 124.525 109.059 124.468C108.917 124.449 108.793 124.401 108.679 124.315C107.777 123.866 107.178 122.949 107.149 121.908C106.988 116.521 106.703 101.602 108.375 97.676Z" fill="#D9AD93"/>
<path d="M89.5352 144.652C89.8773 145.139 90.248 145.511 90.5331 145.683C91.4739 147.527 93.099 151.5 92.1866 151.987C91.854 152.169 87.3685 145.359 87.0929 144.852C86.9028 144.499 87.9577 143.954 88.5944 143.658C88.775 143.582 88.984 143.658 89.0696 143.84C89.1836 144.088 89.3357 144.375 89.5352 144.652Z" fill="#555A6C"/>
<path d="M124.933 149.724C125.513 149.724 126.036 149.638 126.34 149.504C128.383 149.79 132.545 150.755 132.422 151.787C132.374 152.169 124.249 151.92 123.679 151.854C123.28 151.806 123.451 150.621 123.574 149.924C123.612 149.733 123.802 149.609 124.002 149.647C124.268 149.695 124.582 149.724 124.933 149.724Z" fill="#555A6C"/>
<path d="M110.758 93.4352C110.758 93.4352 112.535 106.893 117.382 121.66C117.382 121.66 114.958 127.343 122.703 145.835H125.611C125.611 145.835 121.573 122.31 121.411 120.361C121.249 118.413 118.674 93.7599 118.189 92.4609L110.758 93.4352Z" fill="#3E4358"/>
<path d="M92.0391 139.705L94.3199 142.207C94.3199 142.207 110.133 127.011 110.884 124.48C111.635 121.948 115.113 94.3635 115.113 94.3635L108.109 93.6758C108.109 93.6758 105.41 100.534 106.532 122.178C106.532 122.178 104.118 121.404 92.0391 139.705Z" fill="#3E4358"/>
<path d="M113.061 71.9345C111.674 70.1101 113.365 69.1263 113.403 69.0785C113.812 68.5341 115.143 68.6296 115.76 69.1741L129.093 82.2119C129.331 82.403 129.255 83.616 129.074 83.8643C129.017 83.9408 128.941 84.0076 128.856 84.0363C128.276 84.4374 127.079 83.6351 126.47 83.2339C123.524 81.2854 114.857 74.3032 113.061 71.9345Z" fill="#0A193A"/>
<path d="M107.071 90.2632C107.014 89.5755 106.976 88.8782 106.929 88.1905C106.91 87.7416 106.891 87.264 106.862 86.8246C106.805 85.8122 106.758 84.7902 106.71 83.7872C106.691 83.3192 106.672 82.8225 106.653 82.3832C106.615 81.2943 106.587 80.1099 106.568 79.0783C106.558 78.639 106.539 78.1614 106.539 77.8653C106.587 75.9072 106.549 73.9778 106.701 72.1248C106.796 71.0455 106.691 70.5488 107.052 69.4504C108.126 66.1837 110.863 64.9802 113.914 66.9479C114.075 67.0529 114.341 67.2535 114.455 67.3777C115.624 68.7053 116.565 69.4695 116.394 71.5422C116.213 73.825 116.774 77.0247 117.145 79.5177C117.173 79.6705 117.23 80.2627 117.268 80.5875C117.325 81.0651 117.401 81.6668 117.468 82.2303C117.553 83.0327 117.667 83.9305 117.762 84.7806C117.81 85.2964 117.876 85.8695 117.943 86.4139C118.057 87.3882 118.162 88.3911 118.276 89.3654C118.314 89.6424 118.342 89.9193 118.38 90.1963C118.409 90.4065 118.437 90.6071 118.466 90.8172C118.532 91.3139 118.599 91.8297 118.675 92.3168C118.741 92.7371 118.817 93.1191 118.903 93.5298C119.017 94.0838 119.121 94.6283 119.245 95.1823C118.038 95.421 116.812 95.421 115.596 95.2014C113.571 94.8288 111.623 94.2271 109.552 94.3226C108.867 94.3513 108.221 94.5519 107.556 94.6856C107.404 93.6349 107.271 92.5842 107.166 91.524C107.128 91.1133 107.1 90.6835 107.071 90.2632Z" fill="#0A193A"/>
<path d="M116.731 64.1589C116.731 64.1589 116.807 62.8599 115.961 62.0003C115.125 61.1311 115.125 62.4205 115.125 62.4205L116.731 64.1589Z" fill="#2D334A"/>
<path d="M108.781 63.8438C108.867 63.9393 110.33 65.7827 110.701 65.7159C111.195 65.6108 110.539 64.0252 110.539 64.0252L108.781 63.8438Z" fill="#2D334A"/>
<path d="M114.413 59.1167C114.413 59.1167 114.585 57.9036 113.948 57.2732C113.34 56.681 112.418 56.1366 109.852 57.5502C109.481 57.7508 109.31 58.1806 109.443 58.5818L109.804 59.7184L114.413 59.1167Z" fill="#2D334A"/>
<path d="M109.879 62.8135C110.64 64.38 111.39 65.6121 112.645 65.9751C113.082 66.1088 113.595 66.1661 114.156 66.0706C114.498 66.0133 114.869 65.8891 115.23 65.679C116.19 65.1345 116.522 64.4277 116.484 63.5872C116.446 62.6129 115.914 61.4668 115.277 60.1582C114.08 57.7034 112.255 57.0539 110.773 57.7894C109.281 58.5249 108.682 60.3683 109.879 62.8135Z" fill="#DB957F"/>
<path d="M109.445 62.412L112.268 61.9727C112.325 62.3547 112.838 66.0512 112.781 67.4648C112.695 67.8946 112.002 68.1334 111.222 67.9997C110.529 67.866 110.006 67.4744 109.958 67.0827C109.997 66.2326 109.664 63.7683 109.445 62.412Z" fill="#DB957F"/>
<path d="M108.909 63.9976C108.909 63.9976 109.66 63.9785 110.031 63.1953C110.506 62.1637 110.639 60.2343 110.563 59.4033C110.43 57.9324 109.916 57.7031 109.916 57.7031C109.916 57.7031 107.379 58.7633 107.113 59.814C106.704 61.39 108.909 63.9976 108.909 63.9976Z" fill="#2D334A"/>
<path d="M110.175 61.1992L111.914 64.7811C112.105 65.1536 112.494 65.3828 112.912 65.3637L113.387 65.335C113.682 65.3255 113.891 65.0389 113.815 64.7524L113.616 63.9596C113.578 63.7877 113.654 63.6062 113.806 63.5107L115.355 62.5937C115.516 62.4982 115.735 62.5269 115.858 62.6702L116.4 63.2624C116.932 63.845 116.828 64.7715 116.172 65.2109L115.269 65.8317C115.07 65.9654 114.851 66.0514 114.623 66.0801C114.604 66.0801 114.585 66.0801 114.566 66.0801H114.537L114.167 66.0992L112.95 66.166C112.219 66.2042 111.525 65.8031 111.202 65.1345L109.453 61.5526L110.175 61.1992Z" fill="#2D334A"/>
<path d="M108.82 63.426C109.077 63.9513 109.932 64.3811 110.312 64.1901C110.702 63.9991 110.588 63.5215 110.331 62.9962C110.075 62.4613 109.524 62.1174 109.143 62.2989C108.754 62.4899 108.564 62.8911 108.82 63.426Z" fill="#DB957F"/>
<path d="M110.134 58.9237L111.712 58.1596C112.244 57.9017 112.843 57.8444 113.413 58.0068L114.183 58.2169L112.738 57.0898L111.237 57.2236L109.688 58.1214L110.134 58.9237Z" fill="#2D334A"/>
<path d="M112.205 69.1758C113.184 71.2485 113.574 72.9964 113.336 75.3461C113.108 77.7053 113.773 80.7236 114.933 82.8632C114.562 83.398 114.182 83.8947 113.802 84.4105C113.079 84.0953 112.395 83.7228 111.701 83.3789C111.093 80.6281 111.103 78.1829 111.711 75.2983C112.044 73.7319 111.834 71.1147 111.445 69.3859C111.701 69.2808 111.949 69.2713 112.205 69.1758Z" fill="#4B7FA4"/>
<path d="M106.087 92.8603C105.716 93.4048 105.621 94.0925 105.821 94.7133C106.344 96.318 107.436 99.3076 108.387 99.6993C109.698 100.253 108.795 94.8948 106.306 92.5547L106.087 92.8603Z" fill="#DB957F"/>
<path d="M105.678 94.0088C102.589 91.6496 96.6591 85.5079 95.3857 83.3875C94.3403 81.63 95.4142 81.0187 95.4522 80.9805C95.8704 80.5125 97.0488 80.5602 97.5524 81.1047L107.018 92.7098L105.678 94.0088Z" fill="#0A193A"/>
<path d="M165.145 88.5273C164.793 88.6611 164.479 88.8903 164.261 89.196C163.348 90.4472 161.723 92.8542 161.932 93.7807C162.189 94.8696 164.774 92.4339 165.762 89.7595L165.145 88.5273Z" fill="#DB957F"/>
<path d="M165.047 88.355L165.817 89.8832L168.154 88.8517L166.795 87.1133C166.206 87.524 165.627 87.9443 165.047 88.355Z" fill="#828282"/>
<path d="M227.049 109.061H222.772L221.461 103.664H228.36L227.049 109.061Z" fill="#292B3B"/>
<path fill-rule="evenodd" clip-rule="evenodd" d="M228.207 107.154C228.086 107.154 227.975 107.128 227.874 107.077C227.399 106.81 227.351 105.998 227.77 105.215C227.969 104.861 228.216 104.603 228.482 104.479C228.758 104.345 229.043 104.345 229.29 104.479C229.537 104.622 229.689 104.861 229.727 105.157C229.765 105.463 229.68 105.807 229.49 106.16C229.157 106.781 228.644 107.154 228.207 107.154ZM228.891 104.708C228.802 104.708 228.714 104.731 228.625 104.775C228.416 104.88 228.226 105.081 228.064 105.377C227.903 105.683 227.808 106.007 227.817 106.284C227.827 106.619 227.96 106.733 228.036 106.781C228.112 106.829 228.292 106.877 228.568 106.705C228.805 106.552 229.033 106.304 229.195 106.007C229.357 105.711 229.423 105.434 229.395 105.205C229.376 105.005 229.281 104.861 229.128 104.775C229.052 104.731 228.973 104.708 228.891 104.708Z" fill="#292B3B"/>
<path d="M223.891 106.073H223.758V103.656H223.891V106.073Z" fill="#88AEBC"/>
<path d="M224.281 105.738H223.387L223.055 106.092V107.534H224.575V106.092L224.281 105.738Z" fill="#DB957F"/>
<path d="M233.206 165.281C234.071 165.281 234.793 165.864 235.021 166.657H231.391C231.619 165.864 232.35 165.281 233.206 165.281Z" fill="#555A6C"/>
<path d="M224.358 164.633C225.631 164.633 226.705 165.483 227.038 166.658H221.688C222.02 165.483 223.094 164.633 224.358 164.633Z" fill="#555A6C"/>
<path d="M232.656 166.657C232.247 165.234 230.622 164.164 228.683 164.164C226.745 164.164 225.12 165.234 224.711 166.657H232.656Z" fill="#555A6C"/>
<path d="M220.403 157.296C220.688 157.163 221.021 157.296 221.144 157.583C221.201 157.707 221.211 157.85 221.173 157.975C221.686 158.385 222.171 158.834 222.627 159.293C222.494 158.777 222.332 158.003 222.332 157.22C222.18 157.172 222.057 157.067 221.99 156.914C221.867 156.628 222 156.293 222.275 156.169C222.56 156.036 222.893 156.169 223.017 156.456C223.15 156.742 223.017 157.077 222.731 157.201C222.7 157.214 222.668 157.223 222.636 157.23C222.646 158.404 223.017 159.598 223.083 159.78C224.043 160.84 224.813 161.919 225.373 162.789C226.381 164.345 226.922 165.558 226.932 165.578L226.656 165.702C226.647 165.683 226.115 164.489 225.117 162.951C224.822 162.492 224.461 161.967 224.043 161.423C223.824 161.384 223.017 161.298 221.952 161.547C221.962 161.776 221.838 161.996 221.61 162.091C221.334 162.225 221.002 162.091 220.869 161.805C220.745 161.518 220.878 161.184 221.163 161.06C221.411 160.945 221.696 161.041 221.848 161.251C222.693 161.06 223.387 161.06 223.786 161.088C223.017 160.114 222.085 159.102 221.011 158.232C220.967 158.271 220.916 158.302 220.859 158.328C220.574 158.452 220.242 158.328 220.118 158.041C219.995 157.755 220.118 157.421 220.403 157.296Z" fill="#555A6C"/>
<path d="M227.544 160.756C227.354 160.651 226.623 160.278 225.539 160.125C225.473 160.345 225.283 160.517 225.036 160.527C224.722 160.546 224.465 160.307 224.446 159.992C224.427 159.686 224.665 159.419 224.979 159.399C225.245 159.38 225.482 159.562 225.549 159.82C226.404 159.934 227.06 160.183 227.421 160.345C227.041 159.17 226.528 157.89 225.824 156.696C225.767 156.716 225.71 156.728 225.653 156.735C225.34 156.754 225.074 156.515 225.055 156.2C225.045 155.894 225.283 155.627 225.587 155.608C225.9 155.588 226.166 155.827 226.185 156.142C226.185 156.276 226.147 156.41 226.071 156.515C226.404 157.088 226.699 157.671 226.965 158.263C227.022 157.738 227.145 156.954 227.411 156.219C227.297 156.123 227.212 155.98 227.202 155.808C227.193 155.493 227.43 155.235 227.735 155.216C228.048 155.197 228.314 155.436 228.333 155.751C228.343 156.056 228.105 156.324 227.801 156.343C227.763 156.343 227.728 156.34 227.697 156.333C227.288 157.441 227.231 158.693 227.221 158.884C227.744 160.211 228.096 161.501 228.314 162.504C228.704 164.319 228.789 165.656 228.799 165.665L228.495 165.684C228.495 165.675 228.409 164.366 228.02 162.571C227.896 162.036 227.744 161.415 227.544 160.756Z" fill="#555A6C"/>
<path d="M81.173 156.449C79.814 156.449 78.6641 157.366 78.3125 158.617H84.0335C83.6724 157.366 82.532 156.449 81.173 156.449Z" fill="#8B8F9B"/>
<path d="M95.1162 155.426C93.1205 155.426 91.4289 156.773 90.9062 158.616H99.3357C98.813 156.773 97.1214 155.426 95.1162 155.426Z" fill="#8B8F9B"/>
<path d="M82.0391 158.617C82.6853 156.372 85.2417 154.691 88.3017 154.691C91.3713 154.691 93.9277 156.372 94.5739 158.617H82.0391Z" fill="#8B8F9B"/>
<defs>
<linearGradient id="paint0_linear_1256_43568" x1="243.078" y1="108.022" x2="265.527" y2="109.406" gradientUnits="userSpaceOnUse">
<stop stop-color="#9BCCEF"/>
<stop offset="0.38" stop-color="#87C2EC"/>
<stop offset="1" stop-color="#3A627F"/>
</linearGradient>
</defs>
</svg>
