<svg width="611" height="586" viewBox="0 0 611 586" fill="none" xmlns="http://www.w3.org/2000/svg">
<path d="M167.417 688.254C252.447 629.802 386.965 608.818 610.43 585.999C383.96 562.868 248.765 541.649 163.995 481.376C187.556 431.94 227.183 375.752 282.928 304.07C287.13 298.684 280.053 291.789 274.771 296.121C205.366 352.946 150.687 393.692 102.265 418.592C43.8005 333.562 22.8292 199.044 0.010498 -24.4336C-23.1204 202.049 -44.3519 337.231 -104.625 422.014C-154.061 398.454 -210.249 358.827 -281.919 303.068C-287.305 298.879 -294.2 305.943 -289.88 311.225C-233.042 380.644 -192.309 435.323 -167.409 483.744C-252.439 542.196 -386.957 563.18 -610.422 585.999C-383.952 609.13 -248.757 630.348 -163.987 690.621C-187.548 740.057 -227.162 796.246 -282.92 867.928C-287.122 873.314 -280.045 880.209 -274.763 875.89C-205.358 819.051 -150.679 778.318 -102.257 753.405C-43.7925 838.435 -22.8212 972.967 0.0234985 1196.43C23.1544 969.949 44.3729 834.767 104.646 749.997C154.082 773.544 210.27 813.171 281.94 868.93C287.326 873.119 294.221 866.055 289.901 860.773C233.063 791.354 192.33 736.675 167.43 688.254" fill="white"/>
</svg>
