<svg width="389" height="332" viewBox="0 0 389 332" fill="none" xmlns="http://www.w3.org/2000/svg">
<path d="M-2.17993 -145.47C-47.1199 -210.82 -63.24 -314.23 -80.78 -486C-98.57 -311.92 -114.88 -208 -161.21 -142.84C-199.21 -160.94 -242.4 -191.4 -297.49 -234.26C-301.63 -237.48 -306.93 -232.05 -303.61 -227.99C-259.92 -174.63 -228.61 -132.6 -209.47 -95.38C-274.83 -50.45 -378.23 -34.33 -550 -16.78C-375.92 1 -272.05 17.31 -206.84 63.64C-224.95 101.64 -255.41 144.83 -298.26 199.92C-301.49 204.07 -296.05 209.37 -291.99 206.04C-238.64 162.36 -196.61 131.04 -159.39 111.9C-114.45 177.26 -98.33 280.66 -80.78 452.44C-63.01 278.35 -46.69 174.44 -0.359985 109.27C37.64 127.38 80.83 157.84 135.92 200.7C140.06 203.92 145.36 198.49 142.04 194.43C98.35 141.07 67.04 99.04 47.9 61.82C113.26 16.89 216.66 0.76001 388.43 -16.78C214.35 -34.56 110.43 -50.88 45.27 -97.21C63.38 -135.21 93.8401 -178.39 136.69 -233.49C139.92 -237.63 134.48 -242.93 130.42 -239.61C77.0701 -195.92 35.04 -164.61 -2.17993 -145.47Z" fill="#8DC6EA"/>
</svg>
