<svg width="100" height="121" viewBox="0 0 100 121" fill="none" xmlns="http://www.w3.org/2000/svg">
<path d="M-1.14577 -33.823C-12.7827 -50.7448 -16.9569 -77.5218 -21.4987 -122C-26.1053 -76.9237 -30.3287 -50.0146 -42.3255 -33.142C-52.1653 -37.8288 -63.3491 -45.7162 -77.6143 -56.8144C-78.6863 -57.6481 -80.0587 -56.2421 -79.199 -55.1908C-67.8858 -41.3737 -59.7783 -30.4905 -54.8221 -20.8527C-71.7466 -9.21854 -98.5213 -5.04442 -143 -0.500015C-97.9232 4.10394 -71.0268 8.32727 -54.1411 20.324C-58.8305 30.1637 -66.7179 41.3474 -77.8137 55.6124C-78.65 56.687 -77.2414 58.0594 -76.1901 57.1971C-62.3755 45.8866 -51.4921 37.7766 -41.8542 32.8204C-30.2173 49.7448 -26.0432 76.5192 -21.4987 121C-16.8973 75.9211 -12.6713 49.0146 -0.6745 32.1394C9.16533 36.8288 20.3491 44.7161 34.6143 55.8143C35.6863 56.6481 37.0587 55.2421 36.199 54.1908C24.8858 40.3737 16.7783 29.4905 11.8221 19.8527C28.7466 8.21851 55.5213 4.0418 100 -0.500015C54.9232 -5.10397 28.0138 -9.32988 11.1411 -21.3266C15.8305 -31.1663 23.718 -42.3474 34.8137 -56.615C35.6501 -57.687 34.2414 -59.0594 33.1901 -58.1997C19.3755 -46.8866 8.4921 -38.7792 -1.14577 -33.823Z" fill="#8DC6EA"/>
</svg>
