<svg width="388" height="332" viewBox="0 0 388 332" fill="none" xmlns="http://www.w3.org/2000/svg">
<path d="M547.82 220.53C502.88 155.18 486.76 51.77 469.22 -120C451.43 54.08 435.12 158 388.79 223.16C350.79 205.06 307.6 174.6 252.51 131.74C248.37 128.52 243.07 133.95 246.39 138.01C290.08 191.37 321.39 233.4 340.53 270.62C275.17 315.55 171.77 331.67 0 349.22C174.08 367 277.95 383.31 343.16 429.64C325.05 467.64 294.59 510.83 251.74 565.92C248.51 570.07 253.95 575.37 258.01 572.04C311.36 528.36 353.39 497.04 390.61 477.9C435.55 543.26 451.67 646.66 469.22 818.44C486.99 644.35 503.31 540.44 549.64 475.27C587.64 493.38 630.83 523.84 685.92 566.7C690.06 569.92 695.36 564.49 692.04 560.43C648.35 507.07 617.04 465.04 597.9 427.82C663.26 382.89 766.66 366.76 938.43 349.22C764.35 331.44 660.43 315.12 595.27 268.79C613.38 230.79 643.84 187.61 686.69 132.51C689.92 128.37 684.48 123.07 680.42 126.39C627.07 170.08 585.04 201.39 547.82 220.53Z" fill="#8DC6EA"/>
</svg>
