<svg width="101" height="122" viewBox="0 0 101 122" fill="none" xmlns="http://www.w3.org/2000/svg">
<path d="M141.854 88.177C130.217 71.2552 126.043 44.4782 121.501 0C116.895 45.0763 112.671 71.9854 100.674 88.858C90.8347 84.1712 79.6509 76.2838 65.3857 65.1856C64.3137 64.3519 62.9413 65.7579 63.801 66.8092C75.1142 80.6263 83.2217 91.5095 88.1779 101.147C71.2534 112.781 44.4787 116.956 0 121.5C45.0768 126.104 71.9732 130.327 88.8589 142.324C84.1695 152.164 76.2821 163.347 65.1863 177.612C64.35 178.687 65.7586 180.059 66.8099 179.197C80.6245 167.887 91.5079 159.777 101.146 154.82C112.783 171.745 116.957 198.519 121.501 243C126.103 197.921 130.329 171.015 142.326 154.139C152.165 158.829 163.349 166.716 177.614 177.814C178.686 178.648 180.059 177.242 179.199 176.191C167.886 162.374 159.778 151.49 154.822 141.853C171.747 130.219 198.521 126.042 243 121.5C197.923 116.896 171.014 112.67 154.141 100.673C158.831 90.8337 166.718 79.6526 177.814 65.385C178.65 64.313 177.241 62.9406 176.19 63.8003C162.375 75.1134 151.492 83.2208 141.854 88.177Z" fill="#8DC6EA"/>
</svg>
