<svg width="300" height="194" viewBox="0 0 300 194" fill="none" xmlns="http://www.w3.org/2000/svg">
<g clip-path="url(#clip0_1256_43062)">
<path d="M274.159 179.881C289.931 167.019 299.992 147.472 299.992 125.586C299.992 86.8658 268.516 55.4758 229.69 55.4758C228.23 55.4758 226.783 55.5175 225.349 55.6009C226.304 53.167 226.825 50.5119 226.825 47.7414C226.825 35.7164 217.053 25.9714 204.995 25.9714C200.722 25.9714 196.748 27.1932 193.381 29.3095C181.13 20.1129 165.889 14.668 149.384 14.668C117.195 14.668 89.8571 35.3605 80.0083 64.1338C79.8989 64.1338 79.7896 64.1338 79.6803 64.1338C59.3266 64.1338 42.8218 80.5839 42.8218 100.892C42.8218 101.725 42.8507 102.556 42.9086 103.383C18.0886 110.762 -0.0078125 133.696 -0.0078125 160.843C-0.0078125 167.5 1.08222 173.898 3.08865 179.881H274.159Z" fill="#D5E8FA"/>
<path d="M115.968 96.8124C95.0931 96.8124 77.0835 78.1785 71.6719 71.9736C77.0931 65.788 95.1413 47.1445 115.968 47.1445C136.842 47.1445 154.852 65.7784 160.264 71.9736C154.842 78.1689 136.804 96.8124 115.968 96.8124Z" fill="white"/>
<path d="M100.561 56.6091C92.0527 65.0939 92.0527 78.8601 100.561 87.3449L131.39 56.6091C122.873 48.1147 109.078 48.1147 100.561 56.6091Z" fill="#6C8ED9"/>
<path d="M131.392 56.6094L100.562 87.3451C109.08 95.8299 122.874 95.8299 131.392 87.3451C139.9 78.8603 139.9 65.0942 131.392 56.6094Z" fill="#5B657B"/>
<path d="M108.008 71.9755C108.008 67.5888 111.567 64.0391 115.966 64.0391C120.365 64.0391 123.924 67.5888 123.924 71.9755C123.924 76.3622 120.365 79.9216 115.966 79.9216C111.567 79.9216 108.008 76.3622 108.008 71.9755Z" fill="#383E56"/>
<path d="M108.008 65.6716C108.008 63.9496 109.407 62.5547 111.124 62.5547C112.85 62.5547 114.249 63.9496 114.249 65.6716C114.249 67.3935 112.85 68.7884 111.124 68.7884C109.407 68.7884 108.008 67.3935 108.008 65.6716Z" fill="#B2B1C4"/>
<path d="M225.869 94.6982C225.869 94.6982 227.209 91.918 225.965 88.3779C224.73 84.8377 227.605 83.3851 228.994 84.578C230.393 85.7709 230.952 89.6862 225.869 94.6982Z" fill="#8E95A4"/>
<path d="M223.086 96.6978C223.086 96.6978 222.343 93.706 219.121 91.7627C215.899 89.8291 217.182 86.8854 219.025 86.9143C220.857 86.9431 223.8 89.6079 223.086 96.6978Z" fill="#8E95A4"/>
<path d="M223.383 97.0247C223.383 97.0247 226.47 97.0728 229.084 99.7664C231.708 102.46 234.293 100.546 233.849 98.7659C233.405 96.9862 230.145 94.7352 223.383 97.0247Z" fill="#8E95A4"/>
<path d="M219.094 101.913C219.094 101.913 222.19 101.961 224.804 104.655C227.428 107.349 230.013 105.444 229.57 103.664C229.126 101.884 225.865 99.6237 219.094 101.913Z" fill="#8E95A4"/>
<path d="M216.375 107.292C216.375 107.292 219.471 107.34 222.086 110.034C224.709 112.727 227.295 110.823 226.851 109.043C226.407 107.263 223.147 105.003 216.375 107.292Z" fill="#8E95A4"/>
<path d="M213.305 114.091C213.305 114.091 216.392 114.139 219.006 116.833C221.629 119.526 224.215 117.612 223.771 115.832C223.327 114.053 220.067 111.802 213.305 114.091Z" fill="#8E95A4"/>
<path d="M219.125 101.874C219.125 101.874 218.382 98.8914 215.16 96.9481C211.938 95.0049 213.221 92.0612 215.064 92.0901C216.896 92.1285 219.839 94.7836 219.125 101.874Z" fill="#8E95A4"/>
<path d="M215.851 107.772C215.851 107.772 215.109 104.78 211.887 102.837C208.665 100.894 209.948 97.9502 211.79 97.9887C213.623 98.0175 216.565 100.682 215.851 107.772Z" fill="#8E95A4"/>
<path d="M213.094 113.948C213.094 113.948 212.351 110.956 209.129 109.013C205.907 107.079 207.19 104.135 209.032 104.164C210.865 104.193 213.807 106.858 213.094 113.948Z" fill="#8E95A4"/>
<path d="M207.275 142.364C207.439 142.355 207.574 142.22 207.574 142.056C207.584 141.98 207.806 134.091 210.285 124.231C212.571 115.14 217.288 102.461 226.799 93.6681C226.925 93.5526 226.934 93.3506 226.819 93.2159C226.693 93.0909 226.491 93.0813 226.365 93.2063C216.738 102.105 211.973 114.909 209.667 124.086C207.169 134.014 206.947 141.96 206.938 142.037C206.938 142.22 207.073 142.364 207.256 142.364C207.262 142.364 207.269 142.364 207.275 142.364Z" fill="#8E95A4"/>
<path d="M241.242 118.271C241.242 118.271 242.998 116.405 242.911 113.288C242.815 110.171 245.458 109.738 246.258 111.028C247.069 112.326 246.528 115.568 241.242 118.271Z" fill="#8E95A4"/>
<path d="M238.518 119.158C238.518 119.158 238.672 116.599 236.608 114.262C234.544 111.924 236.299 109.904 237.746 110.394C239.203 110.875 240.862 113.713 238.518 119.158Z" fill="#8E95A4"/>
<path d="M238.695 119.497C238.695 119.497 241.126 120.305 242.525 123.094C243.933 125.884 246.461 125.018 246.557 123.489C246.654 121.969 244.628 119.371 238.695 119.497Z" fill="#8E95A4"/>
<path d="M234.047 122.305C234.047 122.305 236.487 123.113 237.886 125.903C239.285 128.693 241.822 127.817 241.918 126.297C242.005 124.777 239.989 122.18 234.047 122.305Z" fill="#8E95A4"/>
<path d="M230.555 125.883C230.555 125.883 232.986 126.701 234.394 129.491C235.793 132.281 238.32 131.405 238.416 129.885C238.513 128.365 236.497 125.758 230.555 125.883Z" fill="#8E95A4"/>
<path d="M226.422 130.508C226.422 130.508 228.862 131.326 230.261 134.106C231.66 136.896 234.187 136.03 234.284 134.51C234.38 132.99 232.364 130.383 226.422 130.508Z" fill="#8E95A4"/>
<path d="M234.096 122.287C234.096 122.287 234.26 119.728 232.186 117.39C230.122 115.043 231.877 113.032 233.334 113.513C234.781 114.004 236.44 116.842 234.096 122.287Z" fill="#8E95A4"/>
<path d="M230.021 126.131C230.021 126.131 230.185 123.572 228.12 121.234C226.046 118.897 227.812 116.876 229.259 117.367C230.705 117.848 232.365 120.686 230.021 126.131Z" fill="#8E95A4"/>
<path d="M226.292 130.346C226.292 130.346 226.446 127.787 224.382 125.449C222.317 123.111 224.073 121.091 225.52 121.582C226.967 122.063 228.636 124.901 226.292 130.346Z" fill="#8E95A4"/>
<path d="M214.55 151.434C214.685 151.463 214.82 151.395 214.869 151.261C214.888 151.203 217.039 145.008 221.486 137.802C225.576 131.165 232.492 122.285 242.235 117.687C242.37 117.629 242.428 117.475 242.361 117.341C242.303 117.206 242.148 117.148 242.013 117.216C232.145 121.862 225.152 130.828 221.023 137.533C216.557 144.787 214.386 151.03 214.367 151.088C214.319 151.232 214.386 151.376 214.531 151.424C214.537 151.424 214.544 151.427 214.55 151.434Z" fill="#8E95A4"/>
<path d="M166.427 137.535C157.996 137.535 150.897 143.172 148.688 150.868H184.157C181.948 143.172 174.848 137.535 166.427 137.535Z" fill="#8E95A4"/>
<path d="M214.792 137.535C206.371 137.535 199.262 143.172 197.062 150.868H232.522C230.323 143.172 223.214 137.535 214.792 137.535Z" fill="#8E95A4"/>
<path d="M191.751 131.82C179.722 131.82 169.574 139.872 166.43 150.868H217.082C213.928 139.872 203.78 131.82 191.751 131.82Z" fill="#8E95A4"/>
<path d="M230.814 161.766H69.1225C66.1322 161.766 63.7109 159.352 63.7109 156.369C63.7109 153.387 66.1322 150.973 69.1225 150.973H230.814C233.804 150.973 236.225 153.387 236.225 156.369C236.225 159.352 233.804 161.766 230.814 161.766Z" fill="#16357A"/>
<path d="M108.727 18.707C104.154 18.707 100.296 21.7566 99.1094 25.9316H118.344C117.148 21.7566 113.289 18.707 108.727 18.707Z" fill="#183B87"/>
<path d="M134.969 18.707C130.397 18.707 126.548 21.7566 125.352 25.9316H144.586C143.39 21.7566 139.532 18.707 134.969 18.707Z" fill="#183B87"/>
<path d="M122.666 15.957C116.135 15.957 110.637 20.3245 108.93 26.2792H136.402C134.695 20.3245 129.187 15.957 122.666 15.957Z" fill="#183B87"/>
<path d="M224.123 147.27C219.185 147.27 215.027 150.569 213.734 155.081H234.503C233.22 150.569 229.053 147.27 224.123 147.27Z" fill="#A6A3CC"/>
<path d="M252.459 147.27C247.53 147.27 243.363 150.569 242.07 155.081H262.848C261.556 150.569 257.398 147.27 252.459 147.27Z" fill="#A6A3CC"/>
<path d="M238.953 143.922C231.902 143.922 225.96 148.636 224.117 155.081H253.789C251.947 148.636 245.995 143.922 238.953 143.922Z" fill="#A6A3CC"/>
<path d="M28.5895 30.6367C19.9464 30.6367 12.6635 36.4087 10.4062 44.3067H46.7728C44.5156 36.4087 37.2326 30.6367 28.5895 30.6367Z" fill="white"/>
<path d="M78.1911 30.6367C69.548 30.6367 62.265 36.4087 60.0078 44.3067H96.3744C94.1171 36.4087 86.8342 30.6367 78.1911 30.6367Z" fill="white"/>
<path d="M54.5634 24.7773C42.2162 24.7773 31.8174 33.0313 28.5859 44.3059H80.5409C77.3094 33.0313 66.901 24.7773 54.5634 24.7773Z" fill="white"/>
<path d="M36.8851 40.4492C32.6215 40.4492 29.033 43.2967 27.9141 47.1928H45.8658C44.7469 43.2967 41.1488 40.4492 36.8851 40.4492Z" fill="#69B3E7"/>
<path d="M61.3695 40.4492C57.1058 40.4492 53.5174 43.2967 52.3984 47.1928H70.3406C69.2312 43.2967 65.6332 40.4492 61.3695 40.4492Z" fill="#69B3E7"/>
<path d="M49.7028 37.5625C43.6159 37.5625 38.4745 41.6317 36.8828 47.1921H62.5227C60.931 41.6317 55.7896 37.5625 49.7028 37.5625Z" fill="#69B3E7"/>
<path d="M215.482 160.602C218.057 160.602 220.228 162.324 220.903 164.671H210.07C210.736 162.324 212.906 160.602 215.482 160.602Z" fill="#383E56"/>
<path d="M200.695 160.602C203.27 160.602 205.441 162.324 206.106 164.671H195.273C195.949 162.324 198.119 160.602 200.695 160.602Z" fill="#383E56"/>
<path d="M207.738 158.852C211.413 158.852 214.52 161.314 215.475 164.672H199.992C200.957 161.314 204.063 158.852 207.738 158.852Z" fill="#383E56"/>
<path d="M103.838 118.94C101.156 119.758 99.0632 121.143 98.1178 121.845C98.0986 121.768 98.0793 121.688 98.06 121.605C97.5487 119.556 96.9121 117.266 96.1307 114.803C97.2015 114.592 99.7577 113.966 102.256 112.446C105.536 110.445 107.484 107.665 107.484 107.665C107.484 107.665 104.108 108.117 100.828 110.109C98.4072 111.581 96.7191 113.476 95.9957 114.38C95.3397 112.341 94.5873 110.195 93.7191 107.983C94.732 107.492 96.9989 106.241 98.9957 104.164C101.658 101.393 102.825 98.2088 102.825 98.2088C102.825 98.2088 99.6805 99.5075 97.0182 102.268C95.1564 104.212 94.0278 106.347 93.5166 107.463C92.6387 105.26 91.6645 103 90.5551 100.729C91.4812 100.085 93.5358 98.507 95.195 96.1501C97.404 93.0044 98.0696 89.6759 98.0696 89.6759C98.0696 89.6759 95.1564 91.4364 92.9474 94.5821C91.4233 96.7466 90.642 98.9977 90.2947 100.191C89.5423 98.661 88.732 97.1314 87.8638 95.6114C88.4812 94.6591 89.7738 92.4368 90.4104 89.6374C91.269 85.8953 90.6227 82.5571 90.6227 82.5571C90.6227 82.5571 88.5969 85.2892 87.7384 89.0314C87.2175 91.3017 87.2561 93.4277 87.3622 94.736C86.7449 93.6778 86.0953 92.626 85.4137 91.5807C85.076 90.3108 84.4008 88.2906 83.1564 86.3186C81.1018 83.067 78.2851 81.1719 78.2851 81.1719C78.2851 81.1719 78.7867 84.5292 80.8413 87.7712C82.076 89.724 83.5905 91.1959 84.5937 92.052C85.2979 93.1295 85.9731 94.2165 86.6098 95.3132C85.4522 94.8515 83.195 94.0819 80.5616 93.9376C76.7223 93.7259 73.5391 94.9188 73.5391 94.9188C73.5391 94.9188 76.5777 96.4484 80.4169 96.66C83.3301 96.8235 85.867 96.179 86.9185 95.8519C87.7963 97.3815 88.6066 98.9111 89.3686 100.45C88.2207 100.325 85.6741 100.171 82.9249 100.845C79.1822 101.739 76.4812 103.808 76.4812 103.808C76.4812 103.808 79.8285 104.404 83.5712 103.5C86.4072 102.807 88.6548 101.46 89.5712 100.845C90.7095 103.173 91.7223 105.491 92.6195 107.752C91.4715 107.521 88.9732 107.165 86.195 107.579C82.3944 108.146 79.5101 109.964 79.5101 109.964C79.5101 109.964 82.7995 110.859 86.6002 110.282C89.4651 109.849 91.8092 108.714 92.7834 108.185C93.6612 110.417 94.4233 112.581 95.0889 114.63C93.9313 114.37 91.4619 113.928 88.7031 114.245C84.8831 114.678 81.941 116.381 81.941 116.381C81.941 116.381 85.1918 117.391 89.0214 116.958C91.8574 116.641 94.2111 115.611 95.2336 115.101C96.0053 117.526 96.6323 119.796 97.1436 121.816C97.1693 121.919 97.1918 122.018 97.2111 122.114C96.449 122.009 93.5262 121.682 90.3236 122.451C86.5809 123.355 83.8702 125.414 83.8702 125.414C83.8702 125.414 87.2272 126.01 90.9699 125.106C94.1725 124.337 96.6227 122.711 97.2497 122.259C99.3043 130.551 99.8156 136.467 99.8156 136.525L100.761 136.448C100.751 136.39 100.25 130.542 98.2336 122.316C99.3912 122.374 101.938 122.374 104.639 121.556C108.314 120.441 110.899 118.228 110.899 118.228C110.899 118.228 107.523 117.824 103.838 118.94Z" fill="#8E95A4"/>
<path d="M80.5841 133.55C79.031 134.588 77.9507 135.878 77.4876 136.503C77.4555 136.458 77.4265 136.41 77.4008 136.359C76.6773 135.156 75.8285 133.809 74.8638 132.386C75.5101 132.039 77.015 131.154 78.3172 129.711C80.0343 127.806 80.7481 125.652 80.7481 125.652C80.7481 125.652 78.6741 126.585 76.9571 128.489C75.7031 129.884 74.9796 131.424 74.6902 132.135C73.8799 130.962 72.9828 129.73 72.0085 128.489C72.5584 127.98 73.7738 126.739 74.6516 125.036C75.8188 122.756 75.9539 120.495 75.9539 120.495C75.9539 120.495 74.1886 121.929 73.0214 124.199C72.2015 125.796 71.8928 127.373 71.777 128.191C70.8027 126.95 69.732 125.69 68.5937 124.449C69.0568 123.862 70.0696 122.467 70.6774 120.64C71.4876 118.206 71.2754 115.955 71.2754 115.955C71.2754 115.955 69.7513 117.638 68.941 120.062C68.3815 121.736 68.314 123.333 68.3237 124.16C67.5519 123.324 66.7417 122.496 65.8928 121.698C66.105 120.967 66.5005 119.302 66.3655 117.388C66.2015 114.839 65.1404 112.828 65.1404 112.828C65.1404 112.828 64.3687 114.954 64.5423 117.513C64.6484 119.062 65.0825 120.409 65.4008 121.236C64.8028 120.678 64.1854 120.13 63.5487 119.591C63.0857 118.841 62.2754 117.677 61.0889 116.657C59.1597 114.973 56.9892 114.29 56.9892 114.29C56.9892 114.29 57.9539 116.349 59.8928 118.023C61.06 119.043 62.3044 119.687 63.1146 120.043C63.7706 120.601 64.4105 121.169 65.0343 121.746C64.195 121.669 62.613 121.611 60.9056 122.015C58.4073 122.621 56.5938 123.987 56.5938 123.987C56.5938 123.987 58.8317 124.391 61.3301 123.795C63.2208 123.333 64.7256 122.438 65.3333 122.034C66.1822 122.842 67.0021 123.66 67.7835 124.497C67.0214 124.641 65.3719 125.026 63.7417 125.979C61.523 127.277 60.1822 129.105 60.1822 129.105C60.1822 129.105 62.4491 128.845 64.6581 127.556C66.3462 126.575 67.5134 125.276 67.986 124.718C69.1629 125.988 70.2529 127.277 71.2561 128.547C70.4844 128.624 68.8156 128.865 67.1179 129.663C64.8028 130.76 63.3076 132.462 63.3076 132.462C63.3076 132.462 65.5841 132.405 67.8992 131.318C69.6548 130.49 70.9282 129.317 71.4491 128.788C72.4426 130.048 73.3397 131.289 74.1597 132.472C73.3687 132.52 71.7095 132.713 70.0118 133.444C67.6484 134.454 66.0954 136.108 66.0954 136.108C66.0954 136.108 68.3719 136.128 70.7256 135.118C72.4812 134.367 73.7931 133.261 74.3429 132.741C75.3076 134.146 76.1372 135.474 76.851 136.666C76.8896 136.731 76.9249 136.791 76.9571 136.849C76.4555 136.926 74.5166 137.272 72.6163 138.379C70.3976 139.677 69.0664 141.505 69.0664 141.505C69.0664 141.505 71.3236 141.245 73.5423 139.956C75.4426 138.85 76.6966 137.34 77.015 136.936C79.9185 141.842 81.3751 145.526 81.3944 145.565L81.9828 145.334C81.9635 145.295 80.5166 141.65 77.6516 136.782C78.404 136.599 80.0246 136.118 81.597 135.069C83.7384 133.655 84.9635 131.751 84.9635 131.751C84.9635 131.751 82.7256 132.135 80.5841 133.55Z" fill="#8E95A4"/>
<path d="M84.795 142.113C79.0168 142.113 74.1551 145.981 72.6406 151.252H96.9397C95.4252 145.981 90.5635 142.113 84.795 142.113Z" fill="#8E95A4"/>
<path d="M117.926 142.113C112.157 142.113 107.286 145.981 105.781 151.252H130.08C128.566 145.981 123.704 142.113 117.926 142.113Z" fill="#8E95A4"/>
<path d="M102.133 138.207C93.8952 138.207 86.9402 143.719 84.7891 151.252H119.487C117.336 143.719 110.381 138.207 102.133 138.207Z" fill="#8E95A4"/>
<path d="M51.4896 152.195C48.8369 152.195 46.6086 153.965 45.9141 156.39H57.0652C56.3803 153.965 54.1424 152.195 51.4896 152.195Z" fill="#383E56"/>
<path d="M66.7162 152.195C64.0635 152.195 61.8255 153.965 61.1406 156.39H72.2918C71.5972 153.965 69.3689 152.195 66.7162 152.195Z" fill="#383E56"/>
<path d="M59.4444 150.395C55.6631 150.395 52.4701 152.934 51.4766 156.388H67.4123C66.4283 152.934 63.2354 150.395 59.4444 150.395Z" fill="#383E56"/>
<path d="M55.3994 88.3594C53.036 88.3594 51.0392 89.9467 50.4219 92.1015H60.3769C59.7595 89.9467 57.7627 88.3594 55.3994 88.3594Z" fill="#F2BF80"/>
<path d="M68.9853 88.3594C66.622 88.3594 64.6252 89.9467 64.0078 92.1015H73.9628C73.3454 89.9467 71.3486 88.3594 68.9853 88.3594Z" fill="#F2BF80"/>
<path d="M62.5078 86.7617C59.1316 86.7617 56.2859 89.0224 55.3984 92.1008H69.6171C68.7393 89.0224 65.8936 86.7617 62.5078 86.7617Z" fill="#F2BF80"/>
<path d="M216.198 64.9609C210.506 64.9609 205.712 68.7608 204.227 73.9556H228.169C226.683 68.7608 221.889 64.9609 216.198 64.9609Z" fill="#183B87"/>
<path d="M248.862 64.9609C243.17 64.9609 238.376 68.7608 236.891 73.9556H260.833C259.347 68.7608 254.553 64.9609 248.862 64.9609Z" fill="#183B87"/>
<path d="M233.306 61.1016C225.184 61.1016 218.325 66.5368 216.203 73.9538H250.409C248.287 66.5368 241.428 61.1016 233.306 61.1016Z" fill="#183B87"/>
<path d="M102.443 149.973C100.542 149.973 98.9313 151.242 98.4297 152.984H106.455C105.954 151.242 104.353 149.973 102.443 149.973Z" fill="#666A7D"/>
<path d="M113.396 149.973C111.486 149.973 109.884 151.242 109.383 152.984H117.409C116.907 151.242 115.296 149.973 113.396 149.973Z" fill="#666A7D"/>
<path d="M108.167 148.684C105.447 148.684 103.151 150.502 102.438 152.984H113.897C113.193 150.502 110.897 148.684 108.167 148.684Z" fill="#666A7D"/>
<path d="M97.0054 146.963L91.7578 141.989L123.735 108.387L128.983 113.351L97.0054 146.963Z" fill="#3B3E54"/>
<path d="M83.3395 156.072C81.0147 153.879 80.9183 150.214 83.1273 147.895L109.587 120.094L117.999 128.059L91.5389 155.861C89.3395 158.179 85.6643 158.275 83.3395 156.072Z" fill="#6C8ED9"/>
<path fill-rule="evenodd" clip-rule="evenodd" d="M189.214 110.983C171.851 129.223 142.951 129.973 124.651 112.667C106.362 95.3506 105.6 66.5196 122.963 48.2802C140.327 30.0311 169.227 29.2807 187.526 46.5967C205.815 63.9126 206.578 92.734 189.214 110.983ZM186.224 108.155C202.024 91.5507 201.34 65.3267 184.69 49.5692C168.05 33.8214 141.745 34.5044 125.944 51.0988C110.153 67.7029 110.838 93.9269 127.487 109.684C144.127 125.442 170.433 124.749 186.224 108.155Z" fill="#3B3E54"/>
<path opacity="0.2" d="M184.685 49.5692C168.045 33.8213 141.74 34.5043 125.939 51.0987C110.148 67.7028 110.833 93.9268 127.482 109.684C144.122 125.442 170.428 124.749 186.219 108.155C202.019 91.5507 201.335 65.3267 184.685 49.5692Z" fill="#666A7D"/>
<path d="M180.1 61.2855H151.422V32.6758H180.1V61.2855Z" fill="#2357C6"/>
<path d="M155.82 43.3261L165.303 52.7825L187.595 30.5508" stroke="#69B3E7" stroke-width="1.86198" stroke-linecap="round" stroke-linejoin="round"/>
<path d="M193.434 37.2461C191.35 37.2461 189.605 38.641 189.055 40.5361H197.814C197.264 38.641 195.508 37.2461 193.434 37.2461Z" fill="white"/>
<path d="M205.372 37.2461C203.288 37.2461 201.532 38.641 200.992 40.5361H209.741C209.201 38.641 207.446 37.2461 205.372 37.2461Z" fill="white"/>
<path d="M199.688 35.8398C196.717 35.8398 194.209 37.8216 193.438 40.5344H205.939C205.158 37.8216 202.659 35.8398 199.688 35.8398Z" fill="white"/>
<mask id="mask0_1256_43062" style="mask-type:luminance" maskUnits="userSpaceOnUse" x="114" y="38" width="84" height="84">
<path d="M184.695 49.569C168.049 33.8144 141.749 34.5003 125.952 51.1005C110.154 67.7007 110.842 93.9296 127.487 109.683C144.133 125.438 170.434 124.752 186.231 108.152C202.028 91.5515 201.341 65.3227 184.695 49.569Z" fill="white"/>
</mask>
<g mask="url(#mask0_1256_43062)">
<path d="M115.936 102.429C90.3342 102.429 68.2442 79.5722 61.6172 71.982C68.2538 64.3823 90.3825 41.5156 115.936 41.5156C141.537 41.5156 163.627 64.3726 170.263 71.9724C163.617 79.5626 141.489 102.429 115.936 102.429Z" fill="white"/>
<path d="M97.0383 53.1269C86.5914 63.5357 86.5914 80.4187 97.0383 90.8275L134.842 53.1269C124.395 42.7181 107.476 42.7181 97.0383 53.1269Z" fill="#5B657B"/>
<path d="M134.843 53.125L97.0391 90.8256C107.476 101.234 124.396 101.234 134.843 90.8256C145.28 80.4168 145.28 63.5338 134.843 53.125Z" fill="#3B4761"/>
<path d="M106.164 71.9737C106.164 66.5961 110.534 62.2383 115.926 62.2383C121.318 62.2383 125.688 66.5961 125.688 71.9737C125.688 77.3512 121.318 81.7187 115.926 81.7187C110.534 81.7187 106.164 77.3512 106.164 71.9737Z" fill="#383E56"/>
</g>
<path d="M184.133 114.092C184.123 114.371 184.104 114.64 184.065 114.909C183.95 115.958 183.699 116.968 183.332 117.921C183.139 118.434 182.911 118.927 182.647 119.402C182.126 120.345 181.48 121.211 180.737 121.99C180.358 122.381 179.956 122.747 179.532 123.086C178.721 123.721 177.824 124.27 176.869 124.693C176.377 124.914 175.866 125.107 175.335 125.251C174.323 125.549 173.252 125.722 172.152 125.742C171.882 125.751 171.612 125.742 171.332 125.732C171.062 125.713 170.782 125.693 170.522 125.665C169.461 125.549 168.448 125.299 167.503 124.924C166.988 124.731 166.493 124.504 166.017 124.241C165.062 123.721 164.194 123.077 163.422 122.336C163.03 121.964 162.663 121.563 162.323 121.134C161.676 120.326 161.136 119.44 160.712 118.488C160.49 117.997 160.297 117.478 160.143 116.959C159.844 115.939 159.68 114.881 159.66 113.784C159.651 113.515 159.66 113.236 159.67 112.966C159.68 112.687 159.699 112.418 159.737 112.149C159.853 111.1 160.104 110.09 160.471 109.138C160.67 108.631 160.898 108.137 161.155 107.656C161.676 106.713 162.323 105.847 163.065 105.078C163.445 104.68 163.847 104.311 164.271 103.972C165.081 103.337 165.979 102.788 166.934 102.365C167.426 102.144 167.937 101.951 168.467 101.807C169.48 101.509 170.551 101.336 171.651 101.316C171.921 101.307 172.191 101.316 172.471 101.326C172.741 101.345 173.02 101.365 173.281 101.393C174.342 101.518 175.355 101.769 176.3 102.134C176.815 102.327 177.31 102.554 177.786 102.817C178.741 103.337 179.609 103.981 180.381 104.722C180.773 105.1 181.139 105.501 181.48 105.924C182.126 106.733 182.667 107.618 183.091 108.57C183.313 109.061 183.506 109.58 183.66 110.109C183.959 111.119 184.123 112.177 184.143 113.274C184.152 113.543 184.152 113.822 184.133 114.092Z" fill="#E9EEF9"/>
<path d="M176.02 114.534L181.856 117.238L183.332 117.921C183.139 118.434 182.911 118.927 182.647 119.402L181.172 118.719L175.239 115.977L180.737 121.99C180.358 122.381 179.956 122.747 179.532 123.086L178.442 121.894L174.101 117.151L176.31 123.173L176.869 124.693C176.377 124.914 175.866 125.107 175.335 125.251L174.776 123.741L172.528 117.613L172.152 125.742C171.882 125.751 171.612 125.742 171.332 125.732C171.062 125.713 170.782 125.693 170.522 125.665L170.889 117.642L168.178 123.462L167.503 124.924C166.988 124.731 166.493 124.504 166.017 124.241L166.692 122.779L169.451 116.862L164.618 121.249L163.422 122.336C163.03 121.964 162.663 121.563 162.323 121.134L163.519 120.047L168.274 115.718L162.226 117.93L160.712 118.488C160.49 117.997 160.297 117.478 160.143 116.959L161.667 116.401L167.802 114.159L159.66 113.784C159.651 113.515 159.66 113.236 159.67 112.966C159.68 112.687 159.699 112.418 159.737 112.149L167.782 112.524L161.937 109.821L160.471 109.138C160.67 108.631 160.898 108.137 161.155 107.656L162.631 108.339L168.554 111.081L164.155 106.271L163.065 105.078C163.445 104.68 163.847 104.311 164.271 103.972L169.702 109.907L167.483 103.885L166.934 102.365C167.426 102.144 167.937 101.951 168.467 101.807L169.027 103.317L171.274 109.445L171.651 101.316C171.921 101.307 172.191 101.316 172.471 101.326C172.741 101.345 173.02 101.365 173.281 101.393L172.914 109.416L175.625 103.596L176.3 102.134C176.815 102.327 177.31 102.554 177.786 102.817L177.101 104.279L174.352 110.196L179.184 105.809L180.381 104.722C180.773 105.1 181.139 105.501 181.48 105.924L180.284 107.011L175.528 111.34L181.567 109.128L183.091 108.57C183.313 109.061 183.506 109.58 183.66 110.109L182.136 110.657L176.001 112.899L184.143 113.274C184.152 113.543 184.152 113.822 184.133 114.092C184.123 114.371 184.104 114.64 184.065 114.909L176.02 114.534Z" fill="#9AB2E5"/>
<path d="M161.277 113.042C161.547 107.193 166.525 102.672 172.39 102.941C178.255 103.21 182.788 108.174 182.518 114.014C182.248 119.863 177.271 124.394 171.406 124.115C165.541 123.845 161.007 118.891 161.277 113.042Z" fill="#2357C6"/>
<path d="M161.885 113.062C162.146 107.55 166.834 103.279 172.371 103.539C177.908 103.789 182.181 108.474 181.931 113.995C181.67 119.508 176.982 123.779 171.445 123.519C165.908 123.269 161.635 118.584 161.885 113.062Z" fill="#9AB2E5"/>
<path d="M167.514 117.864L165.942 118.846L164.688 116.845L166.202 115.912C165.401 114.44 164.929 112.824 164.919 111.65L168.035 111.207C168.064 112.487 168.488 113.959 169.173 115.055C169.761 115.998 170.176 116.219 170.514 116.008C171.768 115.229 167.34 110.37 171.054 108.062C172.655 107.071 174.739 107.388 176.514 109.514L178.067 108.552L179.311 110.553L177.787 111.496C178.347 112.612 178.713 113.805 178.761 114.892L175.694 115.392C175.588 114.103 175.25 113.035 174.71 112.169C174.102 111.188 173.62 111.053 173.282 111.265C172.086 112.006 176.504 116.874 172.839 119.153C171.295 120.106 169.269 119.827 167.514 117.864Z" fill="#2357C6"/>
<path d="M123.955 29.617C124.235 29.6555 124.505 29.6939 124.765 29.7517C125.807 29.9441 126.801 30.2711 127.717 30.7137C128.219 30.9445 128.695 31.2075 129.145 31.5025C130.052 32.0989 130.871 32.8012 131.585 33.5996C131.952 34.0037 132.289 34.4334 132.598 34.8887C133.177 35.7353 133.65 36.6684 133.997 37.6497C134.18 38.1595 134.334 38.6886 134.441 39.2177C134.662 40.2567 134.749 41.3245 134.682 42.4212C134.672 42.6905 134.643 42.9599 134.614 43.2388C134.576 43.5082 134.537 43.7776 134.479 44.0373C134.286 45.0859 133.958 46.0671 133.515 46.9906C133.283 47.4845 133.019 47.9558 132.724 48.4048C132.125 49.3187 131.421 50.1267 130.621 50.8482C130.209 51.2074 129.778 51.5409 129.328 51.8487C128.479 52.4259 127.543 52.8973 126.56 53.2532C126.048 53.4264 125.518 53.5803 124.987 53.6861C123.945 53.9074 122.875 53.994 121.775 53.9266C121.505 53.917 121.235 53.8978 120.955 53.8593C120.685 53.8304 120.415 53.7823 120.154 53.7342C119.103 53.5322 118.119 53.2051 117.193 52.7722C116.698 52.5349 116.222 52.2688 115.765 51.9738C114.859 51.3773 114.048 50.6751 113.325 49.8766C112.965 49.4726 112.63 49.0429 112.322 48.5875C111.743 47.741 111.27 46.8079 110.913 45.8266C110.74 45.3168 110.585 44.7973 110.479 44.2586C110.257 43.2292 110.171 42.1518 110.228 41.0551C110.248 40.7858 110.267 40.5164 110.306 40.247C110.334 39.9681 110.383 39.6987 110.431 39.439C110.634 38.3904 110.961 37.4092 111.396 36.4953C111.634 35.995 111.9 35.5204 112.196 35.0715C112.794 34.1672 113.498 33.3495 114.299 32.6377C114.704 32.2721 115.132 31.9354 115.582 31.6276C116.441 31.0504 117.376 30.579 118.36 30.2327C118.871 30.0499 119.392 29.896 119.933 29.7901C120.965 29.5689 122.045 29.4823 123.145 29.5496C123.415 29.5593 123.685 29.5881 123.955 29.617Z" fill="#E9EEF9"/>
<path d="M123.78 37.7181L126.924 32.1193L127.715 30.7148C128.217 30.9457 128.693 31.2086 129.143 31.5036L128.352 32.9178L125.159 38.6032L131.583 33.6008C131.95 34.0048 132.288 34.4345 132.596 34.8899L131.313 35.8807L126.239 39.8345L132.442 38.0933L133.995 37.6508C134.178 38.1606 134.333 38.6897 134.439 39.2188L132.886 39.6614L126.587 41.4314L134.68 42.4223C134.67 42.6916 134.641 42.961 134.612 43.24C134.574 43.5093 134.535 43.7787 134.477 44.0384L126.49 43.0572L132.104 46.1933L133.513 46.9918C133.281 47.4856 133.018 47.957 132.722 48.4059L131.304 47.6267L125.603 44.4329L129.625 49.5699L130.619 50.8494C130.207 51.2085 129.776 51.542 129.326 51.8498L128.333 50.58L124.368 45.5199L126.114 51.6959L126.558 53.2544C126.047 53.4275 125.516 53.5814 124.985 53.6873L124.542 52.1384L122.767 45.8662L121.773 53.9278C121.503 53.9181 121.233 53.8989 120.953 53.8604C120.683 53.8316 120.413 53.7835 120.153 53.7354L121.137 45.7604L117.992 51.3592L117.191 52.7734C116.696 52.5361 116.22 52.2699 115.764 51.9749L116.555 50.5608L119.757 44.8754L114.606 48.8869L113.323 49.8778C112.963 49.4737 112.628 49.044 112.32 48.5887L118.667 43.6536L112.474 45.3949L110.911 45.8278C110.738 45.3179 110.583 44.7984 110.477 44.2597L112.03 43.8268L118.32 42.0567L110.227 41.0563C110.246 40.7869 110.265 40.5175 110.304 40.2482C110.333 39.9692 110.381 39.6998 110.429 39.4401L118.426 40.4213L112.812 37.2852L111.394 36.4964C111.632 35.9962 111.899 35.5216 112.194 35.0726L113.612 35.8615L119.313 39.0457L115.291 33.9086L114.297 32.6388C114.702 32.2732 115.13 31.9365 115.58 31.6287L116.583 32.9081L120.538 37.9682L118.792 31.7922L118.358 30.2338C118.87 30.051 119.391 29.8971 119.931 29.7913L120.374 31.3497L122.14 37.6123L123.143 29.5508C123.413 29.5604 123.683 29.5893 123.953 29.6181C124.233 29.6566 124.503 29.6951 124.764 29.7528L123.78 37.7181Z" fill="#9AB2E5"/>
<path d="M121.159 52.2611C115.333 51.5396 111.194 46.2487 111.908 40.4382C112.632 34.6277 117.937 30.5008 123.764 31.2127C129.59 31.9342 133.728 37.2251 133.014 43.0356C132.291 48.846 126.985 52.973 121.159 52.2611Z" fill="#2357C6"/>
<path d="M121.228 51.6656C115.729 50.9922 111.823 45.9995 112.508 40.5161C113.183 35.0327 118.189 31.1366 123.688 31.81C129.186 32.4834 133.093 37.4858 132.418 42.9692C131.742 48.4526 126.736 52.3487 121.228 51.6656Z" fill="#9AB2E5"/>
<path d="M126.458 46.4214L127.317 48.0664L125.214 49.1535L124.394 47.5854C122.87 48.2684 121.22 48.6148 120.034 48.5282L119.841 45.3921C121.124 45.4594 122.619 45.1516 123.767 44.5551C124.76 44.0453 125.011 43.6509 124.828 43.2949C124.143 41.9866 118.944 46.027 116.928 42.1598C116.05 40.4859 116.532 38.4465 118.789 36.8399L117.95 35.2238L120.043 34.1367L120.873 35.724C122.03 35.2526 123.246 34.9833 124.336 35.0121L124.606 38.1001C123.313 38.1098 122.214 38.3599 121.307 38.8313C120.284 39.3604 120.111 39.8317 120.294 40.1877C120.94 41.4286 126.149 37.4075 128.146 41.2362C128.985 42.8332 128.551 44.8245 126.458 46.4214Z" fill="#2357C6"/>
<path d="M196.908 110.426C197.178 110.599 197.448 110.782 197.699 110.974C198.712 111.715 199.599 112.561 200.351 113.495C200.763 113.995 201.136 114.521 201.47 115.072C202.136 116.159 202.647 117.333 202.994 118.545C203.175 119.161 203.313 119.786 203.409 120.421C203.593 121.623 203.631 122.855 203.496 124.077C203.438 124.711 203.322 125.346 203.168 125.972C202.879 127.184 202.425 128.377 201.789 129.512C201.644 129.791 201.48 130.06 201.297 130.339C201.123 130.608 200.94 130.878 200.747 131.128C200.004 132.138 199.155 133.023 198.22 133.783C197.718 134.187 197.191 134.556 196.638 134.889C195.548 135.553 194.38 136.063 193.165 136.419C192.541 136.592 191.911 136.73 191.274 136.833C190.068 137.006 188.834 137.044 187.609 136.91C186.972 136.852 186.335 136.746 185.708 136.582C184.493 136.294 183.297 135.842 182.168 135.207C181.879 135.063 181.609 134.899 181.329 134.726C181.059 134.543 180.789 134.37 180.538 134.177C179.525 133.427 178.638 132.581 177.885 131.647C177.474 131.147 177.101 130.625 176.766 130.079C176.101 128.983 175.589 127.819 175.242 126.607C175.062 125.991 174.924 125.362 174.827 124.721C174.644 123.519 174.615 122.287 174.74 121.065C174.808 120.431 174.914 119.796 175.068 119.17C175.358 117.958 175.821 116.775 176.448 115.64C176.593 115.361 176.766 115.082 176.94 114.803C177.113 114.534 177.297 114.264 177.49 114.014C178.232 113.004 179.081 112.119 180.017 111.369C180.519 110.958 181.046 110.589 181.599 110.262C182.689 109.589 183.856 109.089 185.072 108.733C185.695 108.553 186.326 108.415 186.962 108.319C188.168 108.136 189.403 108.107 190.628 108.232C191.265 108.3 191.901 108.406 192.528 108.56C193.744 108.848 194.94 109.31 196.068 109.935C196.358 110.079 196.628 110.253 196.908 110.426Z" fill="#E9EEF9"/>
<path d="M192.586 118.961L198.798 114.603L200.361 113.496C200.773 113.997 201.145 114.523 201.48 115.074L199.908 116.171L193.609 120.606L203.004 118.547C203.184 119.163 203.322 119.788 203.419 120.423L201.557 120.837L194.139 122.462L201.625 123.761L203.506 124.078C203.448 124.713 203.332 125.348 203.178 125.974L201.297 125.656L193.695 124.338L201.798 129.514C201.654 129.793 201.49 130.062 201.306 130.341C201.133 130.61 200.949 130.88 200.756 131.13L192.75 126.022L197.129 132.227L198.229 133.785C197.727 134.189 197.2 134.558 196.647 134.891L195.547 133.333L191.1 127.041L192.76 134.555L193.174 136.421C192.551 136.594 191.92 136.732 191.284 136.835L190.869 134.968L189.239 127.57L187.946 135.036L187.618 136.911C186.982 136.854 186.345 136.748 185.718 136.584L186.046 134.709L187.358 127.128L182.178 135.209C181.888 135.064 181.618 134.901 181.338 134.728C181.068 134.545 180.798 134.372 180.547 134.179L185.67 126.185L179.457 130.553L177.895 131.649C177.483 131.149 177.11 130.626 176.776 130.081L178.338 128.975L184.647 124.55L177.113 126.204L175.252 126.608C175.072 125.993 174.933 125.364 174.837 124.723L184.117 122.693L176.631 121.394L174.75 121.067C174.818 120.432 174.924 119.798 175.078 119.172L176.959 119.499L184.56 120.808L176.457 115.642C176.602 115.363 176.776 115.084 176.949 114.805C177.123 114.535 177.306 114.266 177.499 114.016L185.506 119.124L181.126 112.929L180.027 111.37C180.528 110.96 181.055 110.591 181.609 110.264L182.708 111.823L187.155 118.114L185.496 110.591L185.081 108.735C185.705 108.555 186.335 108.417 186.972 108.321L187.377 110.178L189.017 117.585L190.309 110.12L190.637 108.234C191.274 108.302 191.911 108.408 192.538 108.561L192.219 110.447L190.898 118.027L196.078 109.937C196.367 110.081 196.637 110.255 196.917 110.428C197.187 110.601 197.457 110.784 197.708 110.976L192.586 118.961Z" fill="#2357C6"/>
<path d="M182.36 133.118C176.514 129.395 174.807 121.651 178.54 115.831C182.273 110.011 190.038 108.308 195.874 112.031C201.72 115.754 203.427 123.488 199.694 129.308C195.961 135.138 188.196 136.841 182.36 133.118Z" fill="#9AB2E5"/>
<path d="M182.736 132.521C177.228 129.01 175.617 121.709 179.138 116.206C182.659 110.713 189.981 109.106 195.499 112.618C201.007 116.129 202.618 123.44 199.097 128.933C195.576 134.426 188.254 136.033 182.736 132.521Z" fill="#2357C6"/>
<path d="M190.971 129.598L191.048 131.782L188.26 131.878L188.192 129.791C186.215 129.733 184.276 129.271 183.061 128.578L184.45 125.135C185.781 125.866 187.536 126.299 189.061 126.241C190.382 126.202 190.845 125.904 190.836 125.433C190.778 123.701 183.176 125.356 183.003 120.209C182.926 117.987 184.479 116.053 187.71 115.495L187.633 113.35L190.421 113.254L190.488 115.361C191.964 115.447 193.392 115.774 194.54 116.371L193.257 119.786C191.868 119.141 190.575 118.853 189.369 118.891C188 118.939 187.585 119.343 187.594 119.824C187.652 121.479 195.254 119.844 195.427 124.923C195.495 127.059 194.019 128.963 190.971 129.598Z" fill="#9AB2E5"/>
<path d="M166.471 99.4678L166.162 111.522C158.194 111.31 151.355 106.789 147.844 100.257L158.464 94.5039C159.988 97.3899 162.998 99.3812 166.471 99.4678Z" fill="#383E56"/>
<path d="M185.042 101.221C181.183 107.57 174.122 111.726 166.164 111.524L166.473 99.4703C166.556 99.4703 166.637 99.4703 166.714 99.4703C170.129 99.4703 173.1 97.6521 174.73 94.9297L185.042 101.221Z" fill="#666A7D"/>
<path d="M148.524 78.921C146.585 82.0378 145.418 85.6934 145.312 89.628C145.215 93.4663 146.141 97.0931 147.839 100.258L158.459 94.5053C157.784 93.2162 157.398 91.7444 157.398 90.1763C157.398 88.3581 157.919 86.6554 158.836 85.222C160.485 82.615 163.398 80.893 166.707 80.893C166.791 80.893 166.874 80.893 166.958 80.893L166.967 80.2966L167.267 68.8392C159.395 68.6372 152.402 72.6968 148.524 78.921Z" fill="#BBCBED"/>
<path d="M188.106 90.7341C188.01 94.5821 186.9 98.1607 185.038 101.22L174.727 94.9284C175.556 93.5335 176.029 91.9174 176.029 90.1762C176.029 88.5312 175.595 86.9823 174.842 85.6355L182.762 81.345L185.463 79.8828C187.247 83.0959 188.212 86.7996 188.106 90.7341Z" fill="#2357C6"/>
<path d="M167.26 68.8398L166.961 80.2972C167.231 80.1754 167.508 80.0663 167.791 79.9701C168.389 79.7681 169.035 79.6238 169.652 79.7681C170.819 80.0471 171.562 81.2784 172.729 81.567C173.617 81.7883 174.543 81.3939 175.315 80.9129C176.086 80.4319 176.81 79.8258 177.678 79.5565C179.048 79.1236 180.591 79.5853 181.72 80.4704C182.077 80.7493 182.395 81.0668 182.752 81.3458L185.453 79.8836C181.903 73.467 175.131 69.0515 167.26 68.8398Z" fill="#8987A8"/>
<path d="M182.754 81.3445L174.834 85.6349C173.271 82.8644 170.339 80.9789 166.953 80.8923L166.963 80.2959C167.233 80.174 167.509 80.065 167.792 79.9688C168.39 79.7668 169.037 79.6225 169.654 79.7668C170.821 80.0458 171.564 81.2771 172.731 81.5657C173.619 81.787 174.545 81.3925 175.316 80.9116C176.088 80.4306 176.812 79.8245 177.68 79.5551C179.05 79.1222 180.593 79.584 181.722 80.469C182.079 80.748 182.397 81.0655 182.754 81.3445Z" fill="#797794"/>
<mask id="mask1_1256_43062" style="mask-type:luminance" maskUnits="userSpaceOnUse" x="147" y="94" width="20" height="18">
<path d="M166.474 99.4688L166.158 111.52C158.194 111.312 151.36 106.792 147.844 100.259L158.468 94.5039C159.992 97.3909 162.996 99.3793 166.474 99.4688Z" fill="white"/>
</mask>
<g mask="url(#mask1_1256_43062)">
<path d="M149.594 95.0176C149.594 94.9308 149.671 94.8633 149.758 94.8633C149.845 94.8633 149.912 94.9308 149.912 95.0176C149.912 95.1044 149.845 95.1816 149.758 95.1816C149.671 95.1816 149.594 95.1044 149.594 95.0176Z" fill="white"/>
<path d="M152.555 95.0176C152.555 94.9308 152.622 94.8633 152.709 94.8633C152.805 94.8633 152.873 94.9308 152.873 95.0176C152.873 95.1044 152.805 95.1816 152.709 95.1816C152.622 95.1816 152.555 95.1044 152.555 95.0176Z" fill="white"/>
<path d="M155.516 95.0176C155.516 94.9308 155.583 94.8633 155.67 94.8633C155.757 94.8633 155.834 94.9308 155.834 95.0176C155.834 95.1044 155.757 95.1816 155.67 95.1816C155.583 95.1816 155.516 95.1044 155.516 95.0176Z" fill="white"/>
<path d="M158.477 95.0176C158.477 94.9308 158.544 94.8633 158.631 94.8633C158.718 94.8633 158.795 94.9308 158.795 95.0176C158.795 95.1044 158.718 95.1816 158.631 95.1816C158.544 95.1816 158.477 95.1044 158.477 95.0176Z" fill="white"/>
<path d="M161.438 95.0176C161.438 94.9308 161.505 94.8633 161.592 94.8633C161.679 94.8633 161.746 94.9308 161.746 95.0176C161.746 95.1044 161.679 95.1816 161.592 95.1816C161.505 95.1816 161.438 95.1044 161.438 95.0176Z" fill="white"/>
<path d="M164.391 95.0176C164.391 94.9308 164.468 94.8633 164.555 94.8633C164.641 94.8633 164.709 94.9308 164.709 95.0176C164.709 95.1044 164.641 95.1816 164.555 95.1816C164.468 95.1816 164.391 95.1044 164.391 95.0176Z" fill="white"/>
<path d="M149.594 97.6913C149.594 97.5949 149.671 97.5273 149.758 97.5273C149.845 97.5273 149.912 97.5949 149.912 97.6913C149.912 97.7781 149.845 97.8457 149.758 97.8457C149.671 97.8457 149.594 97.7781 149.594 97.6913Z" fill="white"/>
<path d="M152.555 97.6913C152.555 97.5949 152.622 97.5273 152.709 97.5273C152.805 97.5273 152.873 97.5949 152.873 97.6913C152.873 97.7781 152.805 97.8457 152.709 97.8457C152.622 97.8457 152.555 97.7781 152.555 97.6913Z" fill="white"/>
<path d="M155.516 97.6913C155.516 97.5949 155.583 97.5273 155.67 97.5273C155.757 97.5273 155.834 97.5949 155.834 97.6913C155.834 97.7781 155.757 97.8457 155.67 97.8457C155.583 97.8457 155.516 97.7781 155.516 97.6913Z" fill="white"/>
<path d="M158.477 97.6913C158.477 97.5949 158.544 97.5273 158.631 97.5273C158.718 97.5273 158.795 97.5949 158.795 97.6913C158.795 97.7781 158.718 97.8457 158.631 97.8457C158.544 97.8457 158.477 97.7781 158.477 97.6913Z" fill="white"/>
<path d="M161.438 97.6913C161.438 97.5949 161.505 97.5273 161.592 97.5273C161.679 97.5273 161.746 97.5949 161.746 97.6913C161.746 97.7781 161.679 97.8457 161.592 97.8457C161.505 97.8457 161.438 97.7781 161.438 97.6913Z" fill="white"/>
<path d="M164.391 97.6913C164.391 97.5949 164.468 97.5273 164.555 97.5273C164.641 97.5273 164.709 97.5949 164.709 97.6913C164.709 97.7781 164.641 97.8457 164.555 97.8457C164.468 97.8457 164.391 97.7781 164.391 97.6913Z" fill="white"/>
<path d="M149.594 100.355C149.594 100.269 149.671 100.191 149.758 100.191C149.845 100.191 149.912 100.269 149.912 100.355C149.912 100.442 149.845 100.51 149.758 100.51C149.671 100.51 149.594 100.442 149.594 100.355Z" fill="white"/>
<path d="M152.555 100.355C152.555 100.269 152.622 100.191 152.709 100.191C152.805 100.191 152.873 100.269 152.873 100.355C152.873 100.442 152.805 100.51 152.709 100.51C152.622 100.51 152.555 100.442 152.555 100.355Z" fill="white"/>
<path d="M155.516 100.355C155.516 100.269 155.583 100.191 155.67 100.191C155.757 100.191 155.834 100.269 155.834 100.355C155.834 100.442 155.757 100.51 155.67 100.51C155.583 100.51 155.516 100.442 155.516 100.355Z" fill="white"/>
<path d="M158.477 100.355C158.477 100.269 158.544 100.191 158.631 100.191C158.718 100.191 158.795 100.269 158.795 100.355C158.795 100.442 158.718 100.51 158.631 100.51C158.544 100.51 158.477 100.442 158.477 100.355Z" fill="white"/>
<path d="M161.438 100.355C161.438 100.269 161.505 100.191 161.592 100.191C161.679 100.191 161.746 100.269 161.746 100.355C161.746 100.442 161.679 100.51 161.592 100.51C161.505 100.51 161.438 100.442 161.438 100.355Z" fill="white"/>
<path d="M164.391 100.355C164.391 100.269 164.468 100.191 164.555 100.191C164.641 100.191 164.709 100.269 164.709 100.355C164.709 100.442 164.641 100.51 164.555 100.51C164.468 100.51 164.391 100.442 164.391 100.355Z" fill="white"/>
<path d="M149.594 103.022C149.594 102.935 149.671 102.867 149.758 102.867C149.845 102.867 149.912 102.935 149.912 103.022C149.912 103.108 149.845 103.186 149.758 103.186C149.671 103.186 149.594 103.108 149.594 103.022Z" fill="white"/>
<path d="M152.555 103.022C152.555 102.935 152.622 102.867 152.709 102.867C152.805 102.867 152.873 102.935 152.873 103.022C152.873 103.108 152.805 103.186 152.709 103.186C152.622 103.186 152.555 103.108 152.555 103.022Z" fill="white"/>
<path d="M155.516 103.022C155.516 102.935 155.583 102.867 155.67 102.867C155.757 102.867 155.834 102.935 155.834 103.022C155.834 103.108 155.757 103.186 155.67 103.186C155.583 103.186 155.516 103.108 155.516 103.022Z" fill="white"/>
<path d="M158.477 103.022C158.477 102.935 158.544 102.867 158.631 102.867C158.718 102.867 158.795 102.935 158.795 103.022C158.795 103.108 158.718 103.186 158.631 103.186C158.544 103.186 158.477 103.108 158.477 103.022Z" fill="white"/>
<path d="M161.438 103.022C161.438 102.935 161.505 102.867 161.592 102.867C161.679 102.867 161.746 102.935 161.746 103.022C161.746 103.108 161.679 103.186 161.592 103.186C161.505 103.186 161.438 103.108 161.438 103.022Z" fill="white"/>
<path d="M164.391 103.022C164.391 102.935 164.468 102.867 164.555 102.867C164.641 102.867 164.709 102.935 164.709 103.022C164.709 103.108 164.641 103.186 164.555 103.186C164.468 103.186 164.391 103.108 164.391 103.022Z" fill="white"/>
<path d="M149.594 105.686C149.594 105.599 149.671 105.531 149.758 105.531C149.845 105.531 149.912 105.599 149.912 105.686C149.912 105.772 149.845 105.85 149.758 105.85C149.671 105.85 149.594 105.772 149.594 105.686Z" fill="white"/>
<path d="M152.555 105.686C152.555 105.599 152.622 105.531 152.709 105.531C152.805 105.531 152.873 105.599 152.873 105.686C152.873 105.772 152.805 105.85 152.709 105.85C152.622 105.85 152.555 105.772 152.555 105.686Z" fill="white"/>
<path d="M155.516 105.686C155.516 105.599 155.583 105.531 155.67 105.531C155.757 105.531 155.834 105.599 155.834 105.686C155.834 105.772 155.757 105.85 155.67 105.85C155.583 105.85 155.516 105.772 155.516 105.686Z" fill="white"/>
<path d="M158.477 105.686C158.477 105.599 158.544 105.531 158.631 105.531C158.718 105.531 158.795 105.599 158.795 105.686C158.795 105.772 158.718 105.85 158.631 105.85C158.544 105.85 158.477 105.772 158.477 105.686Z" fill="white"/>
<path d="M161.438 105.686C161.438 105.599 161.505 105.531 161.592 105.531C161.679 105.531 161.746 105.599 161.746 105.686C161.746 105.772 161.679 105.85 161.592 105.85C161.505 105.85 161.438 105.772 161.438 105.686Z" fill="white"/>
<path d="M164.391 105.686C164.391 105.599 164.468 105.531 164.555 105.531C164.641 105.531 164.709 105.599 164.709 105.686C164.709 105.772 164.641 105.85 164.555 105.85C164.468 105.85 164.391 105.772 164.391 105.686Z" fill="white"/>
<path d="M149.594 108.359C149.594 108.272 149.671 108.195 149.758 108.195C149.845 108.195 149.912 108.272 149.912 108.359C149.912 108.446 149.845 108.514 149.758 108.514C149.671 108.514 149.594 108.446 149.594 108.359Z" fill="white"/>
<path d="M152.555 108.359C152.555 108.272 152.622 108.195 152.709 108.195C152.805 108.195 152.873 108.272 152.873 108.359C152.873 108.446 152.805 108.514 152.709 108.514C152.622 108.514 152.555 108.446 152.555 108.359Z" fill="white"/>
<path d="M155.516 108.359C155.516 108.272 155.583 108.195 155.67 108.195C155.757 108.195 155.834 108.272 155.834 108.359C155.834 108.446 155.757 108.514 155.67 108.514C155.583 108.514 155.516 108.446 155.516 108.359Z" fill="white"/>
<path d="M158.477 108.359C158.477 108.272 158.544 108.195 158.631 108.195C158.718 108.195 158.795 108.272 158.795 108.359C158.795 108.446 158.718 108.514 158.631 108.514C158.544 108.514 158.477 108.446 158.477 108.359Z" fill="white"/>
<path d="M161.438 108.359C161.438 108.272 161.505 108.195 161.592 108.195C161.679 108.195 161.746 108.272 161.746 108.359C161.746 108.446 161.679 108.514 161.592 108.514C161.505 108.514 161.438 108.446 161.438 108.359Z" fill="white"/>
<path d="M164.391 108.359C164.391 108.272 164.468 108.195 164.555 108.195C164.641 108.195 164.709 108.272 164.709 108.359C164.709 108.446 164.641 108.514 164.555 108.514C164.468 108.514 164.391 108.446 164.391 108.359Z" fill="white"/>
<path d="M149.594 111.025C149.594 110.939 149.671 110.871 149.758 110.871C149.845 110.871 149.912 110.939 149.912 111.025C149.912 111.112 149.845 111.18 149.758 111.18C149.671 111.18 149.594 111.112 149.594 111.025Z" fill="white"/>
<path d="M152.555 111.025C152.555 110.939 152.622 110.871 152.709 110.871C152.805 110.871 152.873 110.939 152.873 111.025C152.873 111.112 152.805 111.18 152.709 111.18C152.622 111.18 152.555 111.112 152.555 111.025Z" fill="white"/>
<path d="M155.516 111.025C155.516 110.939 155.583 110.871 155.67 110.871C155.757 110.871 155.834 110.939 155.834 111.025C155.834 111.112 155.757 111.18 155.67 111.18C155.583 111.18 155.516 111.112 155.516 111.025Z" fill="white"/>
<path d="M158.477 111.025C158.477 110.939 158.544 110.871 158.631 110.871C158.718 110.871 158.795 110.939 158.795 111.025C158.795 111.112 158.718 111.18 158.631 111.18C158.544 111.18 158.477 111.112 158.477 111.025Z" fill="white"/>
<path d="M161.438 111.025C161.438 110.939 161.505 110.871 161.592 110.871C161.679 110.871 161.746 110.939 161.746 111.025C161.746 111.112 161.679 111.18 161.592 111.18C161.505 111.18 161.438 111.112 161.438 111.025Z" fill="white"/>
<path d="M164.391 111.025C164.391 110.939 164.468 110.871 164.555 110.871C164.641 110.871 164.709 110.939 164.709 111.025C164.709 111.112 164.641 111.18 164.555 111.18C164.468 111.18 164.391 111.112 164.391 111.025Z" fill="white"/>
</g>
<mask id="mask2_1256_43062" style="mask-type:luminance" maskUnits="userSpaceOnUse" x="166" y="94" width="20" height="18">
<path d="M185.026 101.224C181.174 107.566 174.113 111.725 166.148 111.519L166.464 99.4683C166.544 99.4702 166.625 99.4712 166.706 99.4712C170.113 99.4712 173.092 97.6473 174.717 94.9258L185.026 101.224Z" fill="white"/>
</mask>
<g mask="url(#mask2_1256_43062)">
<path d="M184.126 112.88H183.75V93.0625H184.126V112.88Z" fill="#54596E"/>
<path d="M182.29 112.88H181.914V93.0625H182.29V112.88Z" fill="#54596E"/>
<path d="M180.464 112.88H180.078V93.0625H180.464V112.88Z" fill="#54596E"/>
<path d="M178.618 112.88H178.242V93.0625H178.618V112.88Z" fill="#54596E"/>
<path d="M176.782 112.88H176.406V93.0625H176.782V112.88Z" fill="#54596E"/>
<path d="M174.956 112.88H174.57V93.0625H174.956V112.88Z" fill="#54596E"/>
<path d="M173.111 112.88H172.734V93.0625H173.111V112.88Z" fill="#54596E"/>
<path d="M171.282 112.88H170.906V93.0625H171.282V112.88Z" fill="#54596E"/>
<path d="M169.441 112.88H169.055V93.0625H169.441V112.88Z" fill="#54596E"/>
<path d="M167.603 112.88H167.227V93.0625H167.603V112.88Z" fill="#54596E"/>
</g>
<path d="M149.045 97.5714C148.803 97.3502 148.678 97.0231 148.697 96.696C148.765 95.8495 148.948 94.2622 149.372 93.9543C149.961 93.531 150.144 96.2535 149.189 97.6965L149.045 97.5714Z" fill="#AF7D61"/>
<path d="M148.289 96.957C148.79 97.1013 149.234 97.2168 149.774 97.3899C148.356 103.383 144.874 109.348 138.613 111.464C137.195 111.935 137.437 109.78 138.951 109.117C144.15 106.866 146.842 102.315 148.289 96.957Z" fill="white"/>
<path d="M137.859 156.139C137.82 156.139 137.782 156.136 137.743 156.129C137.444 156.091 137.232 155.812 137.28 155.504L137.83 151.57C137.869 151.271 138.148 151.06 138.457 151.098C138.756 151.137 138.968 151.416 138.93 151.724L138.37 155.658C138.341 155.927 138.12 156.12 137.859 156.139Z" fill="#AF7D61"/>
<path d="M138.529 155.398C138.375 155.533 138.076 155.629 137.728 155.639C137.439 155.639 137.169 155.572 137.005 155.475C136.937 155.437 136.86 155.475 136.851 155.543C136.773 155.928 136.629 156.803 136.899 156.832C137.246 156.861 142.185 156.947 142.214 156.716C142.282 156.101 139.793 155.562 138.529 155.398Z" fill="#6F728A"/>
<path d="M139.629 122.41L142.06 138.091L142.215 139.062L142.224 139.11C142.231 139.142 142.234 139.175 142.234 139.207C142.244 139.293 142.244 139.322 142.253 139.37V139.437V139.486L142.244 139.591L142.234 139.755L142.215 139.909C142.195 140.111 142.166 140.284 142.137 140.467C142.022 141.159 141.877 141.814 141.732 142.468C141.433 143.776 141.125 145.065 140.806 146.354L139.842 150.202C139.687 150.844 139.533 151.485 139.379 152.126C139.301 152.447 139.227 152.764 139.157 153.079C139.125 153.239 139.092 153.393 139.06 153.54L139.022 153.762L138.993 153.925L137.334 153.877V153.771L137.343 153.694C137.343 153.637 137.353 153.588 137.353 153.54C137.366 153.451 137.379 153.361 137.391 153.271C137.417 153.098 137.443 152.928 137.469 152.761C137.52 152.428 137.575 152.097 137.633 151.77C137.748 151.11 137.867 150.456 137.99 149.808L138.723 145.902C138.964 144.603 139.205 143.314 139.417 142.025C139.523 141.381 139.62 140.727 139.687 140.12C139.707 139.967 139.716 139.813 139.726 139.688L139.736 139.591V139.514L139.726 139.495C139.726 139.486 139.726 139.486 139.726 139.486C139.726 139.495 139.726 139.486 139.726 139.524C139.732 139.537 139.736 139.55 139.736 139.563V139.553L139.514 138.562L136.195 123.035L139.629 122.41Z" fill="#383E56"/>
<path d="M144.226 156.139C144.188 156.139 144.152 156.136 144.12 156.129C143.811 156.091 143.599 155.812 143.647 155.504L144.197 151.57C144.236 151.271 144.516 151.06 144.824 151.098C145.123 151.137 145.336 151.416 145.297 151.724L144.737 155.658C144.709 155.927 144.487 156.12 144.226 156.139Z" fill="#AF7D61"/>
<path d="M144.902 155.398C144.738 155.533 144.439 155.629 144.092 155.639C143.802 155.639 143.542 155.572 143.368 155.475C143.301 155.437 143.223 155.475 143.214 155.543C143.137 155.928 143.002 156.803 143.262 156.832C143.609 156.861 148.548 156.947 148.577 156.716C148.645 156.101 146.156 155.562 144.902 155.398Z" fill="#6F728A"/>
<path d="M142.214 121.699C143.14 124.287 144.056 126.875 144.963 129.472L146.323 133.359C146.776 134.667 147.22 135.966 147.654 137.284L147.818 137.784L147.895 138.034L147.982 138.303C148.001 138.38 148.03 138.486 148.059 138.582L148.069 138.621L148.079 138.669L148.107 138.775L148.127 138.88C148.146 138.938 148.156 139.015 148.156 139.073L148.165 139.208C148.165 139.246 148.165 139.275 148.165 139.304C148.165 139.381 148.156 139.429 148.156 139.487C148.146 139.602 148.136 139.698 148.127 139.804C148.088 140.189 148.03 140.535 147.972 140.881C147.915 141.234 147.853 141.58 147.789 141.92C147.538 143.286 147.259 144.633 146.979 145.98L146.12 150.011L145.706 152.021C145.635 152.355 145.567 152.685 145.503 153.012C145.471 153.179 145.442 153.342 145.416 153.503L145.378 153.743L145.358 153.849L145.349 153.926L143.689 153.878V153.782L143.699 153.695L143.709 153.551L143.738 153.272C143.757 153.092 143.779 152.916 143.805 152.743C143.85 152.397 143.898 152.053 143.95 151.713L144.249 149.674L144.866 145.605C145.069 144.258 145.271 142.902 145.445 141.555C145.484 141.221 145.522 140.888 145.561 140.554C145.599 140.227 145.628 139.9 145.638 139.602C145.648 139.525 145.648 139.458 145.648 139.4C145.648 139.371 145.648 139.333 145.648 139.323C145.648 139.313 145.648 139.304 145.638 139.294C145.638 139.301 145.638 139.304 145.638 139.304C145.638 139.313 145.648 139.342 145.648 139.371C145.648 139.361 145.648 139.352 145.638 139.352V139.333L145.619 139.294C145.599 139.217 145.58 139.159 145.551 139.082L145.464 138.861L145.378 138.621L145.204 138.149C144.712 136.889 144.191 135.619 143.68 134.349L142.117 130.55C141.066 128.02 140.014 125.489 138.953 122.959L142.214 121.699Z" fill="#383E56"/>
<path d="M135.74 122.902C135.644 122.546 135.538 122.2 135.451 121.854C135.393 121.633 135.345 121.402 135.297 121.19C135.191 120.69 135.104 120.19 135.017 119.699C134.969 119.468 134.949 119.247 134.911 119.026C134.84 118.487 134.782 117.951 134.737 117.419C134.718 117.188 134.689 116.967 134.679 116.746C134.66 115.283 134.67 113.725 134.814 112.301C134.892 111.464 134.872 110.637 135.065 109.887C135.654 107.626 136.589 106.847 138.856 107.741C138.982 107.789 139.107 107.886 139.194 107.991C140.081 109.165 140.429 109.838 140.371 111.426C140.313 113.186 140.293 115.322 140.689 117.14C140.718 117.255 140.756 117.438 140.795 117.583C140.853 117.785 140.911 117.996 140.978 118.217C141.075 118.535 141.181 118.872 141.297 119.199C141.364 119.401 141.441 119.622 141.528 119.843C141.683 120.228 141.866 120.632 142.059 121.017C142.107 121.123 142.184 121.248 142.242 121.344C142.29 121.44 142.338 121.527 142.396 121.613C142.531 121.825 142.676 122.037 142.801 122.239C142.937 122.45 143.052 122.623 143.187 122.825C143.245 122.909 143.3 122.995 143.351 123.085C142.975 123.249 142.609 123.412 142.194 123.489C141.133 123.691 139.975 123.691 138.924 123.932C137.998 124.143 137.236 124.605 136.367 124.951C136.232 124.49 136.078 124.018 135.943 123.557C135.875 123.335 135.808 123.114 135.74 122.902Z" fill="white"/>
<path d="M137.948 102.101C137.948 102.101 139.26 102.178 139.222 103.006C139.173 103.833 137.707 102.909 137.707 102.909C137.707 102.909 137.331 101.976 137.948 102.101Z" fill="#2D334A"/>
<path d="M136.847 105.671C138.024 106.768 139.751 106.845 140.426 106.123C141.101 105.411 140.474 104.17 139.297 103.074C138.12 101.967 136.973 101.987 136.297 102.708C135.622 103.42 135.67 104.565 136.847 105.671Z" fill="#AF7D61"/>
<path d="M136.727 105.131L138.405 104.891C138.444 105.122 138.714 107.305 138.665 108.133C138.617 108.392 138.202 108.527 137.739 108.44C137.325 108.354 137.016 108.123 136.997 107.892H136.987C137.016 107.392 136.842 105.93 136.727 105.131Z" fill="#AF7D61"/>
<path d="M137.76 105.921C137.933 105.603 138.223 105.777 138.879 105.959C139.544 106.152 140.557 105.805 140.297 104.43C140.191 103.853 140.519 104.228 140.76 104.545C140.933 104.776 141.059 105.045 141.107 105.334C141.184 105.777 141.059 106.123 140.76 106.44C140.306 106.921 139.515 107.133 138.666 107.027C138.213 106.969 137.818 106.652 137.731 106.2C137.712 106.094 137.712 105.998 137.76 105.921Z" fill="#2D334A"/>
<path d="M140.332 104.372C140.332 104.372 140.316 104.388 140.284 104.42C140.033 104.642 138.914 105.681 138.914 106.258C138.914 106.893 139.551 105.854 139.715 105.402C139.879 104.949 140.197 104.93 140.457 104.776C140.718 104.632 140.757 104.247 140.332 104.372Z" fill="#2D334A"/>
<path d="M135.941 105.131C135.941 105.131 135.42 104.179 135.7 103.342C135.979 102.495 137.098 101.408 138.372 102.139C138.372 102.139 139.23 102.736 138.41 103.707C137.59 104.679 137.311 104.044 137.282 104.91C137.243 105.785 136.529 105.824 136.539 106.007L135.941 105.131Z" fill="#2D334A"/>
<path d="M136.52 106.364C136.79 106.614 137.398 106.672 137.581 106.479C137.774 106.277 137.601 106.017 137.321 105.767C137.051 105.508 136.636 105.431 136.453 105.623C136.269 105.825 136.24 106.104 136.52 106.364Z" fill="#AF7D61"/>
<path d="M138.206 108.999C139.846 113.713 136.759 114.636 137.955 118.552C138.456 118.936 138.958 119.321 139.46 119.706C139.768 119.142 140.077 118.574 140.386 118.003C138.572 114.367 140.984 112.962 138.91 108.797C138.669 108.855 138.437 108.932 138.206 108.999Z" fill="#8987A8"/>
<path d="M132.455 123.554C132.773 123.65 133.033 123.881 133.149 124.198C133.448 124.987 133.96 126.498 133.709 126.959C133.371 127.585 132.03 125.208 132.281 123.496L132.455 123.554Z" fill="#AF7D61"/>
<path d="M133.254 123.892C132.753 124.056 132.347 124.325 131.836 124.527C128.894 117.899 127.274 111.242 135.772 108.298C137.682 107.634 137.354 109.953 135.434 110.511C128.836 112.435 131.537 119.121 133.254 123.892Z" fill="white"/>
<path d="M148.523 87.3451C150.125 87.3451 151.417 86.056 151.417 84.4688C151.417 86.056 152.71 87.3451 154.302 87.3451C152.71 87.3451 151.417 88.6342 151.417 90.2215C151.417 88.6342 150.125 87.3451 148.523 87.3451Z" fill="#193E8D"/>
<path d="M53.6953 102.095C55.287 102.095 56.5796 100.806 56.5796 99.2188C56.5796 100.806 57.8722 102.095 59.4735 102.095C57.8722 102.095 56.5796 103.384 56.5796 104.981C56.5796 103.384 55.287 102.095 53.6953 102.095Z" fill="white"/>
<path d="M239.867 96.9857C241.459 96.9857 242.751 95.6967 242.751 94.1094C242.751 95.6967 244.044 96.9857 245.636 96.9857C244.044 96.9857 242.751 98.2748 242.751 99.8621C242.751 98.2748 241.459 96.9857 239.867 96.9857Z" fill="white"/>
<path d="M155.547 79.3917C156.434 79.3917 157.158 78.6702 157.158 77.7852C157.158 78.6702 157.872 79.3917 158.769 79.3917C157.872 79.3917 157.158 80.1036 157.158 80.9982C157.158 80.1036 156.434 79.3917 155.547 79.3917Z" fill="#193E8D"/>
<path d="M110.219 108.474C111.106 108.474 111.83 107.752 111.83 106.867C111.83 107.752 112.544 108.474 113.441 108.474C112.544 108.474 111.83 109.186 111.83 110.08C111.83 109.186 111.106 108.474 110.219 108.474Z" fill="white"/>
<path d="M63.7109 143.923C64.5984 143.923 65.3219 143.201 65.3219 142.316C65.3219 143.201 66.0453 143.923 66.9328 143.923C66.0453 143.923 65.3219 144.644 65.3219 145.529C65.3219 144.644 64.5984 143.923 63.7109 143.923Z" fill="white"/>
<path d="M211.336 53.9542C212.223 53.9542 212.947 53.2327 212.947 52.3477C212.947 53.2327 213.67 53.9542 214.558 53.9542C213.67 53.9542 212.947 54.6661 212.947 55.5607C212.947 54.6661 212.223 53.9542 211.336 53.9542Z" fill="white"/>
<path fill-rule="evenodd" clip-rule="evenodd" d="M174.773 62.6332C174.773 58.131 177.677 55.5625 181.535 55.5625C185.384 55.5625 188.298 58.131 188.298 62.6332C188.298 67.1642 185.384 69.7038 181.535 69.7038C177.677 69.7038 174.773 67.1642 174.773 62.6332ZM196.478 55.9184H202.622L185.24 81.3055H179.095L196.478 55.9184ZM183.137 62.6235C183.137 60.1897 182.336 59.4682 181.535 59.4682C180.735 59.4682 179.934 60.1897 179.934 62.6235C179.934 65.0478 180.735 65.7789 181.535 65.7789C182.336 65.7789 183.137 65.0478 183.137 62.6235ZM193.429 74.5908C193.429 70.0886 196.333 67.5201 200.191 67.5201C204.04 67.5201 206.953 70.0886 206.953 74.5908C206.953 79.1218 204.04 81.6614 200.191 81.6614C196.333 81.6614 193.429 79.1218 193.429 74.5908ZM201.783 74.5908C201.783 72.1569 200.992 71.4354 200.191 71.4354C199.391 71.4354 198.59 72.1569 198.59 74.5908C198.59 77.015 199.391 77.7461 200.191 77.7461C200.992 77.7461 201.783 77.015 201.783 74.5908Z" fill="#6C8ED9"/>
</g>
<defs>
<clipPath id="clip0_1256_43062">
<rect width="300" height="194" fill="white"/>
</clipPath>
</defs>
</svg>
