<svg width="24" height="24" viewBox="0 0 24 24" fill="none" xmlns="http://www.w3.org/2000/svg">
<path d="M16.7073 2.97108C17.0562 3.29748 17.2937 3.73879 17.3221 4.21986C17.322 4.27798 17.3214 4.3361 17.3203 4.3942C17.32 4.42442 17.3197 4.45463 17.3194 4.48576C17.3164 4.68981 17.3025 4.88709 17.2689 5.08821C17.2997 5.10603 17.3305 5.12386 17.3623 5.14222C17.8449 5.43319 18.1791 5.79924 18.3341 6.35606C18.3548 6.51407 18.3571 6.67092 18.3572 6.82998C18.3577 6.86114 18.3583 6.89231 18.3588 6.92441C18.3594 7.14675 18.3238 7.33718 18.2627 7.55099C18.2886 7.55651 18.3145 7.56202 18.3412 7.5677C18.4794 7.60651 18.5785 7.68398 18.6948 7.76703C18.7295 7.7902 18.7643 7.81337 18.8001 7.83724C19.1468 8.15858 19.3766 8.5748 19.3994 9.04922C19.4064 9.37236 19.4028 9.66203 19.2997 9.97057C19.3379 9.98098 19.3761 9.9914 19.4154 10.0021C19.5715 10.0618 19.6588 10.1299 19.7803 10.2433C19.8161 10.2761 19.8519 10.3089 19.8887 10.3427C20.2738 10.731 20.4431 11.1529 20.4662 11.6988C20.4231 12.48 20.0234 12.9324 19.4916 13.4644C19.4457 13.5106 19.3999 13.5569 19.354 13.6031C19.2301 13.728 19.1059 13.8525 18.9817 13.977C18.9038 14.055 18.826 14.1331 18.7482 14.2112C18.476 14.4845 18.2035 14.7575 17.9308 15.0303C17.6779 15.2834 17.4256 15.537 17.1735 15.7909C16.9561 16.0099 16.7382 16.2284 16.52 16.4466C16.3902 16.5765 16.2605 16.7065 16.1312 16.837C16.0094 16.96 15.8871 17.0824 15.7644 17.2044C15.7199 17.2489 15.6755 17.2935 15.6314 17.3383C14.9455 18.0344 14.0599 18.5139 13.0779 18.6119C12.9786 18.5961 12.8799 18.5769 12.7818 18.555C12.3072 18.4767 11.8217 18.4707 11.3999 18.7306C10.7398 19.2124 10.184 19.846 9.63055 20.443C9.38108 20.7118 9.12648 20.9756 8.87183 21.2395C8.61199 21.509 8.35265 21.7789 8.09656 22.052C8.05786 22.0932 8.01917 22.1343 7.9793 22.1768C7.90714 22.2537 7.83519 22.3308 7.76346 22.4081C7.73166 22.4419 7.69986 22.4758 7.6671 22.5107C7.63965 22.5402 7.61219 22.5697 7.58391 22.6001C7.43174 22.74 7.30347 22.7731 7.09917 22.776C7.05963 22.7772 7.02008 22.7784 6.97934 22.7797C6.71795 22.7374 6.53298 22.5356 6.35277 22.3535C6.32964 22.3305 6.30652 22.3074 6.28269 22.2837C6.20576 22.207 6.12915 22.1301 6.05254 22.0531C5.99725 21.9978 5.94194 21.9426 5.88662 21.8874C5.73682 21.7378 5.5873 21.588 5.43782 21.438C5.28137 21.2812 5.12469 21.1246 4.96803 20.968C4.70518 20.7051 4.4425 20.442 4.17992 20.1789C3.87608 19.8743 3.572 19.57 3.26779 19.2658C2.97526 18.9733 2.68284 18.6807 2.3905 18.388C2.266 18.2633 2.14146 18.1387 2.01689 18.0141C1.87043 17.8676 1.72408 17.721 1.57781 17.5743C1.52401 17.5204 1.47017 17.4665 1.41629 17.4126C1.343 17.3394 1.26984 17.266 1.19671 17.1925C1.16438 17.1603 1.16438 17.1603 1.1314 17.1274C0.945994 16.9407 0.925714 16.8399 0.915213 16.5758C0.910535 16.4928 0.910535 16.4928 0.905762 16.408C0.936512 16.0314 1.43411 15.6894 1.68466 15.4403C1.72686 15.3981 1.76906 15.356 1.81124 15.3139C1.92116 15.2041 2.03122 15.0945 2.14131 14.9849C2.25407 14.8726 2.3667 14.7601 2.47935 14.6477C2.69956 14.4279 2.91992 14.2083 3.14036 13.9888C3.27376 14.0524 3.36053 14.1142 3.46154 14.2227C3.48928 14.2519 3.51702 14.2811 3.5456 14.3111C3.58962 14.3574 3.58962 14.3574 3.63453 14.4047C4.18594 14.9674 4.8291 15.3417 5.63571 15.3743C6.29517 15.3608 6.85675 15.1753 7.37461 14.7665C7.40207 14.7461 7.42953 14.7257 7.45782 14.7047C7.83942 14.4052 8.11575 13.9322 8.22845 13.4629C8.28196 13.3407 8.28196 13.3407 8.39807 13.2772C8.4453 13.2625 8.49253 13.2478 8.5412 13.2327C9.19279 13.0071 9.67776 12.6069 10.0102 12.0013C10.0714 11.8539 10.1246 11.7078 10.1716 11.5554C10.2721 11.3425 10.4699 11.2968 10.6799 11.2209C11.3434 10.9467 11.8052 10.4357 12.0853 9.77918C12.1311 9.66547 12.1311 9.66547 12.1599 9.53141C12.2138 9.40888 12.2138 9.40888 12.3299 9.34542C12.3771 9.33072 12.4243 9.31601 12.473 9.30087C13.1718 9.05896 13.6292 8.6351 13.9744 7.98576C14.273 7.34521 14.3136 6.59868 14.083 5.92681C13.839 5.28505 13.3419 4.82476 12.8619 4.3537C12.9178 4.23093 12.9768 4.14137 13.0716 4.04569C13.0964 4.02045 13.1212 3.99521 13.1468 3.9692C13.1737 3.94242 13.2005 3.91564 13.2281 3.88804C13.2559 3.86003 13.2838 3.83202 13.3124 3.80315C13.3714 3.74396 13.4304 3.68488 13.4896 3.6259C13.5793 3.53632 13.6685 3.44618 13.7576 3.35598C13.8151 3.29836 13.8726 3.24078 13.9302 3.18323C13.9565 3.15654 13.9828 3.12984 14.0099 3.10234C14.757 2.36309 15.8827 2.29644 16.7073 2.97108Z" fill="#2357C6"/>
<path d="M9.47175 2.77913C10.1244 3.16672 10.6777 3.88404 11.2124 4.41584C11.3417 4.54441 11.4714 4.6726 11.6014 4.80048C11.7597 4.95611 11.9173 5.11238 12.0744 5.26912C12.134 5.32828 12.1937 5.38723 12.2537 5.44593C12.9673 6.14511 12.9673 6.14511 13.0187 6.65413C13.0099 7.16232 12.9296 7.51984 12.5719 7.89835C12.238 8.18723 11.8827 8.2576 11.4541 8.25615C11.2405 8.23735 11.0644 8.16642 10.8744 8.07033C10.8931 8.11277 10.8931 8.11277 10.9122 8.15607C11.088 8.58844 11.1176 8.98652 10.9368 9.42391C10.7269 9.8119 10.4314 10.0598 10.0102 10.1875C9.64121 10.2716 9.27258 10.2177 8.93005 10.0578C8.95055 10.1069 8.97104 10.1559 8.99216 10.2064C9.13709 10.5997 9.12773 10.9794 8.97613 11.3721C8.80573 11.7147 8.53569 11.9647 8.18203 12.1102C7.73711 12.2492 7.36255 12.1873 6.94254 12.0021C6.95502 12.0304 6.96749 12.0587 6.98035 12.0879C7.15746 12.5233 7.18442 12.9191 7.00195 13.3588C6.82524 13.6931 6.57233 13.9181 6.22896 14.0745C5.88153 14.1778 5.46513 14.1865 5.12516 14.0518C4.73894 13.8283 4.42733 13.4725 4.11284 13.1602C4.06209 13.11 4.01115 13.0599 3.96001 13.01C3.88507 12.9369 3.81072 12.8633 3.73647 12.7895C3.71387 12.7676 3.69128 12.7458 3.668 12.7233C3.38074 12.4343 3.26497 12.1197 3.25647 11.7159C3.26089 11.2896 3.3782 11.001 3.67082 10.6923C4.0183 10.3527 4.34628 10.2716 4.82541 10.2739C4.97272 10.2927 5.11428 10.3212 5.25748 10.3603C5.20978 10.3163 5.20978 10.3163 5.16111 10.2715C4.8178 9.94721 4.56129 9.6342 4.51419 9.14594C4.50471 8.72471 4.6306 8.34482 4.91183 8.02712C5.33053 7.66508 5.70893 7.6107 6.25123 7.63826C6.32358 7.6509 6.39579 7.66461 6.46727 7.68147C6.4412 7.65329 6.41514 7.6251 6.38828 7.59607C5.97956 7.14911 5.78992 6.82922 5.80583 6.21177C5.83277 5.86403 5.96148 5.5948 6.19959 5.34071C6.55539 5.04505 6.9634 4.9271 7.41781 4.95945C7.53606 4.98196 7.64767 5.01217 7.76347 5.04586C7.74576 5.01818 7.72805 4.9905 7.7098 4.96198C7.45575 4.55416 7.35752 4.20275 7.43638 3.72316C7.5402 3.31107 7.78706 3.03404 8.139 2.80738C8.5362 2.60239 9.06651 2.57876 9.47175 2.77913Z" fill="#2357C6"/>
<path d="M20.6822 13.9883C20.8389 14.0619 20.9405 14.1492 21.0637 14.2721C21.0838 14.2921 21.1039 14.3121 21.1246 14.3326C21.1908 14.3985 21.2567 14.4646 21.3225 14.5307C21.3686 14.5767 21.4146 14.6227 21.4607 14.6686C21.5571 14.7649 21.6533 14.8613 21.7494 14.9578C21.8725 15.0814 21.996 15.2046 22.1196 15.3277C22.2147 15.4225 22.3096 15.5175 22.4045 15.6126C22.4499 15.6581 22.4954 15.7035 22.541 15.7489C22.6047 15.8124 22.6681 15.8762 22.7315 15.94C22.7676 15.9762 22.8038 16.0124 22.841 16.0497C22.9872 16.2141 23.0285 16.3349 23.0316 16.5537C23.0328 16.5932 23.034 16.6328 23.0353 16.6735C22.9931 16.9346 22.7915 17.1196 22.6097 17.2998C22.5752 17.3344 22.5752 17.3344 22.5401 17.3698C22.4636 17.4466 22.3868 17.5231 22.3101 17.5996C22.255 17.6548 22.1999 17.7101 22.1448 17.7653C21.9956 17.915 21.8461 18.0643 21.6965 18.2136C21.5399 18.3699 21.3836 18.5265 21.2272 18.683C20.9647 18.9457 20.702 19.2082 20.4392 19.4706C20.1353 19.774 19.8317 20.0777 19.5283 20.3816C19.2677 20.6426 19.0069 20.9034 18.746 21.1641C18.5902 21.3198 18.4345 21.4755 18.2789 21.6314C18.1327 21.7778 17.9863 21.9241 17.8397 22.0702C17.7859 22.1238 17.7322 22.1776 17.6786 22.2314C17.6054 22.3048 17.532 22.3779 17.4585 22.4509C17.4373 22.4724 17.4161 22.4938 17.3942 22.5159C17.2093 22.6986 17.0807 22.7718 16.8206 22.7754C16.7811 22.7767 16.7415 22.7779 16.7008 22.7792C16.4224 22.7342 16.2256 22.5058 16.0351 22.313C16.0081 22.286 15.981 22.259 15.9532 22.2311C15.8646 22.1425 15.7764 22.0536 15.6881 21.9646C15.6265 21.9029 15.5649 21.8411 15.5032 21.7794C15.3415 21.6173 15.1801 21.455 15.0187 21.2927C14.8537 21.1269 14.6886 20.9613 14.5234 20.7957C14.1997 20.4711 13.8763 20.1462 13.5531 19.8212C13.6707 19.7609 13.7797 19.7157 13.9075 19.6818C14.3973 19.5466 14.8393 19.3808 15.2814 19.1299C15.3238 19.1059 15.3662 19.082 15.41 19.0573C16.1166 18.6317 16.6792 18.0031 17.2565 17.4228C17.3771 17.3016 17.498 17.1806 17.6189 17.0597C17.8469 16.8314 18.0747 16.6029 18.3024 16.3743C18.562 16.1138 18.8218 15.8534 19.0817 15.5931C19.6155 15.0585 20.1489 14.5235 20.6822 13.9883Z" fill="#2357C6"/>
<path d="M12.9051 1.33197C13.04 1.40305 13.1424 1.48436 13.2507 1.59121C13.2767 1.61594 13.3026 1.64067 13.3294 1.66615C13.3909 1.72625 13.4507 1.78817 13.51 1.85045C13.4519 1.98342 13.3928 2.05953 13.2804 2.15037C13.0102 2.3791 12.7654 2.63364 12.5162 2.88471C12.4658 2.93538 12.4153 2.98604 12.3648 3.03669C12.2424 3.15964 12.12 3.28273 11.9977 3.40589C11.8216 3.33578 11.7028 3.20986 11.5718 3.07779C11.548 3.05414 11.5243 3.03049 11.4998 3.00613C11.4499 2.95626 11.4001 2.90629 11.3504 2.85621C11.274 2.77936 11.1972 2.70299 11.1203 2.62665C11.0718 2.57813 11.0234 2.52958 10.975 2.481C10.9519 2.45809 10.9288 2.43518 10.905 2.41157C10.7448 2.24925 10.7448 2.24925 10.7448 2.1529C10.9684 2.03462 11.1927 1.91778 11.4177 1.80216C11.494 1.76272 11.5701 1.72291 11.646 1.68271C12.5005 1.23069 12.5005 1.23069 12.9051 1.33197Z" fill="#2357C6"/>
</svg>
