<svg width="54" height="24" viewBox="0 0 54 24" fill="none" xmlns="http://www.w3.org/2000/svg">
<path fill-rule="evenodd" clip-rule="evenodd" d="M10.5157 3.72013C9.89452 4.47373 8.90061 5.06811 7.9067 4.9832C7.78247 3.96426 8.26907 2.88163 8.83849 2.21295C9.45968 1.43813 10.5468 0.886206 11.4268 0.84375C11.5303 1.90515 11.1265 2.94532 10.5157 3.72013ZM11.4173 5.18474C10.5417 5.13307 9.74269 5.4547 9.09735 5.71449C8.68206 5.88167 8.33038 6.02324 8.06283 6.02324C7.76259 6.02324 7.39639 5.8741 6.98524 5.70665C6.44649 5.48723 5.83056 5.23638 5.18465 5.24842C3.70414 5.26965 2.32717 6.12938 1.57139 7.49858C0.0184104 10.237 1.16761 14.2915 2.66883 16.5204C3.4039 17.6243 4.28392 18.8343 5.44348 18.7918C5.95361 18.7721 6.32057 18.6125 6.70035 18.4473C7.13756 18.2571 7.59176 18.0595 8.30096 18.0595C8.98557 18.0595 9.4199 18.2519 9.83683 18.4366C10.2333 18.6123 10.614 18.7809 11.1791 18.7706C12.3801 18.7494 13.1359 17.6667 13.871 16.5629C14.6642 15.3782 15.0128 14.2219 15.0657 14.0465L15.0719 14.0262C15.0707 14.0249 15.0609 14.0203 15.0436 14.0122L15.0436 14.0121C14.7784 13.8877 12.7516 12.9364 12.7321 10.3856C12.7126 8.2445 14.3398 7.1597 14.5959 6.98894C14.6115 6.97854 14.622 6.97154 14.6268 6.96788C13.5914 5.39702 11.9763 5.22719 11.4173 5.18474ZM19.7312 18.6545V2.10737H25.7878C28.9145 2.10737 31.099 4.31507 31.099 7.54172C31.099 10.7684 28.8731 12.9973 25.705 12.9973H22.2367V18.6545H19.7312ZM22.236 4.27173H25.1245C27.2987 4.27173 28.541 5.46049 28.541 7.55144C28.541 9.64239 27.2987 10.8418 25.1141 10.8418H22.236V4.27173ZM39.3703 16.6689C38.7077 17.9638 37.2479 18.7811 35.6742 18.7811C33.3448 18.7811 31.7193 17.3588 31.7193 15.2148C31.7193 13.092 33.293 11.8714 36.2022 11.6909L39.3289 11.4999V10.5871C39.3289 9.23911 38.4696 8.50675 36.9373 8.50675C35.6742 8.50675 34.7528 9.17543 34.5664 10.1944H32.3094C32.3819 8.05035 34.349 6.4901 37.0098 6.4901C39.8776 6.4901 41.7412 8.02912 41.7412 10.4173V18.6537H39.4221V16.6689H39.3703ZM36.3478 16.8177C35.0122 16.8177 34.1633 16.1596 34.1633 15.1513C34.1633 14.1111 34.9812 13.5061 36.5445 13.4106L39.3295 13.2302V14.1642C39.3295 15.7138 38.0457 16.8177 36.3478 16.8177ZM49.4319 19.3012C48.4277 22.1988 47.2785 23.154 44.8351 23.154C44.6487 23.154 44.0276 23.1328 43.8826 23.0903V21.1055C44.0379 21.1268 44.421 21.148 44.6177 21.148C45.7255 21.148 46.3467 20.6704 46.7297 19.4285L46.9575 18.6962L42.7127 6.64932H45.3321L48.2827 16.4248H48.3345L51.2851 6.64932H53.832L49.4319 19.3012Z" fill="black"/>
</svg>
