<svg width="148" height="24" viewBox="0 0 148 24" fill="none" xmlns="http://www.w3.org/2000/svg">
<rect x="0.5" y="0.5" width="33" height="23" rx="3.5" fill="white"/>
<rect x="0.5" y="0.5" width="33" height="23" rx="3.5" stroke="#F8F8F8"/>
<path fill-rule="evenodd" clip-rule="evenodd" d="M10.751 15.8598H8.69129L7.14674 9.79394C7.07343 9.51491 6.91776 9.26823 6.68879 9.15197C6.11737 8.85979 5.4877 8.62727 4.80078 8.50999V8.27646H8.11886C8.57681 8.27646 8.92026 8.62727 8.97751 9.03469L9.77891 13.4102L11.8376 8.27646H13.8401L10.751 15.8598ZM14.985 15.8598H13.0398L14.6415 8.27646H16.5868L14.985 15.8598ZM19.1035 10.3773C19.1607 9.96884 19.5042 9.7353 19.9049 9.7353C20.5346 9.67667 21.2205 9.79394 21.7929 10.0851L22.1364 8.45237C21.5639 8.21884 20.9343 8.10156 20.3628 8.10156C18.4748 8.10156 17.101 9.15197 17.101 10.6098C17.101 11.7188 18.0741 12.3012 18.761 12.652C19.5042 13.0018 19.7904 13.2353 19.7332 13.5851C19.7332 14.1098 19.1607 14.3433 18.5893 14.3433C17.9024 14.3433 17.2155 14.1684 16.5868 13.8763L16.2433 15.51C16.9303 15.8012 17.6734 15.9185 18.3603 15.9185C20.4773 15.9761 21.7929 14.9267 21.7929 13.3516C21.7929 11.368 19.1035 11.2518 19.1035 10.3773ZM28.6008 15.8598L27.0562 8.27646H25.3972C25.0537 8.27646 24.7103 8.50999 24.5958 8.85979L21.7356 15.8598H23.7381L24.1378 14.7518H26.5983L26.8273 15.8598H28.6008ZM25.6834 10.3186L26.2548 13.1767H24.653L25.6834 10.3186Z" fill="#172B85"/>
<rect x="38.5" y="0.5" width="33" height="23" rx="3.5" fill="white"/>
<rect x="38.5" y="0.5" width="33" height="23" rx="3.5" stroke="#F8F8F8"/>
<path fill-rule="evenodd" clip-rule="evenodd" d="M55.179 16.8307C53.9949 17.8288 52.459 18.4312 50.7807 18.4312C47.0358 18.4312 44 15.4316 44 11.7312C44 8.03094 47.0358 5.03125 50.7807 5.03125C52.459 5.03125 53.9949 5.63375 55.179 6.63179C56.363 5.63375 57.8989 5.03125 59.5773 5.03125C63.3221 5.03125 66.358 8.03094 66.358 11.7312C66.358 15.4316 63.3221 18.4312 59.5773 18.4312C57.8989 18.4312 56.363 17.8288 55.179 16.8307Z" fill="#ED0006"/>
<path fill-rule="evenodd" clip-rule="evenodd" d="M55.1797 16.8307C56.6376 15.6018 57.5621 13.7732 57.5621 11.7312C57.5621 9.68929 56.6376 7.86069 55.1797 6.63179C56.3637 5.63375 57.8996 5.03125 59.578 5.03125C63.3228 5.03125 66.3587 8.03094 66.3587 11.7312C66.3587 15.4316 63.3228 18.4312 59.578 18.4312C57.8996 18.4312 56.3637 17.8288 55.1797 16.8307Z" fill="#F9A000"/>
<path fill-rule="evenodd" clip-rule="evenodd" d="M55.1793 16.8317C56.6372 15.6028 57.5616 13.7742 57.5616 11.7322C57.5616 9.69031 56.6372 7.86172 55.1793 6.63281C53.7213 7.86172 52.7969 9.69031 52.7969 11.7322C52.7969 13.7742 53.7213 15.6028 55.1793 16.8317Z" fill="#FF5E00"/>
<rect x="76.5" y="0.5" width="33" height="23" rx="3.5" fill="white"/>
<rect x="76.5" y="0.5" width="33" height="23" rx="3.5" stroke="#F8F8F8"/>
<path d="M95.2576 11.7058C95.2576 15.4092 92.2898 18.4115 88.6288 18.4115C84.9678 18.4115 82 15.4092 82 11.7058C82 8.00227 84.9678 5 88.6288 5C92.2898 5 95.2576 8.00227 95.2576 11.7058Z" fill="#ED0006"/>
<path d="M103.855 11.7058C103.855 15.4092 100.887 18.4115 97.2265 18.4115C93.5655 18.4115 90.5977 15.4092 90.5977 11.7058C90.5977 8.00227 93.5655 5 97.2265 5C100.887 5 103.855 8.00227 103.855 11.7058Z" fill="#0099DF"/>
<path fill-rule="evenodd" clip-rule="evenodd" d="M92.9267 6.60156C94.3519 7.83152 95.2557 9.66168 95.2557 11.7054C95.2557 13.7491 94.3519 15.5792 92.9267 16.8092C91.5014 15.5792 90.5977 13.7491 90.5977 11.7054C90.5977 9.66168 91.5014 7.83152 92.9267 6.60156Z" fill="#6C6BBD"/>
<rect x="114.5" y="0.5" width="33" height="23" rx="3.5" fill="#1F72CD"/>
<rect x="114.5" y="0.5" width="33" height="23" rx="3.5" stroke="#F8F8F8"/>
<path fill-rule="evenodd" clip-rule="evenodd" d="M120.095 8.5L116.914 15.7467H120.722L121.194 14.5913H122.274L122.746 15.7467H126.937V14.8649L127.311 15.7467H129.479L129.853 14.8462V15.7467H138.571L139.631 14.6213L140.623 15.7467L145.101 15.7561L141.91 12.1436L145.101 8.5H140.693L139.661 9.60463L138.699 8.5H129.216L128.401 10.3704L127.568 8.5H123.767V9.35186L123.345 8.5H120.095ZM120.832 9.52905H122.688L124.798 14.4431V9.52905H126.832L128.462 13.0524L129.964 9.52905H131.987V14.7291H130.756L130.746 10.6544L128.951 14.7291H127.85L126.045 10.6544V14.7291H123.512L123.032 13.5633H120.437L119.958 14.728H118.601L120.832 9.52905ZM138.12 9.52905H133.113V14.726H138.042L139.631 13.0036L141.162 14.726H142.762L140.436 12.1426L142.762 9.52905H141.231L139.651 11.2316L138.12 9.52905ZM121.735 10.4089L120.88 12.4856H122.589L121.735 10.4089ZM134.35 11.555V10.6057V10.6048H137.473L138.836 12.1229L137.413 13.6493H134.35V12.613H137.081V11.555H134.35Z" fill="white"/>
</svg>
