<svg width="28" height="28" viewBox="0 0 28 28" fill="none" xmlns="http://www.w3.org/2000/svg">
<g id="Frame">
<path id="Union" fill-rule="evenodd" clip-rule="evenodd" d="M12.0969 4.54019C12.3522 4.28492 12.6984 4.14151 13.0595 4.14151H14.9406C15.3016 4.14151 15.6479 4.28492 15.9031 4.54019C16.1584 4.79547 16.3018 5.1417 16.3018 5.50271C16.3018 5.86372 16.1584 6.20995 15.9031 6.46523C15.6479 6.7205 15.3016 6.86391 14.9406 6.86391H13.0595C12.6984 6.86391 12.3522 6.7205 12.0969 6.46523C11.8417 6.20995 11.6982 5.86372 11.6982 5.50271C11.6982 5.1417 11.8417 4.79547 12.0969 4.54019ZM13.0595 3.10156C12.4226 3.10156 11.8119 3.35454 11.3616 3.80484C10.9128 4.25366 10.66 4.86187 10.6583 5.49642H10.3602H7.93362C7.29006 5.49642 6.67286 5.75207 6.2178 6.20714C5.76273 6.6622 5.50708 7.2794 5.50708 7.92296V22.4822C5.50708 23.1257 5.76273 23.7429 6.2178 24.198C6.67286 24.6531 7.29006 24.9087 7.93362 24.9087H20.0663C20.7099 24.9087 21.3271 24.6531 21.7821 24.198C22.2372 23.7429 22.4928 23.1257 22.4928 22.4822V7.92296C22.4928 7.2794 22.2372 6.6622 21.7821 6.20714C21.3271 5.75207 20.7099 5.49642 20.0663 5.49642H17.6398H17.3418C17.3401 4.86187 17.0873 4.25366 16.6385 3.80484C16.1882 3.35454 15.5775 3.10156 14.9406 3.10156H13.0595ZM17.9933 14.3419C18.1885 14.1466 18.1885 13.83 17.9933 13.6348C17.798 13.4395 17.4814 13.4395 17.2862 13.6348L12.7867 18.1343L10.7137 16.0613C10.5184 15.866 10.2018 15.866 10.0066 16.0613C9.8113 16.2565 9.8113 16.5731 10.0066 16.7684L12.4331 19.1949C12.6284 19.3902 12.9449 19.3902 13.1402 19.1949L17.9933 14.3419Z" fill="#2357C6"/>
</g>
</svg>
