<svg width="20" height="20" viewBox="0 0 20 20" fill="none" xmlns="http://www.w3.org/2000/svg">
    <path fill-rule="evenodd" clip-rule="evenodd" d="M8.64063 3.24244C8.82297 3.0601 9.07028 2.95766 9.32814 2.95766H10.6718C10.9297 2.95766 11.177 3.0601 11.3594 3.24244C11.5417 3.42478 11.6441 3.67208 11.6441 3.92995C11.6441 4.18782 11.5417 4.43512 11.3594 4.61746C11.177 4.7998 10.9297 4.90224 10.6718 4.90224H9.32814C9.07028 4.90224 8.82297 4.7998 8.64063 4.61746C8.45829 4.43512 8.35586 4.18782 8.35586 3.92995C8.35586 3.67208 8.45829 3.42478 8.64063 3.24244ZM9.32814 2.21484C8.87327 2.21484 8.43703 2.39554 8.11538 2.71719C7.79472 3.03785 7.61414 3.47241 7.61304 3.92578H7.40007H5.66683C5.20715 3.92578 4.76629 4.10839 4.44125 4.43344C4.1162 4.75848 3.93359 5.19934 3.93359 5.65902V16.0585C3.93359 16.5181 4.1162 16.959 4.44125 17.284C4.76629 17.6091 5.20715 17.7917 5.66683 17.7917H14.333C14.7927 17.7917 15.2336 17.6091 15.5586 17.284C15.8837 16.959 16.0663 16.5181 16.0663 16.0585V5.65902C16.0663 5.19934 15.8837 4.75848 15.5586 4.43344C15.2336 4.10839 14.7927 3.92578 14.333 3.92578H12.5998H12.3869C12.3858 3.47241 12.2053 3.03785 11.8846 2.71719C11.563 2.39554 11.1267 2.21484 10.6718 2.21484H9.32814ZM12.9517 10.3457C13.147 10.1505 13.147 9.8339 12.9517 9.63863C12.7565 9.44337 12.4399 9.44337 12.2446 9.63863L9.13168 12.7516L7.75199 11.3719C7.55673 11.1766 7.24015 11.1766 7.04488 11.3719C6.84962 11.5671 6.84962 11.8837 7.04488 12.079L8.77812 13.8122C8.97339 14.0075 9.28997 14.0075 9.48523 13.8122L12.9517 10.3457Z" fill="#2357C6"/>
</svg>
