<svg width="14" height="14" viewBox="0 0 14 14" fill="none" xmlns="http://www.w3.org/2000/svg">
<path d="M2.86046 7.34543V10.6229C2.86046 11.6696 3.71122 12.5204 4.75795 12.5204H6.48294V7.34543H2.86046Z" fill="#7FAAE3"/>
<path d="M7.51793 7.34543V12.5204H9.24292C10.2896 12.5204 11.1404 11.6696 11.1404 10.6229V7.34543H7.51793Z" fill="#7FAAE3"/>
<path d="M11.3129 3.89545H10.9941C11.0873 3.68362 11.1404 3.4511 11.1404 3.20546C11.1404 2.25464 10.3669 1.48047 9.41542 1.48047C8.20034 1.48047 7.43927 2.32985 7.00043 3.09437C6.5616 2.33054 5.80053 1.48047 4.58545 1.48047C3.63395 1.48047 2.86046 2.25464 2.86046 3.20546C2.86046 3.4511 2.91359 3.68362 3.00674 3.89545H2.68796C2.02212 3.89545 1.48047 4.43089 1.48047 5.10295C1.48047 5.775 2.02212 6.31044 2.68796 6.31044H11.3129C11.9788 6.31044 12.5204 5.77086 12.5204 5.10295C12.5204 4.43503 11.9788 3.89545 11.3129 3.89545ZM9.41542 2.51546C9.7963 2.51546 10.1054 2.82527 10.1054 3.20546C10.1054 3.58565 9.7963 3.89545 9.41542 3.89545H7.74632C8.02577 3.30206 8.55775 2.51546 9.41542 2.51546ZM3.89545 3.20546C3.89545 2.82527 4.20457 2.51546 4.58545 2.51546C5.4369 2.51546 5.97027 3.30206 6.25179 3.89545H4.58545C4.20457 3.89545 3.89545 3.58565 3.89545 3.20546Z" fill="#7FAAE3"/>
</svg>
