<svg width="57" height="25" viewBox="0 0 57 25" fill="none" xmlns="http://www.w3.org/2000/svg">
<path fill-rule="evenodd" clip-rule="evenodd" d="M26.2675 19.8227V13.4702H29.6976C31.1032 13.4702 32.2896 13.02 33.2567 12.1322L33.4888 11.9071C35.2554 10.0689 35.1394 7.20525 33.2567 5.50458C32.3153 4.60422 31.0258 4.11653 29.6976 4.14154H24.1914V19.8227H26.2675ZM26.2656 11.5441V6.06689H29.7479C30.4959 6.06689 31.2052 6.342 31.734 6.8422C32.8561 7.89262 32.8819 9.64331 31.7985 10.7312C31.2697 11.269 30.5217 11.5691 29.7479 11.5441H26.2656ZM43.1751 9.93138C42.2853 9.14357 41.0732 8.74341 39.5387 8.74341C37.5657 8.74341 36.0828 9.44369 35.1027 10.8317L36.9339 11.9447C37.6044 10.9943 38.52 10.5191 39.6805 10.5191C40.4155 10.5191 41.1248 10.7817 41.6793 11.2569C42.2209 11.7071 42.5303 12.3573 42.5303 13.0451V13.5078C41.7308 13.0826 40.725 12.8575 39.4871 12.8575C38.0428 12.8575 36.8823 13.1827 36.0183 13.8454C35.1543 14.5082 34.7159 15.3835 34.7159 16.4965C34.6901 17.5094 35.1414 18.4723 35.9409 19.1225C36.7533 19.8228 37.7849 20.1729 38.9971 20.1729C40.4284 20.1729 41.5632 19.5602 42.4272 18.3347H42.5174V19.8228H44.5033V13.2077C44.5033 11.8196 44.0649 10.7192 43.1751 9.93138ZM37.5429 17.8469C37.1173 17.5468 36.8594 17.0591 36.8594 16.5339C36.8594 15.9462 37.1431 15.4585 37.6977 15.0708C38.2652 14.6832 38.9745 14.4831 39.8128 14.4831C40.9736 14.4706 41.8764 14.7207 42.5212 15.2209C42.5212 16.0712 42.173 16.809 41.4895 17.4343C40.8704 18.0345 40.0321 18.3721 39.1551 18.3721C38.5747 18.3847 38.0072 18.1971 37.5429 17.8469ZM48.9612 24.5369L55.8988 9.09326H53.6421L50.4312 16.7963H50.3926L47.1043 9.09326H44.8477L49.3996 19.1347L46.8206 24.5369H48.9612Z" fill="#3C4043"/>
<path d="M19.1019 12.0953C19.1019 11.4825 19.0504 10.8698 18.9472 10.2695H10.1914V13.7334H15.2076C15.0013 14.8463 14.3307 15.8467 13.3507 16.472V18.7229H16.3424C18.0961 17.1598 19.1019 14.8463 19.1019 12.0953Z" fill="#4285F4"/>
<path d="M10.19 20.899C12.6917 20.899 14.8065 20.0987 16.341 18.7231L13.3493 16.4722C12.5111 17.0224 11.4408 17.3351 10.19 17.3351C7.76572 17.3351 5.7154 15.7469 4.98037 13.6211H1.89844V15.947C3.47164 18.9857 6.68253 20.899 10.19 20.899Z" fill="#34A853"/>
<path d="M4.98108 13.6202C4.59416 12.5073 4.59416 11.2943 4.98108 10.1689V7.85547H1.89865C0.570241 10.394 0.570241 13.3952 1.89865 15.9337L4.98108 13.6202Z" fill="#FBBC04"/>
<path d="M10.19 6.45508C11.5182 6.43007 12.7948 6.91776 13.7491 7.80561L16.4055 5.22959C14.7162 3.70399 12.4982 2.86616 10.19 2.89117C6.68253 2.89117 3.47164 4.81693 1.89844 7.85563L4.98037 10.1816C5.7154 8.04321 7.76572 6.45508 10.19 6.45508Z" fill="#EA4335"/>
</svg>
