<svg width="24" height="24" viewBox="0 0 24 24" fill="none" xmlns="http://www.w3.org/2000/svg">
<mask id="mask0_205_59668" style="mask-type:alpha" maskUnits="userSpaceOnUse" x="0" y="0" width="24" height="24">
<rect width="24" height="24" fill="#D9D9D9"/>
</mask>
<g mask="url(#mask0_205_59668)">
<path d="M18.658 21.4758C18.5375 21.4758 18.4254 21.4566 18.3215 21.4181C18.2175 21.3796 18.1188 21.3136 18.0253 21.2201L12.983 16.1873C12.8894 16.0937 12.8233 15.9949 12.7848 15.8911C12.7464 15.7872 12.7273 15.6751 12.7273 15.5546C12.7273 15.4341 12.7464 15.3219 12.7848 15.2181C12.8233 15.1142 12.8894 15.0156 12.983 14.9221L14.8773 13.0278C14.9708 12.9342 15.0694 12.8681 15.1733 12.8296C15.2771 12.7912 15.3893 12.7721 15.5098 12.7721C15.6303 12.7721 15.7424 12.7912 15.8463 12.8296C15.9503 12.8681 16.049 12.9342 16.1425 13.0278L21.1848 18.0701C21.2784 18.1636 21.3445 18.2622 21.383 18.3661C21.4214 18.4701 21.4405 18.5823 21.4405 18.7028C21.4405 18.8233 21.4214 18.9355 21.383 19.0393C21.3445 19.1432 21.2784 19.2418 21.1848 19.3353L19.2905 21.2201C19.197 21.3136 19.0984 21.3796 18.9945 21.4181C18.8907 21.4566 18.7785 21.4758 18.658 21.4758ZM18.658 19.7643L19.7195 18.7028L15.5253 14.5086L14.4638 15.5701L18.658 19.7643ZM5.31753 21.4911C5.19703 21.4911 5.08228 21.4693 4.97328 21.4258C4.86445 21.3822 4.7632 21.3136 4.66953 21.2201L2.79078 19.3508C2.69711 19.2572 2.62853 19.1559 2.58503 19.0471C2.54136 18.9381 2.51953 18.8233 2.51953 18.7028C2.51953 18.5823 2.54136 18.4685 2.58503 18.3613C2.62853 18.2543 2.69711 18.154 2.79078 18.0603L8.01378 12.8373H10.1195L10.931 12.0258L6.74828 7.84308H5.32328L2.54828 5.06808L5.02728 2.58933L7.80228 5.36433V6.78933L11.9848 10.9721L14.9425 8.01433L13.483 6.55458L14.7483 5.28933H12.2023L11.6465 4.74308L14.8405 1.54883L15.3868 2.09508V4.65083L16.652 3.38558L20.4138 7.12783C20.6778 7.3855 20.8768 7.67908 21.0108 8.00858C21.1448 8.33808 21.2118 8.68675 21.2118 9.05458C21.2118 9.37775 21.156 9.689 21.0445 9.98833C20.933 10.2877 20.7709 10.5597 20.558 10.8046L18.4715 8.71808L17.0618 10.1278L16.0023 9.06808L11.1638 13.9066V16.0161L5.95028 21.2201C5.85678 21.3136 5.75803 21.3822 5.65403 21.4258C5.5502 21.4693 5.43803 21.4911 5.31753 21.4911ZM5.31753 19.7546L9.90428 15.1681V14.1066H8.84253L4.25603 18.6931L5.31753 19.7546ZM5.31753 19.7546L4.25603 18.6931L4.79453 19.2163L5.31753 19.7546Z" fill="#2357C6"/>
</g>
</svg>
