<svg width="28" height="28" viewBox="0 0 28 28" fill="none" xmlns="http://www.w3.org/2000/svg">
<g id="Frame" clip-path="url(#clip0_1280_28424)">
<path id="Vector" d="M13.9999 2.33203C20.4434 2.33203 25.6666 7.5552 25.6666 13.9987C25.669 17.0617 24.4667 20.0029 22.3193 22.1871C20.1719 24.3713 17.2516 25.6234 14.1889 25.6731C11.1263 25.7227 8.16698 24.5659 5.94992 22.4524C3.73285 20.3389 2.43591 17.4382 2.33909 14.3767L2.33325 13.9987L2.33792 13.672C2.51059 7.3802 7.66492 2.33203 13.9999 2.33203ZM13.9999 12.832H12.8333L12.6968 12.8402C12.4132 12.8739 12.1519 13.0105 11.9622 13.224C11.7726 13.4375 11.6679 13.7131 11.6679 13.9987C11.6679 14.2843 11.7726 14.5599 11.9622 14.7734C12.1519 14.9869 12.4132 15.1235 12.6968 15.1572L12.8333 15.1654V18.6654L12.8414 18.8019C12.8721 19.0623 12.9897 19.3048 13.1751 19.4902C13.3605 19.6756 13.603 19.7932 13.8634 19.8239L13.9999 19.832H15.1666L15.3031 19.8239C15.5635 19.7932 15.806 19.6756 15.9914 19.4902C16.1768 19.3048 16.2944 19.0623 16.3251 18.8019L16.3333 18.6654L16.3251 18.5289C16.2972 18.2908 16.1967 18.0672 16.0372 17.8883C15.8777 17.7094 15.667 17.584 15.4338 17.529L15.3031 17.5057L15.1666 17.4987V13.9987L15.1584 13.8622C15.1277 13.6018 15.0102 13.3593 14.8247 13.1739C14.6393 12.9885 14.3968 12.8709 14.1364 12.8402L13.9999 12.832ZM14.0116 9.33203L13.8634 9.3402C13.5799 9.37393 13.3185 9.51048 13.1289 9.72399C12.9393 9.9375 12.8346 10.2131 12.8346 10.4987C12.8346 10.7843 12.9393 11.0599 13.1289 11.2734C13.3185 11.4869 13.5799 11.6235 13.8634 11.6572L13.9999 11.6654L14.1481 11.6572C14.4316 11.6235 14.693 11.4869 14.8826 11.2734C15.0722 11.0599 15.177 10.7843 15.177 10.4987C15.177 10.2131 15.0722 9.9375 14.8826 9.72399C14.693 9.51048 14.4316 9.37393 14.1481 9.3402L14.0116 9.33203Z" fill="#2357C6"/>
</g>
<defs>
<clipPath id="clip0_1280_28424">
<rect width="28" height="28" fill="white"/>
</clipPath>
</defs>
</svg>
