<svg width="24" height="24" viewBox="0 0 24 24" fill="none" xmlns="http://www.w3.org/2000/svg">
<g id="interview 2">
<g id="Group">
<path id="Vector" d="M5.36866 21.1579C5.36866 21.623 4.99164 22 4.52656 22H3C2.44771 22 2 21.5523 2 21V6.84217C2 6.37705 2.37705 6 2.84217 6C6.09798 6 8.73733 8.63916 8.73733 11.8947V12.3887C8.73733 12.5256 8.76544 12.661 8.81992 12.7866L9.93068 15.3474C10.1151 15.7743 9.91889 16.2703 9.49191 16.4547C9.47001 16.464 9.44812 16.4724 9.42538 16.48L9.4173 16.4827C9.0109 16.62 8.73733 17.0012 8.73733 17.4301V17.7895C8.73733 19.1848 7.6063 20.3158 6.21083 20.3158C5.74575 20.3158 5.36866 20.6928 5.36866 21.1579Z" fill="#2357C6"/>
<path id="Vector_2" d="M18.6309 21.1579C18.6311 21.623 19.0083 22 19.4734 22H21C21.5523 22 22 21.5523 22 21V6.84217C22 6.37705 21.6229 6 21.1578 6C17.902 6 15.2627 8.63916 15.2627 11.8947V12.3887C15.2627 12.5256 15.2346 12.661 15.1801 12.7866L14.0693 15.3474C13.8849 15.7743 14.0811 16.2703 14.5081 16.4547C14.53 16.464 14.5519 16.4724 14.5746 16.48C14.9824 16.6164 15.2618 16.9998 15.2618 17.4298V17.7895C15.2618 19.1848 16.3929 20.3158 17.7883 20.3158C18.2535 20.3158 18.6307 20.6927 18.6309 21.1579Z" fill="#2357C6"/>
<path id="Vector_3" d="M17.1201 6C16.8771 6 16.635 5.90271 16.4615 5.71239C14.2094 3.25023 10.3135 3.02321 7.77703 5.20289C7.68458 5.28311 7.59126 5.3676 7.50233 5.4538C7.15633 5.78664 6.59902 5.78493 6.25654 5.45124C5.91317 5.11755 5.91493 4.57732 6.25918 4.24448C6.37275 4.13524 6.48985 4.02942 6.60782 3.92615C9.87419 1.12176 14.8847 1.41363 17.7786 4.57988C18.1009 4.93235 18.0674 5.47172 17.7038 5.78493C17.5365 5.92831 17.3278 6 17.1201 6Z" fill="#2357C6"/>
<path id="Vector_4" d="M14.2312 7.9991C14.0183 7.9991 13.8054 7.89611 13.6532 7.6946C12.8232 6.59211 11.3759 6.47926 10.4259 7.4501C10.3883 7.48861 10.3491 7.5316 10.3122 7.57548C10.0117 7.92566 9.52591 7.92566 9.22539 7.57548C8.92487 7.2253 8.92487 6.65928 9.22539 6.3091C9.28534 6.23924 9.34683 6.17118 9.41062 6.1058C10.9978 4.48386 13.4188 4.66835 14.8092 6.5133C15.089 6.88497 15.0575 7.45099 14.7385 7.77699C14.5925 7.92656 14.4111 7.9991 14.2312 7.9991Z" fill="#2357C6"/>
</g>
</g>
</svg>
