<svg width="28" height="28" viewBox="0 0 28 28" fill="none" xmlns="http://www.w3.org/2000/svg">
<g id="Frame" clip-path="url(#clip0_1280_28457)">
<path id="Vector" d="M8.58021 16.6367C7.61495 17.1817 6.83443 18.0025 6.33871 18.9939C5.84299 19.9853 5.65466 21.1022 5.79786 22.2014C6.89703 22.3446 8.01393 22.1563 9.00537 21.6606C9.99681 21.1648 10.8176 20.3843 11.3626 19.4191" stroke="#2357C6" stroke-width="2" stroke-linecap="round" stroke-linejoin="round"/>
<path id="Vector_2" d="M3.45142 15.3204C5.80257 15.5998 7.99136 16.6621 9.66558 18.3363C11.3398 20.0105 12.4021 22.1993 12.6815 24.5505C13.847 23.8785 14.8219 22.9205 15.5141 21.7668C16.2063 20.6132 16.5928 19.3021 16.6372 17.9575C18.8513 17.1787 20.7847 15.7608 22.1929 13.8831C23.6011 12.0055 24.421 9.75244 24.5487 7.40887C24.5487 6.35974 24.132 5.35358 23.3901 4.61174C22.6483 3.86989 21.6421 3.45313 20.593 3.45312C18.2494 3.58091 15.9964 4.40074 14.1187 5.80897C12.2411 7.2172 10.8232 9.15058 10.0443 11.3646C8.69972 11.409 7.38865 11.7956 6.23503 12.4878C5.08141 13.1799 4.12335 14.1549 3.45142 15.3204Z" fill="#2357C6"/>
<path id="Vector_3" d="M16.637 10.0451C16.637 10.3949 16.7759 10.7302 17.0232 10.9775C17.2704 11.2248 17.6058 11.3637 17.9555 11.3637C18.3053 11.3637 18.6406 11.2248 18.8879 10.9775C19.1352 10.7302 19.2741 10.3949 19.2741 10.0451C19.2741 9.69544 19.1352 9.36005 18.8879 9.11277C18.6406 8.86548 18.3053 8.72656 17.9555 8.72656C17.6058 8.72656 17.2704 8.86548 17.0232 9.11277C16.7759 9.36005 16.637 9.69544 16.637 10.0451Z" fill="#F0F7FD"/>
</g>
<defs>
<clipPath id="clip0_1280_28457">
<rect width="28" height="28" fill="white"/>
</clipPath>
</defs>
</svg>
