<svg width="24" height="24" viewBox="0 0 24 24" fill="none" xmlns="http://www.w3.org/2000/svg">
<g id="3 - Management Consultant_Menu">
<path id="Vector" d="M8.30092 1.80203C8.37585 1.80176 8.37585 1.80176 8.45229 1.80149C8.58971 1.80111 8.72711 1.80125 8.86452 1.8016C9.0132 1.80186 9.16188 1.80146 9.31056 1.80115C9.60134 1.80064 9.89212 1.80075 10.1829 1.80108C10.4194 1.80134 10.6558 1.80137 10.8923 1.80125C10.926 1.80123 10.9597 1.80121 10.9945 1.80119C11.063 1.80116 11.1315 1.80112 11.2 1.80108C11.8418 1.80076 12.4835 1.80113 13.1252 1.80175C13.6752 1.80226 14.2251 1.80217 14.775 1.80164C15.4145 1.80103 16.0539 1.80079 16.6934 1.80114C16.7617 1.80118 16.8299 1.80121 16.8982 1.80125C16.9486 1.80127 16.9486 1.80127 17 1.8013C17.236 1.8014 17.472 1.80123 17.708 1.80096C17.9958 1.80064 18.2837 1.80073 18.5715 1.80134C18.7182 1.80164 18.8649 1.80176 19.0116 1.80138C19.1711 1.80097 19.3304 1.80146 19.4899 1.80203C19.5357 1.80177 19.5815 1.80152 19.6287 1.80126C20.3406 1.80616 20.9532 2.05648 21.4617 2.51957C21.975 3.03948 22.1824 3.62072 22.179 4.31604C22.179 4.3685 22.1791 4.42097 22.1792 4.47344C22.1793 4.61706 22.179 4.76067 22.1786 4.90428C22.1783 5.05936 22.1784 5.21444 22.1784 5.36953C22.1785 5.63803 22.1782 5.90653 22.1778 6.17503C22.1771 6.56324 22.1769 6.95144 22.1768 7.33965C22.1766 7.96953 22.1761 8.5994 22.1753 9.22927C22.1746 9.84106 22.174 10.4528 22.1736 11.0646C22.1736 11.1027 22.1736 11.1408 22.1736 11.1801C22.1734 11.4782 22.1732 11.7762 22.1731 12.0742C22.1723 13.5346 22.1707 14.9949 22.1692 16.4553C19.843 16.4553 17.5169 16.4553 15.1203 16.4553C15.08 16.342 15.0396 16.2288 14.9981 16.1122C14.793 15.5806 14.5358 15.097 14.1424 14.6635C14.1188 14.6359 14.0952 14.6083 14.0708 14.5799C13.3422 13.7612 12.2958 13.4183 11.2088 13.253C11.2684 13.1357 11.3385 13.0395 11.4258 12.9382C11.9237 12.3595 12.2535 11.6895 12.4312 10.9657C12.5883 10.9871 12.6595 11.0511 12.7697 11.1552C12.804 11.1872 12.8382 11.2193 12.8735 11.2523C12.9101 11.2871 12.9467 11.3219 12.9844 11.3578C13.0222 11.3933 13.0599 11.4288 13.0988 11.4654C13.199 11.5596 13.2989 11.6541 13.3986 11.7487C13.5005 11.8452 13.6028 11.9414 13.7051 12.0377C13.9055 12.2265 14.1056 12.4156 14.3054 12.605C14.4465 12.5483 14.5374 12.4735 14.6452 12.3719C14.6803 12.3391 14.7154 12.3063 14.7515 12.2725C14.7901 12.236 14.8286 12.1996 14.8671 12.1631C14.9079 12.1248 14.9488 12.0865 14.9896 12.0482C15.0775 11.9657 15.1652 11.8832 15.2528 11.8006C15.3913 11.67 15.53 11.5397 15.6688 11.4095C15.9633 11.1331 16.2574 10.8565 16.5515 10.5798C16.8692 10.2808 17.187 9.98188 17.5052 9.68333C17.6433 9.55375 17.7812 9.42398 17.919 9.29407C18.0045 9.21348 18.0902 9.13305 18.1759 9.05266C18.2158 9.01523 18.2556 8.97773 18.2953 8.94017C18.3493 8.88908 18.4036 8.83825 18.4579 8.78743C18.4882 8.75885 18.5186 8.73028 18.5499 8.70084C18.6244 8.64032 18.6244 8.64032 18.7059 8.64032C18.7059 9.33223 18.7059 10.0241 18.7059 10.737C19.2706 10.737 19.8353 10.737 20.4171 10.737C20.4146 10.1393 20.4146 10.1393 20.4106 9.54162C20.4086 9.29752 20.4068 9.05342 20.4061 8.80931C20.4055 8.6123 20.4041 8.41531 20.4021 8.21831C20.4015 8.1435 20.4012 8.06868 20.4012 7.99386C20.4006 7.38374 20.3527 6.85381 19.8875 6.38534C19.5082 6.04508 19.099 5.92917 18.5868 5.92586C18.5506 5.92548 18.5144 5.92511 18.4772 5.92472C18.3579 5.92352 18.2386 5.92257 18.1194 5.92163C18.0365 5.92084 17.9537 5.92004 17.8708 5.91923C17.6531 5.91712 17.4353 5.91524 17.2176 5.9134C16.9561 5.91114 16.6947 5.90862 16.4333 5.90614C16.0364 5.90241 15.6395 5.89902 15.2426 5.89557C15.2426 6.42393 15.2426 6.9523 15.2426 7.49668C15.9821 7.49668 16.7216 7.49668 17.4835 7.49668C17.2085 7.79688 17.2085 7.79688 17.1014 7.89692C17.0649 7.93115 17.0649 7.93115 17.0276 7.96608C17.0018 7.99007 16.976 8.01406 16.9495 8.03878C16.9216 8.06485 16.8938 8.09092 16.8651 8.11777C16.7739 8.20305 16.6826 8.28819 16.5913 8.37332C16.5277 8.43276 16.4641 8.49221 16.4005 8.55167C16.2338 8.70749 16.067 8.86319 15.9001 9.01887C15.7296 9.17801 15.5592 9.33726 15.3888 9.4965C15.055 9.80845 14.721 10.1203 14.3869 10.432C14.2469 10.3752 14.1521 10.3003 14.0423 10.2018C14.0066 10.1699 13.971 10.138 13.9343 10.1052C13.7711 9.95691 13.6083 9.80832 13.4462 9.659C13.3612 9.58087 13.2757 9.50344 13.1894 9.42658C12.6422 8.78743 12.5247 8.52735 12.0916 7.95662C11.6246 7.34136 11.3645 6.81928 10.8829 6.39115C10.8585 6.36903 10.8342 6.34692 10.8092 6.32414C10.1531 5.74975 9.30779 5.39162 8.43818 5.20938C8.37492 5.19537 8.37492 5.19537 8.31038 5.18108C7.49418 5.03223 6.62469 5.11774 5.83466 5.34087C5.74903 5.36186 5.74903 5.36186 5.62679 5.36186C5.6227 5.17759 5.61978 4.99333 5.61784 4.80903C5.61703 4.74663 5.61593 4.68423 5.6145 4.62184C5.59712 3.84331 5.76192 3.12088 6.35544 2.54043C6.89613 2.03283 7.53934 1.7978 8.30092 1.80203Z" fill="#2357C6"/>
<path id="Vector_2" d="M4.08746 15.1924C4.1608 15.1922 4.23415 15.1919 4.30749 15.1916C4.50527 15.1908 4.70304 15.1909 4.90082 15.1911C5.06656 15.1912 5.2323 15.191 5.39804 15.1907C5.78935 15.1902 6.18067 15.1902 6.57198 15.1907C6.9743 15.1912 7.37661 15.1906 7.77892 15.1895C8.12565 15.1886 8.47237 15.1883 8.81909 15.1886C9.0256 15.1887 9.2321 15.1886 9.43861 15.1879C9.63293 15.1873 9.82723 15.1874 10.0216 15.1882C10.0924 15.1883 10.1633 15.1882 10.2341 15.1878C11.0597 15.1832 11.7669 15.3814 12.3701 15.9925C13.8031 17.5517 13.0742 20.6136 13.0742 22.1962C9.14042 22.1962 5.20666 22.1962 1.15369 22.1962C1.15369 16.7234 1.15369 16.7234 1.91118 15.9444C1.93862 15.9153 1.96606 15.8863 1.99434 15.8563C2.58348 15.2727 3.30926 15.1902 4.08746 15.1924Z" fill="#2357C6"/>
<path id="Vector_3" d="M9.61465 7.10243C10.3878 7.74857 10.9185 8.62279 11.0177 9.63726C11.0935 10.779 10.8062 11.7941 10.0517 12.6767C9.41696 13.3706 8.51392 13.8432 7.56839 13.9058C6.45661 13.9554 5.4749 13.6794 4.63105 12.9414C3.9216 12.2711 3.4238 11.3999 3.3845 10.409C3.38344 10.3099 3.3834 10.2108 3.38432 10.1117C3.38472 10.0593 3.38513 10.0069 3.38554 9.95296C3.40633 8.9041 3.85688 8.00641 4.59775 7.27102C4.8434 7.03735 5.10665 6.86605 5.40747 6.70762C5.44713 6.68633 5.48679 6.66505 5.52766 6.64312C6.85243 5.98771 8.46165 6.21415 9.61465 7.10243Z" fill="#2357C6"/>
</g>
</svg>
