<svg width="271" height="108" viewBox="0 0 271 108" fill="none" xmlns="http://www.w3.org/2000/svg">
<g filter="url(#filter0_dd_1256_36364)">
<rect x="12.5" y="6" width="246" height="84" rx="12" fill="white"/>
<rect x="13" y="6.5" width="245" height="83" rx="11.5" stroke="#F1F2F2"/>
<rect x="27" y="18.5" width="33" height="23" rx="3.5" fill="white"/>
<rect x="27" y="18.5" width="33" height="23" rx="3.5" stroke="#F8F8F8"/>
<path fill-rule="evenodd" clip-rule="evenodd" d="M42.3378 37.3008H44.9338C48.9863 37.3008 52.2155 34.0858 52.3422 30.1143V30.0512C52.2789 26.0167 48.9863 22.7386 44.9338 22.8017H42.0212C38.1587 22.9278 35.1194 26.2058 35.246 30.1143C35.246 34.0227 38.412 37.2377 42.3378 37.3008ZM36.5124 30.0512C36.5124 26.7731 39.2351 24.0624 42.5277 24.0624C45.8203 24.0624 48.543 26.7731 48.543 30.0512C48.543 33.3293 45.8203 36.04 42.5277 36.04C39.2351 36.04 36.5124 33.3293 36.5124 30.0512ZM43.4775 34.0857V26.0797C45.6937 26.6471 47.0867 28.8535 46.5168 31.0598C46.1369 32.5728 44.9972 33.7075 43.4775 34.0857ZM38.6019 29.0426C38.0321 31.249 39.3618 33.5184 41.5779 34.0857V26.0797C40.1216 26.4579 38.9818 27.5927 38.6019 29.0426Z" fill="#0079BE"/>
<rect x="73" y="18.5" width="33" height="23" rx="3.5" fill="white"/>
<rect x="73" y="18.5" width="33" height="23" rx="3.5" stroke="#F8F8F8"/>
<path d="M73.5078 19.0039H105.502V41.4016H73.5078V19.0039Z" fill="#29ABE2"/>
<path d="M73.5078 19.0039H105.502V41.4016H73.5078V19.0039Z" fill="url(#paint0_radial_1256_36364)"/>
<path d="M73.5078 19.0039H105.502V41.4016H73.5078V19.0039Z" fill="url(#paint1_radial_1256_36364)"/>
<path d="M90.7824 24.099H98.5905C99.314 24.099 100.008 24.3932 100.519 24.9168C101.031 25.4404 101.318 26.1505 101.318 26.891C101.318 27.6315 101.031 28.3417 100.519 28.8653C100.008 29.3889 99.314 29.683 98.5905 29.683H90.7824V24.099ZM90.7824 30.316H98.5905C99.314 30.316 100.008 30.6102 100.519 31.1338C101.031 31.6574 101.318 32.3675 101.318 33.108C101.318 33.8485 101.031 34.5587 100.519 35.0823C100.008 35.6059 99.314 35.9 98.5905 35.9H90.7824V30.316ZM83.9793 30.316V29.683H90.2633C90.1046 28.1095 89.3668 26.6568 88.1997 25.6197C87.0326 24.5827 85.5238 24.039 83.9793 24.099C82.3823 24.0316 80.8243 24.6147 79.6464 25.7206C78.4686 26.8266 77.767 28.3652 77.6953 29.9995C77.767 31.6338 78.4686 33.1725 79.6464 34.2784C80.8243 35.3843 82.3823 35.9675 83.9793 35.9C85.5238 35.9601 87.0326 35.4164 88.1997 34.3793C89.3668 33.3422 90.1046 31.8895 90.2633 30.316H83.9793Z" fill="white"/>
<rect x="119" y="18.5" width="33" height="23" rx="3.5" fill="white"/>
<rect x="119" y="18.5" width="33" height="23" rx="3.5" stroke="#F8F8F8"/>
<path d="M132.5 41L151.5 35.25V38C151.5 39.6569 150.157 41 148.5 41H132.5Z" fill="#FD6020"/>
<path fill-rule="evenodd" clip-rule="evenodd" d="M147.894 27.1108C148.939 27.1108 149.514 27.5944 149.514 28.5077C149.566 29.2062 149.096 29.7972 148.469 29.9046L149.88 31.8925H148.782L147.58 29.9584H147.476V31.8925H146.587V27.1108H147.894ZM147.476 29.3137H147.737C148.312 29.3137 148.573 29.045 148.573 28.5615C148.573 28.1317 148.312 27.863 147.737 27.863H147.476V29.3137ZM143.503 31.8925H146.012V31.0866H144.392V29.7972H145.96V28.9913H144.392V27.9167H146.012V27.1108H143.503V31.8925ZM140.89 30.3345L139.688 27.1108H138.747L140.681 32H141.152L143.085 27.1108H142.145L140.89 30.3345ZM130.28 29.5286C130.28 30.8717 131.326 32 132.632 32C133.051 32 133.416 31.8925 133.782 31.7314V30.6568C133.521 30.9792 133.155 31.1941 132.737 31.1941C131.901 31.1941 131.221 30.5494 131.221 29.6897V29.5823C131.169 28.7227 131.848 27.9705 132.685 27.9168C133.103 27.9168 133.521 28.1317 133.782 28.454V27.3795C133.469 27.1646 133.051 27.1108 132.685 27.1108C131.326 27.0034 130.28 28.1317 130.28 29.5286ZM128.66 28.9376C128.138 28.7227 127.981 28.6152 127.981 28.3466C128.033 28.0242 128.294 27.7556 128.608 27.8093C128.869 27.8093 129.131 27.9705 129.34 28.1854L129.81 27.5407C129.444 27.2183 128.974 27.0034 128.503 27.0034C127.772 26.9497 127.145 27.5407 127.092 28.2928V28.3466C127.092 28.9913 127.354 29.3674 128.19 29.636C128.399 29.6897 128.608 29.7972 128.817 29.9046C128.974 30.0121 129.078 30.1733 129.078 30.3882C129.078 30.7643 128.765 31.0866 128.451 31.0866H128.399C127.981 31.0866 127.615 30.818 127.458 30.4419L126.883 31.0329C127.197 31.6239 127.824 31.9463 128.451 31.9463C129.287 32 129.967 31.3553 130.019 30.4956V30.3345C129.967 29.6897 129.706 29.3674 128.66 28.9376ZM125.629 31.8925H126.517V27.1108H125.629V31.8925ZM121.5 27.1109H122.807H123.068C124.322 27.1646 125.315 28.2391 125.263 29.5286C125.263 30.227 124.949 30.8717 124.427 31.3553C123.956 31.7314 123.382 31.9463 122.807 31.8926H121.5V27.1109ZM122.65 31.0866C123.068 31.1404 123.538 30.9792 123.852 30.7105C124.166 30.3882 124.322 29.9584 124.322 29.4748C124.322 29.045 124.166 28.6152 123.852 28.2928C123.538 28.0242 123.068 27.863 122.65 27.9167H122.389V31.0866H122.65Z" fill="black"/>
<path fill-rule="evenodd" clip-rule="evenodd" d="M136.447 27C135.141 27 134.043 28.0745 134.043 29.4714C134.043 30.8146 135.088 31.9429 136.447 31.9966C137.806 32.0503 138.851 30.9221 138.904 29.5252C138.851 28.1283 137.806 27 136.447 27V27Z" fill="#FD6020"/>
<rect x="165" y="18.5" width="33" height="23" rx="3.5" fill="white"/>
<rect x="165" y="18.5" width="33" height="23" rx="3.5" stroke="#F8F8F8"/>
<path d="M186.484 29.9523C187.015 29.9638 187.549 29.9288 188.078 29.9705C188.614 30.0704 188.743 30.8817 188.267 31.1474C187.943 31.3224 187.557 31.2125 187.205 31.2434H186.484V29.9523ZM188.386 28.4909C188.504 28.9075 188.102 29.2816 187.701 29.2242H186.484C186.492 28.8313 186.467 28.4049 186.496 28.0327C186.984 28.0464 187.476 28.0047 187.96 28.0545C188.169 28.1068 188.343 28.278 188.386 28.4909ZM191.315 22.3125C191.337 23.1082 191.318 23.9459 191.324 24.7576C191.323 28.058 191.327 31.3583 191.322 34.6589C191.3 35.8958 190.204 36.9706 188.976 36.9953C187.746 37.0003 186.517 36.9961 185.287 36.9974V32.0079C186.627 32.001 187.967 32.022 189.306 31.9975C189.928 31.9585 190.608 31.5485 190.637 30.8648C190.71 30.1781 190.063 29.7032 189.448 29.6282C189.212 29.622 189.219 29.5593 189.448 29.5319C190.035 29.4052 190.495 28.7985 190.322 28.1908C190.175 27.5517 189.469 27.3044 188.881 27.3056C187.683 27.2975 186.485 27.3045 185.287 27.3021C185.295 26.3706 185.271 25.4381 185.3 24.5073C185.395 23.2927 186.519 22.2911 187.73 22.3128C188.925 22.3127 190.12 22.3127 191.315 22.3126V22.3125Z" fill="url(#paint2_linear_1256_36364)"/>
<path d="M171.747 24.6333C171.777 23.3984 172.878 22.3324 174.105 22.3144C175.33 22.3106 176.555 22.3138 177.78 22.3128C177.777 26.4446 177.787 30.5769 177.775 34.7086C177.728 35.9285 176.639 36.9742 175.426 36.9957C174.198 37.0002 172.971 36.9964 171.743 36.9976V31.8399C172.936 32.1215 174.186 32.2414 175.402 32.0546C176.129 31.9376 176.924 31.5806 177.171 30.8264C177.352 30.1812 177.25 29.5022 177.277 28.8401V27.3023H175.172C175.162 28.3194 175.191 29.3382 175.157 30.354C175.1 30.9784 174.482 31.3751 173.893 31.3539C173.162 31.3616 171.715 30.8246 171.715 30.8246C171.712 28.9191 171.736 26.5327 171.747 24.6335V24.6333Z" fill="url(#paint3_linear_1256_36364)"/>
<path d="M178.565 27.9228C178.455 27.9463 178.543 27.5454 178.515 27.3934C178.522 26.4318 178.499 25.4692 178.528 24.5084C178.622 23.2887 179.755 22.2845 180.971 22.3131H184.552C184.548 26.445 184.558 30.5773 184.547 34.7089C184.499 35.9289 183.41 36.9744 182.197 36.9961C180.97 37.0007 179.742 36.9968 178.515 36.998V31.347C179.353 32.0348 180.492 32.1419 181.537 32.1437C182.324 32.1435 183.107 32.0221 183.871 31.8405V30.8052C183.01 31.2347 181.997 31.5074 181.042 31.2607C180.375 31.0949 179.892 30.4509 179.902 29.7633C179.825 29.0482 180.244 28.2933 180.947 28.0807C181.82 27.8076 182.77 28.0165 183.588 28.3716C183.763 28.4633 183.941 28.5771 183.871 28.2842V27.4705C182.503 27.1451 181.048 27.0253 179.674 27.3793C179.276 27.4915 178.888 27.6617 178.565 27.9229V27.9228Z" fill="url(#paint4_linear_1256_36364)"/>
<rect x="211" y="18.5" width="33" height="23" rx="3.5" fill="white"/>
<rect x="211" y="18.5" width="33" height="23" rx="3.5" stroke="#F8F8F8"/>
<path d="M221.017 23H226.375C227.123 23 227.588 23.6276 227.413 24.4001L224.919 35.4255C224.743 36.1953 223.994 36.8234 223.245 36.8234H217.888C217.141 36.8234 216.675 36.1953 216.849 35.4255L219.345 24.4001C219.519 23.6276 220.268 23 221.017 23Z" fill="#E21836"/>
<path d="M225.93 23H232.092C232.84 23 232.503 23.6276 232.327 24.4001L229.833 35.4255C229.658 36.1953 229.712 36.8234 228.963 36.8234H222.801C222.052 36.8234 221.588 36.1953 221.764 35.4255L224.258 24.4001C224.435 23.6276 225.182 23 225.93 23Z" fill="#00447C"/>
<path d="M231.848 23H237.206C237.955 23 238.42 23.6276 238.245 24.4001L235.75 35.4255C235.574 36.1953 234.825 36.8234 234.076 36.8234H228.72C227.971 36.8234 227.506 36.1953 227.682 35.4255L230.176 24.4001C230.351 23.6276 231.099 23 231.848 23Z" fill="#007B84"/>
<path d="M222.414 26.5351C221.863 26.5409 221.7 26.5351 221.648 26.5225C221.628 26.6202 221.257 28.3858 221.256 28.3873C221.176 28.7445 221.117 28.9992 220.919 29.1636C220.807 29.2592 220.676 29.3053 220.524 29.3053C220.28 29.3053 220.137 29.1804 220.113 28.9435L220.109 28.8622C220.109 28.8622 220.183 28.3837 220.183 28.381C220.183 28.381 220.573 26.772 220.643 26.5593C220.647 26.5472 220.648 26.5409 220.649 26.5351C219.889 26.5419 219.755 26.5351 219.745 26.5225C219.74 26.5398 219.722 26.6396 219.722 26.6396L219.323 28.4531L219.289 28.6069L219.223 29.1099C219.223 29.2592 219.251 29.381 219.308 29.484C219.489 29.8105 220.007 29.8595 220.3 29.8595C220.678 29.8595 221.032 29.7769 221.271 29.6262C221.686 29.3736 221.795 28.9787 221.892 28.6278L221.937 28.4478C221.937 28.4478 222.339 26.7767 222.407 26.5593C222.41 26.5472 222.411 26.5409 222.414 26.5351ZM223.782 27.8832C223.685 27.8832 223.508 27.9074 223.349 27.9877C223.291 28.0182 223.237 28.0534 223.179 28.0885L223.231 27.8953L223.202 27.8628C222.865 27.9331 222.79 27.9425 222.478 27.9877L222.452 28.0055C222.416 28.3144 222.384 28.5465 222.249 29.1535C222.198 29.3773 222.145 29.6031 222.092 29.8263L222.107 29.8547C222.426 29.8373 222.523 29.8373 222.8 29.842L222.823 29.8169C222.858 29.631 222.863 29.5874 222.941 29.2108C222.977 29.0323 223.054 28.64 223.092 28.5003C223.161 28.4672 223.229 28.4347 223.295 28.4347C223.45 28.4347 223.431 28.5744 223.425 28.63C223.419 28.7235 223.362 29.0287 223.304 29.2907L223.265 29.4598C223.238 29.5847 223.208 29.7061 223.181 29.8299L223.193 29.8547C223.508 29.8373 223.604 29.8373 223.873 29.842L223.904 29.8169C223.953 29.5265 223.967 29.4488 224.053 29.026L224.097 28.8317C224.181 28.4515 224.223 28.2587 224.159 28.1017C224.092 27.9257 223.93 27.8832 223.782 27.8832ZM225.31 28.2813C225.143 28.3143 225.036 28.3364 224.93 28.3506C224.825 28.368 224.722 28.3837 224.56 28.4068L224.548 28.4188L224.536 28.4284C224.519 28.5523 224.507 28.6595 224.485 28.7854C224.466 28.9157 224.437 29.0637 224.389 29.2764C224.353 29.4392 224.334 29.496 224.313 29.5532C224.293 29.6105 224.27 29.6662 224.229 29.8263L224.239 29.8411L224.247 29.8547C224.398 29.8473 224.497 29.842 224.598 29.8411C224.7 29.8373 224.805 29.8411 224.968 29.842L224.982 29.8301L224.997 29.8169C225.021 29.6725 225.024 29.6336 225.038 29.5632C225.053 29.4876 225.077 29.383 225.137 29.1037C225.166 28.9724 225.198 28.8416 225.227 28.7077C225.258 28.5744 225.29 28.443 225.321 28.3118L225.316 28.2959L225.31 28.2813ZM225.313 27.7446C225.161 27.6522 224.895 27.6815 224.715 27.8091C224.536 27.9341 224.516 28.1116 224.667 28.2052C224.816 28.295 225.084 28.2682 225.262 28.1395C225.441 28.0118 225.463 27.836 225.313 27.7446ZM226.233 29.8836C226.54 29.8836 226.856 29.7963 227.093 29.5374C227.275 29.3274 227.359 29.015 227.388 28.8863C227.483 28.4599 227.409 28.2607 227.317 28.1395C227.177 27.9546 226.929 27.8953 226.671 27.8953C226.517 27.8953 226.149 27.9111 225.861 28.1841C225.654 28.3811 225.559 28.6483 225.501 28.9046C225.443 29.1657 225.376 29.6357 225.796 29.8106C225.926 29.8679 226.112 29.8836 226.233 29.8836ZM226.209 28.9241C226.28 28.6012 226.363 28.3301 226.577 28.3301C226.744 28.3301 226.757 28.5318 226.682 28.8558C226.669 28.9277 226.608 29.1951 226.525 29.309C226.467 29.393 226.399 29.444 226.324 29.444C226.301 29.444 226.167 29.444 226.165 29.2398C226.164 29.1389 226.184 29.0359 226.209 28.9241ZM228.157 29.8421L228.181 29.8169C228.215 29.631 228.221 29.5873 228.296 29.2109C228.334 29.0323 228.412 28.64 228.449 28.5003C228.518 28.4671 228.586 28.4346 228.653 28.4346C228.807 28.4346 228.789 28.5743 228.783 28.6299C228.777 28.7235 228.72 29.0286 228.661 29.2906L228.624 29.4597C228.596 29.5847 228.566 29.706 228.539 29.83L228.55 29.8547C228.866 29.8374 228.959 29.8374 229.229 29.8421L229.262 29.8169C229.309 29.5264 229.322 29.4487 229.411 29.026L229.453 28.8316C229.538 28.4514 229.58 28.2587 229.518 28.1017C229.448 27.9257 229.286 27.8832 229.139 27.8832C229.042 27.8832 228.864 27.9073 228.706 27.9877C228.649 28.0182 228.593 28.0533 228.537 28.0885L228.586 27.8953L228.56 27.8627C228.222 27.9331 228.145 27.9425 227.834 27.9877L227.81 28.0056C227.772 28.3144 227.742 28.5464 227.608 29.1536C227.557 29.3773 227.504 29.6032 227.451 29.8263L227.465 29.8547C227.785 29.8374 227.88 29.8374 228.157 29.8421ZM230.477 29.8546C230.497 29.7549 230.615 29.1636 230.616 29.1636C230.616 29.1636 230.717 28.7298 230.723 28.714C230.723 28.714 230.754 28.6689 230.786 28.651H230.832C231.271 28.651 231.766 28.651 232.155 28.357C232.419 28.1553 232.6 27.8575 232.68 27.4956C232.701 27.4068 232.716 27.3013 232.716 27.1958C232.716 27.0572 232.689 26.92 232.611 26.8129C232.413 26.5277 232.019 26.5225 231.564 26.5203C231.562 26.5203 231.339 26.5225 231.339 26.5225C230.757 26.5299 230.523 26.5277 230.427 26.5156C230.419 26.5593 230.404 26.637 230.404 26.637C230.404 26.637 230.195 27.6327 230.195 27.6343C230.195 27.6343 229.696 29.7513 229.672 29.851C230.181 29.8447 230.389 29.8447 230.477 29.8546ZM230.864 28.0859C230.864 28.0859 231.086 27.0922 231.085 27.096L231.092 27.0451L231.095 27.0062L231.184 27.0156C231.184 27.0156 231.641 27.0561 231.652 27.0572C231.833 27.1291 231.907 27.3145 231.855 27.5565C231.808 27.7776 231.668 27.9636 231.489 28.0534C231.342 28.1295 231.161 28.1358 230.975 28.1358H230.855L230.864 28.0859ZM232.246 28.9425C232.187 29.1998 232.119 29.6698 232.537 29.8373C232.67 29.8957 232.79 29.913 232.911 29.9067C233.039 29.8996 233.158 29.8334 233.268 29.7383C233.258 29.7774 233.248 29.8165 233.238 29.8558L233.257 29.8809C233.558 29.8679 233.651 29.8679 233.977 29.8704L234.006 29.8473C234.054 29.5596 234.098 29.2802 234.222 28.7298C234.282 28.4662 234.342 28.2051 234.404 27.9425L234.394 27.9136C234.058 27.9777 233.968 27.9914 233.645 28.0386L233.62 28.0592C233.617 28.086 233.614 28.1116 233.611 28.1373C233.56 28.0537 233.487 27.9823 233.375 27.9378C233.231 27.8796 232.893 27.9546 232.603 28.2267C232.399 28.421 232.301 28.6872 232.246 28.9425ZM232.952 28.9582C233.024 28.6411 233.106 28.3727 233.32 28.3727C233.456 28.3727 233.527 28.5014 233.513 28.7208C233.501 28.7755 233.489 28.8332 233.474 28.8984C233.453 28.9926 233.429 29.0861 233.407 29.1796C233.384 29.2436 233.357 29.304 233.328 29.3442C233.272 29.4246 233.141 29.4745 233.066 29.4745C233.044 29.4745 232.912 29.4745 232.908 29.2739C232.907 29.174 232.927 29.0712 232.952 28.9582ZM236.638 27.911L236.613 27.8805C236.28 27.9499 236.22 27.9609 235.914 28.0034L235.892 28.0265C235.891 28.0303 235.89 28.0361 235.888 28.0413L235.887 28.0361C235.66 28.5764 235.666 28.4598 235.481 28.8852C235.48 28.8658 235.48 28.8537 235.479 28.8332L235.433 27.911L235.403 27.8805C235.055 27.9499 235.047 27.9609 234.725 28.0034L234.7 28.0265C234.696 28.0375 234.696 28.0496 234.694 28.0628L234.696 28.0675C234.737 28.2791 234.727 28.2319 234.767 28.5659C234.786 28.7298 234.811 28.8946 234.83 29.0565C234.862 29.3274 234.879 29.4608 234.918 29.8742C234.701 30.2433 234.649 30.383 234.44 30.707L234.442 30.7103L234.294 30.9501C234.277 30.9754 234.262 30.9927 234.241 31.0001C234.217 31.0121 234.187 31.0142 234.144 31.0142H234.063L233.941 31.4297L234.358 31.4371C234.602 31.436 234.755 31.3183 234.838 31.1602L235.1 30.6986H235.096L235.123 30.666C235.299 30.2759 236.638 27.911 236.638 27.911ZM232.246 33.367H232.069L232.722 31.1419H232.939L233.008 30.9127L233.015 31.1676C233.007 31.3251 233.127 31.4648 233.443 31.4417H233.809L233.935 31.0132H233.797C233.718 31.0132 233.682 30.9927 233.686 30.9486L233.68 30.6892H233.002V30.6906C232.783 30.6953 232.129 30.7122 231.997 30.7485C231.836 30.791 231.667 30.916 231.667 30.916L231.734 30.6865H231.1L230.968 31.1419L230.306 33.4011H230.177L230.051 33.8264H231.313L231.271 33.9683H231.893L231.934 33.8264H232.109L232.246 33.367ZM231.728 31.594C231.626 31.6229 231.437 31.7106 231.437 31.7106L231.605 31.1419H232.109L231.987 31.5562C231.987 31.5562 231.832 31.5657 231.728 31.594ZM231.737 32.4065C231.737 32.4065 231.579 32.4269 231.475 32.4511C231.373 32.4831 231.18 32.5839 231.18 32.5839L231.354 31.9921H231.86L231.737 32.4065ZM231.455 33.3723H230.95L231.097 32.8728H231.6L231.455 33.3723ZM232.671 31.9921H233.399L233.295 32.3408H232.557L232.446 32.7221H233.092L232.603 33.4305C232.569 33.4825 232.538 33.501 232.504 33.5156C232.47 33.5335 232.425 33.5545 232.373 33.5545H232.194L232.071 33.972H232.539C232.783 33.972 232.927 33.858 233.033 33.7084L233.368 33.2362L233.44 33.7157C233.455 33.8055 233.518 33.858 233.56 33.8785C233.607 33.9027 233.656 33.9442 233.724 33.9504C233.797 33.9536 233.85 33.9562 233.886 33.9562H234.116L234.254 33.4889H234.163C234.111 33.4889 234.021 33.4798 234.006 33.463C233.991 33.4426 233.991 33.4111 233.983 33.3633L233.91 32.8828H233.611L233.742 32.7221H234.478L234.591 32.3408H233.91L234.016 31.9921H234.695L234.821 31.562H232.795L232.671 31.9921ZM226.523 33.4694L226.693 32.8875H227.391L227.519 32.4548H226.82L226.927 32.0966H227.61L227.736 31.6775H226.027L225.903 32.0966H226.291L226.188 32.4548H225.799L225.67 32.8949H226.058L225.831 33.6647C225.801 33.7667 225.846 33.8055 225.874 33.8528C225.903 33.8989 225.933 33.9295 225.999 33.9468C226.067 33.9625 226.114 33.9719 226.178 33.9719H226.965L227.106 33.4925L226.757 33.5419C226.689 33.5419 226.503 33.5335 226.523 33.4694ZM226.603 30.6839L226.426 31.0132C226.388 31.0851 226.354 31.1297 226.323 31.1503C226.296 31.1676 226.243 31.1749 226.165 31.1749H226.073L225.95 31.5961H226.256C226.404 31.5961 226.517 31.5404 226.571 31.5126C226.629 31.4806 226.644 31.4989 226.689 31.4543L226.793 31.3619H227.75L227.878 30.9234H227.177L227.299 30.6839H226.603ZM228.017 33.4779C228 33.4537 228.012 33.411 228.037 33.3223L228.299 32.4305H229.23C229.366 32.4285 229.464 32.4269 229.527 32.4222C229.596 32.4148 229.67 32.3897 229.751 32.3445C229.835 32.2972 229.878 32.2473 229.914 32.19C229.954 32.1329 230.019 32.0079 230.075 31.8151L230.404 30.6866L229.438 30.6923C229.438 30.6923 229.14 30.7375 229.009 30.7874C228.877 30.843 228.688 30.9985 228.688 30.9985L228.775 30.6891H228.178L227.343 33.5418C227.313 33.6526 227.293 33.733 227.289 33.7813C227.287 33.8333 227.353 33.8848 227.395 33.9237C227.445 33.9625 227.519 33.9562 227.59 33.9625C227.664 33.9683 227.77 33.9719 227.917 33.9719H228.375L228.516 33.4826L228.106 33.5225C228.062 33.5225 228.03 33.4983 228.017 33.4779ZM228.468 31.8282H229.446L229.384 32.0288C229.375 32.0335 229.354 32.0189 229.254 32.031H228.408L228.468 31.8282ZM228.664 31.1555H229.65L229.579 31.3971C229.579 31.3971 229.114 31.3924 229.04 31.4065C228.712 31.4648 228.521 31.645 228.521 31.645L228.664 31.1555ZM229.405 32.7005C229.397 32.7305 229.385 32.7488 229.367 32.7625C229.347 32.7757 229.315 32.7804 229.267 32.7804H229.127L229.136 32.5361H228.556L228.532 33.7304C228.532 33.8166 228.54 33.8664 228.601 33.9064C228.662 33.9562 228.851 33.9626 229.105 33.9626H229.468L229.599 33.5155L229.283 33.5334L229.178 33.5397C229.164 33.5334 229.15 33.5276 229.135 33.5119C229.121 33.4983 229.099 33.5067 229.102 33.4205L229.105 33.1144L229.436 33.1002C229.616 33.1002 229.692 33.0403 229.757 32.9831C229.82 32.9284 229.84 32.8655 229.864 32.7804L229.919 32.5094H229.464L229.405 32.7005Z" fill="#FEFEFE"/>
<rect x="50" y="54.5" width="33" height="23" rx="3.5" fill="white"/>
<rect x="50" y="54.5" width="33" height="23" rx="3.5" stroke="#F8F8F8"/>
<path fill-rule="evenodd" clip-rule="evenodd" d="M55.0683 70.6755C54.944 71.375 54.6797 72.1211 54.6797 72.1211C54.6797 72.1211 55.3171 72.6183 56.8558 72.6183C58.7522 72.6183 60.0736 71.5302 60.0736 70.0846C60.0736 68.639 58.8456 68.0637 58.1304 67.7529C58.0458 67.7161 57.9564 67.6789 57.8644 67.6406C57.18 67.3555 56.3584 67.0133 56.3584 66.3693C56.3584 65.6388 56.9491 65.39 57.7731 65.39C58.597 65.39 59.312 65.8718 59.312 65.8718C60.6956 65.732 61.5194 65.8563 61.5194 65.8563V72.4476H63.4006V65.8877C64.784 65.6388 65.7635 65.9654 65.7635 65.9654C65.7479 65.2657 65.8877 64.7528 65.8877 64.7528H59.1723C58.3327 64.5351 57.6488 64.5662 57.6488 64.5662C55.9077 64.5662 54.7729 65.6234 54.7729 66.929C54.7729 68.2348 55.6124 68.9033 56.6695 69.2919C57.7265 69.6803 58.395 70.1625 58.395 70.6132C58.395 71.0639 58.2084 71.7945 56.8871 71.7945C55.5659 71.7945 55.4259 70.6287 55.4259 70.6287L55.0683 70.6755ZM77.4998 66.4317C77.4998 66.4317 77.6862 68.2503 75.7276 68.5923C75.7276 68.5923 77.0994 70.893 78.3177 72.4476H75.8928L73.8157 68.9498V72.4476H69.566L68.7073 70.1314H66.206L65.1823 72.4476H63.8455L67.452 64.7528H68.8353L71.7579 72.1714V64.7529H75.479C75.479 64.7529 77.4998 64.675 77.4998 66.4317ZM54.6797 63.7423H59.9339C59.9635 63.6923 59.9927 63.6423 60.0219 63.5921C60.4837 62.7992 60.9616 61.9787 63.4471 61.1307C66.0898 60.229 70.9398 60.1358 70.9398 60.1358V59.9181C70.9398 59.9181 67.0536 59.7005 61.8305 60.6954C56.1393 61.7795 54.6797 63.7423 54.6797 63.7423ZM75.6689 59.8767L74.857 57.3789L74.0453 59.8768L71.4189 59.877L73.5439 61.4208L72.7325 64.0193L74.857 62.3748L76.982 64.0192L76.1706 61.4206L78.2953 59.8767H75.6689ZM67.5683 67.0538L66.5859 69.2769H68.3924L67.5683 67.0538ZM73.7244 65.515V68.1265C74.8903 68.1265 75.5121 67.9399 75.5121 66.6497C75.5121 65.2506 73.7244 65.515 73.7244 65.515Z" fill="#CA003A"/>
<rect x="96" y="54.5" width="33" height="23" rx="3.5" fill="white"/>
<rect x="96" y="54.5" width="33" height="23" rx="3.5" stroke="#F8F8F8"/>
<path d="M126.205 62.4444L125.8 64.0066H122.466L122.182 65.1393H125.016L124.634 66.6185H121.8L121.458 67.8625H124.821L124.439 69.3418H119.24L121.019 62.3945L118.282 62.4002L118.264 62.5299C119.229 62.8062 119.686 63.5487 119.784 65.0058H117.941C117.825 64.3643 117.575 63.941 116.784 63.941C116.385 63.941 115.408 64.1286 114.948 65.8672C114.724 66.7153 114.755 67.3339 115.041 67.7059C115.237 67.9605 115.547 68.0897 115.961 68.0897C116.692 68.0897 117.303 67.5027 117.452 67.0549H119.291C119.227 67.3354 119.066 67.9517 118.586 68.5001C117.944 69.2344 116.961 69.6065 115.663 69.6065C114.672 69.6065 113.883 69.2762 113.382 68.6514C112.84 67.9751 112.677 66.993 112.924 65.8859C113.202 64.6361 113.898 63.0394 115.632 62.5301L115.614 62.4005L114.371 62.3949L114.367 62.4005L110.711 66.9209L110.702 66.9318L110.699 66.9457L110.073 69.3416H108.209L108.854 66.868L108.859 66.847L108.851 66.8267L107.084 62.3947H106.932L105.154 69.3418H103.142L101.752 65.0292L100.645 69.3418H98.7812L100.567 62.3947H102.488L103.897 66.7349L105.035 62.3947H106.932H107.084H109.313L110.073 65.0933L111.898 62.4005H114.367L114.371 62.3949L115.614 62.4005L115.632 62.5301C116.103 62.4729 117.288 62.3927 118.264 62.5299L118.282 62.4002L121.019 62.3945L126.217 62.3947L126.205 62.4444Z" fill="#EE0029"/>
<rect x="142" y="54.5" width="33" height="23" rx="3.5" fill="white"/>
<rect x="142" y="54.5" width="33" height="23" rx="3.5" stroke="#F8F8F8"/>
<g clip-path="url(#clip0_1256_36364)">
<mask id="mask0_1256_36364" style="mask-type:luminance" maskUnits="userSpaceOnUse" x="145" y="60" width="27" height="14">
<path d="M145.445 60.9362H171.554V73.9453H145.445V60.9362Z" fill="white"/>
</mask>
<g mask="url(#mask0_1256_36364)">
<path fill-rule="evenodd" clip-rule="evenodd" d="M159.087 68.9727L160.061 62.0689C160.127 61.6534 160.092 61.0433 159.432 60.9994L158.445 60.9994L157.316 68.9727H159.087Z" fill="#231F20"/>
<path fill-rule="evenodd" clip-rule="evenodd" d="M156.713 68.9727L157.447 63.7581H155.692L155.208 67.2029H154.033C153.796 67.2025 153.594 67.0404 153.641 66.7304L153.91 64.8376C153.965 64.4523 153.997 63.7615 153.394 63.7581H152.281L151.793 67.2072C151.645 68.3606 152.217 68.9727 152.939 68.9727H156.713Z" fill="#231F20"/>
<path fill-rule="evenodd" clip-rule="evenodd" d="M171.04 68.5382V68.4189H171.141C171.188 68.4189 171.197 68.4532 171.197 68.4773C171.197 68.5215 171.176 68.5382 171.135 68.5382H171.04ZM170.962 68.7889H171.04V68.6136H171.123C171.183 68.6136 171.186 68.6375 171.186 68.6981C171.186 68.7445 171.189 68.7674 171.194 68.7889H171.283V68.7768C171.267 68.7693 171.267 68.7529 171.267 68.6878C171.267 68.6043 171.249 68.5904 171.217 68.5741C171.256 68.5598 171.276 68.5166 171.276 68.468C171.276 68.4294 171.258 68.3411 171.156 68.3411H170.962V68.7889ZM171.124 68.9255C170.947 68.9265 170.803 68.7653 170.803 68.5662C170.802 68.3677 170.944 68.2052 171.122 68.2045C171.298 68.2038 171.442 68.3652 171.443 68.564C171.443 68.7628 171.301 68.925 171.124 68.9255ZM171.124 68.9922C171.332 68.9912 171.5 68.7991 171.499 68.5632C171.499 68.328 171.33 68.1368 171.122 68.1382C170.913 68.1389 170.745 68.3303 170.746 68.5667C170.747 68.8023 170.915 68.9929 171.124 68.9922Z" fill="#231F20"/>
<path fill-rule="evenodd" clip-rule="evenodd" d="M147.736 67.1995H149.13V67.1989C149.471 67.1989 149.79 66.9008 149.835 66.5399L149.897 66.1015C149.974 65.6617 149.702 65.3938 149.361 65.3938H147.992L147.736 67.1995ZM147.485 68.9733L147.199 71C147.18 70.9933 145.5 71 145.5 71L146.522 63.7587H149.812C150.932 63.7587 151.719 64.7148 151.571 65.8998L151.443 66.8073C151.295 67.9923 150.248 68.9733 149.128 68.9733H147.485Z" fill="#231F20"/>
<path d="M169.373 65.6145L169.4 65.4086C169.422 65.2372 169.309 65.0981 169.147 65.0981H167.787C167.625 65.0981 167.475 65.2372 167.453 65.4086L167.426 65.6145H169.373ZM166.521 68.9727C165.849 68.9727 165.333 68.3961 165.425 67.6859L165.792 65.0802C165.883 64.3699 166.52 63.758 167.192 63.758H169.98C170.66 63.758 171.136 64.3699 171.044 65.0802L170.795 66.8416H167.254L167.182 67.3587L170.061 67.359C170.507 67.3546 170.655 67.7857 170.598 68.2438L170.495 68.9727H166.521Z" fill="#231F20"/>
<path d="M147.836 71L148.016 69.6687H170.396L170.291 70.4453C170.235 70.8227 170.051 71 169.764 71H147.836Z" fill="#EE7623"/>
<path d="M161.507 63.7581C160.877 63.7581 160.362 64.346 160.261 65.0542L160.17 65.7035C160.084 66.3887 160.434 66.9647 161.034 66.9995C161.053 67.0006 161.072 67.0011 161.092 67.0011H163.253L163.199 67.361H160.762C160.325 67.3625 159.898 67.4077 159.843 67.8744L159.684 68.9727H163.604C164.25 68.9727 164.852 68.5188 164.941 67.8118L165.067 66.9207C165.155 66.2135 164.695 65.6229 164.049 65.6229H161.8L161.842 65.287H164.41C165.057 65.287 165.259 65.2029 165.347 64.694L165.479 63.7581H161.507Z" fill="#231F20"/>
</g>
</g>
<rect x="188" y="54.5" width="33" height="23" rx="3.5" fill="white"/>
<rect x="188" y="54.5" width="33" height="23" rx="3.5" stroke="#F8F8F8"/>
<mask id="mask1_1256_36364" style="mask-type:luminance" maskUnits="userSpaceOnUse" x="191" y="60" width="27" height="12">
<path d="M217.324 60.3906H191.676V71.6118H217.324V60.3906Z" fill="white"/>
</mask>
<g mask="url(#mask1_1256_36364)">
<path d="M197.332 65.3308C197.4 64.9148 197.229 64.4938 196.952 64.2276C196.672 63.9532 196.258 63.7647 195.686 63.7647H194.562C194.333 63.7647 194.016 63.8075 193.785 63.8959C193.568 63.9694 193.347 64.0903 193.176 64.2169C192.981 64.3529 192.807 64.5547 192.693 64.7327C192.578 64.9066 192.491 65.1379 192.462 65.3308C192.439 65.4468 192.503 65.6654 192.82 65.6654H193.289C193.614 65.6654 193.705 65.2514 193.705 65.2514C193.752 65.1317 193.815 64.9839 193.977 64.8778C194.087 64.803 194.219 64.7327 194.439 64.7327H195.577C195.806 64.7327 195.904 64.7973 195.977 64.8628C196.087 64.9675 196.135 65.0812 196.107 65.2514L195.831 66.8968H193.559C193.011 66.8968 192.606 67.0773 192.332 67.3441C192.003 67.6769 191.954 67.9983 191.899 68.4256L191.69 70.0454C191.625 70.5133 191.787 70.8745 192.068 71.1485C192.349 71.4227 192.75 71.6114 193.32 71.6114H194.503C194.677 71.6114 194.925 71.5838 195.187 71.4981C195.405 71.4244 195.66 71.3003 195.853 71.1561C196.027 71.0276 196.188 70.8595 196.302 70.6856C196.417 70.5116 196.503 70.3137 196.544 70.1266L197.332 65.3308ZM195.686 67.8462L195.315 70.1245C195.315 70.1245 195.291 70.3175 195.065 70.4817C194.941 70.5695 194.791 70.6464 194.562 70.6464H193.426C193.031 70.6464 192.868 70.3581 192.911 70.1243L193.139 68.4254C193.166 68.2184 193.183 68.073 193.289 67.9701C193.377 67.8936 193.472 67.846 193.657 67.846L195.686 67.8462ZM215.612 71.278C215.565 71.5619 215.335 71.611 215.196 71.611H214.732C214.411 71.611 214.345 71.3932 214.368 71.2772L216.079 60.724C216.104 60.5884 216.192 60.3915 216.494 60.3906L216.958 60.3915C217.119 60.3915 217.346 60.4631 217.323 60.724L215.612 71.278ZM208.679 65.3308C208.743 64.8769 208.582 64.506 208.301 64.2318C207.971 63.8991 207.52 63.7647 207.043 63.7647H205.908C205.644 63.7647 205.367 63.8096 205.156 63.8867C204.938 63.957 204.686 64.089 204.514 64.22C204.335 64.3517 204.161 64.5408 204.048 64.7173C203.937 64.8815 203.839 65.1178 203.806 65.331L203.033 70.0458C202.969 70.4914 203.144 70.8922 203.423 71.1565C203.72 71.4421 204.137 71.6118 204.686 71.6118H205.822C206.091 71.6118 206.341 71.564 206.559 71.4899C206.777 71.416 207.009 71.297 207.181 71.17C207.353 71.0436 207.519 70.8787 207.634 70.7048C207.753 70.5312 207.87 70.2998 207.905 70.0456C207.928 69.9295 207.869 69.7139 207.543 69.7139H207.095C206.745 69.7139 206.662 70.1247 206.662 70.1247C206.629 70.268 206.542 70.3865 206.413 70.4819C206.302 70.5651 206.143 70.6466 205.925 70.6466H204.79C204.677 70.6466 204.507 70.6321 204.375 70.5005C204.243 70.368 204.243 70.2387 204.259 70.1247L205.051 65.252C205.072 65.1501 205.139 65.0128 205.317 64.8809C205.454 64.7929 205.592 64.7329 205.805 64.7329H206.94C207.14 64.7329 207.25 64.7944 207.331 64.8698C207.42 64.9527 207.486 65.0844 207.452 65.252C207.452 65.252 207.379 65.6656 207.806 65.6656H208.253C208.391 65.6654 208.635 65.617 208.679 65.3308ZM202.58 65.6654H202.133C201.706 65.6654 201.779 65.2518 201.779 65.2518C201.813 65.0839 201.747 64.9525 201.658 64.8695C201.577 64.7941 201.466 64.7327 201.267 64.7327H200.131C199.919 64.7327 199.78 64.7927 199.644 64.8807C199.466 65.0125 199.399 65.1499 199.378 65.2518L198.586 70.1245C198.569 70.2385 198.57 70.3678 198.702 70.5003C198.833 70.6319 199.004 70.6464 199.117 70.6464H200.252C200.47 70.6464 200.628 70.5647 200.74 70.4817C200.869 70.3863 200.956 70.2675 200.988 70.1245C200.988 70.1245 201.072 69.7136 201.421 69.7136H201.869C202.196 69.7136 202.255 69.9293 202.232 70.0454C202.196 70.2996 202.079 70.531 201.96 70.7045C201.846 70.8785 201.679 71.0434 201.507 71.1698C201.335 71.2968 201.103 71.4158 200.886 71.4897C200.667 71.564 200.418 71.6116 200.149 71.6116H199.013C198.464 71.6116 198.046 71.4419 197.751 71.1563C197.471 70.8918 197.296 70.4912 197.36 70.0456L198.133 65.3308C198.166 65.1176 198.264 64.8815 198.375 64.7171C198.488 64.5406 198.661 64.3515 198.841 64.2198C199.013 64.0888 199.265 63.9568 199.482 63.8864C199.693 63.8094 199.971 63.7645 200.235 63.7645H201.37C201.846 63.7645 202.298 63.8993 202.629 64.2316C202.909 64.5063 203.07 64.8767 203.006 65.3306C202.962 65.617 202.718 65.6654 202.58 65.6654Z" fill="#455560"/>
</g>
<mask id="mask2_1256_36364" style="mask-type:luminance" maskUnits="userSpaceOnUse" x="191" y="60" width="27" height="12">
<path d="M217.324 60.3906H191.676V71.6118H217.324V60.3906Z" fill="white"/>
</mask>
<g mask="url(#mask2_1256_36364)">
<path d="M213.97 64.2285C213.689 63.9545 213.288 63.7656 212.719 63.7656H211.535C211.361 63.7656 211.113 63.7934 210.851 63.8791C210.633 63.9529 210.378 64.0773 210.185 64.2212C210.011 64.3496 209.85 64.5177 209.736 64.6919C209.621 64.8658 209.535 65.0638 209.494 65.2508L209.171 67.2145H208.814C208.655 67.2145 208.422 67.2585 208.192 67.3318C208.033 67.3853 207.77 67.5015 207.552 67.6607C207.38 67.7875 207.198 67.9752 207.078 68.1632C206.929 68.3953 206.87 68.5845 206.836 68.7786C206.819 68.8538 206.845 69.112 207.198 69.112H207.637C207.971 69.112 208.026 69.0324 208.045 68.8538C208.045 68.8538 208.052 68.5194 208.354 68.3252C208.429 68.2732 208.59 68.1637 208.814 68.1637H209.015L208.706 70.0463C208.638 70.462 208.809 70.8834 209.085 71.1494C209.366 71.4236 209.78 71.6123 210.352 71.6123H211.476C211.705 71.6123 212.022 71.5696 212.253 71.4813C212.47 71.4074 212.691 71.2865 212.862 71.1597C213.058 71.0241 213.231 70.8219 213.345 70.6444C213.46 70.4702 213.547 70.2394 213.576 70.0463C213.599 69.9302 213.535 69.7118 213.218 69.7118H212.749C212.423 69.7118 212.332 70.1254 212.332 70.1254C212.286 70.2451 212.222 70.3927 212.06 70.4993C211.95 70.574 211.818 70.6442 211.599 70.6442H210.461C210.231 70.6442 210.133 70.5795 210.06 70.514C209.951 70.4093 209.902 70.2956 209.93 70.1252L210.257 68.1635H212.53C213.078 68.1635 213.483 67.9855 213.756 67.7191C214.086 67.3861 214.134 67.0647 214.189 66.6368L214.348 65.3315C214.413 64.8637 214.251 64.5027 213.97 64.2285ZM213.127 65.2527L212.95 66.6372C212.923 66.8442 212.906 66.9902 212.8 67.0932C212.711 67.1696 212.617 67.2145 212.432 67.2145H210.403L210.723 65.2527C210.723 65.2527 210.748 65.06 210.973 64.8955C211.097 64.8079 211.247 64.7304 211.476 64.7304H212.612C213.007 64.7304 213.17 65.0189 213.127 65.2527Z" fill="#F26B21"/>
</g>
</g>
<defs>
<filter id="filter0_dd_1256_36364" x="0.5" y="0" width="270" height="108" filterUnits="userSpaceOnUse" color-interpolation-filters="sRGB">
<feFlood flood-opacity="0" result="BackgroundImageFix"/>
<feColorMatrix in="SourceAlpha" type="matrix" values="0 0 0 0 0 0 0 0 0 0 0 0 0 0 0 0 0 0 127 0" result="hardAlpha"/>
<feMorphology radius="2" operator="erode" in="SourceAlpha" result="effect1_dropShadow_1256_36364"/>
<feOffset dy="4"/>
<feGaussianBlur stdDeviation="3"/>
<feColorMatrix type="matrix" values="0 0 0 0 0.0627451 0 0 0 0 0.0941176 0 0 0 0 0.156863 0 0 0 0.03 0"/>
<feBlend mode="normal" in2="BackgroundImageFix" result="effect1_dropShadow_1256_36364"/>
<feColorMatrix in="SourceAlpha" type="matrix" values="0 0 0 0 0 0 0 0 0 0 0 0 0 0 0 0 0 0 127 0" result="hardAlpha"/>
<feMorphology radius="4" operator="erode" in="SourceAlpha" result="effect2_dropShadow_1256_36364"/>
<feOffset dy="6"/>
<feGaussianBlur stdDeviation="8"/>
<feColorMatrix type="matrix" values="0 0 0 0 0.0627451 0 0 0 0 0.0941176 0 0 0 0 0.156863 0 0 0 0.05 0"/>
<feBlend mode="normal" in2="effect1_dropShadow_1256_36364" result="effect2_dropShadow_1256_36364"/>
<feBlend mode="normal" in="SourceGraphic" in2="effect2_dropShadow_1256_36364" result="shape"/>
</filter>
<radialGradient id="paint0_radial_1256_36364" cx="0" cy="0" r="1" gradientUnits="userSpaceOnUse" gradientTransform="translate(75.2846 40.8019) scale(32.429 31.1054)">
<stop offset="0.09" stop-color="#009245"/>
<stop offset="0.23" stop-color="#049552" stop-opacity="0.89"/>
<stop offset="0.52" stop-color="#0D9E74" stop-opacity="0.59"/>
<stop offset="0.91" stop-color="#1BACAB" stop-opacity="0.12"/>
<stop offset="1" stop-color="#1FB0B8" stop-opacity="0"/>
</radialGradient>
<radialGradient id="paint1_radial_1256_36364" cx="0" cy="0" r="1" gradientUnits="userSpaceOnUse" gradientTransform="translate(80.627 42.7213) scale(41.603 42.452)">
<stop offset="0.15" stop-color="#1FB0B8" stop-opacity="0"/>
<stop offset="0.35" stop-color="#1C7491" stop-opacity="0.4"/>
<stop offset="0.56" stop-color="#1A4471" stop-opacity="0.73"/>
<stop offset="0.74" stop-color="#18265E" stop-opacity="0.93"/>
<stop offset="0.87" stop-color="#181B57"/>
</radialGradient>
<linearGradient id="paint2_linear_1256_36364" x1="185.246" y1="29.341" x2="191.286" y2="29.341" gradientUnits="userSpaceOnUse">
<stop stop-color="#58B03A"/>
<stop offset="1" stop-color="#55B330"/>
</linearGradient>
<linearGradient id="paint3_linear_1256_36364" x1="171.615" y1="29.7958" x2="177.681" y2="29.7958" gradientUnits="userSpaceOnUse">
<stop stop-color="#0F6EB6"/>
<stop offset="1" stop-color="#006DBA"/>
</linearGradient>
<linearGradient id="paint4_linear_1256_36364" x1="178.506" y1="29.4838" x2="184.551" y2="29.4838" gradientUnits="userSpaceOnUse">
<stop stop-color="#DE0D3D"/>
<stop offset="1" stop-color="#E30138"/>
</linearGradient>
<clipPath id="clip0_1256_36364">
<rect width="26" height="10" fill="white" transform="translate(145.5 61)"/>
</clipPath>
</defs>
</svg>
