<svg width="24" height="24" viewBox="0 0 24 24" fill="none" xmlns="http://www.w3.org/2000/svg">
<g clip-path="url(#clip0_1280_28272)">
<path d="M11.5655 5.40871C11.7863 5.56715 11.9523 5.7767 12 6.04757C12.0078 6.12938 12.0125 6.21151 12.0147 6.29366C12.0164 6.33547 12.0182 6.37729 12.02 6.42037C11.9625 6.83154 11.6903 7.08568 11.4024 7.363C11.348 7.4167 11.348 7.4167 11.2925 7.47149C11.0667 7.69292 10.8345 7.90506 10.5938 8.11007C10.556 8.14241 10.556 8.14241 10.5175 8.1754C10.0267 8.59083 9.49744 8.9478 8.96359 9.30503C8.76038 9.44111 8.55825 9.57872 8.35642 9.71682C8.26634 9.77836 8.17626 9.83988 8.08617 9.90141C8.02771 9.94138 7.96927 9.98139 7.91087 10.0214C7.82933 10.0773 7.74765 10.133 7.66593 10.1887C7.61914 10.2207 7.57235 10.2527 7.52414 10.2856C7.40629 10.3601 7.40629 10.3601 7.26566 10.4069C7.26655 10.4474 7.26655 10.4474 7.26746 10.4886C7.27146 10.8183 7.24633 11.1414 7.21439 11.4693C7.2037 11.584 7.19302 11.6987 7.18235 11.8134C7.16549 11.9917 7.14853 12.17 7.13142 12.3483C7.02573 13.4555 7.04228 14.4795 7.14554 15.5866C7.27148 16.9575 7.32917 18.2852 7.27506 19.6609C7.26856 19.8268 7.26238 19.9926 7.25623 20.1585C7.25213 20.2658 7.24801 20.3732 7.24387 20.4805C7.24206 20.5291 7.24025 20.5778 7.23839 20.6279C7.19159 21.7975 7.19159 21.7975 6.91062 22.1154C6.63431 22.3688 6.3507 22.4803 5.97605 22.4672C5.65944 22.4309 5.42916 22.3048 5.20316 22.0788C4.74679 21.43 4.98516 20.359 5.01566 19.612C5.02243 19.4458 5.02915 19.2796 5.03572 19.1134C5.03978 19.0107 5.04395 18.9081 5.04824 18.8055C5.0692 18.2761 5.06959 17.754 5.02152 17.2262C5.01736 17.1779 5.0132 17.1296 5.00891 17.0798C4.99578 16.9278 4.98231 16.7757 4.96879 16.6237C4.95531 16.4707 4.9419 16.3177 4.92866 16.1647C4.92047 16.0701 4.91213 15.9755 4.90362 15.8809C4.8834 15.6489 4.87053 15.4211 4.87504 15.1882C4.76675 15.1882 4.65847 15.1882 4.54691 15.1882C4.54155 15.246 4.53618 15.3037 4.53066 15.3633C4.49966 15.6406 4.44272 15.9112 4.38507 16.1841C4.3734 16.2401 4.36173 16.2961 4.34971 16.3538C4.31789 16.5063 4.2859 16.6587 4.25381 16.8111C4.2201 16.9714 4.18659 17.1317 4.15304 17.292C4.09667 17.5612 4.04014 17.8304 3.98352 18.0995C3.91828 18.4096 3.85333 18.7197 3.78854 19.0299C3.73267 19.2972 3.67665 19.5646 3.62049 19.8319C3.58706 19.991 3.55367 20.1502 3.52043 20.3095C3.48331 20.4872 3.44586 20.6648 3.40838 20.8425C3.39757 20.8945 3.38675 20.9465 3.37561 21.0001C3.15565 22.0371 3.15565 22.0371 2.71549 22.3311C2.40529 22.4901 2.08101 22.5182 1.74796 22.4141C1.40478 22.2621 1.21763 22.0423 1.06058 21.7067C0.975796 21.2913 1.06916 20.9057 1.15814 20.4989C1.17181 20.435 1.18543 20.371 1.19902 20.307C1.22825 20.1698 1.25773 20.0326 1.28742 19.8954C1.33464 19.6772 1.38114 19.4588 1.42753 19.2403C1.55129 18.6582 1.67599 18.0762 1.80109 17.4943C1.88322 17.1123 1.96494 16.7302 2.04598 16.3479C2.08435 16.167 2.12297 15.9862 2.16224 15.8055C2.39982 14.7115 2.54163 13.634 2.62504 12.5163C2.60475 12.5441 2.58447 12.572 2.56357 12.6006C2.48069 12.7142 2.39759 12.8277 2.31449 12.9411C2.27107 13.0007 2.27107 13.0007 2.22678 13.0615C1.67653 13.8116 1.67653 13.8116 1.26566 13.9226C0.929221 13.9678 0.664616 13.9163 0.380712 13.7215C0.188062 13.5711 0.0497601 13.4177 3.60766e-05 13.1726C-0.0717509 12.5491 0.17702 12.2007 0.539099 11.7194C0.567668 11.6811 0.596238 11.6427 0.625673 11.6032C0.713642 11.4854 0.802049 11.368 0.890661 11.2507C0.917573 11.2151 0.944484 11.1794 0.972212 11.1427C1.44 10.525 1.91692 9.91467 2.40762 9.31492C2.55144 9.13907 2.6917 8.96114 2.83011 8.78097C3.0138 8.55078 3.21454 8.34939 3.51566 8.29757C3.61531 8.29539 3.71503 8.29602 3.81467 8.29836C3.87545 8.29954 3.93622 8.30072 3.99884 8.30194C4.03128 8.30262 4.06372 8.30329 4.09714 8.30399C4.30783 8.30778 4.51856 8.30832 4.72928 8.30938C4.91323 8.31049 5.097 8.31275 5.28089 8.31765C6.1828 8.34066 6.85074 8.31908 7.54989 7.67436C7.69043 7.55062 7.84564 7.4534 8.00394 7.35421C8.63038 6.94142 9.20507 6.48718 9.7426 5.96348C9.80398 5.90367 9.86557 5.84408 9.92736 5.7847C9.9871 5.72724 10.0464 5.66929 10.1051 5.61079C10.5288 5.20405 11.0445 5.12071 11.5655 5.40871Z" fill="#2357C6"/>
<path d="M14.2834 5.36554C14.4155 5.45439 14.5165 5.55541 14.6245 5.67169C14.9462 5.99281 15.3428 6.25945 15.7273 6.50025C15.9188 6.62169 16.0921 6.75282 16.2643 6.90045C17.09 7.57633 17.7924 7.60385 18.8263 7.56296C19.1298 7.55182 19.4335 7.54813 19.7371 7.54403C19.8419 7.54198 19.9465 7.53806 20.0512 7.53379C20.4892 7.52002 20.732 7.57878 21.0537 7.87353C21.0795 7.90405 21.1053 7.93456 21.1319 7.966C21.1629 8.00256 21.1939 8.03911 21.2258 8.07678C21.3884 8.2777 21.5484 8.48045 21.707 8.6845C21.8205 8.83027 21.9358 8.9744 22.0518 9.11812C22.3673 9.50918 22.6699 9.90884 22.9688 10.3127C22.9963 10.3497 23.0238 10.3868 23.0521 10.425C24.0536 11.7758 24.0536 11.7758 24 12.4221C23.9215 12.7154 23.7329 12.9123 23.4844 13.0783C23.2159 13.2096 22.9095 13.2171 22.622 13.1431C22.1791 12.9723 21.93 12.5461 21.6651 12.173C21.6383 12.1357 21.6115 12.0983 21.5839 12.0598C21.481 11.9161 21.3793 11.7722 21.2813 11.6252C21.2925 11.8797 21.3058 12.1341 21.321 12.3884C21.3255 12.4678 21.3295 12.5473 21.3328 12.6267C21.3653 13.395 21.5355 14.137 21.6985 14.8859C21.708 14.9294 21.7174 14.9729 21.7272 15.0177C21.7452 15.1004 21.7635 15.1831 21.7819 15.2658C21.79 15.3028 21.7982 15.3399 21.8066 15.3781C21.8138 15.4104 21.821 15.4428 21.8284 15.4762C21.8438 15.5627 21.8438 15.5627 21.8438 15.7033C21.8868 15.6864 21.9298 15.6695 21.9742 15.652C22.436 15.4774 22.7585 15.386 23.2312 15.5907C23.4588 15.7236 23.6083 15.9187 23.7364 16.1457C23.8413 16.5758 23.8078 16.8961 23.5811 17.2824C23.3154 17.6213 22.811 17.7484 22.4209 17.8947C22.3842 17.9085 22.3475 17.9223 22.3097 17.9365C21.7604 18.1357 21.2812 18.2257 20.7188 18.0212C20.2913 17.8147 20.0506 17.4929 19.875 17.0627C19.8185 16.8801 19.7769 16.6959 19.7373 16.509C19.7259 16.4573 19.7145 16.4057 19.7027 16.3525C19.6656 16.1832 19.6295 16.0136 19.5938 15.8439C19.584 15.7976 19.584 15.7976 19.5741 15.7504C19.4851 15.3288 19.3981 14.9069 19.3125 14.4846C19.2197 14.4691 19.1269 14.4536 19.0313 14.4377C19.0109 14.6709 18.9908 14.9042 18.9712 15.1375C18.9645 15.2165 18.9577 15.2955 18.9507 15.3745C18.8388 16.4402 18.8388 16.4402 19.0692 17.4703C19.0846 17.5078 19.1 17.5454 19.1159 17.584C19.1344 17.6285 19.1529 17.6731 19.1719 17.7189C19.1958 17.7767 19.2197 17.8345 19.2435 17.8923C19.2629 17.9391 19.2629 17.9391 19.2826 17.9869C19.3235 18.0861 19.3643 18.1854 19.4051 18.2846C19.4595 18.417 19.5147 18.549 19.5706 18.6807C19.9563 19.6007 19.9563 19.6007 19.8196 20.0202C19.6768 20.3536 19.5057 20.5643 19.1719 20.7189C18.8453 20.8208 18.5026 20.8029 18.1985 20.6448C17.8768 20.4404 17.7057 20.12 17.5694 19.7756C17.5524 19.7342 17.5354 19.6928 17.5179 19.6501C17.4802 19.558 17.4429 19.4657 17.4059 19.3732C17.3498 19.2339 17.2926 19.0952 17.2348 18.9566C17.1837 18.8335 17.133 18.7102 17.0825 18.5868C17.0579 18.5268 17.0331 18.4669 17.0082 18.407C16.4955 17.1728 16.629 15.9844 16.7579 14.6808C16.7748 14.5065 16.7915 14.3321 16.808 14.1577C16.8182 14.0505 16.8286 13.9434 16.8393 13.8362C16.8934 13.2723 16.8688 12.7252 16.8218 12.1617C16.8189 12.1278 16.8161 12.0939 16.8132 12.059C16.7984 11.8803 16.7832 11.7016 16.7678 11.523C16.7551 11.3758 16.7431 11.2286 16.7316 11.0814C16.7177 10.9023 16.7027 10.7233 16.687 10.5443C16.6812 10.4765 16.6757 10.4087 16.6707 10.3408C16.6635 10.2461 16.6549 10.1515 16.6462 10.0569C16.6417 10.0032 16.6373 9.94947 16.6327 9.89412C16.5562 9.61102 16.3105 9.47441 16.0752 9.32244C16.0131 9.2818 15.9511 9.24108 15.889 9.20031C15.8532 9.17685 15.8175 9.15338 15.7806 9.1292C12.8073 7.16434 12.8073 7.16434 12.6329 6.47186C12.5873 6.16911 12.6411 5.92801 12.7852 5.66033C13.1921 5.16295 13.7239 5.05547 14.2834 5.36554Z" fill="#2357C6"/>
<path d="M7.0868 3.62153C7.59989 4.12322 7.87219 4.74294 7.88954 5.45259C7.87707 6.14674 7.64055 6.71966 7.16609 7.23127C7.0102 7.37582 6.83929 7.4873 6.65614 7.59419C6.62629 7.61201 6.59644 7.62984 6.56568 7.64821C5.9973 7.9607 5.3522 8.00462 4.73445 7.82985C4.12054 7.61989 3.60643 7.25917 3.29103 6.68123C2.99121 6.05645 2.88017 5.41012 3.07899 4.73188C3.32895 4.03618 3.75178 3.5548 4.412 3.2231C5.37669 2.79819 6.26222 3.03948 7.0868 3.62153Z" fill="#2357C6"/>
<path d="M19.9689 2.76679C20.4259 3.08944 20.7916 3.68581 20.8932 4.23859C20.9746 4.99159 20.8552 5.6435 20.3993 6.25623C19.9766 6.76092 19.407 7.088 18.7501 7.17304C18.0104 7.2276 17.3772 7.03103 16.8136 6.54902C16.6082 6.35503 16.452 6.15247 16.3126 5.90741C16.2944 5.87605 16.2761 5.84469 16.2573 5.81238C15.9619 5.26799 15.94 4.57825 16.1075 3.98847C16.3639 3.26531 16.8233 2.78479 17.4991 2.44233C18.3362 2.10654 19.2402 2.26834 19.9689 2.76679Z" fill="#2357C6"/>
<path d="M14.2501 1.5468C14.3848 1.62004 14.3848 1.62004 14.4845 1.7343C14.5138 1.89543 14.5138 1.89543 14.4845 2.06242C14.3848 2.17375 14.3848 2.17375 14.2501 2.2968C13.9892 2.59879 13.8617 2.96676 13.7252 3.33593C13.7102 3.37581 13.6952 3.41569 13.6797 3.45677C13.6665 3.49287 13.6533 3.52897 13.6398 3.56617C13.5938 3.65617 13.5938 3.65617 13.4532 3.74992C13.2804 3.77247 13.1925 3.76067 13.0372 3.67961C12.9204 3.54225 12.9217 3.46544 12.9267 3.28941C12.9444 3.12369 12.9962 2.97823 13.0577 2.82414C13.0703 2.79185 13.0829 2.75956 13.0959 2.72629C13.2988 2.22274 13.6027 1.48333 14.2501 1.5468Z" fill="#2357C6"/>
<path d="M11.4227 2.75C11.6362 2.75494 11.7437 2.80701 11.9061 2.95215C12.2047 3.32195 12.3965 3.70769 12.5536 4.15332C12.5644 4.18303 12.5753 4.21274 12.5865 4.24335C12.6528 4.43994 12.6632 4.57994 12.6093 4.78027C12.5352 4.88764 12.4822 4.91578 12.3602 4.96191C12.1816 4.97022 12.1018 4.92676 11.953 4.82715C11.8782 4.70009 11.8347 4.56547 11.7889 4.42578C11.5931 3.85841 11.5931 3.85841 11.2118 3.40918C11.1093 3.32715 11.1093 3.32715 11.0624 3.18945C11.0624 2.92667 11.1664 2.77173 11.4227 2.75Z" fill="#2357C6"/>
</g>
<defs>
<clipPath id="clip0_1280_28272">
<rect width="24" height="24" fill="white"/>
</clipPath>
</defs>
</svg>
