<svg width="79" height="20" viewBox="0 0 79 20" fill="none" xmlns="http://www.w3.org/2000/svg">
<g clip-path="url(#clip0_1256_36337)">
<path d="M29.8363 4.92969H25.5215C25.3787 4.9296 25.2405 4.97869 25.1319 5.06812C25.0233 5.15754 24.9513 5.28142 24.9291 5.41743L23.184 16.0827C23.176 16.1322 23.1792 16.1828 23.1934 16.231C23.2076 16.2792 23.2324 16.3238 23.2663 16.3619C23.3001 16.3999 23.342 16.4304 23.3893 16.4513C23.4365 16.4722 23.4879 16.483 23.5398 16.4829H25.5997C25.7427 16.483 25.8809 16.4338 25.9896 16.3442C26.0982 16.2547 26.17 16.1307 26.1922 15.9946L26.6628 13.118C26.6849 12.9819 26.7567 12.858 26.8652 12.7685C26.9737 12.6789 27.1118 12.6297 27.2546 12.6296H28.6205C31.4627 12.6296 33.1031 11.3038 33.5315 8.67656C33.7245 7.52714 33.5397 6.62402 32.9813 5.99154C32.3681 5.29702 31.2804 4.92969 29.8363 4.92969ZM30.3341 8.82495C30.0981 10.3174 28.9151 10.3174 27.7713 10.3174H27.1202L27.577 7.53018C27.5904 7.44864 27.6335 7.37437 27.6986 7.32075C27.7637 7.26712 27.8466 7.23766 27.9322 7.23766H28.2306C29.0098 7.23766 29.7448 7.23766 30.1246 7.6658C30.3511 7.92123 30.4205 8.30072 30.3341 8.82495ZM42.7339 8.77691H40.6677C40.582 8.77691 40.4992 8.80638 40.4341 8.86C40.3689 8.91363 40.3258 8.98789 40.3125 9.06943L40.221 9.62651L40.0765 9.4246C39.6292 8.7988 38.6317 8.5896 37.6362 8.5896C35.3529 8.5896 33.4028 10.2566 33.023 12.5949C32.8255 13.7614 33.1062 14.8768 33.7927 15.6546C34.4223 16.3698 35.3232 16.6678 36.3952 16.6678C38.2349 16.6678 39.2551 15.5275 39.2551 15.5275L39.1629 16.0809C39.1547 16.1304 39.1578 16.181 39.1718 16.2292C39.1858 16.2775 39.2105 16.3222 39.2442 16.3604C39.2779 16.3985 39.3198 16.4292 39.367 16.4502C39.4142 16.4713 39.4655 16.4822 39.5175 16.4823H41.3787C41.5216 16.4824 41.6599 16.4332 41.7685 16.3436C41.8771 16.2541 41.949 16.1301 41.9711 15.9939L43.0878 9.17708C43.096 9.12771 43.093 9.07721 43.079 9.02906C43.065 8.98092 43.0403 8.93628 43.0067 8.89823C42.973 8.86018 42.9312 8.82963 42.8841 8.80868C42.837 8.78773 42.7857 8.77689 42.7339 8.77691ZM39.8538 12.6533C39.6544 13.7912 38.7175 14.555 37.5226 14.555C36.9226 14.555 36.4431 14.3696 36.1352 14.018C35.8299 13.669 35.7138 13.1721 35.8109 12.6187C35.9971 11.4905 36.9497 10.7017 38.1264 10.7017C38.7131 10.7017 39.1901 10.8897 39.5043 11.2442C39.8191 11.6024 39.944 12.1023 39.8538 12.6533ZM53.7381 8.77691H51.6618C51.5639 8.77706 51.4675 8.80024 51.381 8.84443C51.2944 8.88862 51.2204 8.9525 51.1653 9.03051L48.3016 13.0967L47.0877 9.18924C47.0505 9.07007 46.9744 8.96562 46.8708 8.89136C46.7672 8.8171 46.6415 8.77697 46.5124 8.77691H44.472C44.4147 8.77676 44.3583 8.7898 44.3073 8.81495C44.2563 8.84009 44.2123 8.87662 44.1789 8.92147C44.1455 8.96633 44.1237 9.01822 44.1153 9.07284C44.1069 9.12745 44.1122 9.18321 44.1307 9.23546L46.4177 15.7051L44.2676 18.6309C44.2294 18.6828 44.2067 18.7438 44.2021 18.8073C44.1975 18.8707 44.211 18.9342 44.2413 18.9907C44.2716 19.0473 44.3175 19.0947 44.3738 19.1277C44.4302 19.1608 44.495 19.1783 44.561 19.1783H46.6348C46.7316 19.1784 46.827 19.1559 46.9128 19.1127C46.9986 19.0695 47.0723 19.0068 47.1275 18.9301L54.0334 9.32121C54.0708 9.26923 54.0928 9.20835 54.0969 9.1452C54.101 9.08204 54.087 9.01901 54.0566 8.96293C54.0262 8.90685 53.9804 8.85987 53.9243 8.82708C53.8682 8.79429 53.8038 8.77694 53.7381 8.77691Z" fill="#253B80"/>
<path d="M60.6137 4.92639H56.2983C56.1556 4.92645 56.0176 4.9756 55.9091 5.06502C55.8006 5.15443 55.7288 5.27823 55.7065 5.41413L53.9614 16.0794C53.9533 16.1288 53.9564 16.1794 53.9705 16.2275C53.9846 16.2756 54.0093 16.3203 54.043 16.3583C54.0767 16.3963 54.1186 16.4269 54.1657 16.4478C54.2129 16.4688 54.2641 16.4796 54.316 16.4796H56.5305C56.6304 16.4795 56.727 16.445 56.8028 16.3823C56.8787 16.3197 56.9289 16.233 56.9444 16.1378L57.4396 13.1147C57.4617 12.9786 57.5335 12.8547 57.642 12.7652C57.7505 12.6756 57.8886 12.6264 58.0314 12.6263H59.3967C62.2396 12.6263 63.8793 11.3005 64.3083 8.67326C64.502 7.52384 64.3159 6.62072 63.7575 5.98824C63.1449 5.29372 62.0579 4.92639 60.6137 4.92639ZM61.1115 8.82166C60.8762 10.3141 59.6932 10.3141 58.5488 10.3141H57.8983L58.3557 7.52688C58.3688 7.44534 58.4118 7.37101 58.4768 7.31735C58.5419 7.2637 58.6247 7.23426 58.7103 7.23436H59.0087C59.7872 7.23436 60.5229 7.23436 60.9027 7.6625C61.1292 7.91793 61.1979 8.29742 61.1115 8.82166ZM73.5107 8.77361H71.4457C71.3601 8.77338 71.2772 8.80278 71.2121 8.85646C71.1471 8.91014 71.1042 8.98454 71.0912 9.06614L70.9997 9.62321L70.8546 9.4213C70.4073 8.79551 69.4104 8.5863 68.4149 8.5863C66.1316 8.5863 64.1821 10.2533 63.8023 12.5916C63.6055 13.7581 63.885 14.8735 64.5714 15.6513C65.2023 16.3665 66.102 16.6645 67.1739 16.6645C69.0136 16.6645 70.0338 15.5242 70.0338 15.5242L69.9417 16.0776C69.9334 16.1272 69.9365 16.1779 69.9506 16.2262C69.9647 16.2746 69.9895 16.3194 70.0234 16.3576C70.0572 16.3957 70.0992 16.4264 70.1466 16.4473C70.1939 16.4683 70.2454 16.4791 70.2975 16.479H72.158C72.3009 16.4789 72.439 16.4297 72.5475 16.3401C72.656 16.2506 72.7277 16.1267 72.7498 15.9906L73.8671 9.17378C73.8751 9.12425 73.8718 9.07366 73.8575 9.02548C73.8432 8.9773 73.8183 8.93266 73.7844 8.89465C73.7506 8.85663 73.7086 8.82612 73.6613 8.80523C73.6141 8.78434 73.5627 8.77355 73.5107 8.77361ZM70.6306 12.65C70.4325 13.7879 69.4943 14.5517 68.2994 14.5517C67.7007 14.5517 67.2199 14.3663 66.912 14.0147C66.6067 13.6657 66.4919 13.1688 66.5878 12.6154C66.7751 11.4872 67.7265 10.6984 68.9032 10.6984C69.4899 10.6984 69.9669 10.8864 70.2811 11.2409C70.5972 11.5991 70.7221 12.099 70.6306 12.65ZM75.9466 5.21891L74.1757 16.0794C74.1675 16.1288 74.1706 16.1794 74.1847 16.2275C74.1988 16.2756 74.2236 16.3203 74.2573 16.3583C74.291 16.3963 74.3328 16.4269 74.3799 16.4478C74.4271 16.4688 74.4783 16.4796 74.5302 16.4796H76.3106C76.6065 16.4796 76.8576 16.2728 76.9031 15.9913L78.6494 5.32656C78.6575 5.27712 78.6544 5.22658 78.6403 5.17841C78.6263 5.13024 78.6015 5.08558 78.5678 5.04749C78.5341 5.00941 78.4923 4.97882 78.4452 4.9578C78.3981 4.93679 78.3468 4.92587 78.2948 4.92578H76.3012C76.2156 4.92607 76.1329 4.95573 76.0679 5.00945C76.003 5.06316 75.96 5.13742 75.9466 5.21891Z" fill="#179BD7"/>
<path d="M5.26633 18.5529L5.59629 16.5326L4.86129 16.5161H1.35156L3.79064 1.6083C3.7979 1.56275 3.8219 1.52123 3.85827 1.49132C3.89463 1.4614 3.94094 1.44507 3.98875 1.44532H9.90664C11.8713 1.44532 13.2271 1.8394 13.935 2.61724C14.2668 2.98214 14.4782 3.36345 14.5804 3.78308C14.6876 4.22339 14.6895 4.74945 14.5848 5.39106L14.5772 5.43789V5.849L14.9091 6.03023C15.1624 6.15396 15.3902 6.32132 15.581 6.52406C15.8649 6.83605 16.0485 7.23257 16.1261 7.70268C16.2062 8.18616 16.1797 8.76148 16.0485 9.41282C15.8971 10.1621 15.6523 10.8146 15.3217 11.3486C15.03 11.8269 14.6378 12.2412 14.1703 12.5649C13.7312 12.8653 13.2094 13.0934 12.6195 13.2394C12.0479 13.3829 11.3962 13.4553 10.6814 13.4553H10.2208C9.8915 13.4553 9.57163 13.5696 9.32053 13.7745C9.06978 13.9817 8.90345 14.2679 8.85113 14.5822L8.81643 14.764L8.23348 18.3248L8.20698 18.4556C8.20004 18.4969 8.18805 18.5176 8.17039 18.5316C8.15328 18.5451 8.13193 18.5526 8.10982 18.5529H5.26633Z" fill="#253B80"/>
<path d="M15.2228 5.48438C15.2051 5.59324 15.1849 5.70453 15.1622 5.81886C14.3818 9.68129 11.7118 11.0156 8.30175 11.0156H6.5655C6.14847 11.0156 5.79705 11.3075 5.73207 11.704L4.84312 17.1386L4.59139 18.679C4.58137 18.7401 4.58519 18.8026 4.60262 18.8621C4.62004 18.9217 4.65064 18.9769 4.69231 19.0239C4.73398 19.071 4.78574 19.1088 4.84401 19.1347C4.90229 19.1606 4.96569 19.174 5.02987 19.1741H8.10932C8.47399 19.1741 8.78376 18.9186 8.84117 18.572L8.87146 18.4212L9.45126 14.8744L9.48848 14.6798C9.54526 14.3319 9.85567 14.0765 10.2203 14.0765H10.6809C13.6644 14.0765 16.0001 12.9088 16.6827 9.52986C16.9679 8.11832 16.8202 6.9397 16.0657 6.11078C15.8265 5.85436 15.5409 5.64209 15.2228 5.48438Z" fill="#179BD7"/>
<path d="M14.4048 5.17258C14.1556 5.1031 13.9021 5.04886 13.6458 5.0102C13.1394 4.93518 12.6276 4.89919 12.1152 4.90256H7.47681C7.30029 4.90243 7.12954 4.96318 6.99543 5.07382C6.86133 5.18447 6.77271 5.33771 6.7456 5.50586L5.75886 11.5303L5.73047 11.706C5.76121 11.5143 5.86214 11.3394 6.01501 11.2132C6.16788 11.0869 6.36258 11.0175 6.56389 11.0176H8.30015C11.7102 11.0176 14.3802 9.6827 15.1606 5.82088C15.184 5.70655 15.2035 5.59526 15.2212 5.48639C15.0152 5.38229 14.8006 5.29502 14.5795 5.22549C14.5216 5.20696 14.4633 5.18932 14.4048 5.17258Z" fill="#222D65"/>
<path d="M6.74516 5.50644C6.77204 5.33826 6.86061 5.18494 6.99479 5.07435C7.12896 4.96376 7.29984 4.90323 7.47638 4.90376H12.1148C12.6643 4.90376 13.1772 4.93842 13.6454 5.0114C13.9622 5.05939 14.2746 5.13117 14.5797 5.22608C14.81 5.29967 15.0239 5.38664 15.2214 5.48698C15.4535 4.05963 15.2195 3.08779 14.4189 2.20778C13.5362 1.23898 11.9432 0.824219 9.90473 0.824219H3.98684C3.57044 0.824219 3.21524 1.11614 3.15089 1.51326L0.68594 16.5744C0.674458 16.6443 0.678827 16.7158 0.698744 16.7839C0.718661 16.8521 0.753655 16.9152 0.801318 16.9691C0.848981 17.023 0.908182 17.0662 0.974849 17.0959C1.04152 17.1256 1.11407 17.1411 1.18751 17.1412H4.84108L5.75842 11.5309L6.74516 5.50644Z" fill="#253B80"/>
</g>
<defs>
<clipPath id="clip0_1256_36337">
<rect width="78" height="20" fill="white" transform="translate(0.664062)"/>
</clipPath>
</defs>
</svg>
