<svg width="28" height="28" viewBox="0 0 28 28" fill="none" xmlns="http://www.w3.org/2000/svg">
<g id="Frame" clip-path="url(#clip0_1280_28434)">
<g id="Vector">
<path d="M14 11.668C14 9.81145 13.2625 8.03098 11.9497 6.71822C10.637 5.40547 8.85652 4.66797 7 4.66797H3.5V7.0013C3.5 8.85782 4.2375 10.6383 5.55025 11.951C6.86301 13.2638 8.64348 14.0013 10.5 14.0013H14" fill="#2357C6"/>
<path d="M14 11.668C14 9.81145 13.2625 8.03098 11.9497 6.71822C10.637 5.40547 8.85652 4.66797 7 4.66797H3.5V7.0013C3.5 8.85782 4.2375 10.6383 5.55025 11.951C6.86301 13.2638 8.64348 14.0013 10.5 14.0013H14" stroke="#2357C6" stroke-width="2" stroke-linecap="round" stroke-linejoin="round"/>
</g>
<g id="Vector_2">
<path d="M14 16.332C14 14.4755 14.7375 12.695 16.0503 11.3823C17.363 10.0695 19.1435 9.33203 21 9.33203H24.5V10.4987C24.5 12.3552 23.7625 14.1357 22.4497 15.4484C21.137 16.7612 19.3565 17.4987 17.5 17.4987H14" fill="#2357C6"/>
<path d="M14 16.332C14 14.4755 14.7375 12.695 16.0503 11.3823C17.363 10.0695 19.1435 9.33203 21 9.33203H24.5V10.4987C24.5 12.3552 23.7625 14.1357 22.4497 15.4484C21.137 16.7612 19.3565 17.4987 17.5 17.4987H14" stroke="#2357C6" stroke-width="2" stroke-linecap="round" stroke-linejoin="round"/>
</g>
<path id="Vector_3" d="M14 23.3346V11.668" stroke="#2357C6" stroke-width="2" stroke-linecap="round" stroke-linejoin="round"/>
</g>
<defs>
<clipPath id="clip0_1280_28434">
<rect width="28" height="28" fill="white"/>
</clipPath>
</defs>
</svg>
