<svg width="16" height="20" viewBox="0 0 16 20" fill="none" xmlns="http://www.w3.org/2000/svg">
<path d="M0 5.26316C0 3.5191 1.34315 2.10526 3 2.10526H13C14.6569 2.10526 16 3.5191 16 5.26316V16.8421C16 18.5862 14.6569 20 13 20H3C1.34315 20 0 18.5862 0 16.8421V5.26316Z" fill="#0A193A"/>
<path d="M3 0.526316C3 0.23564 3.22386 0 3.5 0H12.5C12.7761 0 13 0.23564 13 0.526316C13 0.816992 12.7761 1.05263 12.5 1.05263H3.5C3.22386 1.05263 3 0.816992 3 0.526316Z" fill="#0A193A"/>
<path d="M3 8.94737C3 8.65669 3.22386 8.42105 3.5 8.42105H12.5C12.7761 8.42105 13 8.65669 13 8.94737C13 9.23804 12.7761 9.47368 12.5 9.47368H3.5C3.22386 9.47368 3 9.23804 3 8.94737Z" fill="#F1F2F2"/>
<path d="M3 12.1053C3 11.8146 3.22386 11.5789 3.5 11.5789H8.5C8.77614 11.5789 9 11.8146 9 12.1053C9 12.3959 8.77614 12.6316 8.5 12.6316H3.5C3.22386 12.6316 3 12.3959 3 12.1053Z" fill="#F1F2F2"/>
</svg>
