<svg width="24" height="24" viewBox="0 0 24 24" fill="none" xmlns="http://www.w3.org/2000/svg">
<path d="M5 21.668V12.668" stroke="#2357C6" stroke-width="1.5" stroke-linecap="round" stroke-linejoin="round"/>
<path d="M19 12.668V21.668" stroke="#2357C6" stroke-width="1.5" stroke-linecap="round" stroke-linejoin="round"/>
<path d="M18.2225 2.33398H5.77318C5.29451 2.33398 4.85184 2.59132 4.61451 3.00732L2.33984 7.00065C2.97318 8.37532 4.35318 9.33398 5.96651 9.33398C7.17718 9.33398 8.24918 8.78465 8.98251 7.93532C9.71584 8.78465 10.7878 9.33398 11.9985 9.33398C13.2092 9.33398 14.2798 8.78598 15.0132 7.93665C15.7465 8.78598 16.8185 9.33398 18.0278 9.33398C19.6398 9.33398 21.0212 8.37532 21.6545 7.00065L19.3825 3.00732C19.1452 2.59132 18.7012 2.33398 18.2225 2.33398Z" stroke="#2357C6" stroke-width="1.5" stroke-linecap="round" stroke-linejoin="round"/>
<path d="M9.66406 21.3333V17.3333C9.66406 16.0453 10.7094 15 11.9974 15C13.2854 15 14.3307 16.0453 14.3307 17.3333V21.3333" stroke="#2357C6" stroke-width="1.5" stroke-linecap="round" stroke-linejoin="round"/>
<path d="M2.33203 21.668H21.6654" stroke="#2357C6" stroke-width="1.5" stroke-linecap="round" stroke-linejoin="round"/>
</svg>
