<svg width="24" height="24" viewBox="0 0 24 24" fill="none" xmlns="http://www.w3.org/2000/svg">
<g id="subscription-2 1">
<g id="Group">
<path id="Vector" d="M2.94517 13C3.4669 13 3.89033 12.5776 3.89033 12.0571C3.89033 7.55154 7.56514 3.88571 12.0818 3.88571C14.7837 3.88571 17.2878 5.2384 18.8025 7.40823L16.9601 7.15303C16.451 7.08766 15.9658 7.44217 15.894 7.95886C15.8221 8.47429 16.1838 8.95074 16.7018 9.0224L20.4118 9.53406C20.4547 9.53909 20.4975 9.54286 20.5417 9.54286C20.7458 9.54286 20.9462 9.47623 21.1125 9.35177C21.3116 9.20091 21.444 8.97714 21.478 8.72823L21.9909 5.02594C22.0627 4.51051 21.7011 4.03406 21.1831 3.9624C20.674 3.9008 20.1888 4.25154 20.117 4.76823L19.9695 5.83303C18.0804 3.4608 15.1907 2 12.0818 2C6.52294 2 2 6.51189 2 12.0571C2 12.5776 2.42343 13 2.94517 13Z" fill="#2357C6"/>
<path id="Vector_2" d="M21.0536 11C20.5318 11 20.1084 11.4224 20.1084 11.9427C20.1084 16.4478 16.4336 20.1132 11.917 20.1132C9.20748 20.1132 6.71224 18.762 5.19871 16.5911L7.0399 16.845C7.54903 16.9079 8.03421 16.5559 8.10605 16.0393C8.17788 15.5227 7.8162 15.0475 7.29824 14.9759L3.58815 14.4643C3.34367 14.4329 3.0891 14.4957 2.88747 14.6466C2.68835 14.7974 2.55603 15.0211 2.522 15.27L2.00909 18.9719C1.93726 19.4873 2.29894 19.9637 2.81689 20.0353C2.85974 20.0403 2.90385 20.0441 2.94796 20.0441C3.41172 20.0441 3.81751 19.7022 3.88304 19.2308L4.03049 18.1712C5.91704 20.5431 8.80169 22 11.9182 22C17.4771 22 22 17.4886 22 11.944C22 11.4236 21.5766 11.0013 21.0548 11.0013L21.0536 11Z" fill="#2357C6"/>
<path id="Vector_3" d="M12.0414 15.2629C11.0019 15.2629 10.7303 14.7563 10.6016 14.2599C10.4697 13.7546 10.017 13.47 9.57966 13.6231C9.14775 13.7775 8.90452 14.3122 9.03541 14.8175C9.3528 16.0362 10.1076 16.8082 11.1863 17.0698C11.1993 17.5853 11.556 18 11.9999 18C12.4438 18 12.8027 17.5827 12.8136 17.0659C13.3906 16.9115 13.9119 16.5989 14.2958 16.137C14.7659 15.5742 15.0146 14.8328 14.9993 14.0493C14.9655 12.4466 14.0013 11.436 12.133 11.0455C10.8765 10.7826 10.8274 10.1893 10.81 9.99404C10.7805 9.62016 10.8787 9.44407 10.9572 9.34326C11.2048 9.02552 11.7403 8.8826 12.0414 8.8826C12.9117 8.8826 13.1506 9.54232 13.2291 9.75797C13.4058 10.2454 13.889 10.4726 14.3002 10.2671C14.7168 10.0604 14.9121 9.49894 14.7343 9.01276C14.3678 8.00085 13.6861 7.33858 12.8169 7.08975V6.95704C12.8169 6.42875 12.4504 6 11.9988 6C11.5473 6 11.1808 6.42875 11.1808 6.95704V7.11782C10.6693 7.27222 10.1348 7.55423 9.74545 8.05572C9.30917 8.61846 9.11394 9.35219 9.18156 10.1765C9.24918 11.0111 9.68764 12.4785 11.844 12.9277C13.228 13.2174 13.3535 13.6818 13.3622 14.0953C13.3687 14.3658 13.288 14.6031 13.1244 14.7984C12.8823 15.088 12.4766 15.2616 12.0403 15.2616L12.0414 15.2629Z" fill="#2357C6"/>
</g>
</g>
</svg>
