<svg width="28" height="28" viewBox="0 0 28 28" fill="none" xmlns="http://www.w3.org/2000/svg">
<g clip-path="url(#clip0_1280_28701)">
<path d="M22.75 14.6663L14 23.3323L5.25003 14.6663C4.67288 14.1047 4.21828 13.4297 3.91483 12.6837C3.61139 11.9378 3.46568 11.1371 3.48689 10.3321C3.50809 9.52705 3.69575 8.73514 4.03804 8.00621C4.38034 7.27728 4.86985 6.62712 5.47576 6.09666C6.08167 5.56621 6.79085 5.16696 7.55864 4.92405C8.32643 4.68114 9.1362 4.59983 9.93695 4.68525C10.7377 4.77067 11.5121 5.02097 12.2114 5.42038C12.9107 5.81978 13.5196 6.35965 14 7.00598C14.4825 6.36434 15.0922 5.82919 15.791 5.43402C16.4898 5.03886 17.2626 4.79218 18.0611 4.70943C18.8596 4.62667 19.6666 4.70963 20.4316 4.95311C21.1966 5.19659 21.9031 5.59534 22.5068 6.12441C23.1106 6.65348 23.5987 7.30148 23.9405 8.02786C24.2823 8.75424 24.4706 9.54335 24.4934 10.3458C24.5162 11.1483 24.3732 11.9468 24.0732 12.6914C23.7732 13.4361 23.3228 14.1108 22.75 14.6733" stroke="#001E5F" stroke-width="2" stroke-linecap="round" stroke-linejoin="round"/>
<path d="M22.75 14.6663L14 23.3323L5.25003 14.6663C4.67288 14.1047 4.21828 13.4297 3.91483 12.6837C3.61139 11.9378 3.46568 11.1371 3.48689 10.3321C3.50809 9.52705 3.69575 8.73514 4.03804 8.00621C4.38034 7.27728 4.86985 6.62712 5.47576 6.09666C6.08167 5.56621 6.79085 5.16696 7.55864 4.92405C8.32643 4.68114 9.1362 4.59983 9.93695 4.68525C10.7377 4.77067 11.5121 5.02097 12.2114 5.42038C12.9107 5.81978 13.5196 6.35965 14 7.00598C14.4825 6.36434 15.0922 5.82919 15.791 5.43402C16.4898 5.03886 17.2626 4.79218 18.0611 4.70943C18.8596 4.62667 19.6666 4.70963 20.4316 4.95311C21.1966 5.19659 21.9031 5.59534 22.5068 6.12441C23.1106 6.65348 23.5987 7.30148 23.9405 8.02786C24.2823 8.75424 24.4706 9.54335 24.4934 10.3458C24.5162 11.1483 24.3732 11.9468 24.0732 12.6914C23.7732 13.4361 23.3228 14.1108 22.75 14.6733" stroke="#001E5F" stroke-width="2" stroke-linecap="round" stroke-linejoin="round"/>
<path d="M10.1581 10.8399L13.9999 6.99811C14.6698 6.28634 16.3552 4.84661 17.7381 4.78179C19.4667 4.70076 21.6036 4.99639 22.7499 6.42789C23.8963 7.8594 24.7876 10.2396 24.3554 11.455C24.0097 12.4274 23.1411 13.9444 22.7499 14.5814L20.1249 11.9564C19.4287 11.2603 18.4845 10.8691 17.4999 10.8691C16.5154 10.8691 15.5711 11.2603 14.8749 11.9564L13.7083 13.1231C12.9033 13.9281 11.5966 13.9281 10.7916 13.1231L10.1581 12.4896C9.9394 12.2708 9.81653 11.9741 9.81653 11.6648C9.81653 11.3554 9.9394 11.0587 10.1581 10.8399Z" fill="#001E5F" stroke="#001E5F" stroke-width="2" stroke-linecap="round" stroke-linejoin="round"/>
<path d="M14.5834 18.082L16.9167 20.4154" stroke="#001E5F" stroke-width="2" stroke-linecap="round" stroke-linejoin="round"/>
<path d="M17.5 15.168L19.8333 17.5013" stroke="#001E5F" stroke-width="2" stroke-linecap="round" stroke-linejoin="round"/>
</g>
<defs>
<clipPath id="clip0_1280_28701">
<rect width="28" height="28" fill="white"/>
</clipPath>
</defs>
</svg>
