<svg width="20" height="20" viewBox="0 0 20 20" fill="none" xmlns="http://www.w3.org/2000/svg">
<path d="M18.75 15.25C18.75 17.183 17.183 18.75 15.25 18.75C13.317 18.75 11.75 17.183 11.75 15.25C11.75 13.317 13.317 11.75 15.25 11.75C17.183 11.75 18.75 13.317 18.75 15.25Z" fill="#001E5F"/>
<path fill-rule="evenodd" clip-rule="evenodd" d="M15.25 12.625C13.8003 12.625 12.625 13.8003 12.625 15.25C12.625 16.6997 13.8003 17.875 15.25 17.875C16.6997 17.875 17.875 16.6997 17.875 15.25C17.875 13.8003 16.6997 12.625 15.25 12.625ZM10.875 15.25C10.875 12.8338 12.8338 10.875 15.25 10.875C17.6662 10.875 19.625 12.8338 19.625 15.25C19.625 17.6662 17.6662 19.625 15.25 19.625C12.8338 19.625 10.875 17.6662 10.875 15.25Z" fill="#001E5F"/>
<path d="M8.25 4.75C8.25 6.683 6.683 8.25 4.75 8.25C2.817 8.25 1.25 6.683 1.25 4.75C1.25 2.817 2.817 1.25 4.75 1.25C6.683 1.25 8.25 2.817 8.25 4.75Z" fill="#001E5F"/>
<path fill-rule="evenodd" clip-rule="evenodd" d="M4.75 2.125C3.30025 2.125 2.125 3.30025 2.125 4.75C2.125 6.19975 3.30025 7.375 4.75 7.375C6.19975 7.375 7.375 6.19975 7.375 4.75C7.375 3.30025 6.19975 2.125 4.75 2.125ZM0.375 4.75C0.375 2.33375 2.33375 0.375 4.75 0.375C7.16625 0.375 9.125 2.33375 9.125 4.75C9.125 7.16625 7.16625 9.125 4.75 9.125C2.33375 9.125 0.375 7.16625 0.375 4.75Z" fill="#001E5F"/>
<path d="M0.666667 12.3333C0.666667 11.689 1.189 11.1667 1.83333 11.1667H7.66667C8.311 11.1667 8.83333 11.689 8.83333 12.3333V18.1667C8.83333 18.811 8.311 19.3333 7.66667 19.3333H1.83333C1.189 19.3333 0.666667 18.811 0.666667 18.1667V12.3333Z" fill="#001E5F"/>
<path d="M11.1667 1.83333C11.1667 1.189 11.689 0.666667 12.3333 0.666667H18.1667C18.811 0.666667 19.3333 1.189 19.3333 1.83333V7.66667C19.3333 8.311 18.811 8.83333 18.1667 8.83333H12.3333C11.689 8.83333 11.1667 8.311 11.1667 7.66667V1.83333Z" fill="#001E5F"/>
</svg>
