<svg width="24" height="24" viewBox="0 0 24 24" fill="none" xmlns="http://www.w3.org/2000/svg">
<path d="M11.9987 9.66927C14.0237 9.66927 15.6654 8.02765 15.6654 6.0026C15.6654 3.97756 14.0237 2.33594 11.9987 2.33594C9.97365 2.33594 8.33203 3.97756 8.33203 6.0026C8.33203 8.02765 9.97365 9.66927 11.9987 9.66927Z" stroke="#2357C6" stroke-width="1.5" stroke-linecap="round" stroke-linejoin="round"/>
<path d="M18.3498 20.688C19.4965 20.3267 20.0991 19.06 19.6125 17.9613C18.3191 15.04 15.4005 13 12.0005 13C8.60047 13 5.6818 15.04 4.38847 17.9613C3.9018 19.0613 4.50447 20.3267 5.65114 20.688C7.28447 21.2027 9.4458 21.6667 12.0005 21.6667C14.5551 21.6667 16.7165 21.2027 18.3498 20.688Z" stroke="#2357C6" stroke-width="1.5" stroke-linecap="round" stroke-linejoin="round"/>
</svg>
