<svg width="24" height="24" viewBox="0 0 24 24" fill="none" xmlns="http://www.w3.org/2000/svg">
<g clip-path="url(#clip0_515_34924)">
<path d="M11.9987 9.66732C14.0237 9.66732 15.6654 8.0257 15.6654 6.00065C15.6654 3.97561 14.0237 2.33398 11.9987 2.33398C9.97365 2.33398 8.33203 3.97561 8.33203 6.00065C8.33203 8.0257 9.97365 9.66732 11.9987 9.66732Z" stroke="#2357C6" stroke-width="2" stroke-linecap="round" stroke-linejoin="round"/>
<path d="M12.6965 13.052C12.4645 13.032 12.2365 13 12.0005 13C8.59914 13 5.6818 15.04 4.38847 17.96C3.9018 19.06 4.50447 20.3253 5.65114 20.6867C7.28447 21.2013 9.4458 21.6653 12.0005 21.6653C12.2485 21.6653 12.4738 21.6427 12.7138 21.6347" stroke="#2357C6" stroke-width="2" stroke-linecap="round" stroke-linejoin="round"/>
<mask id="mask0_515_34924" style="mask-type:alpha" maskUnits="userSpaceOnUse" x="13" y="11" width="13" height="13">
<rect x="13.3359" y="11.998" width="12" height="12" rx="6" fill="#D9D9D9"/>
</mask>
<g mask="url(#mask0_515_34924)">
<path d="M17.0859 17.5C16.6026 17.5 16.1901 17.3292 15.8484 16.9875C15.5068 16.6458 15.3359 16.2333 15.3359 15.75C15.3359 15.2667 15.5068 14.8542 15.8484 14.5125C16.1901 14.1708 16.6026 14 17.0859 14C17.5693 14 17.9818 14.1708 18.3234 14.5125C18.6651 14.8542 18.8359 15.2667 18.8359 15.75C18.8359 16.2333 18.6651 16.6458 18.3234 16.9875C17.9818 17.3292 17.5693 17.5 17.0859 17.5ZM17.0859 16.5C17.2943 16.5 17.4714 16.4271 17.6172 16.2812C17.763 16.1354 17.8359 15.9583 17.8359 15.75C17.8359 15.5417 17.763 15.3646 17.6172 15.2188C17.4714 15.0729 17.2943 15 17.0859 15C16.8776 15 16.7005 15.0729 16.5547 15.2188C16.4089 15.3646 16.3359 15.5417 16.3359 15.75C16.3359 15.9583 16.4089 16.1354 16.5547 16.2812C16.7005 16.4271 16.8776 16.5 17.0859 16.5ZM21.5859 22C21.1026 22 20.6901 21.8292 20.3484 21.4875C20.0068 21.1458 19.8359 20.7333 19.8359 20.25C19.8359 19.7667 20.0068 19.3542 20.3484 19.0125C20.6901 18.6708 21.1026 18.5 21.5859 18.5C22.0693 18.5 22.4818 18.6708 22.8234 19.0125C23.1651 19.3542 23.3359 19.7667 23.3359 20.25C23.3359 20.7333 23.1651 21.1458 22.8234 21.4875C22.4818 21.8292 22.0693 22 21.5859 22ZM21.5859 21C21.7943 21 21.9714 20.9271 22.1172 20.7812C22.263 20.6354 22.3359 20.4583 22.3359 20.25C22.3359 20.0417 22.263 19.8646 22.1172 19.7188C21.9714 19.5729 21.7943 19.5 21.5859 19.5C21.3776 19.5 21.2005 19.5729 21.0547 19.7188C20.9089 19.8646 20.8359 20.0417 20.8359 20.25C20.8359 20.4583 20.9089 20.6354 21.0547 20.7812C21.2005 20.9271 21.3776 21 21.5859 21ZM16.3859 21.65C16.1926 21.8433 15.8792 21.8433 15.6859 21.65C15.4926 21.4567 15.4926 21.1433 15.6859 20.95L22.2859 14.35C22.4792 14.1567 22.7926 14.1567 22.9859 14.35C23.1792 14.5433 23.1792 14.8567 22.9859 15.05L16.3859 21.65Z" fill="#2357C6"/>
</g>
</g>
<defs>
<clipPath id="clip0_515_34924">
<rect width="24" height="24" fill="white"/>
</clipPath>
</defs>
</svg>
