<svg width="40" height="40" viewBox="0 0 40 40" fill="none" xmlns="http://www.w3.org/2000/svg">
<path d="M37.7743 12.7791C37.7743 9.40797 35.0343 6.66797 31.6632 6.66797H8.32986C4.95875 6.66797 2.21875 9.40797 2.21875 12.7791V14.4457H37.7743V12.7791Z" fill="url(#paint0_linear_1256_34774)"/>
<path d="M2.21875 27.2218C2.21875 30.5929 4.95875 33.3329 8.32986 33.3329H31.6632C35.0343 33.3329 37.7743 30.5929 37.7743 27.2218V17.7773H2.21875V27.2218ZM28.3299 23.3329H30.5521C31.4721 23.3329 32.2187 24.0796 32.2187 24.9996C32.2187 25.9196 31.4721 26.6662 30.5521 26.6662H28.3299C27.4099 26.6662 26.6632 25.9196 26.6632 24.9996C26.6632 24.0796 27.4099 23.3329 28.3299 23.3329ZM9.44097 23.3329H16.1076C17.0276 23.3329 17.7743 24.0796 17.7743 24.9996C17.7743 25.9196 17.0276 26.6662 16.1076 26.6662H9.44097C8.52097 26.6662 7.77431 25.9196 7.77431 24.9996C7.77431 24.0796 8.52097 23.3329 9.44097 23.3329Z" fill="url(#paint1_linear_1256_34774)"/>
<defs>
<linearGradient id="paint0_linear_1256_34774" x1="1.77431" y1="6.40041" x2="14.8495" y2="41.8826" gradientUnits="userSpaceOnUse">
<stop stop-color="#2357C6"/>
<stop offset="1" stop-color="#5EA8FF"/>
</linearGradient>
<linearGradient id="paint1_linear_1256_34774" x1="1.77431" y1="6.40041" x2="14.8495" y2="41.8826" gradientUnits="userSpaceOnUse">
<stop stop-color="#2357C6"/>
<stop offset="1" stop-color="#5EA8FF"/>
</linearGradient>
</defs>
</svg>
