<svg width="35" height="32" viewBox="0 0 35 32" fill="none" xmlns="http://www.w3.org/2000/svg">
<path d="M32.5026 17.8764C31.5826 17.8764 30.8359 17.1298 30.8359 16.2098V9.88976C30.8359 8.35865 29.5893 7.11198 28.0582 7.11198H16.0893C15.5826 7.11198 15.1048 6.88087 14.7893 6.48753L13.4493 4.81642C12.9204 4.15642 12.1293 3.77865 11.2826 3.77865H6.94705C5.41594 3.77865 4.16927 5.02531 4.16927 6.55642V15.4453C4.16927 16.3653 3.4226 17.112 2.5026 17.112C1.5826 17.112 0.835938 16.3653 0.835938 15.4453V6.55642C0.835938 3.18753 3.57594 0.445312 6.94705 0.445312H11.2826C13.1448 0.445312 14.8826 1.27865 16.0493 2.73198L16.8893 3.77865H28.0582C31.4293 3.77865 34.1693 6.52087 34.1693 9.88976V16.2098C34.1693 17.1298 33.4226 17.8764 32.5026 17.8764Z" fill="url(#paint0_linear_1256_35241)"/>
<path d="M28.0582 9.3342H6.94705C3.57197 9.3342 0.835938 12.0702 0.835938 15.4453L0.835938 25.4453C0.835938 28.8204 3.57197 31.5564 6.94705 31.5564H28.0582C31.4332 31.5564 34.1693 28.8204 34.1693 25.4453V15.4453C34.1693 12.0702 31.4332 9.3342 28.0582 9.3342Z" fill="url(#paint1_linear_1256_35241)"/>
<defs>
<linearGradient id="paint0_linear_1256_35241" x1="0.419271" y1="0.133138" x2="18.2359" y2="38.9825" gradientUnits="userSpaceOnUse">
<stop stop-color="#2357C6"/>
<stop offset="1" stop-color="#5EA8FF"/>
</linearGradient>
<linearGradient id="paint1_linear_1256_35241" x1="0.419271" y1="0.133138" x2="18.2359" y2="38.9825" gradientUnits="userSpaceOnUse">
<stop stop-color="#2357C6"/>
<stop offset="1" stop-color="#5EA8FF"/>
</linearGradient>
</defs>
</svg>
