<svg width="44" height="44" viewBox="0 0 44 44" fill="none" xmlns="http://www.w3.org/2000/svg">
<path d="M7 41V7.22222C7 6.10242 7.45153 5.02848 8.25526 4.23666C9.05898 3.44484 10.1491 3 11.2857 3H32.7143C33.8509 3 34.941 3.44484 35.7447 4.23666C36.5485 5.02848 37 6.10242 37 7.22222V41L30.5714 36.7778L26.2857 41L22 36.7778L17.7143 41L13.4286 36.7778L7 41Z" fill="url(#paint0_linear_1256_34598)"/>
<path d="M16 26L28 13L16 26Z" fill="#F5FAFF"/>
<path d="M16 26L28 13" stroke="#F5FAFF" stroke-width="2.75" stroke-linecap="round" stroke-linejoin="round"/>
<path d="M17 16C17.5523 16 18 15.5523 18 15C18 14.4477 17.5523 14 17 14C16.4477 14 16 14.4477 16 15C16 15.5523 16.4477 16 17 16Z" fill="#F5FAFF" stroke="#F5FAFF" stroke-width="2.75" stroke-linecap="round" stroke-linejoin="round"/>
<path d="M27 26C27.5523 26 28 25.5523 28 25C28 24.4477 27.5523 24 27 24C26.4477 24 26 24.4477 26 25C26 25.5523 26.4477 26 27 26Z" fill="#F5FAFF" stroke="#F5FAFF" stroke-width="2.75" stroke-linecap="round" stroke-linejoin="round"/>
<defs>
<linearGradient id="paint0_linear_1256_34598" x1="6.625" y1="2.6187" x2="32.3897" y2="44.0147" gradientUnits="userSpaceOnUse">
<stop stop-color="#2357C6"/>
<stop offset="1" stop-color="#5EA8FF"/>
</linearGradient>
</defs>
</svg>
