<svg width="34" height="34" viewBox="0 0 34 34" fill="none" xmlns="http://www.w3.org/2000/svg">
<path d="M25.332 2.56519C27.8657 4.028 29.9697 6.13198 31.4325 8.66565C32.8953 11.1993 33.6654 14.0734 33.6654 16.999C33.6654 19.9247 32.8952 22.7988 31.4324 25.3324C29.9695 27.8661 27.8655 29.97 25.3319 31.4328C22.7982 32.8956 19.9241 33.6657 16.9984 33.6656C14.0728 33.6656 11.1987 32.8954 8.66509 31.4325C6.13145 29.9697 4.02751 27.8657 2.56476 25.332C1.102 22.7983 0.331957 19.9241 0.332031 16.9985L0.340365 16.4585C0.433703 13.5802 1.27128 10.7751 2.77143 8.31684C4.27158 5.85856 6.38312 3.83094 8.90019 2.43166C11.4173 1.03237 14.2539 0.30918 17.1337 0.332582C20.0135 0.355983 22.838 1.12518 25.332 2.56519ZM16.9987 26.9985C16.5567 26.9985 16.1328 27.1741 15.8202 27.4867C15.5076 27.7992 15.332 28.2232 15.332 28.6652C15.332 29.1072 15.5076 29.5311 15.8202 29.8437C16.1328 30.1563 16.5567 30.3319 16.9987 30.3319C17.4407 30.3319 17.8647 30.1563 18.1772 29.8437C18.4898 29.5311 18.6654 29.1072 18.6654 28.6652C18.6654 28.2232 18.4898 27.7992 18.1772 27.4867C17.8647 27.1741 17.4407 26.9985 16.9987 26.9985ZM23.1387 8.75019L13.1387 12.0835C12.893 12.1653 12.6697 12.3032 12.4866 12.4864C12.3034 12.6695 12.1655 12.8928 12.0837 13.1385L8.7387 23.1819L8.70037 23.3252L8.67203 23.5135L8.66537 23.6269V23.7002L8.68037 23.8852L8.70037 24.0019L8.76703 24.2419L8.84203 24.4085L8.93203 24.5669L9.0387 24.7169L9.1537 24.8419L9.2937 24.9652L9.45703 25.0819L9.6237 25.1719L9.7537 25.2269L9.9287 25.2819L10.1104 25.3152L10.182 25.3235L10.2954 25.3302H10.3687L10.5537 25.3152L10.6704 25.2952L10.7037 25.2852L10.7354 25.2819L10.8587 25.2452L20.8587 21.9119C21.1044 21.8301 21.3277 21.6921 21.5108 21.509C21.694 21.3259 21.8319 21.1026 21.9137 20.8568L25.247 10.8569C25.345 10.5632 25.3592 10.2481 25.2881 9.94678C25.217 9.64549 25.0634 9.36996 24.8445 9.15107C24.6256 8.93218 24.3501 8.77858 24.0488 8.70747C23.7475 8.63637 23.4324 8.65225 23.1387 8.75019ZM21.0304 12.9652L19.0137 19.0135L12.9654 21.0302L14.982 14.9819L21.0304 12.9652ZM5.33203 15.3319C4.89 15.3319 4.46608 15.5074 4.15352 15.82C3.84096 16.1326 3.66537 16.5565 3.66537 16.9985C3.66537 17.4405 3.84096 17.8645 4.15352 18.177C4.46608 18.4896 4.89 18.6652 5.33203 18.6652C5.77406 18.6652 6.19798 18.4896 6.51054 18.177C6.8231 17.8645 6.9987 17.4405 6.9987 16.9985C6.9987 16.5565 6.8231 16.1326 6.51054 15.82C6.19798 15.5074 5.77406 15.3319 5.33203 15.3319ZM28.6654 15.3319C28.2233 15.3319 27.7994 15.5074 27.4869 15.82C27.1743 16.1326 26.9987 16.5565 26.9987 16.9985C26.9987 17.4405 27.1743 17.8645 27.4869 18.177C27.7994 18.4896 28.2233 18.6652 28.6654 18.6652C29.1074 18.6652 29.5313 18.4896 29.8439 18.177C30.1564 17.8645 30.332 17.4405 30.332 16.9985C30.332 16.5565 30.1564 16.1326 29.8439 15.82C29.5313 15.5074 29.1074 15.3319 28.6654 15.3319ZM16.9987 3.66519C16.5567 3.66519 16.1328 3.84078 15.8202 4.15334C15.5076 4.4659 15.332 4.88982 15.332 5.33185C15.332 5.77388 15.5076 6.1978 15.8202 6.51036C16.1328 6.82292 16.5567 6.99852 16.9987 6.99852C17.4407 6.99852 17.8647 6.82292 18.1772 6.51036C18.4898 6.1978 18.6654 5.77388 18.6654 5.33185C18.6654 4.88982 18.4898 4.4659 18.1772 4.15334C17.8647 3.84078 17.4407 3.66519 16.9987 3.66519Z" fill="url(#paint0_linear_1512_31314)"/>
<defs>
<linearGradient id="paint0_linear_1512_31314" x1="-0.0846349" y1="-0.00244407" x2="19.8557" y2="40.5787" gradientUnits="userSpaceOnUse">
<stop stop-color="#2357C6"/>
<stop offset="1" stop-color="#5EA8FF"/>
</linearGradient>
</defs>
</svg>
