<svg width="26" height="26" viewBox="0 0 26 26" fill="none" xmlns="http://www.w3.org/2000/svg">
<path d="M19.4891 0.0625H5.91505C2.75882 0.0625 0.200195 2.62113 0.200195 5.77736V19.3514C0.200195 22.5076 2.75882 25.0663 5.91505 25.0663H19.4891C22.6453 25.0663 25.2039 22.5076 25.2039 19.3514V5.77736C25.2039 2.62113 22.6453 0.0625 19.4891 0.0625Z" fill="#0D1530"/>
<path d="M10.8555 13.53H8.94024C8.63119 13.53 8.53418 13.418 8.53418 13.1359V10.8646C8.53418 10.5645 8.6502 10.4695 8.94024 10.4695H10.8555V8.81729C10.8555 8.06717 10.9905 7.35307 11.3776 6.69597C11.7837 6.01987 12.3638 5.5688 13.0979 5.30576C13.577 5.13985 14.0811 5.05763 14.5881 5.06272H16.4824C16.7524 5.06272 16.8694 5.17474 16.8694 5.43778V7.5781C16.8694 7.84114 16.7534 7.95416 16.4824 7.95416C15.9603 7.95416 15.4382 7.95416 14.9161 7.97216C14.3941 7.97216 14.123 8.2162 14.123 8.74227C14.103 9.30536 14.123 9.85044 14.123 10.4325H16.3664C16.6764 10.4325 16.7914 10.5445 16.7914 10.8456V13.1169C16.7914 13.417 16.6954 13.512 16.3664 13.512H14.123V19.6329C14.123 19.952 14.027 20.064 13.679 20.064H11.2616C10.9715 20.064 10.8555 19.952 10.8555 19.6699V13.53Z" fill="white"/>
</svg>
