<svg width="30" height="34" viewBox="0 0 30 34" fill="none" xmlns="http://www.w3.org/2000/svg">
<path d="M13.5466 14.9145C17.5228 14.9145 20.7461 11.6501 20.7461 7.62324C20.7461 3.59642 17.5228 0.332031 13.5466 0.332031C9.57047 0.332031 6.34715 3.59642 6.34715 7.62324C6.34715 11.6501 9.57047 14.9145 13.5466 14.9145Z" fill="url(#paint0_linear_1290_33134)"/>
<path d="M12.5181 25.3305C12.5181 21.9994 14.2542 19.0871 16.846 17.4247C15.7744 17.1664 14.6759 16.9977 13.5466 16.9977C7.8611 16.9977 2.69805 20.4058 0.392159 25.6784C-0.136488 26.8866 -0.130317 28.2719 0.408615 29.4802C0.959889 30.7114 2.0069 31.653 3.28635 32.0613C6.61456 33.1237 10.0662 33.6633 13.5446 33.6633C14.7726 33.6633 15.9944 33.5716 17.2122 33.4383C14.4229 31.8217 12.5161 28.8136 12.5161 25.3305H12.5181Z" fill="url(#paint1_linear_1290_33134)"/>
<path d="M29.55 30.9968L27.0714 28.4865C27.6123 27.5574 27.9456 26.4866 27.9456 25.3326C27.9456 21.8869 25.1769 19.0829 21.7746 19.0829C18.3723 19.0829 15.6036 21.8869 15.6036 25.3326C15.6036 28.7782 18.3723 31.5822 21.7746 31.5822C22.9162 31.5822 23.9715 31.2447 24.8889 30.6968L27.3676 33.2071C27.6679 33.5112 28.0628 33.6654 28.4578 33.6654C28.8527 33.6654 29.2477 33.5133 29.548 33.2071C30.1507 32.5967 30.1507 31.6072 29.548 30.9968H29.55ZM18.6891 25.3305C18.6891 23.6077 20.0735 22.2057 21.7746 22.2057C23.4757 22.2057 24.8601 23.6077 24.8601 25.3305C24.8601 26.1908 24.5145 26.9699 23.9591 27.5345C23.9591 27.5345 23.955 27.5345 23.955 27.5387C23.955 27.5428 23.955 27.5428 23.9509 27.5428C23.3935 28.1074 22.6241 28.4553 21.7746 28.4553C20.0735 28.4553 18.6891 27.0533 18.6891 25.3305Z" fill="url(#paint2_linear_1290_33134)"/>
<defs>
<linearGradient id="paint0_linear_1290_33134" x1="-0.374999" y1="-0.00244162" x2="20.814" y2="38.808" gradientUnits="userSpaceOnUse">
<stop stop-color="#2357C6"/>
<stop offset="1" stop-color="#5EA8FF"/>
</linearGradient>
<linearGradient id="paint1_linear_1290_33134" x1="-0.374999" y1="-0.00244162" x2="20.814" y2="38.808" gradientUnits="userSpaceOnUse">
<stop stop-color="#2357C6"/>
<stop offset="1" stop-color="#5EA8FF"/>
</linearGradient>
<linearGradient id="paint2_linear_1290_33134" x1="-0.374999" y1="-0.00244162" x2="20.814" y2="38.808" gradientUnits="userSpaceOnUse">
<stop stop-color="#2357C6"/>
<stop offset="1" stop-color="#5EA8FF"/>
</linearGradient>
</defs>
</svg>
