<svg width="26" height="26" viewBox="0 0 26 26" fill="none" xmlns="http://www.w3.org/2000/svg">
<path fill-rule="evenodd" clip-rule="evenodd" d="M17.8569 0.141648C15.5566 0.0336318 9.85871 0.0386325 7.55637 0.141648C5.53406 0.234662 3.7488 0.722735 2.31058 2.16195C0.158258 4.31527 0.178261 7.1367 0.206266 11.1103C0.209266 11.5774 0.213267 12.0604 0.213267 12.5605C0.213267 13.0276 0.210266 13.4796 0.208266 13.9167C0.185262 18.0233 0.17026 20.8148 2.31058 22.9551C4.4659 25.1104 7.31733 25.0884 11.2469 25.0594C11.717 25.0564 12.2041 25.0524 12.7071 25.0524H12.7742C17.5389 25.0524 19.1951 25.0524 20.8894 24.3963C23.2057 23.4962 24.954 21.4268 25.125 17.7083C25.233 15.4079 25.227 9.71108 25.125 7.40874C24.919 3.01908 22.5626 0.35768 17.8569 0.140648V0.141648ZM21.6315 6.01553C21.6371 6.2536 21.5951 6.49039 21.5079 6.71198C21.4207 6.93356 21.29 7.13548 21.1236 7.30584C20.9573 7.47621 20.7585 7.61159 20.539 7.70402C20.3196 7.79645 20.0838 7.84406 19.8457 7.84406C19.6076 7.84406 19.3719 7.79645 19.1524 7.70402C18.9329 7.61159 18.7342 7.47621 18.5678 7.30584C18.4014 7.13548 18.2708 6.93356 18.1835 6.71198C18.0963 6.49039 18.0543 6.2536 18.0599 6.01553C18.071 5.54923 18.264 5.10575 18.5977 4.77986C18.9314 4.45397 19.3793 4.27153 19.8457 4.27153C20.3121 4.27153 20.7601 4.45397 21.0938 4.77986C21.4275 5.10575 21.6204 5.54923 21.6315 6.01553ZM12.7021 17.3262C13.9653 17.3262 15.1767 16.8244 16.0699 15.9313C16.9631 15.0381 17.4649 13.8267 17.4649 12.5635C17.4649 11.3004 16.9631 10.0889 16.0699 9.19576C15.1767 8.30258 13.9653 7.8008 12.7021 7.8008C11.439 7.8008 10.2276 8.30258 9.33439 9.19576C8.44121 10.0889 7.93943 11.3004 7.93943 12.5635C7.93943 13.8267 8.44121 15.0381 9.33439 15.9313C10.2276 16.8244 11.439 17.3262 12.7021 17.3262Z" fill="#0D1530"/>
</svg>
