<svg width="41" height="40" viewBox="0 0 41 40" fill="none" xmlns="http://www.w3.org/2000/svg">
<g clip-path="url(#clip0_1256_34083)">
<path d="M13.1822 33.0538C13.3911 33.0938 13.6067 33.1093 14.0378 33.1404C14.9333 33.2538 15.7867 32.6204 15.9089 31.7071C16.0311 30.7938 15.3889 29.956 14.4756 29.836C14.3267 29.816 14.1733 29.8049 14.0222 29.796C13.9444 29.7915 13.8689 29.7915 13.7978 29.7782C12.4533 29.5227 11.1578 29.0404 9.95555 28.3449C9.41333 28.0315 8.74 28.0515 8.21555 28.3915C7.60889 28.7871 6.52 29.2449 5.33778 29.5715C6.07778 27.6004 6.28 25.376 5.47556 23.8649C4.40222 22.0071 3.83556 19.8982 3.83556 17.7715C3.83333 11.0338 9.31556 5.55377 16.0511 5.55377C20.3467 5.55377 24.2489 7.76043 26.4911 11.456C26.9689 12.2404 27.9911 12.4915 28.78 12.016C29.5667 11.5382 29.82 10.5138 29.3422 9.7271C26.4889 5.0271 21.52 2.22266 16.0511 2.22266C7.47778 2.22043 0.5 9.19599 0.5 17.7715C0.5 20.4849 1.22222 23.1671 2.56 25.4827C2.93111 26.1804 2.41556 29.0493 0.988889 30.4782C0.524444 30.9427 0.375556 31.6382 0.611111 32.2515C0.844444 32.8649 1.42 33.2849 2.07556 33.3204C2.23778 33.3293 2.4 33.3338 2.56889 33.3338C4.77333 33.3338 7.37333 32.5849 9.14222 31.6938C10.4244 32.3338 11.78 32.7915 13.1822 33.056V33.0538Z" fill="url(#paint0_linear_1256_34083)"/>
<path d="M38.933 31.9247C39.9574 30.1536 40.4996 28.138 40.4996 26.1003C40.4996 19.6669 35.2663 14.4336 28.833 14.4336C22.3996 14.4336 17.1641 19.6669 17.1641 26.1003C17.1641 32.5336 22.3974 37.7669 28.833 37.7669C29.5552 37.7669 30.2796 37.7003 30.9885 37.5647C31.9618 37.3803 32.9085 37.0714 33.8107 36.6447C35.1374 37.2691 36.9774 37.7736 38.5552 37.7736C38.6818 37.7736 38.8041 37.7714 38.9241 37.7647C39.5818 37.7291 40.1574 37.3091 40.3907 36.6958C40.6263 36.0825 40.4774 35.3869 40.013 34.9225C39.1774 34.0869 38.7952 32.3269 38.933 31.9247Z" fill="url(#paint1_linear_1256_34083)"/>
</g>
<defs>
<linearGradient id="paint0_linear_1256_34083" x1="-1.23477e-05" y1="1.86593" x2="19.706" y2="46.9907" gradientUnits="userSpaceOnUse">
<stop stop-color="#2357C6"/>
<stop offset="1" stop-color="#5EA8FF"/>
</linearGradient>
<linearGradient id="paint1_linear_1256_34083" x1="-1.23477e-05" y1="1.86593" x2="19.706" y2="46.9907" gradientUnits="userSpaceOnUse">
<stop stop-color="#2357C6"/>
<stop offset="1" stop-color="#5EA8FF"/>
</linearGradient>
<clipPath id="clip0_1256_34083">
<rect width="40" height="40" fill="white" transform="translate(0.5)"/>
</clipPath>
</defs>
</svg>
