<svg width="40" height="40" viewBox="0 0 40 40" fill="none" xmlns="http://www.w3.org/2000/svg">
<path d="M40 20.5564V18.3342C40 16.1898 38.2556 14.4453 36.1111 14.4453H26.1111C23.9667 14.4453 22.2222 16.1898 22.2222 18.3342V20.5564C22.2222 20.8631 22.2667 21.1564 22.3333 21.4409C20.9622 22.0431 20 23.4098 20 25.0009V27.2231C20 28.8142 20.9622 30.1809 22.3333 30.7831C22.2667 31.0675 22.2222 31.3631 22.2222 31.6675V33.8898C22.2222 36.0342 23.9667 37.7786 26.1111 37.7786H36.1111C38.2556 37.7786 40 36.0342 40 33.8898V31.6675C40 30.0764 39.0378 28.7098 37.6667 28.1075C37.7333 27.8231 37.7778 27.5275 37.7778 27.2231V25.0009C37.7778 24.6942 37.7333 24.4009 37.6667 24.1164C39.0378 23.5142 40 22.1475 40 20.5564ZM25.5556 18.3342C25.5556 18.0275 25.8044 17.7786 26.1111 17.7786H36.1111C36.4178 17.7786 36.6667 18.0275 36.6667 18.3342V20.5564C36.6667 20.8631 36.4178 21.112 36.1111 21.112H26.1111C25.8044 21.112 25.5556 20.8631 25.5556 20.5564V18.3342ZM36.6667 33.8898C36.6667 34.1964 36.4178 34.4453 36.1111 34.4453H26.1111C25.8044 34.4453 25.5556 34.1964 25.5556 33.8898V31.6675C25.5556 31.3609 25.8044 31.112 26.1111 31.112H36.1111C36.4178 31.112 36.6667 31.3609 36.6667 31.6675V33.8898Z" fill="url(#paint0_linear_1256_34272)"/>
<path d="M31.6632 2.22266H8.32986C4.95431 2.22266 2.21875 4.95821 2.21875 8.33377V22.7782C2.21875 26.1538 4.95431 28.8893 8.32986 28.8893H16.1076C17.0276 28.8893 17.7743 28.1427 17.7743 27.2227C17.7743 26.3027 17.0276 25.556 16.1076 25.556H12.0499C11.3854 22.296 8.81208 19.7227 5.55208 19.0582V12.056C8.81208 11.3915 11.3854 8.81821 12.0499 5.55821H27.941C28.7188 9.37154 32.1076 12.2449 36.1499 12.2249C37.0499 12.2204 37.7743 11.4582 37.7743 10.5582V8.33599C37.7743 4.96043 35.0388 2.22488 31.6632 2.22488V2.22266Z" fill="url(#paint1_linear_1256_34272)"/>
<path d="M18.8906 19.7942V18.3342C18.8906 14.9431 21.2484 12.1098 24.404 11.3386C23.2906 10.1764 21.7328 9.44531 20.0017 9.44531C16.6306 9.44531 13.8906 12.1853 13.8906 15.5564C13.8906 18.1364 15.5017 20.3364 17.7662 21.2298C18.0862 20.7098 18.4484 20.2186 18.8906 19.7942Z" fill="url(#paint2_linear_1256_34272)"/>
<defs>
<linearGradient id="paint0_linear_1256_34272" x1="1.74649" y1="1.86588" x2="22.2186" y2="46.1372" gradientUnits="userSpaceOnUse">
<stop stop-color="#2357C6"/>
<stop offset="1" stop-color="#5EA8FF"/>
</linearGradient>
<linearGradient id="paint1_linear_1256_34272" x1="1.74649" y1="1.86588" x2="22.2186" y2="46.1372" gradientUnits="userSpaceOnUse">
<stop stop-color="#2357C6"/>
<stop offset="1" stop-color="#5EA8FF"/>
</linearGradient>
<linearGradient id="paint2_linear_1256_34272" x1="1.74649" y1="1.86588" x2="22.2186" y2="46.1372" gradientUnits="userSpaceOnUse">
<stop stop-color="#2357C6"/>
<stop offset="1" stop-color="#5EA8FF"/>
</linearGradient>
</defs>
</svg>
