<svg width="24" height="24" viewBox="0 0 24 24" fill="none" xmlns="http://www.w3.org/2000/svg">
<g id="nodes 1">
<g id="Group">
<g id="Vector">
<path d="M11.9948 8.66536C13.4881 8.66536 14.7708 7.76536 15.3428 6.48136C17.2601 7.4707 18.6855 9.27603 19.1548 11.4094C19.2575 11.876 19.6721 12.1934 20.1294 12.1934C20.2015 12.1934 20.2734 12.1867 20.3468 12.1694C20.8854 12.0507 21.2254 11.516 21.1068 10.9774C20.4548 8.02803 18.3681 5.57603 15.6001 4.4107C15.3161 2.66936 13.8134 1.33203 11.9934 1.33203C9.97078 1.33203 8.32678 2.97603 8.32678 4.9987C8.32678 7.02136 9.97078 8.66536 11.9934 8.66536H11.9948Z" fill="url(#paint0_linear_1256_32428)"/>
<path d="M8.24278 15.1654C7.49612 13.8734 6.07478 13.2107 4.67745 13.3587C4.57478 11.2027 5.42545 9.0667 7.03612 7.59336C7.44412 7.22136 7.47212 6.58803 7.10012 6.18003C6.72678 5.77336 6.09478 5.74403 5.68678 6.11736C3.45745 8.15603 2.37745 11.1894 2.75212 14.168C2.15878 14.6507 1.72678 15.2974 1.52412 16.0507C1.27212 16.996 1.40145 17.9854 1.89078 18.832C2.38012 19.68 3.17078 20.288 4.11745 20.5414C4.43212 20.6254 4.75345 20.668 5.07212 20.668C5.70812 20.668 6.33345 20.5014 6.89878 20.1747C8.64812 19.1654 9.25212 16.9187 8.24145 15.1667L8.24278 15.1654Z" fill="url(#paint1_linear_1256_32428)"/>
<path d="M22.4655 16.0507C22.2121 15.1054 21.6041 14.3134 20.7575 13.824C19.0081 12.812 16.7588 13.416 15.7481 15.1667C15.0014 16.46 15.1401 18.02 15.9668 19.156C14.1535 20.3227 11.8801 20.6534 9.79212 19.9947C9.26278 19.8294 8.70412 20.1214 8.53878 20.6467C8.37212 21.1734 8.66412 21.7347 9.19078 21.9014C10.1014 22.1894 11.0415 22.3294 11.9775 22.3294C14.0108 22.3294 16.0201 21.6614 17.6614 20.4094C18.0681 20.5614 18.4881 20.6654 18.9188 20.6654C19.2374 20.6654 19.5575 20.624 19.8735 20.5387C20.8201 20.2854 21.6108 19.6774 22.1001 18.8307C22.5895 17.984 22.7201 16.9947 22.4668 16.0494L22.4655 16.0507Z" fill="url(#paint2_linear_1256_32428)"/>
</g>
</g>
</g>
<defs>
<linearGradient id="paint0_linear_1256_32428" x1="1.13351" y1="1.12134" x2="13.6222" y2="26.7766" gradientUnits="userSpaceOnUse">
<stop stop-color="#2357C6"/>
<stop offset="1" stop-color="#5EA8FF"/>
</linearGradient>
<linearGradient id="paint1_linear_1256_32428" x1="1.13351" y1="1.12134" x2="13.6222" y2="26.7766" gradientUnits="userSpaceOnUse">
<stop stop-color="#2357C6"/>
<stop offset="1" stop-color="#5EA8FF"/>
</linearGradient>
<linearGradient id="paint2_linear_1256_32428" x1="1.13351" y1="1.12134" x2="13.6222" y2="26.7766" gradientUnits="userSpaceOnUse">
<stop stop-color="#2357C6"/>
<stop offset="1" stop-color="#5EA8FF"/>
</linearGradient>
</defs>
</svg>
