<svg width="131" height="38" viewBox="0 0 131 38" fill="none" xmlns="http://www.w3.org/2000/svg">
<path d="M49.6835 36.8066H45.5781V17.7734H49.6835V36.8066Z" fill="#0A193A"/>
<path d="M80.9841 28.7664C80.9841 30.3558 80.5988 31.5302 79.8283 32.2896C79.0665 33.0578 78.0435 33.4419 76.7592 33.4419C75.4837 33.4419 74.4651 33.0578 73.7034 32.2896C72.9328 31.5302 72.5475 30.3558 72.5475 28.7664V18.1836H68.5352V28.7664C68.5352 30.1527 68.7344 31.3756 69.133 32.4352C69.5227 33.486 70.0763 34.3646 70.7938 35.071C71.5112 35.7774 72.3792 36.3028 73.3978 36.6472C74.4076 36.9915 75.528 37.1637 76.7592 37.1637C77.9992 37.1637 79.1241 36.9871 80.1338 36.6339C81.1436 36.2719 82.0116 35.7377 82.7379 35.0313C83.4553 34.3249 84.0089 33.4507 84.3986 32.4088C84.7972 31.3668 84.9965 30.1527 84.9965 28.7664V18.1836H80.9841V28.7664Z" fill="#0A193A"/>
<path d="M100.152 28.7664C100.152 30.3558 99.7668 31.5302 98.9962 32.2896C98.2345 33.0578 97.2115 33.4419 95.9272 33.4419C94.6517 33.4419 93.6331 33.0578 92.8714 32.2896C92.1008 31.5302 91.7155 30.3558 91.7155 28.7664V18.1836H87.7031V28.7664C87.7031 30.1527 87.9024 31.3756 88.301 32.4352C88.6907 33.486 89.2443 34.3646 89.9617 35.071C90.688 35.7774 91.5561 36.3028 92.5658 36.6472C93.5755 36.9915 94.696 37.1637 95.9272 37.1637C97.1672 37.1637 98.2921 36.9871 99.3018 36.6339C100.312 36.2719 101.18 35.7377 101.906 35.0313C102.623 34.3249 103.177 33.4507 103.567 32.4088C103.965 31.3668 104.164 30.1527 104.164 28.7664V18.1836H100.152V28.7664Z" fill="#0A193A"/>
<path d="M110.887 26.5942C110.887 25.0048 111.273 23.826 112.043 23.0578C112.805 22.2984 113.828 21.9187 115.112 21.9187C116.388 21.9187 117.411 22.2984 118.181 23.0578C118.943 23.826 119.324 25.0048 119.324 26.5942V37.1637H123.336V26.5942C123.336 25.199 123.137 23.9761 122.738 22.9253C122.349 21.8745 121.795 20.996 121.078 20.2895C120.36 19.5831 119.492 19.0578 118.474 18.7134C117.464 18.3602 116.343 18.1836 115.112 18.1836C113.872 18.1836 112.747 18.3646 111.738 18.7266C110.728 19.0887 109.86 19.6229 109.134 20.3293C108.416 21.0269 107.863 21.8966 107.473 22.9386C107.074 23.9805 106.875 25.199 106.875 26.5942V37.1637H110.887V26.5942Z" fill="#0A193A"/>
<path d="M42.0412 17.7891C37.2715 18.2394 33.5647 21.9083 33.299 26.6898C33.1528 29.511 33.2458 32.3454 33.2724 35.1798V36.809H33.4186C34.5744 36.809 35.7037 36.809 36.8995 36.809C37.1121 36.809 37.3291 36.809 37.5505 36.809C37.5505 36.3057 37.5505 35.8686 37.5505 35.4315C37.5505 32.7163 37.5372 30.0143 37.5638 27.299C37.5904 24.5971 39.384 22.5573 42.0677 22.0938C42.2936 22.054 42.5195 21.9878 42.7453 21.9348C42.7453 20.5176 42.7453 19.1798 42.7453 17.7891C42.4398 17.7891 42.2405 17.7626 42.0412 17.7891Z" fill="#0A193A"/>
<path d="M65.6115 29.5364C64.9605 27.2185 63.0871 25.6158 60.7222 25.298L59.7523 25.2317C59.2873 25.2317 58.716 25.2317 58.1447 25.2185C57.3343 25.2052 56.6301 24.5695 56.5371 23.7615C56.4441 22.8609 56.9357 22.0927 57.7462 21.8807C57.9853 21.8145 58.2643 21.8013 58.5433 21.8013C59.4601 21.788 60.4034 21.788 61.3068 21.788L64.0304 21.8013V21.788H64.1766V17.6953H60.6957C59.8453 17.6953 58.9818 17.6953 58.1182 17.7086C56.3246 17.735 54.6638 18.5695 53.5744 20.0264C52.4716 21.4701 52.1262 23.3112 52.6045 25.0463C53.2555 27.3774 55.1288 28.9668 57.4937 29.2847L57.9455 29.3112L58.4636 29.3509C58.9286 29.3509 59.4999 29.3509 60.0712 29.3642C60.8817 29.3774 61.5858 30.0132 61.6788 30.8211C61.7718 31.7218 61.2802 32.49 60.4698 32.7152C60.2306 32.7682 59.9516 32.7814 59.6726 32.7814C59.4423 32.7902 59.212 32.7947 58.9818 32.7947H54.1855V36.7947V36.8874H56.1518C56.3821 36.8874 56.6124 36.8874 56.8427 36.8874C57.3387 36.8874 57.8436 36.8874 58.3573 36.8874C58.6762 36.8874 58.9995 36.8874 59.3272 36.8874H59.6992C59.8321 36.8785 59.9649 36.8741 60.0978 36.8741C61.8914 36.8609 63.5521 36.0132 64.6416 34.5695C65.7443 33.1125 66.0898 31.2715 65.6115 29.5364Z" fill="#0A193A"/>
<path fill-rule="evenodd" clip-rule="evenodd" d="M69.4741 11.1523C69.5273 11.2185 69.4476 11.298 69.3811 11.245C68.4777 10.543 67.7602 10.053 67.1358 9.74835C66.3785 10.8212 66.1128 12.5166 65.8205 15.3775C65.5282 12.5563 65.2625 10.8609 64.5184 9.78808C63.9073 10.106 63.2164 10.6225 62.3395 11.3378C62.2731 11.3907 62.1801 11.3113 62.2333 11.2318C62.9374 10.3311 63.4423 9.62914 63.7479 9.00662C63.2696 8.66225 62.6584 8.42384 61.8745 8.23841H53.8764C53.5974 11.4305 50.9003 13.947 47.6319 13.947C44.1643 13.947 41.3477 11.1391 41.3477 7.68212C41.3477 4.23841 44.1643 1.43047 47.6319 1.43047C50.9003 1.43047 53.5974 3.94702 53.8764 7.13907H61.8745C62.6318 6.95364 63.2297 6.71523 63.6947 6.39735C63.3891 5.78808 62.871 5.09934 62.1535 4.22516C62.1004 4.15894 62.1801 4.06623 62.2465 4.11921C63.1633 4.82119 63.8674 5.3245 64.4919 5.61589C65.2492 4.55629 65.5282 2.84768 65.8205 0C66.0995 2.80795 66.3652 4.50331 67.1092 5.57616C67.7204 5.25828 68.4112 4.75497 69.2881 4.03974C69.3545 3.97351 69.4475 4.06623 69.3944 4.13245C68.6902 5.03311 68.1854 5.74835 67.8931 6.37086C68.956 7.12583 70.6699 7.39073 73.5264 7.68212C70.7097 7.97351 69.0091 8.23841 67.9329 8.96689C68.2385 9.58941 68.7567 10.2781 69.4741 11.1523ZM50.236 7.68212C50.236 6.25166 49.0668 5.07285 47.6319 5.07285C46.1838 5.07285 45.0146 6.25166 45.0146 7.68212C45.0146 9.12583 46.1838 10.2914 47.6319 10.2914C49.0668 10.2914 50.236 9.12583 50.236 7.68212Z" fill="#69B3E7"/>
<path fill-rule="evenodd" clip-rule="evenodd" d="M30.5445 22.7826C30.5445 31.1799 23.7022 38.0011 15.2656 38.0011C6.84229 38.0011 0 31.1799 0 22.7826C0 14.372 6.84229 7.55078 15.2656 7.55078C23.7022 7.55078 30.5445 14.372 30.5445 22.7826ZM22.8519 22.7826C22.8519 18.6104 19.4507 15.2197 15.2656 15.2197C11.0805 15.2197 7.6926 18.6104 7.6926 22.7826C7.6926 26.9548 11.0805 30.3322 15.2656 30.3322C19.4507 30.3322 22.8519 26.9548 22.8519 22.7826Z" fill="#69B3E7"/>
<path d="M127.972 18.7268H127.281V20.9387H126.696V18.7268H125.992V18.25H127.972V18.7268ZM130.443 19.0977L129.819 20.952H129.513L128.889 19.0977V20.952H128.344V18.2632H129.021L129.672 20.1573L130.337 18.2632H131.001V20.952H130.443V19.0977Z" fill="#69B3E7"/>
</svg>
