<svg width="32" height="32" viewBox="0 0 32 32" fill="none" xmlns="http://www.w3.org/2000/svg">
<g id="rocket 1">
<g id="Group">
<g id="Vector">
<path d="M8.88681 27.5938H6.30815C5.6995 27.5938 5.20553 27.0998 5.20553 26.4912V23.9126C5.20553 22.4704 6.05528 21.1532 7.37108 20.5578C7.92239 20.3064 8.57808 20.5519 8.82948 21.1076C9.08088 21.6618 8.83389 22.316 8.27964 22.566C7.75185 22.8056 7.41077 23.3334 7.41077 23.9126V25.3886H8.88681C9.46606 25.3886 9.99385 25.0475 10.2335 24.5197C10.4834 23.9655 11.1391 23.72 11.6919 23.9699C12.2461 24.2213 12.4931 24.874 12.2417 25.4283C11.6463 26.744 10.329 27.5938 8.88681 27.5938Z" fill="url(#paint0_linear_1256_32455)"/>
<path d="M22.1529 17.847C27.1884 12.3165 26.6344 6.08131 26.55 5.3765C26.4932 4.89879 26.1179 4.52354 25.6401 4.46676C24.9324 4.37953 18.7003 3.82842 13.1676 8.86313L11.7646 8.61251C9.63742 8.23449 7.46173 9.12484 6.21392 10.8848L3.61306 14.557C3.34854 14.9308 3.35962 15.4321 3.63937 15.7935C3.84157 16.0538 4.14625 16.1964 4.46063 16.1964C4.58527 16.1964 4.71129 16.1743 4.83178 16.1286C4.84979 16.1216 6.31087 15.5872 8.48241 15.673C8.24697 16.2795 8.0794 16.8154 7.9603 17.2502C7.86197 17.6102 7.96307 17.9951 8.22758 18.2596L12.759 22.7903C12.9571 22.9883 13.2216 23.0949 13.493 23.0949C13.5844 23.0949 13.6772 23.0825 13.7672 23.0575C14.2007 22.9384 14.7367 22.7709 15.3419 22.5355C15.4222 24.6887 14.8932 26.1703 14.8876 26.1855C14.7242 26.6134 14.8599 27.0966 15.2214 27.3764C15.4083 27.5204 15.6327 27.5938 15.8571 27.5938C16.0676 27.5938 16.2781 27.5301 16.4581 27.4027L20.1337 24.7995C21.8925 23.5546 22.783 21.3779 22.4035 19.2566L22.1515 17.8497L22.1529 17.847ZM18.656 9.93765C19.9938 9.93765 21.0796 11.0219 21.0796 12.3608C21.0796 13.6998 19.9938 14.784 18.656 14.784C17.3181 14.784 16.2324 13.6998 16.2324 12.3608C16.2324 11.0219 17.3181 9.93765 18.656 9.93765ZM6.81498 13.632L7.91044 12.0867C8.6943 10.9803 10.0584 10.4167 11.4018 10.6577L11.4489 10.666C10.5972 11.6907 9.91718 12.7181 9.40337 13.6749C8.45055 13.5821 7.55867 13.5669 6.81498 13.632ZM18.9343 23.1032L17.3846 24.1999C17.4511 23.4577 17.4345 22.566 17.3403 21.6133C18.2973 21.0996 19.3249 20.4197 20.3497 19.5681L20.3594 19.6207C20.5976 20.9542 20.0395 22.3209 18.9343 23.1032Z" fill="url(#paint1_linear_1256_32455)"/>
</g>
</g>
</g>
<defs>
<linearGradient id="paint0_linear_1256_32455" x1="3.13203" y1="4.17358" x2="17.0028" y2="32.4027" gradientUnits="userSpaceOnUse">
<stop stop-color="#2357C6"/>
<stop offset="1" stop-color="#5EA8FF"/>
</linearGradient>
<linearGradient id="paint1_linear_1256_32455" x1="3.13203" y1="4.17358" x2="17.0028" y2="32.4027" gradientUnits="userSpaceOnUse">
<stop stop-color="#2357C6"/>
<stop offset="1" stop-color="#5EA8FF"/>
</linearGradient>
</defs>
</svg>
