<svg width="41" height="40" viewBox="0 0 41 40" fill="none" xmlns="http://www.w3.org/2000/svg">
<path d="M28.7619 32H21.9564V13C21.9564 12.172 21.3031 11.5 20.4981 11.5C19.6931 11.5 19.0397 12.172 19.0397 13V32H12.2342C11.4292 32 10.7758 32.672 10.7758 33.5C10.7758 34.328 11.4292 35 12.2342 35H28.7619C29.5669 35 30.2203 34.328 30.2203 33.5C30.2203 32.672 29.5669 32 28.7619 32Z" fill="url(#paint0_linear_1256_35738)"/>
<path d="M17.0953 8H9.85222C9.3 8 8.79444 8.322 8.5475 8.83L3.20028 19.83C2.84056 20.572 3.13222 21.472 3.85167 21.842C4.57306 22.214 5.45 21.912 5.80778 21.172L9.84056 12.878L13.7917 21.16C14.0444 21.692 14.5636 21.998 15.1022 21.998C15.3181 21.998 15.5378 21.95 15.7439 21.844C16.4672 21.478 16.7647 20.58 16.4108 19.836L12.1933 10.998H17.0953C17.9003 10.998 18.5536 10.326 18.5536 9.498C18.5536 8.67 17.9003 8 17.0953 8Z" fill="url(#paint1_linear_1256_35738)"/>
<path d="M37.7958 19.83L32.4486 8.83C32.2406 8.404 31.8478 8.122 31.4025 8.038C31.3364 8.016 31.2528 8 31.1439 8H23.9008C23.0958 8 22.4425 8.672 22.4425 9.5C22.4425 10.328 23.0958 11 23.9008 11H28.8028L24.5853 19.838C24.2294 20.582 24.5289 21.48 25.2522 21.846C25.4583 21.95 25.6781 22 25.8939 22C26.4325 22 26.9497 21.692 27.2044 21.162L31.1556 12.88L35.1864 21.172C35.5481 21.914 36.4231 22.214 37.1425 21.842C37.8639 21.47 38.1575 20.57 37.7958 19.83Z" fill="url(#paint2_linear_1256_35738)"/>
<path d="M16.4517 20H3.18667C3.11861 20.154 3.06222 20.312 3.04083 20.474C3.0175 20.646 3 20.82 3 21C3 24.86 6.05278 28 9.80556 28C13.5583 28 16.6111 24.86 16.6111 21C16.6111 20.822 16.5917 20.648 16.5547 20.36C16.5431 20.232 16.4925 20.116 16.4517 20Z" fill="url(#paint3_linear_1256_35738)"/>
<path d="M37.8406 20H24.5756C24.5075 20.154 24.4511 20.312 24.4297 20.474C24.4064 20.646 24.3889 20.82 24.3889 21C24.3889 24.86 27.4417 28 31.1944 28C34.9472 28 38 24.86 38 21C38 20.822 37.9806 20.648 37.9436 20.36C37.9319 20.232 37.8814 20.116 37.8406 20Z" fill="url(#paint4_linear_1256_35738)"/>
<path d="M20.4981 14C22.9143 14 24.8731 11.9853 24.8731 9.5C24.8731 7.01472 22.9143 5 20.4981 5C18.0818 5 16.1231 7.01472 16.1231 9.5C16.1231 11.9853 18.0818 14 20.4981 14Z" fill="url(#paint5_linear_1256_35738)"/>
<defs>
<linearGradient id="paint0_linear_1256_35738" x1="2.5625" y1="4.69897" x2="18.7817" y2="43.2089" gradientUnits="userSpaceOnUse">
<stop stop-color="#2357C6"/>
<stop offset="1" stop-color="#5EA8FF"/>
</linearGradient>
<linearGradient id="paint1_linear_1256_35738" x1="2.5625" y1="4.69897" x2="18.7817" y2="43.2089" gradientUnits="userSpaceOnUse">
<stop stop-color="#2357C6"/>
<stop offset="1" stop-color="#5EA8FF"/>
</linearGradient>
<linearGradient id="paint2_linear_1256_35738" x1="2.5625" y1="4.69897" x2="18.7817" y2="43.2089" gradientUnits="userSpaceOnUse">
<stop stop-color="#2357C6"/>
<stop offset="1" stop-color="#5EA8FF"/>
</linearGradient>
<linearGradient id="paint3_linear_1256_35738" x1="2.5625" y1="4.69897" x2="18.7817" y2="43.2089" gradientUnits="userSpaceOnUse">
<stop stop-color="#2357C6"/>
<stop offset="1" stop-color="#5EA8FF"/>
</linearGradient>
<linearGradient id="paint4_linear_1256_35738" x1="2.5625" y1="4.69897" x2="18.7817" y2="43.2089" gradientUnits="userSpaceOnUse">
<stop stop-color="#2357C6"/>
<stop offset="1" stop-color="#5EA8FF"/>
</linearGradient>
<linearGradient id="paint5_linear_1256_35738" x1="2.5625" y1="4.69897" x2="18.7817" y2="43.2089" gradientUnits="userSpaceOnUse">
<stop stop-color="#2357C6"/>
<stop offset="1" stop-color="#5EA8FF"/>
</linearGradient>
</defs>
</svg>
