<svg width="26" height="26" viewBox="0 0 26 26" fill="none" xmlns="http://www.w3.org/2000/svg">
<path d="M19.4891 0.0585938H5.91505C2.75882 0.0585938 0.200195 2.61722 0.200195 5.77345V19.3475C0.200195 22.5037 2.75882 25.0623 5.91505 25.0623H19.4891C22.6453 25.0623 25.2039 22.5037 25.2039 19.3475V5.77345C25.2039 2.61722 22.6453 0.0585938 19.4891 0.0585938Z" fill="#0D1530"/>
<path d="M14.1345 11.4145L19.7223 5.0625H18.3982L13.5454 10.5783L9.67184 5.0625H5.20117L11.0621 13.4038L5.20117 20.0648H6.52637L11.6501 14.2399L15.7428 20.0648H20.2124L14.1325 11.4135L14.1345 11.4145ZM12.3202 13.4768L11.7262 12.6466L7.00244 6.03665H9.03575L12.8483 11.3704L13.4424 12.2006L18.3982 19.1336H16.3648L12.3202 13.4768Z" fill="white"/>
</svg>
