<svg width="40" height="40" viewBox="0 0 40 40" fill="none" xmlns="http://www.w3.org/2000/svg">
<path d="M17.7812 22.2227C23.3041 22.2227 27.7812 17.7455 27.7812 12.2227C27.7812 6.69981 23.3041 2.22266 17.7812 2.22266C12.2584 2.22266 7.78125 6.69981 7.78125 12.2227C7.78125 17.7455 12.2584 22.2227 17.7812 22.2227Z" fill="url(#paint0_linear_1256_34955)"/>
<path d="M19.4456 26.1115C19.4456 25.1915 18.6989 24.4449 17.7789 24.4449C11.8034 24.4449 6.25894 27.4227 2.95006 32.4115C2.44117 33.1782 2.65005 34.2138 3.41672 34.7227C3.70117 34.9093 4.01894 35.0004 4.33672 35.0004C4.87672 35.0004 5.40561 34.7382 5.72783 34.256C8.41672 30.2004 12.9212 27.7804 17.7789 27.7804C18.6989 27.7804 19.4456 27.0338 19.4456 26.1138V26.1115Z" fill="url(#paint1_linear_1256_34955)"/>
<path d="M38.9516 25.7115C38.4383 24.9182 37.5672 24.4448 36.6205 24.4448H24.6094C23.5116 24.4448 22.516 25.0937 22.0694 26.0937L18.3583 34.4448H12.776C11.856 34.4448 11.1094 35.1915 11.1094 36.1115C11.1094 37.0315 11.856 37.7782 12.776 37.7782H33.1649C34.2627 37.7782 35.2583 37.1293 35.7049 36.1293L39.1605 28.3537C39.5471 27.4915 39.4694 26.5026 38.9538 25.7115H38.9516Z" fill="url(#paint2_linear_1256_34955)"/>
<defs>
<linearGradient id="paint0_linear_1256_34955" x1="2.21273" y1="1.86589" x2="23.0564" y2="45.6894" gradientUnits="userSpaceOnUse">
<stop stop-color="#2357C6"/>
<stop offset="1" stop-color="#5EA8FF"/>
</linearGradient>
<linearGradient id="paint1_linear_1256_34955" x1="2.21273" y1="1.86589" x2="23.0564" y2="45.6894" gradientUnits="userSpaceOnUse">
<stop stop-color="#2357C6"/>
<stop offset="1" stop-color="#5EA8FF"/>
</linearGradient>
<linearGradient id="paint2_linear_1256_34955" x1="2.21273" y1="1.86589" x2="23.0564" y2="45.6894" gradientUnits="userSpaceOnUse">
<stop stop-color="#2357C6"/>
<stop offset="1" stop-color="#5EA8FF"/>
</linearGradient>
</defs>
</svg>
