<svg width="40" height="40" viewBox="0 0 40 40" fill="none" xmlns="http://www.w3.org/2000/svg">
<path d="M19.9985 17.7782C24.294 17.7782 27.7763 14.296 27.7763 10.0004C27.7763 5.70489 24.294 2.22266 19.9985 2.22266C15.7029 2.22266 12.2207 5.70489 12.2207 10.0004C12.2207 14.296 15.7029 17.7782 19.9985 17.7782Z" fill="#212121"/>
<path d="M19.9985 17.7782C24.294 17.7782 27.7763 14.296 27.7763 10.0004C27.7763 5.70489 24.294 2.22266 19.9985 2.22266C15.7029 2.22266 12.2207 5.70489 12.2207 10.0004C12.2207 14.296 15.7029 17.7782 19.9985 17.7782Z" fill="url(#paint0_linear_1720_36892)"/>
<path d="M19.6348 20C13.4925 20 7.91477 23.6356 5.42366 29.26C4.85255 30.5489 4.85922 32.0267 5.44144 33.3156C6.03699 34.6289 7.1681 35.6333 8.55033 36.0689C12.1459 37.2022 15.8748 37.7778 19.6325 37.7778C23.3903 37.7778 27.1192 37.2022 30.7148 36.0689C32.097 35.6333 33.2303 34.6289 33.8237 33.3156C34.4059 32.0267 34.4125 30.5489 33.8414 29.26C31.3503 23.6356 25.7726 20 19.6303 20H19.6348Z" fill="#212121"/>
<path d="M19.6348 20C13.4925 20 7.91477 23.6356 5.42366 29.26C4.85255 30.5489 4.85922 32.0267 5.44144 33.3156C6.03699 34.6289 7.1681 35.6333 8.55033 36.0689C12.1459 37.2022 15.8748 37.7778 19.6325 37.7778C23.3903 37.7778 27.1192 37.2022 30.7148 36.0689C32.097 35.6333 33.2303 34.6289 33.8237 33.3156C34.4059 32.0267 34.4125 30.5489 33.8414 29.26C31.3503 23.6356 25.7726 20 19.6303 20H19.6348Z" fill="url(#paint1_linear_1720_36892)"/>
<defs>
<linearGradient id="paint0_linear_1720_36892" x1="12.0263" y1="2.06657" x2="21.3316" y2="21.0044" gradientUnits="userSpaceOnUse">
<stop stop-color="#2357C6"/>
<stop offset="1" stop-color="#5EA8FF"/>
</linearGradient>
<linearGradient id="paint1_linear_1720_36892" x1="4.63419" y1="19.8216" x2="11.9982" y2="44.4922" gradientUnits="userSpaceOnUse">
<stop stop-color="#2357C6"/>
<stop offset="1" stop-color="#5EA8FF"/>
</linearGradient>
</defs>
</svg>
