<svg width="40" height="40" viewBox="0 0 40 40" fill="none" xmlns="http://www.w3.org/2000/svg">
<path d="M12.7791 19.9996C16.1542 19.9996 18.8902 17.2635 18.8902 13.8885C18.8902 10.5134 16.1542 7.77734 12.7791 7.77734C9.40401 7.77734 6.66797 10.5134 6.66797 13.8885C6.66797 17.2635 9.40401 19.9996 12.7791 19.9996Z" fill="url(#paint0_linear_1256_32282)"/>
<path d="M26.6658 14.4449C30.0409 14.4449 32.7769 11.7088 32.7769 8.33377C32.7769 4.95869 30.0409 2.22266 26.6658 2.22266C23.2907 2.22266 20.5547 4.95869 20.5547 8.33377C20.5547 11.7088 23.2907 14.4449 26.6658 14.4449Z" fill="url(#paint1_linear_1256_32282)"/>
<path d="M38.2125 24.6635C36.4103 19.8813 31.7703 16.668 26.6658 16.668C23.5169 16.668 20.5503 17.8969 18.3125 19.9569C22.4325 21.5324 25.8347 24.7769 27.4436 29.0435C27.6925 29.7013 27.8036 30.3835 27.8481 31.0657C30.5392 30.9546 33.2014 30.488 35.7703 29.6302C36.7836 29.2924 37.6236 28.548 38.0836 27.588C38.5281 26.6546 38.5747 25.6146 38.2147 24.6635H38.2125Z" fill="url(#paint2_linear_1256_32282)"/>
<path d="M24.3253 30.2182C22.5231 25.436 17.8831 22.2227 12.7786 22.2227C7.6742 22.2227 3.0342 25.436 1.23198 30.2182C0.87198 31.1715 0.918647 32.2093 1.36309 33.1427C1.82087 34.1027 2.66309 34.8471 3.67642 35.1849C6.62087 36.1671 9.68531 36.6671 12.7786 36.6671C15.872 36.6671 18.9364 36.1671 21.8809 35.1849C22.8942 34.8471 23.7342 34.1027 24.1942 33.1427C24.6386 32.2093 24.6853 31.1693 24.3253 30.2182Z" fill="url(#paint3_linear_1256_32282)"/>
<defs>
<linearGradient id="paint0_linear_1256_32282" x1="0.523909" y1="1.87703" x2="20.0561" y2="45.1109" gradientUnits="userSpaceOnUse">
<stop stop-color="#2357C6"/>
<stop offset="1" stop-color="#5EA8FF"/>
</linearGradient>
<linearGradient id="paint1_linear_1256_32282" x1="0.523909" y1="1.87703" x2="20.0561" y2="45.1109" gradientUnits="userSpaceOnUse">
<stop stop-color="#2357C6"/>
<stop offset="1" stop-color="#5EA8FF"/>
</linearGradient>
<linearGradient id="paint2_linear_1256_32282" x1="0.523909" y1="1.87703" x2="20.0561" y2="45.1109" gradientUnits="userSpaceOnUse">
<stop stop-color="#2357C6"/>
<stop offset="1" stop-color="#5EA8FF"/>
</linearGradient>
<linearGradient id="paint3_linear_1256_32282" x1="0.523909" y1="1.87703" x2="20.0561" y2="45.1109" gradientUnits="userSpaceOnUse">
<stop stop-color="#2357C6"/>
<stop offset="1" stop-color="#5EA8FF"/>
</linearGradient>
</defs>
</svg>
