<svg width="24" height="24" viewBox="0 0 24 24" fill="none" xmlns="http://www.w3.org/2000/svg">
<g id="zoom 1">
<g id="Group">
<path id="Vector" d="M1.43771 20.4403L6.67071 15.2073C5.35813 13.3626 4.78659 11.092 5.06938 8.84566C5.35218 6.59935 6.46866 4.54128 8.19751 3.07944C9.92636 1.6176 12.1414 0.8587 14.4034 0.953184C16.6655 1.04767 18.8095 1.98864 20.4104 3.58956C22.0114 5.19048 22.9523 7.33449 23.0468 9.59656C23.1413 11.8586 22.3824 14.0736 20.9206 15.8025C19.4587 17.5313 17.4007 18.6478 15.1543 18.9306C12.908 19.2134 10.6374 18.6419 8.79271 17.3293L3.55971 22.5623C3.27831 22.8437 2.89666 23.0018 2.49871 23.0018C2.10076 23.0018 1.7191 22.8437 1.43771 22.5623C1.15631 22.2809 0.998228 21.8992 0.998228 21.5013C0.998228 21.1033 1.15631 20.7217 1.43771 20.4403ZM20.9987 10.0013C20.9987 8.61682 20.5882 7.26344 19.819 6.1123C19.0498 4.96115 17.9566 4.06395 16.6775 3.53413C15.3984 3.00432 13.9909 2.8657 12.6331 3.13579C11.2752 3.40589 10.0279 4.07258 9.04896 5.05154C8.06999 6.03051 7.40331 7.27779 7.13321 8.63566C6.86312 9.99353 7.00174 11.401 7.53155 12.6801C8.06137 13.9592 8.95857 15.0524 10.1097 15.8216C11.2609 16.5907 12.6142 17.0013 13.9987 17.0013C15.8546 16.9992 17.6338 16.261 18.9461 14.9487C20.2584 13.6364 20.9966 11.8572 20.9987 10.0013Z" fill="url(#paint0_linear_1256_32423)"/>
</g>
</g>
<defs>
<linearGradient id="paint0_linear_1256_32423" x1="23.3304" y1="0.723994" x2="10.1362" y2="27.5762" gradientUnits="userSpaceOnUse">
<stop stop-color="#2357C6"/>
<stop offset="1" stop-color="#5EA8FF"/>
</linearGradient>
</defs>
</svg>
