<svg width="29" height="29" viewBox="0 0 29 29" fill="none" xmlns="http://www.w3.org/2000/svg">
<path d="M10 2H3C1.89543 2 1 2.89543 1 4V11C1 12.1046 1.89543 13 3 13H10C11.1046 13 12 12.1046 12 11V4C12 2.89543 11.1046 2 10 2Z" stroke="#2357C6" stroke-width="2" stroke-miterlimit="10" stroke-linecap="square"/>
<path d="M20.1783 1.54828L15.5496 6.177C14.8189 6.90768 14.8189 8.09233 15.5496 8.823L20.1783 13.4517C20.909 14.1824 22.0936 14.1824 22.8243 13.4517L27.453 8.823C28.1837 8.09233 28.1837 6.90768 27.453 6.177L22.8243 1.54828C22.0936 0.817613 20.909 0.817611 20.1783 1.54828Z" stroke="#2357C6" stroke-width="2" stroke-miterlimit="10" stroke-linecap="square"/>
<path d="M25 17H18C16.8954 17 16 17.8954 16 19V26C16 27.1046 16.8954 28 18 28H25C26.1046 28 27 27.1046 27 26V19C27 17.8954 26.1046 17 25 17Z" stroke="#2357C6" stroke-width="2" stroke-miterlimit="10" stroke-linecap="square"/>
<path d="M10 17H3C1.89543 17 1 17.8954 1 19V26C1 27.1046 1.89543 28 3 28H10C11.1046 28 12 27.1046 12 26V19C12 17.8954 11.1046 17 10 17Z" stroke="#2357C6" stroke-width="2" stroke-miterlimit="10" stroke-linecap="square"/>
</svg>
