<svg width="32" height="32" viewBox="0 0 32 32" fill="none" xmlns="http://www.w3.org/2000/svg">
<path d="M13 14C14.3807 14 15.5 12.8807 15.5 11.5C15.5 10.1193 14.3807 9 13 9C11.6193 9 10.5 10.1193 10.5 11.5C10.5 12.8807 11.6193 14 13 14Z" stroke="#2357C6" stroke-width="2" stroke-miterlimit="10" stroke-linecap="square"/>
<path d="M8 22C8 20.6739 8.52678 19.4021 9.46447 18.4645C10.4021 17.5268 11.6739 17 13 17C14.3261 17 15.5979 17.5268 16.5355 18.4645C17.4732 19.4021 18 20.6739 18 22" stroke="#2357C6" stroke-width="2" stroke-miterlimit="10"/>
<path d="M12 22H3C2.46957 22 1.96086 21.7893 1.58579 21.4142C1.21071 21.0391 1 20.5304 1 20V8C1 7.46957 1.21071 6.96086 1.58579 6.58579C1.96086 6.21071 2.46957 6 3 6H14.667" stroke="#2357C6" stroke-width="2" stroke-miterlimit="10" stroke-linecap="square"/>
<path d="M24.0001 30L19.0001 27L11.6351 25.963C11.1485 25.8682 10.7146 25.5961 10.4173 25.1995C10.12 24.8029 9.98055 24.3101 10.026 23.8165C10.0715 23.3229 10.2986 22.8638 10.6633 22.5282C11.028 22.1926 11.5044 22.0043 12.0001 22H22.0001C22.7957 22 23.5588 21.6839 24.1214 21.1213C24.684 20.5587 25.0001 19.7956 25.0001 19V9L20.0001 6H15.0001C14.4696 6 13.9609 5.78929 13.5858 5.41421C13.2108 5.03914 13.0001 4.53043 13.0001 4C13.0001 3.46957 13.2108 2.96086 13.5858 2.58579C13.9609 2.21071 14.4696 2 15.0001 2H22.0001L30.0001 5" stroke="#2357C6" stroke-width="2" stroke-miterlimit="10" stroke-linecap="square"/>
</svg>
