<svg width="32" height="32" viewBox="0 0 32 32" fill="none" xmlns="http://www.w3.org/2000/svg">
<path fill-rule="evenodd" clip-rule="evenodd" d="M13.3327 7.99935C13.3327 10.9449 10.9449 13.3327 7.99935 13.3327C5.05383 13.3327 2.66602 10.9449 2.66602 7.99935C2.66602 5.05383 5.05383 2.66602 7.99935 2.66602C10.9449 2.66602 13.3327 5.05383 13.3327 7.99935ZM10.666 7.99935C10.666 9.47211 9.47211 10.666 7.99935 10.666C6.52659 10.666 5.33268 9.47211 5.33268 7.99935C5.33268 6.52659 6.52659 5.33268 7.99935 5.33268C9.47211 5.33268 10.666 6.52659 10.666 7.99935Z" fill="#2357C6"/>
<path fill-rule="evenodd" clip-rule="evenodd" d="M29.3327 23.9993C29.3327 26.9449 26.9449 29.3327 23.9993 29.3327C21.0538 29.3327 18.666 26.9449 18.666 23.9993C18.666 21.0538 21.0538 18.666 23.9993 18.666C26.9449 18.666 29.3327 21.0538 29.3327 23.9993ZM26.666 23.9993C26.666 25.4721 25.4721 26.666 23.9993 26.666C22.5266 26.666 21.3327 25.4721 21.3327 23.9993C21.3327 22.5266 22.5266 21.3327 23.9993 21.3327C25.4721 21.3327 26.666 22.5266 26.666 23.9993Z" fill="#2357C6"/>
<path fill-rule="evenodd" clip-rule="evenodd" d="M26.1526 2.94694C26.7339 3.39903 26.8386 4.23673 26.3865 4.818L7.71985 28.818C7.26776 29.3993 6.43005 29.504 5.84879 29.0519C5.26753 28.5998 5.16282 27.7621 5.61491 27.1808L24.2816 3.18082C24.7337 2.59956 25.5714 2.49485 26.1526 2.94694Z" fill="#2357C6"/>
</svg>
