<svg width="32" height="32" viewBox="0 0 32 32" fill="none" xmlns="http://www.w3.org/2000/svg">
<path d="M21 6C21 3.23858 18.7614 1 16 1C13.2386 1 11 3.23858 11 6V9C11 11.7614 13.2386 14 16 14C18.7614 14 21 11.7614 21 9V6Z" stroke="#2357C6" stroke-width="2" stroke-miterlimit="10" stroke-linecap="square"/>
<path d="M26.004 22.677C25.37 20.353 23.413 18.604 21.023 18.309C19.498 18.121 17.816 18 16.002 18C14.564 18 12.892 18.076 11.041 18.301C8.62995 18.595 6.63795 20.335 5.99895 22.679C5.33295 25.119 4.66795 27.56 4.00195 30C7.37695 30.567 11.425 31 16.002 31C19.425 31 23.488 30.758 28.002 30C27.336 27.559 26.67 25.118 26.005 22.676L26.004 22.677Z" stroke="#2357C6" stroke-width="2" stroke-miterlimit="10" stroke-linecap="square"/>
</svg>
