<svg width="32" height="32" viewBox="0 0 32 32" fill="none" xmlns="http://www.w3.org/2000/svg">
<path d="M23.1725 18.5196C29.6702 11.7018 28.8756 3.7551 28.808 3.18977C28.2409 3.12222 20.296 2.32755 13.4782 8.82533C9.34846 12.7613 7.95824 17.156 7.55469 18.6262L13.3716 24.4431C14.8418 24.0395 19.2365 22.6493 23.1725 18.5196Z" stroke="#2357C6" stroke-width="2" stroke-linecap="round" stroke-linejoin="round"/>
<path d="M19.9998 15.1128C21.718 15.1128 23.1109 13.72 23.1109 12.0017C23.1109 10.2835 21.718 8.89062 19.9998 8.89062C18.2816 8.89062 16.8887 10.2835 16.8887 12.0017C16.8887 13.72 18.2816 15.1128 19.9998 15.1128Z" fill="#2357C6"/>
<path d="M9.07204 27.0559C8.58315 28.1368 7.49338 28.8906 6.22938 28.8906H3.10938V25.7724C3.10938 24.5084 3.86138 23.4186 4.94404 22.9297" stroke="#2357C6" stroke-width="2" stroke-linecap="round" stroke-linejoin="round"/>
<path d="M23.0626 18.6328L23.4999 21.0808C23.8982 23.3084 22.9737 25.5661 21.1284 26.8728L16.4102 30.2168C16.4102 30.2168 17.5533 27.2284 16.9062 23.0968" stroke="#2357C6" stroke-width="2" stroke-linecap="round" stroke-linejoin="round"/>
<path d="M13.3613 8.93549L10.9187 8.49816C8.68757 8.09816 6.42623 9.02438 5.11601 10.875L1.77734 15.5879C1.77734 15.5879 4.76579 14.4448 8.89734 15.0919" stroke="#2357C6" stroke-width="2" stroke-linecap="round" stroke-linejoin="round"/>
</svg>
