<svg width="32" height="32" viewBox="0 0 32 32" fill="none" xmlns="http://www.w3.org/2000/svg">
<g clip-path="url(#clip0_583_42894)">
<path d="M5 19V30H27V19" stroke="#2357C6" stroke-width="2" stroke-miterlimit="10" stroke-linecap="square"/>
<path d="M30.9733 11C30.8503 12.1002 30.3261 13.1164 29.5009 13.8544C28.6757 14.5923 27.6074 15.0002 26.5003 15C25.8282 14.9896 25.1664 14.832 24.5617 14.5383C23.957 14.2446 23.4241 13.8219 23.0003 13.3C22.5826 13.8286 22.0508 14.256 21.4448 14.5503C20.8388 14.8447 20.1741 14.9984 19.5003 15C18.8278 14.9915 18.1655 14.8348 17.5605 14.5409C16.9555 14.2471 16.4228 13.8234 16.0003 13.3C15.5779 13.8234 15.0452 14.2471 14.4402 14.5409C13.8352 14.8348 13.1729 14.9915 12.5003 15C11.8266 14.9984 11.1619 14.8447 10.5559 14.5503C9.94988 14.256 9.41813 13.8286 9.00034 13.3C8.57342 13.8183 8.03978 14.2384 7.43578 14.5318C6.83179 14.8252 6.17164 14.9849 5.50034 15C4.3933 15.0002 3.32502 14.5923 2.4998 13.8544C1.67459 13.1164 1.15035 12.1002 1.02734 11L7.00034 2H25.0003L30.9733 11Z" stroke="#2357C6" stroke-width="2" stroke-miterlimit="10" stroke-linecap="square"/>
<path d="M13 30V22H19V30" stroke="#2357C6" stroke-width="2" stroke-miterlimit="10"/>
</g>
<defs>
<clipPath id="clip0_583_42894">
<rect width="32" height="32" fill="white"/>
</clipPath>
</defs>
</svg>
