<svg width="53" height="52" viewBox="0 0 53 52" fill="none" xmlns="http://www.w3.org/2000/svg">
<rect x="0.664062" width="52" height="52" rx="4" fill="#F2F7FC"/>
<path d="M25.2856 27.5133C29.0452 27.5133 32.093 24.4655 32.093 20.7059C32.093 16.9462 29.0452 13.8984 25.2856 13.8984C21.526 13.8984 18.4782 16.9462 18.4782 20.7059C18.4782 24.4655 21.526 27.5133 25.2856 27.5133Z" fill="#2357C6"/>
<path d="M26.4186 30.1606C26.4186 29.5343 25.9103 29.026 25.284 29.026C21.2162 29.026 17.4419 31.0531 15.1894 34.4493C14.8429 34.9712 14.9851 35.6761 15.507 36.0226C15.7007 36.1496 15.917 36.2116 16.1333 36.2116C16.5009 36.2116 16.861 36.0331 17.0803 35.7049C18.9108 32.9441 21.9771 31.2967 25.284 31.2967C25.9103 31.2967 26.4186 30.7884 26.4186 30.1621V30.1606Z" fill="#2357C6"/>
<path d="M39.6971 29.8883C39.3477 29.3482 38.7547 29.026 38.1102 29.026H29.9338C29.1865 29.026 28.5088 29.4677 28.2047 30.1485L25.6784 35.8334H21.8783C21.252 35.8334 20.7438 36.3417 20.7438 36.968C20.7438 37.5943 21.252 38.1026 21.8783 38.1026H35.7579C36.5052 38.1026 37.1829 37.6608 37.487 36.9801L39.8393 31.6869C40.1026 31.1 40.0496 30.4268 39.6986 29.8883H39.6971Z" fill="#2357C6"/>
</svg>
