<svg width="52" height="52" viewBox="0 0 52 52" fill="none" xmlns="http://www.w3.org/2000/svg">
<rect width="52" height="52" rx="4" fill="#F2F7FC"/>
<path d="M36.8 27.3263C36.1376 27.3263 35.6 26.7983 35.6 26.1477V21.6786C35.6 20.5959 34.7024 19.7143 33.6 19.7143H24.9824C24.6176 19.7143 24.2736 19.5509 24.0464 19.2727L23.0816 18.091C22.7008 17.6243 22.1312 17.3571 21.5216 17.3571H18.4C17.2976 17.3571 16.4 18.2387 16.4 19.3214V25.6071C16.4 26.2577 15.8624 26.7857 15.2 26.7857C14.5376 26.7857 14 26.2577 14 25.6071V19.3214C14 16.9391 15.9728 15 18.4 15H21.5216C22.8624 15 24.1136 15.5893 24.9536 16.617L25.5584 17.3571H33.6C36.0272 17.3571 38 19.2963 38 21.6786V26.1477C38 26.7983 37.4624 27.3263 36.8 27.3263Z" fill="#2357C6"/>
<path d="M33.6 21.2857H18.4C15.9699 21.2857 14 23.2205 14 25.6071L14 32.6786C14 35.0652 15.9699 37 18.4 37H33.6C36.0301 37 38 35.0652 38 32.6786V25.6071C38 23.2205 36.0301 21.2857 33.6 21.2857Z" fill="#2357C6"/>
</svg>
