<svg width="53" height="52" viewBox="0 0 53 52" fill="none" xmlns="http://www.w3.org/2000/svg">
<rect x="0.664062" width="52" height="52" rx="2" fill="#F2F7FC"/>
<path d="M15.7578 39.82V15.2543C15.7578 14.4399 16.0862 13.6589 16.6707 13.083C17.2553 12.5071 18.048 12.1836 18.8747 12.1836H34.4591C35.2858 12.1836 36.0785 12.5071 36.6631 13.083C37.2476 13.6589 37.576 14.4399 37.576 15.2543V39.82L32.9007 36.7493L29.7838 39.82L26.6669 36.7493L23.55 39.82L20.4331 36.7493L15.7578 39.82Z" fill="#2357C6"/>
<path fill-rule="evenodd" clip-rule="evenodd" d="M31.7687 18.6472C32.2151 19.0593 32.2429 19.7552 31.8309 20.2016L23.1036 29.6561C22.6915 30.1025 21.9956 30.1304 21.5492 29.7183C21.1028 29.3062 21.075 28.6103 21.487 28.1639L30.2143 18.7094C30.6264 18.263 31.3223 18.2351 31.7687 18.6472Z" fill="#F5FAFF"/>
<path fill-rule="evenodd" clip-rule="evenodd" d="M21.1953 20.9093C21.1953 19.9001 22.0134 19.082 23.0226 19.082C24.0318 19.082 24.8499 19.9001 24.8499 20.9093C24.8499 21.9185 24.0318 22.7366 23.0226 22.7366C22.0134 22.7366 21.1953 21.9185 21.1953 20.9093Z" fill="#F5FAFF"/>
<path fill-rule="evenodd" clip-rule="evenodd" d="M28.4688 28.1827C28.4688 27.1736 29.2868 26.3555 30.296 26.3555C31.3052 26.3555 32.1233 27.1736 32.1233 28.1827C32.1233 29.1919 31.3052 30.01 30.296 30.01C29.2868 30.01 28.4688 29.1919 28.4688 28.1827Z" fill="#F5FAFF"/>
</svg>
