<svg width="53" height="52" viewBox="0 0 53 52" fill="none" xmlns="http://www.w3.org/2000/svg">
<rect x="0.335938" width="52" height="52" rx="4" fill="#F2F7FC"/>
<g clip-path="url(#clip0_2034_50188)">
<path d="M26.0031 18.4992C26.1614 18.2617 26.5104 18.2617 26.6688 18.4992L31.4273 25.637C31.5574 25.8322 31.8268 25.874 32.01 25.7275L37.4785 21.3526C37.77 21.1194 38.1938 21.3773 38.1206 21.7434L35.7336 33.6784C35.6962 33.8654 35.532 34 35.3414 34H17.3305C17.1399 34 16.9757 33.8654 16.9383 33.6784L14.5513 21.7434C14.4781 21.3773 14.9019 21.1194 15.1934 21.3526L20.6619 25.7275C20.8451 25.874 21.1145 25.8322 21.2446 25.637L26.0031 18.4992Z" fill="#2357C6"/>
</g>
<defs>
<clipPath id="clip0_2034_50188">
<rect width="32" height="32" fill="white" transform="translate(10.3359 10)"/>
</clipPath>
</defs>
</svg>
