<svg width="53" height="52" viewBox="0 0 53 52" fill="none" xmlns="http://www.w3.org/2000/svg">
<rect x="0.335938" width="52" height="52" rx="4" fill="#F2F7FC"/>
<path d="M40.4661 26.4146V24.7527C40.4661 23.1488 39.1615 21.8442 37.5577 21.8442H30.0788C28.475 21.8442 27.1703 23.1488 27.1703 24.7527V26.4146C27.1703 26.644 27.2036 26.8634 27.2534 27.0761C26.228 27.5265 25.5084 28.5486 25.5084 29.7386V31.4006C25.5084 32.5905 26.228 33.6126 27.2534 34.063C27.2036 34.2758 27.1703 34.4968 27.1703 34.7245V36.3865C27.1703 37.9903 28.475 39.2949 30.0788 39.2949H37.5577C39.1615 39.2949 40.4661 37.9903 40.4661 36.3865V34.7245C40.4661 33.5345 39.7465 32.5124 38.7211 32.062C38.7709 31.8493 38.8042 31.6282 38.8042 31.4006V29.7386C38.8042 29.5092 38.7709 29.2898 38.7211 29.0771C39.7465 28.6267 40.4661 27.6046 40.4661 26.4146ZM29.6633 24.7527C29.6633 24.5233 29.8494 24.3372 30.0788 24.3372H37.5577C37.787 24.3372 37.9732 24.5233 37.9732 24.7527V26.4146C37.9732 26.644 37.787 26.8301 37.5577 26.8301H30.0788C29.8494 26.8301 29.6633 26.644 29.6633 26.4146V24.7527ZM37.9732 36.3865C37.9732 36.6158 37.787 36.802 37.5577 36.802H30.0788C29.8494 36.802 29.6633 36.6158 29.6633 36.3865V34.7245C29.6633 34.4952 29.8494 34.309 30.0788 34.309H37.5577C37.787 34.309 37.9732 34.4952 37.9732 34.7245V36.3865Z" fill="#2357C6"/>
<path d="M34.2321 12.7031H16.7814C14.2568 12.7031 12.2109 14.749 12.2109 17.2736V28.0764C12.2109 30.6009 14.2568 32.6468 16.7814 32.6468H22.5983C23.2863 32.6468 23.8448 32.0884 23.8448 31.4003C23.8448 30.7123 23.2863 30.1539 22.5983 30.1539H19.5635C19.0666 27.7157 17.142 25.7912 14.7039 25.2943V20.0574C17.142 19.5604 19.0666 17.6359 19.5635 15.1977H31.4483C32.03 18.0497 34.5645 20.1986 37.5876 20.1837C38.2607 20.1804 38.8025 19.6103 38.8025 18.9372V17.2752C38.8025 14.7507 36.7567 12.7048 34.2321 12.7048V12.7031Z" fill="#2357C6"/>
<path d="M24.6758 25.8444V24.7524C24.6758 22.2163 26.4391 20.0973 28.7991 19.5205C27.9665 18.6513 26.8014 18.1045 25.5067 18.1045C22.9855 18.1045 20.9363 20.1538 20.9363 22.675C20.9363 24.6045 22.1412 26.2499 23.8348 26.918C24.0741 26.5291 24.345 26.1618 24.6758 25.8444Z" fill="#2357C6"/>
</svg>
