<svg width="53" height="52" viewBox="0 0 53 52" fill="none" xmlns="http://www.w3.org/2000/svg">
<rect x="0.335938" width="52" height="52" rx="4" fill="#F2F7FC"/>
<path d="M24.4372 35.2448C24.4722 34.9028 24.4312 34.5574 24.3172 34.2327C24.2031 33.9081 24.0187 33.6121 23.7769 33.3655C23.5351 33.119 23.2418 32.9278 22.9176 32.8053C22.5933 32.6829 22.2459 32.6323 21.8997 32.6569C21.9626 32.2932 21.9387 31.92 21.8298 31.5672C21.7208 31.2143 21.53 30.8917 21.2725 30.625C21.0151 30.3584 20.6981 30.1552 20.3471 30.0317C19.9961 29.9082 19.6207 29.8678 19.2511 29.9139C19.2596 29.5916 19.2019 29.2709 19.0816 28.9713C18.9613 28.6717 18.7808 28.3995 18.5511 28.171C18.3267 27.9486 18.0602 27.7722 17.7669 27.6518C17.4736 27.5314 17.1593 27.4695 16.8418 27.4695C16.5243 27.4695 16.21 27.5314 15.9167 27.6518C15.6234 27.7722 15.3569 27.9486 15.1325 28.171L14.6442 28.6546C14.3025 28.9918 14.0707 29.4228 13.9787 29.8918C13.8866 30.3608 13.9386 30.8464 14.1279 31.2859C14.3172 31.7253 14.6352 32.0985 15.0407 32.3573C15.4462 32.616 15.9207 32.7485 16.403 32.7375C16.3569 33.1035 16.3979 33.4751 16.5227 33.8226C16.6475 34.1701 16.8527 34.4839 17.1218 34.7388C17.3909 34.9937 17.7165 35.1828 18.0726 35.2908C18.4286 35.3988 18.8053 35.4228 19.1724 35.3609C19.149 35.6905 19.1956 36.0212 19.3092 36.3318C19.4229 36.6424 19.601 36.926 19.8321 37.1642C20.0632 37.4024 20.3422 37.59 20.651 37.7149C20.9598 37.8397 21.2916 37.899 21.625 37.889C21.6267 38.4479 21.852 38.9833 22.2515 39.3779C22.6537 39.7762 23.1991 40 23.7679 40C24.3366 40 24.8821 39.7762 25.2842 39.3779L25.8092 38.8579C26.1017 38.5705 26.3039 38.2054 26.3916 37.8067C26.4793 37.408 26.4487 36.9927 26.3035 36.6108C26.1583 36.2289 25.9047 35.8967 25.5733 35.6544C25.2418 35.412 24.8467 35.2698 24.4355 35.2448H24.4372Z" fill="#2357C6"/>
<path d="M39.125 14H30.2875C28.7337 13.9976 27.224 14.5115 26 15.4595C24.776 14.5115 23.2663 13.9976 21.7125 14H12.875C12.6429 14 12.4204 14.0913 12.2563 14.2539C12.0922 14.4164 12 14.6368 12 14.8667V26.1334C12 26.3633 12.0922 26.5837 12.2563 26.7463C12.4204 26.9088 12.6429 27.0001 12.875 27.0001C13.1071 27.0001 13.3296 26.9088 13.4937 26.7463C13.6578 26.5837 13.75 26.3633 13.75 26.1334V15.7334H21.7125C22.781 15.7318 23.8241 16.0555 24.7006 16.6607L19.8837 21.4326C19.4975 21.8124 19.2681 22.3212 19.2403 22.8595C19.2125 23.3979 19.3883 23.9272 19.7334 24.344C20.0784 24.7609 20.568 25.0353 21.1065 25.1138C21.6449 25.1923 22.1936 25.0691 22.6452 24.7684L28.863 20.663L36.9742 28.6962C37.0941 28.8149 37.1892 28.9558 37.254 29.1109C37.3189 29.266 37.3523 29.4322 37.3523 29.6001C37.3523 29.768 37.3189 29.9342 37.254 30.0893C37.1892 30.2444 37.0941 30.3854 36.9742 30.5041C36.7285 30.7364 36.4018 30.866 36.0621 30.866C35.7223 30.866 35.3956 30.7364 35.1499 30.5041L32.7436 28.1207C32.5786 27.9628 32.3576 27.8755 32.1281 27.8775C31.8987 27.8794 31.6793 27.9706 31.517 28.1313C31.3548 28.292 31.2628 28.5093 31.2608 28.7366C31.2588 28.9638 31.347 29.1827 31.5064 29.3462L34.1532 31.9679C34.3953 32.2076 34.5313 32.5328 34.5313 32.8718C34.5313 33.2109 34.3953 33.536 34.1532 33.7758C33.9112 34.0155 33.5829 34.1502 33.2406 34.1502C32.8983 34.1502 32.57 34.0155 32.328 33.7758L29.6811 31.1541C29.5161 30.9962 29.2951 30.9088 29.0656 30.9108C28.8362 30.9128 28.6168 31.0039 28.4545 31.1646C28.2923 31.3253 28.2003 31.5427 28.1983 31.7699C28.1963 31.9972 28.2845 32.2161 28.4439 32.3795L30.4117 34.3296C30.5922 34.5083 30.7151 34.736 30.7649 34.9839C30.8148 35.2318 30.7893 35.4888 30.6917 35.7223C30.5941 35.9559 30.4288 36.1555 30.2167 36.2961C30.0046 36.4366 29.7552 36.5117 29.5 36.5118C29.2679 36.5118 29.0454 36.6032 28.8813 36.7657C28.7172 36.9282 28.625 37.1487 28.625 37.3785C28.625 37.6084 28.7172 37.8288 28.8813 37.9913C29.0454 38.1539 29.2679 38.2452 29.5 38.2452C30.2113 38.2465 30.9003 37.9998 31.4464 37.5484C31.9924 37.0969 32.3606 36.4694 32.4864 35.776C32.7324 35.8422 32.9857 35.8778 33.2406 35.8818C33.6399 35.8821 34.0353 35.8045 34.4042 35.6534C34.7732 35.5023 35.1084 35.2806 35.3908 35.001C35.6732 34.7215 35.8972 34.3896 36.05 34.0242C36.2028 33.6589 36.2814 33.2673 36.2812 32.8718C36.2812 32.7773 36.2629 32.6863 36.2541 32.5936C36.9924 32.5525 37.6896 32.2441 38.2132 31.7269C38.7825 31.1617 39.1022 30.3959 39.1022 29.5975C39.1022 28.7991 38.7825 28.0333 38.2132 27.4681L38.2019 27.4568L39.7541 25.8734C39.9129 25.7108 40.0011 25.493 40 25.2668V14.8667C40 14.6368 39.9078 14.4164 39.7437 14.2539C39.5796 14.0913 39.3571 14 39.125 14Z" fill="#2357C6"/>
</svg>
