<svg width="53" height="52" viewBox="0 0 53 52" fill="none" xmlns="http://www.w3.org/2000/svg">
<rect x="0.664062" width="52" height="52" rx="4" fill="#F2F7FC"/>
<path d="M17.8197 38.3333C17.8197 38.8856 17.372 39.3333 16.8197 39.3333H14.3281C13.7758 39.3333 13.3281 38.8856 13.3281 38.3333V19C13.3281 18.4477 13.7758 18 14.3281 18H14.451C18.7921 18 22.3112 21.5189 22.3112 25.8596V26.5874C22.3112 26.7243 22.3393 26.8598 22.3938 26.9853L23.9024 30.4632C24.1483 31.0324 23.8866 31.6938 23.3173 31.9397C23.2881 31.952 23.259 31.9632 23.2286 31.9733L22.9912 32.0535C22.5848 32.1908 22.3112 32.572 22.3112 33.0009V33.7193C22.3112 35.5798 20.8032 37.0877 18.9426 37.0877H18.8197C18.2674 37.0877 17.8197 37.5354 17.8197 38.0877V38.3333Z" fill="#2357C6"/>
<path d="M35.5027 38.3338C35.503 38.8859 35.9506 39.3333 36.5027 39.3333H38.9948C39.5471 39.3333 39.9948 38.8856 39.9948 38.3333V19C39.9948 18.4477 39.5471 18 38.9948 18H38.8719C34.5308 18 31.0117 21.5189 31.0117 25.8596V26.5874C31.0117 26.7243 30.9836 26.8598 30.9291 26.9853L29.4206 30.4632C29.1746 31.0324 29.4363 31.6938 30.0056 31.9397C30.0348 31.952 30.064 31.9632 30.0943 31.9733L30.3278 32.0515C30.7356 32.1879 31.0106 32.5698 31.0106 32.9998V33.7193C31.0106 35.5798 32.5186 37.0877 34.3792 37.0877H34.5026C35.0547 37.0877 35.5023 37.5351 35.5026 38.0872L35.5027 38.3338Z" fill="#2357C6"/>
<path d="M33.483 18.0013C33.159 18.0013 32.8362 17.8716 32.6049 17.6178C29.6021 14.3349 24.4076 14.0323 21.0256 16.9385C20.9024 17.0455 20.7779 17.1581 20.6594 17.273C20.198 17.7168 19.4549 17.7145 18.9983 17.2696C18.5405 16.8247 18.5428 16.1044 19.0018 15.6606C19.1533 15.515 19.3094 15.3739 19.4667 15.2362C23.8218 11.497 30.5025 11.8861 34.3611 16.1078C34.7907 16.5778 34.7461 17.2969 34.2613 17.7145C34.0383 17.9057 33.76 18.0013 33.483 18.0013Z" fill="#2357C6"/>
<path d="M29.6312 20.6668C29.3473 20.6668 29.0635 20.5294 28.8606 20.2608C27.7538 18.7908 25.8241 18.6403 24.5575 19.9348C24.5073 19.9861 24.455 20.0434 24.4058 20.1019C24.0051 20.5689 23.3575 20.5689 22.9568 20.1019C22.5561 19.635 22.5561 18.8803 22.9568 18.4134C23.0367 18.3203 23.1187 18.2295 23.2037 18.1424C25.3199 15.9798 28.548 16.2258 30.4018 18.6857C30.7749 19.1813 30.7329 19.936 30.3076 20.3706C30.1129 20.57 29.871 20.6668 29.6312 20.6668Z" fill="#2357C6"/>
</svg>
