<svg width="53" height="52" viewBox="0 0 53 52" fill="none" xmlns="http://www.w3.org/2000/svg">
<rect x="0.664062" width="52" height="52" rx="4" fill="#F2F7FC"/>
<g clip-path="url(#clip0_2076_51997)">
<path d="M34.219 10.8867C29.563 10.8867 25.7746 14.6752 25.7746 19.3312C25.7746 20.8067 26.1675 22.2645 26.8679 23.4663C26.9692 23.7934 26.699 24.9649 26.1639 25.5001C25.7924 25.8716 25.6732 26.4281 25.8617 26.9187C26.0484 27.4112 26.5088 27.7454 27.035 27.7738C27.1221 27.7774 27.2128 27.7809 27.3017 27.7809C28.4181 27.7809 29.7195 27.4307 30.6759 26.9934C31.307 27.2885 31.9719 27.5018 32.6564 27.6316C33.1701 27.7276 33.6946 27.7774 34.2155 27.7774C38.8715 27.7774 42.6599 23.9889 42.6599 19.3329C42.6599 14.6769 38.875 10.8867 34.219 10.8867Z" fill="#2357C6"/>
<path d="M18.7639 30.4418C21.4639 30.4418 23.6528 28.253 23.6528 25.553C23.6528 22.8529 21.4639 20.6641 18.7639 20.6641C16.0638 20.6641 13.875 22.8529 13.875 25.553C13.875 28.253 16.0638 30.4418 18.7639 30.4418Z" fill="#2357C6"/>
<path d="M11.9982 39.7743H25.5129C25.9395 39.7743 26.3431 39.5699 26.592 39.2232C26.8409 38.8765 26.9137 38.4321 26.7786 38.025C25.6373 34.5512 22.4142 32.2188 18.7537 32.2188C15.0933 32.2188 11.8737 34.5512 10.7306 38.025C10.5973 38.4321 10.6666 38.8765 10.9173 39.2232C11.168 39.5699 11.5715 39.7743 11.9982 39.7743Z" fill="#2357C6"/>
</g>
<defs>
<clipPath id="clip0_2076_51997">
<rect width="32" height="32" fill="white" transform="translate(10.6641 10)"/>
</clipPath>
</defs>
</svg>
