<svg width="53" height="52" viewBox="0 0 53 52" fill="none" xmlns="http://www.w3.org/2000/svg">
<rect x="0.335938" width="52" height="52" rx="4" fill="#F2F7FC"/>
<path d="M18.7627 14.4289L17.0809 13.8689L16.5191 12.1853C16.3378 11.6413 15.4365 11.6413 15.2551 12.1853L14.6934 13.8689L13.0116 14.4289C12.7396 14.5196 12.5547 14.7738 12.5547 15.0618C12.5547 15.3498 12.7396 15.604 13.0116 15.6947L14.6934 16.2547L15.2551 17.9382C15.3458 18.2102 15.6 18.3933 15.8862 18.3933C16.1725 18.3933 16.4285 18.2085 16.5174 17.9382L17.0791 16.2547L18.7609 15.6947C19.0329 15.604 19.2178 15.3498 19.2178 15.0618C19.2178 14.7738 19.0347 14.5196 18.7627 14.4289Z" fill="#2357C6"/>
<path d="M26.3328 34.8265C26.3328 33.2923 27.3106 31.9376 28.7666 31.4541L29.7444 31.127L30.0715 30.1474C30.5462 28.7287 31.9008 27.7794 33.4439 27.7794C34.0822 27.7794 34.6688 27.975 35.1933 28.2647L40.1515 23.4327C40.5159 23.079 40.6457 22.5474 40.4893 22.0656C40.3328 21.5838 39.915 21.2318 39.4137 21.159L31.2004 19.9661L27.5275 12.5225C27.0795 11.6123 25.5844 11.6123 25.1364 12.5225L21.4635 19.9643L13.2502 21.1572C12.7488 21.2301 12.331 21.5821 12.1746 22.0638C12.0182 22.5456 12.1479 23.0772 12.5124 23.431L18.4555 29.223L17.051 37.4025C16.9657 37.9038 17.1702 38.4087 17.5808 38.7074C17.9933 39.0043 18.5355 39.0452 18.9853 38.8087L26.331 34.9456L26.3524 34.9563C26.3524 34.9118 26.331 34.871 26.331 34.8265H26.3328Z" fill="#2357C6"/>
<path d="M37.2827 33.9831L35.0373 33.2346L34.2889 30.9893C34.0453 30.264 32.8453 30.264 32.6018 30.9893L31.8533 33.2346L29.608 33.9831C29.2453 34.104 29 34.4435 29 34.8258C29 35.208 29.2453 35.5475 29.608 35.6684L31.8533 36.4169L32.6018 38.6622C32.7227 39.0249 33.064 39.2702 33.4462 39.2702C33.8284 39.2702 34.168 39.0249 34.2907 38.6622L35.0391 36.4169L37.2844 35.6684C37.6471 35.5475 37.8924 35.208 37.8924 34.8258C37.8924 34.4435 37.6471 34.104 37.2844 33.9831H37.2827Z" fill="#2357C6"/>
<path d="M35.6615 17.112C36.3978 17.112 36.9948 16.515 36.9948 15.7786C36.9948 15.0423 36.3978 14.4453 35.6615 14.4453C34.9251 14.4453 34.3281 15.0423 34.3281 15.7786C34.3281 16.515 34.9251 17.112 35.6615 17.112Z" fill="#2357C6"/>
</svg>
