<svg width="52" height="52" viewBox="0 0 52 52" fill="none" xmlns="http://www.w3.org/2000/svg">
<rect width="52" height="52" rx="4" fill="#F2F7FC"/>
<g clip-path="url(#clip0_2034_50143)">
<path d="M29.5564 34.8867H22.4453V41.1089C22.4453 41.4681 22.6622 41.7934 22.9946 41.9303C23.3271 42.0707 23.7075 41.9925 23.9635 41.7383L26.0009 39.7009L28.0382 41.7383C28.2089 41.9089 28.4364 41.9978 28.6675 41.9978C28.7813 41.9978 28.8986 41.9765 29.0071 41.9303C29.3395 41.7934 29.5564 41.4681 29.5564 41.1089V34.8867Z" fill="#2357C6"/>
<path d="M38.4329 31.7752H38.4436V13.9974C38.4436 13.2614 37.8462 12.6641 37.1102 12.6641H18.4436C15.7467 12.6641 13.5547 14.8561 13.5547 17.553V34.8863C13.5547 37.3361 15.5494 39.3307 17.9991 39.3307H19.3325C20.0685 39.3307 20.6658 38.7334 20.6658 37.9974C20.6658 37.2614 20.0685 36.6641 19.3325 36.6641H17.9991C17.0196 36.6641 16.2214 35.8658 16.2214 34.8863C16.2214 33.9067 17.0196 33.1085 17.9991 33.1085H35.0765C34.8009 34.2267 34.7671 35.489 35.0516 36.6641H32.6658C31.9298 36.6641 31.3325 37.2614 31.3325 37.9974C31.3325 38.7334 31.9298 39.3307 32.6658 39.3307H37.1102C37.6187 39.3307 38.0827 39.041 38.3067 38.5858C38.5307 38.1307 38.4774 37.5867 38.1662 37.1832C37.2365 35.9761 37.3947 33.6045 38.1716 32.5805C38.3511 32.3441 38.4311 32.0596 38.4311 31.7734L38.4329 31.7752ZM20.2214 28.6641C19.4854 28.6641 18.888 28.0667 18.888 27.3307C18.888 26.5947 19.4854 25.9974 20.2214 25.9974C20.9574 25.9974 21.5547 26.5947 21.5547 27.3307C21.5547 28.0667 20.9574 28.6641 20.2214 28.6641ZM20.2214 24.2196C19.4854 24.2196 18.888 23.6223 18.888 22.8863C18.888 22.1503 19.4854 21.553 20.2214 21.553C20.9574 21.553 21.5547 22.1503 21.5547 22.8863C21.5547 23.6223 20.9574 24.2196 20.2214 24.2196ZM20.2214 19.7752C19.4854 19.7752 18.888 19.1778 18.888 18.4418C18.888 17.7058 19.4854 17.1085 20.2214 17.1085C20.9574 17.1085 21.5547 17.7058 21.5547 18.4418C21.5547 19.1778 20.9574 19.7752 20.2214 19.7752Z" fill="#2357C6"/>
</g>
<defs>
<clipPath id="clip0_2034_50143">
<rect width="32" height="32" fill="white" transform="translate(10 10)"/>
</clipPath>
</defs>
</svg>
