<svg width="52" height="52" viewBox="0 0 52 52" fill="none" xmlns="http://www.w3.org/2000/svg">
<rect width="52" height="52" rx="4" fill="#F2F7FC"/>
<path d="M34.8 23.8334H17.2C15.9845 23.8334 15 24.803 15 26.0001V36.8333C15 38.0304 15.9845 39 17.2 39H34.8C36.0155 39 37 38.0304 37 36.8333V26.0001C37 24.803 36.0155 23.8334 34.8 23.8334ZM26 33.5834C24.7845 33.5834 23.8 32.6138 23.8 31.4167C23.8 30.2196 24.7845 29.25 26 29.25C27.2155 29.25 28.2 30.2196 28.2 31.4167C28.2 32.6138 27.2155 33.5834 26 33.5834Z" fill="#2357C6"/>
<path d="M32.5996 21.6666H30.3996V19.5C30.4249 17.134 28.4999 15.1948 26.0975 15.1667H26.0513C23.6346 15.1255 21.6414 17.0202 21.5996 19.4003V21.6666H19.3996V19.3916C19.4359 15.8557 22.3531 13.0065 25.9435 13H26.0106C29.6428 12.9935 32.593 15.8882 32.5996 19.4653C32.5996 19.4805 32.5996 19.4956 32.5996 19.5108V21.6666Z" fill="#2357C6"/>
</svg>
