<svg width="53" height="52" viewBox="0 0 53 52" fill="none" xmlns="http://www.w3.org/2000/svg">
<rect x="0.664062" width="52" height="52" rx="2" fill="#F2F7FC"/>
<path d="M40.8819 20.2248C40.8819 17.5279 38.6899 15.3359 35.9931 15.3359H17.3264C14.6295 15.3359 12.4375 17.5279 12.4375 20.2248V21.5582H40.8819V20.2248Z" fill="#2357C6"/>
<path d="M12.4375 31.7821C12.4375 34.479 14.6295 36.671 17.3264 36.671H35.9931C38.6899 36.671 40.8819 34.479 40.8819 31.7821V24.2266H12.4375V31.7821ZM33.3264 28.671H35.1042C35.8402 28.671 36.4375 29.2683 36.4375 30.0043C36.4375 30.7403 35.8402 31.3377 35.1042 31.3377H33.3264C32.5904 31.3377 31.9931 30.7403 31.9931 30.0043C31.9931 29.2683 32.5904 28.671 33.3264 28.671ZM18.2153 28.671H23.5486C24.2846 28.671 24.8819 29.2683 24.8819 30.0043C24.8819 30.7403 24.2846 31.3377 23.5486 31.3377H18.2153C17.4793 31.3377 16.8819 30.7403 16.8819 30.0043C16.8819 29.2683 17.4793 28.671 18.2153 28.671Z" fill="#2357C6"/>
</svg>
