<svg width="160" height="47" viewBox="0 0 160 47" fill="none" xmlns="http://www.w3.org/2000/svg">
<path d="M60.6704 45.0958H55.6562V21.7773H60.6704V45.0958Z" fill="#001E5F"/>
<path d="M98.9041 35.2468C98.9041 37.194 98.4335 38.6328 97.4923 39.5632C96.562 40.5044 95.3125 40.975 93.7438 40.975C92.186 40.975 90.942 40.5044 90.0116 39.5632C89.0704 38.6328 88.5998 37.194 88.5998 35.2468V22.2812H83.6992V35.2468C83.6992 36.9452 83.9426 38.4435 84.4294 39.7417C84.9054 41.029 85.5816 42.1055 86.4578 42.9709C87.3341 43.8364 88.3943 44.48 89.6384 44.9019C90.8716 45.3238 92.2401 45.5348 93.7438 45.5348C95.2584 45.5348 96.6323 45.3184 97.8655 44.8857C99.0988 44.4422 100.159 43.7877 101.046 42.9222C101.922 42.0568 102.598 40.9858 103.074 39.7092C103.561 38.4327 103.805 36.9452 103.805 35.2468V22.2812H98.9041V35.2468Z" fill="#001E5F"/>
<path d="M122.322 35.2468C122.322 37.194 121.851 38.6328 120.91 39.5632C119.98 40.5044 118.73 40.975 117.162 40.975C115.604 40.975 114.36 40.5044 113.43 39.5632C112.488 38.6328 112.018 37.194 112.018 35.2468V22.2812H107.117V35.2468C107.117 36.9452 107.361 38.4435 107.847 39.7417C108.323 41.029 109 42.1055 109.876 42.9709C110.763 43.8364 111.823 44.48 113.056 44.9019C114.29 45.3238 115.658 45.5348 117.162 45.5348C118.676 45.5348 120.05 45.3184 121.284 44.8857C122.517 44.4422 123.577 43.7877 124.464 42.9222C125.34 42.0568 126.016 40.9858 126.492 39.7092C126.979 38.4327 127.223 36.9452 127.223 35.2468V22.2812H122.322V35.2468Z" fill="#001E5F"/>
<path d="M135.432 32.5855C135.432 30.6382 135.902 29.194 136.844 28.2529C137.774 27.3225 139.023 26.8573 140.592 26.8573C142.15 26.8573 143.399 27.3225 144.341 28.2529C145.271 29.194 145.736 30.6382 145.736 32.5855V45.5348H150.637V32.5855C150.637 30.8762 150.393 29.3779 149.906 28.0906C149.43 26.8032 148.754 25.7268 147.878 24.8614C147.002 23.9959 145.942 23.3522 144.698 22.9303C143.464 22.4976 142.096 22.2812 140.592 22.2812C139.078 22.2812 137.704 22.503 136.47 22.9466C135.237 23.3901 134.177 24.0446 133.29 24.9101C132.414 25.7647 131.737 26.8303 131.261 28.1068C130.775 29.3833 130.531 30.8762 130.531 32.5855V45.5348H135.432V32.5855Z" fill="#001E5F"/>
<path d="M51.3419 21.7918C45.5163 22.3435 40.9889 26.8384 40.6644 32.6964C40.4859 36.1528 40.5995 39.6254 40.6319 43.0981V45.094H40.8104C42.2222 45.094 43.6015 45.094 45.062 45.094C45.3216 45.094 45.5866 45.094 45.8571 45.094C45.8571 44.4774 45.8571 43.9419 45.8571 43.4064C45.8571 40.0798 45.8409 36.7695 45.8733 33.4429C45.9058 30.1325 48.0964 27.6336 51.3743 27.0656C51.6502 27.0169 51.9261 26.9358 52.2019 26.8709C52.2019 25.1346 52.2019 23.4956 52.2019 21.7918C51.8287 21.7918 51.5853 21.7593 51.3419 21.7918Z" fill="#001E5F"/>
<path d="M80.1272 36.1868C79.3321 33.347 77.044 31.3835 74.1556 30.9941L72.971 30.913C72.4031 30.913 71.7053 30.913 71.0075 30.8967C70.0177 30.8805 69.1576 30.1016 69.044 29.1117C68.9305 28.0083 69.5309 27.0671 70.5207 26.8075C70.8128 26.7263 71.1536 26.7101 71.4943 26.7101C72.614 26.6939 73.7662 26.6939 74.8696 26.6939L78.1962 26.7101V26.6939H78.3747V21.6797H74.1231C73.0846 21.6797 72.0298 21.6797 70.9751 21.6959C68.7844 21.7284 66.756 22.7507 65.4254 24.5357C64.0785 26.3044 63.6566 28.56 64.2408 30.6858C65.0359 33.5418 67.324 35.489 70.2124 35.8785L70.7641 35.9109L71.397 35.9596C71.9649 35.9596 72.6627 35.9596 73.3605 35.9758C74.3503 35.9921 75.2104 36.771 75.324 37.7608C75.4376 38.8643 74.8371 39.8055 73.8473 40.0813C73.5552 40.1462 73.2144 40.1624 72.8737 40.1624C72.5924 40.1733 72.3111 40.1787 72.0298 40.1787H66.1718V45.0793V45.1929H68.5735C68.8547 45.1929 69.136 45.1929 69.4173 45.1929C70.0231 45.1929 70.6397 45.1929 71.2672 45.1929C71.6566 45.1929 72.0515 45.1929 72.4517 45.1929H72.9061C73.0684 45.1821 73.2307 45.1766 73.3929 45.1766C75.5836 45.1604 77.612 44.1219 78.9426 42.3531C80.2895 40.5681 80.7114 38.3126 80.1272 36.1868Z" fill="#001E5F"/>
<path fill-rule="evenodd" clip-rule="evenodd" d="M84.8529 13.6633C84.9179 13.7444 84.8205 13.8418 84.7394 13.7769C83.6359 12.9168 82.7596 12.3164 81.997 11.9432C81.072 13.2576 80.7475 15.3347 80.3905 18.8398C80.0335 15.3834 79.7089 13.3063 78.8002 11.9919C78.0537 12.3813 77.2099 13.0142 76.1389 13.8905C76.0578 13.9554 75.9442 13.858 76.0091 13.7607C76.8692 12.6572 77.4858 11.7972 77.859 11.0345C77.2748 10.6126 76.5284 10.3205 75.571 10.0933H65.8022C65.4615 14.0041 62.1673 17.0872 58.1755 17.0872C53.9402 17.0872 50.5 13.6471 50.5 9.41176C50.5 5.1927 53.9402 1.75254 58.1755 1.75254C62.1673 1.75254 65.4615 4.8357 65.8022 8.74645H75.571C76.4959 8.51927 77.2262 8.22718 77.7941 7.83773C77.4209 7.09128 76.788 6.24746 75.9118 5.17647C75.8469 5.09533 75.9442 4.98175 76.0254 5.04665C77.145 5.90669 78.0051 6.52333 78.7678 6.88032C79.6927 5.58215 80.0335 3.48884 80.3905 0C80.7312 3.44016 81.0558 5.51724 81.9645 6.83164C82.7109 6.44219 83.5548 5.82556 84.6258 4.94929C84.7069 4.86815 84.8205 4.98175 84.7556 5.06288C83.8955 6.16633 83.2789 7.0426 82.9219 7.80527C84.2201 8.73022 86.3134 9.05477 89.8022 9.41176C86.3621 9.76876 84.285 10.0933 82.9706 10.9858C83.3438 11.7485 83.9767 12.5923 84.8529 13.6633ZM61.356 9.41176C61.356 7.65923 59.928 6.21501 58.1755 6.21501C56.4067 6.21501 54.9787 7.65923 54.9787 9.41176C54.9787 11.1805 56.4067 12.6085 58.1755 12.6085C59.928 12.6085 61.356 11.1805 61.356 9.41176Z" fill="#69B3E7"/>
<path fill-rule="evenodd" clip-rule="evenodd" d="M37.3063 27.9113C37.3063 38.1993 28.9493 46.5563 18.645 46.5563C8.357 46.5563 0 38.1993 0 27.9113C0 17.607 8.357 9.25 18.645 9.25C28.9493 9.25 37.3063 17.607 37.3063 27.9113ZM27.9107 27.9113C27.9107 22.7997 23.7566 18.6455 18.645 18.6455C13.5335 18.6455 9.39554 22.7997 9.39554 27.9113C9.39554 33.0228 13.5335 37.1608 18.645 37.1608C23.7566 37.1608 27.9107 33.0228 27.9107 27.9113Z" fill="#69B3E7"/>
<path d="M156.301 22.9435H155.457V25.6535H154.743V22.9435H153.883V22.3594H156.301V22.9435ZM159.319 23.3979L158.556 25.6697H158.183L157.42 23.3979V25.6697H156.755V22.3756H157.583L158.378 24.6961L159.189 22.3756H160V25.6697H159.319V23.3979Z" fill="#69B3E7"/>
</svg>
