<svg width="160" height="48" viewBox="0 0 160 48" fill="none" xmlns="http://www.w3.org/2000/svg">
<path d="M60.6704 45.8185H55.6562V22.5H60.6704V45.8185Z" fill="white"/>
<path d="M98.9002 35.9694C98.9002 37.9167 98.4296 39.3555 97.4884 40.2859C96.5581 41.227 95.3086 41.6976 93.7399 41.6976C92.1821 41.6976 90.938 41.227 90.0077 40.2859C89.0665 39.3555 88.5959 37.9167 88.5959 35.9694V23.0039H83.6953V35.9694C83.6953 37.6679 83.9387 39.1662 84.4255 40.4643C84.9015 41.7517 85.5777 42.8281 86.4539 43.6936C87.3302 44.559 88.3904 45.2027 89.6345 45.6246C90.8677 46.0465 92.2362 46.2575 93.7399 46.2575C95.2545 46.2575 96.6284 46.0411 97.8616 45.6084C99.0949 45.1648 100.155 44.5103 101.042 43.6449C101.918 42.7794 102.595 41.7084 103.071 40.4319C103.557 39.1554 103.801 37.6679 103.801 35.9694V23.0039H98.9002V35.9694Z" fill="white"/>
<path d="M122.314 35.9694C122.314 37.9167 121.844 39.3555 120.902 40.2859C119.972 41.227 118.723 41.6976 117.154 41.6976C115.596 41.6976 114.352 41.227 113.422 40.2859C112.481 39.3555 112.01 37.9167 112.01 35.9694V23.0039H107.109V35.9694C107.109 37.6679 107.353 39.1662 107.84 40.4643C108.316 41.7517 108.992 42.8281 109.868 43.6936C110.755 44.559 111.815 45.2027 113.049 45.6246C114.282 46.0465 115.65 46.2575 117.154 46.2575C118.669 46.2575 120.042 46.0411 121.276 45.6084C122.509 45.1648 123.569 44.5103 124.456 43.6449C125.333 42.7794 126.009 41.7084 126.485 40.4319C126.971 39.1554 127.215 37.6679 127.215 35.9694V23.0039H122.314V35.9694Z" fill="white"/>
<path d="M135.432 33.3082C135.432 31.3609 135.902 29.9167 136.844 28.9755C137.774 28.0451 139.023 27.58 140.592 27.58C142.15 27.58 143.399 28.0451 144.341 28.9755C145.271 29.9167 145.736 31.3609 145.736 33.3082V46.2575H150.637V33.3082C150.637 31.5989 150.393 30.1006 149.906 28.8132C149.43 27.5259 148.754 26.4495 147.878 25.584C147.002 24.7186 145.942 24.0749 144.698 23.653C143.464 23.2203 142.096 23.0039 140.592 23.0039C139.078 23.0039 137.704 23.2257 136.47 23.6692C135.237 24.1128 134.177 24.7673 133.29 25.6327C132.414 26.4873 131.737 27.5529 131.261 28.8295C130.775 30.106 130.531 31.5989 130.531 33.3082V46.2575H135.432V33.3082Z" fill="white"/>
<path d="M51.338 22.5144C45.5124 23.0661 40.985 27.5611 40.6605 33.4191C40.482 36.8755 40.5956 40.3481 40.628 43.8207V45.8166H40.8065C42.2183 45.8166 43.5976 45.8166 45.0581 45.8166C45.3177 45.8166 45.5827 45.8166 45.8532 45.8166C45.8532 45.2 45.8532 44.6645 45.8532 44.129C45.8532 40.8025 45.837 37.4921 45.8694 34.1655C45.9019 30.8552 48.0925 28.3562 51.3704 27.7883C51.6463 27.7396 51.9222 27.6584 52.198 27.5935C52.198 25.8572 52.198 24.2183 52.198 22.5144C51.8248 22.5144 51.5814 22.482 51.338 22.5144Z" fill="white"/>
<path d="M80.1272 36.9094C79.3321 34.0697 77.044 32.1062 74.1556 31.7167L72.971 31.6356C72.4031 31.6356 71.7053 31.6356 71.0075 31.6194C70.0177 31.6032 69.1576 30.8242 69.044 29.8344C68.9305 28.7309 69.5309 27.7898 70.5207 27.5301C70.8128 27.449 71.1536 27.4328 71.4943 27.4328C72.614 27.4165 73.7662 27.4165 74.8696 27.4165L78.1962 27.4328V27.4165H78.3747V22.4023H74.1231C73.0846 22.4023 72.0298 22.4023 70.9751 22.4186C68.7844 22.451 66.756 23.4733 65.4254 25.2583C64.0785 27.0271 63.6566 29.2827 64.2408 31.4084C65.0359 34.2644 67.324 36.2117 70.2124 36.6011L70.7641 36.6336L71.397 36.6823C71.9649 36.6823 72.6627 36.6823 73.3605 36.6985C74.3503 36.7147 75.2104 37.4936 75.324 38.4835C75.4376 39.5869 74.8371 40.5281 73.8473 40.804C73.5552 40.8689 73.2144 40.8851 72.8737 40.8851C72.5924 40.8959 72.3111 40.9013 72.0298 40.9013H66.1718V45.8019V45.9155H68.5735C68.8547 45.9155 69.136 45.9155 69.4173 45.9155C70.0231 45.9155 70.6397 45.9155 71.2672 45.9155C71.6566 45.9155 72.0515 45.9155 72.4517 45.9155H72.9061C73.0684 45.9047 73.2307 45.8993 73.3929 45.8993C75.5836 45.8831 77.612 44.8445 78.9426 43.0758C80.2895 41.2908 80.7114 39.0352 80.1272 36.9094Z" fill="white"/>
<path fill-rule="evenodd" clip-rule="evenodd" d="M84.8529 14.3859C84.9179 14.4671 84.8205 14.5644 84.7394 14.4995C83.6359 13.6395 82.7596 13.0391 81.997 12.6659C81.072 13.9803 80.7475 16.0573 80.3905 19.5624C80.0335 16.106 79.7089 14.0289 78.8002 12.7145C78.0537 13.104 77.2099 13.7369 76.1389 14.6131C76.0578 14.678 75.9442 14.5807 76.0091 14.4833C76.8692 13.3799 77.4858 12.5198 77.859 11.7571C77.2748 11.3352 76.5284 11.0431 75.571 10.816H65.8022C65.4615 14.7267 62.1673 17.8099 58.1755 17.8099C53.9402 17.8099 50.5 14.3697 50.5 10.1344C50.5 5.91535 53.9402 2.47519 58.1755 2.47519C62.1673 2.47519 65.4615 5.55835 65.8022 9.4691H75.571C76.4959 9.24192 77.2262 8.94984 77.7941 8.56039C77.4209 7.81394 76.788 6.97012 75.9118 5.89913C75.8469 5.81799 75.9442 5.7044 76.0254 5.76931C77.145 6.62935 78.0051 7.24598 78.7678 7.60298C79.6927 6.30481 80.0335 4.2115 80.3905 0.722656C80.7312 4.16282 81.0558 6.2399 81.9645 7.5543C82.7109 7.16485 83.5548 6.54821 84.6258 5.67195C84.7069 5.59081 84.8205 5.7044 84.7556 5.78554C83.8955 6.88899 83.2789 7.76525 82.9219 8.52793C84.2201 9.45288 86.3134 9.77742 89.8022 10.1344C86.3621 10.4914 84.285 10.816 82.9706 11.7085C83.3438 12.4711 83.9767 13.3149 84.8529 14.3859ZM61.356 10.1344C61.356 8.38189 59.928 6.93767 58.1755 6.93767C56.4067 6.93767 54.9787 8.38189 54.9787 10.1344C54.9787 11.9032 56.4067 13.3312 58.1755 13.3312C59.928 13.3312 61.356 11.9032 61.356 10.1344Z" fill="white"/>
<path fill-rule="evenodd" clip-rule="evenodd" d="M37.3063 28.6339C37.3063 38.9219 28.9493 47.2789 18.645 47.2789C8.357 47.2789 0 38.9219 0 28.6339C0 18.3297 8.357 9.97266 18.645 9.97266C28.9493 9.97266 37.3063 18.3297 37.3063 28.6339ZM27.9107 28.6339C27.9107 23.5224 23.7566 19.3682 18.645 19.3682C13.5335 19.3682 9.39554 23.5224 9.39554 28.6339C9.39554 33.7455 13.5335 37.8834 18.645 37.8834C23.7566 37.8834 27.9107 33.7455 27.9107 28.6339Z" fill="white"/>
<path d="M156.301 23.6662H155.457V26.3761H154.743V23.6662H153.883V23.082H156.301V23.6662ZM159.319 24.1206L158.556 26.3924H158.183L157.42 24.1206V26.3924H156.755V23.0983H157.583L158.378 25.4187L159.189 23.0983H160V26.3924H159.319V24.1206Z" fill="white"/>
</svg>
