<svg xmlns="http://www.w3.org/2000/svg" width="25" height="24" viewBox="0 0 25 24" fill="none">
  <path d="M23.2656 12.311V11.0645C23.2656 9.86163 22.2871 8.88314 21.0843 8.88314H15.4751C14.2723 8.88314 13.2938 9.86163 13.2938 11.0645V12.311C13.2938 12.483 13.3187 12.6475 13.3561 12.8071C12.587 13.1449 12.0473 13.9115 12.0473 14.8039V16.0504C12.0473 16.9429 12.587 17.7095 13.3561 18.0473C13.3187 18.2068 13.2938 18.3726 13.2938 18.5434V19.7899C13.2938 20.9927 14.2723 21.9712 15.4751 21.9712H21.0843C22.2871 21.9712 23.2656 20.9927 23.2656 19.7899V18.5434C23.2656 17.6509 22.7259 16.8843 21.9568 16.5465C21.9942 16.387 22.0191 16.2212 22.0191 16.0504V14.8039C22.0191 14.6319 21.9942 14.4674 21.9568 14.3078C22.7259 13.97 23.2656 13.2035 23.2656 12.311ZM15.1635 11.0645C15.1635 10.8925 15.3031 10.7529 15.4751 10.7529H21.0843C21.2563 10.7529 21.3959 10.8925 21.3959 11.0645V12.311C21.3959 12.483 21.2563 12.6226 21.0843 12.6226H15.4751C15.3031 12.6226 15.1635 12.483 15.1635 12.311V11.0645ZM21.3959 19.7899C21.3959 19.9619 21.2563 20.1015 21.0843 20.1015H15.4751C15.3031 20.1015 15.1635 19.9619 15.1635 19.7899V18.5434C15.1635 18.3714 15.3031 18.2318 15.4751 18.2318H21.0843C21.2563 18.2318 21.3959 18.3714 21.3959 18.5434V19.7899Z" fill="url(#paint0_linear_1256_37869)"/>
  <path d="M18.5901 2.02734H5.50204C3.60864 2.02734 2.07422 3.56176 2.07422 5.45517V13.5573C2.07422 15.4507 3.60864 16.9851 5.50204 16.9851H9.86473C10.3808 16.9851 10.7996 16.5663 10.7996 16.0503C10.7996 15.5342 10.3808 15.1154 9.86473 15.1154H7.58865C7.21596 13.2868 5.77253 11.8434 3.94394 11.4707V7.54303C5.77253 7.17033 7.21596 5.7269 7.58865 3.89831H16.5022C16.9385 6.03727 18.8394 7.64898 21.1067 7.63776C21.6116 7.63526 22.0179 7.20772 22.0179 6.7029V5.45641C22.0179 3.56301 20.4835 2.02859 18.5901 2.02859V2.02734Z" fill="url(#paint1_linear_1256_37869)"/>
  <path d="M11.4228 11.8833V11.0643C11.4228 9.1622 12.7453 7.57294 14.5154 7.14041C13.8909 6.4885 13.0171 6.07841 12.0461 6.07841C10.1552 6.07841 8.61825 7.61532 8.61825 9.50623C8.61825 10.9534 9.52195 12.1874 10.7921 12.6885C10.9716 12.3968 11.1748 12.1214 11.4228 11.8833Z" fill="url(#paint2_linear_1256_37869)"/>
  <defs>
    <linearGradient id="paint0_linear_1256_37869" x1="1.80933" y1="1.82722" x2="13.2926" y2="26.6593" gradientUnits="userSpaceOnUse">
      <stop stop-color="#2357C6"/>
      <stop offset="1" stop-color="#5EA8FF"/>
    </linearGradient>
    <linearGradient id="paint1_linear_1256_37869" x1="1.80933" y1="1.82722" x2="13.2926" y2="26.6593" gradientUnits="userSpaceOnUse">
      <stop stop-color="#2357C6"/>
      <stop offset="1" stop-color="#5EA8FF"/>
    </linearGradient>
    <linearGradient id="paint2_linear_1256_37869" x1="1.80933" y1="1.82722" x2="13.2926" y2="26.6593" gradientUnits="userSpaceOnUse">
      <stop stop-color="#2357C6"/>
      <stop offset="1" stop-color="#5EA8FF"/>
    </linearGradient>
  </defs>
</svg>