<svg xmlns="http://www.w3.org/2000/svg" width="25" height="24" viewBox="0 0 25 24" fill="none">
  <g clip-path="url(#clip0_1256_37887)">
    <path d="M9.77124 1.17969H15.2327C15.6672 1.17969 16.0839 1.32804 16.3912 1.5921C16.6985 1.85617 16.8711 2.21432 16.8711 2.58777C16.8711 3.45914 16.4683 4.29483 15.7514 4.91098C15.0344 5.52714 14.062 5.87329 13.0481 5.87329H11.9558C10.9419 5.87329 9.96949 5.52714 9.25254 4.91098C8.53559 4.29483 8.13281 3.45914 8.13281 2.58777C8.13281 2.21432 8.30543 1.85617 8.6127 1.5921C8.91996 1.32804 9.3367 1.17969 9.77124 1.17969Z" fill="url(#paint0_linear_1256_37887)"/>
    <path d="M4.10156 16.5871V15.5237C4.10156 13.2674 4.9864 11.1035 6.56141 9.50799C8.13642 7.91252 10.2726 7.0162 12.5 7.0162C14.7274 7.0162 16.8636 7.91252 18.4386 9.50799C20.0136 11.1035 20.8984 13.2674 20.8984 15.5237V16.5871C20.8984 17.7153 20.456 18.7973 19.6685 19.595C18.881 20.3927 17.8129 20.8409 16.6992 20.8409H8.30078C7.18708 20.8409 6.11899 20.3927 5.33149 19.595C4.54398 18.7973 4.10156 17.7153 4.10156 16.5871Z" fill="url(#paint1_linear_1256_37887)"/>
  </g>
  <defs>
    <linearGradient id="paint0_linear_1256_37887" x1="3.8916" y1="0.982403" x2="16.7342" y2="23.3112" gradientUnits="userSpaceOnUse">
      <stop stop-color="#2357C6"/>
      <stop offset="1" stop-color="#5EA8FF"/>
    </linearGradient>
    <linearGradient id="paint1_linear_1256_37887" x1="3.8916" y1="0.982403" x2="16.7342" y2="23.3112" gradientUnits="userSpaceOnUse">
      <stop stop-color="#2357C6"/>
      <stop offset="1" stop-color="#5EA8FF"/>
    </linearGradient>
    <clipPath id="clip0_1256_37887">
      <rect width="24" height="24" fill="white" transform="translate(0.5)"/>
    </clipPath>
  </defs>
</svg>