<svg xmlns="http://www.w3.org/2000/svg" width="209" height="52" viewBox="0 0 209 52" fill="none">
  <path d="M71.7443 4.11281C44.2662 10.6786 11.1204 24.1669 0 52H0.430448C21.308 10.3931 88.7477 -0.597406 131.149 4.89785C159.846 8.03799 188.544 22.4541 202.893 48.3603L203.467 48.7885L205.691 49.5022L204.615 47.4325C180.15 0.687195 118.665 -6.09266 71.7443 4.11281Z" fill="#68A9DC"/>
  <path d="M193 44.2086C197.128 45.3699 201.135 46.9271 204.965 48.8586L203.388 49.4631C204.13 47.4636 204.919 45.4176 205.893 43.4181C206.79 41.4092 207.828 39.4668 209 37.6055C208.174 42.3753 206.869 47.0492 205.104 51.5557C200.833 49.5221 196.777 47.0605 193 44.2086Z" fill="#68A9DC"/>
</svg>