<svg xmlns="http://www.w3.org/2000/svg" width="32" height="32" viewBox="0 0 32 32" fill="none">
  <path d="M31.4551 5.26935C31.2489 4.77157 30.7617 4.44624 30.2231 4.44624H27.5564V1.77957C27.5564 1.24091 27.2311 0.753795 26.7333 0.547572C26.2355 0.339572 25.6613 0.455128 25.2809 0.83735L20.8364 5.28179C20.5857 5.53246 20.4453 5.87202 20.4453 6.22402V9.67113L15.0586 15.0578C14.5377 15.5787 14.5377 16.4231 15.0586 16.944C15.3182 17.2036 15.6595 17.3351 16.0009 17.3351C16.3422 17.3351 16.6835 17.2053 16.9431 16.944L22.3297 11.5574H25.7769C26.1306 11.5574 26.4702 11.4169 26.7191 11.1662L31.1635 6.72179C31.5457 6.34135 31.6577 5.76713 31.4533 5.26935H31.4551Z" fill="#212121"/>
  <path d="M31.4551 5.26935C31.2489 4.77157 30.7617 4.44624 30.2231 4.44624H27.5564V1.77957C27.5564 1.24091 27.2311 0.753795 26.7333 0.547572C26.2355 0.339572 25.6613 0.455128 25.2809 0.83735L20.8364 5.28179C20.5857 5.53246 20.4453 5.87202 20.4453 6.22402V9.67113L15.0586 15.0578C14.5377 15.5787 14.5377 16.4231 15.0586 16.944C15.3182 17.2036 15.6595 17.3351 16.0009 17.3351C16.3422 17.3351 16.6835 17.2053 16.9431 16.944L22.3297 11.5574H25.7769C26.1306 11.5574 26.4702 11.4169 26.7191 11.1662L31.1635 6.72179C31.5457 6.34135 31.6577 5.76713 31.4533 5.26935H31.4551Z" fill="url(#paint0_linear_2089_52655)"/>
  <path d="M15.9996 30.2226C8.15779 30.2226 1.77734 23.8422 1.77734 16.0004C1.77734 7.29285 9.59423 0.315067 18.6645 2.03596C19.388 2.17284 19.8645 2.87151 19.7276 3.59329C19.5907 4.31862 18.8796 4.79151 18.1685 4.65462C17.4289 4.51418 16.7 4.44307 15.9996 4.44307C9.62801 4.44307 4.44401 9.62707 4.44401 15.9986C4.44401 22.3702 9.62801 27.5542 15.9996 27.5542C22.3711 27.5542 27.5551 22.3702 27.5551 15.9986C27.5551 15.2946 27.484 14.564 27.3453 13.8297C27.2067 13.1062 27.6813 12.4093 28.4049 12.2706C29.1302 12.132 29.8253 12.6066 29.964 13.332C30.1365 14.2297 30.2236 15.1275 30.2236 15.9986C30.2236 23.8404 23.8431 30.2208 16.0013 30.2208L15.9996 30.2226Z" fill="#212121"/>
  <path d="M15.9996 30.2226C8.15779 30.2226 1.77734 23.8422 1.77734 16.0004C1.77734 7.29285 9.59423 0.315067 18.6645 2.03596C19.388 2.17284 19.8645 2.87151 19.7276 3.59329C19.5907 4.31862 18.8796 4.79151 18.1685 4.65462C17.4289 4.51418 16.7 4.44307 15.9996 4.44307C9.62801 4.44307 4.44401 9.62707 4.44401 15.9986C4.44401 22.3702 9.62801 27.5542 15.9996 27.5542C22.3711 27.5542 27.5551 22.3702 27.5551 15.9986C27.5551 15.2946 27.484 14.564 27.3453 13.8297C27.2067 13.1062 27.6813 12.4093 28.4049 12.2706C29.1302 12.132 29.8253 12.6066 29.964 13.332C30.1365 14.2297 30.2236 15.1275 30.2236 15.9986C30.2236 23.8404 23.8431 30.2208 16.0013 30.2208L15.9996 30.2226Z" fill="url(#paint1_linear_2089_52655)"/>
  <path d="M15.9983 24.8911C11.0969 24.8911 7.10938 20.9035 7.10938 16.0022C7.10938 11.1008 11.0969 7.11328 15.9983 7.11328C16.464 7.11328 16.9103 7.17728 17.3565 7.24484C18.0836 7.35684 18.5832 8.03773 18.4712 8.76484C18.3609 9.49373 17.6925 9.99684 16.9512 9.8795C16.6383 9.8315 16.3254 9.77817 16 9.77817C12.5689 9.77817 9.77782 12.5693 9.77782 16.0004C9.77782 19.4315 12.5689 22.2226 16 22.2226C19.4312 22.2226 22.2223 19.4315 22.2223 16.0004C22.2223 15.6751 22.1707 15.3639 22.1209 15.0511C22.0089 14.3239 22.5067 13.6431 23.2338 13.5293C23.9734 13.4262 24.6436 13.9151 24.7556 14.6422C24.8249 15.0884 24.8872 15.5364 24.8872 16.0022C24.8872 20.9035 20.8996 24.8911 15.9983 24.8911Z" fill="#212121"/>
  <path d="M15.9983 24.8911C11.0969 24.8911 7.10938 20.9035 7.10938 16.0022C7.10938 11.1008 11.0969 7.11328 15.9983 7.11328C16.464 7.11328 16.9103 7.17728 17.3565 7.24484C18.0836 7.35684 18.5832 8.03773 18.4712 8.76484C18.3609 9.49373 17.6925 9.99684 16.9512 9.8795C16.6383 9.8315 16.3254 9.77817 16 9.77817C12.5689 9.77817 9.77782 12.5693 9.77782 16.0004C9.77782 19.4315 12.5689 22.2226 16 22.2226C19.4312 22.2226 22.2223 19.4315 22.2223 16.0004C22.2223 15.6751 22.1707 15.3639 22.1209 15.0511C22.0089 14.3239 22.5067 13.6431 23.2338 13.5293C23.9734 13.4262 24.6436 13.9151 24.7556 14.6422C24.8249 15.0884 24.8872 15.5364 24.8872 16.0022C24.8872 20.9035 20.8996 24.8911 15.9983 24.8911Z" fill="url(#paint2_linear_2089_52655)"/>
  <defs>
    <linearGradient id="paint0_linear_2089_52655" x1="14.4569" y1="0.275837" x2="24.5618" y2="20.8362" gradientUnits="userSpaceOnUse">
      <stop stop-color="#2357C6"/>
      <stop offset="1" stop-color="#5EA8FF"/>
    </linearGradient>
    <linearGradient id="paint1_linear_2089_52655" x1="1.42177" y1="1.48797" x2="18.4412" y2="36.1214" gradientUnits="userSpaceOnUse">
      <stop stop-color="#2357C6"/>
      <stop offset="1" stop-color="#5EA8FF"/>
    </linearGradient>
    <linearGradient id="paint2_linear_2089_52655" x1="6.88715" y1="6.9349" x2="17.5219" y2="28.5781" gradientUnits="userSpaceOnUse">
      <stop stop-color="#2357C6"/>
      <stop offset="1" stop-color="#5EA8FF"/>
    </linearGradient>
  </defs>
</svg>