<svg xmlns="http://www.w3.org/2000/svg" width="13" height="13" viewBox="0 0 13 13" fill="none">
  <g clip-path="url(#clip0_1256_37746)">
    <path d="M9.48183 2.74891C10.3234 3.59041 10.8048 4.72624 10.8241 5.91621C10.8434 7.10619 10.3991 8.25703 9.58522 9.12537L9.48183 9.23234L7.32068 11.393C7.04647 11.667 6.67834 11.8266 6.29087 11.8393C5.9034 11.8521 5.52557 11.7171 5.2339 11.4617L5.16056 11.393L2.99891 9.23183C2.13922 8.37214 1.65625 7.20615 1.65625 5.99037C1.65625 4.77458 2.13922 3.6086 2.99891 2.74891C3.8586 1.88922 5.02458 1.40625 6.24037 1.40625C7.45615 1.40625 8.62214 1.88922 9.48183 2.74891ZM6.24037 4.46234C6.0397 4.46234 5.841 4.50186 5.65561 4.57865C5.47023 4.65544 5.30178 4.768 5.15989 4.90989C5.018 5.05178 4.90544 5.22023 4.82865 5.40561C4.75186 5.591 4.71234 5.7897 4.71234 5.99037C4.71234 6.19103 4.75186 6.38973 4.82865 6.57512C4.90544 6.76051 5.018 6.92896 5.15989 7.07085C5.30178 7.21274 5.47023 7.32529 5.65561 7.40208C5.841 7.47887 6.0397 7.5184 6.24037 7.5184C6.64563 7.5184 7.03429 7.35741 7.32085 7.07085C7.60741 6.78429 7.7684 6.39563 7.7684 5.99037C7.7684 5.58511 7.60741 5.19645 7.32085 4.90989C7.03429 4.62333 6.64563 4.46234 6.24037 4.46234Z" fill="#D8D9D9"/>
  </g>
  <defs>
    <clipPath id="clip0_1256_37746">
      <rect width="12.2242" height="12.2242" fill="white" transform="translate(0.128906 0.386719)"/>
    </clipPath>
  </defs>
</svg>