<svg xmlns="http://www.w3.org/2000/svg" width="24" height="24" viewBox="0 0 24 24" fill="none">
  <path d="M20.8874 6.34494H18.9523C19.1471 5.96003 19.256 5.53745 19.2715 5.10637C19.2435 4.34428 18.9172 3.62369 18.3631 3.09977C17.809 2.57585 17.0712 2.29052 16.3088 2.30523C15.4006 2.34435 14.5201 2.62934 13.7612 3.12979C13.0023 3.63025 12.3936 4.32737 12 5.14676C11.6106 4.32967 11.0065 3.63371 10.2523 3.13323C9.4981 2.63276 8.62211 2.34657 7.7179 2.30523C7.6872 2.30523 7.6565 2.30523 7.6258 2.30523C6.87425 2.30643 6.15244 2.59898 5.61212 3.12137C5.0718 3.64375 4.75507 4.35528 4.72852 5.10637V5.15969C4.74428 5.57218 4.84872 5.97644 5.03473 6.34494H3.11263C2.89835 6.34494 2.69285 6.43006 2.54133 6.58158C2.38981 6.7331 2.30469 6.93861 2.30469 7.15289V9.57671C2.30469 9.79099 2.38981 9.9965 2.54133 10.148C2.69285 10.2995 2.89835 10.3847 3.11263 10.3847H20.8874C21.1016 10.3847 21.3072 10.2995 21.4587 10.148C21.6102 9.9965 21.6953 9.79099 21.6953 9.57671V7.15289C21.6953 6.93861 21.6102 6.7331 21.4587 6.58158C21.3072 6.43006 21.1016 6.34494 20.8874 6.34494ZM16.3338 3.92111C16.6638 3.91255 16.9846 4.03056 17.2303 4.25095C17.4761 4.47133 17.6283 4.77739 17.6556 5.10637C17.6441 5.43707 17.5054 5.75057 17.2682 5.98137C17.0311 6.21217 16.714 6.34243 16.3831 6.34494H13.1941C13.6967 5.32774 14.6961 3.92111 16.3338 3.92111ZM6.3444 5.13303C6.36509 4.80241 6.5119 4.49235 6.75456 4.26684C6.99721 4.04132 7.31717 3.91757 7.64842 3.92111C9.32005 3.92758 10.2993 5.31966 10.8075 6.34494H7.6565C7.32475 6.34744 7.0045 6.22356 6.76079 5.99846C6.51708 5.77336 6.36821 5.46393 6.3444 5.13303Z" fill="url(#paint0_linear_1256_37864)"/>
  <path d="M13.6172 12.0005V21.6958H17.6569C18.2997 21.6958 18.9163 21.4404 19.3708 20.9859C19.8254 20.5313 20.0807 19.9148 20.0807 19.272V12.0005H13.6172Z" fill="url(#paint1_linear_1256_37864)"/>
  <path d="M10.3854 12.0005H3.92188V19.272C3.92188 19.9148 4.17724 20.5313 4.6318 20.9859C5.08635 21.4404 5.70286 21.6958 6.3457 21.6958H10.3854V12.0005Z" fill="url(#paint2_linear_1256_37864)"/>
  <defs>
    <linearGradient id="paint0_linear_1256_37864" x1="2.06231" y1="2.11011" x2="13.6623" y2="25.7172" gradientUnits="userSpaceOnUse">
      <stop stop-color="#2357C6"/>
      <stop offset="1" stop-color="#5EA8FF"/>
    </linearGradient>
    <linearGradient id="paint1_linear_1256_37864" x1="2.06231" y1="2.11011" x2="13.6623" y2="25.7172" gradientUnits="userSpaceOnUse">
      <stop stop-color="#2357C6"/>
      <stop offset="1" stop-color="#5EA8FF"/>
    </linearGradient>
    <linearGradient id="paint2_linear_1256_37864" x1="2.06231" y1="2.11011" x2="13.6623" y2="25.7172" gradientUnits="userSpaceOnUse">
      <stop stop-color="#2357C6"/>
      <stop offset="1" stop-color="#5EA8FF"/>
    </linearGradient>
  </defs>
</svg>