<svg xmlns="http://www.w3.org/2000/svg" width="32" height="32" viewBox="0 0 32 32" fill="none">
  <path d="M26.28 5.00252L16.9467 2.01585C16.3262 1.81674 15.6702 1.81852 15.0516 2.01585L5.71647 5.00252C4.42224 5.41674 3.55469 6.60785 3.55469 7.96608V19.5572C3.55469 25.7936 12.3476 29.1199 15.0391 29.991C15.3538 30.0923 15.6756 30.1439 15.9991 30.1439C16.3227 30.1439 16.6427 30.0941 16.9556 29.9927C19.6507 29.1216 28.4436 25.7954 28.4436 19.559V7.96608C28.4436 6.60785 27.5742 5.41674 26.28 5.00252ZM21.5138 12.8052L15.4747 20.8052C15.2471 21.1056 14.9022 21.2959 14.5254 21.3296C14.488 21.3332 14.4489 21.335 14.4098 21.335C14.0738 21.335 13.7485 21.2087 13.5014 20.9776L10.6409 18.311C10.1022 17.8079 10.072 16.9652 10.5734 16.4265C11.0782 15.8879 11.9209 15.8594 12.4578 16.359L14.2374 18.0176L19.3858 11.1981C19.8302 10.6114 20.6658 10.4941 21.2542 10.9385C21.8427 11.383 21.9582 12.2167 21.5138 12.8052Z" fill="url(#paint0_linear_2089_52676)"/>
  <defs>
    <linearGradient id="paint0_linear_2089_52676" x1="3.24358" y1="1.58345" x2="21.4326" y2="34.1658" gradientUnits="userSpaceOnUse">
      <stop stop-color="#2357C6"/>
      <stop offset="1" stop-color="#5EA8FF"/>
    </linearGradient>
  </defs>
</svg>