<svg xmlns="http://www.w3.org/2000/svg" width="32" height="32" viewBox="0 0 32 32" fill="none">
  <g clip-path="url(#clip0_2089_52668)">
    <path d="M32 16.4436V14.6658C32 12.9502 30.6044 11.5547 28.8889 11.5547H20.8889C19.1733 11.5547 17.7778 12.9502 17.7778 14.6658V16.4436C17.7778 16.6889 17.8133 16.9236 17.8667 17.1511C16.7698 17.6329 16 18.7262 16 19.9991V21.7769C16 23.0498 16.7698 24.1431 17.8667 24.6249C17.8133 24.8525 17.7778 25.0889 17.7778 25.3325V27.1102C17.7778 28.8258 19.1733 30.2214 20.8889 30.2214H28.8889C30.6044 30.2214 32 28.8258 32 27.1102V25.3325C32 24.0596 31.2302 22.9662 30.1333 22.4845C30.1867 22.2569 30.2222 22.0205 30.2222 21.7769V19.9991C30.2222 19.7538 30.1867 19.5191 30.1333 19.2916C31.2302 18.8098 32 17.7165 32 16.4436ZM20.4444 14.6658C20.4444 14.4205 20.6436 14.2214 20.8889 14.2214H28.8889C29.1342 14.2214 29.3333 14.4205 29.3333 14.6658V16.4436C29.3333 16.6889 29.1342 16.888 28.8889 16.888H20.8889C20.6436 16.888 20.4444 16.6889 20.4444 16.4436V14.6658ZM29.3333 27.1102C29.3333 27.3556 29.1342 27.5547 28.8889 27.5547H20.8889C20.6436 27.5547 20.4444 27.3556 20.4444 27.1102V25.3325C20.4444 25.0871 20.6436 24.888 20.8889 24.888H28.8889C29.1342 24.888 29.3333 25.0871 29.3333 25.3325V27.1102Z" fill="#212121"/>
    <path d="M32 16.4436V14.6658C32 12.9502 30.6044 11.5547 28.8889 11.5547H20.8889C19.1733 11.5547 17.7778 12.9502 17.7778 14.6658V16.4436C17.7778 16.6889 17.8133 16.9236 17.8667 17.1511C16.7698 17.6329 16 18.7262 16 19.9991V21.7769C16 23.0498 16.7698 24.1431 17.8667 24.6249C17.8133 24.8525 17.7778 25.0889 17.7778 25.3325V27.1102C17.7778 28.8258 19.1733 30.2214 20.8889 30.2214H28.8889C30.6044 30.2214 32 28.8258 32 27.1102V25.3325C32 24.0596 31.2302 22.9662 30.1333 22.4845C30.1867 22.2569 30.2222 22.0205 30.2222 21.7769V19.9991C30.2222 19.7538 30.1867 19.5191 30.1333 19.2916C31.2302 18.8098 32 17.7165 32 16.4436ZM20.4444 14.6658C20.4444 14.4205 20.6436 14.2214 20.8889 14.2214H28.8889C29.1342 14.2214 29.3333 14.4205 29.3333 14.6658V16.4436C29.3333 16.6889 29.1342 16.888 28.8889 16.888H20.8889C20.6436 16.888 20.4444 16.6889 20.4444 16.4436V14.6658ZM29.3333 27.1102C29.3333 27.3556 29.1342 27.5547 28.8889 27.5547H20.8889C20.6436 27.5547 20.4444 27.3556 20.4444 27.1102V25.3325C20.4444 25.0871 20.6436 24.888 20.8889 24.888H28.8889C29.1342 24.888 29.3333 25.0871 29.3333 25.3325V27.1102Z" fill="url(#paint0_linear_2089_52668)"/>
    <path d="M25.3329 1.77734H6.66623C3.96579 1.77734 1.77734 3.96579 1.77734 6.66623V18.2218C1.77734 20.9222 3.96579 23.1107 6.66623 23.1107H12.8885C13.6245 23.1107 14.2218 22.5133 14.2218 21.7773C14.2218 21.0413 13.6245 20.444 12.8885 20.444H9.64223C9.11068 17.836 7.05201 15.7773 4.44401 15.2458V9.64401C7.05201 9.11246 9.11068 7.05379 9.64223 4.44579H22.3551C22.9773 7.49645 25.6885 9.79512 28.9222 9.77912C29.6422 9.77557 30.2218 9.16579 30.2218 8.44579V6.66801C30.2218 3.96757 28.0333 1.77912 25.3329 1.77912V1.77734Z" fill="#212121"/>
    <path d="M25.3329 1.77734H6.66623C3.96579 1.77734 1.77734 3.96579 1.77734 6.66623V18.2218C1.77734 20.9222 3.96579 23.1107 6.66623 23.1107H12.8885C13.6245 23.1107 14.2218 22.5133 14.2218 21.7773C14.2218 21.0413 13.6245 20.444 12.8885 20.444H9.64223C9.11068 17.836 7.05201 15.7773 4.44401 15.2458V9.64401C7.05201 9.11246 9.11068 7.05379 9.64223 4.44579H22.3551C22.9773 7.49645 25.6885 9.79512 28.9222 9.77912C29.6422 9.77557 30.2218 9.16579 30.2218 8.44579V6.66801C30.2218 3.96757 28.0333 1.77912 25.3329 1.77912V1.77734Z" fill="url(#paint1_linear_2089_52668)"/>
    <path d="M15.1094 15.8338V14.6658C15.1094 11.9529 16.9956 9.68624 19.52 9.06935C18.6294 8.13958 17.3832 7.55469 15.9983 7.55469C13.3014 7.55469 11.1094 9.74669 11.1094 12.4436C11.1094 14.5076 12.3983 16.2676 14.2098 16.9822C14.4658 16.5662 14.7556 16.1734 15.1094 15.8338Z" fill="#212121"/>
    <path d="M15.1094 15.8338V14.6658C15.1094 11.9529 16.9956 9.68624 19.52 9.06935C18.6294 8.13958 17.3832 7.55469 15.9983 7.55469C13.3014 7.55469 11.1094 9.74669 11.1094 12.4436C11.1094 14.5076 12.3983 16.2676 14.2098 16.9822C14.4658 16.5662 14.7556 16.1734 15.1094 15.8338Z" fill="url(#paint2_linear_2089_52668)"/>
  </g>
  <defs>
    <linearGradient id="paint0_linear_2089_52668" x1="15.8" y1="11.3674" x2="27.9726" y2="32.6015" gradientUnits="userSpaceOnUse">
      <stop stop-color="#2357C6"/>
      <stop offset="1" stop-color="#5EA8FF"/>
    </linearGradient>
    <linearGradient id="paint1_linear_2089_52668" x1="1.42179" y1="1.56328" x2="11.8831" y2="29.9505" gradientUnits="userSpaceOnUse">
      <stop stop-color="#2357C6"/>
      <stop offset="1" stop-color="#5EA8FF"/>
    </linearGradient>
    <linearGradient id="paint2_linear_2089_52668" x1="11.0042" y1="7.46009" x2="17.0254" y2="18.3923" gradientUnits="userSpaceOnUse">
      <stop stop-color="#2357C6"/>
      <stop offset="1" stop-color="#5EA8FF"/>
    </linearGradient>
    <clipPath id="clip0_2089_52668">
      <rect width="32" height="32" fill="white"/>
    </clipPath>
  </defs>
</svg>