<svg xmlns="http://www.w3.org/2000/svg" width="199" height="157" viewBox="0 0 199 157" fill="none">
  <mask id="path-1-inside-1_1256_37729" fill="white">
    <path fill-rule="evenodd" clip-rule="evenodd" d="M9.2649 0C4.14804 0 0 4.14803 0 9.26489V156.999C0 157 0.000255887 157 0.000567694 157H198.423C198.423 157 198.423 157 198.423 156.999V9.2649C198.423 4.14804 194.275 0 189.158 0H9.2649ZM178.581 156.999H198.423L189.49 149.559C188.918 149.083 188.086 149.083 187.514 149.559L178.581 156.999ZM158.739 156.999H178.581L169.648 149.559C169.075 149.083 168.244 149.083 167.672 149.559L158.739 156.999ZM138.896 156.999H158.739L149.806 149.559C149.233 149.083 148.402 149.083 147.829 149.559L138.896 156.999ZM119.054 156.999H138.896L129.963 149.559C129.391 149.083 128.559 149.083 127.987 149.559L119.054 156.999ZM99.2116 156.999H119.054L110.121 149.559C109.549 149.083 108.717 149.083 108.145 149.559L99.2116 156.999ZM79.3693 156.999H99.2116L90.2787 149.559C89.7062 149.083 88.8748 149.083 88.3023 149.559L79.3693 156.999ZM59.527 156.999H79.3693L70.4364 149.559C69.8639 149.083 69.0325 149.083 68.4599 149.559L59.527 156.999ZM39.6847 156.999H59.527L50.594 149.559C50.0215 149.083 49.1901 149.083 48.6176 149.559L39.6847 156.999ZM19.8423 156.999H0L8.93294 149.559C9.50547 149.083 10.3369 149.083 10.9094 149.559L19.8423 156.999ZM19.8423 156.999H39.6847L30.7517 149.559C30.1792 149.083 29.3478 149.083 28.7753 149.559L19.8423 156.999Z"/>
  </mask>
  <path fill-rule="evenodd" clip-rule="evenodd" d="M9.2649 0C4.14804 0 0 4.14803 0 9.26489V156.999C0 157 0.000255887 157 0.000567694 157H198.423C198.423 157 198.423 157 198.423 156.999V9.2649C198.423 4.14804 194.275 0 189.158 0H9.2649ZM178.581 156.999H198.423L189.49 149.559C188.918 149.083 188.086 149.083 187.514 149.559L178.581 156.999ZM158.739 156.999H178.581L169.648 149.559C169.075 149.083 168.244 149.083 167.672 149.559L158.739 156.999ZM138.896 156.999H158.739L149.806 149.559C149.233 149.083 148.402 149.083 147.829 149.559L138.896 156.999ZM119.054 156.999H138.896L129.963 149.559C129.391 149.083 128.559 149.083 127.987 149.559L119.054 156.999ZM99.2116 156.999H119.054L110.121 149.559C109.549 149.083 108.717 149.083 108.145 149.559L99.2116 156.999ZM79.3693 156.999H99.2116L90.2787 149.559C89.7062 149.083 88.8748 149.083 88.3023 149.559L79.3693 156.999ZM59.527 156.999H79.3693L70.4364 149.559C69.8639 149.083 69.0325 149.083 68.4599 149.559L59.527 156.999ZM39.6847 156.999H59.527L50.594 149.559C50.0215 149.083 49.1901 149.083 48.6176 149.559L39.6847 156.999ZM19.8423 156.999H0L8.93294 149.559C9.50547 149.083 10.3369 149.083 10.9094 149.559L19.8423 156.999ZM19.8423 156.999H39.6847L30.7517 149.559C30.1792 149.083 29.3478 149.083 28.7753 149.559L19.8423 156.999Z" fill="white"/>
  <path d="M50.594 149.559L51.234 148.791L50.594 149.559ZM48.6176 149.559L49.2576 150.328L48.6176 149.559ZM70.4364 149.559L69.7964 150.328L70.4364 149.559ZM68.4599 149.559L69.0999 150.328L68.4599 149.559ZM90.2787 149.559L89.6387 150.328L90.2787 149.559ZM88.3023 149.559L88.9422 150.328L88.3023 149.559ZM110.121 149.559L109.481 150.328L110.121 149.559ZM108.145 149.559L108.785 150.328L108.145 149.559ZM169.648 149.559L170.288 148.791L169.648 149.559ZM167.672 149.559L168.312 150.328L167.672 149.559ZM189.49 149.559L188.85 150.328L189.49 149.559ZM187.514 149.559L186.874 148.791L187.514 149.559ZM129.963 149.559L129.323 150.328L129.963 149.559ZM127.987 149.559L128.627 150.328L127.987 149.559ZM149.806 149.559L149.166 150.328L149.806 149.559ZM147.829 149.559L148.469 150.328L147.829 149.559ZM8.93294 149.559L9.57292 150.328L8.93294 149.559ZM10.9094 149.559L10.2694 150.328L10.9094 149.559ZM30.7517 149.559L30.1117 150.328L30.7517 149.559ZM28.7753 149.559L28.1353 148.791L28.7753 149.559ZM1 9.26489C1 4.70032 4.70032 1 9.2649 1V-1C3.59575 -1 -1 3.59574 -1 9.26489H1ZM1 156.999V9.26489H-1V156.999H1ZM198.423 156H0.000567694V158H198.423V156ZM197.423 9.2649V156.999H199.423V9.2649H197.423ZM189.158 1C193.723 1 197.423 4.70032 197.423 9.2649H199.423C199.423 3.59575 194.828 -1 189.158 -1V1ZM9.2649 1H189.158V-1H9.2649V1ZM198.423 155.999H178.581V157.999H198.423V155.999ZM188.85 150.328L197.783 157.768L199.063 156.231L190.13 148.791L188.85 150.328ZM179.221 157.768L188.154 150.328L186.874 148.791L177.941 156.231L179.221 157.768ZM178.581 155.999H158.739V157.999H178.581V155.999ZM169.008 150.328L177.941 157.768L179.221 156.231L170.288 148.791L169.008 150.328ZM159.379 157.768L168.312 150.328L167.032 148.791L158.099 156.231L159.379 157.768ZM158.739 155.999H138.896V157.999H158.739V155.999ZM149.166 150.328L158.099 157.768L159.379 156.231L150.446 148.791L149.166 150.328ZM139.536 157.768L148.469 150.328L147.189 148.791L138.256 156.231L139.536 157.768ZM138.896 155.999H119.054V157.999H138.896V155.999ZM129.323 150.328L138.256 157.768L139.536 156.231L130.603 148.791L129.323 150.328ZM119.694 157.768L128.627 150.328L127.347 148.791L118.414 156.231L119.694 157.768ZM119.054 155.999H99.2116V157.999H119.054V155.999ZM109.481 150.328L118.414 157.768L119.694 156.231L110.761 148.791L109.481 150.328ZM99.8516 157.768L108.785 150.328L107.505 148.791L98.5717 156.231L99.8516 157.768ZM99.2116 155.999H79.3693V157.999H99.2116V155.999ZM89.6387 150.328L98.5717 157.768L99.8516 156.231L90.9187 148.791L89.6387 150.328ZM80.0093 157.768L88.9422 150.328L87.6623 148.791L78.7293 156.231L80.0093 157.768ZM79.3693 155.999H59.527V157.999H79.3693V155.999ZM69.7964 150.328L78.7293 157.768L80.0093 156.231L71.0764 148.791L69.7964 150.328ZM60.167 157.768L69.0999 150.328L67.82 148.791L58.887 156.231L60.167 157.768ZM59.527 155.999H39.6847V157.999H59.527V155.999ZM49.9541 150.328L58.887 157.768L60.167 156.231L51.234 148.791L49.9541 150.328ZM40.3246 157.768L49.2576 150.328L47.9776 148.791L39.0447 156.231L40.3246 157.768ZM19.8423 155.999H0V157.999H19.8423V155.999ZM0.639979 157.768L9.57292 150.328L8.29296 148.791L-0.639979 156.231L0.639979 157.768ZM10.2694 150.328L19.2023 157.768L20.4823 156.231L11.5494 148.791L10.2694 150.328ZM39.6847 155.999H19.8423V157.999H39.6847V155.999ZM30.1117 150.328L39.0447 157.768L40.3246 156.231L31.3917 148.791L30.1117 150.328ZM20.4823 157.768L29.4152 150.328L28.1353 148.791L19.2023 156.231L20.4823 157.768ZM51.234 148.791C50.2907 148.005 48.9209 148.005 47.9776 148.791L49.2576 150.328C49.4593 150.16 49.7523 150.16 49.9541 150.328L51.234 148.791ZM71.0764 148.791C70.1331 148.005 68.7633 148.005 67.82 148.791L69.0999 150.328C69.3017 150.16 69.5947 150.16 69.7964 150.328L71.0764 148.791ZM90.9187 148.791C89.9754 148.005 88.6056 148.005 87.6623 148.791L88.9422 150.328C89.144 150.16 89.437 150.16 89.6387 150.328L90.9187 148.791ZM110.761 148.791C109.818 148.005 108.448 148.005 107.505 148.791L108.785 150.328C108.986 150.16 109.279 150.16 109.481 150.328L110.761 148.791ZM170.288 148.791C169.345 148.005 167.975 148.005 167.032 148.791L168.312 150.328C168.513 150.16 168.806 150.16 169.008 150.328L170.288 148.791ZM190.13 148.791C189.187 148.005 187.817 148.005 186.874 148.791L188.154 150.328C188.356 150.16 188.649 150.16 188.85 150.328L190.13 148.791ZM130.603 148.791C129.66 148.005 128.29 148.005 127.347 148.791L128.627 150.328C128.829 150.16 129.122 150.16 129.323 150.328L130.603 148.791ZM198.423 158C198.975 158 199.423 157.552 199.423 156.999H197.423C197.423 156.447 197.871 156 198.423 156V158ZM150.446 148.791C149.502 148.005 148.133 148.005 147.189 148.791L148.469 150.328C148.671 150.16 148.964 150.16 149.166 150.328L150.446 148.791ZM9.57292 150.328C9.77468 150.16 10.0677 150.16 10.2694 150.328L11.5494 148.791C10.6061 148.005 9.23627 148.005 8.29296 148.791L9.57292 150.328ZM31.3917 148.791C30.4484 148.005 29.0786 148.005 28.1353 148.791L29.4152 150.328C29.617 150.16 29.91 150.16 30.1117 150.328L31.3917 148.791ZM-1 156.999C-1 157.559 -0.544848 158 0.000567694 158V156C0.54536 156 1 156.44 1 156.999H-1Z" fill="#F1F2F2" mask="url(#path-1-inside-1_1256_37729)"/>
</svg>