<svg xmlns="http://www.w3.org/2000/svg" width="32" height="33" viewBox="0 0 32 33" fill="none">
  <path d="M10.9999 14.6398L8.50391 13.7065C9.31635 11.5323 11.0284 9.82026 13.2026 9.00781L14.1359 11.5056C12.687 12.0478 11.5439 13.1891 10.9999 14.6398Z" fill="#7FAAE3"/>
  <path d="M20.9954 14.6398C20.4514 13.1909 19.31 12.0478 17.8594 11.5056L18.7927 9.00781C20.9669 9.82026 22.6789 11.5323 23.4914 13.7065L20.9954 14.6398Z" fill="#7FAAE3"/>
  <path d="M18.8005 24.0031L17.8672 21.5053C19.3161 20.9631 20.4592 19.8218 21.0032 18.3711L23.4992 19.3044C22.6867 21.4787 20.9747 23.1906 18.8005 24.0031Z" fill="#7FAAE3"/>
  <path d="M13.1948 24.0031C11.0205 23.1906 9.30854 21.4787 8.49609 19.3044L10.9921 18.3711C11.5361 19.82 12.6774 20.9631 14.1281 21.5053L13.1948 24.0031Z" fill="#7FAAE3"/>
  <path d="M11.0239 29.8361C7.15899 28.3926 4.11365 25.349 2.67188 21.4823L5.16788 20.5508C6.34121 23.6921 8.81588 26.1668 11.9572 27.3383L11.0239 29.8361Z" fill="#7FAAE3"/>
  <path d="M20.9724 29.8361L20.0391 27.3383C23.1822 26.165 25.6551 23.6921 26.8284 20.5508L29.3244 21.4823C27.8808 25.349 24.8373 28.3943 20.9724 29.8361Z" fill="#7FAAE3"/>
  <path d="M26.8266 12.4629C25.6568 9.32156 23.1822 6.84689 20.0391 5.67356L20.9724 3.17578C24.8391 4.61934 27.8844 7.66467 29.3262 11.5313L26.8266 12.4629Z" fill="#7FAAE3"/>
  <path d="M5.16788 12.4611L2.67188 11.5296C4.11543 7.66289 7.15899 4.61756 11.0239 3.17578L11.9572 5.67356C8.8141 6.84689 6.34121 9.31978 5.16788 12.4611Z" fill="#7FAAE3"/>
  <path d="M18.3291 11.5931C18.1744 11.5931 18.0162 11.5664 17.8615 11.5095C16.6615 11.0633 15.3211 11.0633 14.1317 11.5095C13.7975 11.6322 13.4313 11.6198 13.1113 11.4722C12.7895 11.3247 12.5406 11.058 12.4144 10.7255L9.92728 4.06066C9.80461 3.72999 9.81705 3.36199 9.96461 3.04022C10.1122 2.71844 10.3806 2.46777 10.7113 2.3451C14.0926 1.08288 17.9024 1.08288 21.2837 2.3451C21.9735 2.60288 22.3237 3.37088 22.0659 4.06066L19.5788 10.7273C19.3779 11.2642 18.8695 11.5931 18.3291 11.5931Z" fill="#7FAAE3"/>
  <path d="M28.9056 22.6547C28.751 22.6547 28.5928 22.6281 28.4381 22.5712L21.7732 20.0841C21.0834 19.8263 20.7332 19.0583 20.991 18.3685C21.215 17.7712 21.327 17.1436 21.327 16.5036C21.327 15.8601 21.215 15.2343 20.9928 14.6423C20.8683 14.3099 20.8825 13.9436 21.0283 13.6201C21.1759 13.2983 21.4425 13.0476 21.775 12.9232L28.4399 10.4361C29.1385 10.1783 29.8976 10.5303 30.1554 11.2183C30.7865 12.9054 31.1065 14.685 31.1065 16.5036C31.1065 18.3223 30.7865 20.1019 30.1554 21.789C29.9563 22.3241 29.4461 22.6547 28.9056 22.6547Z" fill="#7FAAE3"/>
  <path d="M15.9978 31.6184C14.1809 31.6184 12.4031 31.2984 10.7107 30.6673C10.0209 30.4095 9.6707 29.6415 9.92847 28.9517L12.4156 22.285C12.6751 21.5953 13.4396 21.245 14.1329 21.5028C15.3329 21.949 16.6734 21.949 17.8627 21.5028C18.1951 21.3784 18.5614 21.3908 18.8831 21.5402C19.2049 21.6877 19.4538 21.9544 19.58 22.2868L22.0671 28.9517C22.1898 29.2824 22.1774 29.6504 22.0298 29.9721C21.8823 30.2939 21.6138 30.5446 21.2831 30.6673C19.5925 31.2984 17.8147 31.6184 15.996 31.6184H15.9978Z" fill="#7FAAE3"/>
  <path d="M3.08583 22.6579C2.54539 22.6579 2.03694 22.3273 1.83783 21.7922C1.20672 20.105 0.886719 18.3255 0.886719 16.5068C0.886719 14.6882 1.20672 12.9086 1.83783 11.2215C2.09561 10.5335 2.85827 10.1833 3.55339 10.4393L10.2183 12.9264C10.9081 13.1842 11.2583 13.9522 11.0005 14.6419C10.7765 15.2393 10.6645 15.8668 10.6645 16.5068C10.6645 17.1504 10.7765 17.7762 10.9987 18.3682C11.1232 18.7006 11.1089 19.0668 10.9632 19.3904C10.8156 19.7122 10.5489 19.9628 10.2165 20.0873L3.55161 22.5744C3.39694 22.6313 3.23872 22.6579 3.08405 22.6579H3.08583Z" fill="#7FAAE3"/>
</svg>