<svg xmlns="http://www.w3.org/2000/svg" width="32" height="33" viewBox="0 0 32 33" fill="none">
  <path d="M27.5316 10.1476L20.5734 3.18934C19.9849 2.6009 19.2045 2.27734 18.3742 2.27734H8.44358C5.74669 2.27734 3.55469 4.46934 3.55469 7.16623V25.8329C3.55469 28.5298 5.74669 30.7218 8.44358 30.7218H23.5547C26.2516 30.7218 28.4436 28.5298 28.4436 25.8329V12.3467C28.4436 11.5165 28.12 10.7342 27.5316 10.1476ZM10.2214 11.1662H13.7769C14.5129 11.1662 15.1102 11.7636 15.1102 12.4996C15.1102 13.2356 14.5129 13.8329 13.7769 13.8329H10.2214C9.48535 13.8329 8.88802 13.2356 8.88802 12.4996C8.88802 11.7636 9.48535 11.1662 10.2214 11.1662ZM21.7769 24.4996H10.2214C9.48535 24.4996 8.88802 23.9022 8.88802 23.1662C8.88802 22.4302 9.48535 21.8329 10.2214 21.8329H21.7769C22.5129 21.8329 23.1102 22.4302 23.1102 23.1662C23.1102 23.9022 22.5129 24.4996 21.7769 24.4996ZM21.7769 19.1662H10.2214C9.48535 19.1662 8.88802 18.5689 8.88802 17.8329C8.88802 17.0969 9.48535 16.4996 10.2214 16.4996H21.7769C22.5129 16.4996 23.1102 17.0969 23.1102 17.8329C23.1102 18.5689 22.5129 19.1662 21.7769 19.1662ZM25.656 12.0551H20.4436C19.4658 12.0551 18.6658 11.2551 18.6658 10.2773V5.08445L18.6889 5.07557L25.6614 12.0462L25.656 12.0551Z" fill="#7FAAE3"/>
</svg>