<svg xmlns="http://www.w3.org/2000/svg" width="32" height="32" viewBox="0 0 32 32" fill="none">
  <path d="M30.1572 12.0656C30.0008 11.5838 29.583 11.2318 29.0817 11.159L20.8683 9.96607L17.1955 2.52251C16.7475 1.61229 15.2523 1.61229 14.8043 2.52251L11.1315 9.96429L2.91813 11.1572C2.41679 11.2301 1.99901 11.5821 1.84257 12.0638C1.68613 12.5456 1.8159 13.0772 2.18035 13.431L8.12346 19.223L6.71901 27.4025C6.63368 27.9038 6.83813 28.4087 7.24879 28.7074C7.65946 29.0043 8.20524 29.0434 8.65324 28.8087L15.999 24.9456L23.3448 28.8087C23.5403 28.9118 23.7519 28.9616 23.9652 28.9616C24.2408 28.9616 24.5163 28.8763 24.7492 28.7074C25.1599 28.4087 25.3661 27.9038 25.279 27.4025L23.8746 19.223L29.8177 13.431C30.1821 13.0772 30.3119 12.5456 30.1555 12.0638L30.1572 12.0656Z" fill="url(#paint0_linear_1256_37908)"/>
  <defs>
    <linearGradient id="paint0_linear_1256_37908" x1="1.4218" y1="1.5677" x2="17.1703" y2="35.1799" gradientUnits="userSpaceOnUse">
      <stop stop-color="#2357C6"/>
      <stop offset="1" stop-color="#5EA8FF"/>
    </linearGradient>
  </defs>
</svg>