<svg xmlns="http://www.w3.org/2000/svg" width="32" height="32" viewBox="0 0 32 32" fill="none">
  <path d="M8.29489 4.22769L6.58217 3.65739L6.01005 1.94285C5.82538 1.38884 4.90746 1.38884 4.72279 1.94285L4.15068 3.65739L2.43795 4.22769C2.16095 4.32003 1.97266 4.57893 1.97266 4.87223C1.97266 5.16553 2.16095 5.42443 2.43795 5.51676L4.15068 6.08707L4.72279 7.8016C4.81513 8.07861 5.07403 8.26509 5.36552 8.26509C5.65701 8.26509 5.91772 8.0768 6.00824 7.8016L6.58036 6.08707L8.29308 5.51676C8.57009 5.42443 8.75838 5.16553 8.75838 4.87223C8.75838 4.57893 8.5719 4.32003 8.29489 4.22769Z" fill="url(#paint0_linear_1256_37924)"/>
  <path d="M16.0008 24.9976C16.0008 23.4352 16.9966 22.0556 18.4794 21.5631L19.4751 21.23L19.8083 20.2324C20.2917 18.7876 21.6713 17.8208 23.2428 17.8208C23.8927 17.8208 24.4902 18.02 25.0243 18.3151L30.0738 13.3942C30.4449 13.0339 30.5771 12.4925 30.4178 12.0019C30.2584 11.5113 29.833 11.1528 29.3224 11.0786L20.9579 9.86371L17.2175 2.28318C16.7612 1.35621 15.2386 1.35621 14.7823 2.28318L11.0419 9.8619L2.6774 11.0767C2.16684 11.151 1.74137 11.5094 1.58205 12.0001C1.42273 12.4907 1.55489 13.0321 1.92604 13.3924L7.97852 19.2909L6.54823 27.621C6.46133 28.1316 6.66953 28.6458 7.08776 28.9499C7.50779 29.2523 8.05999 29.2939 8.51805 29.0531L15.999 25.1189L16.0207 25.1298C16.0207 25.0845 15.999 25.0429 15.999 24.9976H16.0008Z" fill="url(#paint1_linear_1256_37924)"/>
  <path d="M27.1499 24.1395L24.8633 23.3773L24.1011 21.0906C23.853 20.352 22.6309 20.352 22.3829 21.0906L21.6207 23.3773L19.334 24.1395C18.9647 24.2626 18.7148 24.6084 18.7148 24.9977C18.7148 25.3869 18.9647 25.7327 19.334 25.8558L21.6207 26.6181L22.3829 28.9047C22.506 29.2741 22.8536 29.5239 23.2429 29.5239C23.6321 29.5239 23.9779 29.2741 24.1029 28.9047L24.8651 26.6181L27.1517 25.8558C27.5211 25.7327 27.7709 25.3869 27.7709 24.9977C27.7709 24.6084 27.5211 24.2626 27.1517 24.1395H27.1499Z" fill="url(#paint2_linear_1256_37924)"/>
  <path d="M25.5063 6.95793C26.2562 6.95793 26.8642 6.34999 26.8642 5.60006C26.8642 4.85013 26.2562 4.24219 25.5063 4.24219C24.7564 4.24219 24.1484 4.85013 24.1484 5.60006C24.1484 6.34999 24.7564 6.95793 25.5063 6.95793Z" fill="url(#paint3_linear_1256_37924)"/>
  <defs>
    <linearGradient id="paint0_linear_1256_37924" x1="1.15352" y1="1.24642" x2="17.5496" y2="35.7733" gradientUnits="userSpaceOnUse">
      <stop stop-color="#2357C6"/>
      <stop offset="1" stop-color="#5EA8FF"/>
    </linearGradient>
    <linearGradient id="paint1_linear_1256_37924" x1="1.15352" y1="1.24642" x2="17.5496" y2="35.7733" gradientUnits="userSpaceOnUse">
      <stop stop-color="#2357C6"/>
      <stop offset="1" stop-color="#5EA8FF"/>
    </linearGradient>
    <linearGradient id="paint2_linear_1256_37924" x1="1.15352" y1="1.24642" x2="17.5496" y2="35.7733" gradientUnits="userSpaceOnUse">
      <stop stop-color="#2357C6"/>
      <stop offset="1" stop-color="#5EA8FF"/>
    </linearGradient>
    <linearGradient id="paint3_linear_1256_37924" x1="1.15352" y1="1.24642" x2="17.5496" y2="35.7733" gradientUnits="userSpaceOnUse">
      <stop stop-color="#2357C6"/>
      <stop offset="1" stop-color="#5EA8FF"/>
    </linearGradient>
  </defs>
</svg>