<svg xmlns="http://www.w3.org/2000/svg" width="32" height="32" viewBox="0 0 32 32" fill="none">
  <g clip-path="url(#clip0_2089_52713)">
    <path d="M22.0456 17.8821C21.7942 17.6392 21.4574 17.5048 21.1078 17.5079C20.7582 17.5109 20.4238 17.6511 20.1766 17.8983C19.9293 18.1455 19.7891 18.48 19.7861 18.8296C19.783 19.1792 19.9174 19.516 20.1603 19.7674L23.9203 23.5274L22.1643 25.2834L18.4043 21.5234C18.2813 21.3961 18.1342 21.2945 17.9715 21.2246C17.8088 21.1547 17.6339 21.118 17.4568 21.1164C17.2798 21.1149 17.1042 21.1486 16.9404 21.2157C16.7765 21.2827 16.6276 21.3817 16.5025 21.5069C16.3773 21.6321 16.2783 21.781 16.2112 21.9448C16.1442 22.1087 16.1104 22.2843 16.112 22.4613C16.1135 22.6383 16.1503 22.8133 16.2202 22.976C16.2901 23.1386 16.3916 23.2858 16.519 23.4088L19.9283 26.8194C18.9671 27.2202 17.926 27.3923 16.887 27.3221C16.7946 28.2639 16.4232 29.1567 15.8203 29.8861C16.3204 29.9711 16.8264 30.0157 17.3336 30.0194C18.5593 30.0213 19.7732 29.7811 20.9058 29.3128C22.0383 28.8444 23.0673 28.157 23.9336 27.2901L26.7443 24.4421C26.992 24.1912 27.1302 23.8524 27.1287 23.4998C27.1272 23.1472 26.9861 22.8096 26.7363 22.5608L22.0456 17.8821Z" fill="url(#paint0_linear_2089_52713)"/>
    <path d="M2.42542 17.145C2.82255 16.7571 3.28409 16.4413 3.78942 16.2116C2.99664 14.885 2.60149 13.3586 2.65095 11.814C2.70041 10.2693 3.1924 8.77136 4.06843 7.49818C4.94447 6.225 6.16768 5.23017 7.59266 4.63195C9.01763 4.03374 10.5844 3.85731 12.1068 4.12364L12.6841 3.5463C13.2486 2.98062 13.8671 2.47152 14.5308 2.0263C12.4058 1.22845 10.0829 1.12321 7.89443 1.72565C5.706 2.32808 3.76421 3.60731 2.34693 5.38029C0.929643 7.15327 0.109497 9.32912 0.00385008 11.5965C-0.101796 13.8639 0.512471 16.1066 1.75875 18.0036C1.94801 17.6933 2.17164 17.4052 2.42542 17.145Z" fill="url(#paint1_linear_2089_52713)"/>
    <path d="M14.5841 24.381L8.29371 18.0906C6.93416 16.731 4.7299 16.731 3.37036 18.0906C2.01081 19.4501 2.01081 21.6544 3.37036 23.0139L9.66078 29.3043C11.0203 30.6639 13.2246 30.6639 14.5841 29.3043C15.9437 27.9448 15.9437 25.7405 14.5841 24.381Z" fill="url(#paint2_linear_2089_52713)"/>
    <path d="M28.8466 4.48778C26.8285 2.46969 24.0914 1.33594 21.2373 1.33594C18.3833 1.33594 15.6461 2.46969 13.628 4.48778L7.44531 10.6691L8.38931 11.6118C9.17042 12.391 10.2287 12.8286 11.332 12.8286C12.4353 12.8286 13.4935 12.391 14.2746 11.6118L16.6653 9.22378L27.8973 20.6584L28.8493 19.7064C30.8674 17.6883 32.0012 14.9512 32.0012 12.0971C32.0012 9.24307 30.8674 6.50592 28.8493 4.48778H28.8466Z" fill="url(#paint3_linear_2089_52713)"/>
  </g>
  <defs>
    <linearGradient id="paint0_linear_2089_52713" x1="15.679" y1="17.3823" x2="23.6139" y2="31.9781" gradientUnits="userSpaceOnUse">
      <stop stop-color="#2357C6"/>
      <stop offset="1" stop-color="#5EA8FF"/>
    </linearGradient>
    <linearGradient id="paint1_linear_2089_52713" x1="-0.189544" y1="1.17264" x2="10.5789" y2="20.293" gradientUnits="userSpaceOnUse">
      <stop stop-color="#2357C6"/>
      <stop offset="1" stop-color="#5EA8FF"/>
    </linearGradient>
    <linearGradient id="paint2_linear_2089_52713" x1="5.74126" y1="15.4393" x2="0.165053" y2="24.0833" gradientUnits="userSpaceOnUse">
      <stop stop-color="#2357C6"/>
      <stop offset="1" stop-color="#5EA8FF"/>
    </linearGradient>
    <linearGradient id="paint3_linear_2089_52713" x1="7.13836" y1="1.14205" x2="16.9612" y2="26.5474" gradientUnits="userSpaceOnUse">
      <stop stop-color="#2357C6"/>
      <stop offset="1" stop-color="#5EA8FF"/>
    </linearGradient>
    <clipPath id="clip0_2089_52713">
      <rect width="32" height="32" fill="white"/>
    </clipPath>
  </defs>
</svg>