<svg xmlns="http://www.w3.org/2000/svg" width="25" height="24" viewBox="0 0 25 24" fill="none">
  <path d="M7.68984 21.5914C7.17752 21.5914 6.76172 21.1756 6.76172 20.6633V18.807C6.76172 18.2947 7.17752 17.8789 7.68984 17.8789C8.20217 17.8789 8.61797 18.2947 8.61797 18.807V20.6633C8.61797 21.1756 8.20217 21.5914 7.68984 21.5914Z" fill="url(#paint0_linear_1256_37874)"/>
  <path d="M18.2094 21.5914C17.6971 21.5914 17.2812 21.1756 17.2812 20.6633V18.807C17.2812 18.2947 17.6971 17.8789 18.2094 17.8789C18.7217 17.8789 19.1375 18.2947 19.1375 18.807V20.6633C19.1375 21.1756 18.7217 21.5914 18.2094 21.5914Z" fill="url(#paint1_linear_1256_37874)"/>
  <path d="M18.2102 2.41016H7.69141C5.81412 2.41016 4.28828 3.93599 4.28828 5.81328V6.12266H3.97891C3.46658 6.12266 3.05078 6.53846 3.05078 7.05078C3.05078 7.56311 3.46658 7.97891 3.97891 7.97891H4.28828V10.1445H3.97891C3.46658 10.1445 3.05078 10.5603 3.05078 11.0727C3.05078 11.585 3.46658 12.0008 3.97891 12.0008H4.28828V14.1664H3.97891C3.46658 14.1664 3.05078 14.5822 3.05078 15.0945C3.05078 15.6069 3.46658 16.0227 3.97891 16.0227H4.28828V16.332C4.28828 18.2093 5.81412 19.7352 7.69141 19.7352H18.2102C20.0874 19.7352 21.6133 18.2093 21.6133 16.332V5.81328C21.6133 3.93599 20.0874 2.41016 18.2102 2.41016ZM13.8789 12.1258V14.1664C13.8789 14.6787 13.4631 15.0945 12.9508 15.0945C12.4385 15.0945 12.0227 14.6787 12.0227 14.1664V12.1258C11.1168 11.7582 10.4758 10.8709 10.4758 9.83516C10.4758 8.47019 11.5858 7.36016 12.9508 7.36016C14.3157 7.36016 15.4258 8.47019 15.4258 9.83516C15.4258 10.8709 14.7848 11.7582 13.8789 12.1258Z" fill="url(#paint2_linear_1256_37874)"/>
  <defs>
    <linearGradient id="paint0_linear_1256_37874" x1="2.81875" y1="2.21769" x2="14.5212" y2="25.2657" gradientUnits="userSpaceOnUse">
      <stop stop-color="#2357C6"/>
      <stop offset="1" stop-color="#5EA8FF"/>
    </linearGradient>
    <linearGradient id="paint1_linear_1256_37874" x1="2.81875" y1="2.21769" x2="14.5212" y2="25.2657" gradientUnits="userSpaceOnUse">
      <stop stop-color="#2357C6"/>
      <stop offset="1" stop-color="#5EA8FF"/>
    </linearGradient>
    <linearGradient id="paint2_linear_1256_37874" x1="2.81875" y1="2.21769" x2="14.5212" y2="25.2657" gradientUnits="userSpaceOnUse">
      <stop stop-color="#2357C6"/>
      <stop offset="1" stop-color="#5EA8FF"/>
    </linearGradient>
  </defs>
</svg>