<svg xmlns="http://www.w3.org/2000/svg" width="32" height="32" viewBox="0 0 32 32" fill="none">
  <path d="M11.0543 15.7426C13.4567 15.7426 15.4043 13.7303 15.4043 11.248C15.4043 8.76566 13.4567 6.75335 11.0543 6.75335C8.65182 6.75335 6.70423 8.76566 6.70423 11.248C6.70423 13.7303 8.65182 15.7426 11.0543 15.7426Z" fill="#2357C6"/>
  <path d="M20.9392 11.6572C23.3417 11.6572 25.2893 9.6449 25.2893 7.16259C25.2893 4.68028 23.3417 2.66797 20.9392 2.66797C18.5367 2.66797 16.5892 4.68028 16.5892 7.16259C16.5892 9.6449 18.5367 11.6572 20.9392 11.6572Z" fill="#2357C6"/>
  <path d="M29.1585 19.1729C27.8756 15.6556 24.5727 13.2923 20.9392 13.2923C18.6978 13.2923 16.586 14.1961 14.9931 15.7112C17.9258 16.87 20.3476 19.2562 21.4929 22.3943C21.67 22.8781 21.7491 23.3798 21.7808 23.8816C23.6964 23.7999 25.5914 23.4566 27.42 22.8258C28.1413 22.5773 28.7393 22.0298 29.0667 21.3237C29.3831 20.6373 29.4163 19.8724 29.16 19.1729H29.1585Z" fill="#2357C6"/>
  <path d="M19.2732 23.2582C17.9903 19.741 14.6874 17.3776 11.054 17.3776C7.4205 17.3776 4.11762 19.741 2.83475 23.2582C2.5785 23.9594 2.61171 24.7227 2.92808 25.4091C3.25394 26.1152 3.85346 26.6627 4.57477 26.9111C6.67071 27.6336 8.85206 28.0013 11.054 28.0013C13.2559 28.0013 15.4372 27.6336 17.5332 26.9111C18.2545 26.6627 18.8524 26.1152 19.1799 25.4091C19.4962 24.7227 19.5294 23.9578 19.2732 23.2582Z" fill="#2357C6"/>
</svg>