<svg xmlns="http://www.w3.org/2000/svg" width="32" height="32" viewBox="0 0 32 32" fill="none">
  <path d="M19.2701 22.668V23.7791H12.7247V22.668H3.9974V28.2235C3.9974 28.8369 4.48612 29.3346 5.0883 29.3346H26.9065C27.5087 29.3346 27.9974 28.8369 27.9974 28.2235V22.668H19.2701Z" fill="#2357C6"/>
  <path d="M28.2196 7.0013H21.5529V3.7513C21.5529 3.1533 21.0552 2.66797 20.4418 2.66797H11.553C10.9396 2.66797 10.4418 3.1533 10.4418 3.7513V7.0013H3.77517C3.16184 7.0013 2.66406 7.48664 2.66406 8.08464V18.918C2.66406 19.516 3.16184 20.0013 3.77517 20.0013H12.6641V17.8346H19.3307V20.0013H28.2196C28.8329 20.0013 29.3307 19.516 29.3307 18.918V8.08464C29.3307 7.48664 28.8329 7.0013 28.2196 7.0013ZM19.3307 7.0013H12.6641V4.83464H19.3307V7.0013Z" fill="#2357C6"/>
</svg>