<svg xmlns="http://www.w3.org/2000/svg" width="32" height="32" viewBox="0 0 33 32" fill="none">
  <g clip-path="url(#clip0_1256_49020)">
    <path d="M10.8098 26.4422C10.9769 26.4742 11.1494 26.4867 11.4943 26.5116C12.2107 26.6022 12.8934 26.0956 12.9912 25.3649C13.089 24.6342 12.5752 23.964 11.8445 23.868C11.7254 23.852 11.6027 23.8431 11.4818 23.836C11.4196 23.8325 11.3592 23.8325 11.3023 23.8218C10.2267 23.6173 9.19028 23.2316 8.22851 22.6751C7.79473 22.4245 7.25606 22.4405 6.83651 22.7125C6.35117 23.0289 5.48006 23.3951 4.53428 23.6565C5.12628 22.0796 5.28806 20.3 4.64451 19.0911C3.78584 17.6049 3.33251 15.9178 3.33251 14.2165C3.33073 8.82623 7.71651 4.44223 13.1049 4.44223C16.5414 4.44223 19.6632 6.20757 21.4569 9.16401C21.8392 9.79157 22.6569 9.99245 23.2881 9.61201C23.9174 9.22979 24.1201 8.41023 23.7378 7.7809C21.4552 4.0209 17.4801 1.77734 13.1049 1.77734C6.24628 1.77557 0.664062 7.35601 0.664062 14.2165C0.664062 16.3871 1.24184 18.5329 2.31206 20.3853C2.60895 20.9436 2.19651 23.2387 1.05517 24.3818C0.683618 24.7533 0.564507 25.3098 0.752951 25.8005C0.939618 26.2911 1.40006 26.6271 1.92451 26.6556C2.05428 26.6627 2.18406 26.6662 2.31917 26.6662C4.08273 26.6662 6.16273 26.0671 7.57784 25.3542C8.60362 25.8662 9.68806 26.2325 10.8098 26.444V26.4422Z" fill="#2357C6"/>
    <path d="M31.4104 25.539C32.23 24.1221 32.6638 22.5097 32.6638 20.8794C32.6638 15.7328 28.4771 11.5461 23.3304 11.5461C18.1838 11.5461 13.9953 15.7328 13.9953 20.8794C13.9953 26.0261 18.182 30.2128 23.3304 30.2128C23.9082 30.2128 24.4878 30.1594 25.0549 30.051C25.8335 29.9034 26.5909 29.6563 27.3126 29.315C28.374 29.8145 29.846 30.2181 31.1082 30.2181C31.2095 30.2181 31.3073 30.2163 31.4033 30.211C31.9295 30.1825 32.39 29.8465 32.5766 29.3559C32.7651 28.8652 32.646 28.3088 32.2744 27.9372C31.606 27.2688 31.3002 25.8608 31.4104 25.539Z" fill="#2357C6"/>
  </g>
  <defs>
    <clipPath id="clip0_1256_49020">
      <rect width="32" height="32" fill="white" transform="translate(0.664062)"/>
    </clipPath>
  </defs>
</svg>