<svg xmlns="http://www.w3.org/2000/svg" width="98" height="96" viewBox="0 0 98 96" fill="none">
  <g clip-path="url(#clip0_1256_49028)">
    <path d="M28.2642 -68.7392C-9.42138 -31.0536 -9.42138 30.047 28.2642 67.7325C65.9497 105.418 127.05 105.423 164.736 67.7325C202.421 30.0425 202.421 -31.0581 164.736 -68.7437C127.05 -106.429 65.9497 -106.429 28.2642 -68.7437M130.381 33.3637C123.683 40.0616 115.149 44.6229 105.859 46.4709C96.5687 48.3189 86.9392 47.3705 78.188 43.7456C69.4368 40.1208 61.9571 33.9823 56.6946 26.1065C51.4321 18.2306 48.6232 8.97114 48.6232 -0.501068C48.6232 -9.97327 51.4321 -19.2328 56.6946 -27.1086C61.9571 -34.9844 69.4368 -41.1229 78.188 -44.7477C86.9392 -48.3726 96.5687 -49.321 105.859 -47.473C115.149 -45.6251 123.683 -41.0637 130.381 -34.3659C139.362 -25.3843 144.408 -13.2028 144.408 -0.501068C144.408 12.2007 139.362 24.3822 130.381 33.3637Z" fill="#68A9DC"/>
  </g>
  <defs>
    <clipPath id="clip0_1256_49028">
      <rect width="193" height="193" fill="white" transform="translate(0 -97)"/>
    </clipPath>
  </defs>
</svg>