<svg xmlns="http://www.w3.org/2000/svg" width="33" height="32" viewBox="0 0 33 32" fill="none">
  <path d="M26.4551 9.25368V15.9998C28.3178 15.9998 29.8281 14.4895 29.8281 12.6267C29.8281 10.764 28.3178 9.25368 26.4551 9.25368Z" fill="#2357C6"/>
  <path d="M14.3079 20.2228H8.74658C8.66985 20.2228 8.59648 20.2136 8.52059 20.211L11.6137 27.8181C12.0319 28.857 13.0363 29.4903 14.0945 29.4903C14.4251 29.4903 14.7607 29.4287 15.0862 29.298C16.4464 28.7482 17.1101 27.1915 16.5645 25.8288L14.3079 20.2228Z" fill="#2357C6"/>
  <path d="M24.2837 2.59445C23.9869 2.45699 23.6369 2.50169 23.3864 2.70997C23.3375 2.75045 18.5073 6.73149 14.6503 6.73149H8.74658C5.49243 6.73064 2.84375 9.37849 2.84375 12.6335C2.84375 15.8885 5.49243 18.5363 8.74658 18.5363H14.6494C18.5065 18.5363 23.3375 22.5173 23.3856 22.5578C23.5399 22.686 23.7313 22.7526 23.9253 22.7526C24.0476 22.7526 24.169 22.7265 24.2837 22.6725C24.5797 22.5334 24.7686 22.2357 24.7686 21.9094V3.3576C24.7686 3.03041 24.5788 2.73358 24.2837 2.59445Z" fill="#2357C6"/>
</svg>