<svg xmlns="http://www.w3.org/2000/svg" width="32" height="32" viewBox="0 0 33 32" fill="none">
  <g clip-path="url(#clip0_1256_49062)">
    <path d="M23.8923 0.890625C19.2363 0.890625 15.4478 4.67907 15.4478 9.33507C15.4478 10.8106 15.8407 12.2684 16.5412 13.4702C16.6425 13.7973 16.3723 14.9688 15.8372 15.504C15.4656 15.8755 15.3465 16.432 15.535 16.9226C15.7216 17.4151 16.1821 17.7493 16.7083 17.7777C16.7954 17.7813 16.8861 17.7848 16.975 17.7848C18.0914 17.7848 19.3927 17.4346 20.3492 16.9973C20.9803 17.2924 21.6452 17.5057 22.3296 17.6355C22.8434 17.7315 23.3678 17.7813 23.8887 17.7813C28.5447 17.7813 32.3332 13.9928 32.3332 9.33685C32.3332 4.68085 28.5483 0.890625 23.8923 0.890625Z" fill="#2357C6"/>
    <path d="M8.4274 20.4462C11.1275 20.4462 13.3163 18.2574 13.3163 15.5573C13.3163 12.8572 11.1275 10.6684 8.4274 10.6684C5.72734 10.6684 3.53851 12.8572 3.53851 15.5573C3.53851 18.2574 5.72734 20.4462 8.4274 20.4462Z" fill="#2357C6"/>
    <path d="M1.67006 29.7795H15.1847C15.6114 29.7795 16.015 29.5751 16.2638 29.2284C16.5127 28.8817 16.5856 28.4373 16.4505 28.0302C15.3092 24.5564 12.0861 22.224 8.42562 22.224C4.76517 22.224 1.54562 24.5564 0.402507 28.0302C0.269173 28.4373 0.338507 28.8817 0.589173 29.2284C0.83984 29.5751 1.2434 29.7795 1.67006 29.7795Z" fill="#2357C6"/>
  </g>
  <defs>
    <clipPath id="clip0_1256_49062">
      <rect width="32" height="32" fill="white" transform="translate(0.335938)"/>
    </clipPath>
  </defs>
</svg>