<svg xmlns="http://www.w3.org/2000/svg" width="32" height="32" viewBox="0 0 33 32" fill="none">
  <path d="M19.1224 28.9357C19.1239 29.499 18.6731 29.964 18.1098 29.964H9.49841C8.89009 29.964 8.42323 29.4255 8.49679 28.8216C8.6241 27.7766 8.7239 26.7249 8.80179 25.6579L8.65875 25.8585C8.47332 26.1183 8.2874 26.3778 8.10148 26.6372L8.07908 26.6685L7.87497 26.9549C6.59441 28.7392 6.59441 28.7392 5.63823 29.0032C4.85526 29.1109 4.23946 28.9883 3.57876 28.5249C3.13042 28.1671 2.80856 27.8021 2.69284 27.219C2.52577 25.7358 3.10472 24.907 3.94736 23.7623L4.14883 23.4858C4.35356 23.2056 4.5593 22.9262 4.76552 22.6472L4.95531 22.3903C6.04395 20.9207 7.15385 19.469 8.29582 18.0422C8.63052 17.6239 8.95694 17.2006 9.27906 16.772C9.70653 16.2244 10.1737 15.7454 10.8745 15.6221C11.1064 15.6169 11.3384 15.6184 11.5703 15.624L11.9989 15.6325L12.2277 15.6374C12.6498 15.6451 13.072 15.6472 13.4941 15.6492L13.6988 15.6502C14.1269 15.6528 14.5546 15.6582 14.9826 15.6699C17.0815 15.7246 18.6359 15.6733 20.263 14.1396C20.5897 13.8455 20.9505 13.6144 21.3185 13.3787L21.3197 13.378C22.7776 12.396 24.115 11.3154 25.3659 10.0696C25.5088 9.92734 25.6521 9.78558 25.7959 9.64431C25.9349 9.50762 26.0729 9.36978 26.2095 9.23061C27.1956 8.26302 28.3957 8.06478 29.6083 8.74989C30.122 9.1268 30.5083 9.62529 30.6195 10.2696C30.6375 10.4643 30.6484 10.6597 30.6536 10.8551L30.6659 11.1565C30.5351 12.1133 29.926 12.7126 29.2724 13.3558L29.2286 13.3989L28.9729 13.657C28.4475 14.1837 27.9071 14.6884 27.3468 15.176L27.1693 15.3315C26.0271 16.3197 24.7954 17.1689 23.553 18.0187C23.0801 18.3424 22.6097 18.6698 22.14 18.9983L21.5111 19.4374C21.375 19.5325 21.239 19.6277 21.1031 19.723C20.9133 19.8559 20.7232 19.9884 20.5331 20.1208L20.2031 20.3514C19.9288 20.5285 19.9288 20.5285 19.6016 20.64L19.6057 20.8343C19.6151 21.6186 19.5566 22.3871 19.4822 23.1673L19.4077 23.9857C19.3684 24.4099 19.329 24.8341 19.2891 25.2583C19.1718 26.5148 19.1192 27.7263 19.1224 28.9357Z" fill="#2357C6"/>
  <path d="M21.0507 8.85485C21.0104 7.16669 20.3766 5.69246 19.1826 4.49902C17.2636 3.11439 15.2028 2.54039 12.9577 3.55119C11.4213 4.34028 10.4372 5.48542 9.85552 7.14039C9.39282 8.75382 9.65124 10.2914 10.349 11.7776C11.083 13.1525 12.2794 14.0106 13.7081 14.51C15.1458 14.9258 16.6471 14.8213 17.9698 14.0779L18.1803 13.9494C18.6066 13.6951 19.0043 13.4299 19.3671 13.0861C20.4713 11.869 21.0217 10.5061 21.0507 8.85485Z" fill="#2357C6"/>
</svg>