<svg width="91" height="90" viewBox="0 0 91 90" fill="none" xmlns="http://www.w3.org/2000/svg">
<path d="M28.4106 28.4142C-9.4702 66.2938 -9.4702 127.709 28.4106 165.589C66.2914 203.468 127.709 203.473 165.589 165.589C203.47 127.704 203.47 66.2893 165.589 28.4097C127.709 -9.4699 66.2914 -9.4699 28.4106 28.4097M131.056 131.043C124.324 137.775 115.746 142.36 106.407 144.218C97.0691 146.075 87.3896 145.122 78.5931 141.478C69.7966 137.835 62.2781 131.665 56.9883 123.748C51.6986 115.832 48.8752 106.525 48.8752 97.0037C48.8752 87.4827 51.6986 78.1755 56.9883 70.2591C62.2781 62.3427 69.7966 56.1727 78.5931 52.5292C87.3896 48.8857 97.0691 47.9324 106.407 49.7899C115.746 51.6473 124.324 56.2321 131.056 62.9645C140.084 71.9923 145.156 84.2365 145.156 97.0037C145.156 109.771 140.084 122.015 131.056 131.043Z" fill="#2C57A4"/>
</svg>
