<svg width="221" height="183" viewBox="0 0 221 183" fill="none" xmlns="http://www.w3.org/2000/svg">
<path d="M57.2606 57.2678C-19.0868 133.613 -19.0868 257.393 57.2606 333.738C133.608 410.083 257.392 410.092 333.739 333.738C410.087 257.384 410.087 133.604 333.739 57.2587C257.392 -19.0862 133.608 -19.0862 57.2606 57.2587M264.139 264.112C250.57 277.681 233.281 286.922 214.46 290.665C195.639 294.409 176.131 292.488 158.402 285.144C140.673 277.801 125.519 265.365 114.858 249.41C104.197 233.455 98.5062 214.697 98.5062 195.507C98.5062 176.318 104.197 157.56 114.858 141.605C125.519 125.65 140.673 113.214 158.402 105.871C176.131 98.5273 195.639 96.606 214.46 100.35C233.281 104.093 250.57 113.334 264.139 126.903C282.334 145.098 292.557 169.776 292.557 195.507C292.557 221.239 282.334 245.917 264.139 264.112Z" fill="url(#paint0_linear_2034_50234)"/>
<defs>
<linearGradient id="paint0_linear_2034_50234" x1="-151.5" y1="542" x2="447.403" y2="-217.966" gradientUnits="userSpaceOnUse">
<stop stop-color="#191E38"/>
<stop offset="0.815186" stop-color="#3058A5"/>
<stop offset="0.97" stop-color="#5FAFDD"/>
<stop offset="1" stop-color="#5FAFDD"/>
</linearGradient>
</defs>
</svg>
