<svg width="135" height="180" viewBox="0 0 135 180" fill="none" xmlns="http://www.w3.org/2000/svg">
<path d="M172.025 112.614C190.83 99.6873 220.579 95.0464 270 90C219.915 84.8845 190.015 80.1919 171.268 66.8622C176.478 55.9292 185.242 43.5029 197.571 27.65C198.5 26.4589 196.935 24.934 195.767 25.8921C180.417 38.4594 168.325 47.4705 157.616 52.9773C144.686 34.1725 140.048 4.42308 135.001 -45C129.886 5.0877 125.19 34.9838 111.861 53.734C100.927 48.5235 88.501 39.7598 72.6508 27.4285C71.4597 26.5021 69.9348 28.0643 70.89 29.2325C83.4603 44.5847 92.4686 56.6773 97.9755 67.3859C79.1704 80.3128 49.4207 84.9535 0 90C50.0854 95.1155 79.9847 99.8081 98.7321 113.138C93.5216 124.071 84.7607 136.497 72.4293 152.35C71.5 153.541 73.0651 155.066 74.2332 154.111C89.5828 141.541 101.675 132.532 112.384 127.023C125.314 145.828 129.952 175.58 135.004 225C140.12 174.912 144.812 145.016 158.142 126.269C169.075 131.476 181.502 140.24 197.352 152.572C198.543 153.498 200.068 151.936 199.113 150.768C186.543 135.415 177.534 123.323 172.027 112.614" fill="url(#paint0_linear_2034_50138)"/>
<defs>
<linearGradient id="paint0_linear_2034_50138" x1="299.549" y1="91.0587" x2="2.72055" y2="91.0587" gradientUnits="userSpaceOnUse">
<stop stop-color="#191E38"/>
<stop offset="0.451976" stop-color="#3058A5"/>
<stop offset="0.97" stop-color="#5FAFDD"/>
<stop offset="1" stop-color="#5FAFDD"/>
</linearGradient>
</defs>
</svg>
