<svg width="467" height="322" viewBox="0 0 467 322" fill="none" xmlns="http://www.w3.org/2000/svg">
<mask id="mask0_2034_50235" style="mask-type:luminance" maskUnits="userSpaceOnUse" x="-83" y="-355" width="530" height="736">
<path d="M30.0813 -354.768C31.3851 -333.924 32.7631 -313.087 34.2153 -292.256C37.9786 -238.912 43.4103 -185.791 54.4684 -133.281C59.1462 -111.035 66.0486 -90.995 75.1757 -73.1612C93.3896 -79.149 111.557 -88.307 129.66 -100.783C171.056 -129.314 211.052 -160.106 249.723 -192.279C299.777 -233.907 347.893 -277.88 396.843 -320.842L397.01 -320.388C348.996 -265.376 299.934 -211.235 253.338 -155.036C224.002 -119.749 196.798 -82.7422 171.872 -44.2136C162.566 -29.9471 155.051 -14.5902 149.496 1.51117C166.672 10.2335 186.081 16.657 207.818 20.652C257.25 29.8007 307.331 36.2891 357.403 40.8495C374.691 42.4402 413.01 46.2855 439.456 49.5907C449.341 50.826 449.229 56.7067 439.344 57.9379C407.668 61.8833 357.186 67.5486 333.637 69.7508C287.95 73.9592 242.556 80.8925 197.696 90.5137C181.012 94.0085 164.824 99.5469 149.496 107.004C154.875 122.648 162.081 137.604 170.963 151.56C189.891 181.648 210.005 211.346 232.64 238.691C272.6 286.946 314.283 333.783 355.494 381H340.524C291.101 338.13 241.743 295.195 191.754 253.002C160.563 226.668 126.61 203.876 88.8662 187.58C84.1513 185.541 79.4333 183.712 74.7122 182.093C67.5708 196.817 62.1736 212.324 58.6302 228.3C50.7329 262.957 43.9572 298.18 40.6296 333.514C39.1465 349.34 37.787 365.168 36.5511 381H6.88983C5.20282 358.902 3.43246 336.811 1.57864 314.726C-1.86023 274.052 -9.77609 233.963 -24.9497 195.682C-26.8036 191.103 -28.7409 186.691 -30.8358 182.371C-34.5434 183.743 -38.1954 185.245 -41.866 186.922C-55.9258 193.331 -69.6525 200.446 -82.9932 208.241V-98.2528C-66.6031 -87.823 -48.9843 -79.4635 -30.5391 -73.3651C-23.3821 -88.1352 -17.9695 -103.689 -14.4107 -119.711C-6.58752 -154.007 0.160431 -188.914 3.43246 -223.906C7.51089 -267.471 10.5325 -311.138 13.4245 -354.805L30.0813 -354.768Z" fill="white"/>
</mask>
<g mask="url(#mask0_2034_50235)">
<path d="M358.535 -541.666L701.727 269.203L-3.90139 567.853L-347.093 -243.017L358.535 -541.666Z" fill="url(#paint0_linear_2034_50235)"/>
</g>
<defs>
<linearGradient id="paint0_linear_2034_50235" x1="-34.6055" y1="-479.913" x2="342.688" y2="411.528" gradientUnits="userSpaceOnUse">
<stop stop-color="#191E38"/>
<stop offset="0.289349" stop-color="#3058A5"/>
<stop offset="0.97" stop-color="#5FAFDD"/>
<stop offset="1" stop-color="#5FAFDD"/>
</linearGradient>
</defs>
</svg>
