<svg width="204" height="137" viewBox="0 0 204 137" fill="none" xmlns="http://www.w3.org/2000/svg">
<g filter="url(#filter0_ddd_1662_31693)">
<rect x="18.1875" y="7" width="176" height="103.041" rx="10.5047" transform="rotate(4 18.1875 7)" fill="white"/>
<rect x="18.1875" y="7" width="176" height="103.041" rx="10.5047" transform="rotate(4 18.1875 7)" fill="url(#paint0_linear_1662_31693)"/>
<path d="M104.211 38.3684C106.569 38.5332 108.614 36.7555 108.779 34.3976C108.944 32.0398 107.166 29.9947 104.808 29.8298C102.45 29.6649 100.405 31.4427 100.241 33.8005C100.076 36.1584 101.853 38.2035 104.211 38.3684Z" stroke="white" stroke-width="1.75079" stroke-linecap="round" stroke-linejoin="round"/>
<path d="M104.75 42.3641C104.481 42.3219 104.218 42.2661 103.943 42.2469C99.9831 41.9699 96.4202 44.1077 94.6766 47.4023C94.0204 48.6434 94.6191 50.1658 95.9248 50.6799C97.7846 51.4121 100.263 52.1284 103.238 52.3364C103.527 52.3565 103.791 52.3485 104.071 52.3587" stroke="white" stroke-width="1.75079" stroke-linecap="round" stroke-linejoin="round"/>
<mask id="mask0_1662_31693" style="mask-type:alpha" maskUnits="userSpaceOnUse" x="104" y="41" width="14" height="14">
<rect x="105.57" y="41.1836" width="12.4501" height="12.4501" transform="rotate(4 105.57 41.1836)" fill="#D9D9D9"/>
</mask>
<g mask="url(#mask0_1662_31693)">
<path d="M110.95 53.4385C110.174 53.3842 109.456 53.1867 108.795 52.8458C108.134 52.5049 107.567 52.0622 107.094 51.5178C106.62 50.9733 106.261 50.3498 106.016 49.6473C105.77 48.9446 105.674 48.2056 105.729 47.4301C105.783 46.6546 105.98 45.9364 106.321 45.2755C106.662 44.6147 107.105 44.0476 107.649 43.5743C108.194 43.101 108.817 42.7416 109.52 42.4961C110.222 42.2505 110.961 42.1549 111.737 42.2091C112.512 42.2633 113.231 42.4609 113.891 42.8018C114.552 43.1427 115.119 43.5853 115.593 44.1298C116.066 44.6742 116.425 45.2977 116.671 46.0003C116.916 46.7029 117.012 47.442 116.958 48.2174C116.904 48.993 116.706 49.7112 116.365 50.372C116.024 51.0329 115.582 51.6 115.037 52.0733C114.493 52.5465 113.869 52.9059 113.167 53.1515C112.464 53.397 111.725 53.4927 110.95 53.4385ZM111.071 51.8089C111.6 51.8459 112.116 51.7823 112.618 51.618C113.119 51.4538 113.573 51.1952 113.979 50.8422L111.343 47.82L111.622 43.8391C110.518 43.7619 109.551 44.0843 108.72 44.8063C107.89 45.5282 107.436 46.4412 107.359 47.5452C107.281 48.6491 107.604 49.6164 108.326 50.4469C109.048 51.2774 109.963 51.7314 111.071 51.8089Z" fill="white"/>
</g>
<path d="M66.7599 76.0785L67.3436 67.7301L64.6365 67.5408L64.7464 65.9689C66.5444 66.0245 67.6012 65.3846 67.9169 64.0495L69.9953 64.1948L69.1526 76.2458L66.7599 76.0785ZM73.5993 76.5568L74.1831 68.2084L71.4759 68.0191L71.5859 66.4472C73.3838 66.5027 74.4407 65.8629 74.7563 64.5277L76.8347 64.673L75.992 76.7241L73.5993 76.5568ZM81.0334 71.7939C80.1368 71.7312 79.4194 71.3651 78.8812 70.6956C78.3555 70.0153 78.1292 69.1512 78.2025 68.1033C78.2758 67.0554 78.6201 66.2312 79.2354 65.6307C79.8624 65.031 80.6241 64.7625 81.5207 64.8252C82.4289 64.8887 83.14 65.2602 83.6541 65.9397C84.1807 66.6083 84.4069 67.4724 84.3328 68.532C84.2595 69.5799 83.9152 70.4041 83.2999 71.0046C82.6971 71.5943 81.9416 71.8574 81.0334 71.7939ZM88.4707 77.8775C87.5741 77.8148 86.8567 77.4487 86.3185 76.7793C85.7928 76.099 85.5665 75.2349 85.6398 74.1869C85.7131 73.139 86.0574 72.3148 86.6727 71.7143C87.2996 71.1146 88.0614 70.8461 88.9579 70.9088C89.8661 70.9723 90.5773 71.3438 91.0914 72.0233C91.618 72.692 91.8442 73.5561 91.7701 74.6156C91.6968 75.6635 91.3525 76.4877 90.7372 77.0882C90.1344 77.6779 89.3788 77.941 88.4707 77.8775ZM80.7705 77.0582L87.7387 65.5057L89.2232 65.6095L82.2551 77.162L80.7705 77.0582ZM87.6968 75.8928C87.8795 76.2917 88.1688 76.505 88.5647 76.5327C88.9606 76.5603 89.2709 76.389 89.4957 76.0186C89.7322 75.649 89.8732 75.1382 89.9188 74.4862C89.9644 73.8341 89.8962 73.3028 89.7143 72.8923C89.5324 72.4818 89.2494 72.2631 88.8651 72.2362C88.4692 72.2085 88.1527 72.3853 87.9154 72.7665C87.6906 73.1369 87.555 73.6539 87.5086 74.3176C87.463 74.9697 87.5257 75.4947 87.6968 75.8928ZM80.2595 69.8092C80.4422 70.2081 80.7315 70.4213 81.1274 70.449C81.5233 70.4767 81.8336 70.3054 82.0584 69.935C82.2949 69.5654 82.4359 69.0546 82.4815 68.4025C82.5271 67.7505 82.4589 67.2192 82.277 66.8087C82.0951 66.3981 81.8121 66.1794 81.4278 66.1526C81.032 66.1249 80.7154 66.3017 80.4781 66.6829C80.2533 67.0533 80.1177 67.5703 80.0713 68.234C80.0257 68.886 80.0884 69.4111 80.2595 69.8092ZM95.6352 74.7806L95.7781 72.7372L100.511 73.0681L100.368 75.1116L95.6352 74.7806ZM108.622 79.269C107.108 79.1632 105.977 78.6979 105.227 77.8733C104.478 77.037 104.139 75.9485 104.209 74.6079L106.48 74.7667C106.46 76.3916 107.189 77.2558 108.668 77.3592C109.331 77.4056 109.861 77.273 110.257 76.9614C110.655 76.6382 110.874 76.1738 110.917 75.5684C110.957 74.9862 110.803 74.5191 110.453 74.167C110.103 73.8149 109.567 73.6136 108.845 73.5631L108.112 73.5119L108.238 71.7129L108.919 71.7606C109.501 71.8013 109.976 71.6941 110.345 71.4391C110.726 71.1849 110.934 70.8075 110.969 70.3068C111.002 69.8294 110.877 69.4404 110.594 69.1398C110.311 68.8275 109.908 68.6531 109.384 68.6164C108.732 68.5709 108.212 68.7276 107.825 69.0865C107.448 69.4464 107.226 69.9515 107.157 70.6019L104.886 70.4431C105.018 69.2354 105.481 68.3025 106.276 67.6444C107.07 66.9862 108.149 66.7048 109.511 66.8001C110.769 66.888 111.744 67.2487 112.437 67.8822C113.141 68.5164 113.459 69.3284 113.39 70.3181C113.303 71.5524 112.564 72.3431 111.17 72.6902L111.168 72.7252C112.759 73.2342 113.498 74.2922 113.386 75.899C113.303 77.0866 112.814 77.9709 111.919 78.5519C111.025 79.1212 109.926 79.3602 108.622 79.269ZM119.072 80.0173C117.546 79.9106 116.369 79.2609 115.54 78.0679C114.722 76.8758 114.38 75.325 114.514 73.4154C114.647 71.5059 115.208 70.0182 116.195 68.9523C117.182 67.8864 118.438 67.4067 119.963 67.5134C121.5 67.6209 122.672 68.2703 123.478 69.4616C124.296 70.642 124.638 72.1928 124.504 74.114C124.37 76.0236 123.816 77.5117 122.84 78.5784C121.876 79.646 120.62 80.1256 119.072 80.0173ZM119.231 77.9926C120.896 78.109 121.827 76.7583 122.024 73.9406C122.117 72.6132 121.985 71.5627 121.63 70.789C121.274 70.0154 120.672 69.5988 119.822 69.5394C118.96 69.4791 118.294 69.8069 117.822 70.5228C117.363 71.2395 117.087 72.2615 116.994 73.5889C116.901 74.9162 117.032 75.9668 117.388 76.7404C117.755 77.5149 118.369 77.9323 119.231 77.9926ZM128.381 75.1047C127.484 75.042 126.767 74.6759 126.228 74.0065C125.703 73.3262 125.476 72.4621 125.55 71.4142C125.623 70.3662 125.967 69.542 126.583 68.9415C127.21 68.3419 127.971 68.0734 128.868 68.1361C129.776 68.1996 130.487 68.571 131.001 69.2505C131.528 69.9192 131.754 70.7833 131.68 71.8428C131.607 72.8907 131.262 73.715 130.647 74.3155C130.044 74.9051 129.289 75.1682 128.381 75.1047ZM135.818 81.1883C134.921 81.1256 134.204 80.7596 133.666 80.0901C133.14 79.4098 132.914 78.5457 132.987 77.4978C133.06 76.4499 133.405 75.6257 134.02 75.0252C134.647 74.4255 135.409 74.157 136.305 74.2197C137.213 74.2832 137.925 74.6547 138.439 75.3342C138.965 76.0028 139.191 76.8669 139.117 77.9265C139.044 78.9744 138.7 79.7986 138.084 80.3991C137.482 80.9887 136.726 81.2518 135.818 81.1883ZM128.118 80.3691L135.086 68.8166L136.57 68.9204L129.602 80.4729L128.118 80.3691ZM135.044 79.2036C135.227 79.6025 135.516 79.8158 135.912 79.8435C136.308 79.8712 136.618 79.6998 136.843 79.3294C137.079 78.9598 137.22 78.449 137.266 77.797C137.312 77.145 137.243 76.6137 137.062 76.2031C136.88 75.7926 136.597 75.5739 136.212 75.547C135.816 75.5194 135.5 75.6961 135.263 76.0774C135.038 76.4477 134.902 76.9648 134.856 77.6285C134.81 78.2805 134.873 78.8056 135.044 79.2036ZM127.607 73.12C127.789 73.5189 128.079 73.7322 128.475 73.7599C128.871 73.7876 129.181 73.6162 129.406 73.2458C129.642 72.8762 129.783 72.3654 129.829 71.7134C129.874 71.0613 129.806 70.5301 129.624 70.1195C129.442 69.709 129.159 69.4903 128.775 69.4634C128.379 69.4357 128.063 69.6125 127.825 69.9937C127.601 70.3641 127.465 70.8812 127.419 71.5448C127.373 72.1969 127.436 72.7219 127.607 73.12Z" fill="white"/>
<path d="M27.509 94.8961L28.1203 86.1547L31.8247 86.4138C32.7457 86.4782 33.4289 86.7798 33.8745 87.3188C34.222 87.7362 34.3747 88.2465 34.3325 88.8497C34.2676 89.7788 33.7562 90.3573 32.7984 90.5852L32.7958 90.6219C33.3089 90.7806 33.7156 91.0548 34.016 91.4443C34.3169 91.8257 34.4477 92.2976 34.4084 92.86C34.3617 93.5284 34.1107 94.0718 33.6555 94.4905C33.1033 95.0088 32.3545 95.2349 31.409 95.1688L27.509 94.8961ZM28.6786 93.9827L31.4294 94.1751C32.0325 94.2173 32.4992 94.1025 32.8294 93.8307C33.1096 93.5718 33.2637 93.2427 33.2916 92.8434C33.3286 92.3136 33.1898 91.8984 32.875 91.598C32.5602 91.2975 32.1257 91.1279 31.5714 91.0891L28.894 90.9019L28.6786 93.9827ZM28.959 89.9727L31.4286 90.1454C31.9583 90.1825 32.3829 90.0852 32.7021 89.8536C33.0213 89.622 33.1966 89.2821 33.228 88.8338C33.2576 88.41 33.1421 88.0702 32.8815 87.8145C32.6297 87.5512 32.2592 87.4024 31.7702 87.3682L29.1539 87.1853L28.959 89.9727ZM35.2669 95.4386L35.8781 86.6972L36.8684 86.7665L36.2572 95.5078L35.2669 95.4386ZM42.6013 96.0129C41.9737 95.969 41.6329 95.6298 41.579 94.9954L41.5668 94.9945C40.9984 95.6264 40.2741 95.9116 39.3939 95.85C38.7663 95.8061 38.2633 95.6194 37.8851 95.2899C37.5068 94.9605 37.3376 94.5104 37.3775 93.9399C37.398 93.6465 37.4605 93.397 37.565 93.1913C37.6782 92.9781 37.8127 92.8114 37.9685 92.6913C38.1249 92.563 38.3328 92.4587 38.5923 92.3786C38.8606 92.2909 39.1146 92.2308 39.3543 92.1985C39.5947 92.1579 39.9003 92.122 40.271 92.0906C40.5097 92.0745 40.6785 92.0617 40.7774 92.0523C40.8851 92.0352 41.0218 92.012 41.1877 91.9827C41.3541 91.9452 41.4719 91.9002 41.5411 91.8477C41.6103 91.7952 41.6769 91.722 41.7408 91.6282C41.8046 91.5344 41.8411 91.4223 41.8503 91.2919C41.8753 90.9333 41.7681 90.6514 41.5285 90.4463C41.2977 90.2335 40.9582 90.1115 40.5099 90.0802C39.4911 90.0089 38.9329 90.4367 38.8353 91.3636L37.8817 91.2969C37.943 90.6542 38.1993 90.152 38.6505 89.7904C39.1098 89.4294 39.7429 89.2771 40.5498 89.3335C42.1065 89.4424 42.8382 90.1652 42.7447 91.5018L42.5344 94.5094C42.515 94.7865 42.5462 94.9852 42.6279 95.1056C42.7177 95.2265 42.895 95.2676 43.1598 95.2288L43.1965 95.2314L43.146 95.9527C42.9785 96.0065 42.7969 96.0265 42.6013 96.0129ZM39.6669 95.1074C40.2782 95.1502 40.7632 95.008 41.1219 94.6809C41.4811 94.3456 41.6756 93.9661 41.7052 93.5423L41.7804 92.4664C41.4657 92.6328 40.974 92.754 40.3053 92.8301C40.0574 92.8619 39.863 92.8893 39.7221 92.9122C39.5819 92.9269 39.4195 92.9647 39.2351 93.0255C39.0512 93.0782 38.9116 93.1422 38.8163 93.2174C38.7209 93.2926 38.6358 93.3972 38.5609 93.5312C38.4866 93.6571 38.4431 93.8097 38.4306 93.989C38.3827 94.6736 38.7948 95.0464 39.6669 95.1074ZM46.5641 96.4005C45.6431 96.3361 44.9236 95.9664 44.4057 95.2913C43.8959 94.6169 43.6741 93.8069 43.7402 92.8614C43.8063 91.916 44.1387 91.1448 44.7374 90.5478C45.3442 89.9514 46.1081 89.6854 47.0291 89.7498C47.7708 89.8016 48.3641 90.0438 48.8089 90.4762C49.2542 90.9005 49.5103 91.4549 49.5771 92.1393L48.5746 92.0692C48.5315 91.6321 48.3717 91.2811 48.0954 91.016C47.8191 90.751 47.4446 90.6019 46.9718 90.5689C46.3198 90.5233 45.7979 90.7243 45.4063 91.172C45.0227 91.6202 44.8056 92.207 44.7549 92.9324C44.7042 93.6578 44.8375 94.2691 45.1549 94.7663C45.4811 95.256 45.9702 95.5236 46.6222 95.5692C47.1275 95.6045 47.5404 95.4983 47.8607 95.2504C48.1817 94.9944 48.3799 94.6192 48.4554 94.1248L49.4335 94.1932C49.3153 94.9467 49.005 95.5188 48.5026 95.9095C48.0008 96.2922 47.3546 96.4558 46.5641 96.4005ZM54.3706 96.7744L52.3718 93.207L51.3811 94.0223L51.2041 96.553L50.2138 96.4838L50.8251 87.7424L51.8154 87.8116L51.4572 92.9342L54.4213 90.4264L55.6806 90.5144L53.1009 92.6192L55.532 96.8556L54.3706 96.7744ZM63.1109 96.5993C62.5122 97.1963 61.7523 97.4626 60.8313 97.3982C59.9103 97.3338 59.1909 96.9641 58.6729 96.289C58.1632 95.6145 57.9413 94.8045 58.0074 93.8591C58.0736 92.9136 58.406 92.1424 59.0046 91.5454C59.6115 90.949 60.3754 90.683 61.2964 90.7474C62.2174 90.8118 62.9328 91.1813 63.4426 91.8558C63.9523 92.5303 64.1742 93.3402 64.1081 94.2857C64.042 95.2311 63.7096 96.0024 63.1109 96.5993ZM59.4222 95.764C59.7483 96.2536 60.2374 96.5213 60.8895 96.5669C61.5415 96.6125 62.059 96.4152 62.442 95.9752C62.8255 95.5269 63.0426 94.9401 63.0933 94.2147C63.1446 93.4812 63.0072 92.8696 62.6811 92.3799C62.3637 91.8827 61.883 91.6116 61.2391 91.5666C60.5871 91.521 60.0652 91.722 59.6736 92.1696C59.29 92.6179 59.0729 93.2047 59.0222 93.9301C58.9715 94.6554 59.1048 95.2668 59.4222 95.764ZM66.1372 97.5972L64.5742 91.1364L65.6378 91.2107L66.4776 95.1885L66.7251 96.5695L66.7495 96.5712C66.9105 96.0255 67.0476 95.5887 67.1606 95.2608L68.4986 91.4108L69.5378 91.4834L70.2904 95.4797L70.5028 96.8337L70.5273 96.8354C70.6964 96.2903 70.8462 95.8462 70.9767 95.5031L72.4231 91.6852L73.45 91.757L70.9419 97.9332L69.9272 97.8623L69.1434 93.9621L68.93 92.6203L68.9056 92.6186C68.7544 93.1404 68.6177 93.5732 68.4954 93.9168L67.1642 97.669L66.1372 97.5972ZM75.1662 91.877L75.1081 92.7084L75.1325 92.7101C75.6672 92.0922 76.3583 91.8129 77.2059 91.8722C77.8743 91.919 78.3837 92.1307 78.7341 92.5074C79.0845 92.884 79.2369 93.3984 79.1913 94.0504L78.881 98.4884L77.8907 98.4191L78.195 94.0668C78.2235 93.6593 78.1191 93.3366 77.8819 93.0989C77.6452 92.853 77.3027 92.7144 76.8544 92.6831C76.3491 92.6477 75.922 92.7817 75.5732 93.0849C75.2244 93.3881 75.032 93.7965 74.9961 94.3099L74.7242 98.1977L73.7339 98.1285L74.1759 91.8078L75.1662 91.877ZM82.8829 98.9402C81.9456 98.8747 81.2218 98.5087 80.7115 97.8424C80.2098 97.1685 79.9924 96.3547 80.0591 95.4011C80.1246 94.4638 80.4567 93.6966 81.0554 93.0997C81.6628 92.4951 82.4066 92.2236 83.2869 92.2852C84.216 92.3501 84.9105 92.7263 85.3702 93.4137C85.8305 94.0929 86.023 94.9704 85.9478 96.0463L81.0575 95.7043C81.0516 96.3755 81.209 96.9353 81.5298 97.3836C81.8594 97.8244 82.3298 98.0661 82.9411 98.1089C83.8865 98.175 84.4995 97.7837 84.78 96.9352L85.7458 97.0027C85.5518 97.669 85.2053 98.173 84.7064 98.5149C84.208 98.8486 83.6002 98.9904 82.8829 98.9402ZM84.5149 93.6979C84.2221 93.317 83.7945 93.1069 83.2322 93.0676C82.6698 93.0283 82.2084 93.1844 81.848 93.5359C81.4958 93.8881 81.2578 94.3628 81.1341 94.9603L84.9363 95.2262C84.9482 94.5881 84.8077 94.0787 84.5149 93.6979ZM88.1441 92.7845L88.0705 93.8359L88.095 93.8376C88.3221 93.5177 88.6058 93.2673 88.9461 93.0863C89.2869 92.8972 89.657 92.8166 90.0564 92.8445C90.2031 92.8548 90.3359 92.8886 90.4547 92.9461L90.388 93.8997L90.3514 93.8971C90.232 93.8478 90.0867 93.8172 89.9155 93.8052C89.4102 93.7699 88.9657 93.919 88.582 94.2525C88.1988 94.5779 87.9873 95.0259 87.9474 95.5964L87.7021 99.1052L86.7118 99.036L87.1538 92.7153L88.1441 92.7845ZM93.2859 99.6799C92.4219 99.6195 91.7629 99.381 91.3088 98.9643C90.8634 98.54 90.6414 97.9675 90.6426 97.2469L91.6574 97.3178C91.7059 98.2631 92.2763 98.7739 93.3684 98.8503C93.8656 98.8851 94.2389 98.817 94.4884 98.646C94.7466 98.4675 94.8865 98.2234 94.9082 97.9137C94.9316 97.5795 94.8302 97.3308 94.6041 97.1676C94.378 97.0044 93.9557 96.8356 93.3372 96.6613C93.0804 96.586 92.8757 96.5267 92.7231 96.4832C92.5793 96.4322 92.4037 96.3667 92.1963 96.2867C91.9895 96.1985 91.8279 96.1094 91.7113 96.0193C91.6035 95.9217 91.4927 95.8075 91.379 95.6767C91.2653 95.5459 91.1862 95.3888 91.1416 95.2055C91.1053 95.0228 91.0948 94.8214 91.1102 94.6013C91.1478 94.0634 91.373 93.6532 91.7859 93.3709C92.207 93.0891 92.7802 92.9736 93.5056 93.0243C95.0052 93.1292 95.7863 93.8472 95.8489 95.1784L94.8341 95.1074C94.8143 94.6883 94.6928 94.3768 94.4695 94.1728C94.2468 93.9607 93.8991 93.8381 93.4264 93.805C92.9944 93.7748 92.6665 93.8379 92.4426 93.9942C92.2274 94.143 92.1105 94.3518 92.0917 94.6208C92.07 94.9305 92.1769 95.1591 92.4123 95.3066C92.6482 95.446 93.0836 95.6034 93.7184 95.7788C94.1039 95.8877 94.4041 95.9865 94.619 96.0752C94.8427 96.1564 95.0717 96.2789 95.3059 96.4427C95.5407 96.5983 95.7069 96.7983 95.8045 97.0427C95.9021 97.287 95.9386 97.5844 95.9141 97.9349C95.8708 98.5543 95.6092 99.0152 95.1295 99.3174C94.6502 99.6115 94.0357 99.7324 93.2859 99.6799ZM98.3422 91.0651L98.1148 94.3172L98.1393 94.3189C98.6739 93.701 99.365 93.4217 100.213 93.481C100.881 93.5277 101.39 93.7395 101.741 94.1161C102.091 94.4928 102.244 95.0072 102.198 95.6592L101.888 100.097L100.897 100.028L101.202 95.6756C101.23 95.268 101.126 94.9454 100.889 94.7077C100.652 94.4618 100.309 94.3232 99.8611 94.2918C99.3558 94.2565 98.9287 94.3904 98.5799 94.6937C98.2311 94.9969 98.0387 95.4052 98.0028 95.9187L97.731 99.8065L96.7407 99.7372L97.3519 90.9959L98.3422 91.0651ZM103.2 100.189L103.642 93.8682L104.632 93.9375L104.19 100.258L103.2 100.189ZM103.726 92.6701L103.811 91.4475L104.801 91.5168L104.716 92.7394L103.726 92.6701ZM105.398 102.382L105.982 94.0319L106.972 94.1011L106.91 94.9936L106.934 94.9953C107.496 94.3384 108.197 94.0393 109.036 94.098C109.851 94.155 110.487 94.4984 110.942 95.1281C111.398 95.7497 111.59 96.5781 111.518 97.6132C111.447 98.632 111.145 99.4259 110.614 99.9948C110.084 100.556 109.39 100.806 108.535 100.746C107.687 100.687 107.044 100.331 106.607 99.6777L106.582 99.676L106.388 102.451L105.398 102.382ZM108.519 99.9098C109.106 99.9508 109.57 99.7539 109.912 99.3192C110.254 98.8844 110.45 98.2962 110.502 97.5545C110.554 96.8128 110.441 96.2029 110.163 95.7248C109.886 95.2386 109.458 94.9752 108.879 94.9348C108.219 94.8886 107.702 95.0899 107.326 95.5387C106.951 95.9793 106.739 96.5623 106.688 97.2877C106.636 98.0294 106.757 98.6399 107.051 99.1191C107.345 99.5983 107.835 99.8619 108.519 99.9098ZM114.09 102.99L114.674 94.6396L115.664 94.7089L115.601 95.6014L115.626 95.6031C116.188 94.9462 116.888 94.6471 117.728 94.7058C118.543 94.7628 119.178 95.1062 119.634 95.7359C120.09 96.3575 120.282 97.1859 120.21 98.221C120.138 99.2398 119.837 100.034 119.306 100.603C118.775 101.163 118.082 101.414 117.226 101.354C116.379 101.295 115.736 100.939 115.298 100.286L115.274 100.284L115.08 103.059L114.09 102.99ZM117.211 100.518C117.798 100.559 118.262 100.362 118.604 99.9269C118.945 99.4922 119.142 98.9039 119.194 98.1622C119.246 97.4206 119.133 96.8107 118.855 96.3326C118.578 95.8463 118.15 95.583 117.571 95.5425C116.911 95.4964 116.393 95.6977 116.018 96.1465C115.643 96.5871 115.43 97.1701 115.38 97.8955C115.328 98.6372 115.449 99.2477 115.743 99.7269C116.037 100.206 116.526 100.47 117.211 100.518ZM123.667 101.792C122.73 101.727 122.006 101.361 121.496 100.694C120.994 100.02 120.776 99.2066 120.843 98.253C120.909 97.3157 121.241 96.5486 121.84 95.9516C122.447 95.347 123.191 95.0755 124.071 95.1371C125 95.202 125.695 95.5782 126.154 96.2656C126.615 96.9448 126.807 97.8223 126.732 98.8982L121.842 98.5562C121.836 99.2274 121.993 99.7872 122.314 100.236C122.643 100.676 123.114 100.918 123.725 100.961C124.671 101.027 125.284 100.636 125.564 99.7871L126.53 99.8546C126.336 100.521 125.989 101.025 125.49 101.367C124.992 101.7 124.384 101.842 123.667 101.792ZM125.299 96.5498C125.006 96.1689 124.579 95.9588 124.016 95.9195C123.454 95.8802 122.993 96.0363 122.632 96.3878C122.28 96.74 122.042 97.2148 121.918 97.8122L125.72 98.0781C125.732 97.44 125.592 96.9306 125.299 96.5498ZM128.928 95.6364L128.855 96.6878L128.879 96.6895C129.106 96.3696 129.39 96.1192 129.73 95.9382C130.071 95.7491 130.441 95.6685 130.841 95.6964C130.987 95.7067 131.12 95.7405 131.239 95.798L131.172 96.7516L131.135 96.749C131.016 96.6997 130.871 96.6691 130.7 96.6571C130.194 96.6218 129.75 96.7709 129.366 97.1044C128.983 97.4298 128.771 97.8778 128.732 98.4483L128.486 101.957L127.496 101.888L127.938 95.5672L128.928 95.6364ZM134.138 102.524C133.217 102.46 132.497 102.09 131.979 101.415C131.47 100.741 131.248 99.9306 131.314 98.9852C131.38 98.0397 131.712 97.2685 132.311 96.6715C132.918 96.0751 133.682 95.8091 134.603 95.8735C135.344 95.9254 135.938 96.1675 136.382 96.6C136.828 97.0242 137.084 97.5786 137.151 98.2631L136.148 98.193C136.105 97.7559 135.945 97.4048 135.669 97.1398C135.393 96.8747 135.018 96.7257 134.545 96.6926C133.893 96.647 133.372 96.8481 132.98 97.2957C132.596 97.7439 132.379 98.3307 132.329 99.0561C132.278 99.7815 132.411 100.393 132.729 100.89C133.055 101.38 133.544 101.647 134.196 101.693C134.701 101.728 135.114 101.622 135.434 101.374C135.755 101.118 135.954 100.743 136.029 100.249L137.007 100.317C136.889 101.07 136.579 101.643 136.076 102.033C135.574 102.416 134.928 102.58 134.138 102.524ZM140.477 102.968C139.54 102.902 138.816 102.536 138.306 101.87C137.804 101.196 137.587 100.382 137.653 99.4285C137.719 98.4912 138.051 97.724 138.65 97.1271C139.257 96.5225 140.001 96.251 140.881 96.3126C141.81 96.3775 142.505 96.7537 142.965 97.4411C143.425 98.1203 143.617 98.9978 143.542 100.074L138.652 99.7317C138.646 100.403 138.803 100.963 139.124 101.411C139.454 101.852 139.924 102.094 140.536 102.136C141.481 102.202 142.094 101.811 142.374 100.963L143.34 101.03C143.146 101.696 142.8 102.2 142.301 102.542C141.802 102.876 141.195 103.018 140.477 102.968ZM142.109 97.7253C141.817 97.3444 141.389 97.1343 140.827 97.095C140.264 97.0557 139.803 97.2118 139.442 97.5633C139.09 97.9155 138.852 98.3902 138.729 98.9877L142.531 99.2536C142.543 98.6155 142.402 98.1061 142.109 97.7253ZM145.739 96.8119L145.68 97.6433L145.705 97.645C146.239 97.0271 146.931 96.7478 147.778 96.8071C148.447 96.8539 148.956 97.0656 149.306 97.4423C149.657 97.8189 149.809 98.3333 149.764 98.9853L149.453 103.423L148.463 103.354L148.767 99.0017C148.796 98.5941 148.691 98.2715 148.454 98.0338C148.217 97.7879 147.875 97.6493 147.427 97.6179C146.921 97.5826 146.494 97.7166 146.145 98.0198C145.797 98.323 145.604 98.7313 145.568 99.2448L145.297 103.133L144.306 103.063L144.748 96.7427L145.739 96.8119ZM150.628 97.9647L150.684 97.1578L151.601 97.2219L151.741 95.2291L152.731 95.2983L152.592 97.2911L153.814 97.3766L153.758 98.1835L152.535 98.098L152.248 102.206C152.221 102.597 152.419 102.808 152.843 102.837C153.022 102.85 153.199 102.833 153.374 102.788L153.411 102.791L153.351 103.647C153.078 103.685 152.811 103.695 152.551 103.677C151.621 103.612 151.185 103.172 151.242 102.357L151.545 98.0288L150.628 97.9647ZM159.354 104.177C158.727 104.133 158.386 103.794 158.332 103.16L158.32 103.159C157.751 103.791 157.027 104.076 156.147 104.014C155.519 103.97 155.016 103.784 154.638 103.454C154.26 103.125 154.09 102.675 154.13 102.104C154.151 101.811 154.213 101.561 154.318 101.355C154.431 101.142 154.566 100.976 154.721 100.855C154.878 100.727 155.086 100.623 155.345 100.543C155.613 100.455 155.867 100.395 156.107 100.363C156.348 100.322 156.653 100.286 157.024 100.255C157.263 100.239 157.431 100.226 157.53 100.216C157.638 100.199 157.775 100.176 157.941 100.147C158.107 100.109 158.225 100.064 158.294 100.012C158.363 99.9593 158.43 99.8862 158.494 99.7924C158.558 99.6986 158.594 99.5864 158.603 99.456C158.628 99.0974 158.521 98.8155 158.281 98.6104C158.051 98.3977 157.711 98.2757 157.263 98.2443C156.244 98.1731 155.686 98.6009 155.588 99.5278L154.635 99.4611C154.696 98.8183 154.952 98.3162 155.403 97.9546C155.863 97.5936 156.496 97.4413 157.303 97.4977C158.859 97.6066 159.591 98.3293 159.498 99.666L159.287 102.674C159.268 102.951 159.299 103.149 159.381 103.27C159.471 103.391 159.648 103.432 159.913 103.393L159.949 103.396L159.899 104.117C159.731 104.171 159.55 104.191 159.354 104.177ZM156.42 103.272C157.031 103.314 157.516 103.172 157.875 102.845C158.234 102.51 158.428 102.13 158.458 101.706L158.533 100.631C158.219 100.797 157.727 100.918 157.058 100.994C156.81 101.026 156.616 101.053 156.475 101.076C156.335 101.091 156.172 101.129 155.988 101.19C155.804 101.242 155.665 101.306 155.569 101.382C155.474 101.457 155.389 101.561 155.314 101.695C155.239 101.821 155.196 101.974 155.184 102.153C155.136 102.838 155.548 103.211 156.42 103.272ZM162.999 106.484C162.192 106.427 161.567 106.228 161.124 105.886C160.688 105.552 160.462 105.106 160.443 104.548L161.36 104.612C161.405 105.262 161.961 105.625 163.029 105.699C164.235 105.784 164.876 105.284 164.952 104.2L165.014 103.307L164.99 103.306C164.714 103.614 164.428 103.84 164.132 103.983C163.835 104.126 163.475 104.183 163.051 104.153C162.236 104.096 161.592 103.756 161.12 103.133C160.647 102.511 160.443 101.743 160.507 100.83C160.573 99.8764 160.883 99.1363 161.436 98.6099C161.997 98.084 162.661 97.8478 163.427 97.9014C164.258 97.9595 164.88 98.3224 165.292 98.99L165.316 98.9918L165.372 98.1849L166.363 98.2541L165.945 104.232C165.888 105.039 165.597 105.629 165.072 106.002C164.553 106.383 163.862 106.544 162.999 106.484ZM163.158 103.325C164.438 103.415 165.132 102.677 165.242 101.112C165.346 99.6204 164.754 98.8296 163.466 98.7395C162.888 98.6991 162.429 98.8759 162.09 99.2699C161.759 99.6645 161.57 100.212 161.521 100.913C161.472 101.614 161.587 102.183 161.868 102.621C162.149 103.05 162.579 103.285 163.158 103.325ZM169.955 105.029C169.018 104.963 168.294 104.597 167.784 103.931C167.282 103.257 167.065 102.443 167.131 101.49C167.197 100.552 167.529 99.7853 168.128 99.1884C168.735 98.5838 169.479 98.3123 170.359 98.3738C171.288 98.4388 171.983 98.815 172.442 99.5024C172.903 100.182 173.095 101.059 173.02 102.135L168.13 101.793C168.124 102.464 168.281 103.024 168.602 103.472C168.932 103.913 169.402 104.155 170.013 104.198C170.959 104.264 171.572 103.872 171.852 103.024L172.818 103.091C172.624 103.758 172.278 104.262 171.779 104.604C171.28 104.937 170.672 105.079 169.955 105.029ZM171.587 99.7865C171.294 99.4057 170.867 99.1956 170.304 99.1563C169.742 99.117 169.281 99.2731 168.92 99.6246C168.568 99.9768 168.33 100.452 168.206 101.049L172.009 101.315C172.02 100.677 171.88 100.167 171.587 99.7865Z" fill="white"/>
</g>
<defs>
<filter id="filter0_ddd_1662_31693" x="0.076629" y="0.0710508" width="204.605" height="136.913" filterUnits="userSpaceOnUse" color-interpolation-filters="sRGB">
<feFlood flood-opacity="0" result="BackgroundImageFix"/>
<feColorMatrix in="SourceAlpha" type="matrix" values="0 0 0 0 0 0 0 0 0 0 0 0 0 0 0 0 0 0 127 0" result="hardAlpha"/>
<feMorphology radius="1.99721" operator="erode" in="SourceAlpha" result="effect1_dropShadow_1662_31693"/>
<feOffset dy="1.99721"/>
<feGaussianBlur stdDeviation="1.99721"/>
<feColorMatrix type="matrix" values="0 0 0 0 0.0627451 0 0 0 0 0.0941176 0 0 0 0 0.156863 0 0 0 0.06 0"/>
<feBlend mode="normal" in2="BackgroundImageFix" result="effect1_dropShadow_1662_31693"/>
<feColorMatrix in="SourceAlpha" type="matrix" values="0 0 0 0 0 0 0 0 0 0 0 0 0 0 0 0 0 0 127 0" result="hardAlpha"/>
<feMorphology radius="1.99721" operator="erode" in="SourceAlpha" result="effect2_dropShadow_1662_31693"/>
<feOffset dy="3.99442"/>
<feGaussianBlur stdDeviation="6.46029"/>
<feColorMatrix type="matrix" values="0 0 0 0 0.0627451 0 0 0 0 0.0941176 0 0 0 0 0.156863 0 0 0 0.1 0"/>
<feBlend mode="normal" in2="effect1_dropShadow_1662_31693" result="effect2_dropShadow_1662_31693"/>
<feColorMatrix in="SourceAlpha" type="matrix" values="0 0 0 0 0 0 0 0 0 0 0 0 0 0 0 0 0 0 127 0" result="hardAlpha"/>
<feMorphology radius="4.96604" operator="dilate" in="SourceAlpha" result="effect3_dropShadow_1662_31693"/>
<feOffset/>
<feComposite in2="hardAlpha" operator="out"/>
<feColorMatrix type="matrix" values="0 0 0 0 0.137255 0 0 0 0 0.341176 0 0 0 0 0.776471 0 0 0 0.1 0"/>
<feBlend mode="normal" in2="effect2_dropShadow_1662_31693" result="effect3_dropShadow_1662_31693"/>
<feBlend mode="normal" in="SourceGraphic" in2="effect3_dropShadow_1662_31693" result="shape"/>
</filter>
<linearGradient id="paint0_linear_1662_31693" x1="19.6887" y1="69.06" x2="57.6961" y2="144.1" gradientUnits="userSpaceOnUse">
<stop stop-color="#2357C6"/>
<stop offset="1" stop-color="#5EA8FF"/>
</linearGradient>
</defs>
</svg>
