<svg xmlns="http://www.w3.org/2000/svg" width="16" height="16" viewBox="0 0 16 16" fill="none">
  <path d="M14.5625 13.6333H1.4375C1.32147 13.6333 1.21019 13.679 1.12814 13.7603C1.04609 13.8415 1 13.9517 1 14.0667C1 14.1816 1.04609 14.2918 1.12814 14.3731C1.21019 14.4543 1.32147 14.5 1.4375 14.5H14.5625C14.6785 14.5 14.7898 14.4543 14.8719 14.3731C14.9539 14.2918 15 14.1816 15 14.0667C15 13.9517 14.9539 13.8415 14.8719 13.7603C14.7898 13.679 14.6785 13.6333 14.5625 13.6333Z" fill="white"/>
  <path d="M4.5 6.26667H1.875C1.63338 6.26667 1.4375 6.46068 1.4375 6.7V12.3333C1.4375 12.5727 1.63338 12.7667 1.875 12.7667H4.5C4.74162 12.7667 4.9375 12.5727 4.9375 12.3333V6.7C4.9375 6.46068 4.74162 6.26667 4.5 6.26667Z" fill="white"/>
  <path d="M9.3125 1.5H6.6875C6.44588 1.5 6.25 1.69401 6.25 1.93333V12.3333C6.25 12.5727 6.44588 12.7667 6.6875 12.7667H9.3125C9.55412 12.7667 9.75 12.5727 9.75 12.3333V1.93333C9.75 1.69401 9.55412 1.5 9.3125 1.5Z" fill="white"/>
  <path d="M14.125 8.43333H11.5C11.2584 8.43333 11.0625 8.62734 11.0625 8.86667V12.3333C11.0625 12.5727 11.2584 12.7667 11.5 12.7667H14.125C14.3666 12.7667 14.5625 12.5727 14.5625 12.3333V8.86667C14.5625 8.62734 14.3666 8.43333 14.125 8.43333Z" fill="white"/>
</svg>