<svg xmlns="http://www.w3.org/2000/svg" width="16" height="16" viewBox="0 0 16 16" fill="none">
  <path d="M15.0651 8.20731V7.37633C15.0651 6.57442 14.4128 5.9221 13.6109 5.9221H9.87143C9.06953 5.9221 8.4172 6.57442 8.4172 7.37633V8.20731C8.4172 8.32199 8.43382 8.43168 8.45875 8.53805C7.94603 8.76324 7.58621 9.2743 7.58621 9.86929V10.7003C7.58621 11.2953 7.94603 11.8063 8.45875 12.0315C8.43382 12.1379 8.4172 12.2484 8.4172 12.3623V13.1932C8.4172 13.9951 9.06953 14.6475 9.87143 14.6475H13.6109C14.4128 14.6475 15.0651 13.9951 15.0651 13.1932V12.3623C15.0651 11.7673 14.7053 11.2562 14.1926 11.031C14.2175 10.9246 14.2341 10.8141 14.2341 10.7003V9.86929C14.2341 9.75461 14.2175 9.64492 14.1926 9.53856C14.7053 9.31336 15.0651 8.8023 15.0651 8.20731ZM9.66368 7.37633C9.66368 7.26165 9.75675 7.16858 9.87143 7.16858H13.6109C13.7256 7.16858 13.8186 7.26165 13.8186 7.37633V8.20731C13.8186 8.32199 13.7256 8.41506 13.6109 8.41506H9.87143C9.75675 8.41506 9.66368 8.32199 9.66368 8.20731V7.37633ZM13.8186 13.1932C13.8186 13.3079 13.7256 13.401 13.6109 13.401H9.87143C9.75675 13.401 9.66368 13.3079 9.66368 13.1932V12.3623C9.66368 12.2476 9.75675 12.1545 9.87143 12.1545H13.6109C13.7256 12.1545 13.8186 12.2476 13.8186 12.3623V13.1932Z" fill="#B2B3B3"/>
  <path d="M11.9481 1.35156H3.22272C1.96045 1.35156 0.9375 2.37451 0.9375 3.63678V9.0382C0.9375 10.3005 1.96045 11.3234 3.22272 11.3234H6.13117C6.4752 11.3234 6.75442 11.0442 6.75442 10.7002C6.75442 10.3561 6.4752 10.0769 6.13117 10.0769H4.61379C4.36532 8.85787 3.40304 7.89559 2.18398 7.64713V5.02868C3.40304 4.78022 4.36532 3.81793 4.61379 2.59887H10.5562C10.847 4.02485 12.1143 5.09932 13.6259 5.09184C13.9624 5.09018 14.2333 4.80515 14.2333 4.4686V3.63761C14.2333 2.37534 13.2104 1.35239 11.9481 1.35239V1.35156Z" fill="#B2B3B3"/>
  <path d="M7.16991 7.92218V7.37622C7.16991 6.10814 8.05159 5.04863 9.23159 4.76027C8.81526 4.32567 8.23274 4.05227 7.5854 4.05227C6.32479 4.05227 5.30019 5.07688 5.30019 6.33749C5.30019 7.30227 5.90265 8.12494 6.74943 8.459C6.86909 8.26455 7.00454 8.0809 7.16991 7.92218Z" fill="#B2B3B3"/>
</svg>