<svg xmlns="http://www.w3.org/2000/svg" width="32" height="32" viewBox="0 0 32 32" fill="none">
  <path d="M19.2614 22.6641V23.7752H12.7159V22.6641H3.98864V28.2196C3.98864 28.8329 4.47736 29.3307 5.07955 29.3307H26.8977C27.4999 29.3307 27.9886 28.8329 27.9886 28.2196V22.6641H19.2614Z" fill="#B2B3B3"/>
  <path d="M28.2118 6.9974H21.5451V3.7474C21.5451 3.1494 21.0474 2.66406 20.434 2.66406H11.5451C10.9318 2.66406 10.434 3.1494 10.434 3.7474V6.9974H3.76736C3.15403 6.9974 2.65625 7.48273 2.65625 8.08073V18.9141C2.65625 19.5121 3.15403 19.9974 3.76736 19.9974H12.6562V17.8307H19.3229V19.9974H28.2118C28.8251 19.9974 29.3229 19.5121 29.3229 18.9141V8.08073C29.3229 7.48273 28.8251 6.9974 28.2118 6.9974ZM19.3229 6.9974H12.6562V4.83073H19.3229V6.9974Z" fill="#B2B3B3"/>
</svg>