<svg xmlns="http://www.w3.org/2000/svg" width="16" height="16" viewBox="0 0 16 16" fill="none">
  <path fill-rule="evenodd" clip-rule="evenodd" d="M2.54688 2.6252V14.908L4.88454 13.3727L6.44298 14.908L8.00142 13.3727L9.55986 14.908L11.1183 13.3727L13.456 14.908V2.6252C13.456 2.218 13.2918 1.82747 12.9995 1.53954C12.7072 1.2516 12.3108 1.08984 11.8975 1.08984H4.10532C3.69199 1.08984 3.2956 1.2516 3.00333 1.53954C2.71107 1.82747 2.54688 2.218 2.54688 2.6252ZM10.5523 4.32262C10.7755 4.52865 10.7894 4.87661 10.5834 5.09981L6.21977 9.82709C6.01374 10.0503 5.66578 10.0642 5.44257 9.85818C5.21937 9.65214 5.20545 9.30418 5.41149 9.08098L9.77512 4.35371C9.98115 4.13051 10.3291 4.11659 10.5523 4.32262ZM5.26562 5.45355C5.26562 4.94897 5.67467 4.53992 6.17926 4.53992C6.68385 4.53992 7.0929 4.94897 7.0929 5.45355C7.0929 5.95814 6.68385 6.36719 6.17926 6.36719C5.67467 6.36719 5.26562 5.95814 5.26562 5.45355ZM9.81989 8.17676C9.3153 8.17676 8.90625 8.58581 8.90625 9.09039C8.90625 9.59498 9.3153 10.004 9.81989 10.004C10.3245 10.004 10.7335 9.59498 10.7335 9.09039C10.7335 8.58581 10.3245 8.17676 9.81989 8.17676Z" fill="#B2B3B3"/>
</svg>