<svg xmlns="http://www.w3.org/2000/svg" width="16" height="16" viewBox="0 0 16 16" fill="none">
  <g clip-path="url(#clip0_1256_51519)">
    <path d="M7.99574 0.890625C5.78419 0.890625 3.75219 1.91907 2.42419 3.59996L2.32019 2.84796C2.26863 2.48351 1.9273 2.22929 1.56819 2.27907C1.20286 2.32974 0.948633 2.66662 0.998411 3.03107L1.36108 5.64885C1.40819 5.98218 1.69352 6.22396 2.02063 6.22396C2.05086 6.22396 2.08197 6.22218 2.11308 6.21774L4.72997 5.85596C5.09441 5.80529 5.34952 5.4684 5.29974 5.10396C5.24908 4.73862 4.90597 4.48707 4.54774 4.53418L3.26063 4.71196C4.32641 3.17685 6.07663 2.22307 7.99486 2.22307C11.0144 2.22307 13.546 4.57951 13.7575 7.58929C13.7815 7.9404 14.0749 8.20885 14.4215 8.20885C14.4375 8.20885 14.4535 8.20885 14.4695 8.20707C14.8366 8.18129 15.114 7.86218 15.0873 7.49507C14.8269 3.79107 11.7122 0.890625 7.99574 0.890625Z" fill="#2357C6"/>
    <path d="M12.5495 13.225C12.9177 13.225 13.2161 12.9265 13.2161 12.5584C13.2161 12.1902 12.9177 11.8917 12.5495 11.8917C12.1813 11.8917 11.8828 12.1902 11.8828 12.5584C11.8828 12.9265 12.1813 13.225 12.5495 13.225Z" fill="#2357C6"/>
    <path d="M7.99479 15.1137C8.36298 15.1137 8.66146 14.8152 8.66146 14.447C8.66146 14.0788 8.36298 13.7804 7.99479 13.7804C7.6266 13.7804 7.32812 14.0788 7.32812 14.447C7.32812 14.8152 7.6266 15.1137 7.99479 15.1137Z" fill="#2357C6"/>
    <path d="M3.4362 13.225C3.80439 13.225 4.10286 12.9265 4.10286 12.5584C4.10286 12.1902 3.80439 11.8917 3.4362 11.8917C3.06801 11.8917 2.76953 12.1902 2.76953 12.5584C2.76953 12.9265 3.06801 13.225 3.4362 13.225Z" fill="#2357C6"/>
    <path d="M1.54948 8.6684C1.91767 8.6684 2.21615 8.36993 2.21615 8.00174C2.21615 7.63355 1.91767 7.33507 1.54948 7.33507C1.18129 7.33507 0.882812 7.63355 0.882812 8.00174C0.882812 8.36993 1.18129 8.6684 1.54948 8.6684Z" fill="#2357C6"/>
    <path d="M14.2035 9.85297C13.863 9.71164 13.4737 9.87342 13.3324 10.2139C13.191 10.5543 13.3528 10.9436 13.6933 11.085C14.0337 11.2263 14.423 11.0645 14.5644 10.7241C14.7057 10.3836 14.5439 9.99431 14.2035 9.85297Z" fill="#2357C6"/>
    <path d="M10.2046 13.3389C9.86417 13.4794 9.70328 13.8696 9.84372 14.21C9.98506 14.5496 10.3744 14.7114 10.7148 14.5709C11.0553 14.4305 11.2162 14.0403 11.0757 13.6998C10.9353 13.3594 10.5451 13.1985 10.2046 13.3389Z" fill="#2357C6"/>
    <path d="M5.78161 13.3393C5.44117 13.198 5.05184 13.3597 4.9105 13.7002C4.76917 14.0406 4.93095 14.43 5.27139 14.5713C5.61184 14.7126 6.00117 14.5509 6.1425 14.2104C6.28384 13.87 6.12206 13.4797 5.78161 13.3393Z" fill="#2357C6"/>
    <path d="M1.78664 9.8526C1.4462 9.99393 1.28531 10.3833 1.42576 10.7237C1.5662 11.0642 1.95642 11.225 2.29687 11.0846C2.63731 10.9442 2.7982 10.5539 2.65775 10.2135C2.51642 9.87304 2.12709 9.71216 1.78664 9.8526Z" fill="#2357C6"/>
    <path d="M8.02228 9.79966C7.397 9.79966 7.23362 9.52031 7.1562 9.24659C7.07681 8.96794 6.80452 8.81103 6.54141 8.89546C6.28159 8.98061 6.13527 9.27544 6.21401 9.55409C6.40494 10.2261 6.85898 10.6518 7.50788 10.796C7.51575 11.0803 7.73031 11.309 7.99735 11.309C8.26439 11.309 8.48025 11.0789 8.48682 10.7939C8.8339 10.7088 9.14753 10.5364 9.37848 10.2817C9.66127 9.97136 9.81087 9.56253 9.80168 9.13048C9.78134 8.24669 9.20133 7.6894 8.07739 7.47408C7.32154 7.32912 7.29202 7.00192 7.28152 6.89426C7.2638 6.68809 7.32285 6.59099 7.37009 6.5354C7.51903 6.36019 7.84119 6.28138 8.02228 6.28138C8.54587 6.28138 8.68956 6.64517 8.7368 6.76409C8.84309 7.03288 9.13375 7.15814 9.38111 7.04485C9.63175 6.93085 9.74919 6.62125 9.64225 6.35315C9.42179 5.79515 9.01171 5.42996 8.48878 5.29274V5.21956C8.48878 4.92825 8.26833 4.69182 7.99669 4.69182C7.72506 4.69182 7.5046 4.92825 7.5046 5.21956V5.30822C7.19688 5.39336 6.87538 5.54887 6.64114 5.82541C6.37869 6.13572 6.26125 6.54033 6.30193 6.99489C6.34261 7.45508 6.60637 8.26428 7.90352 8.51197C8.73614 8.6717 8.8116 8.92783 8.81684 9.15582C8.82078 9.30499 8.77223 9.43587 8.67381 9.54353C8.52815 9.70326 8.28473 9.79966 8.02228 9.79966Z" fill="#2357C6"/>
  </g>
  <defs>
    <clipPath id="clip0_1256_51519">
      <rect width="16" height="16" fill="white"/>
    </clipPath>
  </defs>
</svg>