<svg xmlns="http://www.w3.org/2000/svg" width="16" height="16" viewBox="0 0 16 16" fill="none">
  <path d="M13.7697 4.82574L10.2906 1.34663C9.99636 1.0524 9.60614 0.890625 9.19103 0.890625H4.22569C2.87725 0.890625 1.78125 1.98663 1.78125 3.33507V12.6684C1.78125 14.0168 2.87725 15.1128 4.22569 15.1128H11.7813C13.1297 15.1128 14.2257 14.0168 14.2257 12.6684V5.92529C14.2257 5.51018 14.0639 5.11907 13.7697 4.82574ZM5.11458 5.33507H6.89236C7.26036 5.33507 7.55903 5.63374 7.55903 6.00174C7.55903 6.36974 7.26036 6.6684 6.89236 6.6684H5.11458C4.74658 6.6684 4.44792 6.36974 4.44792 6.00174C4.44792 5.63374 4.74658 5.33507 5.11458 5.33507ZM10.8924 12.0017H5.11458C4.74658 12.0017 4.44792 11.7031 4.44792 11.3351C4.44792 10.9671 4.74658 10.6684 5.11458 10.6684H10.8924C11.2604 10.6684 11.559 10.9671 11.559 11.3351C11.559 11.7031 11.2604 12.0017 10.8924 12.0017ZM10.8924 9.33507H5.11458C4.74658 9.33507 4.44792 9.0364 4.44792 8.6684C4.44792 8.3004 4.74658 8.00174 5.11458 8.00174H10.8924C11.2604 8.00174 11.559 8.3004 11.559 8.6684C11.559 9.0364 11.2604 9.33507 10.8924 9.33507ZM12.8319 5.77951H10.2257C9.73681 5.77951 9.33681 5.37951 9.33681 4.89062V2.29418L9.34836 2.28974L12.8346 5.77507L12.8319 5.77951Z" fill="white"/>
</svg>