<svg xmlns="http://www.w3.org/2000/svg" width="16" height="16" viewBox="0 0 16 16" fill="none">
  <path d="M8.00174 7.3329C7.81951 7.3329 7.64707 7.37023 7.4844 7.42801L3.9164 3.86001C3.65596 3.59957 3.23374 3.59957 2.97329 3.86001C2.71285 4.12045 2.71285 4.54268 2.97329 4.80312L6.54129 8.37112C6.48351 8.53379 6.44618 8.70623 6.44618 8.88845C6.44618 9.74623 7.14396 10.444 8.00174 10.444C8.85951 10.444 9.55729 9.74623 9.55729 8.88845C9.55729 8.03068 8.85951 7.3329 8.00174 7.3329Z" fill="white"/>
  <path d="M13.0302 3.86001C13.0248 3.85468 13.0177 3.8529 13.0124 3.84845C11.7262 2.56934 9.95463 1.77734 8.00174 1.77734C6.97596 1.77734 5.98574 1.99157 5.05863 2.4129C4.72351 2.5649 4.57596 2.96045 4.72796 3.29557C4.87996 3.63068 5.2764 3.77823 5.61062 3.62623C6.16085 3.37645 6.73862 3.21823 7.33418 3.14979V4.2209C7.33418 4.5889 7.63285 4.88757 8.00085 4.88757C8.36885 4.88757 8.66751 4.5889 8.66751 4.2209V3.15157C9.76174 3.27779 10.7617 3.71157 11.5831 4.36312L10.8293 5.1169C10.5688 5.37734 10.5688 5.79957 10.8293 6.06001C10.9591 6.18979 11.1297 6.25557 11.3004 6.25557C11.4711 6.25557 11.6417 6.19068 11.7715 6.06001L12.5253 5.30623C13.1768 6.12757 13.6097 7.12757 13.7368 8.22179H12.6675C12.2995 8.22179 12.0008 8.52045 12.0008 8.88845C12.0008 9.25645 12.2995 9.55512 12.6675 9.55512H13.7226C13.6 10.6253 13.2008 11.6325 12.5306 12.476L11.7715 11.7169C11.5111 11.4565 11.0888 11.4565 10.8284 11.7169C10.568 11.9773 10.568 12.3996 10.8284 12.66L12.0853 13.9169C12.2151 14.0467 12.3857 14.1125 12.5564 14.1125C12.7271 14.1125 12.8977 14.0476 13.0275 13.9169C14.3706 12.5738 15.1102 10.788 15.1102 8.88845C15.1102 6.93557 14.3182 5.1649 13.0391 3.87779C13.0337 3.87245 13.0328 3.86534 13.0275 3.86001H13.0302Z" fill="white"/>
  <path d="M4.23018 11.7169L3.47107 12.476C2.80085 11.6333 2.40174 10.6253 2.27907 9.55512H3.33418C3.70218 9.55512 4.00085 9.25645 4.00085 8.88845C4.00085 8.52045 3.70218 8.22179 3.33418 8.22179H2.26307C2.33151 7.62534 2.48885 7.04757 2.73951 6.49823C2.89151 6.16312 2.74396 5.76757 2.40885 5.61557C2.07463 5.46445 1.67907 5.61112 1.52618 5.94623C1.10396 6.87334 0.890625 7.86357 0.890625 8.88934C0.890625 10.7889 1.63018 12.5747 2.97329 13.9178C3.10307 14.0476 3.27374 14.1133 3.4444 14.1133C3.61507 14.1133 3.78574 14.0485 3.91551 13.9178L5.1724 12.6609C5.43285 12.4005 5.43285 11.9782 5.1724 11.7178C4.91196 11.4573 4.48974 11.4573 4.22929 11.7178L4.23018 11.7169Z" fill="white"/>
</svg>