<svg xmlns="http://www.w3.org/2000/svg" width="16" height="16" viewBox="0 0 16 16" fill="none">
  <g clip-path="url(#clip0_1256_51569)">
    <path d="M10.696 8.96174C11.0408 8.75996 11.2471 8.40174 11.2471 8.00174C11.2471 7.60174 11.0408 7.24351 10.696 7.04174L7.45062 5.14929C7.10663 4.9484 6.68085 4.9484 6.33774 5.14574C5.99374 5.34396 5.7804 5.71285 5.7804 6.10929V9.89507C5.7804 10.2915 5.99374 10.6604 6.33774 10.8586C6.5084 10.9564 6.69951 11.0062 6.89151 11.0062C7.08529 11.0062 7.27907 10.9555 7.45151 10.856L10.6968 8.96263L10.696 8.96174Z" fill="#2357C6"/>
    <path d="M8.00174 0.890625C7.63374 0.890625 7.33507 1.18929 7.33507 1.55729C7.33507 1.92529 7.63374 2.22396 8.00174 2.22396C11.1875 2.22396 13.7795 4.81596 13.7795 8.00174C13.7795 11.1875 11.1875 13.7795 8.00174 13.7795C7.63374 13.7795 7.33507 14.0782 7.33507 14.4462C7.33507 14.8142 7.63374 15.1128 8.00174 15.1128C11.9226 15.1128 15.1128 11.9226 15.1128 8.00174C15.1128 4.08085 11.9226 0.890625 8.00174 0.890625Z" fill="#2357C6"/>
    <path d="M2.97329 12.0871C2.71285 12.3475 2.71285 12.7697 2.97329 13.0302C3.23374 13.2906 3.65596 13.2906 3.9164 13.0302C4.17685 12.7697 4.17685 12.3475 3.9164 12.0871C3.65596 11.8266 3.23374 11.8266 2.97329 12.0871Z" fill="#2357C6"/>
    <path d="M1.55729 8.6684C1.92548 8.6684 2.22396 8.36993 2.22396 8.00174C2.22396 7.63355 1.92548 7.33507 1.55729 7.33507C1.1891 7.33507 0.890625 7.63355 0.890625 8.00174C0.890625 8.36993 1.1891 8.6684 1.55729 8.6684Z" fill="#2357C6"/>
    <path d="M2.97329 2.97329C2.71285 3.23374 2.71285 3.65596 2.97329 3.9164C3.23374 4.17685 3.65596 4.17685 3.9164 3.9164C4.17685 3.65596 4.17685 3.23374 3.9164 2.97329C3.65596 2.71285 3.23374 2.71285 2.97329 2.97329Z" fill="#2357C6"/>
    <path d="M5.79107 13.3395C5.45062 13.1991 5.06129 13.36 4.91996 13.7004C4.77862 14.0408 4.9404 14.4302 5.28085 14.5715C5.62129 14.712 6.01063 14.5511 6.15196 14.2106C6.29329 13.8702 6.13151 13.48 5.79107 13.3395Z" fill="#2357C6"/>
    <path d="M1.79285 9.8524C1.4524 9.99285 1.29151 10.3831 1.43196 10.7235C1.57329 11.064 1.96263 11.2248 2.30307 11.0844C2.64351 10.944 2.8044 10.5537 2.66396 10.2133C2.52262 9.87285 2.13329 9.71196 1.79285 9.8524Z" fill="#2357C6"/>
    <path d="M2.30307 4.91996C1.96263 4.77862 1.57329 4.9404 1.43196 5.28085C1.29062 5.62129 1.4524 6.01151 1.79285 6.15196C2.13329 6.2924 2.52262 6.13151 2.66396 5.79107C2.80529 5.45062 2.64351 5.06129 2.30307 4.91996Z" fill="#2357C6"/>
    <path d="M5.79107 2.66396C6.13151 2.52351 6.2924 2.13329 6.15196 1.79285C6.01063 1.4524 5.62129 1.29151 5.28085 1.43196C4.9404 1.57329 4.77951 1.96263 4.91996 2.30307C5.0604 2.64351 5.45062 2.8044 5.79107 2.66396Z" fill="#2357C6"/>
  </g>
  <defs>
    <clipPath id="clip0_1256_51569">
      <rect width="16" height="16" fill="white"/>
    </clipPath>
  </defs>
</svg>