<svg xmlns="http://www.w3.org/2000/svg" width="16" height="16" viewBox="0 0 16 16" fill="none">
  <path d="M7.22703 12.4101C7.24418 12.2407 7.22407 12.0696 7.16811 11.9088C7.11214 11.748 7.02168 11.6014 6.90306 11.4792C6.78443 11.3571 6.64053 11.2624 6.48143 11.2017C6.32233 11.1411 6.15189 11.116 5.98207 11.1282C6.01293 10.9481 6.00117 10.7632 5.94773 10.5884C5.89429 10.4136 5.80066 10.2538 5.67434 10.1217C5.54802 9.98965 5.39252 9.88899 5.2203 9.82782C5.04807 9.76665 4.86392 9.74667 4.68258 9.76947C4.68673 9.60982 4.65843 9.45099 4.5994 9.30259C4.54037 9.1542 4.45183 9.01933 4.33915 8.90616C4.22903 8.79599 4.0983 8.7086 3.9544 8.64898C3.81051 8.58935 3.65627 8.55866 3.50051 8.55866C3.34476 8.55866 3.19052 8.58935 3.04663 8.64898C2.90273 8.7086 2.77199 8.79599 2.66188 8.90616L2.42234 9.1457C2.25468 9.31275 2.14094 9.52621 2.09578 9.75854C2.05063 9.99086 2.07613 10.2314 2.16901 10.4491C2.26189 10.6668 2.41788 10.8516 2.61684 10.9798C2.8158 11.108 3.04861 11.1736 3.28522 11.1681C3.2626 11.3494 3.28272 11.5335 3.34395 11.7056C3.40519 11.8778 3.50585 12.0332 3.63788 12.1595C3.76992 12.2857 3.92967 12.3794 4.10436 12.4329C4.27905 12.4864 4.46384 12.4983 4.64395 12.4676C4.63247 12.6308 4.65534 12.7947 4.7111 12.9485C4.76685 13.1024 4.85423 13.2429 4.96762 13.3609C5.08101 13.4789 5.21787 13.5718 5.36939 13.6336C5.5209 13.6954 5.68369 13.7248 5.84727 13.7199C5.84811 13.9967 5.95864 14.2619 6.15464 14.4574C6.35197 14.6547 6.61958 14.7655 6.89861 14.7655C7.17765 14.7655 7.44526 14.6547 7.64259 14.4574L7.90016 14.1998C8.04363 14.0574 8.14286 13.8766 8.18589 13.6791C8.22892 13.4816 8.21391 13.2759 8.14267 13.0867C8.07144 12.8975 7.94701 12.733 7.7844 12.613C7.62178 12.4929 7.42792 12.4225 7.22617 12.4101H7.22703Z" fill="white
  "/>
  <path d="M14.4332 1.88672H10.0973C9.33498 1.88551 8.59427 2.14006 7.99375 2.60966C7.39323 2.14006 6.65253 1.88551 5.8902 1.88672H1.5543C1.44044 1.88672 1.33125 1.93195 1.25074 2.01246C1.17023 2.09297 1.125 2.20216 1.125 2.31602V7.89688C1.125 8.01074 1.17023 8.11993 1.25074 8.20044C1.33125 8.28095 1.44044 8.32618 1.5543 8.32618C1.66815 8.32618 1.77735 8.28095 1.85786 8.20044C1.93836 8.11993 1.98359 8.01074 1.98359 7.89688V2.74532H5.8902C6.41441 2.74453 6.9262 2.90488 7.35625 3.20466L4.99297 5.56837C4.80347 5.7565 4.69091 6.00851 4.67726 6.27518C4.66362 6.54185 4.74988 6.80403 4.91918 7.01051C5.08849 7.217 5.32869 7.35295 5.59286 7.39183C5.85704 7.4307 6.12622 7.3697 6.34783 7.22074L9.39841 5.18716L13.378 9.16631C13.4368 9.22511 13.4834 9.29491 13.5153 9.37174C13.5471 9.44857 13.5635 9.53091 13.5635 9.61407C13.5635 9.69722 13.5471 9.77956 13.5153 9.85639C13.4834 9.93322 13.4368 10.003 13.378 10.0618C13.2574 10.1769 13.0971 10.2411 12.9305 10.2411C12.7638 10.2411 12.6035 10.1769 12.4829 10.0618L11.3023 8.88126C11.2214 8.80306 11.1129 8.75979 11.0004 8.76076C10.8878 8.76174 10.7801 8.80689 10.7005 8.88649C10.621 8.96608 10.5758 9.07375 10.5748 9.18631C10.5738 9.29887 10.6171 9.40732 10.6953 9.48828L11.9939 10.7869C12.1127 10.9057 12.1794 11.0667 12.1794 11.2347C12.1794 11.4026 12.1127 11.5637 11.9939 11.6824C11.8752 11.8012 11.7141 11.8679 11.5462 11.8679C11.3782 11.8679 11.2172 11.8012 11.0984 11.6824L9.7998 10.3838C9.71884 10.3056 9.6104 10.2623 9.49784 10.2633C9.38527 10.2643 9.2776 10.3094 9.19801 10.389C9.11841 10.4686 9.07326 10.5763 9.07228 10.6889C9.07131 10.8014 9.11458 10.9099 9.19278 10.9908L10.1583 11.9567C10.2468 12.0453 10.3071 12.1581 10.3315 12.2809C10.356 12.4036 10.3435 12.5309 10.2956 12.6466C10.2477 12.7623 10.1666 12.8612 10.0626 12.9308C9.95851 13.0004 9.83614 13.0376 9.71094 13.0377C9.59708 13.0377 9.48789 13.0829 9.40738 13.1634C9.32687 13.244 9.28164 13.3531 9.28164 13.467C9.28164 13.5809 9.32687 13.6901 9.40738 13.7706C9.48789 13.8511 9.59708 13.8963 9.71094 13.8963C10.0599 13.897 10.398 13.7748 10.6659 13.5511C10.9338 13.3275 11.1144 13.0167 11.1761 12.6732C11.2968 12.706 11.4211 12.7236 11.5462 12.7256C11.7421 12.7258 11.9361 12.6873 12.1171 12.6125C12.2981 12.5376 12.4626 12.4278 12.6011 12.2894C12.7397 12.1509 12.8496 11.9865 12.9245 11.8055C12.9995 11.6245 13.038 11.4305 13.038 11.2347C13.038 11.1879 13.029 11.1428 13.0247 11.0969C13.3869 11.0765 13.729 10.9237 13.9859 10.6676C14.2652 10.3876 14.422 10.0082 14.422 9.61278C14.422 9.21731 14.2652 8.83798 13.9859 8.558L13.9803 8.55242L14.7419 7.76809C14.8198 7.68751 14.8631 7.57966 14.8625 7.46758V2.31602C14.8625 2.20216 14.8173 2.09297 14.7368 2.01246C14.6563 1.93195 14.5471 1.88672 14.4332 1.88672Z" fill="white
  "/>
</svg>