<svg xmlns="http://www.w3.org/2000/svg" width="100" height="100" viewBox="0 0 100 100" fill="none">
  <mask id="mask0_1256_51403" style="mask-type:alpha" maskUnits="userSpaceOnUse" x="0" y="0" width="100" height="100">
    <rect width="100" height="100" fill="#B2B3B3"/>
  </mask>
  <g mask="url(#mask0_1256_51403)">
    <path d="M19.9369 85.4193C17.8565 85.4193 16.0956 84.6901 14.6543 83.2318C13.2129 81.7734 12.4922 79.9918 12.4922 77.887V22.1182C12.4922 20.0134 13.2129 18.2318 14.6543 16.7734C16.0956 15.3151 17.8565 14.5859 19.9369 14.5859H75.0572C77.1376 14.5859 78.8984 15.3151 80.3398 16.7734C81.7812 18.2318 82.5019 20.0134 82.5019 22.1182V77.887C82.5019 79.9918 81.7812 81.7734 80.3398 83.2318C78.8984 84.6901 77.1376 85.4193 75.0572 85.4193H19.9369ZM19.9369 79.1693H75.0572C75.3743 79.1693 75.6646 79.0356 75.9282 78.7682C76.1924 78.5016 76.3246 78.2078 76.3246 77.887V22.1182C76.3246 21.7974 76.1924 21.5036 75.9282 21.237C75.6646 20.9696 75.3743 20.8359 75.0572 20.8359H19.9369C19.6198 20.8359 19.3295 20.9696 19.0659 21.237C18.8016 21.5036 18.6695 21.7974 18.6695 22.1182V77.887C18.6695 78.2078 18.8016 78.5016 19.0659 78.7682C19.3295 79.0356 19.6198 79.1693 19.9369 79.1693ZM25.8764 69.7943H69.4338L55.892 51.5255L44.3291 66.7495L36.0927 56.0922L25.8764 69.7943Z" fill="#B2B3B3"/>
  </g>
</svg>