<svg xmlns="http://www.w3.org/2000/svg" width="16" height="16" viewBox="0 0 16 16" fill="none">
  <path fill-rule="evenodd" clip-rule="evenodd" d="M2.4275 2.4275C3.02136 1.83363 3.82681 1.5 4.66667 1.5C5.50652 1.5 6.31197 1.83363 6.90584 2.4275C7.4997 3.02136 7.83333 3.82681 7.83333 4.66667C7.83333 5.50652 7.4997 6.31197 6.90584 6.90584C6.31197 7.4997 5.50652 7.83333 4.66667 7.83333C3.82681 7.83333 3.02136 7.4997 2.4275 6.90584C1.83363 6.31197 1.5 5.50652 1.5 4.66667C1.5 3.82681 1.83363 3.02136 2.4275 2.4275ZM4.66667 2.5C4.09203 2.5 3.54093 2.72827 3.1346 3.1346C2.72827 3.54093 2.5 4.09203 2.5 4.66667C2.5 5.2413 2.72827 5.7924 3.1346 6.19873C3.54093 6.60506 4.09203 6.83333 4.66667 6.83333C5.2413 6.83333 5.7924 6.60506 6.19873 6.19873C6.60506 5.7924 6.83333 5.2413 6.83333 4.66667C6.83333 4.09203 6.60506 3.54093 6.19873 3.1346C5.7924 2.72827 5.2413 2.5 4.66667 2.5Z" fill="white"/>
  <path fill-rule="evenodd" clip-rule="evenodd" d="M4.66667 1.5C4.94281 1.5 5.16667 1.72386 5.16667 2V4.16667H7.33333C7.60948 4.16667 7.83333 4.39052 7.83333 4.66667C7.83333 4.94281 7.60948 5.16667 7.33333 5.16667H4.66667C4.39052 5.16667 4.16667 4.94281 4.16667 4.66667V2C4.16667 1.72386 4.39052 1.5 4.66667 1.5Z" fill="white"/>
  <path fill-rule="evenodd" clip-rule="evenodd" d="M6 10.5833C6.41421 10.5833 6.75 10.9191 6.75 11.3333V14C6.75 14.4142 6.41421 14.75 6 14.75C5.58579 14.75 5.25 14.4142 5.25 14V11.3333C5.25 10.9191 5.58579 10.5833 6 10.5833Z" fill="white"/>
  <path fill-rule="evenodd" clip-rule="evenodd" d="M11.3333 8.58333C11.7475 8.58333 12.0833 8.91912 12.0833 9.33333V14C12.0833 14.4142 11.7475 14.75 11.3333 14.75C10.9191 14.75 10.5833 14.4142 10.5833 14V9.33333C10.5833 8.91912 10.9191 8.58333 11.3333 8.58333Z" fill="white"/>
  <path fill-rule="evenodd" clip-rule="evenodd" d="M8.66667 7.91667C9.08088 7.91667 9.41667 8.25245 9.41667 8.66667V14C9.41667 14.4142 9.08088 14.75 8.66667 14.75C8.25245 14.75 7.91667 14.4142 7.91667 14V8.66667C7.91667 8.25245 8.25245 7.91667 8.66667 7.91667Z" fill="white"/>
  <path fill-rule="evenodd" clip-rule="evenodd" d="M14 7.25C14.4142 7.25 14.75 7.58579 14.75 8V14C14.75 14.4142 14.4142 14.75 14 14.75C13.5858 14.75 13.25 14.4142 13.25 14V8C13.25 7.58579 13.5858 7.25 14 7.25Z" fill="white"/>
</svg>