<svg xmlns="http://www.w3.org/2000/svg" width="16" height="16" viewBox="0 0 16 16" fill="none">
  <path d="M11.2716 12.6211H8.5767V5.30642C8.5767 4.98766 8.318 4.72895 7.99923 4.72895C7.68046 4.72895 7.42176 4.98766 7.42176 5.30642V12.6211H4.72688C4.40811 12.6211 4.1494 12.8798 4.1494 13.1986C4.1494 13.5173 4.40811 13.776 4.72688 13.776H11.2716C11.5903 13.776 11.8491 13.5173 11.8491 13.1986C11.8491 12.8798 11.5903 12.6211 11.2716 12.6211Z" fill="#B2B3B3"/>
  <path d="M6.65179 3.38151H3.78367C3.565 3.38151 3.36481 3.50547 3.26702 3.70105L1.14962 7.93586C1.00718 8.22151 1.12267 8.568 1.40756 8.71044C1.69321 8.85365 2.04047 8.73739 2.18214 8.4525L3.77905 5.25946L5.34362 8.44788C5.44372 8.65269 5.6493 8.7705 5.86258 8.7705C5.94804 8.7705 6.03505 8.75202 6.11666 8.71121C6.40309 8.57031 6.5209 8.22459 6.38076 7.93817L4.71071 4.53569H6.65179C6.97056 4.53569 7.22926 4.27698 7.22926 3.95821C7.22926 3.63945 6.97056 3.38151 6.65179 3.38151Z" fill="#B2B3B3"/>
  <path d="M14.8488 7.93586L12.7314 3.70105C12.649 3.53704 12.4935 3.42848 12.3172 3.39614C12.291 3.38767 12.2579 3.38151 12.2148 3.38151H9.34667C9.0279 3.38151 8.76919 3.64022 8.76919 3.95898C8.76919 4.27775 9.0279 4.53646 9.34667 4.53646H11.2878L9.6177 7.93893C9.47679 8.22536 9.59537 8.57108 9.88179 8.71198C9.96341 8.75202 10.0504 8.77127 10.1359 8.77127C10.3492 8.77127 10.554 8.65269 10.6548 8.44865L12.2194 5.26023L13.8155 8.4525C13.9588 8.73816 14.3052 8.85365 14.5901 8.71044C14.8758 8.56723 14.9921 8.22074 14.8488 7.93586Z" fill="#B2B3B3"/>
  <path d="M6.39693 8.0013H1.14423C1.11728 8.06059 1.09495 8.12142 1.08648 8.18378C1.07724 8.25 1.07031 8.31699 1.07031 8.38628C1.07031 9.87232 2.27916 11.0812 3.76519 11.0812C5.25122 11.0812 6.46007 9.87232 6.46007 8.38628C6.46007 8.31776 6.45237 8.25077 6.43774 8.1399C6.43312 8.09062 6.4131 8.04596 6.39693 8.0013Z" fill="#B2B3B3"/>
  <path d="M14.8666 8.0013H9.61385C9.5869 8.06059 9.56457 8.12142 9.5561 8.18378C9.54686 8.25 9.53993 8.31699 9.53993 8.38628C9.53993 9.87232 10.7488 11.0812 12.2348 11.0812C13.7208 11.0812 14.9297 9.87232 14.9297 8.38628C14.9297 8.31776 14.922 8.25077 14.9074 8.1399C14.9027 8.09062 14.8827 8.04596 14.8666 8.0013Z" fill="#B2B3B3"/>
  <path d="M7.99923 5.69141C8.95602 5.69141 9.73165 4.91577 9.73165 3.95898C9.73165 3.00219 8.95602 2.22656 7.99923 2.22656C7.04244 2.22656 6.26681 3.00219 6.26681 3.95898C6.26681 4.91577 7.04244 5.69141 7.99923 5.69141Z" fill="#B2B3B3"/>
</svg>