<svg xmlns="http://www.w3.org/2000/svg" width="16" height="16" viewBox="0 0 16 16" fill="none">
  <path d="M2.63314 5.71207C2.3009 5.71207 2.03125 5.44242 2.03125 5.11018C2.03125 3.42088 3.23984 1.98839 4.90506 1.7043L10.1712 0.805479C10.7899 0.701152 11.3854 1.00531 11.6639 1.56145L11.7072 1.64812C11.8557 1.94586 11.7337 2.30699 11.436 2.45465C11.1374 2.60392 10.7779 2.48114 10.6286 2.1842L10.5861 2.09914C10.5476 2.02049 10.4665 1.97635 10.3726 1.9924L5.1065 2.89122C4.02149 3.0766 3.23422 4.00993 3.23422 5.11098C3.23422 5.44323 2.96458 5.71287 2.63234 5.71287L2.63314 5.71207Z" fill="#B2B3B3"/>
  <path d="M9.65517 8.32025C9.65517 6.99289 10.7354 5.9127 12.0627 5.9127H14.069V5.31081C14.069 4.09339 13.0795 3.10389 11.8621 3.10389H4.23817C3.02075 3.10389 2.03125 4.09339 2.03125 5.31081V11.3297C2.03125 12.5471 3.02075 13.5366 4.23817 13.5366H11.8621C13.0795 13.5366 14.069 12.5471 14.069 11.3297V10.7278H12.0627C10.7354 10.7278 9.65517 9.64762 9.65517 8.32025Z" fill="#B2B3B3"/>
  <path d="M14.069 9.52403H12.0627C11.3982 9.52403 10.8589 8.98474 10.8589 8.32025C10.8589 7.65577 11.3982 7.11648 12.0627 7.11648H14.069C14.512 7.11648 14.8715 7.476 14.8715 7.91899V8.72151C14.8715 9.1645 14.512 9.52403 14.069 9.52403Z" fill="#B2B3B3"/>
</svg>