<svg xmlns="http://www.w3.org/2000/svg" width="33" height="32" viewBox="0 0 33 32" fill="none">
  <path fill-rule="evenodd" clip-rule="evenodd" d="M5.25781 5.25039V29.8161L9.93314 26.7453L13.05 29.8161L16.1669 26.7453L19.2838 29.8161L22.4007 26.7453L27.076 29.8161V5.25039C27.076 4.43599 26.7476 3.65495 26.1631 3.07908C25.5785 2.50321 24.7858 2.17969 23.9591 2.17969H8.3747C7.54805 2.17969 6.75526 2.50321 6.17073 3.07908C5.5862 3.65495 5.25781 4.43599 5.25781 5.25039ZM21.2687 8.64426C21.7151 9.05632 21.7429 9.75225 21.3309 10.1987L12.6036 19.6532C12.1915 20.0996 11.4956 20.1274 11.0492 19.7154C10.6028 19.3033 10.575 18.6074 10.987 18.161L19.7143 8.70644C20.1264 8.26003 20.8223 8.2322 21.2687 8.64426ZM10.6953 10.9071C10.6953 9.89793 11.5134 9.07983 12.5226 9.07983C13.5318 9.07983 14.3499 9.89793 14.3499 10.9071C14.3499 11.9163 13.5318 12.7344 12.5226 12.7344C11.5134 12.7344 10.6953 11.9163 10.6953 10.9071ZM19.796 16.3525C18.7868 16.3525 17.9688 17.1706 17.9688 18.1798C17.9688 19.189 18.7868 20.0071 19.796 20.0071C20.8052 20.0071 21.6233 19.189 21.6233 18.1798C21.6233 17.1706 20.8052 16.3525 19.796 16.3525Z" fill="#2357C6"/>
</svg>