<svg xmlns="http://www.w3.org/2000/svg" width="33" height="32" viewBox="0 0 33 32" fill="none">
  <path d="M8.40251 27.7691H5.60143C4.94029 27.7691 4.40371 27.2325 4.40371 26.5714V23.7704C4.40371 22.2038 5.32675 20.773 6.75604 20.1263C7.3549 19.8532 8.06715 20.1199 8.34023 20.7235C8.61331 21.3255 8.34502 22.0362 7.74297 22.3077C7.16965 22.5679 6.79916 23.1412 6.79916 23.7704V25.3737H8.40251C9.03172 25.3737 9.60503 25.0032 9.86534 24.43C10.1368 23.8279 10.8491 23.5612 11.4495 23.8327C12.0516 24.1058 12.3199 24.8148 12.0468 25.4168C11.4 26.8461 9.96914 27.7691 8.40251 27.7691Z" fill="#2357C6"/>
  <path d="M23.9247 18.0063C29.3946 11.9988 28.7929 5.22578 28.7011 4.46019C28.6394 3.94127 28.2317 3.53365 27.7127 3.47198C26.944 3.37722 20.1743 2.77858 14.1644 8.24756L12.6405 7.97531C10.3298 7.56469 7.96643 8.53183 6.611 10.4436L3.7858 14.4325C3.49847 14.8386 3.5105 15.3831 3.81438 15.7757C4.03402 16.0584 4.36498 16.2134 4.70647 16.2134C4.84186 16.2134 4.97876 16.1893 5.10964 16.1397C5.1292 16.1321 6.7163 15.5516 9.07515 15.6448C8.8194 16.3036 8.63738 16.8857 8.508 17.358C8.40119 17.7491 8.51101 18.1672 8.79834 18.4545L13.7206 23.376C13.9357 23.5911 14.2231 23.7069 14.5179 23.7069C14.6172 23.7069 14.718 23.6933 14.8158 23.6663C15.2867 23.5369 15.8689 23.3549 16.5263 23.0992C16.6135 25.4381 16.0388 27.0475 16.0328 27.0641C15.8553 27.5288 16.0027 28.0538 16.3954 28.3576C16.5985 28.514 16.8422 28.5938 17.0859 28.5938C17.3146 28.5938 17.5432 28.5246 17.7388 28.3862L21.7314 25.5584C23.6419 24.2062 24.6092 21.8418 24.197 19.5375L23.9232 18.0093L23.9247 18.0063ZM20.1262 9.41475C21.5794 9.41475 22.7588 10.5925 22.7588 12.047C22.7588 13.5014 21.5794 14.6792 20.1262 14.6792C18.673 14.6792 17.4936 13.5014 17.4936 12.047C17.4936 10.5925 18.673 9.41475 20.1262 9.41475ZM7.26389 13.4277L8.45384 11.7491C9.30531 10.5474 10.7871 9.93518 12.2463 10.1969L12.2975 10.2059C11.3723 11.319 10.6337 12.435 10.0755 13.4744C9.04054 13.3736 8.07174 13.357 7.26389 13.4277ZM20.4286 23.7159L18.7452 24.9072C18.8174 24.101 18.7994 23.1323 18.6971 22.0975C19.7366 21.5394 20.8528 20.8009 21.966 19.8759L21.9766 19.933C22.2353 21.3815 21.6291 22.8661 20.4286 23.7159Z" fill="#2357C6"/>
</svg>