<svg xmlns="http://www.w3.org/2000/svg" width="33" height="32" viewBox="0 0 33 32" fill="none">
  <path d="M8.79489 4.22769L7.08217 3.65739L6.51005 1.94285C6.32538 1.38884 5.40746 1.38884 5.22279 1.94285L4.65068 3.65739L2.93795 4.22769C2.66095 4.32003 2.47266 4.57893 2.47266 4.87223C2.47266 5.16553 2.66095 5.42443 2.93795 5.51676L4.65068 6.08707L5.22279 7.8016C5.31513 8.07861 5.57403 8.26509 5.86552 8.26509C6.15701 8.26509 6.41772 8.0768 6.50824 7.8016L7.08036 6.08707L8.79308 5.51676C9.07009 5.42443 9.25838 5.16553 9.25838 4.87223C9.25838 4.57893 9.0719 4.32003 8.79489 4.22769Z" fill="#2357C6"/>
  <path d="M16.5008 24.9976C16.5008 23.4352 17.4966 22.0556 18.9794 21.5631L19.9751 21.23L20.3083 20.2324C20.7917 18.7876 22.1713 17.8208 23.7428 17.8208C24.3927 17.8208 24.9902 18.02 25.5243 18.3151L30.5738 13.3942C30.9449 13.0339 31.0771 12.4925 30.9178 12.0019C30.7584 11.5113 30.333 11.1528 29.8224 11.0786L21.4579 9.86371L17.7175 2.28318C17.2612 1.35621 15.7386 1.35621 15.2823 2.28318L11.5419 9.8619L3.1774 11.0767C2.66684 11.151 2.24137 11.5094 2.08205 12.0001C1.92273 12.4907 2.05489 13.0321 2.42604 13.3924L8.47852 19.2909L7.04823 27.621C6.96133 28.1316 7.16953 28.6458 7.58776 28.9499C8.00779 29.2523 8.55999 29.2939 9.01805 29.0531L16.499 25.1189L16.5207 25.1298C16.5207 25.0845 16.499 25.0429 16.499 24.9976H16.5008Z" fill="#2357C6"/>
  <path d="M27.6499 24.1395L25.3633 23.3773L24.6011 21.0906C24.353 20.352 23.1309 20.352 22.8829 21.0906L22.1207 23.3773L19.834 24.1395C19.4647 24.2626 19.2148 24.6084 19.2148 24.9977C19.2148 25.3869 19.4647 25.7327 19.834 25.8558L22.1207 26.6181L22.8829 28.9047C23.006 29.2741 23.3536 29.5239 23.7429 29.5239C24.1321 29.5239 24.4779 29.2741 24.6029 28.9047L25.3651 26.6181L27.6517 25.8558C28.0211 25.7327 28.2709 25.3869 28.2709 24.9977C28.2709 24.6084 28.0211 24.2626 27.6517 24.1395H27.6499Z" fill="#2357C6"/>
  <path d="M26.0063 6.95793C26.7562 6.95793 27.3642 6.34999 27.3642 5.60006C27.3642 4.85013 26.7562 4.24219 26.0063 4.24219C25.2564 4.24219 24.6484 4.85013 24.6484 5.60006C24.6484 6.34999 25.2564 6.95793 26.0063 6.95793Z" fill="#2357C6"/>
</svg>