<svg width="76" height="120" viewBox="0 0 76 120" fill="none" xmlns="http://www.w3.org/2000/svg">
<path d="M102.426 17.5758C125.858 41.0065 125.858 78.9953 102.426 102.426C78.995 125.857 41.005 125.859 17.5736 102.426C-5.85785 78.9925 -5.85785 41.0037 17.5736 17.573C41.005 -5.85767 78.995 -5.85767 102.426 17.573M38.9428 81.0574C43.1072 85.2218 48.4131 88.0578 54.1894 89.2067C59.9657 90.3557 65.9529 89.766 71.3941 87.5123C76.8352 85.2586 81.4859 81.442 84.7579 76.5453C88.0299 71.6485 89.7763 65.8915 89.7763 60.0023C89.7763 54.113 88.0299 48.356 84.7579 43.4593C81.4859 38.5625 76.8352 34.746 71.3941 32.4923C65.9529 30.2386 59.9657 29.6489 54.1894 30.7978C48.4131 31.9468 43.1072 34.7828 38.9428 38.9471C33.3585 44.5313 30.2212 52.1051 30.2212 60.0023C30.2212 67.8995 33.3585 75.4732 38.9428 81.0574Z" fill="url(#paint0_linear_1506_135618)"/>
<defs>
<linearGradient id="paint0_linear_1506_135618" x1="209.313" y1="60.4705" x2="-13.133" y2="60.4705" gradientUnits="userSpaceOnUse">
<stop stop-color="#191E38"/>
<stop offset="0.52" stop-color="#3058A5"/>
<stop offset="0.97" stop-color="#5FAFDD"/>
<stop offset="1" stop-color="#5FAFDD"/>
</linearGradient>
</defs>
</svg>
