<svg width="1064" height="580" viewBox="0 0 1064 580" fill="none" xmlns="http://www.w3.org/2000/svg">
<rect width="1064" height="580" rx="9.6375" fill="#F2F7FC"/>
<mask id="mask0_1256_32082" style="mask-type:alpha" maskUnits="userSpaceOnUse" x="475" y="232" width="114" height="114">
<rect x="475.781" y="232.992" width="112.438" height="112.438" fill="#D9D9D9"/>
</mask>
<g mask="url(#mask0_1256_32082)">
<path d="M521.45 308.13L550.911 289.21L521.45 270.29V308.13ZM531.999 333.716C525.843 333.716 520.057 332.548 514.64 330.212C509.224 327.876 504.512 324.705 500.506 320.7C496.5 316.696 493.328 311.986 490.99 306.572C488.653 301.158 487.484 295.373 487.484 289.218C487.484 283.062 488.652 277.276 490.989 271.859C493.325 266.443 496.495 261.731 500.5 257.725C504.505 253.718 509.214 250.546 514.629 248.209C520.043 245.872 525.828 244.703 531.983 244.703C538.139 244.703 543.925 245.871 549.341 248.207C554.758 250.544 559.469 253.714 563.476 257.719C567.482 261.724 570.654 266.433 572.992 271.847C575.329 277.262 576.497 283.046 576.497 289.201C576.497 295.357 575.329 301.144 572.993 306.56C570.657 311.977 567.486 316.688 563.482 320.694C559.477 324.701 554.767 327.873 549.353 330.211C543.939 332.548 538.154 333.716 531.999 333.716ZM531.991 326.689C542.454 326.689 551.316 323.058 558.578 315.796C565.839 308.535 569.47 299.673 569.47 289.21C569.47 278.747 565.839 269.884 558.578 262.623C551.316 255.361 542.454 251.73 531.991 251.73C521.528 251.73 512.666 255.361 505.404 262.623C498.143 269.884 494.512 278.747 494.512 289.21C494.512 299.673 498.143 308.535 505.404 315.796C512.666 323.058 521.528 326.689 531.991 326.689Z" fill="#7082A8"/>
</g>
</svg>
