<svg width="24" height="24" viewBox="0 0 24 24" fill="none" xmlns="http://www.w3.org/2000/svg">
<path d="M19.5913 6.94026V11.9998C20.9884 11.9998 22.1211 10.8671 22.1211 9.47005C22.1211 8.07297 20.9884 6.94026 19.5913 6.94026Z" fill="#B2B3B3"/>
<path d="M10.4809 15.1671H6.30994C6.25238 15.1671 6.19736 15.1602 6.14044 15.1583L8.46025 20.8636C8.77395 21.6427 9.52719 22.1177 10.3209 22.1177C10.5688 22.1177 10.8205 22.0715 11.0647 21.9735C12.0848 21.5612 12.5825 20.3937 12.1733 19.3716L10.4809 15.1671Z" fill="#B2B3B3"/>
<path d="M17.9628 1.94583C17.7401 1.84275 17.4777 1.87626 17.2898 2.03248C17.2532 2.06284 13.6305 5.04862 10.7377 5.04862H6.30994C3.86933 5.04798 1.88281 7.03386 1.88281 9.47511C1.88281 11.9164 3.86933 13.9022 6.30994 13.9022H10.7371C13.6299 13.9022 17.2532 16.888 17.2892 16.9184C17.4049 17.0145 17.5485 17.0645 17.694 17.0645C17.7857 17.0645 17.8767 17.0449 17.9628 17.0044C18.1847 16.9 18.3264 16.6768 18.3264 16.432V2.5182C18.3264 2.27281 18.1841 2.05019 17.9628 1.94583Z" fill="#B2B3B3"/>
</svg>
