<svg width="184" height="130" viewBox="0 0 184 130" fill="none" xmlns="http://www.w3.org/2000/svg">
<path d="M41.8837 41.889C-13.9612 97.7321 -13.9612 188.272 41.8837 244.115C97.7286 299.958 188.271 299.965 244.116 244.115C299.961 188.265 299.961 97.7254 244.116 41.8823C188.271 -13.9608 97.7286 -13.9608 41.8837 41.8823M193.186 193.187C183.261 203.112 170.615 209.871 156.849 212.609C143.082 215.348 128.812 213.942 115.844 208.571C102.876 203.2 91.792 194.104 83.9937 182.433C76.1954 170.762 72.0331 157.041 72.0331 143.005C72.0331 128.969 76.1954 115.248 83.9937 103.578C91.792 91.9073 102.876 82.8112 115.844 77.4399C128.812 72.0685 143.082 70.6632 156.849 73.4015C170.615 76.1399 183.261 82.8989 193.186 92.824C206.496 106.133 213.973 124.184 213.973 143.005C213.973 161.827 206.496 179.878 193.186 193.187Z" fill="url(#paint0_linear_1256_42822)"/>
<defs>
<linearGradient id="paint0_linear_1256_42822" x1="-344.417" y1="318.251" x2="317.3" y2="144.121" gradientUnits="userSpaceOnUse">
<stop stop-color="#191E38"/>
<stop offset="0.52" stop-color="#3058A5"/>
<stop offset="0.97" stop-color="#5FAFDD"/>
<stop offset="1" stop-color="#5FAFDD"/>
</linearGradient>
</defs>
</svg>
