<svg width="172" height="129" viewBox="0 0 172 129" fill="none" xmlns="http://www.w3.org/2000/svg">
<path d="M-99.43 46.5759C-161.523 108.667 -161.523 209.337 -99.43 271.429C-37.3368 333.52 63.3368 333.527 125.43 271.429C187.523 209.33 187.523 108.66 125.43 46.5685C63.3368 -15.5228 -37.3368 -15.5228 -99.43 46.5685M68.8016 214.802C57.7658 225.838 43.7053 233.353 28.3982 236.398C13.091 239.443 -2.7753 237.88 -17.1943 231.908C-31.6134 225.935 -43.9376 215.821 -52.6084 202.845C-61.2792 189.869 -65.9073 174.613 -65.9073 159.006C-65.9073 143.399 -61.2792 128.143 -52.6084 115.167C-43.9376 102.191 -31.6134 92.0768 -17.1943 86.1045C-2.7753 80.1322 13.091 78.5696 28.3982 81.6143C43.7053 84.659 57.7658 92.1743 68.8016 103.21C83.6001 118.008 91.9137 138.078 91.9137 159.006C91.9137 179.934 83.6001 200.004 68.8016 214.802Z" fill="url(#paint0_linear_1256_42840)"/>
<defs>
<linearGradient id="paint0_linear_1256_42840" x1="-528.953" y1="353.86" x2="206.802" y2="160.247" gradientUnits="userSpaceOnUse">
<stop stop-color="#191E38"/>
<stop offset="0.52" stop-color="#3058A5"/>
<stop offset="0.97" stop-color="#5FAFDD"/>
<stop offset="1" stop-color="#5FAFDD"/>
</linearGradient>
</defs>
</svg>
