<svg width="24" height="24" viewBox="0 0 24 24" fill="none" xmlns="http://www.w3.org/2000/svg">
<path d="M8.30383 1.80203C8.37876 1.80176 8.37876 1.80176 8.4552 1.80149C8.59262 1.80111 8.73002 1.80125 8.86743 1.8016C9.01611 1.80186 9.16479 1.80146 9.31347 1.80115C9.60425 1.80064 9.89503 1.80075 10.1858 1.80108C10.4223 1.80134 10.6587 1.80137 10.8952 1.80125C10.9289 1.80123 10.9626 1.80121 10.9974 1.80119C11.0659 1.80116 11.1344 1.80112 11.2029 1.80108C11.8447 1.80076 12.4864 1.80113 13.1282 1.80175C13.6781 1.80226 14.228 1.80217 14.7779 1.80164C15.4174 1.80103 16.0569 1.80079 16.6963 1.80114C16.7646 1.80118 16.8329 1.80121 16.9011 1.80125C16.9515 1.80127 16.9515 1.80127 17.0029 1.8013C17.2389 1.8014 17.4749 1.80123 17.7109 1.80096C17.9987 1.80064 18.2866 1.80073 18.5745 1.80134C18.7212 1.80164 18.8679 1.80176 19.0146 1.80138C19.174 1.80097 19.3334 1.80146 19.4928 1.80203C19.5386 1.80177 19.5844 1.80152 19.6316 1.80126C20.3435 1.80616 20.9561 2.05648 21.4646 2.51957C21.9779 3.03948 22.1853 3.62072 22.1819 4.31604C22.1819 4.3685 22.182 4.42097 22.1821 4.47344C22.1823 4.61706 22.1819 4.76067 22.1815 4.90428C22.1812 5.05936 22.1813 5.21444 22.1814 5.36953C22.1814 5.63803 22.1811 5.90653 22.1807 6.17503C22.18 6.56324 22.1798 6.95144 22.1797 7.33965C22.1795 7.96953 22.179 8.5994 22.1782 9.22927C22.1775 9.84106 22.1769 10.4528 22.1765 11.0646C22.1765 11.1027 22.1765 11.1408 22.1765 11.1801C22.1763 11.4782 22.1761 11.7762 22.176 12.0742C22.1752 13.5346 22.1736 14.9949 22.1721 16.4553C19.8459 16.4553 17.5198 16.4553 15.1232 16.4553C15.0829 16.342 15.0426 16.2288 15.001 16.1122C14.7959 15.5806 14.5387 15.097 14.1454 14.6635C14.1217 14.6359 14.0981 14.6083 14.0737 14.5799C13.3451 13.7612 12.2987 13.4183 11.2117 13.253C11.2713 13.1357 11.3414 13.0395 11.4287 12.9382C11.9266 12.3595 12.2564 11.6895 12.4341 10.9657C12.5912 10.9871 12.6625 11.0511 12.7726 11.1552C12.8069 11.1872 12.8411 11.2193 12.8764 11.2523C12.913 11.2871 12.9496 11.3219 12.9873 11.3578C13.0251 11.3933 13.0628 11.4288 13.1017 11.4654C13.2019 11.5596 13.3018 11.6541 13.4015 11.7487C13.5035 11.8452 13.6057 11.9414 13.708 12.0377C13.9084 12.2265 14.1085 12.4156 14.3083 12.605C14.4494 12.5483 14.5403 12.4735 14.6481 12.3719C14.6832 12.3391 14.7183 12.3063 14.7544 12.2725C14.793 12.236 14.8315 12.1996 14.87 12.1631C14.9108 12.1248 14.9517 12.0865 14.9925 12.0482C15.0804 11.9657 15.1681 11.8832 15.2557 11.8006C15.3942 11.67 15.5329 11.5397 15.6717 11.4095C15.9662 11.1331 16.2603 10.8565 16.5544 10.5798C16.8721 10.2808 17.1899 9.98188 17.5081 9.68333C17.6462 9.55375 17.7841 9.42398 17.9219 9.29407C18.0074 9.21348 18.0931 9.13305 18.1788 9.05266C18.2187 9.01523 18.2585 8.97773 18.2982 8.94016C18.3522 8.88908 18.4065 8.83825 18.4608 8.78743C18.4912 8.75885 18.5215 8.73028 18.5528 8.70084C18.6273 8.64032 18.6273 8.64032 18.7088 8.64032C18.7088 9.33223 18.7088 10.0241 18.7088 10.737C19.2735 10.737 19.8382 10.737 20.42 10.737C20.4175 10.1393 20.4175 10.1393 20.4135 9.54162C20.4116 9.29751 20.4098 9.05342 20.409 8.80931C20.4084 8.6123 20.407 8.41531 20.405 8.21831C20.4044 8.14349 20.4041 8.06868 20.4041 7.99386C20.4035 7.38374 20.3556 6.85381 19.8904 6.38534C19.5111 6.04508 19.1019 5.92917 18.5897 5.92586C18.5535 5.92548 18.5174 5.92511 18.4801 5.92472C18.3608 5.92352 18.2415 5.92257 18.1223 5.92163C18.0394 5.92084 17.9566 5.92004 17.8737 5.91923C17.656 5.91712 17.4382 5.91524 17.2205 5.9134C16.959 5.91114 16.6976 5.90862 16.4362 5.90614C16.0393 5.90241 15.6424 5.89902 15.2455 5.89557C15.2455 6.42393 15.2455 6.9523 15.2455 7.49667C15.985 7.49667 16.7245 7.49667 17.4864 7.49667C17.2114 7.79688 17.2114 7.79688 17.1043 7.89692C17.0678 7.93115 17.0678 7.93115 17.0305 7.96607C17.0047 7.99007 16.979 8.01406 16.9524 8.03878C16.9245 8.06485 16.8967 8.09091 16.868 8.11777C16.7768 8.20305 16.6855 8.28819 16.5942 8.37332C16.5306 8.43276 16.467 8.49221 16.4034 8.55166C16.2367 8.70748 16.0699 8.86319 15.903 9.01887C15.7325 9.17801 15.5621 9.33726 15.3917 9.4965C15.0579 9.80845 14.7239 10.1203 14.3898 10.432C14.2499 10.3752 14.155 10.3003 14.0452 10.2018C14.0096 10.1699 13.9739 10.138 13.9372 10.1052C13.774 9.95691 13.6112 9.80832 13.4491 9.659C13.3642 9.58087 13.2786 9.50344 13.1923 9.42658C12.6451 8.78743 12.5276 8.52735 12.0945 7.95662C11.6276 7.34136 11.3675 6.81928 10.8858 6.39115C10.8615 6.36903 10.8371 6.34692 10.8121 6.32414C10.156 5.74975 9.3107 5.39162 8.44109 5.20938C8.37783 5.19537 8.37783 5.19537 8.31329 5.18108C7.49709 5.03223 6.6276 5.11774 5.83757 5.34087C5.75194 5.36186 5.75194 5.36186 5.6297 5.36186C5.62561 5.17759 5.62269 4.99333 5.62075 4.80903C5.61994 4.74663 5.61884 4.68423 5.61741 4.62184C5.60003 3.84331 5.76483 3.12088 6.35836 2.54043C6.89904 2.03283 7.54225 1.7978 8.30383 1.80203Z" fill="#B2B3B3"/>
<path d="M4.09002 15.1926C4.16337 15.1924 4.23671 15.1921 4.31005 15.1918C4.50783 15.1911 4.7056 15.1911 4.90338 15.1913C5.06912 15.1915 5.23486 15.1912 5.4006 15.191C5.79192 15.1904 6.18323 15.1905 6.57455 15.1909C6.97686 15.1914 7.37917 15.1908 7.78149 15.1897C8.12821 15.1888 8.47493 15.1885 8.82166 15.1888C9.02816 15.1889 9.23466 15.1888 9.44117 15.1881C9.63549 15.1875 9.8298 15.1877 10.0241 15.1884C10.095 15.1886 10.1658 15.1885 10.2367 15.188C11.0622 15.1834 11.7694 15.3816 12.3727 15.9927C13.8057 17.552 13.0767 20.6139 13.0767 22.1964C9.14298 22.1964 5.20922 22.1964 1.15625 22.1964C1.15625 16.7236 1.15625 16.7236 1.91374 15.9447C1.94118 15.9156 1.96863 15.8865 1.9969 15.8565C2.58604 15.2729 3.31182 15.1904 4.09002 15.1926Z" fill="#B2B3B3"/>
<path d="M9.6176 7.10263C10.3908 7.74876 10.9215 8.62299 11.0207 9.63745C11.0965 10.7792 10.8091 11.7943 10.0547 12.6769C9.41991 13.3708 8.51688 13.8434 7.57134 13.906C6.45956 13.9556 5.47785 13.6796 4.634 12.9416C3.92455 12.2713 3.42676 11.4001 3.38745 10.4092C3.38639 10.3101 3.38636 10.211 3.38727 10.1119C3.38768 10.0595 3.38808 10.0071 3.38849 9.95315C3.40929 8.9043 3.85983 8.0066 4.6007 7.27122C4.84636 7.03754 5.1096 6.86625 5.41042 6.70781C5.45008 6.68652 5.48974 6.66524 5.53061 6.64331C6.85538 5.9879 8.46461 6.21434 9.6176 7.10263Z" fill="#B2B3B3"/>
</svg>
