<svg width="24" height="24" viewBox="0 0 24 24" fill="none" xmlns="http://www.w3.org/2000/svg">
<path d="M19.6667 2.66797H19C17.7113 2.66797 16.6667 3.71264 16.6667 5.0013V19.0013C16.6667 20.29 17.7113 21.3346 19 21.3346H19.6667C20.9553 21.3346 22 20.29 22 19.0013V5.0013C22 3.71264 20.9553 2.66797 19.6667 2.66797Z" fill="#B2B3B3"/>
<path d="M12.3333 9.33463H11.6667C10.378 9.33463 9.33333 10.3793 9.33333 11.668V19.0013C9.33333 20.29 10.378 21.3346 11.6667 21.3346H12.3333C13.622 21.3346 14.6667 20.29 14.6667 19.0013V11.668C14.6667 10.3793 13.622 9.33463 12.3333 9.33463Z" fill="#B2B3B3"/>
<path d="M5 14.668H4.33333C3.04467 14.668 2 15.7126 2 17.0013V19.0013C2 20.29 3.04467 21.3346 4.33333 21.3346H5C6.28866 21.3346 7.33333 20.29 7.33333 19.0013V17.0013C7.33333 15.7126 6.28866 14.668 5 14.668Z" fill="#B2B3B3"/>
<path d="M3.66667 12.668C3.92267 12.668 4.17867 12.5706 4.37333 12.3746L10.6667 6.0813V6.99997C10.6667 7.55197 11.1147 7.99997 11.6667 7.99997C12.2187 7.99997 12.6667 7.55197 12.6667 6.99997V3.66797C12.6667 3.11597 12.2187 2.66797 11.6667 2.66797H8.33333C7.78133 2.66797 7.33333 3.11597 7.33333 3.66797C7.33333 4.21997 7.78133 4.66797 8.33333 4.66797H9.252L2.96 10.9613C2.56933 11.352 2.56933 11.9853 2.96 12.376C3.15467 12.5706 3.41067 12.6693 3.66667 12.6693V12.668Z" fill="#B2B3B3"/>
</svg>
