<svg width="24" height="24" viewBox="0 0 24 24" fill="none" xmlns="http://www.w3.org/2000/svg">
<path d="M16.5455 6.54545H7.45455C6.95247 6.54545 6.54545 6.95247 6.54545 7.45455V16.5455C6.54545 17.0475 6.95247 17.4545 7.45455 17.4545H16.5455C17.0475 17.4545 17.4545 17.0475 17.4545 16.5455V7.45455C17.4545 6.95247 17.0475 6.54545 16.5455 6.54545Z" fill="#B2B3B3"/>
<path d="M2.90909 9.27273C3.41091 9.27273 3.81818 8.86545 3.81818 8.36364V4.72727C3.81818 4.22545 4.22545 3.81818 4.72727 3.81818H8.36364C8.86545 3.81818 9.27273 3.41091 9.27273 2.90909C9.27273 2.40727 8.86545 2 8.36364 2H4.72727C3.22091 2 2 3.22091 2 4.72727V8.36364C2 8.86545 2.40727 9.27273 2.90909 9.27273Z" fill="#B2B3B3"/>
<path d="M19.2727 2H15.6364C15.1345 2 14.7273 2.40727 14.7273 2.90909C14.7273 3.41091 15.1345 3.81818 15.6364 3.81818H19.2727C19.7745 3.81818 20.1818 4.22545 20.1818 4.72727V8.36364C20.1818 8.86545 20.5891 9.27273 21.0909 9.27273C21.5927 9.27273 22 8.86545 22 8.36364V4.72727C22 3.22091 20.7791 2 19.2727 2Z" fill="#B2B3B3"/>
<path d="M21.0909 14.7273C20.5891 14.7273 20.1818 15.1345 20.1818 15.6364V19.2727C20.1818 19.7745 19.7745 20.1818 19.2727 20.1818H15.6364C15.1345 20.1818 14.7273 20.5891 14.7273 21.0909C14.7273 21.5927 15.1345 22 15.6364 22H19.2727C20.7791 22 22 20.7791 22 19.2727V15.6364C22 15.1345 21.5927 14.7273 21.0909 14.7273Z" fill="#B2B3B3"/>
<path d="M8.36364 20.1818H4.72727C4.22545 20.1818 3.81818 19.7745 3.81818 19.2727V15.6364C3.81818 15.1345 3.41091 14.7273 2.90909 14.7273C2.40727 14.7273 2 15.1345 2 15.6364V19.2727C2 20.7791 3.22091 22 4.72727 22H8.36364C8.86545 22 9.27273 21.5927 9.27273 21.0909C9.27273 20.5891 8.86545 20.1818 8.36364 20.1818Z" fill="#B2B3B3"/>
</svg>
