<svg width="24" height="24" viewBox="0 0 24 24" fill="none" xmlns="http://www.w3.org/2000/svg">
<g clip-path="url(#clip0_1256_42943)">
<path d="M11.6672 6.49923C11.8255 6.26174 12.1745 6.26174 12.3328 6.49923L15.758 11.637C15.8881 11.8322 16.1575 11.874 16.3407 11.7275L20.1425 8.68597C20.4341 8.45275 20.8579 8.71068 20.7846 9.07676L19.0643 17.6784C19.0269 17.8654 18.8628 18 18.6721 18H5.32792C5.13725 18 4.97308 17.8654 4.93569 17.6784L3.21535 9.07677C3.14214 8.71068 3.56593 8.45275 3.85746 8.68597L7.65931 11.7275C7.8425 11.874 8.11189 11.8322 8.24201 11.637L11.6672 6.49923Z" fill="#B2B3B3"/>
</g>
<defs>
<clipPath id="clip0_1256_42943">
<rect width="24" height="24" fill="white"/>
</clipPath>
</defs>
</svg>
