<svg width="24" height="24" viewBox="0 0 24 24" fill="none" xmlns="http://www.w3.org/2000/svg">
<path d="M22.5977 12.311V11.0645C22.5977 9.86163 21.6192 8.88314 20.4163 8.88314H14.8071C13.6043 8.88314 12.6258 9.86163 12.6258 11.0645V12.311C12.6258 12.483 12.6507 12.6475 12.6881 12.8071C11.919 13.1449 11.3793 13.9115 11.3793 14.8039V16.0504C11.3793 16.9429 11.919 17.7095 12.6881 18.0473C12.6507 18.2068 12.6258 18.3726 12.6258 18.5434V19.7899C12.6258 20.9927 13.6043 21.9712 14.8071 21.9712H20.4163C21.6192 21.9712 22.5977 20.9927 22.5977 19.7899V18.5434C22.5977 17.6509 22.0579 16.8843 21.2889 16.5465C21.3262 16.387 21.3512 16.2212 21.3512 16.0504V14.8039C21.3512 14.6319 21.3262 14.4674 21.2889 14.3078C22.0579 13.97 22.5977 13.2035 22.5977 12.311ZM14.4955 11.0645C14.4955 10.8925 14.6351 10.7529 14.8071 10.7529H20.4163C20.5883 10.7529 20.7279 10.8925 20.7279 11.0645V12.311C20.7279 12.483 20.5883 12.6226 20.4163 12.6226H14.8071C14.6351 12.6226 14.4955 12.483 14.4955 12.311V11.0645ZM20.7279 19.7899C20.7279 19.9619 20.5883 20.1015 20.4163 20.1015H14.8071C14.6351 20.1015 14.4955 19.9619 14.4955 19.7899V18.5434C14.4955 18.3714 14.6351 18.2318 14.8071 18.2318H20.4163C20.5883 18.2318 20.7279 18.3714 20.7279 18.5434V19.7899Z" fill="#B2B3B3"/>
<path d="M17.9221 2.02734H4.83407C2.94067 2.02734 1.40625 3.56176 1.40625 5.45517V13.5573C1.40625 15.4507 2.94067 16.9851 4.83407 16.9851H9.19676C9.7128 16.9851 10.1316 16.5663 10.1316 16.0503C10.1316 15.5342 9.7128 15.1154 9.19676 15.1154H6.92068C6.54799 13.2868 5.10456 11.8434 3.27597 11.4707V7.54303C5.10456 7.17033 6.54799 5.7269 6.92068 3.89831H15.8343C16.2705 6.03727 18.1714 7.64898 20.4388 7.63776C20.9436 7.63526 21.35 7.20772 21.35 6.7029V5.45641C21.35 3.56301 19.8155 2.02859 17.9221 2.02859V2.02734Z" fill="#B2B3B3"/>
<path d="M10.7549 11.8833V11.0643C10.7549 9.1622 12.0774 7.57294 13.8474 7.14041C13.2229 6.4885 12.3491 6.07841 11.3781 6.07841C9.48719 6.07841 7.95028 7.61532 7.95028 9.50623C7.95028 10.9534 8.85398 12.1874 10.1241 12.6885C10.3036 12.3968 10.5068 12.1214 10.7549 11.8833Z" fill="#B2B3B3"/>
</svg>
