<svg width="24" height="24" viewBox="0 0 24 24" fill="none" xmlns="http://www.w3.org/2000/svg">
<path d="M11.128 10.7495C13.5137 10.7495 15.4477 8.79082 15.4477 6.37473C15.4477 3.95863 13.5137 2 11.128 2C8.74228 2 6.80829 3.95863 6.80829 6.37473C6.80829 8.79082 8.74228 10.7495 11.128 10.7495Z" fill="#B2B3B3"/>
<path d="M10.5109 16.9991C10.5109 15.0004 11.5525 13.253 13.1076 12.2556C12.4646 12.1006 11.8056 11.9994 11.128 11.9994C7.71666 11.9994 4.61883 14.0442 3.2353 17.2078C2.91811 17.9328 2.92181 18.764 3.24517 19.4889C3.57593 20.2276 4.20414 20.7926 4.97181 21.0376C6.96874 21.675 9.03972 21.9988 11.1267 21.9988C11.8636 21.9988 12.5967 21.9438 13.3273 21.8638C11.6537 20.8938 10.5096 19.0889 10.5096 16.9991H10.5109Z" fill="#B2B3B3"/>
<path d="M20.73 20.3988L19.2428 18.8927C19.5674 18.3352 19.7673 17.6928 19.7673 17.0003C19.7673 14.9329 18.1061 13.2505 16.0648 13.2505C14.0234 13.2505 12.3622 14.9329 12.3622 17.0003C12.3622 19.0677 14.0234 20.7501 16.0648 20.7501C16.7497 20.7501 17.3829 20.5476 17.9333 20.2189L19.4205 21.725C19.6007 21.9075 19.8377 22 20.0747 22C20.3116 22 20.5486 21.9088 20.7288 21.725C21.0904 21.3588 21.0904 20.7651 20.7288 20.3988H20.73ZM14.2135 16.9991C14.2135 15.9654 15.0441 15.1242 16.0648 15.1242C17.0854 15.1242 17.9161 15.9654 17.9161 16.9991C17.9161 17.5153 17.7087 17.9828 17.3755 18.3215C17.3755 18.3215 17.373 18.3215 17.373 18.324C17.373 18.3265 17.373 18.3265 17.3705 18.3265C17.0361 18.6652 16.5745 18.8739 16.0648 18.8739C15.0441 18.8739 14.2135 18.0327 14.2135 16.9991Z" fill="#B2B3B3"/>
</svg>
