<svg width="24" height="24" viewBox="0 0 24 24" fill="none" xmlns="http://www.w3.org/2000/svg">
<path d="M21.0903 20.7823L19.6031 19.2762C19.9277 18.7187 20.1276 18.0763 20.1276 17.3838C20.1276 15.3164 18.4664 13.634 16.4251 13.634C14.3837 13.634 12.7225 15.3164 12.7225 17.3838C12.7225 19.4512 14.3837 21.1336 16.4251 21.1336C17.11 21.1336 17.7432 20.9311 18.2936 20.6023L19.7808 22.1085C19.961 22.291 20.198 22.3835 20.435 22.3835C20.6719 22.3835 20.9089 22.2922 21.0891 22.1085C21.4507 21.7423 21.4507 21.1486 21.0891 20.7823H21.0903ZM14.5738 17.3825C14.5738 16.3489 15.4044 15.5077 16.4251 15.5077C17.4457 15.5077 18.2764 16.3489 18.2764 17.3825C18.2764 17.8988 18.069 18.3662 17.7358 18.705C17.7358 18.705 17.7333 18.705 17.7333 18.7075C17.7333 18.71 17.7333 18.71 17.7308 18.71C17.3964 19.0487 16.9348 19.2574 16.4251 19.2574C15.4044 19.2574 14.5738 18.4162 14.5738 17.3825Z" fill="#B2B3B3"/>
<path fill-rule="evenodd" clip-rule="evenodd" d="M16.1667 5.25H21.1667C21.6267 5.25 22 5.614 22 6.0625V14.1875C22 14.636 21.6267 15 21.1667 15H21.0915C20.22 13.2232 18.3932 12 16.2807 12C14.9031 12 13.6469 12.5202 12.698 13.375H9.5V15H2.83333C2.37333 15 2 14.636 2 14.1875V6.0625C2 5.614 2.37333 5.25 2.83333 5.25H7.83333V2.8125C7.83333 2.364 8.20667 2 8.66667 2H15.3333C15.7933 2 16.1667 2.364 16.1667 2.8125V5.25ZM9.5 5.25H14.5V3.625H9.5V5.25Z" fill="#B2B3B3"/>
<path d="M10.9468 17.8333H9.54545V17H3V21.1667C3 21.6267 3.36655 22 3.81818 22H13.6143C12.138 21.1507 11.1048 19.6178 10.9468 17.8333Z" fill="#B2B3B3"/>
</svg>
