<svg width="362" height="361" viewBox="0 0 362 361" fill="none" xmlns="http://www.w3.org/2000/svg">
<path d="M230.64 210.736C255.853 193.452 295.74 187.247 362 180.5C294.849 173.66 254.761 167.386 229.626 149.564C236.612 134.946 248.362 118.332 264.891 97.1358C266.137 95.5432 264.039 93.5044 262.473 94.7854C241.893 111.588 225.68 123.636 211.322 130.999C193.986 105.856 187.768 66.0805 181.002 0C174.143 66.9691 167.848 106.941 149.976 132.011C135.317 125.044 118.657 113.327 97.4059 96.8396C95.8089 95.6009 93.7644 97.6897 95.0451 99.2515C111.899 119.778 123.976 135.946 131.36 150.264C106.147 167.548 66.2604 173.753 0 180.5C67.1515 187.34 107.239 193.614 132.374 211.436C125.388 226.054 113.642 242.668 97.1089 263.864C95.8629 265.457 97.9614 267.496 99.5275 266.218C120.107 249.412 136.32 237.367 150.678 230.001C168.014 255.143 174.232 294.923 181.006 361C187.864 294.031 194.156 254.059 212.028 228.993C226.686 235.956 243.347 247.673 264.598 264.16C266.195 265.399 268.239 263.31 266.959 261.748C250.105 241.222 238.027 225.054 230.644 210.736" fill="#2C57A4"/>
</svg>
