<svg width="32" height="33" viewBox="0 0 32 33" fill="none" xmlns="http://www.w3.org/2000/svg">
<g clip-path="url(#clip0_1720_45717)">
<path d="M22.0456 18.3821C21.7942 18.1392 21.4574 18.0048 21.1078 18.0079C20.7582 18.0109 20.4238 18.1511 20.1766 18.3983C19.9293 18.6455 19.7891 18.98 19.7861 19.3296C19.783 19.6792 19.9174 20.016 20.1603 20.2674L23.9203 24.0274L22.1643 25.7834L18.4043 22.0234C18.2813 21.8961 18.1342 21.7945 17.9715 21.7246C17.8088 21.6547 17.6339 21.618 17.4568 21.6164C17.2798 21.6149 17.1042 21.6486 16.9404 21.7157C16.7765 21.7827 16.6276 21.8817 16.5025 22.0069C16.3773 22.1321 16.2783 22.281 16.2112 22.4448C16.1442 22.6087 16.1104 22.7843 16.112 22.9613C16.1135 23.1383 16.1503 23.3133 16.2202 23.476C16.2901 23.6386 16.3916 23.7858 16.519 23.9088L19.9283 27.3194C18.9671 27.7202 17.926 27.8923 16.887 27.8221C16.7946 28.7639 16.4232 29.6567 15.8203 30.3861C16.3204 30.4711 16.8264 30.5157 17.3336 30.5194C18.5593 30.5213 19.7732 30.2811 20.9058 29.8128C22.0383 29.3444 23.0673 28.657 23.9336 27.7901L26.7443 24.9421C26.992 24.6912 27.1302 24.3524 27.1287 23.9998C27.1272 23.6472 26.9861 23.3096 26.7363 23.0608L22.0456 18.3821Z" fill="#2357C6"/>
<path d="M2.42542 17.645C2.82255 17.2571 3.28409 16.9413 3.78942 16.7116C2.99664 15.385 2.60149 13.8586 2.65095 12.314C2.70041 10.7693 3.1924 9.27136 4.06843 7.99818C4.94447 6.725 6.16768 5.73017 7.59266 5.13195C9.01763 4.53374 10.5844 4.35731 12.1068 4.62364L12.6841 4.0463C13.2486 3.48062 13.8671 2.97152 14.5308 2.5263C12.4058 1.72845 10.0829 1.62321 7.89443 2.22565C5.706 2.82808 3.76421 4.10731 2.34693 5.88029C0.929643 7.65327 0.109497 9.82912 0.00385008 12.0965C-0.101796 14.3639 0.512471 16.6066 1.75875 18.5036C1.94801 18.1933 2.17164 17.9052 2.42542 17.645Z" fill="#2357C6"/>
<path d="M14.5841 24.881L8.29371 18.5906C6.93416 17.231 4.7299 17.231 3.37036 18.5906C2.01081 19.9501 2.01081 22.1544 3.37036 23.5139L9.66078 29.8043C11.0203 31.1639 13.2246 31.1639 14.5841 29.8043C15.9437 28.4448 15.9437 26.2405 14.5841 24.881Z" fill="#2357C6"/>
<path d="M28.8466 4.98778C26.8285 2.96969 24.0914 1.83594 21.2373 1.83594C18.3833 1.83594 15.6461 2.96969 13.628 4.98778L7.44531 11.1691L8.38931 12.1118C9.17042 12.891 10.2287 13.3286 11.332 13.3286C12.4353 13.3286 13.4935 12.891 14.2746 12.1118L16.6653 9.72378L27.8973 21.1584L28.8493 20.2064C30.8674 18.1883 32.0012 15.4512 32.0012 12.5971C32.0012 9.74307 30.8674 7.00592 28.8493 4.98778H28.8466Z" fill="#2357C6"/>
</g>
<defs>
<clipPath id="clip0_1720_45717">
<rect width="32" height="32" fill="white" transform="translate(0 0.5)"/>
</clipPath>
</defs>
</svg>
