<svg width="52" height="52" viewBox="0 0 52 52" fill="none" xmlns="http://www.w3.org/2000/svg">
<rect width="52" height="52" rx="4" fill="#F2F7FC"/>
<path d="M32.2757 13.9614C32.7409 14.3966 33.0576 14.9851 33.0955 15.6265C33.0953 15.704 33.0945 15.7815 33.093 15.8589C33.0927 15.8992 33.0923 15.9395 33.0919 15.981C33.0878 16.2531 33.0693 16.5161 33.0246 16.7843C33.0657 16.808 33.1067 16.8318 33.1491 16.8563C33.7925 17.2443 34.2382 17.7323 34.4448 18.4747C34.4724 18.6854 34.4755 18.8946 34.4756 19.1066C34.4763 19.1482 34.4771 19.1897 34.4778 19.2325C34.4786 19.529 34.4311 19.7829 34.3496 20.068C34.3842 20.0753 34.4187 20.0827 34.4543 20.0903C34.6385 20.142 34.7707 20.2453 34.9257 20.356C34.972 20.3869 35.0184 20.4178 35.0661 20.4497C35.5284 20.8781 35.8348 21.4331 35.8652 22.0656C35.8746 22.4965 35.8697 22.8827 35.7322 23.2941C35.7832 23.308 35.8341 23.3219 35.8866 23.3362C36.0947 23.4157 36.211 23.5066 36.3731 23.6577C36.4208 23.7015 36.4685 23.7452 36.5176 23.7903C37.0311 24.308 37.2568 24.8705 37.2877 25.5984C37.2302 26.64 36.6972 27.2432 35.9882 27.9525C35.927 28.0142 35.8658 28.0758 35.8047 28.1375C35.6395 28.304 35.4739 28.47 35.3083 28.636C35.2044 28.7401 35.1006 28.8442 34.9969 28.9483C34.634 29.3127 34.2707 29.6767 33.9071 30.0405C33.5699 30.3779 33.2335 30.716 32.8974 31.0546C32.6075 31.3465 32.317 31.6379 32.0261 31.9288C31.8529 32.102 31.68 32.2754 31.5077 32.4494C31.3453 32.6133 31.1822 32.7765 31.0186 32.9392C30.9592 32.9985 30.9001 33.058 30.8412 33.1178C29.9266 34.0459 28.7459 34.6852 27.4365 34.8159C27.3042 34.7948 27.1725 34.7692 27.0417 34.7401C26.409 34.6357 25.7616 34.6276 25.1992 34.9742C24.3191 35.6165 23.578 36.4613 22.8401 37.2573C22.5075 37.6157 22.168 37.9675 21.8285 38.3193C21.482 38.6787 21.1362 39.0386 20.7948 39.4027C20.7432 39.4576 20.6916 39.5125 20.6384 39.569C20.5422 39.6716 20.4463 39.7743 20.3506 39.8774C20.3082 39.9226 20.2658 39.9677 20.2221 40.0143C20.1855 40.0536 20.1489 40.0929 20.1112 40.1334C19.9083 40.32 19.7373 40.3641 19.4649 40.3679C19.4122 40.3696 19.3595 40.3712 19.3051 40.3729C18.9566 40.3166 18.71 40.0475 18.4697 39.8046C18.4389 39.774 18.408 39.7433 18.3763 39.7116C18.2737 39.6094 18.1716 39.5067 18.0694 39.4041C17.9957 39.3304 17.9219 39.2568 17.8482 39.1832C17.6484 38.9837 17.4491 38.7839 17.2498 38.5841C17.0412 38.3749 16.8323 38.1661 16.6234 37.9573C16.2729 37.6068 15.9227 37.256 15.5726 36.9051C15.1674 36.4991 14.762 36.0934 14.3564 35.6878C13.9664 35.2978 13.5765 34.9076 13.1867 34.5173C13.0207 34.3511 12.8546 34.185 12.6885 34.0188C12.4933 33.8235 12.2981 33.628 12.1031 33.4324C12.0314 33.3605 11.9596 33.2887 11.8877 33.2169C11.79 33.1192 11.6925 33.0213 11.595 32.9234C11.5519 32.8804 11.5519 32.8804 11.5079 32.8366C11.2607 32.5876 11.2336 32.4532 11.2196 32.1011C11.2134 31.9903 11.2134 31.9903 11.207 31.8774C11.248 31.3752 11.9115 30.9192 12.2456 30.587C12.3018 30.5309 12.3581 30.4747 12.4143 30.4185C12.5609 30.2722 12.7076 30.126 12.8544 29.9798C13.0048 29.8301 13.1549 29.6802 13.3051 29.5303C13.5988 29.2373 13.8926 28.9444 14.1865 28.6517C14.3644 28.7365 14.4801 28.8189 14.6147 28.9636C14.6517 29.0025 14.6887 29.0414 14.7268 29.0815C14.7855 29.1432 14.7855 29.1432 14.8454 29.2062C15.5806 29.9566 16.4382 30.4556 17.5136 30.499C18.3929 30.481 19.1417 30.2337 19.8322 29.6887C19.8688 29.6615 19.9054 29.6343 19.9431 29.6063C20.4519 29.207 20.8203 28.5763 20.9706 27.9505C21.042 27.7876 21.042 27.7876 21.1968 27.703C21.2598 27.6834 21.3227 27.6638 21.3876 27.6436C22.2564 27.3428 22.903 26.8092 23.3463 26.0017C23.4278 25.8053 23.4988 25.6104 23.5614 25.4072C23.6955 25.1233 23.9592 25.0623 24.2393 24.9612C25.1238 24.5956 25.7397 23.9143 26.1131 23.0389C26.1741 22.8873 26.1741 22.8873 26.2126 22.7086C26.2844 22.5452 26.2844 22.5452 26.4392 22.4606C26.5022 22.441 26.5651 22.4214 26.63 22.4012C27.5617 22.0786 28.1716 21.5135 28.6319 20.6477C29.0301 19.7936 29.0842 18.7982 28.7767 17.9024C28.4514 17.0467 27.7886 16.433 27.1485 15.8049C27.223 15.6412 27.3017 15.5218 27.4281 15.3943C27.4612 15.3606 27.4943 15.3269 27.5285 15.2923C27.5642 15.2566 27.6 15.2209 27.6368 15.1841C27.6739 15.1467 27.711 15.1094 27.7493 15.0709C27.8279 14.9919 27.9066 14.9132 27.9855 14.8345C28.1051 14.7151 28.224 14.5949 28.3428 14.4746C28.4195 14.3978 28.4962 14.321 28.573 14.2443C28.608 14.2087 28.6431 14.1731 28.6792 14.1365C29.6753 13.1508 31.1763 13.0619 32.2757 13.9614Z" fill="#2357C6"/>
<path d="M22.6283 13.7057C23.4985 14.2224 24.2362 15.1789 24.9491 15.8879C25.1216 16.0594 25.2945 16.2303 25.4679 16.4008C25.6789 16.6083 25.889 16.8167 26.0985 17.0256C26.1779 17.1045 26.2576 17.1831 26.3376 17.2614C27.289 18.1936 27.289 18.1936 27.3575 18.8723C27.3458 19.5499 27.2388 20.0266 26.7618 20.5313C26.3166 20.9165 25.8429 21.0103 25.2714 21.0084C24.9866 20.9833 24.7518 20.8887 24.4984 20.7606C24.5234 20.8172 24.5234 20.8172 24.5488 20.8749C24.7834 21.4514 24.8227 21.9822 24.5817 22.5654C24.3019 23.0827 23.9079 23.4132 23.3463 23.5834C22.8542 23.6956 22.3627 23.6237 21.906 23.4106C21.9334 23.476 21.9607 23.5413 21.9889 23.6086C22.1821 24.1331 22.1696 24.6394 21.9675 25.163C21.7403 25.6197 21.3802 25.9531 20.9087 26.147C20.3154 26.3324 19.816 26.2499 19.256 26.003C19.2727 26.0407 19.2893 26.0785 19.3064 26.1173C19.5426 26.6979 19.5785 27.2256 19.3352 27.8118C19.0996 28.2576 18.7624 28.5576 18.3046 28.7662C17.8414 28.9038 17.2861 28.9154 16.8329 28.7358C16.3179 28.4379 15.9024 27.9635 15.4831 27.5471C15.4154 27.4801 15.3475 27.4134 15.2793 27.3469C15.1794 27.2494 15.0803 27.1512 14.9813 27.0528C14.9511 27.0237 14.921 26.9946 14.89 26.9646C14.507 26.5793 14.3526 26.1597 14.3413 25.6213C14.3472 25.0529 14.5036 24.6682 14.8937 24.2565C15.357 23.8037 15.7944 23.6956 16.4332 23.6987C16.6296 23.7237 16.8184 23.7617 17.0093 23.8139C16.9457 23.7553 16.9457 23.7553 16.8808 23.6955C16.423 23.2631 16.081 22.8458 16.0182 22.1947C16.0056 21.6331 16.1734 21.1266 16.5484 20.703C17.1067 20.2203 17.6112 20.1478 18.3343 20.1845C18.4307 20.2014 18.527 20.2196 18.6223 20.2421C18.5876 20.2045 18.5528 20.167 18.517 20.1282C17.9721 19.5323 17.7192 19.1058 17.7404 18.2825C17.7763 17.8189 17.9479 17.4599 18.2654 17.1211C18.7398 16.7269 19.2838 16.5696 19.8897 16.6128C20.0474 16.6428 20.1962 16.6831 20.3506 16.728C20.327 16.6911 20.3034 16.6542 20.279 16.6161C19.9403 16.0724 19.8093 15.6038 19.9145 14.9644C20.0529 14.4149 20.382 14.0455 20.8513 13.7433C21.3809 13.47 22.088 13.4385 22.6283 13.7057Z" fill="#2357C6"/>
<path d="M37.5757 28.6512C37.7846 28.7494 37.9201 28.8658 38.0843 29.0296C38.1111 29.0563 38.1379 29.0829 38.1655 29.1103C38.2538 29.1981 38.3416 29.2862 38.4295 29.3744C38.4908 29.4357 38.5522 29.497 38.6136 29.5583C38.7421 29.6866 38.8704 29.8152 38.9986 29.9439C39.1627 30.1086 39.3274 30.2729 39.4922 30.437C39.619 30.5634 39.7456 30.6901 39.872 30.8169C39.9326 30.8776 39.9933 30.9382 40.0541 30.9987C40.139 31.0833 40.2236 31.1683 40.3081 31.2534C40.3562 31.3017 40.4044 31.35 40.454 31.3997C40.6489 31.6189 40.7041 31.78 40.7082 32.0717C40.7098 32.1244 40.7114 32.1772 40.7131 32.2315C40.6568 32.5796 40.3881 32.8263 40.1456 33.0665C40.0997 33.1127 40.0997 33.1127 40.0529 33.1598C39.9509 33.2623 39.8485 33.3643 39.7461 33.4663C39.6727 33.5399 39.5992 33.6136 39.5258 33.6872C39.3268 33.8867 39.1275 34.0859 38.9281 34.2849C38.7193 34.4934 38.5109 34.7021 38.3024 34.9108C37.9524 35.261 37.6021 35.611 37.2517 35.9609C36.8465 36.3654 36.4417 36.7704 36.0371 37.1757C35.6896 37.5236 35.342 37.8714 34.9941 38.2189C34.7864 38.4265 34.5787 38.6341 34.3712 38.842C34.1763 39.0373 33.9811 39.2322 33.7857 39.427C33.7139 39.4986 33.6423 39.5702 33.5708 39.642C33.4733 39.7398 33.3754 39.8373 33.2774 39.9347C33.2491 39.9633 33.2208 39.9919 33.1916 40.0213C32.9451 40.265 32.7736 40.3625 32.4269 40.3674C32.3741 40.369 32.3214 40.3707 32.2671 40.3723C31.896 40.3123 31.6335 40.0079 31.3795 39.7507C31.3435 39.7147 31.3075 39.6787 31.2703 39.6417C31.1523 39.5235 31.0346 39.4049 30.9169 39.2863C30.8347 39.204 30.7526 39.1216 30.6704 39.0393C30.4548 38.8233 30.2395 38.6069 30.0243 38.3904C29.8044 38.1693 29.5841 37.9485 29.3639 37.7277C28.9324 37.2949 28.5012 36.8618 28.0702 36.4284C28.227 36.3481 28.3724 36.2878 28.5428 36.2425C29.1957 36.0623 29.7852 35.8412 30.3746 35.5066C30.4311 35.4747 30.4877 35.4428 30.546 35.4099C31.4881 34.8424 32.2384 34.0042 33.008 33.2305C33.1689 33.0689 33.3301 32.9076 33.4912 32.7463C33.7953 32.442 34.099 32.1373 34.4026 31.8326C34.7487 31.4851 35.0952 31.1381 35.4416 30.791C36.1534 30.0781 36.8647 29.3648 37.5757 28.6512Z" fill="#2357C6"/>
<path d="M27.206 11.776C27.3858 11.8707 27.5224 11.9791 27.6668 12.1216C27.7014 12.1546 27.7361 12.1876 27.7717 12.2215C27.8537 12.3017 27.9334 12.3842 28.0125 12.4673C27.9351 12.6446 27.8563 12.746 27.7064 12.8672C27.3462 13.1721 27.0197 13.5115 26.6875 13.8463C26.6202 13.9138 26.5529 13.9814 26.4856 14.0489C26.3223 14.2129 26.1592 14.377 25.9962 14.5412C25.7613 14.4477 25.6029 14.2798 25.4282 14.1037C25.3966 14.0722 25.3649 14.0407 25.3323 14.0082C25.2657 13.9417 25.1993 13.875 25.133 13.8083C25.0312 13.7058 24.9287 13.604 24.8262 13.5022C24.7616 13.4375 24.697 13.3728 24.6325 13.308C24.6017 13.2775 24.5709 13.2469 24.5392 13.2154C24.3255 12.999 24.3255 12.999 24.3255 12.8705C24.6237 12.7128 24.9228 12.557 25.2228 12.4029C25.3246 12.3503 25.426 12.2972 25.5272 12.2436C26.6666 11.6409 26.6666 11.6409 27.206 11.776Z" fill="#2357C6"/>
</svg>
