<svg width="52" height="52" viewBox="0 0 52 52" fill="none" xmlns="http://www.w3.org/2000/svg">
<rect width="52" height="52" rx="4" fill="#F2F7FC"/>
<path d="M29.2701 32.668V33.7791H22.7247V32.668H13.9974V38.2235C13.9974 38.8369 14.4861 39.3346 15.0883 39.3346H36.9065C37.5087 39.3346 37.9974 38.8369 37.9974 38.2235V32.668H29.2701Z" fill="#2357C6"/>
<path d="M38.2196 17.0013H31.5529V13.7513C31.5529 13.1533 31.0552 12.668 30.4418 12.668H21.553C20.9396 12.668 20.4418 13.1533 20.4418 13.7513V17.0013H13.7752C13.1618 17.0013 12.6641 17.4866 12.6641 18.0846V28.918C12.6641 29.516 13.1618 30.0013 13.7752 30.0013H22.6641V27.8346H29.3307V30.0013H38.2196C38.8329 30.0013 39.3307 29.516 39.3307 28.918V18.0846C39.3307 17.4866 38.8329 17.0013 38.2196 17.0013ZM29.3307 17.0013H22.6641V14.8346H29.3307V17.0013Z" fill="#2357C6"/>
</svg>
