<svg width="24" height="24" viewBox="0 0 24 24" fill="none" xmlns="http://www.w3.org/2000/svg">
<g clip-path="url(#clip0_1256_43012)">
<path d="M9.27905 1.17969H14.7405C15.175 1.17969 15.5918 1.32804 15.899 1.5921C16.2063 1.85617 16.3789 2.21432 16.3789 2.58777C16.3789 3.45914 15.9761 4.29483 15.2592 4.91098C14.5422 5.52714 13.5698 5.87329 12.5559 5.87329H11.4636C10.4497 5.87329 9.47731 5.52714 8.76036 4.91098C8.0434 4.29483 7.64062 3.45914 7.64062 2.58777C7.64062 2.21432 7.81324 1.85617 8.12051 1.5921C8.42777 1.32804 8.84451 1.17969 9.27905 1.17969Z" fill="#B2B3B3"/>
<path d="M3.60938 16.5871V15.5237C3.60938 13.2674 4.49421 11.1035 6.06922 9.50799C7.64423 7.91252 9.78041 7.0162 12.0078 7.0162C14.2352 7.0162 16.3714 7.91252 17.9464 9.50799C19.5214 11.1035 20.4062 13.2674 20.4062 15.5237V16.5871C20.4062 17.7153 19.9638 18.7973 19.1763 19.595C18.3888 20.3927 17.3207 20.8409 16.207 20.8409H7.80859C6.69489 20.8409 5.6268 20.3927 4.8393 19.595C4.05179 18.7973 3.60938 17.7153 3.60938 16.5871Z" fill="#B2B3B3"/>
</g>
<defs>
<clipPath id="clip0_1256_43012">
<rect width="24" height="24" fill="white"/>
</clipPath>
</defs>
</svg>
