<svg width="32" height="32" viewBox="0 0 32 32" fill="none" xmlns="http://www.w3.org/2000/svg">
<path d="M19.6282 23.9984V25.8651H12.3749V23.9984H2.40156V28.6651C2.40156 29.1803 2.80775 29.5984 3.30823 29.5984H28.6949C29.1954 29.5984 29.6016 29.1803 29.6016 28.6651V23.9984H19.6282Z" fill="url(#paint0_linear_1256_42881)"/>
<path d="M29.5016 6.94389H21.4016V3.30753C21.4016 2.80571 20.9984 2.39844 20.5016 2.39844H11.5016C11.0048 2.39844 10.6016 2.80571 10.6016 3.30753V6.94389H2.50156C2.00476 6.94389 1.60156 7.35116 1.60156 7.85298V21.4893C1.60156 21.9912 2.00476 22.3984 2.50156 22.3984H12.4016V20.5803H19.6016V22.3984H29.5016C29.9984 22.3984 30.4016 21.9912 30.4016 21.4893V7.85298C30.4016 7.35116 29.9984 6.94389 29.5016 6.94389ZM19.6016 6.94389H12.4016V4.21662H19.6016V6.94389Z" fill="url(#paint1_linear_1256_42881)"/>
<defs>
<linearGradient id="paint0_linear_1256_42881" x1="1.24156" y1="2.12551" x2="16.9385" y2="35.9502" gradientUnits="userSpaceOnUse">
<stop stop-color="#2357C6"/>
<stop offset="1" stop-color="#5EA8FF"/>
</linearGradient>
<linearGradient id="paint1_linear_1256_42881" x1="1.24156" y1="2.12551" x2="16.9385" y2="35.9502" gradientUnits="userSpaceOnUse">
<stop stop-color="#2357C6"/>
<stop offset="1" stop-color="#5EA8FF"/>
</linearGradient>
</defs>
</svg>
