<svg width="32" height="33" viewBox="0 0 32 33" fill="none" xmlns="http://www.w3.org/2000/svg">
<path d="M16.0011 6.3342C15.3571 6.3342 14.8345 5.81153 14.8345 5.16753V3.61198C14.8345 2.96798 15.3571 2.44531 16.0011 2.44531C16.6451 2.44531 17.1678 2.96798 17.1678 3.61198V5.16753C17.1678 5.81153 16.6451 6.3342 16.0011 6.3342Z" fill="#2357C6"/>
<path d="M23.9749 9.63807C23.6762 9.63807 23.3775 9.52452 23.1504 9.29585C22.6946 8.84007 22.6946 8.10119 23.1504 7.64541L24.2502 6.54563C24.706 6.08985 25.4449 6.08985 25.9007 6.54563C26.3564 7.00141 26.3564 7.7403 25.9007 8.19607L24.8009 9.29585C24.5738 9.52296 24.2735 9.63807 23.9749 9.63807Z" fill="#2357C6"/>
<path d="M28.8326 17.6118H27.277C26.633 17.6118 26.1104 17.0892 26.1104 16.4452C26.1104 15.8012 26.633 15.2785 27.277 15.2785H28.8326C29.4766 15.2785 29.9992 15.8012 29.9992 16.4452C29.9992 17.0892 29.4766 17.6118 28.8326 17.6118Z" fill="#2357C6"/>
<path d="M8.02582 9.63807C7.72715 9.63807 7.42849 9.52452 7.20138 9.29585L6.1016 8.19607C5.64582 7.7403 5.64582 7.00141 6.1016 6.54563C6.55738 6.08985 7.29627 6.08985 7.75204 6.54563L8.85182 7.64541C9.3076 8.10119 9.3076 8.84007 8.85182 9.29585C8.62471 9.52296 8.32449 9.63807 8.02582 9.63807Z" fill="#2357C6"/>
<path d="M4.72222 17.6118H3.16667C2.52267 17.6118 2 17.0892 2 16.4452C2 15.8012 2.52267 15.2785 3.16667 15.2785H4.72222C5.36622 15.2785 5.88889 15.8012 5.88889 16.4452C5.88889 17.0892 5.36622 17.6118 4.72222 17.6118Z" fill="#2357C6"/>
<path d="M21.3911 9.80157C19.3798 8.16824 16.7446 7.53979 14.1624 8.08268C10.7744 8.79202 8.12065 11.578 7.56065 15.0174C6.94932 18.7678 8.80043 22.372 12.1106 24.0536V26.9454C12.1106 28.4465 13.3318 29.6676 14.8329 29.6676H17.1662C18.6673 29.6676 19.8884 28.4465 19.8884 26.9454V24.0536C22.7475 22.6007 24.5551 19.6949 24.5551 16.4454C24.5551 13.8569 23.4009 11.4349 21.3911 9.80157ZM17.1662 27.3342H14.8329C14.6182 27.3342 14.444 27.16 14.444 26.9454V24.2231H17.5551V26.9454C17.5551 27.16 17.3809 27.3342 17.1662 27.3342Z" fill="#2357C6"/>
</svg>
