<svg width="24" height="24" viewBox="0 0 24 24" fill="none" xmlns="http://www.w3.org/2000/svg">
<path d="M4.66667 17.4H6.5C7.006 17.4 7.41667 16.9968 7.41667 16.5V8.4C7.41667 7.9032 7.006 7.5 6.5 7.5H4.66667C4.16067 7.5 3.75 7.9032 3.75 8.4V16.5C3.75 16.9968 4.16067 17.4 4.66667 17.4Z" fill="#B2B3B3"/>
<path d="M11.0833 17.4H12.9167C13.4227 17.4 13.8333 16.9968 13.8333 16.5V3.9C13.8333 3.4032 13.4227 3 12.9167 3H11.0833C10.5773 3 10.1667 3.4032 10.1667 3.9V16.5C10.1667 16.9968 10.5773 17.4 11.0833 17.4Z" fill="#B2B3B3"/>
<path d="M16.5833 12V16.5C16.5833 16.9968 16.994 17.4 17.5 17.4H19.3333C19.8393 17.4 20.25 16.9968 20.25 16.5V12C20.25 11.5032 19.8393 11.1 19.3333 11.1H17.5C16.994 11.1 16.5833 11.5032 16.5833 12Z" fill="#B2B3B3"/>
<path d="M22.0833 21H1.91667C1.41067 21 1 20.5968 1 20.1C1 19.6032 1.41067 19.2 1.91667 19.2H22.0833C22.5893 19.2 23 19.6032 23 20.1C23 20.5968 22.5893 21 22.0833 21Z" fill="#B2B3B3"/>
</svg>
