<svg width="24" height="24" viewBox="0 0 24 24" fill="none" xmlns="http://www.w3.org/2000/svg">
<path d="M10.2065 11.7244C12.4401 11.7244 14.2507 9.90604 14.2507 7.66298C14.2507 5.41992 12.4401 3.60156 10.2065 3.60156C7.97299 3.60156 6.16235 5.41992 6.16235 7.66298C6.16235 9.90604 7.97299 11.7244 10.2065 11.7244Z" fill="#B2B3B3"/>
<path d="M17.8476 18.5157C16.6549 15.3374 13.5843 13.2019 10.2063 13.2019C6.82825 13.2019 3.75761 15.3374 2.56494 18.5157C2.3267 19.1492 2.35758 19.8389 2.65171 20.4592C2.95465 21.0972 3.51201 21.592 4.18261 21.8165C6.13118 22.4693 8.15916 22.8016 10.2063 22.8016C12.2533 22.8016 14.2813 22.4693 16.2299 21.8165C16.9005 21.592 17.4564 21.0972 17.7608 20.4592C18.0549 19.8389 18.0858 19.1478 17.8476 18.5157Z" fill="#B2B3B3"/>
<path fill-rule="evenodd" clip-rule="evenodd" d="M15.6016 4.79922C15.6016 4.34992 15.9658 3.98568 16.4151 3.98568H21.988C22.4373 3.98568 22.8016 4.34992 22.8016 4.79922C22.8016 5.24852 22.4373 5.61276 21.988 5.61276H16.4151C15.9658 5.61276 15.6016 5.24852 15.6016 4.79922Z" fill="#B2B3B3"/>
<path fill-rule="evenodd" clip-rule="evenodd" d="M19.2032 8.39922C18.7538 8.39922 18.3896 8.03499 18.3896 7.58568L18.3896 2.01275C18.3896 1.56345 18.7538 1.19922 19.2032 1.19922C19.6525 1.19922 20.0167 1.56345 20.0167 2.01275L20.0167 7.58568C20.0167 8.03499 19.6525 8.39922 19.2032 8.39922Z" fill="#B2B3B3"/>
</svg>
