<svg width="32" height="32" viewBox="0 0 32 32" fill="none" xmlns="http://www.w3.org/2000/svg">
<path d="M22.2757 3.96144C22.7409 4.39664 23.0576 4.98506 23.0955 5.62648C23.0953 5.70397 23.0945 5.78146 23.093 5.85894C23.0927 5.89923 23.0923 5.93951 23.0919 5.98102C23.0878 6.25308 23.0693 6.51612 23.0246 6.78428C23.0657 6.80805 23.1067 6.83181 23.1491 6.85629C23.7925 7.24426 24.2382 7.73232 24.4448 8.47474C24.4724 8.68543 24.4755 8.89456 24.4756 9.10664C24.4763 9.14819 24.4771 9.18974 24.4778 9.23255C24.4786 9.529 24.4311 9.78291 24.3496 10.068C24.3842 10.0753 24.4187 10.0827 24.4543 10.0903C24.6385 10.142 24.7707 10.2453 24.9257 10.356C24.972 10.3869 25.0184 10.4178 25.0661 10.4497C25.5284 10.8781 25.8348 11.4331 25.8652 12.0656C25.8746 12.4965 25.8697 12.8827 25.7322 13.2941C25.7832 13.308 25.8341 13.3219 25.8866 13.3362C26.0947 13.4157 26.211 13.5066 26.3731 13.6577C26.4208 13.7015 26.4685 13.7452 26.5176 13.7903C27.0311 14.308 27.2568 14.8705 27.2877 15.5984C27.2302 16.64 26.6972 17.2432 25.9882 17.9525C25.927 18.0142 25.8658 18.0758 25.8047 18.1375C25.6395 18.304 25.4739 18.47 25.3083 18.636C25.2044 18.7401 25.1006 18.8442 24.9969 18.9483C24.634 19.3127 24.2707 19.6767 23.9071 20.0405C23.5699 20.3779 23.2335 20.716 22.8974 21.0546C22.6075 21.3465 22.317 21.6379 22.0261 21.9288C21.8529 22.102 21.68 22.2754 21.5077 22.4494C21.3453 22.6133 21.1822 22.7765 21.0186 22.9392C20.9592 22.9985 20.9001 23.058 20.8412 23.1178C19.9266 24.0459 18.7459 24.6852 17.4365 24.8159C17.3042 24.7948 17.1725 24.7692 17.0417 24.7401C16.409 24.6357 15.7616 24.6276 15.1992 24.9742C14.3191 25.6165 13.578 26.4613 12.8401 27.2573C12.5075 27.6157 12.168 27.9675 11.8285 28.3193C11.482 28.6787 11.1362 29.0386 10.7948 29.4027C10.7432 29.4576 10.6916 29.5125 10.6384 29.569C10.5422 29.6716 10.4463 29.7743 10.3506 29.8774C10.3082 29.9226 10.2658 29.9677 10.2221 30.0143C10.1855 30.0536 10.1489 30.0929 10.1112 30.1334C9.90833 30.32 9.73731 30.3641 9.46491 30.3679C9.41219 30.3696 9.35946 30.3712 9.30514 30.3729C8.95662 30.3166 8.70999 30.0475 8.46971 29.8046C8.43887 29.774 8.40804 29.7433 8.37627 29.7116C8.2737 29.6094 8.17155 29.5067 8.0694 29.4041C7.99568 29.3304 7.92194 29.2568 7.84818 29.1832C7.64845 28.9837 7.44908 28.7839 7.24978 28.5841C7.04117 28.3749 6.83226 28.1661 6.62339 27.9573C6.27293 27.6068 5.92268 27.256 5.57258 26.9051C5.16745 26.4991 4.76202 26.0934 4.35641 25.6878C3.96636 25.2978 3.57648 24.9076 3.18668 24.5173C3.02068 24.3511 2.85463 24.185 2.68853 24.0188C2.49325 23.8235 2.29812 23.628 2.1031 23.4324C2.03136 23.3605 1.95958 23.2887 1.88774 23.2169C1.79001 23.1192 1.69247 23.0213 1.59497 22.9234C1.55186 22.8804 1.55186 22.8804 1.50789 22.8366C1.26067 22.5876 1.23363 22.4532 1.21963 22.1011C1.2134 21.9903 1.2134 21.9903 1.20703 21.8774C1.24803 21.3752 1.91149 20.9192 2.24557 20.587C2.30183 20.5309 2.35809 20.4747 2.41433 20.4185C2.5609 20.2722 2.70764 20.126 2.85442 19.9798C3.00477 19.8301 3.15495 19.6802 3.30514 19.5303C3.59877 19.2373 3.89257 18.9444 4.18649 18.6517C4.36436 18.7365 4.48005 18.8189 4.61473 18.9636C4.65172 19.0025 4.68871 19.0414 4.72682 19.0815C4.78551 19.1432 4.78551 19.1432 4.8454 19.2062C5.5806 19.9566 6.43815 20.4556 7.51363 20.499C8.3929 20.481 9.14168 20.2337 9.83217 19.6887C9.86878 19.6615 9.90539 19.6343 9.94311 19.6063C10.4519 19.207 10.8203 18.5763 10.9706 17.9505C11.042 17.7876 11.042 17.7876 11.1968 17.703C11.2598 17.6834 11.3227 17.6638 11.3876 17.6436C12.2564 17.3428 12.903 16.8092 13.3463 16.0017C13.4278 15.8053 13.4988 15.6104 13.5614 15.4072C13.6955 15.1233 13.9592 15.0623 14.2393 14.9612C15.1238 14.5956 15.7397 13.9143 16.1131 13.0389C16.1741 12.8873 16.1741 12.8873 16.2126 12.7086C16.2844 12.5452 16.2844 12.5452 16.4392 12.4606C16.5022 12.441 16.5651 12.4214 16.63 12.4012C17.5617 12.0786 18.1716 11.5135 18.6319 10.6477C19.0301 9.79362 19.0842 8.79824 18.7767 7.90241C18.4514 7.04674 17.7886 6.43301 17.1485 5.80493C17.223 5.64124 17.3017 5.52183 17.4281 5.39426C17.4612 5.3606 17.4943 5.32695 17.5285 5.29227C17.5642 5.25656 17.6 5.22085 17.6368 5.18406C17.6739 5.14671 17.711 5.10936 17.7493 5.07087C17.8279 4.99195 17.9066 4.91317 17.9855 4.83454C18.1051 4.71509 18.224 4.5949 18.3428 4.47464C18.4195 4.39781 18.4962 4.32104 18.573 4.24431C18.608 4.20872 18.6431 4.17312 18.6792 4.13645C19.6753 3.15079 21.1763 3.06192 22.2757 3.96144Z" fill="url(#paint0_linear_2490_58087)"/>
<path d="M12.6283 3.70566C13.4985 4.22245 14.2362 5.17888 14.9491 5.88794C15.1216 6.05937 15.2945 6.23029 15.4679 6.4008C15.6789 6.60831 15.889 6.81666 16.0985 7.02564C16.1779 7.10453 16.2576 7.18312 16.3376 7.2614C17.289 8.19364 17.289 8.19364 17.3575 8.87233C17.3458 9.54992 17.2388 10.0266 16.7618 10.5313C16.3166 10.9165 15.8429 11.0103 15.2714 11.0084C14.9866 10.9833 14.7518 10.8887 14.4984 10.7606C14.5234 10.8172 14.5234 10.8172 14.5488 10.8749C14.7834 11.4514 14.8227 11.9822 14.5817 12.5654C14.3019 13.0827 13.9079 13.4132 13.3463 13.5834C12.8542 13.6956 12.3627 13.6237 11.906 13.4106C11.9334 13.476 11.9607 13.5413 11.9889 13.6086C12.1821 14.1331 12.1696 14.6394 11.9675 15.163C11.7403 15.6197 11.3802 15.9531 10.9087 16.147C10.3154 16.3324 9.81604 16.2499 9.25603 16.003C9.27266 16.0407 9.2893 16.0785 9.30644 16.1173C9.54259 16.6979 9.57854 17.2256 9.33524 17.8118C9.09962 18.2576 8.76241 18.5576 8.30458 18.7662C7.84135 18.9038 7.28614 18.9154 6.83285 18.7358C6.31789 18.4379 5.90241 17.9635 5.48309 17.5471C5.41543 17.4801 5.3475 17.4134 5.27932 17.3469C5.17939 17.2494 5.08026 17.1512 4.98127 17.0528C4.95114 17.0237 4.92101 16.9946 4.88997 16.9646C4.50696 16.5793 4.35261 16.1597 4.34127 15.6213C4.34716 15.0529 4.50357 14.6682 4.89373 14.2565C5.35704 13.8037 5.79435 13.6956 6.43319 13.6987C6.6296 13.7237 6.81835 13.7617 7.00928 13.8139C6.94567 13.7553 6.94567 13.7553 6.88078 13.6955C6.42304 13.2631 6.08103 12.8458 6.01823 12.1947C6.00558 11.6331 6.17344 11.1266 6.54841 10.703C7.10668 10.2203 7.61121 10.1478 8.33429 10.1845C8.43074 10.2014 8.52703 10.2196 8.62233 10.2421C8.58758 10.2045 8.55282 10.167 8.51701 10.1282C7.97205 9.5323 7.71919 9.10578 7.74042 8.28251C7.77633 7.81887 7.94794 7.45989 8.26542 7.1211C8.73983 6.72689 9.28384 6.56962 9.88973 6.61275C10.0474 6.64277 10.1962 6.68305 10.3506 6.72797C10.327 6.69106 10.3034 6.65415 10.279 6.61613C9.94031 6.07237 9.80934 5.60383 9.91448 4.96437C10.0529 4.41492 10.382 4.04555 10.8513 3.74333C11.3809 3.47001 12.088 3.4385 12.6283 3.70566Z" fill="url(#paint1_linear_2490_58087)"/>
<path d="M27.5757 18.6512C27.7846 18.7494 27.9201 18.8658 28.0843 19.0296C28.1111 19.0563 28.1379 19.0829 28.1655 19.1103C28.2538 19.1981 28.3416 19.2862 28.4295 19.3744C28.4908 19.4357 28.5522 19.497 28.6136 19.5583C28.7421 19.6866 28.8704 19.8152 28.9986 19.9439C29.1627 20.1086 29.3274 20.2729 29.4922 20.437C29.619 20.5634 29.7456 20.6901 29.872 20.8169C29.9326 20.8776 29.9933 20.9382 30.0541 20.9987C30.139 21.0833 30.2236 21.1683 30.3081 21.2534C30.3562 21.3017 30.4044 21.35 30.454 21.3997C30.6489 21.6189 30.7041 21.78 30.7082 22.0717C30.7098 22.1244 30.7114 22.1772 30.7131 22.2315C30.6568 22.5796 30.3881 22.8263 30.1456 23.0665C30.0997 23.1127 30.0997 23.1127 30.0529 23.1598C29.9509 23.2623 29.8485 23.3643 29.7461 23.4663C29.6727 23.5399 29.5992 23.6136 29.5258 23.6872C29.3268 23.8867 29.1275 24.0859 28.9281 24.2849C28.7193 24.4934 28.5109 24.7021 28.3024 24.9108C27.9524 25.261 27.6021 25.611 27.2517 25.9609C26.8465 26.3654 26.4417 26.7704 26.0371 27.1757C25.6896 27.5236 25.342 27.8714 24.9941 28.2189C24.7864 28.4265 24.5787 28.6341 24.3712 28.842C24.1763 29.0373 23.9811 29.2322 23.7857 29.427C23.7139 29.4986 23.6423 29.5702 23.5708 29.642C23.4733 29.7398 23.3754 29.8373 23.2774 29.9347C23.2491 29.9633 23.2208 29.9919 23.1916 30.0213C22.9451 30.265 22.7736 30.3625 22.4269 30.3674C22.3741 30.369 22.3214 30.3707 22.2671 30.3723C21.896 30.3123 21.6335 30.0079 21.3795 29.7507C21.3435 29.7147 21.3075 29.6787 21.2703 29.6417C21.1523 29.5235 21.0346 29.4049 20.9169 29.2863C20.8347 29.204 20.7526 29.1216 20.6704 29.0393C20.4548 28.8233 20.2395 28.6069 20.0243 28.3904C19.8044 28.1693 19.5841 27.9485 19.3639 27.7277C18.9324 27.2949 18.5012 26.8618 18.0702 26.4284C18.227 26.3481 18.3724 26.2878 18.5428 26.2425C19.1957 26.0623 19.7852 25.8412 20.3746 25.5066C20.4311 25.4747 20.4877 25.4428 20.546 25.4099C21.4881 24.8424 22.2384 24.0042 23.008 23.2305C23.1689 23.0689 23.3301 22.9076 23.4912 22.7463C23.7953 22.442 24.099 22.1373 24.4026 21.8326C24.7487 21.4851 25.0952 21.1381 25.4416 20.791C26.1534 20.0781 26.8647 19.3648 27.5757 18.6512Z" fill="url(#paint2_linear_2490_58087)"/>
<path d="M17.206 1.77596C17.3858 1.87074 17.5224 1.97914 17.6668 2.12161C17.7014 2.15459 17.7361 2.18756 17.7717 2.22153C17.8537 2.30166 17.9334 2.38422 18.0125 2.46727C17.9351 2.64456 17.8563 2.74603 17.7064 2.86715C17.3462 3.17213 17.0197 3.51152 16.6875 3.84628C16.6202 3.91384 16.5529 3.98139 16.4856 4.04892C16.3223 4.21286 16.1592 4.37697 15.9962 4.54119C15.7613 4.4477 15.6029 4.27981 15.4282 4.10372C15.3966 4.07219 15.3649 4.04066 15.3323 4.00817C15.2657 3.94168 15.1993 3.87505 15.133 3.80828C15.0312 3.70582 14.9287 3.60399 14.8262 3.5022C14.7616 3.4375 14.697 3.37277 14.6325 3.308C14.6017 3.27745 14.5709 3.2469 14.5392 3.21543C14.3255 2.99899 14.3255 2.99899 14.3255 2.87053C14.6237 2.71282 14.9228 2.55704 15.2228 2.40288C15.3246 2.35029 15.426 2.29721 15.5272 2.24361C16.6666 1.64091 16.6666 1.64091 17.206 1.77596Z" fill="url(#paint3_linear_2490_58087)"/>
<defs>
<linearGradient id="paint0_linear_2490_58087" x1="0.838206" y1="1.41545" x2="17.6855" y2="36.7024" gradientUnits="userSpaceOnUse">
<stop stop-color="#2357C6"/>
<stop offset="1" stop-color="#5EA8FF"/>
</linearGradient>
<linearGradient id="paint1_linear_2490_58087" x1="0.838206" y1="1.41545" x2="17.6855" y2="36.7024" gradientUnits="userSpaceOnUse">
<stop stop-color="#2357C6"/>
<stop offset="1" stop-color="#5EA8FF"/>
</linearGradient>
<linearGradient id="paint2_linear_2490_58087" x1="0.838206" y1="1.41545" x2="17.6855" y2="36.7024" gradientUnits="userSpaceOnUse">
<stop stop-color="#2357C6"/>
<stop offset="1" stop-color="#5EA8FF"/>
</linearGradient>
<linearGradient id="paint3_linear_2490_58087" x1="0.838206" y1="1.41545" x2="17.6855" y2="36.7024" gradientUnits="userSpaceOnUse">
<stop stop-color="#2357C6"/>
<stop offset="1" stop-color="#5EA8FF"/>
</linearGradient>
</defs>
</svg>
