<svg width="24" height="24" viewBox="0 0 24 24" fill="none" xmlns="http://www.w3.org/2000/svg">
<path d="M8.29266 11.806C10.0945 11.806 11.5552 10.2967 11.5552 8.435C11.5552 6.57327 10.0945 5.06404 8.29266 5.06404C6.49081 5.06404 5.03013 6.57327 5.03013 8.435C5.03013 10.2967 6.49081 11.806 8.29266 11.806Z" fill="#B2B3B3"/>
<path d="M15.7064 8.74194C17.5082 8.74194 18.9689 7.2327 18.9689 5.37097C18.9689 3.50923 17.5082 2 15.7064 2C13.9045 2 12.4438 3.50923 12.4438 5.37097C12.4438 7.2327 13.9045 8.74194 15.7064 8.74194Z" fill="#B2B3B3"/>
<path d="M21.8708 14.3787C20.9086 11.7407 18.4315 9.96822 15.7064 9.96822C14.0253 9.96822 12.4415 10.6461 11.2468 11.7824C13.4463 12.6515 15.2627 14.4412 16.1216 16.7947C16.2545 17.1576 16.3138 17.5339 16.3375 17.9102C17.7742 17.8489 19.1955 17.5915 20.567 17.1183C21.108 16.932 21.5564 16.5214 21.802 15.9918C22.0393 15.477 22.0642 14.9033 21.872 14.3787H21.8708Z" fill="#B2B3B3"/>
<path d="M14.4568 17.4427C13.4947 14.8048 11.0175 13.0323 8.29243 13.0323C5.56733 13.0323 3.09017 14.8048 2.12802 17.4427C1.93583 17.9686 1.96074 18.541 2.19801 19.0559C2.44241 19.5854 2.89204 19.9961 3.43303 20.1824C5.00498 20.7242 6.641 21 8.29243 21C9.94387 21 11.5799 20.7242 13.1518 20.1824C13.6928 19.9961 14.1413 19.5854 14.3869 19.0559C14.6241 18.541 14.649 17.9674 14.4568 17.4427Z" fill="#B2B3B3"/>
</svg>
