<svg width="24" height="24" viewBox="0 0 24 24" fill="none" xmlns="http://www.w3.org/2000/svg">
<path d="M14.4545 17V17.8333H9.54545V17H3V21.1667C3 21.6267 3.36655 22 3.81818 22H20.1818C20.6335 22 21 21.6267 21 21.1667V17H14.4545Z" fill="#B2B3B3"/>
<path d="M21.1667 5.25H16.1667V2.8125C16.1667 2.364 15.7933 2 15.3333 2H8.66667C8.20667 2 7.83333 2.364 7.83333 2.8125V5.25H2.83333C2.37333 5.25 2 5.614 2 6.0625V14.1875C2 14.636 2.37333 15 2.83333 15H9.5V13.375H14.5V15H21.1667C21.6267 15 22 14.636 22 14.1875V6.0625C22 5.614 21.6267 5.25 21.1667 5.25ZM14.5 5.25H9.5V3.625H14.5V5.25Z" fill="#B2B3B3"/>
</svg>
