<svg width="24" height="24" viewBox="0 0 24 24" fill="none" xmlns="http://www.w3.org/2000/svg">
<path d="M11.9991 8.98501C13.4083 8.98501 14.6186 8.12776 15.1584 6.90475C16.9676 7.84709 18.3126 9.56668 18.7555 11.5987C18.8524 12.0432 19.2437 12.3454 19.6753 12.3454C19.7432 12.3454 19.8111 12.3391 19.8803 12.3226C20.3886 12.2096 20.7095 11.7003 20.5975 11.1872C19.9822 8.37795 18.0132 6.04242 15.4012 4.93244C15.1332 3.27381 13.7153 2 11.9978 2C10.0892 2 8.53784 3.56591 8.53784 5.49251C8.53784 7.4191 10.0892 8.98501 11.9978 8.98501H11.9991Z" fill="#B2B3B3"/>
<path d="M8.45857 15.1763C7.75399 13.9456 6.41277 13.3145 5.09419 13.4554C4.99731 11.4018 5.80003 9.36729 7.31992 7.96393C7.70492 7.6096 7.73134 7.00635 7.38031 6.61773C7.02802 6.23038 6.43164 6.20244 6.04664 6.55804C3.94296 8.49987 2.92383 11.3891 3.27738 14.2263C2.71749 14.6861 2.30984 15.302 2.1186 16.0196C1.8808 16.92 2.00284 17.8623 2.4646 18.6688C2.92635 19.4765 3.67245 20.0556 4.56576 20.2969C4.86269 20.3769 5.16591 20.4176 5.46662 20.4176C6.06677 20.4176 6.65685 20.2588 7.19032 19.9477C8.84106 18.9863 9.41101 16.8463 8.45731 15.1775L8.45857 15.1763Z" fill="#B2B3B3"/>
<path d="M21.8796 16.0196C21.6405 15.1191 21.0668 14.3647 20.2679 13.8987C18.6171 12.9347 16.4946 13.51 15.5409 15.1775C14.8363 16.4095 14.9671 17.8954 15.7472 18.9774C14.0361 20.0886 11.8909 20.4036 9.92058 19.7762C9.42108 19.6187 8.8939 19.8969 8.73789 20.3973C8.58061 20.8989 8.85615 21.4336 9.35314 21.5923C10.2125 21.8667 11.0995 22 11.9827 22C13.9015 22 15.7975 21.3637 17.3464 20.1712C17.7301 20.316 18.1264 20.415 18.5328 20.415C18.8335 20.415 19.1355 20.3757 19.4337 20.2944C20.327 20.0531 21.0731 19.474 21.5348 18.6675C21.9966 17.8611 22.1199 16.9187 21.8808 16.0183L21.8796 16.0196Z" fill="#B2B3B3"/>
</svg>
