<svg width="52" height="52" viewBox="0 0 52 52" fill="none" xmlns="http://www.w3.org/2000/svg">
<path d="M32.7889 4.5254C31.6333 3.89273 30.2207 3.93896 29.1113 4.65251L13.8147 14.443H6.5C2.91489 14.443 0 17.3578 0 20.943V31.0541C0 34.6392 2.91489 37.5541 6.5 37.5541H13.8118L29.1084 47.3445C29.7007 47.723 30.3767 47.9165 31.0584 47.9165C31.6536 47.9165 32.2487 47.7692 32.7889 47.4745C33.9473 46.8418 34.6667 45.6256 34.6667 44.3054V7.69451C34.6667 6.37429 33.9473 5.16096 32.7889 4.5254Z" fill="white"/>
<path d="M41.7234 20.3848C40.8769 19.5384 39.5018 19.5384 38.6583 20.3848C37.8118 21.2313 37.8118 22.6035 38.6583 23.4499C39.34 24.1317 39.7156 25.0388 39.7156 26.0037C39.7156 26.9686 39.34 27.8728 38.6583 28.5575C37.8118 29.4011 37.8118 30.7762 38.6583 31.6226C39.08 32.0444 39.6347 32.2582 40.1894 32.2582C40.744 32.2582 41.2987 32.0473 41.7205 31.6226C43.2227 30.1233 44.0489 28.1299 44.0489 26.0066C44.0489 23.8833 43.2227 21.8899 41.7205 20.3906L41.7234 20.3848Z" fill="white"/>
<path d="M44.2833 14.7648C43.4368 15.6112 43.4368 16.9834 44.2833 17.8299C48.7899 22.3365 48.7899 29.6685 44.2833 34.1723C43.4368 35.0188 43.4368 36.391 44.2833 37.2374C44.705 37.6592 45.2597 37.873 45.8144 37.873C46.369 37.873 46.9237 37.6621 47.3455 37.2374C50.347 34.2359 51.9995 30.2463 51.9995 26.0025C51.9995 21.7588 50.347 17.7663 47.3455 14.7676C46.499 13.9212 45.1268 13.9212 44.2804 14.7676L44.2833 14.7648Z" fill="white"/>
</svg>
