<svg width="279" height="271" viewBox="0 0 279 271" fill="none" xmlns="http://www.w3.org/2000/svg">
<path d="M70.7115 32.9085C110.69 5.52264 173.935 -4.30899 279 -15C172.522 -25.8373 108.959 -35.7786 69.1028 -64.0178C80.18 -87.1796 98.8111 -113.505 125.021 -147.09C126.996 -149.613 123.669 -152.843 121.186 -150.814C88.5536 -124.19 62.8456 -105.1 40.0796 -93.4333C12.5916 -133.272 2.7316 -196.296 -7.99692 -301C-18.8722 -194.888 -28.8545 -131.553 -57.1927 -91.8303C-80.4358 -102.869 -106.853 -121.435 -140.55 -147.559C-143.082 -149.522 -146.324 -146.212 -144.293 -143.737C-117.57 -111.213 -98.4186 -85.5948 -86.7114 -62.9084C-126.69 -35.5226 -189.935 -25.691 -295 -15C-188.522 -4.16272 -124.959 5.77859 -85.1028 34.0178C-96.1799 57.1796 -114.805 83.5049 -141.021 117.09C-142.996 119.613 -139.669 122.843 -137.186 120.82C-104.554 94.1898 -78.8455 75.1057 -56.0795 63.4333C-28.5915 103.272 -18.7315 166.302 -7.99078 271C2.88452 164.888 12.8607 101.553 41.1989 61.8364C64.442 72.8687 90.8596 91.4348 124.556 117.559C127.088 119.522 130.33 116.212 128.299 113.737C101.576 81.2131 82.4247 55.5949 70.7176 32.9085" fill="#2C57A4"/>
</svg>
