<svg width="363" height="375" viewBox="0 0 363 375" fill="none" xmlns="http://www.w3.org/2000/svg">
<mask id="mask0_1256_42859" style="mask-type:luminance" maskUnits="userSpaceOnUse" x="0" y="-192" width="474" height="670">
<path d="M370.788 -191.63C369.602 -172.666 368.348 -153.707 367.027 -134.753C363.603 -86.2173 358.661 -37.8837 348.599 9.89331C344.343 30.1342 338.063 48.3679 329.758 64.5944C313.186 59.1462 296.656 50.8137 280.185 39.4619C242.52 13.5029 206.128 -14.5139 170.943 -43.7873C125.401 -81.6631 81.6215 -121.673 37.083 -160.763L36.9312 -160.35C80.6178 -110.296 125.257 -61.0342 167.654 -9.90062C194.346 22.2059 219.098 55.8769 241.778 90.9329C250.244 103.913 257.082 117.886 262.137 132.536C246.509 140.473 228.849 146.317 209.072 149.952C164.095 158.276 118.527 164.18 72.9684 168.329C48.6793 170.564 24.3481 172.335 0 173.904V187.33C31.5674 189.397 63.1179 191.682 94.5925 194.625C136.161 198.455 177.465 204.763 218.281 213.517C233.461 216.697 248.19 221.736 262.137 228.521C257.242 242.755 250.686 256.363 242.604 269.061C225.383 296.437 207.081 323.459 186.486 348.338C150.129 392.244 112.202 434.86 74.7058 477.821H88.3263C133.295 438.815 178.204 399.75 223.687 361.36C252.067 337.4 282.96 316.661 317.302 301.835C321.592 299.979 325.884 298.315 330.18 296.842C336.678 310.239 341.588 324.348 344.812 338.884C351.998 370.418 358.163 402.466 361.191 434.615C362.54 449.014 363.777 463.416 364.902 477.821H391.889C393.424 457.715 395.035 437.615 396.722 417.52C399.851 380.513 407.053 344.037 420.859 309.206C422.546 305.04 424.309 301.025 426.215 297.095C429.588 298.343 432.911 299.71 436.251 301.236C449.043 307.067 461.533 313.541 473.671 320.634V41.7643C458.758 51.254 442.727 58.8601 425.945 64.4089C419.433 50.97 414.508 36.8185 411.27 22.2403C404.152 -8.96446 398.012 -40.7258 395.035 -72.5631C391.324 -112.202 388.575 -151.933 385.944 -191.664L370.788 -191.63Z" fill="white"/>
</mask>
<g mask="url(#mask0_1256_42859)">
<path d="M71.9548 -361.687L-240.305 376.098L401.724 647.829L713.983 -89.9549L71.9548 -361.687Z" fill="url(#paint0_linear_1256_42859)"/>
</g>
<defs>
<linearGradient id="paint0_linear_1256_42859" x1="429.66" y1="-305.499" x2="86.3732" y2="505.595" gradientUnits="userSpaceOnUse">
<stop stop-color="#191E38"/>
<stop offset="0.52" stop-color="#3058A5"/>
<stop offset="0.97" stop-color="#5FAFDD"/>
<stop offset="1" stop-color="#5FAFDD"/>
</linearGradient>
</defs>
</svg>
