<svg width="170" height="167" viewBox="0 0 170 167" fill="none" xmlns="http://www.w3.org/2000/svg">
<path d="M1.78377 85.5605C-0.604238 85.1968 -0.590437 81.7506 1.8004 81.4059L65.2546 72.2595C70.4457 71.5112 74.5349 67.4526 75.3221 62.2671L84.4871 1.8903C84.8474 -0.483328 88.2654 -0.492065 88.6378 1.87968L98.1919 62.7191C98.9878 67.7875 102.943 71.7752 108.004 72.6132L167.816 82.5153C170.18 82.9067 170.15 86.316 167.779 86.6648L107.694 95.5054C102.678 96.2433 98.6809 100.078 97.7349 105.058L86.343 165.039C85.8959 167.393 82.4881 167.281 82.1956 164.903L74.8876 105.481C74.2365 100.187 70.1419 95.9729 64.8686 95.1697L1.78377 85.5605Z" fill="#2C57A4"/>
</svg>
