<svg width="32" height="33" viewBox="0 0 32 33" fill="none" xmlns="http://www.w3.org/2000/svg">
<g clip-path="url(#clip0_1720_45725)">
<path d="M31.4551 5.76935C31.2489 5.27157 30.7617 4.94624 30.2231 4.94624H27.5564V2.27957C27.5564 1.74091 27.2311 1.25379 26.7333 1.04757C26.2355 0.839572 25.6613 0.955128 25.2809 1.33735L20.8364 5.78179C20.5857 6.03246 20.4453 6.37202 20.4453 6.72402V10.1711L15.0586 15.5578C14.5377 16.0787 14.5377 16.9231 15.0586 17.444C15.3182 17.7036 15.6595 17.8351 16.0009 17.8351C16.3422 17.8351 16.6835 17.7053 16.9431 17.444L22.3297 12.0574H25.7769C26.1306 12.0574 26.4702 11.9169 26.7191 11.6662L31.1635 7.22179C31.5457 6.84135 31.6577 6.26713 31.4533 5.76935H31.4551Z" fill="#212121"/>
<path d="M31.4551 5.76935C31.2489 5.27157 30.7617 4.94624 30.2231 4.94624H27.5564V2.27957C27.5564 1.74091 27.2311 1.25379 26.7333 1.04757C26.2355 0.839572 25.6613 0.955128 25.2809 1.33735L20.8364 5.78179C20.5857 6.03246 20.4453 6.37202 20.4453 6.72402V10.1711L15.0586 15.5578C14.5377 16.0787 14.5377 16.9231 15.0586 17.444C15.3182 17.7036 15.6595 17.8351 16.0009 17.8351C16.3422 17.8351 16.6835 17.7053 16.9431 17.444L22.3297 12.0574H25.7769C26.1306 12.0574 26.4702 11.9169 26.7191 11.6662L31.1635 7.22179C31.5457 6.84135 31.6577 6.26713 31.4533 5.76935H31.4551Z" fill="url(#paint0_linear_1720_45725)"/>
<path d="M15.9996 30.7226C8.15779 30.7226 1.77734 24.3422 1.77734 16.5004C1.77734 7.79285 9.59423 0.815067 18.6645 2.53596C19.388 2.67284 19.8645 3.37151 19.7276 4.09329C19.5907 4.81862 18.8796 5.29151 18.1685 5.15462C17.4289 5.01418 16.7 4.94307 15.9996 4.94307C9.62801 4.94307 4.44401 10.1271 4.44401 16.4986C4.44401 22.8702 9.62801 28.0542 15.9996 28.0542C22.3711 28.0542 27.5551 22.8702 27.5551 16.4986C27.5551 15.7946 27.484 15.064 27.3453 14.3297C27.2067 13.6062 27.6813 12.9093 28.4049 12.7706C29.1302 12.632 29.8253 13.1066 29.964 13.832C30.1365 14.7297 30.2236 15.6275 30.2236 16.4986C30.2236 24.3404 23.8431 30.7208 16.0013 30.7208L15.9996 30.7226Z" fill="#212121"/>
<path d="M15.9996 30.7226C8.15779 30.7226 1.77734 24.3422 1.77734 16.5004C1.77734 7.79285 9.59423 0.815067 18.6645 2.53596C19.388 2.67284 19.8645 3.37151 19.7276 4.09329C19.5907 4.81862 18.8796 5.29151 18.1685 5.15462C17.4289 5.01418 16.7 4.94307 15.9996 4.94307C9.62801 4.94307 4.44401 10.1271 4.44401 16.4986C4.44401 22.8702 9.62801 28.0542 15.9996 28.0542C22.3711 28.0542 27.5551 22.8702 27.5551 16.4986C27.5551 15.7946 27.484 15.064 27.3453 14.3297C27.2067 13.6062 27.6813 12.9093 28.4049 12.7706C29.1302 12.632 29.8253 13.1066 29.964 13.832C30.1365 14.7297 30.2236 15.6275 30.2236 16.4986C30.2236 24.3404 23.8431 30.7208 16.0013 30.7208L15.9996 30.7226Z" fill="url(#paint1_linear_1720_45725)"/>
<path d="M15.9983 25.3911C11.0969 25.3911 7.10938 21.4035 7.10938 16.5022C7.10938 11.6008 11.0969 7.61328 15.9983 7.61328C16.464 7.61328 16.9103 7.67728 17.3565 7.74484C18.0836 7.85684 18.5832 8.53773 18.4712 9.26484C18.3609 9.99373 17.6925 10.4968 16.9512 10.3795C16.6383 10.3315 16.3254 10.2782 16 10.2782C12.5689 10.2782 9.77782 13.0693 9.77782 16.5004C9.77782 19.9315 12.5689 22.7226 16 22.7226C19.4312 22.7226 22.2223 19.9315 22.2223 16.5004C22.2223 16.1751 22.1707 15.8639 22.1209 15.5511C22.0089 14.8239 22.5067 14.1431 23.2338 14.0293C23.9734 13.9262 24.6436 14.4151 24.7556 15.1422C24.8249 15.5884 24.8872 16.0364 24.8872 16.5022C24.8872 21.4035 20.8996 25.3911 15.9983 25.3911Z" fill="#212121"/>
<path d="M15.9983 25.3911C11.0969 25.3911 7.10938 21.4035 7.10938 16.5022C7.10938 11.6008 11.0969 7.61328 15.9983 7.61328C16.464 7.61328 16.9103 7.67728 17.3565 7.74484C18.0836 7.85684 18.5832 8.53773 18.4712 9.26484C18.3609 9.99373 17.6925 10.4968 16.9512 10.3795C16.6383 10.3315 16.3254 10.2782 16 10.2782C12.5689 10.2782 9.77782 13.0693 9.77782 16.5004C9.77782 19.9315 12.5689 22.7226 16 22.7226C19.4312 22.7226 22.2223 19.9315 22.2223 16.5004C22.2223 16.1751 22.1707 15.8639 22.1209 15.5511C22.0089 14.8239 22.5067 14.1431 23.2338 14.0293C23.9734 13.9262 24.6436 14.4151 24.7556 15.1422C24.8249 15.5884 24.8872 16.0364 24.8872 16.5022C24.8872 21.4035 20.8996 25.3911 15.9983 25.3911Z" fill="url(#paint2_linear_1720_45725)"/>
</g>
<defs>
<linearGradient id="paint0_linear_1720_45725" x1="14.4569" y1="0.775837" x2="24.5618" y2="21.3362" gradientUnits="userSpaceOnUse">
<stop stop-color="#2357C6"/>
<stop offset="1" stop-color="#5EA8FF"/>
</linearGradient>
<linearGradient id="paint1_linear_1720_45725" x1="1.42177" y1="1.98797" x2="18.4412" y2="36.6214" gradientUnits="userSpaceOnUse">
<stop stop-color="#2357C6"/>
<stop offset="1" stop-color="#5EA8FF"/>
</linearGradient>
<linearGradient id="paint2_linear_1720_45725" x1="6.88715" y1="7.4349" x2="17.5219" y2="29.0781" gradientUnits="userSpaceOnUse">
<stop stop-color="#2357C6"/>
<stop offset="1" stop-color="#5EA8FF"/>
</linearGradient>
<clipPath id="clip0_1720_45725">
<rect width="32" height="32" fill="white" transform="translate(0 0.5)"/>
</clipPath>
</defs>
</svg>
