<svg width="32" height="32" viewBox="0 0 32 32" fill="none" xmlns="http://www.w3.org/2000/svg">
<path d="M10.2264 15.9989C12.9264 15.9989 15.1153 13.81 15.1153 11.11C15.1153 8.40992 12.9264 6.22109 10.2264 6.22109C7.52633 6.22109 5.3375 8.40992 5.3375 11.11C5.3375 13.81 7.52633 15.9989 10.2264 15.9989Z" fill="url(#paint0_linear_1256_42892)"/>
<path d="M21.3358 11.5551C24.0358 11.5551 26.2247 9.36629 26.2247 6.66623C26.2247 3.96617 24.0358 1.77734 21.3358 1.77734C18.6357 1.77734 16.4469 3.96617 16.4469 6.66623C16.4469 9.36629 18.6357 11.5551 21.3358 11.5551Z" fill="url(#paint1_linear_1256_42892)"/>
<path d="M30.5731 19.73C29.1313 15.9043 25.4193 13.3336 21.3358 13.3336C18.8167 13.3336 16.4433 14.3167 14.6531 15.9647C17.9491 17.2251 20.6709 19.8207 21.958 23.234C22.1571 23.7603 22.246 24.306 22.2816 24.8518C24.4345 24.7629 26.5642 24.3896 28.6193 23.7034C29.43 23.4331 30.102 22.8376 30.47 22.0696C30.8256 21.3229 30.8629 20.4909 30.5749 19.73H30.5731Z" fill="url(#paint2_linear_1256_42892)"/>
<path d="M19.4634 24.1738C18.0216 20.348 14.3096 17.7773 10.226 17.7773C6.14249 17.7773 2.43049 20.348 0.988709 24.1738C0.700709 24.9365 0.738043 25.7667 1.0936 26.5133C1.45982 27.2813 2.1336 27.8769 2.94427 28.1471C5.29982 28.9329 7.75138 29.3329 10.226 29.3329C12.7007 29.3329 15.1523 28.9329 17.5078 28.1471C18.3185 27.8769 18.9905 27.2813 19.3585 26.5133C19.714 25.7667 19.7514 24.9347 19.4634 24.1738Z" fill="url(#paint3_linear_1256_42892)"/>
<defs>
<linearGradient id="paint0_linear_1256_42892" x1="0.422252" y1="1.50085" x2="16.048" y2="36.0879" gradientUnits="userSpaceOnUse">
<stop stop-color="#2357C6"/>
<stop offset="1" stop-color="#5EA8FF"/>
</linearGradient>
<linearGradient id="paint1_linear_1256_42892" x1="0.422252" y1="1.50085" x2="16.048" y2="36.0879" gradientUnits="userSpaceOnUse">
<stop stop-color="#2357C6"/>
<stop offset="1" stop-color="#5EA8FF"/>
</linearGradient>
<linearGradient id="paint2_linear_1256_42892" x1="0.422252" y1="1.50085" x2="16.048" y2="36.0879" gradientUnits="userSpaceOnUse">
<stop stop-color="#2357C6"/>
<stop offset="1" stop-color="#5EA8FF"/>
</linearGradient>
<linearGradient id="paint3_linear_1256_42892" x1="0.422252" y1="1.50085" x2="16.048" y2="36.0879" gradientUnits="userSpaceOnUse">
<stop stop-color="#2357C6"/>
<stop offset="1" stop-color="#5EA8FF"/>
</linearGradient>
</defs>
</svg>
