<svg width="24" height="24" viewBox="0 0 24 24" fill="none" xmlns="http://www.w3.org/2000/svg">
<path fill-rule="evenodd" clip-rule="evenodd" d="M3.82031 3.93975V22.364L7.32681 20.061L9.66447 22.364L12.0021 20.061L14.3398 22.364L16.6775 20.061L20.1839 22.364V3.93975C20.1839 3.32895 19.9377 2.74316 19.4993 2.31126C19.0609 1.87936 18.4663 1.63672 17.8463 1.63672H6.15797C5.53799 1.63672 4.94339 1.87936 4.505 2.31126C4.0666 2.74316 3.82031 3.32895 3.82031 3.93975ZM15.7788 6.53777C16.0831 6.81872 16.1021 7.29322 15.8212 7.59758L9.27571 14.6885C8.99476 14.9929 8.52027 15.0118 8.2159 14.7309C7.91153 14.4499 7.89255 13.9754 8.17351 13.6711L14.719 6.58016C14.9999 6.2758 15.4744 6.25682 15.7788 6.53777ZM7.96875 8.18218C7.96875 7.46672 8.54874 6.88672 9.2642 6.88672C9.97966 6.88672 10.5597 7.46672 10.5597 8.18218C10.5597 8.89764 9.97966 9.47763 9.2642 9.47763C8.54874 9.47763 7.96875 8.89764 7.96875 8.18218ZM14.7251 12.3389C14.0097 12.3389 13.4297 12.9189 13.4297 13.6343C13.4297 14.3498 14.0097 14.9298 14.7251 14.9298C15.4406 14.9298 16.0206 14.3498 16.0206 13.6343C16.0206 12.9189 15.4406 12.3389 14.7251 12.3389Z" fill="#B2B3B3"/>
</svg>
