<svg width="32" height="32" viewBox="0 0 32 32" fill="none" xmlns="http://www.w3.org/2000/svg">
<g clip-path="url(#clip0_1256_42887)">
<path d="M26.474 16.613L24.467 14.055C24.361 13.9229 24.2235 13.8197 24.067 13.755L21.18 12.533C20.999 12.4573 20.8 12.4358 20.607 12.471L17.191 13.107C17.0226 13.1384 16.8651 13.2126 16.7336 13.3224C16.6021 13.4322 16.501 13.5739 16.44 13.734L15.256 16.848C15.1791 17.0499 15.1696 17.2713 15.229 17.479L15.956 20L14.809 22.568C14.7492 22.7016 14.7195 22.8467 14.7219 22.9931C14.7243 23.1394 14.7588 23.2834 14.823 23.415L16.229 26.3C16.3113 26.4685 16.4394 26.6104 16.5985 26.7096C16.7576 26.8088 16.9415 26.8613 17.129 26.861C17.1979 26.8614 17.2666 26.8544 17.334 26.84L19.965 26.291C20.1102 26.2618 20.2469 26.2003 20.365 26.111L22.384 24.589C22.4377 24.5486 22.487 24.5027 22.531 24.452L24.189 22.577L26.099 20.634C26.2555 20.4745 26.3541 20.2671 26.379 20.045L26.685 17.345C26.714 17.0827 26.6382 16.8196 26.474 16.613Z" fill="url(#paint0_linear_1256_42887)"/>
<path d="M16 0C12.8355 0 9.74207 0.938384 7.11088 2.69649C4.4797 4.45459 2.42894 6.95345 1.21793 9.87706C0.0069325 12.8007 -0.309921 16.0177 0.307443 19.1214C0.924806 22.2251 2.44866 25.0761 4.6863 27.3137C6.92394 29.5513 9.77487 31.0752 12.8786 31.6926C15.9823 32.3099 19.1993 31.9931 22.1229 30.7821C25.0466 29.5711 27.5454 27.5203 29.3035 24.8891C31.0616 22.2579 32 19.1645 32 16C31.995 11.7581 30.3077 7.69134 27.3082 4.69185C24.3087 1.69235 20.2419 0.00502833 16 0ZM16 30C12.8471 30.0003 9.78748 28.9303 7.32201 26.965L8.32201 26.526C8.49923 26.4489 8.65032 26.3221 8.75701 26.161L10.587 23.385C10.726 23.1744 10.7802 22.9191 10.7389 22.6702C10.6975 22.4214 10.5636 22.1973 10.364 22.043L7.73601 20.005L6.67801 18.113L5.73201 16.15L7.71501 13.806L11.1 13.18C11.3199 13.1392 11.5197 13.026 11.6676 12.8583C11.8155 12.6906 11.903 12.4782 11.916 12.255L12.1 9.048C12.1152 8.80126 12.0378 8.55772 11.883 8.365L10 6L8.46701 4.218C10.0288 3.21528 11.7754 2.53526 13.604 2.218L13.609 2.393C13.6138 2.54722 13.6542 2.69825 13.727 2.83426C13.7999 2.97028 13.9033 3.08758 14.029 3.177L15.829 4.457L17.369 6.076L17.948 8.257C18.0096 8.48732 18.1515 8.68805 18.348 8.823L20.263 10.144C20.3985 10.2375 20.5551 10.2962 20.7187 10.3146C20.8823 10.3331 21.048 10.3109 21.201 10.25L23.182 9.461L25.83 9.488C26.0237 9.49116 26.2141 9.43688 26.377 9.332L27.777 8.445C29.1405 10.5581 29.9086 13 30.0003 15.5132C30.0921 18.0263 29.5041 20.5177 28.2983 22.7246C27.0925 24.9315 25.3136 26.7722 23.1491 28.0527C20.9847 29.3331 18.5148 30.0059 16 30Z" fill="url(#paint1_linear_1256_42887)"/>
</g>
<defs>
<linearGradient id="paint0_linear_1256_42887" x1="-0.4" y1="-0.321094" x2="18.7425" y2="38.6367" gradientUnits="userSpaceOnUse">
<stop stop-color="#2357C6"/>
<stop offset="1" stop-color="#5EA8FF"/>
</linearGradient>
<linearGradient id="paint1_linear_1256_42887" x1="-0.4" y1="-0.321094" x2="18.7425" y2="38.6367" gradientUnits="userSpaceOnUse">
<stop stop-color="#2357C6"/>
<stop offset="1" stop-color="#5EA8FF"/>
</linearGradient>
<clipPath id="clip0_1256_42887">
<rect width="32" height="32" fill="white"/>
</clipPath>
</defs>
</svg>
